%
M48
M72
T01C0.02362
T02C0.04000
T03C0.04724
T04C0.11024
%
T01
X6340Y26970
X12895Y30533
X17600Y37600
X24155Y29175
X28565Y24647
X36458Y28584
X37600Y37600
X27600Y37600
X47600Y45100
X47600Y51419
X46813Y60494
X42600Y65100
X57600Y60100
X62600Y60100
X70100Y60100
X77600Y67600
X80100Y62600
X82600Y72600
X72600Y72600
X62600Y72600
X57600Y72600
X62462Y51419
X72600Y45100
X78978Y36458
X87600Y35100
X92757Y36852
X101813Y45120
X100631Y58506
X95907Y65198
X82600Y46281
X60100Y32600
X60513Y5868
X70356Y5868
X50671Y5868
X40435Y5868
X27639Y6931
X6065Y37994
X10100Y85100
X10100Y90100
X15100Y90100
X15100Y85100
X20100Y85100
X20100Y90100
X43506Y122541
X59254Y136714
X64116Y127817
X62600Y117600
X75100Y125100
X87600Y132600
X88899Y144450
X79726Y157187
X73427Y165061
X78939Y175297
X97600Y172600
X108683Y174903
X117718Y174844
X126183Y174903
X156104Y200494
X156104Y210336
X155710Y218604
X172639Y218998
X172639Y209943
X172639Y200494
X180513Y167029
X199017Y167029
X214372Y167029
X220100Y165100
X227757Y178446
X244687Y186320
X254529Y196950
X232482Y218998
X228151Y198131
X253742Y172935
X254135Y160336
X254923Y146950
X247836Y138289
X247836Y130415
X234057Y122147
X230100Y130100
X224608Y131202
X225395Y117817
X215159Y118210
X220100Y99805
X240002Y95218
X252600Y90100
X254569Y78289
X240002Y77502
X254175Y102994
X236025Y143407
X235238Y159155
X215159Y145376
X205317Y137108
X195474Y125691
X185238Y134352
X175395Y146557
X198624Y151281
X134509Y219391
X109509Y219391
X89509Y219391
X62009Y219391
X47836Y217423
X39175Y203250
X33269Y190257
X23427Y184746
X22639Y175297
X21576Y163643
X26773Y154824
X31734Y147876
X23998Y142226
X6498Y140651
X8860Y162698
X6498Y175297
X6891Y185533
X6498Y197344
X23033Y196557
X35769Y175257
X35494Y158781
X57679Y149313
X75002Y141045
X57679Y174509
X57679Y202856
X27757Y218998
X175238Y72069
X165238Y59569
X165986Y44726
X192757Y45120
X192738Y62069
X212738Y64569
X212738Y57069
X212836Y45120
X236596Y28525
X243013Y36635
X254569Y36458
X255100Y26557
X138820Y45120
T02
X75553Y21380
X65553Y21380
X55553Y21380
X45553Y21380
X35553Y21380
X35553Y11380
X45553Y11380
X55553Y11380
X65553Y11380
X75553Y11380
X15100Y145100
X15100Y155100
X15100Y170100
X15100Y180100
X15100Y190100
T03
X47600Y187600
X47600Y207285
X32600Y50100
X12915Y50100
X212600Y187915
X212600Y207600
X227915Y50100
X247600Y50100
T04
X16380Y16380
X16380Y209293
X244726Y209293
X244726Y16380
M30
