G75*
%MOIN*%
%OFA0B0*%
%FSLAX25Y25*%
%IPPOS*%
%LPD*%
%AMOC8*
5,1,8,0,0,1.08239X$1,22.5*
%
%ADD10C,0.00800*%
%ADD11C,0.00500*%
%ADD12C,0.00400*%
%ADD13C,0.00300*%
%ADD14C,0.00004*%
%ADD15C,0.00200*%
%ADD16C,0.00600*%
%ADD17R,0.01772X0.00039*%
%ADD18R,0.02480X0.00039*%
%ADD19R,0.03031X0.00039*%
%ADD20R,0.03504X0.00039*%
%ADD21R,0.03976X0.00039*%
%ADD22R,0.04291X0.00039*%
%ADD23R,0.04685X0.00039*%
%ADD24R,0.05000X0.00039*%
%ADD25R,0.05315X0.00039*%
%ADD26R,0.05551X0.00039*%
%ADD27R,0.05866X0.00039*%
%ADD28R,0.06102X0.00039*%
%ADD29R,0.06339X0.00039*%
%ADD30R,0.06575X0.00039*%
%ADD31R,0.06811X0.00039*%
%ADD32R,0.06969X0.00039*%
%ADD33R,0.07205X0.00039*%
%ADD34R,0.07441X0.00039*%
%ADD35R,0.07598X0.00039*%
%ADD36R,0.07756X0.00039*%
%ADD37R,0.07992X0.00039*%
%ADD38R,0.08150X0.00039*%
%ADD39R,0.08307X0.00039*%
%ADD40R,0.08465X0.00039*%
%ADD41R,0.08701X0.00039*%
%ADD42R,0.08858X0.00039*%
%ADD43R,0.09016X0.00039*%
%ADD44R,0.09173X0.00039*%
%ADD45R,0.04134X0.00039*%
%ADD46R,0.03937X0.00039*%
%ADD47R,0.04094X0.00039*%
%ADD48R,0.03898X0.00039*%
%ADD49R,0.04055X0.00039*%
%ADD50R,0.03858X0.00039*%
%ADD51R,0.04016X0.00039*%
%ADD52R,0.03819X0.00039*%
%ADD53R,0.04173X0.00039*%
%ADD54R,0.04213X0.00039*%
%ADD55R,0.04252X0.00039*%
%ADD56R,0.04331X0.00039*%
%ADD57R,0.04409X0.00039*%
%ADD58R,0.04449X0.00039*%
%ADD59R,0.04488X0.00039*%
%ADD60R,0.04370X0.00039*%
%ADD61R,0.04528X0.00039*%
%ADD62R,0.04567X0.00039*%
%ADD63R,0.04606X0.00039*%
%ADD64R,0.04646X0.00039*%
%ADD65R,0.04724X0.00039*%
%ADD66R,0.04764X0.00039*%
%ADD67R,0.04803X0.00039*%
%ADD68R,0.04843X0.00039*%
%ADD69R,0.04882X0.00039*%
%ADD70R,0.04921X0.00039*%
%ADD71R,0.04961X0.00039*%
%ADD72R,0.05039X0.00039*%
%ADD73R,0.05079X0.00039*%
%ADD74R,0.05118X0.00039*%
%ADD75R,0.05157X0.00039*%
%ADD76R,0.05197X0.00039*%
%ADD77R,0.05236X0.00039*%
%ADD78R,0.05276X0.00039*%
%ADD79R,0.05354X0.00039*%
%ADD80R,0.05394X0.00039*%
%ADD81R,0.05433X0.00039*%
%ADD82R,0.05472X0.00039*%
%ADD83R,0.05512X0.00039*%
%ADD84R,0.05591X0.00039*%
%ADD85R,0.05630X0.00039*%
%ADD86R,0.05669X0.00039*%
%ADD87R,0.05709X0.00039*%
%ADD88R,0.05748X0.00039*%
%ADD89R,0.05787X0.00039*%
%ADD90R,0.05827X0.00039*%
%ADD91R,0.05906X0.00039*%
%ADD92R,0.05945X0.00039*%
%ADD93R,0.05984X0.00039*%
%ADD94R,0.06024X0.00039*%
%ADD95R,0.06063X0.00039*%
%ADD96R,0.06142X0.00039*%
%ADD97R,0.06181X0.00039*%
%ADD98R,0.06220X0.00039*%
%ADD99R,0.06260X0.00039*%
%ADD100R,0.06299X0.00039*%
%ADD101R,0.06378X0.00039*%
%ADD102R,0.06457X0.00039*%
%ADD103R,0.06496X0.00039*%
%ADD104R,0.06535X0.00039*%
%ADD105R,0.06614X0.00039*%
%ADD106R,0.06693X0.00039*%
%ADD107R,0.06732X0.00039*%
%ADD108R,0.06654X0.00039*%
%ADD109R,0.02638X0.00039*%
%ADD110R,0.00551X0.00039*%
%ADD111R,0.06850X0.00039*%
%ADD112R,0.02402X0.00039*%
%ADD113R,0.02795X0.00039*%
%ADD114R,0.06890X0.00039*%
%ADD115R,0.02244X0.00039*%
%ADD116R,0.02677X0.00039*%
%ADD117R,0.02087X0.00039*%
%ADD118R,0.02559X0.00039*%
%ADD119R,0.07008X0.00039*%
%ADD120R,0.02008X0.00039*%
%ADD121R,0.02441X0.00039*%
%ADD122R,0.07087X0.00039*%
%ADD123R,0.01850X0.00039*%
%ADD124R,0.02362X0.00039*%
%ADD125R,0.07126X0.00039*%
%ADD126R,0.01811X0.00039*%
%ADD127R,0.02323X0.00039*%
%ADD128R,0.00197X0.00039*%
%ADD129R,0.00591X0.00039*%
%ADD130R,0.02283X0.00039*%
%ADD131R,0.01693X0.00039*%
%ADD132R,0.00118X0.00039*%
%ADD133R,0.02047X0.00039*%
%ADD134R,0.01654X0.00039*%
%ADD135R,0.02205X0.00039*%
%ADD136R,0.01929X0.00039*%
%ADD137R,0.01614X0.00039*%
%ADD138R,0.02165X0.00039*%
%ADD139R,0.01535X0.00039*%
%ADD140R,0.01732X0.00039*%
%ADD141R,0.01496X0.00039*%
%ADD142R,0.00157X0.00039*%
%ADD143R,0.01417X0.00039*%
%ADD144R,0.00236X0.00039*%
%ADD145R,0.01378X0.00039*%
%ADD146R,0.00276X0.00039*%
%ADD147R,0.01575X0.00039*%
%ADD148R,0.01339X0.00039*%
%ADD149R,0.00315X0.00039*%
%ADD150R,0.01299X0.00039*%
%ADD151R,0.00394X0.00039*%
%ADD152R,0.01457X0.00039*%
%ADD153R,0.01220X0.00039*%
%ADD154R,0.00472X0.00039*%
%ADD155R,0.00512X0.00039*%
%ADD156R,0.01181X0.00039*%
%ADD157R,0.01102X0.00039*%
%ADD158R,0.00669X0.00039*%
%ADD159R,0.01260X0.00039*%
%ADD160R,0.00709X0.00039*%
%ADD161R,0.00827X0.00039*%
%ADD162R,0.01063X0.00039*%
%ADD163R,0.00945X0.00039*%
%ADD164R,0.01024X0.00039*%
%ADD165R,0.01142X0.00039*%
%ADD166R,0.00984X0.00039*%
%ADD167R,0.00906X0.00039*%
%ADD168R,0.00866X0.00039*%
%ADD169R,0.00787X0.00039*%
%ADD170R,0.00748X0.00039*%
%ADD171R,0.00630X0.00039*%
%ADD172R,0.00433X0.00039*%
%ADD173R,0.00354X0.00039*%
%ADD174R,0.00079X0.00039*%
%ADD175R,0.01890X0.00039*%
%ADD176R,0.01969X0.00039*%
%ADD177R,0.02126X0.00039*%
%ADD178R,0.02598X0.00039*%
%ADD179R,0.02520X0.00039*%
%ADD180R,0.06417X0.00039*%
%ADD181R,0.09409X0.00039*%
%ADD182R,0.09331X0.00039*%
%ADD183C,0.01000*%
%ADD184C,0.00700*%
D10*
X0010474Y0016380D02*
X0010476Y0016533D01*
X0010482Y0016687D01*
X0010492Y0016840D01*
X0010506Y0016992D01*
X0010524Y0017145D01*
X0010546Y0017296D01*
X0010571Y0017447D01*
X0010601Y0017598D01*
X0010635Y0017748D01*
X0010672Y0017896D01*
X0010713Y0018044D01*
X0010758Y0018190D01*
X0010807Y0018336D01*
X0010860Y0018480D01*
X0010916Y0018622D01*
X0010976Y0018763D01*
X0011040Y0018903D01*
X0011107Y0019041D01*
X0011178Y0019177D01*
X0011253Y0019311D01*
X0011330Y0019443D01*
X0011412Y0019573D01*
X0011496Y0019701D01*
X0011584Y0019827D01*
X0011675Y0019950D01*
X0011769Y0020071D01*
X0011867Y0020189D01*
X0011967Y0020305D01*
X0012071Y0020418D01*
X0012177Y0020529D01*
X0012286Y0020637D01*
X0012398Y0020742D01*
X0012512Y0020843D01*
X0012630Y0020942D01*
X0012749Y0021038D01*
X0012871Y0021131D01*
X0012996Y0021220D01*
X0013123Y0021307D01*
X0013252Y0021389D01*
X0013383Y0021469D01*
X0013516Y0021545D01*
X0013651Y0021618D01*
X0013788Y0021687D01*
X0013927Y0021752D01*
X0014067Y0021814D01*
X0014209Y0021872D01*
X0014352Y0021927D01*
X0014497Y0021978D01*
X0014643Y0022025D01*
X0014790Y0022068D01*
X0014938Y0022107D01*
X0015087Y0022143D01*
X0015237Y0022174D01*
X0015388Y0022202D01*
X0015539Y0022226D01*
X0015692Y0022246D01*
X0015844Y0022262D01*
X0015997Y0022274D01*
X0016150Y0022282D01*
X0016303Y0022286D01*
X0016457Y0022286D01*
X0016610Y0022282D01*
X0016763Y0022274D01*
X0016916Y0022262D01*
X0017068Y0022246D01*
X0017221Y0022226D01*
X0017372Y0022202D01*
X0017523Y0022174D01*
X0017673Y0022143D01*
X0017822Y0022107D01*
X0017970Y0022068D01*
X0018117Y0022025D01*
X0018263Y0021978D01*
X0018408Y0021927D01*
X0018551Y0021872D01*
X0018693Y0021814D01*
X0018833Y0021752D01*
X0018972Y0021687D01*
X0019109Y0021618D01*
X0019244Y0021545D01*
X0019377Y0021469D01*
X0019508Y0021389D01*
X0019637Y0021307D01*
X0019764Y0021220D01*
X0019889Y0021131D01*
X0020011Y0021038D01*
X0020130Y0020942D01*
X0020248Y0020843D01*
X0020362Y0020742D01*
X0020474Y0020637D01*
X0020583Y0020529D01*
X0020689Y0020418D01*
X0020793Y0020305D01*
X0020893Y0020189D01*
X0020991Y0020071D01*
X0021085Y0019950D01*
X0021176Y0019827D01*
X0021264Y0019701D01*
X0021348Y0019573D01*
X0021430Y0019443D01*
X0021507Y0019311D01*
X0021582Y0019177D01*
X0021653Y0019041D01*
X0021720Y0018903D01*
X0021784Y0018763D01*
X0021844Y0018622D01*
X0021900Y0018480D01*
X0021953Y0018336D01*
X0022002Y0018190D01*
X0022047Y0018044D01*
X0022088Y0017896D01*
X0022125Y0017748D01*
X0022159Y0017598D01*
X0022189Y0017447D01*
X0022214Y0017296D01*
X0022236Y0017145D01*
X0022254Y0016992D01*
X0022268Y0016840D01*
X0022278Y0016687D01*
X0022284Y0016533D01*
X0022286Y0016380D01*
X0022284Y0016227D01*
X0022278Y0016073D01*
X0022268Y0015920D01*
X0022254Y0015768D01*
X0022236Y0015615D01*
X0022214Y0015464D01*
X0022189Y0015313D01*
X0022159Y0015162D01*
X0022125Y0015012D01*
X0022088Y0014864D01*
X0022047Y0014716D01*
X0022002Y0014570D01*
X0021953Y0014424D01*
X0021900Y0014280D01*
X0021844Y0014138D01*
X0021784Y0013997D01*
X0021720Y0013857D01*
X0021653Y0013719D01*
X0021582Y0013583D01*
X0021507Y0013449D01*
X0021430Y0013317D01*
X0021348Y0013187D01*
X0021264Y0013059D01*
X0021176Y0012933D01*
X0021085Y0012810D01*
X0020991Y0012689D01*
X0020893Y0012571D01*
X0020793Y0012455D01*
X0020689Y0012342D01*
X0020583Y0012231D01*
X0020474Y0012123D01*
X0020362Y0012018D01*
X0020248Y0011917D01*
X0020130Y0011818D01*
X0020011Y0011722D01*
X0019889Y0011629D01*
X0019764Y0011540D01*
X0019637Y0011453D01*
X0019508Y0011371D01*
X0019377Y0011291D01*
X0019244Y0011215D01*
X0019109Y0011142D01*
X0018972Y0011073D01*
X0018833Y0011008D01*
X0018693Y0010946D01*
X0018551Y0010888D01*
X0018408Y0010833D01*
X0018263Y0010782D01*
X0018117Y0010735D01*
X0017970Y0010692D01*
X0017822Y0010653D01*
X0017673Y0010617D01*
X0017523Y0010586D01*
X0017372Y0010558D01*
X0017221Y0010534D01*
X0017068Y0010514D01*
X0016916Y0010498D01*
X0016763Y0010486D01*
X0016610Y0010478D01*
X0016457Y0010474D01*
X0016303Y0010474D01*
X0016150Y0010478D01*
X0015997Y0010486D01*
X0015844Y0010498D01*
X0015692Y0010514D01*
X0015539Y0010534D01*
X0015388Y0010558D01*
X0015237Y0010586D01*
X0015087Y0010617D01*
X0014938Y0010653D01*
X0014790Y0010692D01*
X0014643Y0010735D01*
X0014497Y0010782D01*
X0014352Y0010833D01*
X0014209Y0010888D01*
X0014067Y0010946D01*
X0013927Y0011008D01*
X0013788Y0011073D01*
X0013651Y0011142D01*
X0013516Y0011215D01*
X0013383Y0011291D01*
X0013252Y0011371D01*
X0013123Y0011453D01*
X0012996Y0011540D01*
X0012871Y0011629D01*
X0012749Y0011722D01*
X0012630Y0011818D01*
X0012512Y0011917D01*
X0012398Y0012018D01*
X0012286Y0012123D01*
X0012177Y0012231D01*
X0012071Y0012342D01*
X0011967Y0012455D01*
X0011867Y0012571D01*
X0011769Y0012689D01*
X0011675Y0012810D01*
X0011584Y0012933D01*
X0011496Y0013059D01*
X0011412Y0013187D01*
X0011330Y0013317D01*
X0011253Y0013449D01*
X0011178Y0013583D01*
X0011107Y0013719D01*
X0011040Y0013857D01*
X0010976Y0013997D01*
X0010916Y0014138D01*
X0010860Y0014280D01*
X0010807Y0014424D01*
X0010758Y0014570D01*
X0010713Y0014716D01*
X0010672Y0014864D01*
X0010635Y0015012D01*
X0010601Y0015162D01*
X0010571Y0015313D01*
X0010546Y0015464D01*
X0010524Y0015615D01*
X0010506Y0015768D01*
X0010492Y0015920D01*
X0010482Y0016073D01*
X0010476Y0016227D01*
X0010474Y0016380D01*
X0043368Y0042757D02*
X0043368Y0062443D01*
X0076832Y0062443D01*
X0076832Y0042757D01*
X0043368Y0042757D01*
X0073222Y0059600D02*
X0073224Y0059659D01*
X0073230Y0059717D01*
X0073240Y0059775D01*
X0073253Y0059832D01*
X0073271Y0059888D01*
X0073292Y0059943D01*
X0073316Y0059996D01*
X0073345Y0060047D01*
X0073376Y0060097D01*
X0073411Y0060144D01*
X0073449Y0060189D01*
X0073490Y0060231D01*
X0073533Y0060270D01*
X0073579Y0060307D01*
X0073628Y0060340D01*
X0073678Y0060370D01*
X0073730Y0060396D01*
X0073784Y0060419D01*
X0073840Y0060439D01*
X0073896Y0060454D01*
X0073954Y0060466D01*
X0074012Y0060474D01*
X0074071Y0060478D01*
X0074129Y0060478D01*
X0074188Y0060474D01*
X0074246Y0060466D01*
X0074304Y0060454D01*
X0074360Y0060439D01*
X0074416Y0060419D01*
X0074470Y0060396D01*
X0074522Y0060370D01*
X0074572Y0060340D01*
X0074621Y0060307D01*
X0074667Y0060270D01*
X0074710Y0060231D01*
X0074751Y0060189D01*
X0074789Y0060144D01*
X0074824Y0060097D01*
X0074855Y0060047D01*
X0074884Y0059996D01*
X0074908Y0059943D01*
X0074929Y0059888D01*
X0074947Y0059832D01*
X0074960Y0059775D01*
X0074970Y0059717D01*
X0074976Y0059659D01*
X0074978Y0059600D01*
X0074976Y0059541D01*
X0074970Y0059483D01*
X0074960Y0059425D01*
X0074947Y0059368D01*
X0074929Y0059312D01*
X0074908Y0059257D01*
X0074884Y0059204D01*
X0074855Y0059153D01*
X0074824Y0059103D01*
X0074789Y0059056D01*
X0074751Y0059011D01*
X0074710Y0058969D01*
X0074667Y0058930D01*
X0074621Y0058893D01*
X0074572Y0058860D01*
X0074522Y0058830D01*
X0074470Y0058804D01*
X0074416Y0058781D01*
X0074360Y0058761D01*
X0074304Y0058746D01*
X0074246Y0058734D01*
X0074188Y0058726D01*
X0074129Y0058722D01*
X0074071Y0058722D01*
X0074012Y0058726D01*
X0073954Y0058734D01*
X0073896Y0058746D01*
X0073840Y0058761D01*
X0073784Y0058781D01*
X0073730Y0058804D01*
X0073678Y0058830D01*
X0073628Y0058860D01*
X0073579Y0058893D01*
X0073533Y0058930D01*
X0073490Y0058969D01*
X0073449Y0059011D01*
X0073411Y0059056D01*
X0073376Y0059103D01*
X0073345Y0059153D01*
X0073316Y0059204D01*
X0073292Y0059257D01*
X0073271Y0059312D01*
X0073253Y0059368D01*
X0073240Y0059425D01*
X0073230Y0059483D01*
X0073224Y0059541D01*
X0073222Y0059600D01*
X0102000Y0057208D02*
X0102000Y0048000D01*
X0102000Y0051069D02*
X0106604Y0051069D01*
X0108139Y0052604D01*
X0108139Y0055673D01*
X0106604Y0057208D01*
X0102000Y0057208D01*
X0111208Y0054139D02*
X0112742Y0054139D01*
X0112742Y0048000D01*
X0111208Y0048000D02*
X0114277Y0048000D01*
X0117346Y0049535D02*
X0118881Y0048000D01*
X0123485Y0048000D01*
X0126554Y0049535D02*
X0128089Y0051069D01*
X0132693Y0051069D01*
X0132693Y0052604D02*
X0132693Y0048000D01*
X0128089Y0048000D01*
X0126554Y0049535D01*
X0128089Y0054139D02*
X0131158Y0054139D01*
X0132693Y0052604D01*
X0135762Y0054139D02*
X0137297Y0054139D01*
X0138831Y0052604D01*
X0140366Y0054139D01*
X0141901Y0052604D01*
X0141901Y0048000D01*
X0138831Y0048000D02*
X0138831Y0052604D01*
X0135762Y0054139D02*
X0135762Y0048000D01*
X0144970Y0049535D02*
X0146505Y0048000D01*
X0149574Y0048000D01*
X0151109Y0049535D01*
X0151109Y0051069D01*
X0149574Y0052604D01*
X0148039Y0052604D01*
X0149574Y0052604D02*
X0151109Y0054139D01*
X0151109Y0055673D01*
X0149574Y0057208D01*
X0146505Y0057208D01*
X0144970Y0055673D01*
X0154178Y0052604D02*
X0154178Y0049535D01*
X0155713Y0048000D01*
X0158782Y0048000D01*
X0160316Y0049535D01*
X0160316Y0051069D01*
X0158782Y0052604D01*
X0154178Y0052604D01*
X0157247Y0055673D01*
X0160316Y0057208D01*
X0163386Y0055673D02*
X0164920Y0057208D01*
X0167990Y0057208D01*
X0169524Y0055673D01*
X0163386Y0049535D01*
X0164920Y0048000D01*
X0167990Y0048000D01*
X0169524Y0049535D01*
X0169524Y0055673D01*
X0163386Y0055673D02*
X0163386Y0049535D01*
X0123485Y0054139D02*
X0118881Y0054139D01*
X0117346Y0052604D01*
X0117346Y0049535D01*
X0112742Y0057208D02*
X0112742Y0058743D01*
X0069135Y0099608D02*
X0065592Y0096065D01*
X0058506Y0096065D01*
X0069135Y0099608D02*
X0069135Y0129135D01*
X0058506Y0129135D01*
X0046694Y0129135D02*
X0036065Y0129135D01*
X0036065Y0099608D01*
X0039608Y0096065D01*
X0046694Y0096065D01*
X0058112Y0098230D02*
X0058460Y0098368D01*
X0058804Y0098515D01*
X0059145Y0098670D01*
X0059482Y0098833D01*
X0059815Y0099005D01*
X0060144Y0099185D01*
X0060468Y0099372D01*
X0060788Y0099567D01*
X0061102Y0099771D01*
X0061412Y0099981D01*
X0061716Y0100199D01*
X0062015Y0100425D01*
X0062309Y0100658D01*
X0062597Y0100897D01*
X0062878Y0101144D01*
X0063154Y0101398D01*
X0063423Y0101658D01*
X0063687Y0101924D01*
X0063943Y0102197D01*
X0064193Y0102476D01*
X0064436Y0102761D01*
X0064672Y0103052D01*
X0064900Y0103349D01*
X0065122Y0103651D01*
X0065336Y0103958D01*
X0065542Y0104271D01*
X0065741Y0104588D01*
X0065932Y0104910D01*
X0066115Y0105237D01*
X0066291Y0105568D01*
X0066458Y0105903D01*
X0066616Y0106242D01*
X0066767Y0106585D01*
X0066909Y0106932D01*
X0067043Y0107281D01*
X0067168Y0107634D01*
X0067284Y0107990D01*
X0067392Y0108349D01*
X0067491Y0108710D01*
X0067582Y0109074D01*
X0067663Y0109439D01*
X0067735Y0109807D01*
X0067799Y0110176D01*
X0067853Y0110546D01*
X0067899Y0110918D01*
X0067935Y0111291D01*
X0067963Y0111664D01*
X0067981Y0112038D01*
X0067990Y0112413D01*
X0067990Y0112787D01*
X0067981Y0113162D01*
X0067963Y0113536D01*
X0067935Y0113909D01*
X0067899Y0114282D01*
X0067853Y0114654D01*
X0067799Y0115024D01*
X0067735Y0115393D01*
X0067663Y0115761D01*
X0067582Y0116126D01*
X0067491Y0116490D01*
X0067392Y0116851D01*
X0067284Y0117210D01*
X0067168Y0117566D01*
X0067043Y0117919D01*
X0066909Y0118268D01*
X0066767Y0118615D01*
X0066616Y0118958D01*
X0066458Y0119297D01*
X0066291Y0119632D01*
X0066115Y0119963D01*
X0065932Y0120290D01*
X0065741Y0120612D01*
X0065542Y0120929D01*
X0065336Y0121242D01*
X0065122Y0121549D01*
X0064900Y0121851D01*
X0064672Y0122148D01*
X0064436Y0122439D01*
X0064193Y0122724D01*
X0063943Y0123003D01*
X0063687Y0123276D01*
X0063423Y0123542D01*
X0063154Y0123802D01*
X0062878Y0124056D01*
X0062597Y0124303D01*
X0062309Y0124542D01*
X0062015Y0124775D01*
X0061716Y0125001D01*
X0061412Y0125219D01*
X0061102Y0125429D01*
X0060788Y0125633D01*
X0060468Y0125828D01*
X0060144Y0126015D01*
X0059815Y0126195D01*
X0059482Y0126367D01*
X0059145Y0126530D01*
X0058804Y0126685D01*
X0058460Y0126832D01*
X0058112Y0126970D01*
X0047088Y0126970D02*
X0046740Y0126832D01*
X0046396Y0126685D01*
X0046055Y0126530D01*
X0045718Y0126367D01*
X0045385Y0126195D01*
X0045056Y0126015D01*
X0044732Y0125828D01*
X0044412Y0125633D01*
X0044098Y0125429D01*
X0043788Y0125219D01*
X0043484Y0125001D01*
X0043185Y0124775D01*
X0042891Y0124542D01*
X0042603Y0124303D01*
X0042322Y0124056D01*
X0042046Y0123802D01*
X0041777Y0123542D01*
X0041513Y0123276D01*
X0041257Y0123003D01*
X0041007Y0122724D01*
X0040764Y0122439D01*
X0040528Y0122148D01*
X0040300Y0121851D01*
X0040078Y0121549D01*
X0039864Y0121242D01*
X0039658Y0120929D01*
X0039459Y0120612D01*
X0039268Y0120290D01*
X0039085Y0119963D01*
X0038909Y0119632D01*
X0038742Y0119297D01*
X0038584Y0118958D01*
X0038433Y0118615D01*
X0038291Y0118268D01*
X0038157Y0117919D01*
X0038032Y0117566D01*
X0037916Y0117210D01*
X0037808Y0116851D01*
X0037709Y0116490D01*
X0037618Y0116126D01*
X0037537Y0115761D01*
X0037465Y0115393D01*
X0037401Y0115024D01*
X0037347Y0114654D01*
X0037301Y0114282D01*
X0037265Y0113909D01*
X0037237Y0113536D01*
X0037219Y0113162D01*
X0037210Y0112787D01*
X0037210Y0112413D01*
X0037219Y0112038D01*
X0037237Y0111664D01*
X0037265Y0111291D01*
X0037301Y0110918D01*
X0037347Y0110546D01*
X0037401Y0110176D01*
X0037465Y0109807D01*
X0037537Y0109439D01*
X0037618Y0109074D01*
X0037709Y0108710D01*
X0037808Y0108349D01*
X0037916Y0107990D01*
X0038032Y0107634D01*
X0038157Y0107281D01*
X0038291Y0106932D01*
X0038433Y0106585D01*
X0038584Y0106242D01*
X0038742Y0105903D01*
X0038909Y0105568D01*
X0039085Y0105237D01*
X0039268Y0104910D01*
X0039459Y0104588D01*
X0039658Y0104271D01*
X0039864Y0103958D01*
X0040078Y0103651D01*
X0040300Y0103349D01*
X0040528Y0103052D01*
X0040764Y0102761D01*
X0041007Y0102476D01*
X0041257Y0102197D01*
X0041513Y0101924D01*
X0041777Y0101658D01*
X0042046Y0101398D01*
X0042322Y0101144D01*
X0042603Y0100897D01*
X0042891Y0100658D01*
X0043185Y0100425D01*
X0043484Y0100199D01*
X0043788Y0099981D01*
X0044098Y0099771D01*
X0044412Y0099567D01*
X0044732Y0099372D01*
X0045056Y0099185D01*
X0045385Y0099005D01*
X0045718Y0098833D01*
X0046055Y0098670D01*
X0046396Y0098515D01*
X0046740Y0098368D01*
X0047088Y0098230D01*
X0010474Y0209293D02*
X0010476Y0209446D01*
X0010482Y0209600D01*
X0010492Y0209753D01*
X0010506Y0209905D01*
X0010524Y0210058D01*
X0010546Y0210209D01*
X0010571Y0210360D01*
X0010601Y0210511D01*
X0010635Y0210661D01*
X0010672Y0210809D01*
X0010713Y0210957D01*
X0010758Y0211103D01*
X0010807Y0211249D01*
X0010860Y0211393D01*
X0010916Y0211535D01*
X0010976Y0211676D01*
X0011040Y0211816D01*
X0011107Y0211954D01*
X0011178Y0212090D01*
X0011253Y0212224D01*
X0011330Y0212356D01*
X0011412Y0212486D01*
X0011496Y0212614D01*
X0011584Y0212740D01*
X0011675Y0212863D01*
X0011769Y0212984D01*
X0011867Y0213102D01*
X0011967Y0213218D01*
X0012071Y0213331D01*
X0012177Y0213442D01*
X0012286Y0213550D01*
X0012398Y0213655D01*
X0012512Y0213756D01*
X0012630Y0213855D01*
X0012749Y0213951D01*
X0012871Y0214044D01*
X0012996Y0214133D01*
X0013123Y0214220D01*
X0013252Y0214302D01*
X0013383Y0214382D01*
X0013516Y0214458D01*
X0013651Y0214531D01*
X0013788Y0214600D01*
X0013927Y0214665D01*
X0014067Y0214727D01*
X0014209Y0214785D01*
X0014352Y0214840D01*
X0014497Y0214891D01*
X0014643Y0214938D01*
X0014790Y0214981D01*
X0014938Y0215020D01*
X0015087Y0215056D01*
X0015237Y0215087D01*
X0015388Y0215115D01*
X0015539Y0215139D01*
X0015692Y0215159D01*
X0015844Y0215175D01*
X0015997Y0215187D01*
X0016150Y0215195D01*
X0016303Y0215199D01*
X0016457Y0215199D01*
X0016610Y0215195D01*
X0016763Y0215187D01*
X0016916Y0215175D01*
X0017068Y0215159D01*
X0017221Y0215139D01*
X0017372Y0215115D01*
X0017523Y0215087D01*
X0017673Y0215056D01*
X0017822Y0215020D01*
X0017970Y0214981D01*
X0018117Y0214938D01*
X0018263Y0214891D01*
X0018408Y0214840D01*
X0018551Y0214785D01*
X0018693Y0214727D01*
X0018833Y0214665D01*
X0018972Y0214600D01*
X0019109Y0214531D01*
X0019244Y0214458D01*
X0019377Y0214382D01*
X0019508Y0214302D01*
X0019637Y0214220D01*
X0019764Y0214133D01*
X0019889Y0214044D01*
X0020011Y0213951D01*
X0020130Y0213855D01*
X0020248Y0213756D01*
X0020362Y0213655D01*
X0020474Y0213550D01*
X0020583Y0213442D01*
X0020689Y0213331D01*
X0020793Y0213218D01*
X0020893Y0213102D01*
X0020991Y0212984D01*
X0021085Y0212863D01*
X0021176Y0212740D01*
X0021264Y0212614D01*
X0021348Y0212486D01*
X0021430Y0212356D01*
X0021507Y0212224D01*
X0021582Y0212090D01*
X0021653Y0211954D01*
X0021720Y0211816D01*
X0021784Y0211676D01*
X0021844Y0211535D01*
X0021900Y0211393D01*
X0021953Y0211249D01*
X0022002Y0211103D01*
X0022047Y0210957D01*
X0022088Y0210809D01*
X0022125Y0210661D01*
X0022159Y0210511D01*
X0022189Y0210360D01*
X0022214Y0210209D01*
X0022236Y0210058D01*
X0022254Y0209905D01*
X0022268Y0209753D01*
X0022278Y0209600D01*
X0022284Y0209446D01*
X0022286Y0209293D01*
X0022284Y0209140D01*
X0022278Y0208986D01*
X0022268Y0208833D01*
X0022254Y0208681D01*
X0022236Y0208528D01*
X0022214Y0208377D01*
X0022189Y0208226D01*
X0022159Y0208075D01*
X0022125Y0207925D01*
X0022088Y0207777D01*
X0022047Y0207629D01*
X0022002Y0207483D01*
X0021953Y0207337D01*
X0021900Y0207193D01*
X0021844Y0207051D01*
X0021784Y0206910D01*
X0021720Y0206770D01*
X0021653Y0206632D01*
X0021582Y0206496D01*
X0021507Y0206362D01*
X0021430Y0206230D01*
X0021348Y0206100D01*
X0021264Y0205972D01*
X0021176Y0205846D01*
X0021085Y0205723D01*
X0020991Y0205602D01*
X0020893Y0205484D01*
X0020793Y0205368D01*
X0020689Y0205255D01*
X0020583Y0205144D01*
X0020474Y0205036D01*
X0020362Y0204931D01*
X0020248Y0204830D01*
X0020130Y0204731D01*
X0020011Y0204635D01*
X0019889Y0204542D01*
X0019764Y0204453D01*
X0019637Y0204366D01*
X0019508Y0204284D01*
X0019377Y0204204D01*
X0019244Y0204128D01*
X0019109Y0204055D01*
X0018972Y0203986D01*
X0018833Y0203921D01*
X0018693Y0203859D01*
X0018551Y0203801D01*
X0018408Y0203746D01*
X0018263Y0203695D01*
X0018117Y0203648D01*
X0017970Y0203605D01*
X0017822Y0203566D01*
X0017673Y0203530D01*
X0017523Y0203499D01*
X0017372Y0203471D01*
X0017221Y0203447D01*
X0017068Y0203427D01*
X0016916Y0203411D01*
X0016763Y0203399D01*
X0016610Y0203391D01*
X0016457Y0203387D01*
X0016303Y0203387D01*
X0016150Y0203391D01*
X0015997Y0203399D01*
X0015844Y0203411D01*
X0015692Y0203427D01*
X0015539Y0203447D01*
X0015388Y0203471D01*
X0015237Y0203499D01*
X0015087Y0203530D01*
X0014938Y0203566D01*
X0014790Y0203605D01*
X0014643Y0203648D01*
X0014497Y0203695D01*
X0014352Y0203746D01*
X0014209Y0203801D01*
X0014067Y0203859D01*
X0013927Y0203921D01*
X0013788Y0203986D01*
X0013651Y0204055D01*
X0013516Y0204128D01*
X0013383Y0204204D01*
X0013252Y0204284D01*
X0013123Y0204366D01*
X0012996Y0204453D01*
X0012871Y0204542D01*
X0012749Y0204635D01*
X0012630Y0204731D01*
X0012512Y0204830D01*
X0012398Y0204931D01*
X0012286Y0205036D01*
X0012177Y0205144D01*
X0012071Y0205255D01*
X0011967Y0205368D01*
X0011867Y0205484D01*
X0011769Y0205602D01*
X0011675Y0205723D01*
X0011584Y0205846D01*
X0011496Y0205972D01*
X0011412Y0206100D01*
X0011330Y0206230D01*
X0011253Y0206362D01*
X0011178Y0206496D01*
X0011107Y0206632D01*
X0011040Y0206770D01*
X0010976Y0206910D01*
X0010916Y0207051D01*
X0010860Y0207193D01*
X0010807Y0207337D01*
X0010758Y0207483D01*
X0010713Y0207629D01*
X0010672Y0207777D01*
X0010635Y0207925D01*
X0010601Y0208075D01*
X0010571Y0208226D01*
X0010546Y0208377D01*
X0010524Y0208528D01*
X0010506Y0208681D01*
X0010492Y0208833D01*
X0010482Y0208986D01*
X0010476Y0209140D01*
X0010474Y0209293D01*
X0188565Y0129135D02*
X0188565Y0099608D01*
X0192108Y0096065D01*
X0199194Y0096065D01*
X0211006Y0096065D02*
X0218092Y0096065D01*
X0221635Y0099608D01*
X0221635Y0129135D01*
X0211006Y0129135D01*
X0199194Y0129135D02*
X0188565Y0129135D01*
X0210612Y0126970D02*
X0210960Y0126832D01*
X0211304Y0126685D01*
X0211645Y0126530D01*
X0211982Y0126367D01*
X0212315Y0126195D01*
X0212644Y0126015D01*
X0212968Y0125828D01*
X0213288Y0125633D01*
X0213602Y0125429D01*
X0213912Y0125219D01*
X0214216Y0125001D01*
X0214515Y0124775D01*
X0214809Y0124542D01*
X0215097Y0124303D01*
X0215378Y0124056D01*
X0215654Y0123802D01*
X0215923Y0123542D01*
X0216187Y0123276D01*
X0216443Y0123003D01*
X0216693Y0122724D01*
X0216936Y0122439D01*
X0217172Y0122148D01*
X0217400Y0121851D01*
X0217622Y0121549D01*
X0217836Y0121242D01*
X0218042Y0120929D01*
X0218241Y0120612D01*
X0218432Y0120290D01*
X0218615Y0119963D01*
X0218791Y0119632D01*
X0218958Y0119297D01*
X0219116Y0118958D01*
X0219267Y0118615D01*
X0219409Y0118268D01*
X0219543Y0117919D01*
X0219668Y0117566D01*
X0219784Y0117210D01*
X0219892Y0116851D01*
X0219991Y0116490D01*
X0220082Y0116126D01*
X0220163Y0115761D01*
X0220235Y0115393D01*
X0220299Y0115024D01*
X0220353Y0114654D01*
X0220399Y0114282D01*
X0220435Y0113909D01*
X0220463Y0113536D01*
X0220481Y0113162D01*
X0220490Y0112787D01*
X0220490Y0112413D01*
X0220481Y0112038D01*
X0220463Y0111664D01*
X0220435Y0111291D01*
X0220399Y0110918D01*
X0220353Y0110546D01*
X0220299Y0110176D01*
X0220235Y0109807D01*
X0220163Y0109439D01*
X0220082Y0109074D01*
X0219991Y0108710D01*
X0219892Y0108349D01*
X0219784Y0107990D01*
X0219668Y0107634D01*
X0219543Y0107281D01*
X0219409Y0106932D01*
X0219267Y0106585D01*
X0219116Y0106242D01*
X0218958Y0105903D01*
X0218791Y0105568D01*
X0218615Y0105237D01*
X0218432Y0104910D01*
X0218241Y0104588D01*
X0218042Y0104271D01*
X0217836Y0103958D01*
X0217622Y0103651D01*
X0217400Y0103349D01*
X0217172Y0103052D01*
X0216936Y0102761D01*
X0216693Y0102476D01*
X0216443Y0102197D01*
X0216187Y0101924D01*
X0215923Y0101658D01*
X0215654Y0101398D01*
X0215378Y0101144D01*
X0215097Y0100897D01*
X0214809Y0100658D01*
X0214515Y0100425D01*
X0214216Y0100199D01*
X0213912Y0099981D01*
X0213602Y0099771D01*
X0213288Y0099567D01*
X0212968Y0099372D01*
X0212644Y0099185D01*
X0212315Y0099005D01*
X0211982Y0098833D01*
X0211645Y0098670D01*
X0211304Y0098515D01*
X0210960Y0098368D01*
X0210612Y0098230D01*
X0199588Y0098230D02*
X0199240Y0098368D01*
X0198896Y0098515D01*
X0198555Y0098670D01*
X0198218Y0098833D01*
X0197885Y0099005D01*
X0197556Y0099185D01*
X0197232Y0099372D01*
X0196912Y0099567D01*
X0196598Y0099771D01*
X0196288Y0099981D01*
X0195984Y0100199D01*
X0195685Y0100425D01*
X0195391Y0100658D01*
X0195103Y0100897D01*
X0194822Y0101144D01*
X0194546Y0101398D01*
X0194277Y0101658D01*
X0194013Y0101924D01*
X0193757Y0102197D01*
X0193507Y0102476D01*
X0193264Y0102761D01*
X0193028Y0103052D01*
X0192800Y0103349D01*
X0192578Y0103651D01*
X0192364Y0103958D01*
X0192158Y0104271D01*
X0191959Y0104588D01*
X0191768Y0104910D01*
X0191585Y0105237D01*
X0191409Y0105568D01*
X0191242Y0105903D01*
X0191084Y0106242D01*
X0190933Y0106585D01*
X0190791Y0106932D01*
X0190657Y0107281D01*
X0190532Y0107634D01*
X0190416Y0107990D01*
X0190308Y0108349D01*
X0190209Y0108710D01*
X0190118Y0109074D01*
X0190037Y0109439D01*
X0189965Y0109807D01*
X0189901Y0110176D01*
X0189847Y0110546D01*
X0189801Y0110918D01*
X0189765Y0111291D01*
X0189737Y0111664D01*
X0189719Y0112038D01*
X0189710Y0112413D01*
X0189710Y0112787D01*
X0189719Y0113162D01*
X0189737Y0113536D01*
X0189765Y0113909D01*
X0189801Y0114282D01*
X0189847Y0114654D01*
X0189901Y0115024D01*
X0189965Y0115393D01*
X0190037Y0115761D01*
X0190118Y0116126D01*
X0190209Y0116490D01*
X0190308Y0116851D01*
X0190416Y0117210D01*
X0190532Y0117566D01*
X0190657Y0117919D01*
X0190791Y0118268D01*
X0190933Y0118615D01*
X0191084Y0118958D01*
X0191242Y0119297D01*
X0191409Y0119632D01*
X0191585Y0119963D01*
X0191768Y0120290D01*
X0191959Y0120612D01*
X0192158Y0120929D01*
X0192364Y0121242D01*
X0192578Y0121549D01*
X0192800Y0121851D01*
X0193028Y0122148D01*
X0193264Y0122439D01*
X0193507Y0122724D01*
X0193757Y0123003D01*
X0194013Y0123276D01*
X0194277Y0123542D01*
X0194546Y0123802D01*
X0194822Y0124056D01*
X0195103Y0124303D01*
X0195391Y0124542D01*
X0195685Y0124775D01*
X0195984Y0125001D01*
X0196288Y0125219D01*
X0196598Y0125429D01*
X0196912Y0125633D01*
X0197232Y0125828D01*
X0197556Y0126015D01*
X0197885Y0126195D01*
X0198218Y0126367D01*
X0198555Y0126530D01*
X0198896Y0126685D01*
X0199240Y0126832D01*
X0199588Y0126970D01*
X0238820Y0209293D02*
X0238822Y0209446D01*
X0238828Y0209600D01*
X0238838Y0209753D01*
X0238852Y0209905D01*
X0238870Y0210058D01*
X0238892Y0210209D01*
X0238917Y0210360D01*
X0238947Y0210511D01*
X0238981Y0210661D01*
X0239018Y0210809D01*
X0239059Y0210957D01*
X0239104Y0211103D01*
X0239153Y0211249D01*
X0239206Y0211393D01*
X0239262Y0211535D01*
X0239322Y0211676D01*
X0239386Y0211816D01*
X0239453Y0211954D01*
X0239524Y0212090D01*
X0239599Y0212224D01*
X0239676Y0212356D01*
X0239758Y0212486D01*
X0239842Y0212614D01*
X0239930Y0212740D01*
X0240021Y0212863D01*
X0240115Y0212984D01*
X0240213Y0213102D01*
X0240313Y0213218D01*
X0240417Y0213331D01*
X0240523Y0213442D01*
X0240632Y0213550D01*
X0240744Y0213655D01*
X0240858Y0213756D01*
X0240976Y0213855D01*
X0241095Y0213951D01*
X0241217Y0214044D01*
X0241342Y0214133D01*
X0241469Y0214220D01*
X0241598Y0214302D01*
X0241729Y0214382D01*
X0241862Y0214458D01*
X0241997Y0214531D01*
X0242134Y0214600D01*
X0242273Y0214665D01*
X0242413Y0214727D01*
X0242555Y0214785D01*
X0242698Y0214840D01*
X0242843Y0214891D01*
X0242989Y0214938D01*
X0243136Y0214981D01*
X0243284Y0215020D01*
X0243433Y0215056D01*
X0243583Y0215087D01*
X0243734Y0215115D01*
X0243885Y0215139D01*
X0244038Y0215159D01*
X0244190Y0215175D01*
X0244343Y0215187D01*
X0244496Y0215195D01*
X0244649Y0215199D01*
X0244803Y0215199D01*
X0244956Y0215195D01*
X0245109Y0215187D01*
X0245262Y0215175D01*
X0245414Y0215159D01*
X0245567Y0215139D01*
X0245718Y0215115D01*
X0245869Y0215087D01*
X0246019Y0215056D01*
X0246168Y0215020D01*
X0246316Y0214981D01*
X0246463Y0214938D01*
X0246609Y0214891D01*
X0246754Y0214840D01*
X0246897Y0214785D01*
X0247039Y0214727D01*
X0247179Y0214665D01*
X0247318Y0214600D01*
X0247455Y0214531D01*
X0247590Y0214458D01*
X0247723Y0214382D01*
X0247854Y0214302D01*
X0247983Y0214220D01*
X0248110Y0214133D01*
X0248235Y0214044D01*
X0248357Y0213951D01*
X0248476Y0213855D01*
X0248594Y0213756D01*
X0248708Y0213655D01*
X0248820Y0213550D01*
X0248929Y0213442D01*
X0249035Y0213331D01*
X0249139Y0213218D01*
X0249239Y0213102D01*
X0249337Y0212984D01*
X0249431Y0212863D01*
X0249522Y0212740D01*
X0249610Y0212614D01*
X0249694Y0212486D01*
X0249776Y0212356D01*
X0249853Y0212224D01*
X0249928Y0212090D01*
X0249999Y0211954D01*
X0250066Y0211816D01*
X0250130Y0211676D01*
X0250190Y0211535D01*
X0250246Y0211393D01*
X0250299Y0211249D01*
X0250348Y0211103D01*
X0250393Y0210957D01*
X0250434Y0210809D01*
X0250471Y0210661D01*
X0250505Y0210511D01*
X0250535Y0210360D01*
X0250560Y0210209D01*
X0250582Y0210058D01*
X0250600Y0209905D01*
X0250614Y0209753D01*
X0250624Y0209600D01*
X0250630Y0209446D01*
X0250632Y0209293D01*
X0250630Y0209140D01*
X0250624Y0208986D01*
X0250614Y0208833D01*
X0250600Y0208681D01*
X0250582Y0208528D01*
X0250560Y0208377D01*
X0250535Y0208226D01*
X0250505Y0208075D01*
X0250471Y0207925D01*
X0250434Y0207777D01*
X0250393Y0207629D01*
X0250348Y0207483D01*
X0250299Y0207337D01*
X0250246Y0207193D01*
X0250190Y0207051D01*
X0250130Y0206910D01*
X0250066Y0206770D01*
X0249999Y0206632D01*
X0249928Y0206496D01*
X0249853Y0206362D01*
X0249776Y0206230D01*
X0249694Y0206100D01*
X0249610Y0205972D01*
X0249522Y0205846D01*
X0249431Y0205723D01*
X0249337Y0205602D01*
X0249239Y0205484D01*
X0249139Y0205368D01*
X0249035Y0205255D01*
X0248929Y0205144D01*
X0248820Y0205036D01*
X0248708Y0204931D01*
X0248594Y0204830D01*
X0248476Y0204731D01*
X0248357Y0204635D01*
X0248235Y0204542D01*
X0248110Y0204453D01*
X0247983Y0204366D01*
X0247854Y0204284D01*
X0247723Y0204204D01*
X0247590Y0204128D01*
X0247455Y0204055D01*
X0247318Y0203986D01*
X0247179Y0203921D01*
X0247039Y0203859D01*
X0246897Y0203801D01*
X0246754Y0203746D01*
X0246609Y0203695D01*
X0246463Y0203648D01*
X0246316Y0203605D01*
X0246168Y0203566D01*
X0246019Y0203530D01*
X0245869Y0203499D01*
X0245718Y0203471D01*
X0245567Y0203447D01*
X0245414Y0203427D01*
X0245262Y0203411D01*
X0245109Y0203399D01*
X0244956Y0203391D01*
X0244803Y0203387D01*
X0244649Y0203387D01*
X0244496Y0203391D01*
X0244343Y0203399D01*
X0244190Y0203411D01*
X0244038Y0203427D01*
X0243885Y0203447D01*
X0243734Y0203471D01*
X0243583Y0203499D01*
X0243433Y0203530D01*
X0243284Y0203566D01*
X0243136Y0203605D01*
X0242989Y0203648D01*
X0242843Y0203695D01*
X0242698Y0203746D01*
X0242555Y0203801D01*
X0242413Y0203859D01*
X0242273Y0203921D01*
X0242134Y0203986D01*
X0241997Y0204055D01*
X0241862Y0204128D01*
X0241729Y0204204D01*
X0241598Y0204284D01*
X0241469Y0204366D01*
X0241342Y0204453D01*
X0241217Y0204542D01*
X0241095Y0204635D01*
X0240976Y0204731D01*
X0240858Y0204830D01*
X0240744Y0204931D01*
X0240632Y0205036D01*
X0240523Y0205144D01*
X0240417Y0205255D01*
X0240313Y0205368D01*
X0240213Y0205484D01*
X0240115Y0205602D01*
X0240021Y0205723D01*
X0239930Y0205846D01*
X0239842Y0205972D01*
X0239758Y0206100D01*
X0239676Y0206230D01*
X0239599Y0206362D01*
X0239524Y0206496D01*
X0239453Y0206632D01*
X0239386Y0206770D01*
X0239322Y0206910D01*
X0239262Y0207051D01*
X0239206Y0207193D01*
X0239153Y0207337D01*
X0239104Y0207483D01*
X0239059Y0207629D01*
X0239018Y0207777D01*
X0238981Y0207925D01*
X0238947Y0208075D01*
X0238917Y0208226D01*
X0238892Y0208377D01*
X0238870Y0208528D01*
X0238852Y0208681D01*
X0238838Y0208833D01*
X0238828Y0208986D01*
X0238822Y0209140D01*
X0238820Y0209293D01*
X0238820Y0016380D02*
X0238822Y0016533D01*
X0238828Y0016687D01*
X0238838Y0016840D01*
X0238852Y0016992D01*
X0238870Y0017145D01*
X0238892Y0017296D01*
X0238917Y0017447D01*
X0238947Y0017598D01*
X0238981Y0017748D01*
X0239018Y0017896D01*
X0239059Y0018044D01*
X0239104Y0018190D01*
X0239153Y0018336D01*
X0239206Y0018480D01*
X0239262Y0018622D01*
X0239322Y0018763D01*
X0239386Y0018903D01*
X0239453Y0019041D01*
X0239524Y0019177D01*
X0239599Y0019311D01*
X0239676Y0019443D01*
X0239758Y0019573D01*
X0239842Y0019701D01*
X0239930Y0019827D01*
X0240021Y0019950D01*
X0240115Y0020071D01*
X0240213Y0020189D01*
X0240313Y0020305D01*
X0240417Y0020418D01*
X0240523Y0020529D01*
X0240632Y0020637D01*
X0240744Y0020742D01*
X0240858Y0020843D01*
X0240976Y0020942D01*
X0241095Y0021038D01*
X0241217Y0021131D01*
X0241342Y0021220D01*
X0241469Y0021307D01*
X0241598Y0021389D01*
X0241729Y0021469D01*
X0241862Y0021545D01*
X0241997Y0021618D01*
X0242134Y0021687D01*
X0242273Y0021752D01*
X0242413Y0021814D01*
X0242555Y0021872D01*
X0242698Y0021927D01*
X0242843Y0021978D01*
X0242989Y0022025D01*
X0243136Y0022068D01*
X0243284Y0022107D01*
X0243433Y0022143D01*
X0243583Y0022174D01*
X0243734Y0022202D01*
X0243885Y0022226D01*
X0244038Y0022246D01*
X0244190Y0022262D01*
X0244343Y0022274D01*
X0244496Y0022282D01*
X0244649Y0022286D01*
X0244803Y0022286D01*
X0244956Y0022282D01*
X0245109Y0022274D01*
X0245262Y0022262D01*
X0245414Y0022246D01*
X0245567Y0022226D01*
X0245718Y0022202D01*
X0245869Y0022174D01*
X0246019Y0022143D01*
X0246168Y0022107D01*
X0246316Y0022068D01*
X0246463Y0022025D01*
X0246609Y0021978D01*
X0246754Y0021927D01*
X0246897Y0021872D01*
X0247039Y0021814D01*
X0247179Y0021752D01*
X0247318Y0021687D01*
X0247455Y0021618D01*
X0247590Y0021545D01*
X0247723Y0021469D01*
X0247854Y0021389D01*
X0247983Y0021307D01*
X0248110Y0021220D01*
X0248235Y0021131D01*
X0248357Y0021038D01*
X0248476Y0020942D01*
X0248594Y0020843D01*
X0248708Y0020742D01*
X0248820Y0020637D01*
X0248929Y0020529D01*
X0249035Y0020418D01*
X0249139Y0020305D01*
X0249239Y0020189D01*
X0249337Y0020071D01*
X0249431Y0019950D01*
X0249522Y0019827D01*
X0249610Y0019701D01*
X0249694Y0019573D01*
X0249776Y0019443D01*
X0249853Y0019311D01*
X0249928Y0019177D01*
X0249999Y0019041D01*
X0250066Y0018903D01*
X0250130Y0018763D01*
X0250190Y0018622D01*
X0250246Y0018480D01*
X0250299Y0018336D01*
X0250348Y0018190D01*
X0250393Y0018044D01*
X0250434Y0017896D01*
X0250471Y0017748D01*
X0250505Y0017598D01*
X0250535Y0017447D01*
X0250560Y0017296D01*
X0250582Y0017145D01*
X0250600Y0016992D01*
X0250614Y0016840D01*
X0250624Y0016687D01*
X0250630Y0016533D01*
X0250632Y0016380D01*
X0250630Y0016227D01*
X0250624Y0016073D01*
X0250614Y0015920D01*
X0250600Y0015768D01*
X0250582Y0015615D01*
X0250560Y0015464D01*
X0250535Y0015313D01*
X0250505Y0015162D01*
X0250471Y0015012D01*
X0250434Y0014864D01*
X0250393Y0014716D01*
X0250348Y0014570D01*
X0250299Y0014424D01*
X0250246Y0014280D01*
X0250190Y0014138D01*
X0250130Y0013997D01*
X0250066Y0013857D01*
X0249999Y0013719D01*
X0249928Y0013583D01*
X0249853Y0013449D01*
X0249776Y0013317D01*
X0249694Y0013187D01*
X0249610Y0013059D01*
X0249522Y0012933D01*
X0249431Y0012810D01*
X0249337Y0012689D01*
X0249239Y0012571D01*
X0249139Y0012455D01*
X0249035Y0012342D01*
X0248929Y0012231D01*
X0248820Y0012123D01*
X0248708Y0012018D01*
X0248594Y0011917D01*
X0248476Y0011818D01*
X0248357Y0011722D01*
X0248235Y0011629D01*
X0248110Y0011540D01*
X0247983Y0011453D01*
X0247854Y0011371D01*
X0247723Y0011291D01*
X0247590Y0011215D01*
X0247455Y0011142D01*
X0247318Y0011073D01*
X0247179Y0011008D01*
X0247039Y0010946D01*
X0246897Y0010888D01*
X0246754Y0010833D01*
X0246609Y0010782D01*
X0246463Y0010735D01*
X0246316Y0010692D01*
X0246168Y0010653D01*
X0246019Y0010617D01*
X0245869Y0010586D01*
X0245718Y0010558D01*
X0245567Y0010534D01*
X0245414Y0010514D01*
X0245262Y0010498D01*
X0245109Y0010486D01*
X0244956Y0010478D01*
X0244803Y0010474D01*
X0244649Y0010474D01*
X0244496Y0010478D01*
X0244343Y0010486D01*
X0244190Y0010498D01*
X0244038Y0010514D01*
X0243885Y0010534D01*
X0243734Y0010558D01*
X0243583Y0010586D01*
X0243433Y0010617D01*
X0243284Y0010653D01*
X0243136Y0010692D01*
X0242989Y0010735D01*
X0242843Y0010782D01*
X0242698Y0010833D01*
X0242555Y0010888D01*
X0242413Y0010946D01*
X0242273Y0011008D01*
X0242134Y0011073D01*
X0241997Y0011142D01*
X0241862Y0011215D01*
X0241729Y0011291D01*
X0241598Y0011371D01*
X0241469Y0011453D01*
X0241342Y0011540D01*
X0241217Y0011629D01*
X0241095Y0011722D01*
X0240976Y0011818D01*
X0240858Y0011917D01*
X0240744Y0012018D01*
X0240632Y0012123D01*
X0240523Y0012231D01*
X0240417Y0012342D01*
X0240313Y0012455D01*
X0240213Y0012571D01*
X0240115Y0012689D01*
X0240021Y0012810D01*
X0239930Y0012933D01*
X0239842Y0013059D01*
X0239758Y0013187D01*
X0239676Y0013317D01*
X0239599Y0013449D01*
X0239524Y0013583D01*
X0239453Y0013719D01*
X0239386Y0013857D01*
X0239322Y0013997D01*
X0239262Y0014138D01*
X0239206Y0014280D01*
X0239153Y0014424D01*
X0239104Y0014570D01*
X0239059Y0014716D01*
X0239018Y0014864D01*
X0238981Y0015012D01*
X0238947Y0015162D01*
X0238917Y0015313D01*
X0238892Y0015464D01*
X0238870Y0015615D01*
X0238852Y0015768D01*
X0238838Y0015920D01*
X0238828Y0016073D01*
X0238822Y0016227D01*
X0238820Y0016380D01*
D11*
X0257443Y0033958D02*
X0257443Y0065848D01*
X0218072Y0065848D01*
X0218072Y0033958D01*
X0257443Y0033958D01*
X0257167Y0106143D02*
X0231104Y0106143D01*
X0231104Y0119529D01*
X0257167Y0119529D01*
X0257167Y0106143D01*
X0258309Y0117561D02*
X0255159Y0120710D01*
X0255159Y0121104D01*
X0257915Y0121104D01*
X0258309Y0120710D01*
X0258309Y0117561D01*
X0258309Y0117756D02*
X0258113Y0117756D01*
X0258309Y0118255D02*
X0257615Y0118255D01*
X0257116Y0118753D02*
X0258309Y0118753D01*
X0258309Y0119252D02*
X0256618Y0119252D01*
X0256119Y0119750D02*
X0258309Y0119750D01*
X0258309Y0120249D02*
X0255621Y0120249D01*
X0255159Y0120747D02*
X0258272Y0120747D01*
X0252600Y0145100D02*
X0250600Y0145100D01*
X0252600Y0145100D02*
X0252600Y0160100D01*
X0250600Y0160100D01*
X0254313Y0160100D02*
X0254315Y0160156D01*
X0254321Y0160211D01*
X0254331Y0160265D01*
X0254344Y0160319D01*
X0254362Y0160372D01*
X0254383Y0160423D01*
X0254407Y0160473D01*
X0254435Y0160521D01*
X0254467Y0160567D01*
X0254501Y0160611D01*
X0254539Y0160652D01*
X0254579Y0160690D01*
X0254622Y0160725D01*
X0254667Y0160757D01*
X0254715Y0160786D01*
X0254764Y0160812D01*
X0254815Y0160834D01*
X0254867Y0160852D01*
X0254921Y0160866D01*
X0254976Y0160877D01*
X0255031Y0160884D01*
X0255086Y0160887D01*
X0255142Y0160886D01*
X0255197Y0160881D01*
X0255252Y0160872D01*
X0255306Y0160860D01*
X0255359Y0160843D01*
X0255411Y0160823D01*
X0255461Y0160799D01*
X0255509Y0160772D01*
X0255556Y0160742D01*
X0255600Y0160708D01*
X0255642Y0160671D01*
X0255680Y0160631D01*
X0255717Y0160589D01*
X0255750Y0160544D01*
X0255779Y0160498D01*
X0255806Y0160449D01*
X0255828Y0160398D01*
X0255848Y0160346D01*
X0255863Y0160292D01*
X0255875Y0160238D01*
X0255883Y0160183D01*
X0255887Y0160128D01*
X0255887Y0160072D01*
X0255883Y0160017D01*
X0255875Y0159962D01*
X0255863Y0159908D01*
X0255848Y0159854D01*
X0255828Y0159802D01*
X0255806Y0159751D01*
X0255779Y0159702D01*
X0255750Y0159656D01*
X0255717Y0159611D01*
X0255680Y0159569D01*
X0255642Y0159529D01*
X0255600Y0159492D01*
X0255556Y0159458D01*
X0255509Y0159428D01*
X0255461Y0159401D01*
X0255411Y0159377D01*
X0255359Y0159357D01*
X0255306Y0159340D01*
X0255252Y0159328D01*
X0255197Y0159319D01*
X0255142Y0159314D01*
X0255086Y0159313D01*
X0255031Y0159316D01*
X0254976Y0159323D01*
X0254921Y0159334D01*
X0254867Y0159348D01*
X0254815Y0159366D01*
X0254764Y0159388D01*
X0254715Y0159414D01*
X0254667Y0159443D01*
X0254622Y0159475D01*
X0254579Y0159510D01*
X0254539Y0159548D01*
X0254501Y0159589D01*
X0254467Y0159633D01*
X0254435Y0159679D01*
X0254407Y0159727D01*
X0254383Y0159777D01*
X0254362Y0159828D01*
X0254344Y0159881D01*
X0254331Y0159935D01*
X0254321Y0159989D01*
X0254315Y0160044D01*
X0254313Y0160100D01*
X0239600Y0160100D02*
X0237600Y0160100D01*
X0237600Y0145100D01*
X0239600Y0145100D01*
X0228742Y0178072D02*
X0228742Y0217443D01*
X0196852Y0217443D01*
X0196852Y0178072D01*
X0228742Y0178072D01*
X0125009Y0046473D02*
X0125009Y0045455D01*
X0125009Y0043420D02*
X0125009Y0039350D01*
X0123992Y0039350D02*
X0126027Y0039350D01*
X0130078Y0039350D02*
X0128043Y0043420D01*
X0132113Y0043420D02*
X0130078Y0039350D01*
X0134120Y0040368D02*
X0134120Y0042403D01*
X0135138Y0043420D01*
X0137173Y0043420D01*
X0138190Y0042403D01*
X0138190Y0041385D01*
X0134120Y0041385D01*
X0134120Y0040368D02*
X0135138Y0039350D01*
X0137173Y0039350D01*
X0140197Y0039350D02*
X0140197Y0043420D01*
X0140197Y0041385D02*
X0142232Y0043420D01*
X0143250Y0043420D01*
X0151339Y0042403D02*
X0154391Y0042403D01*
X0155409Y0041385D01*
X0155409Y0040368D01*
X0154391Y0039350D01*
X0151339Y0039350D01*
X0151339Y0045455D01*
X0154391Y0045455D01*
X0155409Y0044438D01*
X0155409Y0043420D01*
X0154391Y0042403D01*
X0157416Y0042403D02*
X0157416Y0040368D01*
X0158434Y0039350D01*
X0160469Y0039350D01*
X0161486Y0040368D01*
X0161486Y0042403D01*
X0160469Y0043420D01*
X0158434Y0043420D01*
X0157416Y0042403D01*
X0163493Y0040368D02*
X0164511Y0041385D01*
X0167563Y0041385D01*
X0167563Y0042403D02*
X0167563Y0039350D01*
X0164511Y0039350D01*
X0163493Y0040368D01*
X0164511Y0043420D02*
X0166546Y0043420D01*
X0167563Y0042403D01*
X0169570Y0043420D02*
X0169570Y0039350D01*
X0169570Y0041385D02*
X0171605Y0043420D01*
X0172623Y0043420D01*
X0174635Y0042403D02*
X0175652Y0043420D01*
X0178705Y0043420D01*
X0178705Y0045455D02*
X0178705Y0039350D01*
X0175652Y0039350D01*
X0174635Y0040368D01*
X0174635Y0042403D01*
X0125009Y0043420D02*
X0123992Y0043420D01*
X0121980Y0043420D02*
X0120962Y0043420D01*
X0118927Y0041385D01*
X0118927Y0039350D02*
X0118927Y0043420D01*
X0116920Y0044438D02*
X0116920Y0040368D01*
X0115903Y0039350D01*
X0112850Y0039350D01*
X0112850Y0045455D01*
X0115903Y0045455D01*
X0116920Y0044438D01*
X0042443Y0033958D02*
X0042443Y0065848D01*
X0003072Y0065848D01*
X0003072Y0033958D01*
X0042443Y0033958D01*
X0030002Y0106143D02*
X0003939Y0106143D01*
X0003939Y0119529D01*
X0030002Y0119529D01*
X0030002Y0106143D01*
X0031143Y0117561D02*
X0027994Y0120710D01*
X0027994Y0121104D01*
X0030750Y0121104D01*
X0031143Y0120710D01*
X0031143Y0117561D01*
X0031143Y0117756D02*
X0030948Y0117756D01*
X0031143Y0118255D02*
X0030449Y0118255D01*
X0029951Y0118753D02*
X0031143Y0118753D01*
X0031143Y0119252D02*
X0029452Y0119252D01*
X0028954Y0119750D02*
X0031143Y0119750D01*
X0031143Y0120249D02*
X0028455Y0120249D01*
X0027994Y0120747D02*
X0031106Y0120747D01*
X0031458Y0177757D02*
X0063348Y0177757D01*
X0063348Y0217128D01*
X0031458Y0217128D01*
X0031458Y0177757D01*
D12*
X0008400Y0177534D02*
X0008400Y0178735D01*
X0007799Y0179336D01*
X0008400Y0180617D02*
X0008400Y0183019D01*
X0008400Y0181818D02*
X0004797Y0181818D01*
X0005998Y0180617D01*
X0005397Y0179336D02*
X0004797Y0178735D01*
X0004797Y0177534D01*
X0005397Y0176934D01*
X0007799Y0176934D01*
X0008400Y0177534D01*
X0008400Y0175679D02*
X0008400Y0174478D01*
X0008400Y0175079D02*
X0004797Y0175079D01*
X0004797Y0175679D02*
X0004797Y0174478D01*
X0022497Y0153718D02*
X0024298Y0151917D01*
X0024298Y0154319D01*
X0022497Y0153718D02*
X0026100Y0153718D01*
X0024298Y0150636D02*
X0023097Y0150636D01*
X0022497Y0150035D01*
X0022497Y0148234D01*
X0026100Y0148234D01*
X0024899Y0148234D02*
X0024899Y0150035D01*
X0024298Y0150636D01*
X0022497Y0146953D02*
X0022497Y0145752D01*
X0022497Y0146352D02*
X0025499Y0146352D01*
X0026100Y0145752D01*
X0026100Y0145151D01*
X0025499Y0144551D01*
X0022818Y0104372D02*
X0022818Y0100769D01*
X0021617Y0100769D02*
X0024019Y0100769D01*
X0021617Y0103171D02*
X0022818Y0104372D01*
X0020336Y0103771D02*
X0020336Y0101369D01*
X0019735Y0100769D01*
X0017934Y0100769D01*
X0017934Y0104372D01*
X0019735Y0104372D01*
X0020336Y0103771D01*
X0016653Y0104372D02*
X0014251Y0104372D01*
X0014251Y0100769D01*
X0016653Y0100769D01*
X0015452Y0102570D02*
X0014251Y0102570D01*
X0012969Y0100769D02*
X0010567Y0100769D01*
X0010567Y0104372D01*
X0009845Y0064746D02*
X0012147Y0064746D01*
X0012914Y0063979D01*
X0012914Y0062444D01*
X0012147Y0061677D01*
X0009845Y0061677D01*
X0009845Y0060143D02*
X0009845Y0064746D01*
X0008310Y0064746D02*
X0005241Y0064746D01*
X0005241Y0060143D01*
X0005241Y0062444D02*
X0006776Y0062444D01*
X0011380Y0061677D02*
X0012914Y0060143D01*
X0014449Y0060910D02*
X0015216Y0060143D01*
X0016751Y0060143D01*
X0017518Y0060910D01*
X0017518Y0063979D01*
X0016751Y0064746D01*
X0015216Y0064746D01*
X0014449Y0063979D01*
X0014449Y0060910D01*
X0019053Y0060143D02*
X0019053Y0064746D01*
X0022122Y0060143D01*
X0022122Y0064746D01*
X0023657Y0064746D02*
X0026726Y0064746D01*
X0025191Y0064746D02*
X0025191Y0060143D01*
X0137800Y0037004D02*
X0137800Y0031800D01*
X0137800Y0033535D02*
X0140402Y0033535D01*
X0141270Y0034402D01*
X0141270Y0036137D01*
X0140402Y0037004D01*
X0137800Y0037004D01*
X0139535Y0033535D02*
X0141270Y0031800D01*
X0142956Y0032667D02*
X0142956Y0034402D01*
X0143824Y0035270D01*
X0145559Y0035270D01*
X0146426Y0034402D01*
X0146426Y0033535D01*
X0142956Y0033535D01*
X0142956Y0032667D02*
X0143824Y0031800D01*
X0145559Y0031800D01*
X0149848Y0031800D02*
X0148113Y0035270D01*
X0151582Y0035270D02*
X0149848Y0031800D01*
X0153269Y0031800D02*
X0154137Y0031800D01*
X0154137Y0032667D01*
X0153269Y0032667D01*
X0153269Y0031800D01*
X0155847Y0032667D02*
X0159317Y0036137D01*
X0159317Y0032667D01*
X0158450Y0031800D01*
X0156715Y0031800D01*
X0155847Y0032667D01*
X0155847Y0036137D01*
X0156715Y0037004D01*
X0158450Y0037004D01*
X0159317Y0036137D01*
X0163582Y0036137D02*
X0164449Y0037004D01*
X0166184Y0037004D01*
X0167052Y0036137D01*
X0167052Y0035270D01*
X0166184Y0034402D01*
X0167052Y0033535D01*
X0167052Y0032667D01*
X0166184Y0031800D01*
X0164449Y0031800D01*
X0163582Y0032667D01*
X0161871Y0032667D02*
X0161871Y0031800D01*
X0161004Y0031800D01*
X0161004Y0032667D01*
X0161871Y0032667D01*
X0165317Y0034402D02*
X0166184Y0034402D01*
X0220241Y0060143D02*
X0220241Y0064746D01*
X0223310Y0064746D01*
X0224845Y0064746D02*
X0227147Y0064746D01*
X0227914Y0063979D01*
X0227914Y0062444D01*
X0227147Y0061677D01*
X0224845Y0061677D01*
X0224845Y0060143D02*
X0224845Y0064746D01*
X0226380Y0061677D02*
X0227914Y0060143D01*
X0229449Y0060910D02*
X0230216Y0060143D01*
X0231751Y0060143D01*
X0232518Y0060910D01*
X0232518Y0063979D01*
X0231751Y0064746D01*
X0230216Y0064746D01*
X0229449Y0063979D01*
X0229449Y0060910D01*
X0234053Y0060143D02*
X0234053Y0064746D01*
X0237122Y0060143D01*
X0237122Y0064746D01*
X0238657Y0064746D02*
X0241726Y0064746D01*
X0240191Y0064746D02*
X0240191Y0060143D01*
X0221776Y0062444D02*
X0220241Y0062444D01*
X0237733Y0100769D02*
X0240135Y0100769D01*
X0241416Y0100769D02*
X0241416Y0104372D01*
X0243818Y0104372D01*
X0245099Y0104372D02*
X0246901Y0104372D01*
X0247501Y0103771D01*
X0247501Y0101369D01*
X0246901Y0100769D01*
X0245099Y0100769D01*
X0245099Y0104372D01*
X0242617Y0102570D02*
X0241416Y0102570D01*
X0241416Y0100769D02*
X0243818Y0100769D01*
X0248782Y0100769D02*
X0251184Y0103171D01*
X0251184Y0103771D01*
X0250584Y0104372D01*
X0249383Y0104372D01*
X0248782Y0103771D01*
X0248782Y0100769D02*
X0251184Y0100769D01*
X0237733Y0100769D02*
X0237733Y0104372D01*
X0243534Y0133800D02*
X0244735Y0133800D01*
X0245336Y0134401D01*
X0245336Y0137403D01*
X0246617Y0136202D02*
X0247818Y0137403D01*
X0247818Y0133800D01*
X0246617Y0133800D02*
X0249019Y0133800D01*
X0243534Y0133800D02*
X0242934Y0134401D01*
X0242934Y0137403D01*
X0229220Y0165024D02*
X0226818Y0165024D01*
X0228019Y0165024D02*
X0228019Y0168627D01*
X0226818Y0167426D01*
X0225537Y0168027D02*
X0225537Y0165625D01*
X0224936Y0165024D01*
X0223735Y0165024D01*
X0223135Y0165625D01*
X0223135Y0168027D01*
X0223735Y0168627D01*
X0224936Y0168627D01*
X0225537Y0168027D01*
X0224336Y0166225D02*
X0225537Y0165024D01*
X0202557Y0180241D02*
X0197954Y0180241D01*
X0197954Y0183310D01*
X0197954Y0184845D02*
X0197954Y0187147D01*
X0198721Y0187914D01*
X0200256Y0187914D01*
X0201023Y0187147D01*
X0201023Y0184845D01*
X0202557Y0184845D02*
X0197954Y0184845D01*
X0201023Y0186380D02*
X0202557Y0187914D01*
X0201790Y0189449D02*
X0198721Y0189449D01*
X0197954Y0190216D01*
X0197954Y0191751D01*
X0198721Y0192518D01*
X0201790Y0192518D01*
X0202557Y0191751D01*
X0202557Y0190216D01*
X0201790Y0189449D01*
X0202557Y0194053D02*
X0197954Y0194053D01*
X0202557Y0197122D01*
X0197954Y0197122D01*
X0197954Y0198657D02*
X0197954Y0201726D01*
X0197954Y0200191D02*
X0202557Y0200191D01*
X0200256Y0181776D02*
X0200256Y0180241D01*
X0062243Y0192339D02*
X0057639Y0192339D01*
X0057639Y0195409D01*
X0057639Y0196943D02*
X0057639Y0199245D01*
X0058406Y0200013D01*
X0059941Y0200013D01*
X0060708Y0199245D01*
X0060708Y0196943D01*
X0062243Y0196943D02*
X0057639Y0196943D01*
X0060708Y0198478D02*
X0062243Y0200013D01*
X0061475Y0201547D02*
X0062243Y0202315D01*
X0062243Y0203849D01*
X0061475Y0204617D01*
X0058406Y0204617D01*
X0057639Y0203849D01*
X0057639Y0202315D01*
X0058406Y0201547D01*
X0061475Y0201547D01*
X0062243Y0206151D02*
X0057639Y0206151D01*
X0062243Y0209220D01*
X0057639Y0209220D01*
X0057639Y0210755D02*
X0057639Y0213824D01*
X0057639Y0212290D02*
X0062243Y0212290D01*
X0059941Y0193874D02*
X0059941Y0192339D01*
D13*
X0055301Y0167453D02*
X0054067Y0166219D01*
X0052852Y0167453D02*
X0050384Y0167453D01*
X0050384Y0163750D01*
X0050384Y0165602D02*
X0051618Y0165602D01*
X0054067Y0163750D02*
X0056536Y0163750D01*
X0055301Y0163750D02*
X0055301Y0167453D01*
X0041536Y0149953D02*
X0040301Y0149336D01*
X0039067Y0148102D01*
X0040918Y0148102D01*
X0041536Y0147484D01*
X0041536Y0146867D01*
X0040918Y0146250D01*
X0039684Y0146250D01*
X0039067Y0146867D01*
X0039067Y0148102D01*
X0037852Y0146250D02*
X0035384Y0146250D01*
X0036618Y0146250D02*
X0036618Y0149953D01*
X0035384Y0148719D01*
X0034169Y0149336D02*
X0033552Y0149953D01*
X0032318Y0149953D01*
X0031701Y0149336D01*
X0031701Y0146867D01*
X0032318Y0146250D01*
X0033552Y0146250D01*
X0034169Y0146867D01*
X0027216Y0180250D02*
X0024747Y0180250D01*
X0027216Y0180250D02*
X0028450Y0181484D01*
X0027216Y0182719D01*
X0024747Y0182719D01*
X0025364Y0183933D02*
X0027833Y0183933D01*
X0028450Y0184550D01*
X0028450Y0185785D01*
X0027833Y0186402D01*
X0027833Y0187616D02*
X0025364Y0187616D01*
X0024747Y0188233D01*
X0024747Y0189468D01*
X0025364Y0190085D01*
X0027833Y0190085D02*
X0028450Y0189468D01*
X0028450Y0188233D01*
X0027833Y0187616D01*
X0025364Y0186402D02*
X0024747Y0185785D01*
X0024747Y0184550D01*
X0025364Y0183933D01*
X0071199Y0128425D02*
X0071816Y0128425D01*
X0072433Y0127808D01*
X0073050Y0128425D01*
X0073667Y0128425D01*
X0074285Y0127808D01*
X0074285Y0126574D01*
X0073667Y0125957D01*
X0073667Y0124742D02*
X0074285Y0124125D01*
X0074285Y0122891D01*
X0073667Y0122273D01*
X0071199Y0122273D01*
X0070581Y0122891D01*
X0070581Y0124125D01*
X0071199Y0124742D01*
X0071199Y0125957D02*
X0070581Y0126574D01*
X0070581Y0127808D01*
X0071199Y0128425D01*
X0072433Y0127808D02*
X0072433Y0127191D01*
X0040833Y0076536D02*
X0040216Y0076536D01*
X0039598Y0075918D01*
X0039598Y0074067D01*
X0040833Y0074067D01*
X0041450Y0074684D01*
X0041450Y0075918D01*
X0040833Y0076536D01*
X0038364Y0075301D02*
X0039598Y0074067D01*
X0039598Y0072852D02*
X0040216Y0072235D01*
X0040216Y0070384D01*
X0041450Y0070384D02*
X0037747Y0070384D01*
X0037747Y0072235D01*
X0038364Y0072852D01*
X0039598Y0072852D01*
X0040216Y0071618D02*
X0041450Y0072852D01*
X0038364Y0075301D02*
X0037747Y0076536D01*
X0021450Y0074067D02*
X0020833Y0074067D01*
X0018364Y0076536D01*
X0017747Y0076536D01*
X0017747Y0074067D01*
X0018364Y0072852D02*
X0017747Y0072235D01*
X0017747Y0070384D01*
X0021450Y0070384D01*
X0020216Y0070384D02*
X0020216Y0072235D01*
X0019598Y0072852D01*
X0018364Y0072852D01*
X0020216Y0071618D02*
X0021450Y0072852D01*
X0077747Y0053418D02*
X0077747Y0052184D01*
X0078364Y0051567D01*
X0077747Y0050352D02*
X0080833Y0050352D01*
X0081450Y0049735D01*
X0081450Y0048501D01*
X0080833Y0047884D01*
X0077747Y0047884D01*
X0081450Y0051567D02*
X0078981Y0054036D01*
X0078364Y0054036D01*
X0077747Y0053418D01*
X0081450Y0054036D02*
X0081450Y0051567D01*
X0127318Y0168750D02*
X0128552Y0168750D01*
X0129169Y0169367D01*
X0130384Y0168750D02*
X0132852Y0168750D01*
X0134067Y0168750D02*
X0134067Y0169367D01*
X0136536Y0171836D01*
X0136536Y0172453D01*
X0134067Y0172453D01*
X0131618Y0172453D02*
X0131618Y0168750D01*
X0130384Y0171219D02*
X0131618Y0172453D01*
X0129169Y0171836D02*
X0128552Y0172453D01*
X0127318Y0172453D01*
X0126701Y0171836D01*
X0126701Y0169367D01*
X0127318Y0168750D01*
X0141701Y0168750D02*
X0141701Y0172453D01*
X0143552Y0172453D01*
X0144169Y0171836D01*
X0144169Y0170602D01*
X0143552Y0169984D01*
X0141701Y0169984D01*
X0142935Y0169984D02*
X0144169Y0168750D01*
X0145384Y0168750D02*
X0147852Y0168750D01*
X0146618Y0168750D02*
X0146618Y0172453D01*
X0145384Y0171219D01*
X0149067Y0171219D02*
X0149684Y0170602D01*
X0150918Y0170602D01*
X0151536Y0169984D01*
X0151536Y0169367D01*
X0150918Y0168750D01*
X0149684Y0168750D01*
X0149067Y0169367D01*
X0149067Y0169984D01*
X0149684Y0170602D01*
X0149067Y0171219D02*
X0149067Y0171836D01*
X0149684Y0172453D01*
X0150918Y0172453D01*
X0151536Y0171836D01*
X0151536Y0171219D01*
X0150918Y0170602D01*
X0155247Y0181701D02*
X0155247Y0184169D01*
X0155247Y0185384D02*
X0155247Y0187235D01*
X0155864Y0187852D01*
X0156481Y0187852D01*
X0157098Y0187235D01*
X0157098Y0185384D01*
X0155247Y0185384D02*
X0158950Y0185384D01*
X0158950Y0187235D01*
X0158333Y0187852D01*
X0157716Y0187852D01*
X0157098Y0187235D01*
X0156481Y0189067D02*
X0155247Y0190301D01*
X0158950Y0190301D01*
X0158950Y0189067D02*
X0158950Y0191536D01*
X0157098Y0182935D02*
X0157098Y0181701D01*
X0155247Y0181701D02*
X0158950Y0181701D01*
X0158950Y0204201D02*
X0155247Y0204201D01*
X0155247Y0206669D01*
X0155247Y0207884D02*
X0155247Y0209735D01*
X0155864Y0210352D01*
X0156481Y0210352D01*
X0157098Y0209735D01*
X0157098Y0207884D01*
X0155247Y0207884D02*
X0158950Y0207884D01*
X0158950Y0209735D01*
X0158333Y0210352D01*
X0157716Y0210352D01*
X0157098Y0209735D01*
X0157098Y0211567D02*
X0157098Y0214036D01*
X0155247Y0213418D02*
X0158950Y0213418D01*
X0157098Y0211567D02*
X0155247Y0213418D01*
X0157098Y0205435D02*
X0157098Y0204201D01*
X0212884Y0144953D02*
X0214735Y0144953D01*
X0215352Y0144336D01*
X0215352Y0143102D01*
X0214735Y0142484D01*
X0212884Y0142484D01*
X0212884Y0141250D02*
X0212884Y0144953D01*
X0214118Y0142484D02*
X0215352Y0141250D01*
X0216567Y0141250D02*
X0219036Y0143719D01*
X0219036Y0144336D01*
X0218418Y0144953D01*
X0217184Y0144953D01*
X0216567Y0144336D01*
X0216567Y0141250D02*
X0219036Y0141250D01*
X0218418Y0139953D02*
X0219036Y0139336D01*
X0219036Y0138719D01*
X0218418Y0138102D01*
X0219036Y0137484D01*
X0219036Y0136867D01*
X0218418Y0136250D01*
X0217184Y0136250D01*
X0216567Y0136867D01*
X0215352Y0136250D02*
X0214118Y0137484D01*
X0214735Y0137484D02*
X0212884Y0137484D01*
X0212884Y0136250D02*
X0212884Y0139953D01*
X0214735Y0139953D01*
X0215352Y0139336D01*
X0215352Y0138102D01*
X0214735Y0137484D01*
X0216567Y0139336D02*
X0217184Y0139953D01*
X0218418Y0139953D01*
X0218418Y0138102D02*
X0217801Y0138102D01*
X0223699Y0128425D02*
X0223081Y0127808D01*
X0223081Y0126574D01*
X0223699Y0125957D01*
X0223699Y0124742D02*
X0223081Y0124125D01*
X0223081Y0122891D01*
X0223699Y0122273D01*
X0226167Y0122273D01*
X0226785Y0122891D01*
X0226785Y0124125D01*
X0226167Y0124742D01*
X0226785Y0125957D02*
X0224316Y0128425D01*
X0223699Y0128425D01*
X0226785Y0128425D02*
X0226785Y0125957D01*
X0235506Y0171805D02*
X0235506Y0175508D01*
X0237357Y0175508D01*
X0237975Y0174891D01*
X0237975Y0173657D01*
X0237357Y0173040D01*
X0235506Y0173040D01*
X0236740Y0173040D02*
X0237975Y0171805D01*
X0239189Y0171805D02*
X0241658Y0171805D01*
X0240423Y0171805D02*
X0240423Y0175508D01*
X0239189Y0174274D01*
X0234716Y0177750D02*
X0235950Y0178984D01*
X0234716Y0180219D01*
X0232247Y0180219D01*
X0232864Y0181433D02*
X0232247Y0182050D01*
X0232247Y0183285D01*
X0232864Y0183902D01*
X0232864Y0185116D02*
X0232247Y0185733D01*
X0232247Y0186968D01*
X0232864Y0187585D01*
X0232864Y0185116D02*
X0235333Y0185116D01*
X0235950Y0185733D01*
X0235950Y0186968D01*
X0235333Y0187585D01*
X0235333Y0183902D02*
X0235950Y0183285D01*
X0235950Y0182050D01*
X0235333Y0181433D01*
X0232864Y0181433D01*
X0232247Y0177750D02*
X0234716Y0177750D01*
X0249144Y0174927D02*
X0249144Y0172458D01*
X0249761Y0171841D01*
X0250995Y0171841D01*
X0251612Y0172458D01*
X0252827Y0171841D02*
X0255295Y0171841D01*
X0254061Y0171841D02*
X0254061Y0175544D01*
X0252827Y0174309D01*
X0251612Y0174927D02*
X0250995Y0175544D01*
X0249761Y0175544D01*
X0249144Y0174927D01*
X0252747Y0076536D02*
X0252747Y0074067D01*
X0254598Y0074067D01*
X0253981Y0075301D01*
X0253981Y0075918D01*
X0254598Y0076536D01*
X0255833Y0076536D01*
X0256450Y0075918D01*
X0256450Y0074684D01*
X0255833Y0074067D01*
X0256450Y0072852D02*
X0255216Y0071618D01*
X0255216Y0072235D02*
X0255216Y0070384D01*
X0256450Y0070384D02*
X0252747Y0070384D01*
X0252747Y0072235D01*
X0253364Y0072852D01*
X0254598Y0072852D01*
X0255216Y0072235D01*
X0236450Y0072852D02*
X0235216Y0071618D01*
X0235216Y0072235D02*
X0235216Y0070384D01*
X0236450Y0070384D02*
X0232747Y0070384D01*
X0232747Y0072235D01*
X0233364Y0072852D01*
X0234598Y0072852D01*
X0235216Y0072235D01*
X0234598Y0074067D02*
X0234598Y0076536D01*
X0232747Y0075918D02*
X0234598Y0074067D01*
X0232747Y0075918D02*
X0236450Y0075918D01*
D14*
X0004027Y0003504D02*
X0003842Y0003667D01*
X0003667Y0003842D01*
X0003504Y0004027D01*
X0003352Y0004223D01*
X0003213Y0004428D01*
X0003087Y0004640D01*
X0002975Y0004861D01*
X0002877Y0005088D01*
X0002793Y0005320D01*
X0002724Y0005558D01*
X0002670Y0005799D01*
X0002631Y0006044D01*
X0002608Y0006290D01*
X0002600Y0006537D01*
X0002600Y0219135D01*
X0002608Y0219383D01*
X0002631Y0219629D01*
X0002670Y0219873D01*
X0002724Y0220115D01*
X0002793Y0220352D01*
X0002877Y0220585D01*
X0002975Y0220812D01*
X0003087Y0221032D01*
X0003213Y0221245D01*
X0003352Y0221450D01*
X0003504Y0221645D01*
X0003667Y0221830D01*
X0003842Y0222006D01*
X0004027Y0222169D01*
X0004223Y0222320D01*
X0004428Y0222459D01*
X0004640Y0222585D01*
X0004861Y0222698D01*
X0005088Y0222796D01*
X0005320Y0222880D01*
X0005558Y0222949D01*
X0005799Y0223003D01*
X0006044Y0223041D01*
X0006290Y0223065D01*
X0006537Y0223072D01*
X0254569Y0223072D01*
X0254816Y0223065D01*
X0255062Y0223041D01*
X0255306Y0223003D01*
X0255548Y0222949D01*
X0255785Y0222880D01*
X0256018Y0222796D01*
X0256245Y0222698D01*
X0256465Y0222585D01*
X0256678Y0222459D01*
X0256883Y0222320D01*
X0257078Y0222169D01*
X0257263Y0222006D01*
X0257439Y0221830D01*
X0257602Y0221645D01*
X0257754Y0221450D01*
X0257893Y0221245D01*
X0258019Y0221032D01*
X0258131Y0220812D01*
X0258229Y0220585D01*
X0258313Y0220352D01*
X0258382Y0220115D01*
X0258436Y0219873D01*
X0258474Y0219629D01*
X0258498Y0219383D01*
X0258506Y0219135D01*
X0258506Y0006537D01*
X0258498Y0006290D01*
X0258474Y0006044D01*
X0258436Y0005799D01*
X0258382Y0005558D01*
X0258313Y0005320D01*
X0258229Y0005088D01*
X0258131Y0004861D01*
X0258019Y0004640D01*
X0257893Y0004428D01*
X0257754Y0004223D01*
X0257602Y0004027D01*
X0257439Y0003842D01*
X0257263Y0003667D01*
X0257078Y0003504D01*
X0256883Y0003352D01*
X0256678Y0003213D01*
X0256465Y0003087D01*
X0256245Y0002975D01*
X0256018Y0002877D01*
X0255785Y0002793D01*
X0255548Y0002724D01*
X0255306Y0002670D01*
X0255062Y0002631D01*
X0254816Y0002608D01*
X0254569Y0002600D01*
X0232915Y0002600D01*
X0232915Y0026222D01*
X0232885Y0026702D01*
X0232798Y0027174D01*
X0232654Y0027633D01*
X0232454Y0028070D01*
X0232203Y0028480D01*
X0231904Y0028856D01*
X0231561Y0029193D01*
X0231180Y0029486D01*
X0230765Y0029730D01*
X0230324Y0029922D01*
X0229863Y0030058D01*
X0229389Y0030137D01*
X0228978Y0030159D01*
X0084422Y0030154D01*
X0083944Y0030099D01*
X0083477Y0029987D01*
X0083026Y0029819D01*
X0082600Y0029597D01*
X0082204Y0029324D01*
X0081844Y0029006D01*
X0081525Y0028646D01*
X0081253Y0028250D01*
X0081031Y0027823D01*
X0080863Y0027373D01*
X0080750Y0026906D01*
X0080696Y0026428D01*
X0080691Y0026222D01*
X0080693Y0002600D01*
X0006537Y0002600D01*
X0006290Y0002608D01*
X0006044Y0002631D01*
X0005799Y0002670D01*
X0005558Y0002724D01*
X0005320Y0002793D01*
X0005088Y0002877D01*
X0004861Y0002975D01*
X0004640Y0003087D01*
X0004428Y0003213D01*
X0004223Y0003352D01*
X0004027Y0003504D01*
X0086336Y0101696D02*
X0085993Y0102033D01*
X0085694Y0102409D01*
X0085443Y0102819D01*
X0085243Y0103256D01*
X0085099Y0103715D01*
X0085011Y0104187D01*
X0084982Y0104667D01*
X0084984Y0114450D01*
X0085030Y0114928D01*
X0085135Y0115398D01*
X0085295Y0115851D01*
X0085509Y0116281D01*
X0085775Y0116682D01*
X0086087Y0117048D01*
X0086441Y0117372D01*
X0086833Y0117651D01*
X0087255Y0117881D01*
X0087702Y0118057D01*
X0088168Y0118177D01*
X0088644Y0118240D01*
X0090100Y0118250D01*
X0090306Y0118244D01*
X0090784Y0118190D01*
X0091251Y0118078D01*
X0091701Y0117909D01*
X0092128Y0117687D01*
X0092524Y0117415D01*
X0092884Y0117096D01*
X0093202Y0116736D01*
X0093475Y0116340D01*
X0093696Y0115914D01*
X0093865Y0115464D01*
X0093977Y0114996D01*
X0094031Y0114519D01*
X0094035Y0104530D01*
X0093989Y0104051D01*
X0093885Y0103582D01*
X0093724Y0103129D01*
X0093509Y0102698D01*
X0093244Y0102298D01*
X0092932Y0101932D01*
X0092578Y0101607D01*
X0092186Y0101328D01*
X0091764Y0101099D01*
X0091317Y0100923D01*
X0090851Y0100802D01*
X0090375Y0100740D01*
X0088919Y0100730D01*
X0088507Y0100752D01*
X0088033Y0100831D01*
X0087572Y0100967D01*
X0087131Y0101159D01*
X0086717Y0101403D01*
X0086336Y0101696D01*
X0104194Y0106264D02*
X0104083Y0106725D01*
X0103981Y0107188D01*
X0103887Y0107653D01*
X0103800Y0108119D01*
X0103722Y0108587D01*
X0103652Y0109056D01*
X0103590Y0109526D01*
X0103536Y0109996D01*
X0103491Y0110469D01*
X0103454Y0110941D01*
X0103425Y0111415D01*
X0103404Y0111888D01*
X0103391Y0112362D01*
X0103387Y0112836D01*
X0103391Y0113310D01*
X0103404Y0113784D01*
X0103425Y0114258D01*
X0103454Y0114731D01*
X0103491Y0115204D01*
X0103536Y0115676D01*
X0103590Y0116147D01*
X0103652Y0116617D01*
X0103722Y0117086D01*
X0103800Y0117554D01*
X0103887Y0118020D01*
X0103981Y0118484D01*
X0104083Y0118947D01*
X0104194Y0119408D01*
X0104313Y0119867D01*
X0104440Y0120324D01*
X0104570Y0120765D01*
X0104569Y0134883D01*
X0104574Y0135089D01*
X0104628Y0135567D01*
X0104741Y0136034D01*
X0104909Y0136485D01*
X0105131Y0136911D01*
X0105403Y0137307D01*
X0105722Y0137667D01*
X0106082Y0137986D01*
X0106478Y0138258D01*
X0106904Y0138480D01*
X0107133Y0138565D01*
X0107128Y0161065D01*
X0107133Y0161270D01*
X0107187Y0161748D01*
X0107300Y0162216D01*
X0107468Y0162666D01*
X0107690Y0163092D01*
X0107962Y0163488D01*
X0108281Y0163848D01*
X0108641Y0164167D01*
X0109037Y0164439D01*
X0109463Y0164661D01*
X0109913Y0164830D01*
X0110381Y0164942D01*
X0110859Y0164996D01*
X0139805Y0165002D01*
X0140216Y0164980D01*
X0140690Y0164901D01*
X0141151Y0164764D01*
X0141592Y0164572D01*
X0142006Y0164328D01*
X0142387Y0164036D01*
X0142730Y0163699D01*
X0143030Y0163323D01*
X0143281Y0162913D01*
X0143480Y0162476D01*
X0143625Y0162017D01*
X0143712Y0161544D01*
X0143742Y0161065D01*
X0143742Y0138819D01*
X0152600Y0138820D01*
X0153011Y0138799D01*
X0153485Y0138720D01*
X0153946Y0138583D01*
X0154387Y0138391D01*
X0154802Y0138147D01*
X0155183Y0137855D01*
X0155526Y0137518D01*
X0155825Y0137142D01*
X0156076Y0136732D01*
X0156276Y0136294D01*
X0156420Y0135836D01*
X0156507Y0135363D01*
X0156537Y0134883D01*
X0156537Y0120759D01*
X0156666Y0120324D01*
X0156793Y0119867D01*
X0156911Y0119408D01*
X0157022Y0118947D01*
X0157124Y0118484D01*
X0157219Y0118020D01*
X0157306Y0117554D01*
X0157383Y0117086D01*
X0157454Y0116617D01*
X0157516Y0116147D01*
X0157569Y0115676D01*
X0157615Y0115204D01*
X0157652Y0114731D01*
X0157681Y0114258D01*
X0157702Y0113784D01*
X0157714Y0113310D01*
X0157718Y0112836D01*
X0157714Y0112362D01*
X0157702Y0111888D01*
X0157681Y0111415D01*
X0157652Y0110941D01*
X0157615Y0110469D01*
X0157569Y0109996D01*
X0157516Y0109526D01*
X0157454Y0109056D01*
X0157383Y0108587D01*
X0157306Y0108119D01*
X0157219Y0107653D01*
X0157124Y0107188D01*
X0157022Y0106725D01*
X0156911Y0106264D01*
X0156793Y0105805D01*
X0156666Y0105348D01*
X0156537Y0104914D01*
X0156537Y0090789D01*
X0156531Y0090583D01*
X0156477Y0090106D01*
X0156365Y0089638D01*
X0156196Y0089188D01*
X0155975Y0088761D01*
X0155702Y0088365D01*
X0155384Y0088005D01*
X0155024Y0087687D01*
X0154628Y0087414D01*
X0154201Y0087193D01*
X0153751Y0087024D01*
X0153283Y0086912D01*
X0152806Y0086857D01*
X0138488Y0086856D01*
X0138427Y0086837D01*
X0138427Y0073466D01*
X0138421Y0073260D01*
X0138367Y0072783D01*
X0138255Y0072315D01*
X0138086Y0071865D01*
X0137865Y0071439D01*
X0137592Y0071043D01*
X0137274Y0070682D01*
X0136913Y0070364D01*
X0136517Y0070091D01*
X0136091Y0069870D01*
X0135641Y0069701D01*
X0135173Y0069589D01*
X0134696Y0069535D01*
X0126616Y0069529D01*
X0126410Y0069535D01*
X0125932Y0069589D01*
X0125465Y0069701D01*
X0125015Y0069870D01*
X0124588Y0070091D01*
X0124192Y0070364D01*
X0123832Y0070682D01*
X0123513Y0071043D01*
X0123241Y0071439D01*
X0123019Y0071865D01*
X0122851Y0072315D01*
X0122739Y0072783D01*
X0122684Y0073260D01*
X0122683Y0086836D01*
X0122624Y0086854D01*
X0108506Y0086852D01*
X0108300Y0086857D01*
X0107822Y0086912D01*
X0107355Y0087024D01*
X0106904Y0087193D01*
X0106478Y0087414D01*
X0106082Y0087687D01*
X0105722Y0088005D01*
X0105403Y0088365D01*
X0105131Y0088761D01*
X0104909Y0089188D01*
X0104741Y0089638D01*
X0104628Y0090106D01*
X0104574Y0090583D01*
X0104572Y0104901D01*
X0104440Y0105348D01*
X0104313Y0105805D01*
X0104194Y0106264D01*
X0091251Y0150902D02*
X0090784Y0150790D01*
X0090306Y0150735D01*
X0090100Y0150730D01*
X0088644Y0150739D01*
X0088168Y0150802D01*
X0087702Y0150923D01*
X0087255Y0151099D01*
X0086833Y0151328D01*
X0086441Y0151607D01*
X0086087Y0151932D01*
X0085775Y0152298D01*
X0085509Y0152698D01*
X0085295Y0153129D01*
X0085135Y0153582D01*
X0085030Y0154051D01*
X0084984Y0154530D01*
X0084982Y0164313D01*
X0085011Y0164792D01*
X0085099Y0165265D01*
X0085243Y0165723D01*
X0085443Y0166161D01*
X0085694Y0166570D01*
X0085993Y0166947D01*
X0086336Y0167284D01*
X0086717Y0167576D01*
X0087131Y0167820D01*
X0087572Y0168012D01*
X0088033Y0168148D01*
X0088507Y0168228D01*
X0088919Y0168250D01*
X0090375Y0168240D01*
X0090851Y0168177D01*
X0091317Y0168057D01*
X0091764Y0167881D01*
X0092186Y0167651D01*
X0092578Y0167372D01*
X0092932Y0167047D01*
X0093244Y0166682D01*
X0093509Y0166281D01*
X0093724Y0165851D01*
X0093885Y0165398D01*
X0093989Y0164928D01*
X0094035Y0164450D01*
X0094031Y0154461D01*
X0093977Y0153983D01*
X0093865Y0153516D01*
X0093696Y0153066D01*
X0093475Y0152639D01*
X0093202Y0152243D01*
X0092884Y0151883D01*
X0092524Y0151565D01*
X0092128Y0151292D01*
X0091701Y0151070D01*
X0091251Y0150902D01*
X0154180Y0149638D02*
X0154175Y0153781D01*
X0154180Y0153987D01*
X0154235Y0154465D01*
X0154347Y0154932D01*
X0154515Y0155382D01*
X0154737Y0155809D01*
X0155009Y0156205D01*
X0155328Y0156565D01*
X0155688Y0156883D01*
X0156084Y0157156D01*
X0156511Y0157378D01*
X0156961Y0157546D01*
X0157428Y0157658D01*
X0157906Y0157713D01*
X0162049Y0157718D01*
X0162460Y0157696D01*
X0162934Y0157617D01*
X0163395Y0157481D01*
X0163836Y0157289D01*
X0164250Y0157045D01*
X0164632Y0156752D01*
X0164974Y0156415D01*
X0165274Y0156039D01*
X0165525Y0155630D01*
X0165724Y0155192D01*
X0165869Y0154733D01*
X0165956Y0154261D01*
X0165986Y0153781D01*
X0165986Y0149844D01*
X0165980Y0149638D01*
X0165926Y0149160D01*
X0165814Y0148693D01*
X0165645Y0148243D01*
X0165424Y0147817D01*
X0165151Y0147420D01*
X0164833Y0147060D01*
X0164472Y0146742D01*
X0164076Y0146469D01*
X0163650Y0146248D01*
X0163200Y0146079D01*
X0162732Y0145967D01*
X0162255Y0145913D01*
X0158112Y0145907D01*
X0157906Y0145913D01*
X0157428Y0145967D01*
X0156961Y0146079D01*
X0156511Y0146248D01*
X0156084Y0146469D01*
X0155688Y0146742D01*
X0155328Y0147060D01*
X0155009Y0147420D01*
X0154737Y0147817D01*
X0154515Y0148243D01*
X0154347Y0148693D01*
X0154235Y0149160D01*
X0154180Y0149638D01*
X0167128Y0153983D02*
X0167074Y0154461D01*
X0167071Y0164450D01*
X0167117Y0164928D01*
X0167221Y0165398D01*
X0167381Y0165851D01*
X0167596Y0166281D01*
X0167861Y0166682D01*
X0168174Y0167047D01*
X0168528Y0167372D01*
X0168919Y0167651D01*
X0169342Y0167881D01*
X0169789Y0168057D01*
X0170254Y0168177D01*
X0170731Y0168240D01*
X0172187Y0168250D01*
X0172598Y0168228D01*
X0173072Y0168148D01*
X0173533Y0168012D01*
X0173974Y0167820D01*
X0174388Y0167576D01*
X0174769Y0167284D01*
X0175112Y0166947D01*
X0175411Y0166570D01*
X0175663Y0166161D01*
X0175862Y0165723D01*
X0176007Y0165265D01*
X0176094Y0164792D01*
X0176124Y0164313D01*
X0176121Y0154530D01*
X0176075Y0154051D01*
X0175971Y0153582D01*
X0175811Y0153129D01*
X0175596Y0152698D01*
X0175331Y0152298D01*
X0175019Y0151932D01*
X0174664Y0151607D01*
X0174273Y0151328D01*
X0173850Y0151099D01*
X0173403Y0150923D01*
X0172938Y0150802D01*
X0172461Y0150739D01*
X0171006Y0150730D01*
X0170800Y0150735D01*
X0170322Y0150790D01*
X0169854Y0150902D01*
X0169404Y0151070D01*
X0168978Y0151292D01*
X0168581Y0151565D01*
X0168222Y0151883D01*
X0167903Y0152243D01*
X0167631Y0152639D01*
X0167409Y0153066D01*
X0167241Y0153516D01*
X0167128Y0153983D01*
X0170800Y0118244D02*
X0171006Y0118250D01*
X0172461Y0118240D01*
X0172938Y0118177D01*
X0173403Y0118057D01*
X0173850Y0117881D01*
X0174273Y0117651D01*
X0174664Y0117372D01*
X0175019Y0117048D01*
X0175331Y0116682D01*
X0175596Y0116281D01*
X0175811Y0115851D01*
X0175971Y0115398D01*
X0176075Y0114928D01*
X0176121Y0114450D01*
X0176124Y0104667D01*
X0176094Y0104187D01*
X0176007Y0103715D01*
X0175862Y0103256D01*
X0175663Y0102819D01*
X0175411Y0102409D01*
X0175112Y0102033D01*
X0174769Y0101696D01*
X0174388Y0101403D01*
X0173974Y0101159D01*
X0173533Y0100967D01*
X0173072Y0100831D01*
X0172598Y0100752D01*
X0172187Y0100730D01*
X0170731Y0100740D01*
X0170254Y0100802D01*
X0169789Y0100923D01*
X0169342Y0101099D01*
X0168919Y0101328D01*
X0168528Y0101607D01*
X0168174Y0101932D01*
X0167861Y0102298D01*
X0167596Y0102698D01*
X0167381Y0103129D01*
X0167221Y0103582D01*
X0167117Y0104051D01*
X0167071Y0104530D01*
X0167074Y0114519D01*
X0167128Y0114996D01*
X0167241Y0115464D01*
X0167409Y0115914D01*
X0167631Y0116340D01*
X0167903Y0116736D01*
X0168222Y0117096D01*
X0168581Y0117415D01*
X0168978Y0117687D01*
X0169404Y0117909D01*
X0169854Y0118078D01*
X0170322Y0118190D01*
X0170800Y0118244D01*
D15*
X0244726Y0197793D02*
X0244726Y0198793D01*
X0244726Y0219793D02*
X0244726Y0220793D01*
X0244726Y0027880D02*
X0244726Y0026880D01*
X0244726Y0005880D02*
X0244726Y0004880D01*
X0016380Y0004880D02*
X0016380Y0005880D01*
X0016380Y0026880D02*
X0016380Y0027880D01*
X0016380Y0197793D02*
X0016380Y0198793D01*
X0016380Y0219793D02*
X0016380Y0220793D01*
D16*
X0004880Y0209293D02*
X0004883Y0209575D01*
X0004894Y0209857D01*
X0004911Y0210139D01*
X0004935Y0210420D01*
X0004966Y0210701D01*
X0005004Y0210980D01*
X0005049Y0211259D01*
X0005101Y0211537D01*
X0005159Y0211813D01*
X0005225Y0212087D01*
X0005297Y0212360D01*
X0005375Y0212631D01*
X0005460Y0212900D01*
X0005552Y0213167D01*
X0005651Y0213432D01*
X0005755Y0213694D01*
X0005867Y0213953D01*
X0005984Y0214210D01*
X0006108Y0214464D01*
X0006238Y0214714D01*
X0006374Y0214961D01*
X0006516Y0215205D01*
X0006664Y0215445D01*
X0006818Y0215682D01*
X0006978Y0215915D01*
X0007143Y0216144D01*
X0007314Y0216368D01*
X0007490Y0216589D01*
X0007672Y0216804D01*
X0007859Y0217016D01*
X0008051Y0217223D01*
X0008248Y0217425D01*
X0008450Y0217622D01*
X0008657Y0217814D01*
X0008869Y0218001D01*
X0009084Y0218183D01*
X0009305Y0218359D01*
X0009529Y0218530D01*
X0009758Y0218695D01*
X0009991Y0218855D01*
X0010228Y0219009D01*
X0010468Y0219157D01*
X0010712Y0219299D01*
X0010959Y0219435D01*
X0011209Y0219565D01*
X0011463Y0219689D01*
X0011720Y0219806D01*
X0011979Y0219918D01*
X0012241Y0220022D01*
X0012506Y0220121D01*
X0012773Y0220213D01*
X0013042Y0220298D01*
X0013313Y0220376D01*
X0013586Y0220448D01*
X0013860Y0220514D01*
X0014136Y0220572D01*
X0014414Y0220624D01*
X0014693Y0220669D01*
X0014972Y0220707D01*
X0015253Y0220738D01*
X0015534Y0220762D01*
X0015816Y0220779D01*
X0016098Y0220790D01*
X0016380Y0220793D01*
X0016662Y0220790D01*
X0016944Y0220779D01*
X0017226Y0220762D01*
X0017507Y0220738D01*
X0017788Y0220707D01*
X0018067Y0220669D01*
X0018346Y0220624D01*
X0018624Y0220572D01*
X0018900Y0220514D01*
X0019174Y0220448D01*
X0019447Y0220376D01*
X0019718Y0220298D01*
X0019987Y0220213D01*
X0020254Y0220121D01*
X0020519Y0220022D01*
X0020781Y0219918D01*
X0021040Y0219806D01*
X0021297Y0219689D01*
X0021551Y0219565D01*
X0021801Y0219435D01*
X0022048Y0219299D01*
X0022292Y0219157D01*
X0022532Y0219009D01*
X0022769Y0218855D01*
X0023002Y0218695D01*
X0023231Y0218530D01*
X0023455Y0218359D01*
X0023676Y0218183D01*
X0023891Y0218001D01*
X0024103Y0217814D01*
X0024310Y0217622D01*
X0024512Y0217425D01*
X0024709Y0217223D01*
X0024901Y0217016D01*
X0025088Y0216804D01*
X0025270Y0216589D01*
X0025446Y0216368D01*
X0025617Y0216144D01*
X0025782Y0215915D01*
X0025942Y0215682D01*
X0026096Y0215445D01*
X0026244Y0215205D01*
X0026386Y0214961D01*
X0026522Y0214714D01*
X0026652Y0214464D01*
X0026776Y0214210D01*
X0026893Y0213953D01*
X0027005Y0213694D01*
X0027109Y0213432D01*
X0027208Y0213167D01*
X0027300Y0212900D01*
X0027385Y0212631D01*
X0027463Y0212360D01*
X0027535Y0212087D01*
X0027601Y0211813D01*
X0027659Y0211537D01*
X0027711Y0211259D01*
X0027756Y0210980D01*
X0027794Y0210701D01*
X0027825Y0210420D01*
X0027849Y0210139D01*
X0027866Y0209857D01*
X0027877Y0209575D01*
X0027880Y0209293D01*
X0027877Y0209011D01*
X0027866Y0208729D01*
X0027849Y0208447D01*
X0027825Y0208166D01*
X0027794Y0207885D01*
X0027756Y0207606D01*
X0027711Y0207327D01*
X0027659Y0207049D01*
X0027601Y0206773D01*
X0027535Y0206499D01*
X0027463Y0206226D01*
X0027385Y0205955D01*
X0027300Y0205686D01*
X0027208Y0205419D01*
X0027109Y0205154D01*
X0027005Y0204892D01*
X0026893Y0204633D01*
X0026776Y0204376D01*
X0026652Y0204122D01*
X0026522Y0203872D01*
X0026386Y0203625D01*
X0026244Y0203381D01*
X0026096Y0203141D01*
X0025942Y0202904D01*
X0025782Y0202671D01*
X0025617Y0202442D01*
X0025446Y0202218D01*
X0025270Y0201997D01*
X0025088Y0201782D01*
X0024901Y0201570D01*
X0024709Y0201363D01*
X0024512Y0201161D01*
X0024310Y0200964D01*
X0024103Y0200772D01*
X0023891Y0200585D01*
X0023676Y0200403D01*
X0023455Y0200227D01*
X0023231Y0200056D01*
X0023002Y0199891D01*
X0022769Y0199731D01*
X0022532Y0199577D01*
X0022292Y0199429D01*
X0022048Y0199287D01*
X0021801Y0199151D01*
X0021551Y0199021D01*
X0021297Y0198897D01*
X0021040Y0198780D01*
X0020781Y0198668D01*
X0020519Y0198564D01*
X0020254Y0198465D01*
X0019987Y0198373D01*
X0019718Y0198288D01*
X0019447Y0198210D01*
X0019174Y0198138D01*
X0018900Y0198072D01*
X0018624Y0198014D01*
X0018346Y0197962D01*
X0018067Y0197917D01*
X0017788Y0197879D01*
X0017507Y0197848D01*
X0017226Y0197824D01*
X0016944Y0197807D01*
X0016662Y0197796D01*
X0016380Y0197793D01*
X0016098Y0197796D01*
X0015816Y0197807D01*
X0015534Y0197824D01*
X0015253Y0197848D01*
X0014972Y0197879D01*
X0014693Y0197917D01*
X0014414Y0197962D01*
X0014136Y0198014D01*
X0013860Y0198072D01*
X0013586Y0198138D01*
X0013313Y0198210D01*
X0013042Y0198288D01*
X0012773Y0198373D01*
X0012506Y0198465D01*
X0012241Y0198564D01*
X0011979Y0198668D01*
X0011720Y0198780D01*
X0011463Y0198897D01*
X0011209Y0199021D01*
X0010959Y0199151D01*
X0010712Y0199287D01*
X0010468Y0199429D01*
X0010228Y0199577D01*
X0009991Y0199731D01*
X0009758Y0199891D01*
X0009529Y0200056D01*
X0009305Y0200227D01*
X0009084Y0200403D01*
X0008869Y0200585D01*
X0008657Y0200772D01*
X0008450Y0200964D01*
X0008248Y0201161D01*
X0008051Y0201363D01*
X0007859Y0201570D01*
X0007672Y0201782D01*
X0007490Y0201997D01*
X0007314Y0202218D01*
X0007143Y0202442D01*
X0006978Y0202671D01*
X0006818Y0202904D01*
X0006664Y0203141D01*
X0006516Y0203381D01*
X0006374Y0203625D01*
X0006238Y0203872D01*
X0006108Y0204122D01*
X0005984Y0204376D01*
X0005867Y0204633D01*
X0005755Y0204892D01*
X0005651Y0205154D01*
X0005552Y0205419D01*
X0005460Y0205686D01*
X0005375Y0205955D01*
X0005297Y0206226D01*
X0005225Y0206499D01*
X0005159Y0206773D01*
X0005101Y0207049D01*
X0005049Y0207327D01*
X0005004Y0207606D01*
X0004966Y0207885D01*
X0004935Y0208166D01*
X0004911Y0208447D01*
X0004894Y0208729D01*
X0004883Y0209011D01*
X0004880Y0209293D01*
X0012600Y0160100D02*
X0010100Y0157600D01*
X0010100Y0152600D01*
X0012600Y0150100D01*
X0010100Y0147600D01*
X0010100Y0142600D01*
X0012600Y0140100D01*
X0017600Y0140100D01*
X0020100Y0142600D01*
X0020100Y0147600D01*
X0017600Y0150100D01*
X0012600Y0150100D01*
X0017600Y0150100D02*
X0020100Y0152600D01*
X0020100Y0157600D01*
X0017600Y0160100D01*
X0012600Y0160100D01*
X0004880Y0016380D02*
X0004883Y0016662D01*
X0004894Y0016944D01*
X0004911Y0017226D01*
X0004935Y0017507D01*
X0004966Y0017788D01*
X0005004Y0018067D01*
X0005049Y0018346D01*
X0005101Y0018624D01*
X0005159Y0018900D01*
X0005225Y0019174D01*
X0005297Y0019447D01*
X0005375Y0019718D01*
X0005460Y0019987D01*
X0005552Y0020254D01*
X0005651Y0020519D01*
X0005755Y0020781D01*
X0005867Y0021040D01*
X0005984Y0021297D01*
X0006108Y0021551D01*
X0006238Y0021801D01*
X0006374Y0022048D01*
X0006516Y0022292D01*
X0006664Y0022532D01*
X0006818Y0022769D01*
X0006978Y0023002D01*
X0007143Y0023231D01*
X0007314Y0023455D01*
X0007490Y0023676D01*
X0007672Y0023891D01*
X0007859Y0024103D01*
X0008051Y0024310D01*
X0008248Y0024512D01*
X0008450Y0024709D01*
X0008657Y0024901D01*
X0008869Y0025088D01*
X0009084Y0025270D01*
X0009305Y0025446D01*
X0009529Y0025617D01*
X0009758Y0025782D01*
X0009991Y0025942D01*
X0010228Y0026096D01*
X0010468Y0026244D01*
X0010712Y0026386D01*
X0010959Y0026522D01*
X0011209Y0026652D01*
X0011463Y0026776D01*
X0011720Y0026893D01*
X0011979Y0027005D01*
X0012241Y0027109D01*
X0012506Y0027208D01*
X0012773Y0027300D01*
X0013042Y0027385D01*
X0013313Y0027463D01*
X0013586Y0027535D01*
X0013860Y0027601D01*
X0014136Y0027659D01*
X0014414Y0027711D01*
X0014693Y0027756D01*
X0014972Y0027794D01*
X0015253Y0027825D01*
X0015534Y0027849D01*
X0015816Y0027866D01*
X0016098Y0027877D01*
X0016380Y0027880D01*
X0016662Y0027877D01*
X0016944Y0027866D01*
X0017226Y0027849D01*
X0017507Y0027825D01*
X0017788Y0027794D01*
X0018067Y0027756D01*
X0018346Y0027711D01*
X0018624Y0027659D01*
X0018900Y0027601D01*
X0019174Y0027535D01*
X0019447Y0027463D01*
X0019718Y0027385D01*
X0019987Y0027300D01*
X0020254Y0027208D01*
X0020519Y0027109D01*
X0020781Y0027005D01*
X0021040Y0026893D01*
X0021297Y0026776D01*
X0021551Y0026652D01*
X0021801Y0026522D01*
X0022048Y0026386D01*
X0022292Y0026244D01*
X0022532Y0026096D01*
X0022769Y0025942D01*
X0023002Y0025782D01*
X0023231Y0025617D01*
X0023455Y0025446D01*
X0023676Y0025270D01*
X0023891Y0025088D01*
X0024103Y0024901D01*
X0024310Y0024709D01*
X0024512Y0024512D01*
X0024709Y0024310D01*
X0024901Y0024103D01*
X0025088Y0023891D01*
X0025270Y0023676D01*
X0025446Y0023455D01*
X0025617Y0023231D01*
X0025782Y0023002D01*
X0025942Y0022769D01*
X0026096Y0022532D01*
X0026244Y0022292D01*
X0026386Y0022048D01*
X0026522Y0021801D01*
X0026652Y0021551D01*
X0026776Y0021297D01*
X0026893Y0021040D01*
X0027005Y0020781D01*
X0027109Y0020519D01*
X0027208Y0020254D01*
X0027300Y0019987D01*
X0027385Y0019718D01*
X0027463Y0019447D01*
X0027535Y0019174D01*
X0027601Y0018900D01*
X0027659Y0018624D01*
X0027711Y0018346D01*
X0027756Y0018067D01*
X0027794Y0017788D01*
X0027825Y0017507D01*
X0027849Y0017226D01*
X0027866Y0016944D01*
X0027877Y0016662D01*
X0027880Y0016380D01*
X0027877Y0016098D01*
X0027866Y0015816D01*
X0027849Y0015534D01*
X0027825Y0015253D01*
X0027794Y0014972D01*
X0027756Y0014693D01*
X0027711Y0014414D01*
X0027659Y0014136D01*
X0027601Y0013860D01*
X0027535Y0013586D01*
X0027463Y0013313D01*
X0027385Y0013042D01*
X0027300Y0012773D01*
X0027208Y0012506D01*
X0027109Y0012241D01*
X0027005Y0011979D01*
X0026893Y0011720D01*
X0026776Y0011463D01*
X0026652Y0011209D01*
X0026522Y0010959D01*
X0026386Y0010712D01*
X0026244Y0010468D01*
X0026096Y0010228D01*
X0025942Y0009991D01*
X0025782Y0009758D01*
X0025617Y0009529D01*
X0025446Y0009305D01*
X0025270Y0009084D01*
X0025088Y0008869D01*
X0024901Y0008657D01*
X0024709Y0008450D01*
X0024512Y0008248D01*
X0024310Y0008051D01*
X0024103Y0007859D01*
X0023891Y0007672D01*
X0023676Y0007490D01*
X0023455Y0007314D01*
X0023231Y0007143D01*
X0023002Y0006978D01*
X0022769Y0006818D01*
X0022532Y0006664D01*
X0022292Y0006516D01*
X0022048Y0006374D01*
X0021801Y0006238D01*
X0021551Y0006108D01*
X0021297Y0005984D01*
X0021040Y0005867D01*
X0020781Y0005755D01*
X0020519Y0005651D01*
X0020254Y0005552D01*
X0019987Y0005460D01*
X0019718Y0005375D01*
X0019447Y0005297D01*
X0019174Y0005225D01*
X0018900Y0005159D01*
X0018624Y0005101D01*
X0018346Y0005049D01*
X0018067Y0005004D01*
X0017788Y0004966D01*
X0017507Y0004935D01*
X0017226Y0004911D01*
X0016944Y0004894D01*
X0016662Y0004883D01*
X0016380Y0004880D01*
X0016098Y0004883D01*
X0015816Y0004894D01*
X0015534Y0004911D01*
X0015253Y0004935D01*
X0014972Y0004966D01*
X0014693Y0005004D01*
X0014414Y0005049D01*
X0014136Y0005101D01*
X0013860Y0005159D01*
X0013586Y0005225D01*
X0013313Y0005297D01*
X0013042Y0005375D01*
X0012773Y0005460D01*
X0012506Y0005552D01*
X0012241Y0005651D01*
X0011979Y0005755D01*
X0011720Y0005867D01*
X0011463Y0005984D01*
X0011209Y0006108D01*
X0010959Y0006238D01*
X0010712Y0006374D01*
X0010468Y0006516D01*
X0010228Y0006664D01*
X0009991Y0006818D01*
X0009758Y0006978D01*
X0009529Y0007143D01*
X0009305Y0007314D01*
X0009084Y0007490D01*
X0008869Y0007672D01*
X0008657Y0007859D01*
X0008450Y0008051D01*
X0008248Y0008248D01*
X0008051Y0008450D01*
X0007859Y0008657D01*
X0007672Y0008869D01*
X0007490Y0009084D01*
X0007314Y0009305D01*
X0007143Y0009529D01*
X0006978Y0009758D01*
X0006818Y0009991D01*
X0006664Y0010228D01*
X0006516Y0010468D01*
X0006374Y0010712D01*
X0006238Y0010959D01*
X0006108Y0011209D01*
X0005984Y0011463D01*
X0005867Y0011720D01*
X0005755Y0011979D01*
X0005651Y0012241D01*
X0005552Y0012506D01*
X0005460Y0012773D01*
X0005375Y0013042D01*
X0005297Y0013313D01*
X0005225Y0013586D01*
X0005159Y0013860D01*
X0005101Y0014136D01*
X0005049Y0014414D01*
X0005004Y0014693D01*
X0004966Y0014972D01*
X0004935Y0015253D01*
X0004911Y0015534D01*
X0004894Y0015816D01*
X0004883Y0016098D01*
X0004880Y0016380D01*
X0233226Y0016380D02*
X0233229Y0016662D01*
X0233240Y0016944D01*
X0233257Y0017226D01*
X0233281Y0017507D01*
X0233312Y0017788D01*
X0233350Y0018067D01*
X0233395Y0018346D01*
X0233447Y0018624D01*
X0233505Y0018900D01*
X0233571Y0019174D01*
X0233643Y0019447D01*
X0233721Y0019718D01*
X0233806Y0019987D01*
X0233898Y0020254D01*
X0233997Y0020519D01*
X0234101Y0020781D01*
X0234213Y0021040D01*
X0234330Y0021297D01*
X0234454Y0021551D01*
X0234584Y0021801D01*
X0234720Y0022048D01*
X0234862Y0022292D01*
X0235010Y0022532D01*
X0235164Y0022769D01*
X0235324Y0023002D01*
X0235489Y0023231D01*
X0235660Y0023455D01*
X0235836Y0023676D01*
X0236018Y0023891D01*
X0236205Y0024103D01*
X0236397Y0024310D01*
X0236594Y0024512D01*
X0236796Y0024709D01*
X0237003Y0024901D01*
X0237215Y0025088D01*
X0237430Y0025270D01*
X0237651Y0025446D01*
X0237875Y0025617D01*
X0238104Y0025782D01*
X0238337Y0025942D01*
X0238574Y0026096D01*
X0238814Y0026244D01*
X0239058Y0026386D01*
X0239305Y0026522D01*
X0239555Y0026652D01*
X0239809Y0026776D01*
X0240066Y0026893D01*
X0240325Y0027005D01*
X0240587Y0027109D01*
X0240852Y0027208D01*
X0241119Y0027300D01*
X0241388Y0027385D01*
X0241659Y0027463D01*
X0241932Y0027535D01*
X0242206Y0027601D01*
X0242482Y0027659D01*
X0242760Y0027711D01*
X0243039Y0027756D01*
X0243318Y0027794D01*
X0243599Y0027825D01*
X0243880Y0027849D01*
X0244162Y0027866D01*
X0244444Y0027877D01*
X0244726Y0027880D01*
X0245008Y0027877D01*
X0245290Y0027866D01*
X0245572Y0027849D01*
X0245853Y0027825D01*
X0246134Y0027794D01*
X0246413Y0027756D01*
X0246692Y0027711D01*
X0246970Y0027659D01*
X0247246Y0027601D01*
X0247520Y0027535D01*
X0247793Y0027463D01*
X0248064Y0027385D01*
X0248333Y0027300D01*
X0248600Y0027208D01*
X0248865Y0027109D01*
X0249127Y0027005D01*
X0249386Y0026893D01*
X0249643Y0026776D01*
X0249897Y0026652D01*
X0250147Y0026522D01*
X0250394Y0026386D01*
X0250638Y0026244D01*
X0250878Y0026096D01*
X0251115Y0025942D01*
X0251348Y0025782D01*
X0251577Y0025617D01*
X0251801Y0025446D01*
X0252022Y0025270D01*
X0252237Y0025088D01*
X0252449Y0024901D01*
X0252656Y0024709D01*
X0252858Y0024512D01*
X0253055Y0024310D01*
X0253247Y0024103D01*
X0253434Y0023891D01*
X0253616Y0023676D01*
X0253792Y0023455D01*
X0253963Y0023231D01*
X0254128Y0023002D01*
X0254288Y0022769D01*
X0254442Y0022532D01*
X0254590Y0022292D01*
X0254732Y0022048D01*
X0254868Y0021801D01*
X0254998Y0021551D01*
X0255122Y0021297D01*
X0255239Y0021040D01*
X0255351Y0020781D01*
X0255455Y0020519D01*
X0255554Y0020254D01*
X0255646Y0019987D01*
X0255731Y0019718D01*
X0255809Y0019447D01*
X0255881Y0019174D01*
X0255947Y0018900D01*
X0256005Y0018624D01*
X0256057Y0018346D01*
X0256102Y0018067D01*
X0256140Y0017788D01*
X0256171Y0017507D01*
X0256195Y0017226D01*
X0256212Y0016944D01*
X0256223Y0016662D01*
X0256226Y0016380D01*
X0256223Y0016098D01*
X0256212Y0015816D01*
X0256195Y0015534D01*
X0256171Y0015253D01*
X0256140Y0014972D01*
X0256102Y0014693D01*
X0256057Y0014414D01*
X0256005Y0014136D01*
X0255947Y0013860D01*
X0255881Y0013586D01*
X0255809Y0013313D01*
X0255731Y0013042D01*
X0255646Y0012773D01*
X0255554Y0012506D01*
X0255455Y0012241D01*
X0255351Y0011979D01*
X0255239Y0011720D01*
X0255122Y0011463D01*
X0254998Y0011209D01*
X0254868Y0010959D01*
X0254732Y0010712D01*
X0254590Y0010468D01*
X0254442Y0010228D01*
X0254288Y0009991D01*
X0254128Y0009758D01*
X0253963Y0009529D01*
X0253792Y0009305D01*
X0253616Y0009084D01*
X0253434Y0008869D01*
X0253247Y0008657D01*
X0253055Y0008450D01*
X0252858Y0008248D01*
X0252656Y0008051D01*
X0252449Y0007859D01*
X0252237Y0007672D01*
X0252022Y0007490D01*
X0251801Y0007314D01*
X0251577Y0007143D01*
X0251348Y0006978D01*
X0251115Y0006818D01*
X0250878Y0006664D01*
X0250638Y0006516D01*
X0250394Y0006374D01*
X0250147Y0006238D01*
X0249897Y0006108D01*
X0249643Y0005984D01*
X0249386Y0005867D01*
X0249127Y0005755D01*
X0248865Y0005651D01*
X0248600Y0005552D01*
X0248333Y0005460D01*
X0248064Y0005375D01*
X0247793Y0005297D01*
X0247520Y0005225D01*
X0247246Y0005159D01*
X0246970Y0005101D01*
X0246692Y0005049D01*
X0246413Y0005004D01*
X0246134Y0004966D01*
X0245853Y0004935D01*
X0245572Y0004911D01*
X0245290Y0004894D01*
X0245008Y0004883D01*
X0244726Y0004880D01*
X0244444Y0004883D01*
X0244162Y0004894D01*
X0243880Y0004911D01*
X0243599Y0004935D01*
X0243318Y0004966D01*
X0243039Y0005004D01*
X0242760Y0005049D01*
X0242482Y0005101D01*
X0242206Y0005159D01*
X0241932Y0005225D01*
X0241659Y0005297D01*
X0241388Y0005375D01*
X0241119Y0005460D01*
X0240852Y0005552D01*
X0240587Y0005651D01*
X0240325Y0005755D01*
X0240066Y0005867D01*
X0239809Y0005984D01*
X0239555Y0006108D01*
X0239305Y0006238D01*
X0239058Y0006374D01*
X0238814Y0006516D01*
X0238574Y0006664D01*
X0238337Y0006818D01*
X0238104Y0006978D01*
X0237875Y0007143D01*
X0237651Y0007314D01*
X0237430Y0007490D01*
X0237215Y0007672D01*
X0237003Y0007859D01*
X0236796Y0008051D01*
X0236594Y0008248D01*
X0236397Y0008450D01*
X0236205Y0008657D01*
X0236018Y0008869D01*
X0235836Y0009084D01*
X0235660Y0009305D01*
X0235489Y0009529D01*
X0235324Y0009758D01*
X0235164Y0009991D01*
X0235010Y0010228D01*
X0234862Y0010468D01*
X0234720Y0010712D01*
X0234584Y0010959D01*
X0234454Y0011209D01*
X0234330Y0011463D01*
X0234213Y0011720D01*
X0234101Y0011979D01*
X0233997Y0012241D01*
X0233898Y0012506D01*
X0233806Y0012773D01*
X0233721Y0013042D01*
X0233643Y0013313D01*
X0233571Y0013586D01*
X0233505Y0013860D01*
X0233447Y0014136D01*
X0233395Y0014414D01*
X0233350Y0014693D01*
X0233312Y0014972D01*
X0233281Y0015253D01*
X0233257Y0015534D01*
X0233240Y0015816D01*
X0233229Y0016098D01*
X0233226Y0016380D01*
X0233226Y0209293D02*
X0233229Y0209575D01*
X0233240Y0209857D01*
X0233257Y0210139D01*
X0233281Y0210420D01*
X0233312Y0210701D01*
X0233350Y0210980D01*
X0233395Y0211259D01*
X0233447Y0211537D01*
X0233505Y0211813D01*
X0233571Y0212087D01*
X0233643Y0212360D01*
X0233721Y0212631D01*
X0233806Y0212900D01*
X0233898Y0213167D01*
X0233997Y0213432D01*
X0234101Y0213694D01*
X0234213Y0213953D01*
X0234330Y0214210D01*
X0234454Y0214464D01*
X0234584Y0214714D01*
X0234720Y0214961D01*
X0234862Y0215205D01*
X0235010Y0215445D01*
X0235164Y0215682D01*
X0235324Y0215915D01*
X0235489Y0216144D01*
X0235660Y0216368D01*
X0235836Y0216589D01*
X0236018Y0216804D01*
X0236205Y0217016D01*
X0236397Y0217223D01*
X0236594Y0217425D01*
X0236796Y0217622D01*
X0237003Y0217814D01*
X0237215Y0218001D01*
X0237430Y0218183D01*
X0237651Y0218359D01*
X0237875Y0218530D01*
X0238104Y0218695D01*
X0238337Y0218855D01*
X0238574Y0219009D01*
X0238814Y0219157D01*
X0239058Y0219299D01*
X0239305Y0219435D01*
X0239555Y0219565D01*
X0239809Y0219689D01*
X0240066Y0219806D01*
X0240325Y0219918D01*
X0240587Y0220022D01*
X0240852Y0220121D01*
X0241119Y0220213D01*
X0241388Y0220298D01*
X0241659Y0220376D01*
X0241932Y0220448D01*
X0242206Y0220514D01*
X0242482Y0220572D01*
X0242760Y0220624D01*
X0243039Y0220669D01*
X0243318Y0220707D01*
X0243599Y0220738D01*
X0243880Y0220762D01*
X0244162Y0220779D01*
X0244444Y0220790D01*
X0244726Y0220793D01*
X0245008Y0220790D01*
X0245290Y0220779D01*
X0245572Y0220762D01*
X0245853Y0220738D01*
X0246134Y0220707D01*
X0246413Y0220669D01*
X0246692Y0220624D01*
X0246970Y0220572D01*
X0247246Y0220514D01*
X0247520Y0220448D01*
X0247793Y0220376D01*
X0248064Y0220298D01*
X0248333Y0220213D01*
X0248600Y0220121D01*
X0248865Y0220022D01*
X0249127Y0219918D01*
X0249386Y0219806D01*
X0249643Y0219689D01*
X0249897Y0219565D01*
X0250147Y0219435D01*
X0250394Y0219299D01*
X0250638Y0219157D01*
X0250878Y0219009D01*
X0251115Y0218855D01*
X0251348Y0218695D01*
X0251577Y0218530D01*
X0251801Y0218359D01*
X0252022Y0218183D01*
X0252237Y0218001D01*
X0252449Y0217814D01*
X0252656Y0217622D01*
X0252858Y0217425D01*
X0253055Y0217223D01*
X0253247Y0217016D01*
X0253434Y0216804D01*
X0253616Y0216589D01*
X0253792Y0216368D01*
X0253963Y0216144D01*
X0254128Y0215915D01*
X0254288Y0215682D01*
X0254442Y0215445D01*
X0254590Y0215205D01*
X0254732Y0214961D01*
X0254868Y0214714D01*
X0254998Y0214464D01*
X0255122Y0214210D01*
X0255239Y0213953D01*
X0255351Y0213694D01*
X0255455Y0213432D01*
X0255554Y0213167D01*
X0255646Y0212900D01*
X0255731Y0212631D01*
X0255809Y0212360D01*
X0255881Y0212087D01*
X0255947Y0211813D01*
X0256005Y0211537D01*
X0256057Y0211259D01*
X0256102Y0210980D01*
X0256140Y0210701D01*
X0256171Y0210420D01*
X0256195Y0210139D01*
X0256212Y0209857D01*
X0256223Y0209575D01*
X0256226Y0209293D01*
X0256223Y0209011D01*
X0256212Y0208729D01*
X0256195Y0208447D01*
X0256171Y0208166D01*
X0256140Y0207885D01*
X0256102Y0207606D01*
X0256057Y0207327D01*
X0256005Y0207049D01*
X0255947Y0206773D01*
X0255881Y0206499D01*
X0255809Y0206226D01*
X0255731Y0205955D01*
X0255646Y0205686D01*
X0255554Y0205419D01*
X0255455Y0205154D01*
X0255351Y0204892D01*
X0255239Y0204633D01*
X0255122Y0204376D01*
X0254998Y0204122D01*
X0254868Y0203872D01*
X0254732Y0203625D01*
X0254590Y0203381D01*
X0254442Y0203141D01*
X0254288Y0202904D01*
X0254128Y0202671D01*
X0253963Y0202442D01*
X0253792Y0202218D01*
X0253616Y0201997D01*
X0253434Y0201782D01*
X0253247Y0201570D01*
X0253055Y0201363D01*
X0252858Y0201161D01*
X0252656Y0200964D01*
X0252449Y0200772D01*
X0252237Y0200585D01*
X0252022Y0200403D01*
X0251801Y0200227D01*
X0251577Y0200056D01*
X0251348Y0199891D01*
X0251115Y0199731D01*
X0250878Y0199577D01*
X0250638Y0199429D01*
X0250394Y0199287D01*
X0250147Y0199151D01*
X0249897Y0199021D01*
X0249643Y0198897D01*
X0249386Y0198780D01*
X0249127Y0198668D01*
X0248865Y0198564D01*
X0248600Y0198465D01*
X0248333Y0198373D01*
X0248064Y0198288D01*
X0247793Y0198210D01*
X0247520Y0198138D01*
X0247246Y0198072D01*
X0246970Y0198014D01*
X0246692Y0197962D01*
X0246413Y0197917D01*
X0246134Y0197879D01*
X0245853Y0197848D01*
X0245572Y0197824D01*
X0245290Y0197807D01*
X0245008Y0197796D01*
X0244726Y0197793D01*
X0244444Y0197796D01*
X0244162Y0197807D01*
X0243880Y0197824D01*
X0243599Y0197848D01*
X0243318Y0197879D01*
X0243039Y0197917D01*
X0242760Y0197962D01*
X0242482Y0198014D01*
X0242206Y0198072D01*
X0241932Y0198138D01*
X0241659Y0198210D01*
X0241388Y0198288D01*
X0241119Y0198373D01*
X0240852Y0198465D01*
X0240587Y0198564D01*
X0240325Y0198668D01*
X0240066Y0198780D01*
X0239809Y0198897D01*
X0239555Y0199021D01*
X0239305Y0199151D01*
X0239058Y0199287D01*
X0238814Y0199429D01*
X0238574Y0199577D01*
X0238337Y0199731D01*
X0238104Y0199891D01*
X0237875Y0200056D01*
X0237651Y0200227D01*
X0237430Y0200403D01*
X0237215Y0200585D01*
X0237003Y0200772D01*
X0236796Y0200964D01*
X0236594Y0201161D01*
X0236397Y0201363D01*
X0236205Y0201570D01*
X0236018Y0201782D01*
X0235836Y0201997D01*
X0235660Y0202218D01*
X0235489Y0202442D01*
X0235324Y0202671D01*
X0235164Y0202904D01*
X0235010Y0203141D01*
X0234862Y0203381D01*
X0234720Y0203625D01*
X0234584Y0203872D01*
X0234454Y0204122D01*
X0234330Y0204376D01*
X0234213Y0204633D01*
X0234101Y0204892D01*
X0233997Y0205154D01*
X0233898Y0205419D01*
X0233806Y0205686D01*
X0233721Y0205955D01*
X0233643Y0206226D01*
X0233571Y0206499D01*
X0233505Y0206773D01*
X0233447Y0207049D01*
X0233395Y0207327D01*
X0233350Y0207606D01*
X0233312Y0207885D01*
X0233281Y0208166D01*
X0233257Y0208447D01*
X0233240Y0208729D01*
X0233229Y0209011D01*
X0233226Y0209293D01*
D17*
X0179561Y0053797D03*
X0171332Y0047970D03*
X0180939Y0040844D03*
X0179561Y0033797D03*
X0187828Y0047931D03*
D18*
X0187356Y0048167D03*
X0179561Y0053757D03*
X0179561Y0033836D03*
D19*
X0179561Y0033876D03*
X0176017Y0038797D03*
X0179561Y0053718D03*
D20*
X0179561Y0053679D03*
X0179561Y0033915D03*
D21*
X0179561Y0033954D03*
X0176844Y0034939D03*
X0175781Y0035569D03*
X0175742Y0035608D03*
X0175702Y0035647D03*
X0182631Y0035135D03*
X0182828Y0035254D03*
X0176096Y0052222D03*
X0176214Y0052301D03*
X0176293Y0052340D03*
X0179561Y0053639D03*
D22*
X0179561Y0053600D03*
X0176923Y0052616D03*
X0175112Y0036238D03*
X0175151Y0036198D03*
X0179561Y0033994D03*
X0182080Y0034899D03*
X0183655Y0035923D03*
X0183694Y0035962D03*
D23*
X0184128Y0036513D03*
X0184167Y0036553D03*
X0179561Y0034033D03*
X0174757Y0036750D03*
X0179482Y0040293D03*
X0174757Y0050844D03*
X0179561Y0053561D03*
X0184206Y0051002D03*
D24*
X0184482Y0050569D03*
X0184521Y0050529D03*
X0179561Y0053521D03*
X0174482Y0050372D03*
X0174561Y0037143D03*
X0174561Y0037104D03*
X0179561Y0034072D03*
X0184403Y0036946D03*
D25*
X0184561Y0037301D03*
X0179561Y0034112D03*
X0174403Y0037498D03*
X0174285Y0049939D03*
X0179561Y0053482D03*
X0184757Y0050057D03*
D26*
X0184876Y0049742D03*
X0179561Y0053443D03*
X0174167Y0049624D03*
X0174324Y0037773D03*
X0179561Y0034151D03*
X0184679Y0037576D03*
X0184679Y0037616D03*
D27*
X0179561Y0034191D03*
X0174246Y0038088D03*
X0174009Y0049151D03*
X0174009Y0049191D03*
X0179561Y0053403D03*
X0185033Y0049309D03*
X0185033Y0049269D03*
D28*
X0179561Y0053364D03*
X0173931Y0048836D03*
X0174206Y0038324D03*
X0179561Y0034230D03*
X0184836Y0038167D03*
D29*
X0179561Y0034269D03*
X0174206Y0038521D03*
X0173891Y0048521D03*
X0173891Y0048561D03*
X0179561Y0053324D03*
X0185191Y0048639D03*
X0185191Y0048600D03*
D30*
X0185269Y0048285D03*
X0179561Y0053285D03*
X0174206Y0038718D03*
X0179561Y0034309D03*
D31*
X0179561Y0034348D03*
X0184836Y0038757D03*
X0179561Y0053246D03*
D32*
X0179561Y0053206D03*
X0184836Y0038876D03*
X0179561Y0034387D03*
D33*
X0179561Y0034427D03*
X0179561Y0053167D03*
D34*
X0179561Y0053128D03*
X0179561Y0034466D03*
D35*
X0179561Y0034506D03*
X0179561Y0053088D03*
D36*
X0179561Y0053049D03*
X0179561Y0034545D03*
D37*
X0179561Y0034584D03*
X0179561Y0053009D03*
D38*
X0179561Y0052970D03*
X0179561Y0034624D03*
D39*
X0179561Y0034663D03*
X0179561Y0052931D03*
D40*
X0179561Y0052891D03*
X0179561Y0034702D03*
D41*
X0179561Y0034742D03*
X0179561Y0052852D03*
D42*
X0179561Y0052813D03*
X0179561Y0034781D03*
D43*
X0179561Y0034820D03*
X0179561Y0052773D03*
D44*
X0179561Y0052734D03*
X0179561Y0034860D03*
D45*
X0176962Y0034899D03*
X0175387Y0035923D03*
X0175348Y0035962D03*
X0182198Y0034939D03*
X0183261Y0035569D03*
X0183301Y0035608D03*
X0183340Y0035647D03*
X0183340Y0051946D03*
X0183301Y0051986D03*
X0183261Y0052025D03*
X0183183Y0052065D03*
X0183143Y0052104D03*
X0182513Y0052498D03*
X0176687Y0052537D03*
X0175624Y0051828D03*
D46*
X0175840Y0035529D03*
X0175880Y0035490D03*
X0176746Y0034978D03*
D47*
X0175446Y0035883D03*
X0182297Y0034978D03*
X0183163Y0035490D03*
X0183202Y0035529D03*
X0183084Y0052143D03*
X0183045Y0052183D03*
X0182927Y0052261D03*
X0182730Y0052380D03*
X0182572Y0052458D03*
X0176588Y0052498D03*
X0175683Y0051907D03*
X0175643Y0051868D03*
D48*
X0175939Y0035450D03*
X0175978Y0035411D03*
X0176647Y0035017D03*
D49*
X0175506Y0035805D03*
X0175466Y0035844D03*
X0182395Y0035017D03*
X0182946Y0035332D03*
X0183065Y0035411D03*
X0183104Y0035450D03*
X0182986Y0052222D03*
X0182868Y0052301D03*
X0182789Y0052340D03*
X0182671Y0052419D03*
X0175939Y0052104D03*
X0175820Y0052025D03*
X0175781Y0051986D03*
X0175742Y0051946D03*
D50*
X0176037Y0035372D03*
X0176076Y0035332D03*
X0176155Y0035293D03*
X0176273Y0035214D03*
X0176352Y0035175D03*
X0176470Y0035096D03*
X0176549Y0035057D03*
D51*
X0175643Y0035687D03*
X0175604Y0035726D03*
X0175565Y0035765D03*
X0182494Y0035057D03*
X0182572Y0035096D03*
X0182691Y0035175D03*
X0182769Y0035214D03*
X0182887Y0035293D03*
X0183006Y0035372D03*
X0175880Y0052065D03*
X0175998Y0052143D03*
X0176037Y0052183D03*
X0176155Y0052261D03*
X0176352Y0052380D03*
X0176431Y0052419D03*
X0176509Y0052458D03*
D52*
X0176214Y0035254D03*
X0176411Y0035135D03*
D53*
X0175328Y0036002D03*
X0175289Y0036041D03*
X0183399Y0035687D03*
X0183439Y0035726D03*
X0183478Y0035765D03*
X0182415Y0052537D03*
X0176785Y0052576D03*
X0175565Y0051789D03*
X0175525Y0051750D03*
X0175486Y0051710D03*
D54*
X0175427Y0051671D03*
X0182317Y0052576D03*
X0183380Y0051907D03*
X0183419Y0051868D03*
X0183458Y0051828D03*
X0183537Y0035805D03*
D55*
X0183557Y0035844D03*
X0183596Y0035883D03*
X0175250Y0036080D03*
X0175210Y0036120D03*
X0175171Y0036159D03*
X0175328Y0051553D03*
X0175368Y0051592D03*
X0175407Y0051631D03*
X0183517Y0051789D03*
X0183557Y0051750D03*
X0183596Y0051710D03*
D56*
X0183635Y0051671D03*
X0183675Y0051631D03*
X0183714Y0051592D03*
X0183754Y0051553D03*
X0182179Y0052616D03*
X0175289Y0051513D03*
X0175250Y0051474D03*
X0175210Y0051435D03*
X0175092Y0036277D03*
X0183714Y0036002D03*
X0183754Y0036041D03*
D57*
X0183793Y0036080D03*
X0183832Y0036120D03*
X0183872Y0036159D03*
X0179620Y0040687D03*
X0179620Y0040726D03*
X0175013Y0036356D03*
X0183832Y0051474D03*
X0183793Y0051513D03*
D58*
X0183852Y0051435D03*
X0183891Y0051395D03*
X0183931Y0051356D03*
X0175072Y0051277D03*
X0175033Y0051238D03*
X0179600Y0040647D03*
X0179600Y0040608D03*
X0174994Y0036395D03*
X0174954Y0036435D03*
X0183891Y0036198D03*
X0183931Y0036238D03*
D59*
X0183950Y0036277D03*
X0179580Y0040569D03*
X0174935Y0036474D03*
X0174974Y0051159D03*
X0175013Y0051198D03*
X0183950Y0051317D03*
D60*
X0175191Y0051395D03*
X0175151Y0051356D03*
X0175112Y0051317D03*
X0175033Y0036317D03*
D61*
X0174915Y0036513D03*
X0174876Y0036553D03*
X0179561Y0040490D03*
X0179561Y0040529D03*
X0184009Y0036317D03*
X0174915Y0051080D03*
X0174954Y0051120D03*
X0184009Y0051277D03*
D62*
X0184029Y0051238D03*
X0184069Y0051198D03*
X0174895Y0051041D03*
X0179541Y0040450D03*
X0174856Y0036592D03*
X0184029Y0036356D03*
D63*
X0184049Y0036395D03*
X0184088Y0036435D03*
X0179521Y0040411D03*
X0174836Y0036631D03*
X0174797Y0036671D03*
X0174836Y0050962D03*
X0174876Y0051002D03*
X0184088Y0051159D03*
X0184128Y0051120D03*
D64*
X0184147Y0051080D03*
X0184187Y0051041D03*
X0174817Y0050923D03*
X0174777Y0050883D03*
X0179502Y0040372D03*
X0179502Y0040332D03*
X0174777Y0036710D03*
X0184108Y0036474D03*
D65*
X0184187Y0036592D03*
X0179423Y0040175D03*
X0179423Y0040214D03*
X0179462Y0040254D03*
X0174738Y0036789D03*
X0174698Y0050765D03*
X0174738Y0050805D03*
X0184226Y0050962D03*
X0184265Y0050923D03*
D66*
X0184285Y0050883D03*
X0174679Y0050726D03*
X0179403Y0040135D03*
X0179009Y0039742D03*
X0174718Y0036828D03*
X0174679Y0036868D03*
X0184206Y0036631D03*
X0184246Y0036671D03*
D67*
X0184265Y0036710D03*
X0179383Y0040096D03*
X0174659Y0036907D03*
X0174620Y0050647D03*
X0174659Y0050687D03*
X0184305Y0050844D03*
X0184344Y0050805D03*
D68*
X0184364Y0050765D03*
X0174600Y0050608D03*
X0179364Y0040057D03*
X0179088Y0039781D03*
X0174639Y0036946D03*
X0184285Y0036750D03*
D69*
X0184305Y0036789D03*
X0179344Y0040017D03*
X0179305Y0039978D03*
X0174620Y0036986D03*
X0174580Y0050569D03*
X0184383Y0050726D03*
X0184423Y0050687D03*
D70*
X0184443Y0050647D03*
X0174561Y0050529D03*
X0174521Y0050490D03*
X0174521Y0050450D03*
X0179285Y0039939D03*
X0179246Y0039899D03*
X0179206Y0039860D03*
X0179167Y0039820D03*
X0174600Y0037025D03*
X0184324Y0036828D03*
X0184364Y0036868D03*
D71*
X0184383Y0036907D03*
X0174580Y0037065D03*
X0174502Y0050411D03*
X0184462Y0050608D03*
D72*
X0184541Y0050490D03*
X0184541Y0050450D03*
X0174462Y0050332D03*
X0174541Y0037183D03*
X0184423Y0036986D03*
D73*
X0184443Y0037025D03*
X0174521Y0037222D03*
X0174403Y0050254D03*
X0174443Y0050293D03*
X0184561Y0050411D03*
X0184600Y0050372D03*
D74*
X0184620Y0050332D03*
X0174383Y0050214D03*
X0174383Y0050175D03*
X0174502Y0037261D03*
X0184462Y0037065D03*
D75*
X0184482Y0037104D03*
X0184482Y0037143D03*
X0174482Y0037301D03*
X0174364Y0050135D03*
X0184639Y0050293D03*
D76*
X0184659Y0050254D03*
X0174344Y0050096D03*
X0174462Y0037340D03*
X0184502Y0037183D03*
D77*
X0184521Y0037222D03*
X0174443Y0037380D03*
X0174443Y0037419D03*
X0174324Y0050057D03*
X0184679Y0050175D03*
X0184679Y0050214D03*
X0184718Y0050135D03*
D78*
X0184738Y0050096D03*
X0174305Y0050017D03*
X0174305Y0049978D03*
X0174423Y0037458D03*
X0184541Y0037261D03*
D79*
X0184580Y0037340D03*
X0174383Y0037537D03*
X0174265Y0049899D03*
X0184777Y0049978D03*
X0184777Y0050017D03*
D80*
X0184797Y0049939D03*
X0174246Y0049860D03*
X0174246Y0049820D03*
X0174364Y0037616D03*
X0174364Y0037576D03*
X0184600Y0037419D03*
X0184600Y0037380D03*
D81*
X0184620Y0037458D03*
X0174344Y0037655D03*
X0174226Y0049781D03*
X0184817Y0049899D03*
D82*
X0184836Y0049860D03*
X0184836Y0049820D03*
X0174206Y0049742D03*
X0174324Y0037694D03*
X0184639Y0037498D03*
D83*
X0184659Y0037537D03*
X0174305Y0037734D03*
X0174187Y0049663D03*
X0174187Y0049702D03*
X0184856Y0049781D03*
D84*
X0184895Y0049702D03*
X0184895Y0049663D03*
X0174147Y0049584D03*
X0174305Y0037813D03*
X0184698Y0037655D03*
D85*
X0184718Y0037694D03*
X0174285Y0037852D03*
X0174128Y0049506D03*
X0174128Y0049545D03*
X0184915Y0049624D03*
D86*
X0184935Y0049584D03*
X0174108Y0049466D03*
X0174265Y0037931D03*
X0174265Y0037891D03*
X0184738Y0037734D03*
D87*
X0184718Y0037773D03*
X0184954Y0049506D03*
X0184954Y0049545D03*
X0174088Y0049427D03*
X0174088Y0049387D03*
D88*
X0174069Y0049348D03*
X0184974Y0049466D03*
X0184738Y0037813D03*
X0174265Y0037970D03*
D89*
X0174246Y0038009D03*
X0184757Y0037852D03*
X0184994Y0049387D03*
X0184994Y0049427D03*
X0174049Y0049309D03*
X0174049Y0049269D03*
D90*
X0174029Y0049230D03*
X0185013Y0049348D03*
X0184777Y0037931D03*
X0184777Y0037891D03*
X0174226Y0038049D03*
D91*
X0174226Y0038128D03*
X0184777Y0037970D03*
X0185053Y0049230D03*
X0173990Y0049112D03*
X0173990Y0049072D03*
D92*
X0185072Y0049151D03*
X0185072Y0049191D03*
X0184797Y0038009D03*
X0174206Y0038167D03*
D93*
X0174226Y0038206D03*
X0184817Y0038049D03*
X0185092Y0049072D03*
X0185092Y0049112D03*
X0173990Y0049033D03*
D94*
X0173970Y0048994D03*
X0173970Y0048954D03*
X0185112Y0049033D03*
X0184797Y0038088D03*
X0174206Y0038246D03*
D95*
X0174187Y0038285D03*
X0184817Y0038128D03*
X0185131Y0048954D03*
X0185131Y0048994D03*
X0173950Y0048915D03*
X0173950Y0048876D03*
D96*
X0173911Y0048797D03*
X0174187Y0038364D03*
X0184817Y0038206D03*
X0185131Y0048876D03*
X0185131Y0048915D03*
D97*
X0185151Y0048836D03*
X0173931Y0048757D03*
X0184836Y0038246D03*
D98*
X0184856Y0038285D03*
X0174187Y0038403D03*
X0174187Y0038443D03*
X0173911Y0048679D03*
X0173911Y0048718D03*
X0185171Y0048757D03*
X0185171Y0048797D03*
D99*
X0185191Y0048718D03*
X0185191Y0048679D03*
X0184836Y0038324D03*
X0173891Y0048600D03*
X0173891Y0048639D03*
D100*
X0174187Y0038482D03*
X0184856Y0038364D03*
D101*
X0184856Y0038403D03*
X0184856Y0038443D03*
X0185210Y0048521D03*
X0185210Y0048561D03*
X0173872Y0048482D03*
X0174187Y0038561D03*
D102*
X0174187Y0038600D03*
X0174187Y0038639D03*
X0173872Y0048403D03*
X0184856Y0038482D03*
D103*
X0184836Y0038521D03*
X0185230Y0048403D03*
X0185230Y0048443D03*
X0173852Y0048364D03*
D104*
X0174187Y0038679D03*
X0184856Y0038561D03*
X0185250Y0048324D03*
X0185250Y0048364D03*
D105*
X0185250Y0048246D03*
X0184856Y0038639D03*
X0184856Y0038600D03*
D106*
X0184856Y0038679D03*
D107*
X0184836Y0038718D03*
D108*
X0185269Y0048206D03*
X0174206Y0038757D03*
D109*
X0172159Y0038797D03*
D110*
X0173990Y0038797D03*
X0173990Y0038836D03*
X0173990Y0038876D03*
X0173990Y0038915D03*
X0173990Y0038954D03*
X0173990Y0038994D03*
X0173990Y0039033D03*
X0173990Y0039072D03*
X0173990Y0039112D03*
X0173990Y0039151D03*
X0173990Y0039191D03*
X0173990Y0039230D03*
X0173990Y0039269D03*
X0173990Y0039309D03*
X0173990Y0039348D03*
X0173990Y0039387D03*
X0173990Y0039427D03*
X0173990Y0039466D03*
X0173990Y0039506D03*
X0173990Y0039545D03*
X0170328Y0040608D03*
X0170289Y0040687D03*
X0170289Y0040726D03*
X0170250Y0040765D03*
X0169974Y0045726D03*
X0169974Y0045765D03*
X0170013Y0045805D03*
X0170013Y0045844D03*
X0170013Y0045883D03*
X0170053Y0045962D03*
X0173990Y0047576D03*
X0173990Y0047616D03*
X0173990Y0047655D03*
X0173990Y0047694D03*
X0173990Y0047734D03*
X0173990Y0047773D03*
X0173990Y0047813D03*
X0173990Y0047852D03*
X0173990Y0047891D03*
X0173990Y0047931D03*
X0173990Y0047970D03*
X0173990Y0048009D03*
X0173990Y0048049D03*
X0173990Y0048088D03*
X0173990Y0048128D03*
X0173990Y0048167D03*
X0173990Y0048206D03*
X0173990Y0048246D03*
X0173990Y0048285D03*
X0173990Y0048324D03*
X0177218Y0047065D03*
X0177257Y0047025D03*
X0178360Y0043482D03*
X0178360Y0043443D03*
X0178360Y0043403D03*
X0178360Y0043364D03*
X0181549Y0045923D03*
X0181549Y0045962D03*
X0181549Y0046002D03*
X0181549Y0046041D03*
X0189029Y0046159D03*
X0189029Y0046198D03*
X0189069Y0046120D03*
X0189069Y0046080D03*
X0189069Y0046041D03*
X0188911Y0040923D03*
X0188911Y0040883D03*
X0188872Y0040844D03*
D111*
X0184856Y0038797D03*
D112*
X0172041Y0038836D03*
X0171765Y0048246D03*
D113*
X0172002Y0048324D03*
X0176175Y0038836D03*
D114*
X0184836Y0038836D03*
D115*
X0177592Y0039624D03*
X0176687Y0039072D03*
X0171923Y0038876D03*
D116*
X0176273Y0038876D03*
D117*
X0176883Y0039191D03*
X0176923Y0039230D03*
X0177002Y0039269D03*
X0177435Y0039545D03*
X0171844Y0038915D03*
X0171529Y0048128D03*
D118*
X0176372Y0038915D03*
D119*
X0184817Y0038915D03*
D120*
X0177120Y0039348D03*
X0171765Y0038954D03*
X0187631Y0048049D03*
D121*
X0177809Y0039702D03*
X0176470Y0038954D03*
D122*
X0184817Y0038954D03*
D123*
X0187553Y0039151D03*
X0180899Y0040805D03*
X0178380Y0040765D03*
X0171687Y0038994D03*
X0171372Y0048009D03*
X0176214Y0048167D03*
D124*
X0176549Y0038994D03*
D125*
X0184797Y0038994D03*
D126*
X0187769Y0047970D03*
X0173990Y0046671D03*
X0173990Y0046631D03*
X0173990Y0046592D03*
X0173990Y0046553D03*
X0173990Y0046513D03*
X0173990Y0046474D03*
X0173990Y0046435D03*
X0173990Y0046395D03*
X0173990Y0046356D03*
X0173990Y0046317D03*
X0173990Y0046277D03*
X0173990Y0046238D03*
X0173990Y0046198D03*
X0173990Y0046159D03*
X0173990Y0046120D03*
X0173990Y0046080D03*
X0173990Y0046041D03*
X0173990Y0046002D03*
X0173990Y0045962D03*
X0173990Y0045923D03*
X0173990Y0045883D03*
X0173990Y0045844D03*
X0173990Y0045805D03*
X0173990Y0045765D03*
X0173990Y0045726D03*
X0173990Y0045687D03*
X0173990Y0045647D03*
X0173990Y0045608D03*
X0173990Y0045569D03*
X0173990Y0045529D03*
X0173990Y0045490D03*
X0173990Y0045450D03*
X0173990Y0045411D03*
X0173990Y0045372D03*
X0173990Y0045332D03*
X0173990Y0045293D03*
X0173990Y0045254D03*
X0173990Y0045214D03*
X0173990Y0045175D03*
X0173990Y0045135D03*
X0173990Y0045096D03*
X0173990Y0045057D03*
X0173990Y0045017D03*
X0173990Y0044978D03*
X0173990Y0044939D03*
X0173990Y0044899D03*
X0173990Y0044860D03*
X0173990Y0044820D03*
X0173990Y0044781D03*
X0173990Y0044742D03*
X0173990Y0044702D03*
X0173990Y0044663D03*
X0173990Y0044624D03*
X0173990Y0044584D03*
X0173990Y0044545D03*
X0173990Y0044506D03*
X0173990Y0044466D03*
X0173990Y0044427D03*
X0173990Y0044387D03*
X0173990Y0044348D03*
X0173990Y0044309D03*
X0173990Y0044269D03*
X0173990Y0044230D03*
X0173990Y0044191D03*
X0173990Y0044151D03*
X0173990Y0044112D03*
X0173990Y0044072D03*
X0173990Y0044033D03*
X0173990Y0043994D03*
X0173990Y0043954D03*
X0173990Y0043915D03*
X0173990Y0043876D03*
X0173990Y0043836D03*
X0173990Y0043797D03*
X0173990Y0043757D03*
X0173990Y0043718D03*
X0173990Y0043679D03*
X0173990Y0043639D03*
X0173990Y0043600D03*
X0173990Y0043561D03*
X0173990Y0043521D03*
X0173990Y0043482D03*
X0173990Y0043443D03*
X0173990Y0043403D03*
X0173990Y0043364D03*
X0173990Y0043324D03*
X0173990Y0043285D03*
X0173990Y0043246D03*
X0173990Y0043206D03*
X0173990Y0043167D03*
X0173990Y0043128D03*
X0173990Y0043088D03*
X0173990Y0043049D03*
X0173990Y0043009D03*
X0173990Y0042970D03*
X0173990Y0042931D03*
X0173990Y0042891D03*
X0173990Y0042852D03*
X0173990Y0042813D03*
X0173990Y0042773D03*
X0173990Y0042734D03*
X0173990Y0042694D03*
X0173990Y0042655D03*
X0173990Y0042616D03*
X0173990Y0042576D03*
X0173990Y0042537D03*
X0173990Y0042498D03*
X0173990Y0042458D03*
X0173990Y0042419D03*
X0173990Y0042380D03*
X0173990Y0042340D03*
X0173990Y0042301D03*
X0173990Y0042261D03*
X0173990Y0042222D03*
X0173990Y0042183D03*
X0173990Y0042143D03*
X0173990Y0042104D03*
X0173990Y0042065D03*
X0173990Y0042025D03*
X0173990Y0041986D03*
X0173990Y0041946D03*
X0173990Y0041907D03*
X0173990Y0041868D03*
X0173990Y0041828D03*
X0173990Y0041789D03*
X0173990Y0041750D03*
X0173990Y0041710D03*
X0173990Y0041671D03*
X0173990Y0041631D03*
X0173990Y0041592D03*
X0173990Y0041553D03*
X0173990Y0041513D03*
X0173990Y0041474D03*
X0173990Y0041435D03*
X0173990Y0041395D03*
X0173990Y0041356D03*
X0173990Y0041317D03*
X0173990Y0041277D03*
X0173990Y0041238D03*
X0173990Y0041198D03*
X0173990Y0041159D03*
X0173990Y0041120D03*
X0173990Y0041080D03*
X0173990Y0041041D03*
X0173990Y0041002D03*
X0173990Y0040962D03*
X0173990Y0040923D03*
X0173990Y0040883D03*
X0173990Y0040844D03*
X0173990Y0040805D03*
X0173990Y0040765D03*
X0173990Y0040726D03*
X0173990Y0040687D03*
X0171628Y0039033D03*
D127*
X0176608Y0039033D03*
D128*
X0181293Y0039033D03*
X0178025Y0045214D03*
X0177986Y0045332D03*
X0177946Y0045450D03*
X0177907Y0045569D03*
X0177868Y0045687D03*
X0177828Y0045805D03*
X0181687Y0046986D03*
X0181687Y0047025D03*
D129*
X0181529Y0045883D03*
X0181529Y0045844D03*
X0181529Y0045805D03*
X0185112Y0047419D03*
X0185112Y0047458D03*
X0185112Y0047498D03*
X0185112Y0047537D03*
X0185112Y0047576D03*
X0185112Y0047616D03*
X0185112Y0047655D03*
X0185112Y0047694D03*
X0185112Y0047734D03*
X0185112Y0047773D03*
X0185112Y0047813D03*
X0185112Y0047852D03*
X0185112Y0047891D03*
X0185112Y0047931D03*
X0185112Y0047970D03*
X0185112Y0048009D03*
X0185112Y0048049D03*
X0185112Y0048088D03*
X0185112Y0048128D03*
X0185112Y0048167D03*
X0188970Y0046317D03*
X0189009Y0046238D03*
X0188852Y0040805D03*
X0188852Y0040765D03*
X0188813Y0040726D03*
X0188813Y0040687D03*
X0185112Y0039742D03*
X0185112Y0039702D03*
X0185112Y0039663D03*
X0185112Y0039624D03*
X0185112Y0039584D03*
X0185112Y0039545D03*
X0185112Y0039506D03*
X0185112Y0039466D03*
X0185112Y0039427D03*
X0185112Y0039387D03*
X0185112Y0039348D03*
X0185112Y0039309D03*
X0185112Y0039269D03*
X0185112Y0039230D03*
X0185112Y0039191D03*
X0185112Y0039151D03*
X0185112Y0039112D03*
X0185112Y0039072D03*
X0185112Y0039033D03*
X0180860Y0039506D03*
X0178380Y0043206D03*
X0178380Y0043246D03*
X0178380Y0043285D03*
X0178380Y0043324D03*
X0177198Y0047104D03*
X0170072Y0046041D03*
X0170072Y0046002D03*
X0170033Y0045923D03*
X0170309Y0040647D03*
X0170348Y0040569D03*
X0170387Y0040490D03*
D130*
X0177691Y0039663D03*
X0175958Y0048285D03*
X0171667Y0048206D03*
X0187494Y0048128D03*
X0187257Y0039033D03*
D131*
X0187671Y0039230D03*
X0180978Y0040923D03*
X0187868Y0047891D03*
X0173970Y0047025D03*
X0173970Y0040214D03*
X0173970Y0040175D03*
X0171569Y0039072D03*
D132*
X0181096Y0039191D03*
X0181135Y0039151D03*
X0181175Y0039112D03*
X0181214Y0039072D03*
X0181726Y0047183D03*
X0181726Y0047222D03*
D133*
X0177376Y0039506D03*
X0177297Y0039466D03*
X0177257Y0039427D03*
X0177179Y0039387D03*
X0177061Y0039309D03*
X0187376Y0039072D03*
D134*
X0180998Y0040962D03*
X0178320Y0040844D03*
X0173990Y0040135D03*
X0173990Y0040096D03*
X0171509Y0039112D03*
X0173990Y0047065D03*
X0173990Y0047104D03*
X0176352Y0048088D03*
X0171234Y0047891D03*
X0187927Y0047852D03*
D135*
X0176746Y0039112D03*
D136*
X0180860Y0040765D03*
X0187474Y0039112D03*
X0187710Y0048009D03*
D137*
X0181017Y0041041D03*
X0181017Y0041002D03*
X0187710Y0039269D03*
X0173970Y0040057D03*
X0171450Y0039151D03*
X0173970Y0047143D03*
X0171175Y0047852D03*
D138*
X0171608Y0048167D03*
X0176805Y0039151D03*
X0177513Y0039584D03*
D139*
X0178301Y0040923D03*
X0181057Y0041159D03*
X0181057Y0041198D03*
X0181057Y0041238D03*
X0181057Y0041277D03*
X0173970Y0039939D03*
X0171411Y0039191D03*
X0173970Y0047222D03*
X0171135Y0047813D03*
X0171096Y0047773D03*
D140*
X0171273Y0047931D03*
X0173990Y0046986D03*
X0173990Y0046946D03*
X0173990Y0046907D03*
X0173990Y0046868D03*
X0173990Y0046828D03*
X0173990Y0046789D03*
X0173990Y0046750D03*
X0173990Y0046710D03*
X0176273Y0048128D03*
X0180958Y0040883D03*
X0178360Y0040805D03*
X0173990Y0040647D03*
X0173990Y0040608D03*
X0173990Y0040569D03*
X0173990Y0040529D03*
X0173990Y0040490D03*
X0173990Y0040450D03*
X0173990Y0040411D03*
X0173990Y0040372D03*
X0173990Y0040332D03*
X0173990Y0040293D03*
X0173990Y0040254D03*
X0187612Y0039191D03*
D141*
X0187809Y0039348D03*
X0181076Y0041317D03*
X0181076Y0041356D03*
X0181076Y0041395D03*
X0181076Y0041435D03*
X0181076Y0041474D03*
X0181076Y0041513D03*
X0181076Y0041553D03*
X0178320Y0040962D03*
X0173990Y0039899D03*
X0171352Y0039230D03*
X0173990Y0047261D03*
X0176431Y0048009D03*
X0188045Y0047734D03*
D142*
X0181706Y0047143D03*
X0181706Y0047104D03*
X0181706Y0047065D03*
X0181076Y0039230D03*
D143*
X0181116Y0042143D03*
X0181116Y0042183D03*
X0181116Y0042222D03*
X0181116Y0042261D03*
X0181116Y0042301D03*
X0181116Y0042340D03*
X0181116Y0042380D03*
X0181116Y0042419D03*
X0181116Y0042458D03*
X0181116Y0042498D03*
X0178320Y0041041D03*
X0173990Y0039820D03*
X0171313Y0039269D03*
X0170998Y0047655D03*
X0171037Y0047694D03*
X0173990Y0047301D03*
X0176509Y0047970D03*
X0188084Y0047694D03*
X0188124Y0047655D03*
D144*
X0181706Y0046946D03*
X0181706Y0046907D03*
X0177887Y0045647D03*
X0177887Y0045608D03*
X0177927Y0045529D03*
X0177927Y0045490D03*
X0177966Y0045411D03*
X0177966Y0045372D03*
X0178006Y0045293D03*
X0178006Y0045254D03*
X0178045Y0045175D03*
X0178045Y0045135D03*
X0178045Y0045096D03*
X0178045Y0045057D03*
X0178084Y0045017D03*
X0178084Y0044978D03*
X0178084Y0044939D03*
X0178124Y0044860D03*
X0178124Y0044820D03*
X0177848Y0045726D03*
X0177848Y0045765D03*
X0177809Y0045844D03*
X0177809Y0045883D03*
X0177769Y0045923D03*
X0177769Y0045962D03*
X0177730Y0046041D03*
X0177691Y0046159D03*
X0181037Y0039269D03*
D145*
X0180624Y0039702D03*
X0178301Y0041080D03*
X0181135Y0042537D03*
X0181135Y0042576D03*
X0181135Y0042616D03*
X0181135Y0042655D03*
X0181135Y0042694D03*
X0181135Y0042734D03*
X0181135Y0042773D03*
X0185506Y0042773D03*
X0185506Y0042734D03*
X0185506Y0042694D03*
X0185506Y0042655D03*
X0185506Y0042616D03*
X0185506Y0042576D03*
X0185506Y0042537D03*
X0185506Y0042498D03*
X0185506Y0042458D03*
X0185506Y0042419D03*
X0185506Y0042380D03*
X0185506Y0042340D03*
X0185506Y0042301D03*
X0185506Y0042261D03*
X0185506Y0042222D03*
X0185506Y0042183D03*
X0185506Y0042143D03*
X0185506Y0042104D03*
X0185506Y0042065D03*
X0185506Y0042025D03*
X0185506Y0041986D03*
X0185506Y0041946D03*
X0185506Y0041907D03*
X0185506Y0041868D03*
X0185506Y0041828D03*
X0185506Y0041789D03*
X0185506Y0041750D03*
X0185506Y0041710D03*
X0185506Y0041671D03*
X0185506Y0041631D03*
X0185506Y0041592D03*
X0185506Y0041553D03*
X0185506Y0041513D03*
X0185506Y0041474D03*
X0185506Y0041435D03*
X0185506Y0041395D03*
X0185506Y0041356D03*
X0185506Y0041317D03*
X0185506Y0041277D03*
X0185506Y0041238D03*
X0185506Y0041198D03*
X0185506Y0041159D03*
X0185506Y0041120D03*
X0185506Y0041080D03*
X0185506Y0041041D03*
X0185506Y0041002D03*
X0185506Y0040962D03*
X0185506Y0040923D03*
X0185506Y0042813D03*
X0185506Y0042852D03*
X0185506Y0042891D03*
X0185506Y0042931D03*
X0185506Y0042970D03*
X0185506Y0043009D03*
X0185506Y0043049D03*
X0185506Y0043088D03*
X0185506Y0043128D03*
X0185506Y0043167D03*
X0185506Y0043206D03*
X0185506Y0043246D03*
X0185506Y0043285D03*
X0185506Y0043324D03*
X0185506Y0043364D03*
X0185506Y0043403D03*
X0185506Y0043443D03*
X0185506Y0043482D03*
X0185506Y0043521D03*
X0185506Y0043561D03*
X0185506Y0043600D03*
X0185506Y0043639D03*
X0185506Y0043679D03*
X0185506Y0043718D03*
X0185506Y0043757D03*
X0185506Y0043797D03*
X0185506Y0043836D03*
X0185506Y0043876D03*
X0185506Y0043915D03*
X0185506Y0043954D03*
X0185506Y0043994D03*
X0185506Y0044033D03*
X0185506Y0044072D03*
X0185506Y0044112D03*
X0185506Y0044151D03*
X0185506Y0044191D03*
X0185506Y0044230D03*
X0185506Y0044269D03*
X0185506Y0044309D03*
X0185506Y0044348D03*
X0185506Y0044387D03*
X0185506Y0044427D03*
X0185506Y0044466D03*
X0185506Y0044506D03*
X0185506Y0044545D03*
X0185506Y0044584D03*
X0185506Y0044624D03*
X0185506Y0044663D03*
X0185506Y0044702D03*
X0185506Y0044742D03*
X0185506Y0044781D03*
X0185506Y0044820D03*
X0185506Y0044860D03*
X0185506Y0044899D03*
X0185506Y0044939D03*
X0185506Y0044978D03*
X0185506Y0045017D03*
X0185506Y0045057D03*
X0185506Y0045096D03*
X0185506Y0045135D03*
X0185506Y0045175D03*
X0185506Y0045214D03*
X0185506Y0045254D03*
X0185506Y0045293D03*
X0185506Y0045332D03*
X0185506Y0045372D03*
X0185506Y0045411D03*
X0185506Y0045450D03*
X0185506Y0045490D03*
X0185506Y0045529D03*
X0185506Y0045569D03*
X0185506Y0045608D03*
X0185506Y0045647D03*
X0185506Y0045687D03*
X0185506Y0045726D03*
X0185506Y0045765D03*
X0185506Y0045805D03*
X0185506Y0045844D03*
X0185506Y0045883D03*
X0185506Y0045923D03*
X0185506Y0045962D03*
X0185506Y0046002D03*
X0185506Y0046041D03*
X0185506Y0046080D03*
X0185506Y0046120D03*
X0185506Y0046159D03*
X0185506Y0046198D03*
X0185506Y0046238D03*
X0187946Y0039466D03*
X0187907Y0039427D03*
X0176529Y0047931D03*
X0171254Y0039309D03*
D146*
X0178183Y0044545D03*
X0178183Y0044584D03*
X0178183Y0044624D03*
X0178143Y0044663D03*
X0178143Y0044702D03*
X0178143Y0044742D03*
X0178143Y0044781D03*
X0178104Y0044899D03*
X0177750Y0046002D03*
X0177710Y0046080D03*
X0177710Y0046120D03*
X0177671Y0046198D03*
X0177631Y0046277D03*
X0177592Y0046356D03*
X0181687Y0046789D03*
X0181687Y0046828D03*
X0181687Y0046868D03*
X0181017Y0039309D03*
D147*
X0181037Y0041080D03*
X0181037Y0041120D03*
X0178320Y0040883D03*
X0173990Y0040017D03*
X0173990Y0039978D03*
X0173990Y0047183D03*
X0176391Y0048049D03*
X0187966Y0047813D03*
X0188006Y0047773D03*
X0187769Y0039309D03*
D148*
X0185486Y0040411D03*
X0185486Y0040450D03*
X0185486Y0040490D03*
X0185486Y0040529D03*
X0185486Y0040569D03*
X0185486Y0040608D03*
X0185486Y0040647D03*
X0185486Y0040687D03*
X0185486Y0040726D03*
X0185486Y0040765D03*
X0185486Y0040805D03*
X0185486Y0040844D03*
X0185486Y0040883D03*
X0181155Y0042813D03*
X0181155Y0042852D03*
X0181155Y0042891D03*
X0181155Y0042931D03*
X0181155Y0042970D03*
X0181155Y0043009D03*
X0178320Y0041120D03*
X0173990Y0039781D03*
X0171234Y0039348D03*
X0170919Y0047576D03*
X0170958Y0047616D03*
X0173990Y0047340D03*
X0185486Y0046671D03*
X0185486Y0046631D03*
X0185486Y0046592D03*
X0185486Y0046553D03*
X0185486Y0046513D03*
X0185486Y0046474D03*
X0185486Y0046435D03*
X0185486Y0046395D03*
X0185486Y0046356D03*
X0185486Y0046317D03*
X0185486Y0046277D03*
X0188163Y0047616D03*
X0188202Y0047576D03*
D149*
X0189423Y0044348D03*
X0189423Y0044309D03*
X0189423Y0044269D03*
X0189423Y0044230D03*
X0189423Y0044191D03*
X0189423Y0044151D03*
X0189423Y0044112D03*
X0189423Y0044072D03*
X0189423Y0044033D03*
X0189423Y0043994D03*
X0189423Y0043954D03*
X0189423Y0043915D03*
X0189423Y0043876D03*
X0189423Y0043836D03*
X0189423Y0043797D03*
X0189423Y0043757D03*
X0189423Y0043718D03*
X0189423Y0043679D03*
X0189423Y0043639D03*
X0189423Y0043600D03*
X0189423Y0043561D03*
X0189423Y0043521D03*
X0189423Y0043482D03*
X0189423Y0043443D03*
X0189423Y0043403D03*
X0189423Y0043364D03*
X0189423Y0043324D03*
X0189423Y0043285D03*
X0189423Y0043246D03*
X0189423Y0043206D03*
X0189423Y0043167D03*
X0189423Y0043128D03*
X0189423Y0043088D03*
X0189423Y0043049D03*
X0189423Y0043009D03*
X0189423Y0042970D03*
X0189423Y0042931D03*
X0189383Y0042891D03*
X0189383Y0042852D03*
X0189383Y0042813D03*
X0189383Y0042773D03*
X0189383Y0042734D03*
X0189383Y0042694D03*
X0189383Y0042655D03*
X0189383Y0042616D03*
X0189344Y0042537D03*
X0189344Y0042498D03*
X0189344Y0042458D03*
X0189344Y0042419D03*
X0189344Y0042380D03*
X0189305Y0042261D03*
X0189305Y0042222D03*
X0180998Y0039348D03*
X0178242Y0044269D03*
X0178242Y0044309D03*
X0178202Y0044427D03*
X0178202Y0044466D03*
X0178202Y0044506D03*
X0177651Y0046238D03*
X0177612Y0046317D03*
X0177572Y0046395D03*
X0177572Y0046435D03*
X0177533Y0046474D03*
X0181667Y0046671D03*
X0181667Y0046710D03*
X0181667Y0046750D03*
X0169738Y0042891D03*
X0169738Y0042852D03*
X0169738Y0042813D03*
X0169738Y0042773D03*
X0169777Y0042537D03*
X0169777Y0042498D03*
X0169817Y0042261D03*
D150*
X0171175Y0039387D03*
X0178301Y0041159D03*
X0178301Y0041198D03*
X0181175Y0043049D03*
X0181175Y0043088D03*
X0181175Y0043128D03*
X0181175Y0043167D03*
X0181175Y0043206D03*
X0181175Y0043246D03*
X0185466Y0040372D03*
X0185466Y0040332D03*
X0185466Y0040293D03*
X0187986Y0039506D03*
X0185466Y0046710D03*
X0185466Y0046750D03*
X0185466Y0046789D03*
X0185466Y0046828D03*
X0176569Y0047891D03*
X0170899Y0047537D03*
D151*
X0169777Y0044820D03*
X0169777Y0044781D03*
X0169777Y0044742D03*
X0169777Y0044702D03*
X0169738Y0044584D03*
X0169738Y0044545D03*
X0169738Y0044506D03*
X0169738Y0044466D03*
X0169738Y0044427D03*
X0169738Y0044387D03*
X0169738Y0044348D03*
X0169895Y0041868D03*
X0169895Y0041828D03*
X0169935Y0041710D03*
X0169935Y0041671D03*
X0169974Y0041592D03*
X0169974Y0041553D03*
X0169974Y0041513D03*
X0170013Y0041435D03*
X0170013Y0041395D03*
X0177454Y0046631D03*
X0177454Y0046671D03*
X0177415Y0046710D03*
X0178281Y0044072D03*
X0178281Y0044033D03*
X0178281Y0043994D03*
X0181628Y0046435D03*
X0181628Y0046474D03*
X0181628Y0046513D03*
X0180958Y0039387D03*
X0189147Y0041553D03*
X0189147Y0041592D03*
X0189147Y0041631D03*
X0189187Y0041671D03*
X0189187Y0041710D03*
X0189187Y0041750D03*
X0189226Y0041828D03*
X0189226Y0041868D03*
X0189344Y0044899D03*
X0189344Y0044939D03*
X0189344Y0044978D03*
X0189344Y0045017D03*
X0189305Y0045096D03*
X0189305Y0045135D03*
X0189305Y0045175D03*
X0189305Y0045214D03*
X0189265Y0045332D03*
X0189265Y0045372D03*
D152*
X0187868Y0039387D03*
X0181096Y0041592D03*
X0181096Y0041631D03*
X0181096Y0041671D03*
X0181096Y0041710D03*
X0181096Y0041750D03*
X0181096Y0041789D03*
X0181096Y0041828D03*
X0181096Y0041868D03*
X0181096Y0041907D03*
X0181096Y0041946D03*
X0181096Y0041986D03*
X0181096Y0042025D03*
X0181096Y0042065D03*
X0181096Y0042104D03*
X0178301Y0041002D03*
X0173970Y0039860D03*
X0171057Y0047734D03*
D153*
X0170820Y0047458D03*
X0171096Y0039466D03*
X0171135Y0039427D03*
X0178340Y0041317D03*
X0181214Y0043482D03*
X0181214Y0043521D03*
X0181214Y0043561D03*
X0181214Y0043600D03*
X0181214Y0043639D03*
X0185427Y0046986D03*
X0185427Y0047025D03*
X0188301Y0047458D03*
X0185427Y0040175D03*
X0185427Y0040135D03*
X0188065Y0039584D03*
D154*
X0188990Y0041120D03*
X0189029Y0041198D03*
X0189029Y0041238D03*
X0189069Y0041317D03*
X0189226Y0045529D03*
X0189187Y0045647D03*
X0189187Y0045687D03*
X0189187Y0045726D03*
X0189147Y0045805D03*
X0189147Y0045844D03*
X0181588Y0046198D03*
X0181588Y0046238D03*
X0181588Y0046277D03*
X0178320Y0043797D03*
X0178320Y0043757D03*
X0178320Y0043718D03*
X0178320Y0043679D03*
X0177336Y0046868D03*
X0177297Y0046946D03*
X0169935Y0045569D03*
X0169895Y0045450D03*
X0169895Y0045411D03*
X0169895Y0045372D03*
X0169856Y0045293D03*
X0169856Y0045254D03*
X0169856Y0045214D03*
X0170092Y0041198D03*
X0170092Y0041159D03*
X0170131Y0041080D03*
X0170131Y0041041D03*
X0170171Y0041002D03*
X0170171Y0040962D03*
X0180919Y0039427D03*
D155*
X0180899Y0039466D03*
X0178340Y0043521D03*
X0178340Y0043561D03*
X0178340Y0043600D03*
X0178340Y0043639D03*
X0177317Y0046907D03*
X0177277Y0046986D03*
X0181569Y0046159D03*
X0181569Y0046120D03*
X0181569Y0046080D03*
X0189088Y0046002D03*
X0189088Y0045962D03*
X0189128Y0045923D03*
X0189128Y0045883D03*
X0189167Y0045765D03*
X0189009Y0041159D03*
X0188970Y0041080D03*
X0188970Y0041041D03*
X0188931Y0041002D03*
X0188931Y0040962D03*
X0170230Y0040844D03*
X0170230Y0040805D03*
X0170191Y0040883D03*
X0170191Y0040923D03*
X0169915Y0045490D03*
X0169915Y0045529D03*
X0169954Y0045608D03*
X0169954Y0045647D03*
X0169954Y0045687D03*
D156*
X0170761Y0047380D03*
X0170801Y0047419D03*
X0173990Y0047419D03*
X0176667Y0047813D03*
X0181234Y0043797D03*
X0181234Y0043757D03*
X0181234Y0043718D03*
X0181234Y0043679D03*
X0178320Y0041356D03*
X0173990Y0039702D03*
X0171076Y0039506D03*
X0185407Y0040057D03*
X0185407Y0040096D03*
X0188084Y0039624D03*
X0185407Y0047065D03*
D157*
X0185368Y0047183D03*
X0181273Y0044151D03*
X0181273Y0044112D03*
X0181273Y0044072D03*
X0181273Y0044033D03*
X0178360Y0041592D03*
X0178360Y0041553D03*
X0178360Y0041513D03*
X0180683Y0039663D03*
X0185368Y0039978D03*
X0188163Y0039702D03*
X0188202Y0039742D03*
X0188399Y0047340D03*
X0176746Y0047734D03*
X0173990Y0047458D03*
X0170722Y0047301D03*
X0170683Y0047261D03*
X0170998Y0039584D03*
X0171037Y0039545D03*
X0173990Y0039663D03*
D158*
X0170506Y0040293D03*
X0170466Y0040332D03*
X0170466Y0040372D03*
X0170427Y0040411D03*
X0170151Y0046238D03*
X0170151Y0046277D03*
X0170191Y0046317D03*
X0170191Y0046356D03*
X0177080Y0047261D03*
X0177120Y0047222D03*
X0178419Y0042970D03*
X0178419Y0042931D03*
X0178419Y0042891D03*
X0178419Y0042852D03*
X0178419Y0042813D03*
X0180820Y0039545D03*
X0185151Y0039781D03*
X0188694Y0040450D03*
X0188694Y0040490D03*
X0188734Y0040529D03*
X0188931Y0046435D03*
X0188891Y0046513D03*
X0188852Y0046592D03*
X0181490Y0045647D03*
X0181490Y0045608D03*
X0181490Y0045569D03*
D159*
X0181194Y0043443D03*
X0181194Y0043403D03*
X0181194Y0043364D03*
X0181194Y0043324D03*
X0181194Y0043285D03*
X0178320Y0041277D03*
X0178320Y0041238D03*
X0173990Y0039742D03*
X0173990Y0047380D03*
X0176628Y0047852D03*
X0170840Y0047498D03*
X0185446Y0046946D03*
X0185446Y0046907D03*
X0185446Y0046868D03*
X0188242Y0047537D03*
X0188281Y0047498D03*
X0185446Y0040254D03*
X0185446Y0040214D03*
X0188006Y0039545D03*
D160*
X0188635Y0040372D03*
X0188675Y0040411D03*
X0188872Y0046553D03*
X0188832Y0046631D03*
X0181470Y0045529D03*
X0181470Y0045490D03*
X0181470Y0045450D03*
X0177061Y0047301D03*
X0170250Y0046474D03*
X0170210Y0046435D03*
X0170210Y0046395D03*
X0170525Y0040254D03*
X0170565Y0040175D03*
X0173990Y0039584D03*
D161*
X0170702Y0039978D03*
X0170663Y0040017D03*
X0170348Y0046710D03*
X0170387Y0046750D03*
X0170387Y0046789D03*
X0176923Y0047498D03*
X0176962Y0047458D03*
X0181411Y0045135D03*
X0181411Y0045096D03*
X0181411Y0045057D03*
X0178419Y0042458D03*
X0178419Y0042419D03*
X0178419Y0042380D03*
X0178419Y0042340D03*
X0178419Y0042301D03*
X0178419Y0042261D03*
X0180781Y0039584D03*
X0185230Y0039820D03*
X0188498Y0040135D03*
X0188734Y0046828D03*
X0188694Y0046907D03*
D162*
X0188458Y0047261D03*
X0188419Y0047301D03*
X0185348Y0047222D03*
X0181293Y0044309D03*
X0181293Y0044269D03*
X0181293Y0044230D03*
X0181293Y0044191D03*
X0178380Y0041710D03*
X0178380Y0041671D03*
X0178380Y0041631D03*
X0176765Y0047694D03*
X0170663Y0047222D03*
X0170624Y0047183D03*
X0170978Y0039624D03*
X0185348Y0039939D03*
X0188222Y0039781D03*
D163*
X0188320Y0039899D03*
X0188360Y0039939D03*
X0188596Y0047065D03*
X0188557Y0047104D03*
X0185289Y0047301D03*
X0181352Y0044742D03*
X0181352Y0044702D03*
X0181352Y0044663D03*
X0181352Y0044624D03*
X0178399Y0042025D03*
X0178399Y0041986D03*
X0178399Y0041946D03*
X0178399Y0041907D03*
X0180722Y0039624D03*
X0173990Y0039624D03*
X0170840Y0039781D03*
X0170801Y0039820D03*
X0170486Y0046946D03*
X0170525Y0047025D03*
X0173990Y0047498D03*
X0176864Y0047576D03*
D164*
X0181313Y0044427D03*
X0181313Y0044387D03*
X0181313Y0044348D03*
X0178399Y0041750D03*
X0185328Y0047261D03*
X0188478Y0047222D03*
X0188517Y0047183D03*
X0188281Y0039820D03*
X0170919Y0039663D03*
X0170604Y0047143D03*
D165*
X0170742Y0047340D03*
X0176687Y0047773D03*
X0181254Y0043994D03*
X0181254Y0043954D03*
X0181254Y0043915D03*
X0181254Y0043876D03*
X0181254Y0043836D03*
X0178340Y0041474D03*
X0178340Y0041435D03*
X0178340Y0041395D03*
X0185387Y0040017D03*
X0188143Y0039663D03*
X0188380Y0047380D03*
X0188340Y0047419D03*
X0185387Y0047143D03*
X0185387Y0047104D03*
D166*
X0188537Y0047143D03*
X0188301Y0039860D03*
X0185309Y0039899D03*
X0181332Y0044466D03*
X0181332Y0044506D03*
X0181332Y0044545D03*
X0181332Y0044584D03*
X0178380Y0041868D03*
X0178380Y0041828D03*
X0178380Y0041789D03*
X0176844Y0047616D03*
X0176805Y0047655D03*
X0170584Y0047104D03*
X0170545Y0047065D03*
X0170860Y0039742D03*
X0170899Y0039702D03*
D167*
X0170781Y0039860D03*
X0170466Y0046907D03*
X0170506Y0046986D03*
X0176883Y0047537D03*
X0181372Y0044860D03*
X0181372Y0044820D03*
X0181372Y0044781D03*
X0178419Y0042143D03*
X0178419Y0042104D03*
X0178419Y0042065D03*
X0185269Y0039860D03*
X0188380Y0039978D03*
X0188419Y0040017D03*
X0188616Y0047025D03*
D168*
X0188635Y0046986D03*
X0188675Y0046946D03*
X0185250Y0047340D03*
X0181391Y0045017D03*
X0181391Y0044978D03*
X0181391Y0044939D03*
X0181391Y0044899D03*
X0178399Y0042222D03*
X0178399Y0042183D03*
X0170761Y0039899D03*
X0170722Y0039939D03*
X0170407Y0046828D03*
X0170446Y0046868D03*
X0188439Y0040057D03*
X0188478Y0040096D03*
D169*
X0188517Y0040175D03*
X0188557Y0040214D03*
X0188754Y0046789D03*
X0188714Y0046868D03*
X0181431Y0045254D03*
X0181431Y0045214D03*
X0181431Y0045175D03*
X0178439Y0042498D03*
X0176982Y0047419D03*
X0173990Y0047537D03*
X0170328Y0046671D03*
X0170328Y0046631D03*
X0170604Y0040096D03*
X0170643Y0040057D03*
D170*
X0170584Y0040135D03*
X0170545Y0040214D03*
X0170269Y0046513D03*
X0170269Y0046553D03*
X0170309Y0046592D03*
X0177002Y0047380D03*
X0177041Y0047340D03*
X0178419Y0042773D03*
X0178419Y0042734D03*
X0178419Y0042694D03*
X0178419Y0042655D03*
X0178419Y0042616D03*
X0178419Y0042576D03*
X0178419Y0042537D03*
X0181450Y0045293D03*
X0181450Y0045332D03*
X0181450Y0045372D03*
X0181450Y0045411D03*
X0185191Y0047380D03*
X0188773Y0046750D03*
X0188813Y0046710D03*
X0188813Y0046671D03*
X0188616Y0040332D03*
X0188576Y0040293D03*
X0188576Y0040254D03*
D171*
X0188754Y0040569D03*
X0188754Y0040608D03*
X0188793Y0040647D03*
X0188990Y0046277D03*
X0188950Y0046356D03*
X0188950Y0046395D03*
X0188911Y0046474D03*
X0181509Y0045765D03*
X0181509Y0045726D03*
X0181509Y0045687D03*
X0178399Y0043167D03*
X0178399Y0043128D03*
X0178399Y0043088D03*
X0178399Y0043049D03*
X0178399Y0043009D03*
X0177179Y0047143D03*
X0177139Y0047183D03*
X0170131Y0046198D03*
X0170131Y0046159D03*
X0170092Y0046120D03*
X0170092Y0046080D03*
X0170368Y0040529D03*
X0170407Y0040450D03*
D172*
X0170112Y0041120D03*
X0170072Y0041238D03*
X0170072Y0041277D03*
X0170033Y0041317D03*
X0170033Y0041356D03*
X0169994Y0041474D03*
X0169757Y0044624D03*
X0169757Y0044663D03*
X0169797Y0044860D03*
X0169797Y0044899D03*
X0169797Y0044939D03*
X0169797Y0044978D03*
X0169797Y0045017D03*
X0169836Y0045057D03*
X0169836Y0045096D03*
X0169836Y0045135D03*
X0169836Y0045175D03*
X0169876Y0045332D03*
X0177356Y0046828D03*
X0177395Y0046789D03*
X0177395Y0046750D03*
X0178301Y0043954D03*
X0178301Y0043915D03*
X0178301Y0043876D03*
X0178301Y0043836D03*
X0181608Y0046317D03*
X0181608Y0046356D03*
X0181608Y0046395D03*
X0189206Y0045608D03*
X0189206Y0045569D03*
X0189246Y0045490D03*
X0189246Y0045450D03*
X0189246Y0045411D03*
X0189285Y0045293D03*
X0189285Y0045254D03*
X0189128Y0041513D03*
X0189128Y0041474D03*
X0189088Y0041435D03*
X0189088Y0041395D03*
X0189088Y0041356D03*
X0189049Y0041277D03*
D173*
X0189206Y0041789D03*
X0189246Y0041907D03*
X0189246Y0041946D03*
X0189246Y0041986D03*
X0189246Y0042025D03*
X0189285Y0042065D03*
X0189285Y0042104D03*
X0189285Y0042143D03*
X0189285Y0042183D03*
X0189324Y0042301D03*
X0189324Y0042340D03*
X0189364Y0042576D03*
X0189403Y0044387D03*
X0189403Y0044427D03*
X0189403Y0044466D03*
X0189403Y0044506D03*
X0189403Y0044545D03*
X0189403Y0044584D03*
X0189403Y0044624D03*
X0189403Y0044663D03*
X0189364Y0044702D03*
X0189364Y0044742D03*
X0189364Y0044781D03*
X0189364Y0044820D03*
X0189364Y0044860D03*
X0189324Y0045057D03*
X0181647Y0046553D03*
X0181647Y0046592D03*
X0181647Y0046631D03*
X0178222Y0044387D03*
X0178222Y0044348D03*
X0178261Y0044230D03*
X0178261Y0044191D03*
X0178261Y0044151D03*
X0178261Y0044112D03*
X0177513Y0046513D03*
X0177513Y0046553D03*
X0177474Y0046592D03*
X0169757Y0042734D03*
X0169757Y0042694D03*
X0169757Y0042655D03*
X0169757Y0042616D03*
X0169757Y0042576D03*
X0169797Y0042458D03*
X0169797Y0042419D03*
X0169797Y0042380D03*
X0169797Y0042340D03*
X0169797Y0042301D03*
X0169836Y0042222D03*
X0169836Y0042183D03*
X0169836Y0042143D03*
X0169836Y0042104D03*
X0169836Y0042065D03*
X0169876Y0042025D03*
X0169876Y0041986D03*
X0169876Y0041946D03*
X0169876Y0041907D03*
X0169915Y0041789D03*
X0169915Y0041750D03*
X0169954Y0041631D03*
X0169718Y0042931D03*
X0169718Y0042970D03*
X0169718Y0043009D03*
X0169718Y0043049D03*
X0169718Y0043088D03*
X0169718Y0043128D03*
X0169718Y0043167D03*
X0169718Y0043206D03*
X0169718Y0043246D03*
X0169718Y0043285D03*
X0169718Y0043324D03*
X0169718Y0043364D03*
X0169718Y0043403D03*
X0169718Y0043443D03*
X0169718Y0043482D03*
X0169718Y0043521D03*
X0169718Y0043561D03*
X0169718Y0043600D03*
X0169718Y0043639D03*
X0169718Y0043679D03*
X0169718Y0043718D03*
X0169718Y0043757D03*
X0169718Y0043797D03*
X0169718Y0043836D03*
X0169718Y0043876D03*
X0169718Y0043915D03*
X0169718Y0043954D03*
X0169718Y0043994D03*
X0169718Y0044033D03*
X0169718Y0044072D03*
X0169718Y0044112D03*
X0169718Y0044151D03*
X0169718Y0044191D03*
X0169718Y0044230D03*
X0169718Y0044269D03*
X0169718Y0044309D03*
D174*
X0181706Y0047261D03*
D175*
X0171431Y0048049D03*
D176*
X0171470Y0048088D03*
X0176155Y0048206D03*
D177*
X0176076Y0048246D03*
X0187572Y0048088D03*
D178*
X0171864Y0048285D03*
D179*
X0175840Y0048324D03*
D180*
X0173852Y0048443D03*
X0185230Y0048482D03*
D181*
X0179561Y0052655D03*
D182*
X0179561Y0052694D03*
D183*
X0120769Y0172994D02*
X0079431Y0172994D01*
X0079307Y0172996D01*
X0079184Y0173002D01*
X0079060Y0173011D01*
X0078938Y0173025D01*
X0078815Y0173042D01*
X0078693Y0173064D01*
X0078572Y0173089D01*
X0078452Y0173118D01*
X0078333Y0173150D01*
X0078214Y0173187D01*
X0078097Y0173227D01*
X0077982Y0173270D01*
X0077867Y0173318D01*
X0077755Y0173369D01*
X0077644Y0173423D01*
X0077534Y0173481D01*
X0077427Y0173542D01*
X0077321Y0173607D01*
X0077218Y0173675D01*
X0077117Y0173746D01*
X0077018Y0173820D01*
X0076921Y0173897D01*
X0076827Y0173978D01*
X0076736Y0174061D01*
X0076647Y0174147D01*
X0076561Y0174236D01*
X0076478Y0174327D01*
X0076397Y0174421D01*
X0076320Y0174518D01*
X0076246Y0174617D01*
X0076175Y0174718D01*
X0076107Y0174821D01*
X0076042Y0174927D01*
X0075981Y0175034D01*
X0075923Y0175144D01*
X0075869Y0175255D01*
X0075818Y0175367D01*
X0075770Y0175482D01*
X0075727Y0175597D01*
X0075687Y0175714D01*
X0075650Y0175833D01*
X0075618Y0175952D01*
X0075589Y0176072D01*
X0075564Y0176193D01*
X0075542Y0176315D01*
X0075525Y0176438D01*
X0075511Y0176560D01*
X0075502Y0176684D01*
X0075496Y0176807D01*
X0075494Y0176931D01*
X0075494Y0182836D01*
X0075494Y0212364D02*
X0075494Y0218269D01*
X0075496Y0218393D01*
X0075502Y0218516D01*
X0075511Y0218640D01*
X0075525Y0218762D01*
X0075542Y0218885D01*
X0075564Y0219007D01*
X0075589Y0219128D01*
X0075618Y0219248D01*
X0075650Y0219367D01*
X0075687Y0219486D01*
X0075727Y0219603D01*
X0075770Y0219718D01*
X0075818Y0219833D01*
X0075869Y0219945D01*
X0075923Y0220056D01*
X0075981Y0220166D01*
X0076042Y0220273D01*
X0076107Y0220379D01*
X0076175Y0220482D01*
X0076246Y0220583D01*
X0076320Y0220682D01*
X0076397Y0220779D01*
X0076478Y0220873D01*
X0076561Y0220964D01*
X0076647Y0221053D01*
X0076736Y0221139D01*
X0076827Y0221222D01*
X0076921Y0221303D01*
X0077018Y0221380D01*
X0077117Y0221454D01*
X0077218Y0221525D01*
X0077321Y0221593D01*
X0077427Y0221658D01*
X0077534Y0221719D01*
X0077644Y0221777D01*
X0077755Y0221831D01*
X0077867Y0221882D01*
X0077982Y0221930D01*
X0078097Y0221973D01*
X0078214Y0222013D01*
X0078333Y0222050D01*
X0078452Y0222082D01*
X0078572Y0222111D01*
X0078693Y0222136D01*
X0078815Y0222158D01*
X0078938Y0222175D01*
X0079060Y0222189D01*
X0079184Y0222198D01*
X0079307Y0222204D01*
X0079431Y0222206D01*
X0120769Y0222206D01*
X0120893Y0222204D01*
X0121016Y0222198D01*
X0121140Y0222189D01*
X0121262Y0222175D01*
X0121385Y0222158D01*
X0121507Y0222136D01*
X0121628Y0222111D01*
X0121748Y0222082D01*
X0121867Y0222050D01*
X0121986Y0222013D01*
X0122103Y0221973D01*
X0122218Y0221930D01*
X0122333Y0221882D01*
X0122445Y0221831D01*
X0122556Y0221777D01*
X0122666Y0221719D01*
X0122773Y0221658D01*
X0122879Y0221593D01*
X0122982Y0221525D01*
X0123083Y0221454D01*
X0123182Y0221380D01*
X0123279Y0221303D01*
X0123373Y0221222D01*
X0123464Y0221139D01*
X0123553Y0221053D01*
X0123639Y0220964D01*
X0123722Y0220873D01*
X0123803Y0220779D01*
X0123880Y0220682D01*
X0123954Y0220583D01*
X0124025Y0220482D01*
X0124093Y0220379D01*
X0124158Y0220273D01*
X0124219Y0220166D01*
X0124277Y0220056D01*
X0124331Y0219945D01*
X0124382Y0219833D01*
X0124430Y0219718D01*
X0124473Y0219603D01*
X0124513Y0219486D01*
X0124550Y0219367D01*
X0124582Y0219248D01*
X0124611Y0219128D01*
X0124636Y0219007D01*
X0124658Y0218885D01*
X0124675Y0218762D01*
X0124689Y0218640D01*
X0124698Y0218516D01*
X0124704Y0218393D01*
X0124706Y0218269D01*
X0124706Y0212364D01*
X0124706Y0182836D02*
X0124706Y0176931D01*
X0124704Y0176807D01*
X0124698Y0176684D01*
X0124689Y0176560D01*
X0124675Y0176438D01*
X0124658Y0176315D01*
X0124636Y0176193D01*
X0124611Y0176072D01*
X0124582Y0175952D01*
X0124550Y0175833D01*
X0124513Y0175714D01*
X0124473Y0175597D01*
X0124430Y0175482D01*
X0124382Y0175367D01*
X0124331Y0175255D01*
X0124277Y0175144D01*
X0124219Y0175034D01*
X0124158Y0174927D01*
X0124093Y0174821D01*
X0124025Y0174718D01*
X0123954Y0174617D01*
X0123880Y0174518D01*
X0123803Y0174421D01*
X0123722Y0174327D01*
X0123639Y0174236D01*
X0123553Y0174147D01*
X0123464Y0174061D01*
X0123373Y0173978D01*
X0123279Y0173897D01*
X0123182Y0173820D01*
X0123083Y0173746D01*
X0122982Y0173675D01*
X0122879Y0173607D01*
X0122773Y0173542D01*
X0122666Y0173481D01*
X0122556Y0173423D01*
X0122445Y0173369D01*
X0122333Y0173318D01*
X0122218Y0173270D01*
X0122103Y0173227D01*
X0121986Y0173187D01*
X0121867Y0173150D01*
X0121748Y0173118D01*
X0121628Y0173089D01*
X0121507Y0173064D01*
X0121385Y0173042D01*
X0121262Y0173025D01*
X0121140Y0173011D01*
X0121016Y0173002D01*
X0120893Y0172996D01*
X0120769Y0172994D01*
D184*
X0085785Y0224200D02*
X0084684Y0224200D01*
X0084133Y0224750D01*
X0085234Y0225851D02*
X0085785Y0225851D01*
X0086335Y0225301D01*
X0086335Y0224750D01*
X0085785Y0224200D01*
X0085785Y0225851D02*
X0086335Y0226402D01*
X0086335Y0226952D01*
X0085785Y0227503D01*
X0084684Y0227503D01*
X0084133Y0226952D01*
X0082652Y0224200D02*
X0080450Y0224200D01*
X0080450Y0227503D01*
M02*
