G75*
%MOIN*%
%OFA0B0*%
%FSLAX25Y25*%
%IPPOS*%
%LPD*%
%AMOC8*
5,1,8,0,0,1.08239X$1,22.5*
%
%ADD10C,0.00004*%
%ADD11C,0.00600*%
%ADD12C,0.00400*%
%ADD13C,0.00500*%
D10*
X0003842Y0003667D02*
X0004027Y0003504D01*
X0004223Y0003352D01*
X0004428Y0003213D01*
X0004640Y0003087D01*
X0004861Y0002975D01*
X0005088Y0002877D01*
X0005320Y0002793D01*
X0005558Y0002724D01*
X0005799Y0002670D01*
X0006044Y0002631D01*
X0006290Y0002608D01*
X0006537Y0002600D01*
X0080693Y0002600D01*
X0080691Y0026222D01*
X0080696Y0026428D01*
X0080750Y0026906D01*
X0080863Y0027373D01*
X0081031Y0027823D01*
X0081253Y0028250D01*
X0081525Y0028646D01*
X0081844Y0029006D01*
X0082204Y0029324D01*
X0082600Y0029597D01*
X0083026Y0029819D01*
X0083477Y0029987D01*
X0083944Y0030099D01*
X0084422Y0030154D01*
X0228978Y0030159D01*
X0229389Y0030137D01*
X0229863Y0030058D01*
X0230324Y0029922D01*
X0230765Y0029730D01*
X0231180Y0029486D01*
X0231561Y0029193D01*
X0231904Y0028856D01*
X0232203Y0028480D01*
X0232454Y0028070D01*
X0232654Y0027633D01*
X0232798Y0027174D01*
X0232885Y0026702D01*
X0232915Y0026222D01*
X0232915Y0002600D01*
X0254569Y0002600D01*
X0254816Y0002608D01*
X0255062Y0002631D01*
X0255306Y0002670D01*
X0255548Y0002724D01*
X0255785Y0002793D01*
X0256018Y0002877D01*
X0256245Y0002975D01*
X0256465Y0003087D01*
X0256678Y0003213D01*
X0256883Y0003352D01*
X0257078Y0003504D01*
X0257263Y0003667D01*
X0257439Y0003842D01*
X0257602Y0004027D01*
X0257754Y0004223D01*
X0257893Y0004428D01*
X0258019Y0004640D01*
X0258131Y0004861D01*
X0258229Y0005088D01*
X0258313Y0005320D01*
X0258382Y0005558D01*
X0258436Y0005799D01*
X0258474Y0006044D01*
X0258498Y0006290D01*
X0258506Y0006537D01*
X0258506Y0219135D01*
X0258498Y0219383D01*
X0258474Y0219629D01*
X0258436Y0219873D01*
X0258382Y0220115D01*
X0258313Y0220352D01*
X0258229Y0220585D01*
X0258131Y0220812D01*
X0258019Y0221032D01*
X0257893Y0221245D01*
X0257754Y0221450D01*
X0257602Y0221645D01*
X0257439Y0221830D01*
X0257263Y0222006D01*
X0257078Y0222169D01*
X0256883Y0222320D01*
X0256678Y0222459D01*
X0256465Y0222585D01*
X0256245Y0222698D01*
X0256018Y0222796D01*
X0255785Y0222880D01*
X0255548Y0222949D01*
X0255306Y0223003D01*
X0255062Y0223041D01*
X0254816Y0223065D01*
X0254569Y0223072D01*
X0006537Y0223072D01*
X0006290Y0223065D01*
X0006044Y0223041D01*
X0005799Y0223003D01*
X0005558Y0222949D01*
X0005320Y0222880D01*
X0005088Y0222796D01*
X0004861Y0222698D01*
X0004640Y0222585D01*
X0004428Y0222459D01*
X0004223Y0222320D01*
X0004027Y0222169D01*
X0003842Y0222006D01*
X0003667Y0221830D01*
X0003504Y0221645D01*
X0003352Y0221450D01*
X0003213Y0221245D01*
X0003087Y0221032D01*
X0002975Y0220812D01*
X0002877Y0220585D01*
X0002793Y0220352D01*
X0002724Y0220115D01*
X0002670Y0219873D01*
X0002631Y0219629D01*
X0002608Y0219383D01*
X0002600Y0219135D01*
X0002600Y0006537D01*
X0002608Y0006290D01*
X0002631Y0006044D01*
X0002670Y0005799D01*
X0002724Y0005558D01*
X0002793Y0005320D01*
X0002877Y0005088D01*
X0002975Y0004861D01*
X0003087Y0004640D01*
X0003213Y0004428D01*
X0003352Y0004223D01*
X0003504Y0004027D01*
X0003667Y0003842D01*
X0003842Y0003667D01*
X0086336Y0101696D02*
X0085993Y0102033D01*
X0085694Y0102409D01*
X0085443Y0102819D01*
X0085243Y0103256D01*
X0085099Y0103715D01*
X0085011Y0104187D01*
X0084982Y0104667D01*
X0084984Y0114450D01*
X0085030Y0114928D01*
X0085135Y0115398D01*
X0085295Y0115851D01*
X0085509Y0116281D01*
X0085775Y0116682D01*
X0086087Y0117048D01*
X0086441Y0117372D01*
X0086833Y0117651D01*
X0087255Y0117881D01*
X0087702Y0118057D01*
X0088168Y0118177D01*
X0088644Y0118240D01*
X0090100Y0118250D01*
X0090306Y0118244D01*
X0090784Y0118190D01*
X0091251Y0118078D01*
X0091701Y0117909D01*
X0092128Y0117687D01*
X0092524Y0117415D01*
X0092884Y0117096D01*
X0093202Y0116736D01*
X0093475Y0116340D01*
X0093696Y0115914D01*
X0093865Y0115464D01*
X0093977Y0114996D01*
X0094031Y0114519D01*
X0094035Y0104530D01*
X0093989Y0104051D01*
X0093885Y0103582D01*
X0093724Y0103129D01*
X0093509Y0102698D01*
X0093244Y0102298D01*
X0092932Y0101932D01*
X0092578Y0101607D01*
X0092186Y0101328D01*
X0091764Y0101099D01*
X0091317Y0100923D01*
X0090851Y0100802D01*
X0090375Y0100740D01*
X0088919Y0100730D01*
X0088507Y0100752D01*
X0088033Y0100831D01*
X0087572Y0100967D01*
X0087131Y0101159D01*
X0086717Y0101403D01*
X0086336Y0101696D01*
X0104194Y0106264D02*
X0104083Y0106725D01*
X0103981Y0107188D01*
X0103887Y0107653D01*
X0103800Y0108119D01*
X0103722Y0108587D01*
X0103652Y0109056D01*
X0103590Y0109526D01*
X0103536Y0109996D01*
X0103491Y0110469D01*
X0103454Y0110941D01*
X0103425Y0111415D01*
X0103404Y0111888D01*
X0103391Y0112362D01*
X0103387Y0112836D01*
X0103391Y0113310D01*
X0103404Y0113784D01*
X0103425Y0114258D01*
X0103454Y0114731D01*
X0103491Y0115204D01*
X0103536Y0115676D01*
X0103590Y0116147D01*
X0103652Y0116617D01*
X0103722Y0117086D01*
X0103800Y0117554D01*
X0103887Y0118020D01*
X0103981Y0118484D01*
X0104083Y0118947D01*
X0104194Y0119408D01*
X0104313Y0119867D01*
X0104440Y0120324D01*
X0104570Y0120765D01*
X0104569Y0134883D01*
X0104574Y0135089D01*
X0104628Y0135567D01*
X0104741Y0136034D01*
X0104909Y0136485D01*
X0105131Y0136911D01*
X0105403Y0137307D01*
X0105722Y0137667D01*
X0106082Y0137986D01*
X0106478Y0138258D01*
X0106904Y0138480D01*
X0107133Y0138565D01*
X0107128Y0161065D01*
X0107133Y0161270D01*
X0107187Y0161748D01*
X0107300Y0162216D01*
X0107468Y0162666D01*
X0107690Y0163092D01*
X0107962Y0163488D01*
X0108281Y0163848D01*
X0108641Y0164167D01*
X0109037Y0164439D01*
X0109463Y0164661D01*
X0109913Y0164830D01*
X0110381Y0164942D01*
X0110859Y0164996D01*
X0139805Y0165002D01*
X0140216Y0164980D01*
X0140690Y0164901D01*
X0141151Y0164764D01*
X0141592Y0164572D01*
X0142006Y0164328D01*
X0142387Y0164036D01*
X0142730Y0163699D01*
X0143030Y0163323D01*
X0143281Y0162913D01*
X0143480Y0162476D01*
X0143625Y0162017D01*
X0143712Y0161544D01*
X0143742Y0161065D01*
X0143742Y0138819D01*
X0152600Y0138820D01*
X0153011Y0138799D01*
X0153485Y0138720D01*
X0153946Y0138583D01*
X0154387Y0138391D01*
X0154802Y0138147D01*
X0155183Y0137855D01*
X0155526Y0137518D01*
X0155825Y0137142D01*
X0156076Y0136732D01*
X0156276Y0136294D01*
X0156420Y0135836D01*
X0156507Y0135363D01*
X0156537Y0134883D01*
X0156537Y0120759D01*
X0156666Y0120324D01*
X0156793Y0119867D01*
X0156911Y0119408D01*
X0157022Y0118947D01*
X0157124Y0118484D01*
X0157219Y0118020D01*
X0157306Y0117554D01*
X0157383Y0117086D01*
X0157454Y0116617D01*
X0157516Y0116147D01*
X0157569Y0115676D01*
X0157615Y0115204D01*
X0157652Y0114731D01*
X0157681Y0114258D01*
X0157702Y0113784D01*
X0157714Y0113310D01*
X0157718Y0112836D01*
X0157714Y0112362D01*
X0157702Y0111888D01*
X0157681Y0111415D01*
X0157652Y0110941D01*
X0157615Y0110469D01*
X0157569Y0109996D01*
X0157516Y0109526D01*
X0157454Y0109056D01*
X0157383Y0108587D01*
X0157306Y0108119D01*
X0157219Y0107653D01*
X0157124Y0107188D01*
X0157022Y0106725D01*
X0156911Y0106264D01*
X0156793Y0105805D01*
X0156666Y0105348D01*
X0156537Y0104914D01*
X0156537Y0090789D01*
X0156531Y0090583D01*
X0156477Y0090106D01*
X0156365Y0089638D01*
X0156196Y0089188D01*
X0155975Y0088761D01*
X0155702Y0088365D01*
X0155384Y0088005D01*
X0155024Y0087687D01*
X0154628Y0087414D01*
X0154201Y0087193D01*
X0153751Y0087024D01*
X0153283Y0086912D01*
X0152806Y0086857D01*
X0138488Y0086856D01*
X0138427Y0086837D01*
X0138427Y0073466D01*
X0138421Y0073260D01*
X0138367Y0072783D01*
X0138255Y0072315D01*
X0138086Y0071865D01*
X0137865Y0071439D01*
X0137592Y0071043D01*
X0137274Y0070682D01*
X0136913Y0070364D01*
X0136517Y0070091D01*
X0136091Y0069870D01*
X0135641Y0069701D01*
X0135173Y0069589D01*
X0134696Y0069535D01*
X0126616Y0069529D01*
X0126410Y0069535D01*
X0125932Y0069589D01*
X0125465Y0069701D01*
X0125015Y0069870D01*
X0124588Y0070091D01*
X0124192Y0070364D01*
X0123832Y0070682D01*
X0123513Y0071043D01*
X0123241Y0071439D01*
X0123019Y0071865D01*
X0122851Y0072315D01*
X0122739Y0072783D01*
X0122684Y0073260D01*
X0122683Y0086836D01*
X0122624Y0086854D01*
X0108506Y0086852D01*
X0108300Y0086857D01*
X0107822Y0086912D01*
X0107355Y0087024D01*
X0106904Y0087193D01*
X0106478Y0087414D01*
X0106082Y0087687D01*
X0105722Y0088005D01*
X0105403Y0088365D01*
X0105131Y0088761D01*
X0104909Y0089188D01*
X0104741Y0089638D01*
X0104628Y0090106D01*
X0104574Y0090583D01*
X0104572Y0104901D01*
X0104440Y0105348D01*
X0104313Y0105805D01*
X0104194Y0106264D01*
X0091251Y0150902D02*
X0090784Y0150790D01*
X0090306Y0150735D01*
X0090100Y0150730D01*
X0088644Y0150739D01*
X0088168Y0150802D01*
X0087702Y0150923D01*
X0087255Y0151099D01*
X0086833Y0151328D01*
X0086441Y0151607D01*
X0086087Y0151932D01*
X0085775Y0152298D01*
X0085509Y0152698D01*
X0085295Y0153129D01*
X0085135Y0153582D01*
X0085030Y0154051D01*
X0084984Y0154530D01*
X0084982Y0164313D01*
X0085011Y0164792D01*
X0085099Y0165265D01*
X0085243Y0165723D01*
X0085443Y0166161D01*
X0085694Y0166570D01*
X0085993Y0166947D01*
X0086336Y0167284D01*
X0086717Y0167576D01*
X0087131Y0167820D01*
X0087572Y0168012D01*
X0088033Y0168148D01*
X0088507Y0168228D01*
X0088919Y0168250D01*
X0090375Y0168240D01*
X0090851Y0168177D01*
X0091317Y0168057D01*
X0091764Y0167881D01*
X0092186Y0167651D01*
X0092578Y0167372D01*
X0092932Y0167047D01*
X0093244Y0166682D01*
X0093509Y0166281D01*
X0093724Y0165851D01*
X0093885Y0165398D01*
X0093989Y0164928D01*
X0094035Y0164450D01*
X0094031Y0154461D01*
X0093977Y0153983D01*
X0093865Y0153516D01*
X0093696Y0153066D01*
X0093475Y0152639D01*
X0093202Y0152243D01*
X0092884Y0151883D01*
X0092524Y0151565D01*
X0092128Y0151292D01*
X0091701Y0151070D01*
X0091251Y0150902D01*
X0154180Y0149638D02*
X0154175Y0153781D01*
X0154180Y0153987D01*
X0154235Y0154465D01*
X0154347Y0154932D01*
X0154515Y0155382D01*
X0154737Y0155809D01*
X0155009Y0156205D01*
X0155328Y0156565D01*
X0155688Y0156883D01*
X0156084Y0157156D01*
X0156511Y0157378D01*
X0156961Y0157546D01*
X0157428Y0157658D01*
X0157906Y0157713D01*
X0162049Y0157718D01*
X0162460Y0157696D01*
X0162934Y0157617D01*
X0163395Y0157481D01*
X0163836Y0157289D01*
X0164250Y0157045D01*
X0164632Y0156752D01*
X0164974Y0156415D01*
X0165274Y0156039D01*
X0165525Y0155630D01*
X0165724Y0155192D01*
X0165869Y0154733D01*
X0165956Y0154261D01*
X0165986Y0153781D01*
X0165986Y0149844D01*
X0165980Y0149638D01*
X0165926Y0149160D01*
X0165814Y0148693D01*
X0165645Y0148243D01*
X0165424Y0147817D01*
X0165151Y0147420D01*
X0164833Y0147060D01*
X0164472Y0146742D01*
X0164076Y0146469D01*
X0163650Y0146248D01*
X0163200Y0146079D01*
X0162732Y0145967D01*
X0162255Y0145913D01*
X0158112Y0145907D01*
X0157906Y0145913D01*
X0157428Y0145967D01*
X0156961Y0146079D01*
X0156511Y0146248D01*
X0156084Y0146469D01*
X0155688Y0146742D01*
X0155328Y0147060D01*
X0155009Y0147420D01*
X0154737Y0147817D01*
X0154515Y0148243D01*
X0154347Y0148693D01*
X0154235Y0149160D01*
X0154180Y0149638D01*
X0167128Y0153983D02*
X0167074Y0154461D01*
X0167071Y0164450D01*
X0167117Y0164928D01*
X0167221Y0165398D01*
X0167381Y0165851D01*
X0167596Y0166281D01*
X0167861Y0166682D01*
X0168174Y0167047D01*
X0168528Y0167372D01*
X0168919Y0167651D01*
X0169342Y0167881D01*
X0169789Y0168057D01*
X0170254Y0168177D01*
X0170731Y0168240D01*
X0172187Y0168250D01*
X0172598Y0168228D01*
X0173072Y0168148D01*
X0173533Y0168012D01*
X0173974Y0167820D01*
X0174388Y0167576D01*
X0174769Y0167284D01*
X0175112Y0166947D01*
X0175411Y0166570D01*
X0175663Y0166161D01*
X0175862Y0165723D01*
X0176007Y0165265D01*
X0176094Y0164792D01*
X0176124Y0164313D01*
X0176121Y0154530D01*
X0176075Y0154051D01*
X0175971Y0153582D01*
X0175811Y0153129D01*
X0175596Y0152698D01*
X0175331Y0152298D01*
X0175019Y0151932D01*
X0174664Y0151607D01*
X0174273Y0151328D01*
X0173850Y0151099D01*
X0173403Y0150923D01*
X0172938Y0150802D01*
X0172461Y0150739D01*
X0171006Y0150730D01*
X0170800Y0150735D01*
X0170322Y0150790D01*
X0169854Y0150902D01*
X0169404Y0151070D01*
X0168978Y0151292D01*
X0168581Y0151565D01*
X0168222Y0151883D01*
X0167903Y0152243D01*
X0167631Y0152639D01*
X0167409Y0153066D01*
X0167241Y0153516D01*
X0167128Y0153983D01*
X0170800Y0118244D02*
X0171006Y0118250D01*
X0172461Y0118240D01*
X0172938Y0118177D01*
X0173403Y0118057D01*
X0173850Y0117881D01*
X0174273Y0117651D01*
X0174664Y0117372D01*
X0175019Y0117048D01*
X0175331Y0116682D01*
X0175596Y0116281D01*
X0175811Y0115851D01*
X0175971Y0115398D01*
X0176075Y0114928D01*
X0176121Y0114450D01*
X0176124Y0104667D01*
X0176094Y0104187D01*
X0176007Y0103715D01*
X0175862Y0103256D01*
X0175663Y0102819D01*
X0175411Y0102409D01*
X0175112Y0102033D01*
X0174769Y0101696D01*
X0174388Y0101403D01*
X0173974Y0101159D01*
X0173533Y0100967D01*
X0173072Y0100831D01*
X0172598Y0100752D01*
X0172187Y0100730D01*
X0170731Y0100740D01*
X0170254Y0100802D01*
X0169789Y0100923D01*
X0169342Y0101099D01*
X0168919Y0101328D01*
X0168528Y0101607D01*
X0168174Y0101932D01*
X0167861Y0102298D01*
X0167596Y0102698D01*
X0167381Y0103129D01*
X0167221Y0103582D01*
X0167117Y0104051D01*
X0167071Y0104530D01*
X0167074Y0114519D01*
X0167128Y0114996D01*
X0167241Y0115464D01*
X0167409Y0115914D01*
X0167631Y0116340D01*
X0167903Y0116736D01*
X0168222Y0117096D01*
X0168581Y0117415D01*
X0168978Y0117687D01*
X0169404Y0117909D01*
X0169854Y0118078D01*
X0170322Y0118190D01*
X0170800Y0118244D01*
D11*
X0078053Y0026380D02*
X0073053Y0026380D01*
X0070553Y0023880D01*
X0070553Y0008880D01*
X0068053Y0006380D01*
X0063053Y0006380D01*
X0060553Y0008880D01*
X0060553Y0023880D01*
X0058053Y0026380D01*
X0053053Y0026380D01*
X0050553Y0023880D01*
X0050553Y0008880D01*
X0048053Y0006380D01*
X0043053Y0006380D01*
X0040553Y0008880D01*
X0038053Y0006380D01*
X0033053Y0006380D01*
X0030553Y0008880D01*
X0030553Y0023880D01*
X0033053Y0026380D01*
X0038053Y0026380D01*
X0040553Y0023880D01*
X0040553Y0008880D01*
X0050553Y0008880D02*
X0053053Y0006380D01*
X0058053Y0006380D01*
X0060553Y0008880D01*
X0070553Y0008880D02*
X0073053Y0006380D01*
X0078053Y0006380D01*
X0080553Y0008880D01*
X0080553Y0023880D01*
X0078053Y0026380D01*
X0070553Y0023880D02*
X0068053Y0026380D01*
X0063053Y0026380D01*
X0060553Y0023880D01*
X0050553Y0023880D02*
X0048053Y0026380D01*
X0043053Y0026380D01*
X0040553Y0023880D01*
D12*
X0065884Y0023780D02*
X0068286Y0023780D01*
X0067085Y0023780D02*
X0067085Y0027383D01*
X0068286Y0026182D01*
X0069568Y0026782D02*
X0069568Y0025581D01*
X0070168Y0024981D01*
X0071970Y0024981D01*
X0071970Y0023780D02*
X0071970Y0027383D01*
X0070168Y0027383D01*
X0069568Y0026782D01*
X0073251Y0027383D02*
X0074452Y0027383D01*
X0073851Y0027383D02*
X0073851Y0024380D01*
X0074452Y0023780D01*
X0075052Y0023780D01*
X0075653Y0024380D01*
X0195132Y0062800D02*
X0197534Y0062800D01*
X0195132Y0065202D01*
X0195132Y0065803D01*
X0195732Y0066403D01*
X0196933Y0066403D01*
X0197534Y0065803D01*
X0198815Y0065803D02*
X0198815Y0064602D01*
X0199415Y0064001D01*
X0201217Y0064001D01*
X0201217Y0062800D02*
X0201217Y0066403D01*
X0199415Y0066403D01*
X0198815Y0065803D01*
X0202498Y0066403D02*
X0203699Y0066403D01*
X0203098Y0066403D02*
X0203098Y0063401D01*
X0203699Y0062800D01*
X0204299Y0062800D01*
X0204900Y0063401D01*
X0104903Y0192952D02*
X0104903Y0194153D01*
X0104903Y0193552D02*
X0101901Y0193552D01*
X0101300Y0192952D01*
X0101300Y0192351D01*
X0101901Y0191751D01*
X0102501Y0195434D02*
X0102501Y0197235D01*
X0103102Y0197836D01*
X0104303Y0197836D01*
X0104903Y0197235D01*
X0104903Y0195434D01*
X0101300Y0195434D01*
X0101901Y0199117D02*
X0101300Y0199717D01*
X0101300Y0200918D01*
X0101901Y0201519D01*
X0102501Y0201519D01*
X0103102Y0200918D01*
X0103102Y0200318D01*
X0103102Y0200918D02*
X0103702Y0201519D01*
X0104303Y0201519D01*
X0104903Y0200918D01*
X0104903Y0199717D01*
X0104303Y0199117D01*
D13*
X0115100Y0185100D02*
X0135100Y0185100D01*
X0135100Y0215100D01*
X0115100Y0215100D01*
X0115100Y0185100D01*
X0185100Y0095100D02*
X0185100Y0075100D01*
X0215100Y0075100D01*
X0215100Y0095100D01*
X0185100Y0095100D01*
M02*
