%
M48
M72
T01C0.01200
T02C0.01575
T03C0.01969
T04C0.02362
T05C0.03543
T06C0.03622
T07C0.04000
T08C0.04331
T09C0.04724
T10C0.06299
T11C0.06693
T12C0.09055
T13C0.11024
T14C0.12598
%
T01
X14500Y6500
X7500Y15500
X7000Y26500
X16500Y26000
X5500Y34000
X11000Y40000
X24500Y41500
X31000Y53000
X44500Y44500
X54500Y39500
X62000Y34000
X69727Y33500
X73073Y33500
X81527Y33500
X84873Y33500
X93327Y33500
X96673Y33500
X101000Y38000
X104800Y33300
X108800Y33300
X112700Y33300
X116700Y33300
X125000Y30500
X138500Y21500
X147000Y21500
X155500Y12000
X166000Y15000
X171500Y11000
X177000Y15500
X183000Y11000
X189000Y15000
X195000Y11000
X201500Y15500
X206500Y13000
X211000Y18000
X215500Y18500
X228500Y16500
X235500Y10500
X243500Y6000
X240500Y17000
X228500Y6000
X219500Y7500
X216200Y44800
X212200Y44800
X208300Y44800
X204300Y44800
X197500Y47000
X195500Y53000
X191500Y53000
X202000Y52500
X220000Y51000
X222000Y68500
X226000Y71500
X231500Y71000
X237500Y79000
X241000Y79000
X244500Y79000
X248000Y79000
X251500Y79000
X255000Y79000
X230000Y107500
X212500Y105500
X207500Y93000
X215500Y87500
X219000Y93000
X211500Y80000
X207500Y70500
X199000Y74000
X200000Y85000
X184500Y79500
X176000Y84500
X172850Y75000
X169512Y75012
X166000Y76500
X162000Y74500
X150000Y79000
X145500Y75000
X144500Y85000
X148500Y85500
X136000Y85000
X120555Y74445
X118445Y76555
X125000Y71000
X117173Y67500
X113827Y67500
X110173Y67500
X106827Y67500
X94500Y52000
X87000Y52500
X94500Y46000
X70500Y73500
X70400Y84500
X67600Y84500
X54500Y81000
X54000Y72000
X42500Y72000
X38909Y67500
X34500Y70000
X29461Y76500
X33500Y81500
X42500Y81500
X21193Y85500
X12000Y88500
X5600Y82000
X17000Y73500
X5600Y67500
X13500Y63000
X11000Y57500
X44500Y32500
X49000Y24500
X59500Y26500
X66000Y15500
X69000Y11000
X77500Y15500
X83000Y11000
X89500Y15000
X95500Y11000
X102500Y15500
X106500Y11000
X111000Y17000
X116000Y17000
X120000Y7500
X129500Y12000
X158500Y32000
X177000Y71500
X165500Y84500
X162500Y100500
X152000Y100000
X151000Y110000
X137000Y108000
X129000Y103500
X114500Y105500
X103500Y102000
X93000Y102500
X73500Y119000
X70500Y117500
X75000Y122000
X73433Y127540
X69000Y124500
X61490Y116990
X59510Y115010
X55500Y115500
X47500Y114000
X39000Y121000
X33500Y127500
X27000Y130000
X30500Y134500
X26000Y138500
X22000Y143500
X24500Y146000
X28000Y151000
X24500Y153000
X21000Y151500
X30500Y154000
X23000Y161000
X30500Y163000
X27500Y169000
X18000Y171000
X13000Y175500
X10500Y167500
X25000Y184000
X37500Y170000
X40500Y167000
X47500Y170000
X50500Y166500
X55500Y166500
X58900Y165000
X62350Y170000
X73500Y159500
X77500Y162500
X87000Y165500
X78500Y170500
X85000Y176000
X80000Y177000
X84500Y183000
X90000Y184600
X90000Y187400
X100000Y190000
X102000Y201000
X96500Y208000
X88500Y213500
X81000Y210500
X72000Y210000
X64500Y218000
X43500Y215000
X41000Y219000
X18000Y218500
X9000Y213500
X5500Y203500
X14500Y203000
X15000Y199000
X55500Y197000
X55500Y194000
X55500Y191000
X74000Y186000
X88500Y201000
X104000Y214500
X114000Y206500
X119500Y202000
X124500Y203000
X125000Y187500
X114500Y186500
X122500Y176000
X122500Y165000
X116000Y158000
X108000Y166500
X99500Y158000
X97000Y148000
X94500Y142500
X108000Y144000
X127500Y146500
X140000Y143000
X153500Y156500
X165000Y158500
X173000Y167500
X185000Y175500
X195500Y180500
X206500Y175500
X209500Y189000
X200000Y194000
X185000Y193500
X182000Y185500
X162500Y201000
X154500Y205000
X145000Y202500
X140500Y191500
X154500Y191500
X137000Y177000
X138000Y165500
X152500Y171000
X176500Y152000
X172000Y141000
X160500Y147000
X179500Y128000
X177000Y120000
X169000Y120500
X162000Y120500
X166500Y109500
X177500Y110500
X178000Y101000
X186000Y118000
X200500Y118500
X214500Y119500
X229500Y122500
X217500Y141000
X230000Y144500
X227500Y159000
X229500Y176000
X244000Y179500
X238000Y190000
X228000Y202000
X222000Y190000
X241000Y205500
X244000Y218500
X227000Y214500
X216000Y218500
X214500Y208000
X195500Y205500
X196000Y218500
X176000Y208000
X174000Y218000
X160500Y212500
X159500Y218000
X154000Y213000
X97500Y176000
X73500Y150500
X73483Y146990
X73483Y139000
X100000Y126000
X65900Y101000
X63100Y101000
X43000Y104000
X11000Y109500
X56000Y46500
X52500Y15000
X44000Y6500
X139500Y120000
X260500Y170000
X259500Y188000
X267000Y196000
X280000Y201000
X271500Y216000
X281000Y32000
X266000Y29500
X280000Y15000
X271500Y7000
T02
X46500Y181000
X64500Y206000
X27000Y122000
X27000Y117000
T03
X27000Y175000
T04
X41000Y155500
X48000Y155500
X48000Y148500
X41000Y148500
X41000Y141500
X48000Y141500
X48000Y134500
X41000Y134500
X55000Y134500
X62000Y134500
X62000Y141500
X55000Y141500
X55000Y148500
X62000Y148500
X62000Y155500
X55000Y155500
X86000Y218000
T05
X182520Y154000
X192520Y154000
X202520Y154000
X212520Y154000
X207520Y144000
X197520Y144000
X187520Y144000
X177520Y144000
T06
X144780Y170870
X134937Y170870
X127063Y170870
X117220Y170870
T07
X145500Y125000
X145500Y115000
X145500Y105000
X128000Y110000
X118000Y110000
X108000Y110000
X108000Y120000
X118000Y120000
X128000Y120000
X49500Y47000
X49500Y37000
X39500Y37000
X29500Y37000
X29500Y47000
X39500Y47000
X19500Y47000
X19500Y37000
X18000Y180500
X8000Y180500
X228000Y50000
X238000Y50000
X238000Y40000
X238000Y30000
X228000Y30000
X228000Y40000
T08
X221102Y198291
X211102Y198291
X178898Y198291
X168898Y198291
X11941Y75500
T09
X254315Y45000
X274000Y45000
X275185Y177500
X255500Y177500
T10
X274933Y75500
T11
X225512Y166992
X164488Y166992
T12
X156866Y181500
X105134Y181500
T13
X29453Y207799
X257012Y207799
X257012Y15673
X29453Y15673
T14
X172500Y179000
X217500Y179000
M30
