G75*
%MOIN*%
%OFA0B0*%
%FSLAX25Y25*%
%IPPOS*%
%LPD*%
%AMOC8*
5,1,8,0,0,1.08239X$1,22.5*
%
%ADD10C,0.00000*%
%ADD11C,0.00600*%
%ADD12C,0.00800*%
%ADD13C,0.00400*%
%ADD14C,0.00500*%
%ADD15C,0.00200*%
D10*
X0015673Y0001500D02*
X0270791Y0001500D01*
X0271133Y0001504D01*
X0271476Y0001517D01*
X0271818Y0001537D01*
X0272159Y0001566D01*
X0272499Y0001603D01*
X0272839Y0001649D01*
X0273177Y0001702D01*
X0273514Y0001764D01*
X0273849Y0001834D01*
X0274183Y0001912D01*
X0274514Y0001998D01*
X0274844Y0002092D01*
X0275171Y0002194D01*
X0275495Y0002303D01*
X0275817Y0002421D01*
X0276136Y0002546D01*
X0276451Y0002679D01*
X0276764Y0002820D01*
X0277072Y0002968D01*
X0277378Y0003123D01*
X0277679Y0003286D01*
X0277976Y0003456D01*
X0278269Y0003633D01*
X0278558Y0003818D01*
X0278842Y0004009D01*
X0279122Y0004207D01*
X0279396Y0004411D01*
X0279666Y0004623D01*
X0279930Y0004840D01*
X0280189Y0005064D01*
X0280443Y0005295D01*
X0280691Y0005531D01*
X0280933Y0005773D01*
X0281169Y0006021D01*
X0281400Y0006275D01*
X0281624Y0006534D01*
X0281841Y0006798D01*
X0282053Y0007068D01*
X0282257Y0007342D01*
X0282455Y0007622D01*
X0282646Y0007906D01*
X0282831Y0008195D01*
X0283008Y0008488D01*
X0283178Y0008785D01*
X0283341Y0009086D01*
X0283496Y0009392D01*
X0283644Y0009700D01*
X0283785Y0010013D01*
X0283918Y0010328D01*
X0284043Y0010647D01*
X0284161Y0010969D01*
X0284270Y0011293D01*
X0284372Y0011620D01*
X0284466Y0011950D01*
X0284552Y0012281D01*
X0284630Y0012615D01*
X0284700Y0012950D01*
X0284762Y0013287D01*
X0284815Y0013625D01*
X0284861Y0013965D01*
X0284898Y0014305D01*
X0284927Y0014646D01*
X0284947Y0014988D01*
X0284960Y0015331D01*
X0284964Y0015673D01*
X0284965Y0015673D02*
X0284965Y0207799D01*
X0284964Y0207799D02*
X0284960Y0208141D01*
X0284947Y0208484D01*
X0284927Y0208826D01*
X0284898Y0209167D01*
X0284861Y0209507D01*
X0284815Y0209847D01*
X0284762Y0210185D01*
X0284700Y0210522D01*
X0284630Y0210857D01*
X0284552Y0211191D01*
X0284466Y0211522D01*
X0284372Y0211852D01*
X0284270Y0212179D01*
X0284161Y0212503D01*
X0284043Y0212825D01*
X0283918Y0213144D01*
X0283785Y0213459D01*
X0283644Y0213772D01*
X0283496Y0214080D01*
X0283341Y0214386D01*
X0283178Y0214687D01*
X0283008Y0214984D01*
X0282831Y0215277D01*
X0282646Y0215566D01*
X0282455Y0215850D01*
X0282257Y0216130D01*
X0282053Y0216404D01*
X0281841Y0216674D01*
X0281624Y0216938D01*
X0281400Y0217197D01*
X0281169Y0217451D01*
X0280933Y0217699D01*
X0280691Y0217941D01*
X0280443Y0218177D01*
X0280189Y0218408D01*
X0279930Y0218632D01*
X0279666Y0218849D01*
X0279396Y0219061D01*
X0279122Y0219265D01*
X0278842Y0219463D01*
X0278558Y0219654D01*
X0278269Y0219839D01*
X0277976Y0220016D01*
X0277679Y0220186D01*
X0277378Y0220349D01*
X0277072Y0220504D01*
X0276764Y0220652D01*
X0276451Y0220793D01*
X0276136Y0220926D01*
X0275817Y0221051D01*
X0275495Y0221169D01*
X0275171Y0221278D01*
X0274844Y0221380D01*
X0274514Y0221474D01*
X0274183Y0221560D01*
X0273849Y0221638D01*
X0273514Y0221708D01*
X0273177Y0221770D01*
X0272839Y0221823D01*
X0272499Y0221869D01*
X0272159Y0221906D01*
X0271818Y0221935D01*
X0271476Y0221955D01*
X0271133Y0221968D01*
X0270791Y0221972D01*
X0015673Y0221972D01*
X0015342Y0221980D01*
X0015012Y0221980D01*
X0014681Y0221972D01*
X0014351Y0221956D01*
X0014021Y0221932D01*
X0013692Y0221901D01*
X0013364Y0221861D01*
X0013037Y0221813D01*
X0012711Y0221758D01*
X0012386Y0221694D01*
X0012063Y0221623D01*
X0011742Y0221544D01*
X0011423Y0221457D01*
X0011107Y0221363D01*
X0010792Y0221261D01*
X0010480Y0221151D01*
X0010171Y0221034D01*
X0009865Y0220909D01*
X0009562Y0220777D01*
X0009262Y0220638D01*
X0008965Y0220492D01*
X0008672Y0220338D01*
X0008383Y0220177D01*
X0008098Y0220010D01*
X0007817Y0219836D01*
X0007541Y0219654D01*
X0007269Y0219467D01*
X0007001Y0219272D01*
X0006738Y0219072D01*
X0006480Y0218865D01*
X0006228Y0218652D01*
X0005980Y0218433D01*
X0005738Y0218207D01*
X0005501Y0217977D01*
X0005270Y0217740D01*
X0005045Y0217498D01*
X0004826Y0217251D01*
X0004612Y0216998D01*
X0004405Y0216740D01*
X0004204Y0216478D01*
X0004010Y0216210D01*
X0003822Y0215938D01*
X0003641Y0215662D01*
X0003466Y0215381D01*
X0003299Y0215096D01*
X0003138Y0214807D01*
X0002984Y0214514D01*
X0002838Y0214218D01*
X0002698Y0213918D01*
X0002566Y0213615D01*
X0002441Y0213309D01*
X0002324Y0213000D01*
X0002214Y0212688D01*
X0002112Y0212373D01*
X0002017Y0212057D01*
X0001930Y0211738D01*
X0001851Y0211417D01*
X0001779Y0211094D01*
X0001716Y0210769D01*
X0001660Y0210443D01*
X0001612Y0210116D01*
X0001572Y0209788D01*
X0001540Y0209459D01*
X0001516Y0209129D01*
X0001500Y0208799D01*
X0001500Y0016673D01*
X0001492Y0016318D01*
X0001492Y0015963D01*
X0001502Y0015609D01*
X0001520Y0015254D01*
X0001546Y0014901D01*
X0001581Y0014548D01*
X0001625Y0014195D01*
X0001677Y0013845D01*
X0001737Y0013495D01*
X0001806Y0013147D01*
X0001884Y0012801D01*
X0001969Y0012456D01*
X0002063Y0012114D01*
X0002165Y0011774D01*
X0002276Y0011437D01*
X0002394Y0011103D01*
X0002521Y0010771D01*
X0002655Y0010443D01*
X0002798Y0010118D01*
X0002948Y0009797D01*
X0003106Y0009479D01*
X0003271Y0009165D01*
X0003445Y0008855D01*
X0003625Y0008550D01*
X0003813Y0008249D01*
X0004008Y0007953D01*
X0004210Y0007661D01*
X0004419Y0007375D01*
X0004635Y0007093D01*
X0004858Y0006817D01*
X0005088Y0006546D01*
X0005323Y0006281D01*
X0005566Y0006022D01*
X0005814Y0005769D01*
X0006068Y0005521D01*
X0006329Y0005280D01*
X0006595Y0005046D01*
X0006867Y0004817D01*
X0007144Y0004596D01*
X0007426Y0004381D01*
X0007714Y0004173D01*
X0008006Y0003972D01*
X0008303Y0003778D01*
X0008605Y0003592D01*
X0008911Y0003413D01*
X0009222Y0003241D01*
X0009536Y0003077D01*
X0009855Y0002920D01*
X0010177Y0002771D01*
X0010502Y0002630D01*
X0010831Y0002497D01*
X0011163Y0002372D01*
X0011498Y0002255D01*
X0011836Y0002146D01*
X0012176Y0002046D01*
X0012518Y0001953D01*
X0012863Y0001869D01*
X0013210Y0001793D01*
X0013558Y0001726D01*
X0013908Y0001667D01*
X0014259Y0001616D01*
X0014611Y0001574D01*
X0014965Y0001541D01*
X0015319Y0001516D01*
X0015673Y0001500D01*
X0009776Y0075500D02*
X0009778Y0075593D01*
X0009784Y0075685D01*
X0009794Y0075777D01*
X0009808Y0075868D01*
X0009825Y0075959D01*
X0009847Y0076049D01*
X0009872Y0076138D01*
X0009901Y0076226D01*
X0009934Y0076312D01*
X0009971Y0076397D01*
X0010011Y0076481D01*
X0010055Y0076562D01*
X0010102Y0076642D01*
X0010152Y0076720D01*
X0010206Y0076795D01*
X0010263Y0076868D01*
X0010323Y0076938D01*
X0010386Y0077006D01*
X0010452Y0077071D01*
X0010520Y0077133D01*
X0010591Y0077193D01*
X0010665Y0077249D01*
X0010741Y0077302D01*
X0010819Y0077351D01*
X0010899Y0077398D01*
X0010981Y0077440D01*
X0011065Y0077480D01*
X0011150Y0077515D01*
X0011237Y0077547D01*
X0011325Y0077576D01*
X0011414Y0077600D01*
X0011504Y0077621D01*
X0011595Y0077637D01*
X0011687Y0077650D01*
X0011779Y0077659D01*
X0011872Y0077664D01*
X0011964Y0077665D01*
X0012057Y0077662D01*
X0012149Y0077655D01*
X0012241Y0077644D01*
X0012332Y0077629D01*
X0012423Y0077611D01*
X0012513Y0077588D01*
X0012601Y0077562D01*
X0012689Y0077532D01*
X0012775Y0077498D01*
X0012859Y0077461D01*
X0012942Y0077419D01*
X0013023Y0077375D01*
X0013103Y0077327D01*
X0013180Y0077276D01*
X0013254Y0077221D01*
X0013327Y0077163D01*
X0013397Y0077103D01*
X0013464Y0077039D01*
X0013528Y0076973D01*
X0013590Y0076903D01*
X0013648Y0076832D01*
X0013703Y0076758D01*
X0013755Y0076681D01*
X0013804Y0076602D01*
X0013850Y0076522D01*
X0013892Y0076439D01*
X0013930Y0076355D01*
X0013965Y0076269D01*
X0013996Y0076182D01*
X0014023Y0076094D01*
X0014046Y0076004D01*
X0014066Y0075914D01*
X0014082Y0075823D01*
X0014094Y0075731D01*
X0014102Y0075639D01*
X0014106Y0075546D01*
X0014106Y0075454D01*
X0014102Y0075361D01*
X0014094Y0075269D01*
X0014082Y0075177D01*
X0014066Y0075086D01*
X0014046Y0074996D01*
X0014023Y0074906D01*
X0013996Y0074818D01*
X0013965Y0074731D01*
X0013930Y0074645D01*
X0013892Y0074561D01*
X0013850Y0074478D01*
X0013804Y0074398D01*
X0013755Y0074319D01*
X0013703Y0074242D01*
X0013648Y0074168D01*
X0013590Y0074097D01*
X0013528Y0074027D01*
X0013464Y0073961D01*
X0013397Y0073897D01*
X0013327Y0073837D01*
X0013254Y0073779D01*
X0013180Y0073724D01*
X0013103Y0073673D01*
X0013024Y0073625D01*
X0012942Y0073581D01*
X0012859Y0073539D01*
X0012775Y0073502D01*
X0012689Y0073468D01*
X0012601Y0073438D01*
X0012513Y0073412D01*
X0012423Y0073389D01*
X0012332Y0073371D01*
X0012241Y0073356D01*
X0012149Y0073345D01*
X0012057Y0073338D01*
X0011964Y0073335D01*
X0011872Y0073336D01*
X0011779Y0073341D01*
X0011687Y0073350D01*
X0011595Y0073363D01*
X0011504Y0073379D01*
X0011414Y0073400D01*
X0011325Y0073424D01*
X0011237Y0073453D01*
X0011150Y0073485D01*
X0011065Y0073520D01*
X0010981Y0073560D01*
X0010899Y0073602D01*
X0010819Y0073649D01*
X0010741Y0073698D01*
X0010665Y0073751D01*
X0010591Y0073807D01*
X0010520Y0073867D01*
X0010452Y0073929D01*
X0010386Y0073994D01*
X0010323Y0074062D01*
X0010263Y0074132D01*
X0010206Y0074205D01*
X0010152Y0074280D01*
X0010102Y0074358D01*
X0010055Y0074438D01*
X0010011Y0074519D01*
X0009971Y0074603D01*
X0009934Y0074688D01*
X0009901Y0074774D01*
X0009872Y0074862D01*
X0009847Y0074951D01*
X0009825Y0075041D01*
X0009808Y0075132D01*
X0009794Y0075223D01*
X0009784Y0075315D01*
X0009778Y0075407D01*
X0009776Y0075500D01*
X0161142Y0166992D02*
X0161144Y0167107D01*
X0161150Y0167223D01*
X0161160Y0167338D01*
X0161174Y0167453D01*
X0161192Y0167567D01*
X0161214Y0167680D01*
X0161239Y0167793D01*
X0161269Y0167904D01*
X0161302Y0168015D01*
X0161339Y0168124D01*
X0161380Y0168232D01*
X0161425Y0168339D01*
X0161473Y0168444D01*
X0161525Y0168547D01*
X0161581Y0168648D01*
X0161640Y0168748D01*
X0161702Y0168845D01*
X0161768Y0168940D01*
X0161836Y0169033D01*
X0161908Y0169123D01*
X0161983Y0169211D01*
X0162062Y0169296D01*
X0162143Y0169378D01*
X0162226Y0169458D01*
X0162313Y0169534D01*
X0162402Y0169608D01*
X0162493Y0169678D01*
X0162587Y0169746D01*
X0162683Y0169810D01*
X0162782Y0169870D01*
X0162882Y0169927D01*
X0162984Y0169981D01*
X0163088Y0170031D01*
X0163194Y0170078D01*
X0163301Y0170121D01*
X0163410Y0170160D01*
X0163520Y0170195D01*
X0163631Y0170226D01*
X0163743Y0170254D01*
X0163856Y0170278D01*
X0163970Y0170298D01*
X0164085Y0170314D01*
X0164200Y0170326D01*
X0164315Y0170334D01*
X0164430Y0170338D01*
X0164546Y0170338D01*
X0164661Y0170334D01*
X0164776Y0170326D01*
X0164891Y0170314D01*
X0165006Y0170298D01*
X0165120Y0170278D01*
X0165233Y0170254D01*
X0165345Y0170226D01*
X0165456Y0170195D01*
X0165566Y0170160D01*
X0165675Y0170121D01*
X0165782Y0170078D01*
X0165888Y0170031D01*
X0165992Y0169981D01*
X0166094Y0169927D01*
X0166194Y0169870D01*
X0166293Y0169810D01*
X0166389Y0169746D01*
X0166483Y0169678D01*
X0166574Y0169608D01*
X0166663Y0169534D01*
X0166750Y0169458D01*
X0166833Y0169378D01*
X0166914Y0169296D01*
X0166993Y0169211D01*
X0167068Y0169123D01*
X0167140Y0169033D01*
X0167208Y0168940D01*
X0167274Y0168845D01*
X0167336Y0168748D01*
X0167395Y0168648D01*
X0167451Y0168547D01*
X0167503Y0168444D01*
X0167551Y0168339D01*
X0167596Y0168232D01*
X0167637Y0168124D01*
X0167674Y0168015D01*
X0167707Y0167904D01*
X0167737Y0167793D01*
X0167762Y0167680D01*
X0167784Y0167567D01*
X0167802Y0167453D01*
X0167816Y0167338D01*
X0167826Y0167223D01*
X0167832Y0167107D01*
X0167834Y0166992D01*
X0167832Y0166877D01*
X0167826Y0166761D01*
X0167816Y0166646D01*
X0167802Y0166531D01*
X0167784Y0166417D01*
X0167762Y0166304D01*
X0167737Y0166191D01*
X0167707Y0166080D01*
X0167674Y0165969D01*
X0167637Y0165860D01*
X0167596Y0165752D01*
X0167551Y0165645D01*
X0167503Y0165540D01*
X0167451Y0165437D01*
X0167395Y0165336D01*
X0167336Y0165236D01*
X0167274Y0165139D01*
X0167208Y0165044D01*
X0167140Y0164951D01*
X0167068Y0164861D01*
X0166993Y0164773D01*
X0166914Y0164688D01*
X0166833Y0164606D01*
X0166750Y0164526D01*
X0166663Y0164450D01*
X0166574Y0164376D01*
X0166483Y0164306D01*
X0166389Y0164238D01*
X0166293Y0164174D01*
X0166194Y0164114D01*
X0166094Y0164057D01*
X0165992Y0164003D01*
X0165888Y0163953D01*
X0165782Y0163906D01*
X0165675Y0163863D01*
X0165566Y0163824D01*
X0165456Y0163789D01*
X0165345Y0163758D01*
X0165233Y0163730D01*
X0165120Y0163706D01*
X0165006Y0163686D01*
X0164891Y0163670D01*
X0164776Y0163658D01*
X0164661Y0163650D01*
X0164546Y0163646D01*
X0164430Y0163646D01*
X0164315Y0163650D01*
X0164200Y0163658D01*
X0164085Y0163670D01*
X0163970Y0163686D01*
X0163856Y0163706D01*
X0163743Y0163730D01*
X0163631Y0163758D01*
X0163520Y0163789D01*
X0163410Y0163824D01*
X0163301Y0163863D01*
X0163194Y0163906D01*
X0163088Y0163953D01*
X0162984Y0164003D01*
X0162882Y0164057D01*
X0162782Y0164114D01*
X0162683Y0164174D01*
X0162587Y0164238D01*
X0162493Y0164306D01*
X0162402Y0164376D01*
X0162313Y0164450D01*
X0162226Y0164526D01*
X0162143Y0164606D01*
X0162062Y0164688D01*
X0161983Y0164773D01*
X0161908Y0164861D01*
X0161836Y0164951D01*
X0161768Y0165044D01*
X0161702Y0165139D01*
X0161640Y0165236D01*
X0161581Y0165336D01*
X0161525Y0165437D01*
X0161473Y0165540D01*
X0161425Y0165645D01*
X0161380Y0165752D01*
X0161339Y0165860D01*
X0161302Y0165969D01*
X0161269Y0166080D01*
X0161239Y0166191D01*
X0161214Y0166304D01*
X0161192Y0166417D01*
X0161174Y0166531D01*
X0161160Y0166646D01*
X0161150Y0166761D01*
X0161144Y0166877D01*
X0161142Y0166992D01*
X0166201Y0179000D02*
X0166203Y0179158D01*
X0166209Y0179316D01*
X0166219Y0179474D01*
X0166233Y0179632D01*
X0166251Y0179789D01*
X0166272Y0179946D01*
X0166298Y0180102D01*
X0166328Y0180258D01*
X0166361Y0180413D01*
X0166399Y0180566D01*
X0166440Y0180719D01*
X0166485Y0180871D01*
X0166534Y0181022D01*
X0166587Y0181171D01*
X0166643Y0181319D01*
X0166703Y0181465D01*
X0166767Y0181610D01*
X0166835Y0181753D01*
X0166906Y0181895D01*
X0166980Y0182035D01*
X0167058Y0182172D01*
X0167140Y0182308D01*
X0167224Y0182442D01*
X0167313Y0182573D01*
X0167404Y0182702D01*
X0167499Y0182829D01*
X0167596Y0182954D01*
X0167697Y0183076D01*
X0167801Y0183195D01*
X0167908Y0183312D01*
X0168018Y0183426D01*
X0168131Y0183537D01*
X0168246Y0183646D01*
X0168364Y0183751D01*
X0168485Y0183853D01*
X0168608Y0183953D01*
X0168734Y0184049D01*
X0168862Y0184142D01*
X0168992Y0184232D01*
X0169125Y0184318D01*
X0169260Y0184402D01*
X0169396Y0184481D01*
X0169535Y0184558D01*
X0169676Y0184630D01*
X0169818Y0184700D01*
X0169962Y0184765D01*
X0170108Y0184827D01*
X0170255Y0184885D01*
X0170404Y0184940D01*
X0170554Y0184991D01*
X0170705Y0185038D01*
X0170857Y0185081D01*
X0171010Y0185120D01*
X0171165Y0185156D01*
X0171320Y0185187D01*
X0171476Y0185215D01*
X0171632Y0185239D01*
X0171789Y0185259D01*
X0171947Y0185275D01*
X0172104Y0185287D01*
X0172263Y0185295D01*
X0172421Y0185299D01*
X0172579Y0185299D01*
X0172737Y0185295D01*
X0172896Y0185287D01*
X0173053Y0185275D01*
X0173211Y0185259D01*
X0173368Y0185239D01*
X0173524Y0185215D01*
X0173680Y0185187D01*
X0173835Y0185156D01*
X0173990Y0185120D01*
X0174143Y0185081D01*
X0174295Y0185038D01*
X0174446Y0184991D01*
X0174596Y0184940D01*
X0174745Y0184885D01*
X0174892Y0184827D01*
X0175038Y0184765D01*
X0175182Y0184700D01*
X0175324Y0184630D01*
X0175465Y0184558D01*
X0175604Y0184481D01*
X0175740Y0184402D01*
X0175875Y0184318D01*
X0176008Y0184232D01*
X0176138Y0184142D01*
X0176266Y0184049D01*
X0176392Y0183953D01*
X0176515Y0183853D01*
X0176636Y0183751D01*
X0176754Y0183646D01*
X0176869Y0183537D01*
X0176982Y0183426D01*
X0177092Y0183312D01*
X0177199Y0183195D01*
X0177303Y0183076D01*
X0177404Y0182954D01*
X0177501Y0182829D01*
X0177596Y0182702D01*
X0177687Y0182573D01*
X0177776Y0182442D01*
X0177860Y0182308D01*
X0177942Y0182172D01*
X0178020Y0182035D01*
X0178094Y0181895D01*
X0178165Y0181753D01*
X0178233Y0181610D01*
X0178297Y0181465D01*
X0178357Y0181319D01*
X0178413Y0181171D01*
X0178466Y0181022D01*
X0178515Y0180871D01*
X0178560Y0180719D01*
X0178601Y0180566D01*
X0178639Y0180413D01*
X0178672Y0180258D01*
X0178702Y0180102D01*
X0178728Y0179946D01*
X0178749Y0179789D01*
X0178767Y0179632D01*
X0178781Y0179474D01*
X0178791Y0179316D01*
X0178797Y0179158D01*
X0178799Y0179000D01*
X0178797Y0178842D01*
X0178791Y0178684D01*
X0178781Y0178526D01*
X0178767Y0178368D01*
X0178749Y0178211D01*
X0178728Y0178054D01*
X0178702Y0177898D01*
X0178672Y0177742D01*
X0178639Y0177587D01*
X0178601Y0177434D01*
X0178560Y0177281D01*
X0178515Y0177129D01*
X0178466Y0176978D01*
X0178413Y0176829D01*
X0178357Y0176681D01*
X0178297Y0176535D01*
X0178233Y0176390D01*
X0178165Y0176247D01*
X0178094Y0176105D01*
X0178020Y0175965D01*
X0177942Y0175828D01*
X0177860Y0175692D01*
X0177776Y0175558D01*
X0177687Y0175427D01*
X0177596Y0175298D01*
X0177501Y0175171D01*
X0177404Y0175046D01*
X0177303Y0174924D01*
X0177199Y0174805D01*
X0177092Y0174688D01*
X0176982Y0174574D01*
X0176869Y0174463D01*
X0176754Y0174354D01*
X0176636Y0174249D01*
X0176515Y0174147D01*
X0176392Y0174047D01*
X0176266Y0173951D01*
X0176138Y0173858D01*
X0176008Y0173768D01*
X0175875Y0173682D01*
X0175740Y0173598D01*
X0175604Y0173519D01*
X0175465Y0173442D01*
X0175324Y0173370D01*
X0175182Y0173300D01*
X0175038Y0173235D01*
X0174892Y0173173D01*
X0174745Y0173115D01*
X0174596Y0173060D01*
X0174446Y0173009D01*
X0174295Y0172962D01*
X0174143Y0172919D01*
X0173990Y0172880D01*
X0173835Y0172844D01*
X0173680Y0172813D01*
X0173524Y0172785D01*
X0173368Y0172761D01*
X0173211Y0172741D01*
X0173053Y0172725D01*
X0172896Y0172713D01*
X0172737Y0172705D01*
X0172579Y0172701D01*
X0172421Y0172701D01*
X0172263Y0172705D01*
X0172104Y0172713D01*
X0171947Y0172725D01*
X0171789Y0172741D01*
X0171632Y0172761D01*
X0171476Y0172785D01*
X0171320Y0172813D01*
X0171165Y0172844D01*
X0171010Y0172880D01*
X0170857Y0172919D01*
X0170705Y0172962D01*
X0170554Y0173009D01*
X0170404Y0173060D01*
X0170255Y0173115D01*
X0170108Y0173173D01*
X0169962Y0173235D01*
X0169818Y0173300D01*
X0169676Y0173370D01*
X0169535Y0173442D01*
X0169396Y0173519D01*
X0169260Y0173598D01*
X0169125Y0173682D01*
X0168992Y0173768D01*
X0168862Y0173858D01*
X0168734Y0173951D01*
X0168608Y0174047D01*
X0168485Y0174147D01*
X0168364Y0174249D01*
X0168246Y0174354D01*
X0168131Y0174463D01*
X0168018Y0174574D01*
X0167908Y0174688D01*
X0167801Y0174805D01*
X0167697Y0174924D01*
X0167596Y0175046D01*
X0167499Y0175171D01*
X0167404Y0175298D01*
X0167313Y0175427D01*
X0167224Y0175558D01*
X0167140Y0175692D01*
X0167058Y0175828D01*
X0166980Y0175965D01*
X0166906Y0176105D01*
X0166835Y0176247D01*
X0166767Y0176390D01*
X0166703Y0176535D01*
X0166643Y0176681D01*
X0166587Y0176829D01*
X0166534Y0176978D01*
X0166485Y0177129D01*
X0166440Y0177281D01*
X0166399Y0177434D01*
X0166361Y0177587D01*
X0166328Y0177742D01*
X0166298Y0177898D01*
X0166272Y0178054D01*
X0166251Y0178211D01*
X0166233Y0178368D01*
X0166219Y0178526D01*
X0166209Y0178684D01*
X0166203Y0178842D01*
X0166201Y0179000D01*
X0211201Y0179000D02*
X0211203Y0179158D01*
X0211209Y0179316D01*
X0211219Y0179474D01*
X0211233Y0179632D01*
X0211251Y0179789D01*
X0211272Y0179946D01*
X0211298Y0180102D01*
X0211328Y0180258D01*
X0211361Y0180413D01*
X0211399Y0180566D01*
X0211440Y0180719D01*
X0211485Y0180871D01*
X0211534Y0181022D01*
X0211587Y0181171D01*
X0211643Y0181319D01*
X0211703Y0181465D01*
X0211767Y0181610D01*
X0211835Y0181753D01*
X0211906Y0181895D01*
X0211980Y0182035D01*
X0212058Y0182172D01*
X0212140Y0182308D01*
X0212224Y0182442D01*
X0212313Y0182573D01*
X0212404Y0182702D01*
X0212499Y0182829D01*
X0212596Y0182954D01*
X0212697Y0183076D01*
X0212801Y0183195D01*
X0212908Y0183312D01*
X0213018Y0183426D01*
X0213131Y0183537D01*
X0213246Y0183646D01*
X0213364Y0183751D01*
X0213485Y0183853D01*
X0213608Y0183953D01*
X0213734Y0184049D01*
X0213862Y0184142D01*
X0213992Y0184232D01*
X0214125Y0184318D01*
X0214260Y0184402D01*
X0214396Y0184481D01*
X0214535Y0184558D01*
X0214676Y0184630D01*
X0214818Y0184700D01*
X0214962Y0184765D01*
X0215108Y0184827D01*
X0215255Y0184885D01*
X0215404Y0184940D01*
X0215554Y0184991D01*
X0215705Y0185038D01*
X0215857Y0185081D01*
X0216010Y0185120D01*
X0216165Y0185156D01*
X0216320Y0185187D01*
X0216476Y0185215D01*
X0216632Y0185239D01*
X0216789Y0185259D01*
X0216947Y0185275D01*
X0217104Y0185287D01*
X0217263Y0185295D01*
X0217421Y0185299D01*
X0217579Y0185299D01*
X0217737Y0185295D01*
X0217896Y0185287D01*
X0218053Y0185275D01*
X0218211Y0185259D01*
X0218368Y0185239D01*
X0218524Y0185215D01*
X0218680Y0185187D01*
X0218835Y0185156D01*
X0218990Y0185120D01*
X0219143Y0185081D01*
X0219295Y0185038D01*
X0219446Y0184991D01*
X0219596Y0184940D01*
X0219745Y0184885D01*
X0219892Y0184827D01*
X0220038Y0184765D01*
X0220182Y0184700D01*
X0220324Y0184630D01*
X0220465Y0184558D01*
X0220604Y0184481D01*
X0220740Y0184402D01*
X0220875Y0184318D01*
X0221008Y0184232D01*
X0221138Y0184142D01*
X0221266Y0184049D01*
X0221392Y0183953D01*
X0221515Y0183853D01*
X0221636Y0183751D01*
X0221754Y0183646D01*
X0221869Y0183537D01*
X0221982Y0183426D01*
X0222092Y0183312D01*
X0222199Y0183195D01*
X0222303Y0183076D01*
X0222404Y0182954D01*
X0222501Y0182829D01*
X0222596Y0182702D01*
X0222687Y0182573D01*
X0222776Y0182442D01*
X0222860Y0182308D01*
X0222942Y0182172D01*
X0223020Y0182035D01*
X0223094Y0181895D01*
X0223165Y0181753D01*
X0223233Y0181610D01*
X0223297Y0181465D01*
X0223357Y0181319D01*
X0223413Y0181171D01*
X0223466Y0181022D01*
X0223515Y0180871D01*
X0223560Y0180719D01*
X0223601Y0180566D01*
X0223639Y0180413D01*
X0223672Y0180258D01*
X0223702Y0180102D01*
X0223728Y0179946D01*
X0223749Y0179789D01*
X0223767Y0179632D01*
X0223781Y0179474D01*
X0223791Y0179316D01*
X0223797Y0179158D01*
X0223799Y0179000D01*
X0223797Y0178842D01*
X0223791Y0178684D01*
X0223781Y0178526D01*
X0223767Y0178368D01*
X0223749Y0178211D01*
X0223728Y0178054D01*
X0223702Y0177898D01*
X0223672Y0177742D01*
X0223639Y0177587D01*
X0223601Y0177434D01*
X0223560Y0177281D01*
X0223515Y0177129D01*
X0223466Y0176978D01*
X0223413Y0176829D01*
X0223357Y0176681D01*
X0223297Y0176535D01*
X0223233Y0176390D01*
X0223165Y0176247D01*
X0223094Y0176105D01*
X0223020Y0175965D01*
X0222942Y0175828D01*
X0222860Y0175692D01*
X0222776Y0175558D01*
X0222687Y0175427D01*
X0222596Y0175298D01*
X0222501Y0175171D01*
X0222404Y0175046D01*
X0222303Y0174924D01*
X0222199Y0174805D01*
X0222092Y0174688D01*
X0221982Y0174574D01*
X0221869Y0174463D01*
X0221754Y0174354D01*
X0221636Y0174249D01*
X0221515Y0174147D01*
X0221392Y0174047D01*
X0221266Y0173951D01*
X0221138Y0173858D01*
X0221008Y0173768D01*
X0220875Y0173682D01*
X0220740Y0173598D01*
X0220604Y0173519D01*
X0220465Y0173442D01*
X0220324Y0173370D01*
X0220182Y0173300D01*
X0220038Y0173235D01*
X0219892Y0173173D01*
X0219745Y0173115D01*
X0219596Y0173060D01*
X0219446Y0173009D01*
X0219295Y0172962D01*
X0219143Y0172919D01*
X0218990Y0172880D01*
X0218835Y0172844D01*
X0218680Y0172813D01*
X0218524Y0172785D01*
X0218368Y0172761D01*
X0218211Y0172741D01*
X0218053Y0172725D01*
X0217896Y0172713D01*
X0217737Y0172705D01*
X0217579Y0172701D01*
X0217421Y0172701D01*
X0217263Y0172705D01*
X0217104Y0172713D01*
X0216947Y0172725D01*
X0216789Y0172741D01*
X0216632Y0172761D01*
X0216476Y0172785D01*
X0216320Y0172813D01*
X0216165Y0172844D01*
X0216010Y0172880D01*
X0215857Y0172919D01*
X0215705Y0172962D01*
X0215554Y0173009D01*
X0215404Y0173060D01*
X0215255Y0173115D01*
X0215108Y0173173D01*
X0214962Y0173235D01*
X0214818Y0173300D01*
X0214676Y0173370D01*
X0214535Y0173442D01*
X0214396Y0173519D01*
X0214260Y0173598D01*
X0214125Y0173682D01*
X0213992Y0173768D01*
X0213862Y0173858D01*
X0213734Y0173951D01*
X0213608Y0174047D01*
X0213485Y0174147D01*
X0213364Y0174249D01*
X0213246Y0174354D01*
X0213131Y0174463D01*
X0213018Y0174574D01*
X0212908Y0174688D01*
X0212801Y0174805D01*
X0212697Y0174924D01*
X0212596Y0175046D01*
X0212499Y0175171D01*
X0212404Y0175298D01*
X0212313Y0175427D01*
X0212224Y0175558D01*
X0212140Y0175692D01*
X0212058Y0175828D01*
X0211980Y0175965D01*
X0211906Y0176105D01*
X0211835Y0176247D01*
X0211767Y0176390D01*
X0211703Y0176535D01*
X0211643Y0176681D01*
X0211587Y0176829D01*
X0211534Y0176978D01*
X0211485Y0177129D01*
X0211440Y0177281D01*
X0211399Y0177434D01*
X0211361Y0177587D01*
X0211328Y0177742D01*
X0211298Y0177898D01*
X0211272Y0178054D01*
X0211251Y0178211D01*
X0211233Y0178368D01*
X0211219Y0178526D01*
X0211209Y0178684D01*
X0211203Y0178842D01*
X0211201Y0179000D01*
X0222166Y0166992D02*
X0222168Y0167107D01*
X0222174Y0167223D01*
X0222184Y0167338D01*
X0222198Y0167453D01*
X0222216Y0167567D01*
X0222238Y0167680D01*
X0222263Y0167793D01*
X0222293Y0167904D01*
X0222326Y0168015D01*
X0222363Y0168124D01*
X0222404Y0168232D01*
X0222449Y0168339D01*
X0222497Y0168444D01*
X0222549Y0168547D01*
X0222605Y0168648D01*
X0222664Y0168748D01*
X0222726Y0168845D01*
X0222792Y0168940D01*
X0222860Y0169033D01*
X0222932Y0169123D01*
X0223007Y0169211D01*
X0223086Y0169296D01*
X0223167Y0169378D01*
X0223250Y0169458D01*
X0223337Y0169534D01*
X0223426Y0169608D01*
X0223517Y0169678D01*
X0223611Y0169746D01*
X0223707Y0169810D01*
X0223806Y0169870D01*
X0223906Y0169927D01*
X0224008Y0169981D01*
X0224112Y0170031D01*
X0224218Y0170078D01*
X0224325Y0170121D01*
X0224434Y0170160D01*
X0224544Y0170195D01*
X0224655Y0170226D01*
X0224767Y0170254D01*
X0224880Y0170278D01*
X0224994Y0170298D01*
X0225109Y0170314D01*
X0225224Y0170326D01*
X0225339Y0170334D01*
X0225454Y0170338D01*
X0225570Y0170338D01*
X0225685Y0170334D01*
X0225800Y0170326D01*
X0225915Y0170314D01*
X0226030Y0170298D01*
X0226144Y0170278D01*
X0226257Y0170254D01*
X0226369Y0170226D01*
X0226480Y0170195D01*
X0226590Y0170160D01*
X0226699Y0170121D01*
X0226806Y0170078D01*
X0226912Y0170031D01*
X0227016Y0169981D01*
X0227118Y0169927D01*
X0227218Y0169870D01*
X0227317Y0169810D01*
X0227413Y0169746D01*
X0227507Y0169678D01*
X0227598Y0169608D01*
X0227687Y0169534D01*
X0227774Y0169458D01*
X0227857Y0169378D01*
X0227938Y0169296D01*
X0228017Y0169211D01*
X0228092Y0169123D01*
X0228164Y0169033D01*
X0228232Y0168940D01*
X0228298Y0168845D01*
X0228360Y0168748D01*
X0228419Y0168648D01*
X0228475Y0168547D01*
X0228527Y0168444D01*
X0228575Y0168339D01*
X0228620Y0168232D01*
X0228661Y0168124D01*
X0228698Y0168015D01*
X0228731Y0167904D01*
X0228761Y0167793D01*
X0228786Y0167680D01*
X0228808Y0167567D01*
X0228826Y0167453D01*
X0228840Y0167338D01*
X0228850Y0167223D01*
X0228856Y0167107D01*
X0228858Y0166992D01*
X0228856Y0166877D01*
X0228850Y0166761D01*
X0228840Y0166646D01*
X0228826Y0166531D01*
X0228808Y0166417D01*
X0228786Y0166304D01*
X0228761Y0166191D01*
X0228731Y0166080D01*
X0228698Y0165969D01*
X0228661Y0165860D01*
X0228620Y0165752D01*
X0228575Y0165645D01*
X0228527Y0165540D01*
X0228475Y0165437D01*
X0228419Y0165336D01*
X0228360Y0165236D01*
X0228298Y0165139D01*
X0228232Y0165044D01*
X0228164Y0164951D01*
X0228092Y0164861D01*
X0228017Y0164773D01*
X0227938Y0164688D01*
X0227857Y0164606D01*
X0227774Y0164526D01*
X0227687Y0164450D01*
X0227598Y0164376D01*
X0227507Y0164306D01*
X0227413Y0164238D01*
X0227317Y0164174D01*
X0227218Y0164114D01*
X0227118Y0164057D01*
X0227016Y0164003D01*
X0226912Y0163953D01*
X0226806Y0163906D01*
X0226699Y0163863D01*
X0226590Y0163824D01*
X0226480Y0163789D01*
X0226369Y0163758D01*
X0226257Y0163730D01*
X0226144Y0163706D01*
X0226030Y0163686D01*
X0225915Y0163670D01*
X0225800Y0163658D01*
X0225685Y0163650D01*
X0225570Y0163646D01*
X0225454Y0163646D01*
X0225339Y0163650D01*
X0225224Y0163658D01*
X0225109Y0163670D01*
X0224994Y0163686D01*
X0224880Y0163706D01*
X0224767Y0163730D01*
X0224655Y0163758D01*
X0224544Y0163789D01*
X0224434Y0163824D01*
X0224325Y0163863D01*
X0224218Y0163906D01*
X0224112Y0163953D01*
X0224008Y0164003D01*
X0223906Y0164057D01*
X0223806Y0164114D01*
X0223707Y0164174D01*
X0223611Y0164238D01*
X0223517Y0164306D01*
X0223426Y0164376D01*
X0223337Y0164450D01*
X0223250Y0164526D01*
X0223167Y0164606D01*
X0223086Y0164688D01*
X0223007Y0164773D01*
X0222932Y0164861D01*
X0222860Y0164951D01*
X0222792Y0165044D01*
X0222726Y0165139D01*
X0222664Y0165236D01*
X0222605Y0165336D01*
X0222549Y0165437D01*
X0222497Y0165540D01*
X0222449Y0165645D01*
X0222404Y0165752D01*
X0222363Y0165860D01*
X0222326Y0165969D01*
X0222293Y0166080D01*
X0222263Y0166191D01*
X0222238Y0166304D01*
X0222216Y0166417D01*
X0222198Y0166531D01*
X0222184Y0166646D01*
X0222174Y0166761D01*
X0222168Y0166877D01*
X0222166Y0166992D01*
X0271783Y0075500D02*
X0271785Y0075612D01*
X0271791Y0075723D01*
X0271801Y0075835D01*
X0271815Y0075946D01*
X0271832Y0076056D01*
X0271854Y0076166D01*
X0271880Y0076275D01*
X0271909Y0076383D01*
X0271942Y0076489D01*
X0271979Y0076595D01*
X0272020Y0076699D01*
X0272065Y0076802D01*
X0272113Y0076903D01*
X0272164Y0077002D01*
X0272219Y0077099D01*
X0272278Y0077194D01*
X0272339Y0077288D01*
X0272404Y0077379D01*
X0272473Y0077467D01*
X0272544Y0077553D01*
X0272618Y0077637D01*
X0272696Y0077717D01*
X0272776Y0077795D01*
X0272859Y0077871D01*
X0272944Y0077943D01*
X0273032Y0078012D01*
X0273122Y0078078D01*
X0273215Y0078140D01*
X0273310Y0078200D01*
X0273407Y0078256D01*
X0273505Y0078308D01*
X0273606Y0078357D01*
X0273708Y0078402D01*
X0273812Y0078444D01*
X0273917Y0078482D01*
X0274024Y0078516D01*
X0274131Y0078546D01*
X0274240Y0078573D01*
X0274349Y0078595D01*
X0274460Y0078614D01*
X0274570Y0078629D01*
X0274682Y0078640D01*
X0274793Y0078647D01*
X0274905Y0078650D01*
X0275017Y0078649D01*
X0275129Y0078644D01*
X0275240Y0078635D01*
X0275351Y0078622D01*
X0275462Y0078605D01*
X0275572Y0078585D01*
X0275681Y0078560D01*
X0275789Y0078532D01*
X0275896Y0078499D01*
X0276002Y0078463D01*
X0276106Y0078423D01*
X0276209Y0078380D01*
X0276311Y0078333D01*
X0276410Y0078282D01*
X0276508Y0078228D01*
X0276604Y0078170D01*
X0276698Y0078109D01*
X0276789Y0078045D01*
X0276878Y0077978D01*
X0276965Y0077907D01*
X0277049Y0077833D01*
X0277131Y0077757D01*
X0277209Y0077677D01*
X0277285Y0077595D01*
X0277358Y0077510D01*
X0277428Y0077423D01*
X0277494Y0077333D01*
X0277558Y0077241D01*
X0277618Y0077147D01*
X0277675Y0077051D01*
X0277728Y0076952D01*
X0277778Y0076852D01*
X0277824Y0076751D01*
X0277867Y0076647D01*
X0277906Y0076542D01*
X0277941Y0076436D01*
X0277972Y0076329D01*
X0278000Y0076220D01*
X0278023Y0076111D01*
X0278043Y0076001D01*
X0278059Y0075890D01*
X0278071Y0075779D01*
X0278079Y0075668D01*
X0278083Y0075556D01*
X0278083Y0075444D01*
X0278079Y0075332D01*
X0278071Y0075221D01*
X0278059Y0075110D01*
X0278043Y0074999D01*
X0278023Y0074889D01*
X0278000Y0074780D01*
X0277972Y0074671D01*
X0277941Y0074564D01*
X0277906Y0074458D01*
X0277867Y0074353D01*
X0277824Y0074249D01*
X0277778Y0074148D01*
X0277728Y0074048D01*
X0277675Y0073949D01*
X0277618Y0073853D01*
X0277558Y0073759D01*
X0277494Y0073667D01*
X0277428Y0073577D01*
X0277358Y0073490D01*
X0277285Y0073405D01*
X0277209Y0073323D01*
X0277131Y0073243D01*
X0277049Y0073167D01*
X0276965Y0073093D01*
X0276878Y0073022D01*
X0276789Y0072955D01*
X0276698Y0072891D01*
X0276604Y0072830D01*
X0276508Y0072772D01*
X0276410Y0072718D01*
X0276311Y0072667D01*
X0276209Y0072620D01*
X0276106Y0072577D01*
X0276002Y0072537D01*
X0275896Y0072501D01*
X0275789Y0072468D01*
X0275681Y0072440D01*
X0275572Y0072415D01*
X0275462Y0072395D01*
X0275351Y0072378D01*
X0275240Y0072365D01*
X0275129Y0072356D01*
X0275017Y0072351D01*
X0274905Y0072350D01*
X0274793Y0072353D01*
X0274682Y0072360D01*
X0274570Y0072371D01*
X0274460Y0072386D01*
X0274349Y0072405D01*
X0274240Y0072427D01*
X0274131Y0072454D01*
X0274024Y0072484D01*
X0273917Y0072518D01*
X0273812Y0072556D01*
X0273708Y0072598D01*
X0273606Y0072643D01*
X0273505Y0072692D01*
X0273407Y0072744D01*
X0273310Y0072800D01*
X0273215Y0072860D01*
X0273122Y0072922D01*
X0273032Y0072988D01*
X0272944Y0073057D01*
X0272859Y0073129D01*
X0272776Y0073205D01*
X0272696Y0073283D01*
X0272618Y0073363D01*
X0272544Y0073447D01*
X0272473Y0073533D01*
X0272404Y0073621D01*
X0272339Y0073712D01*
X0272278Y0073806D01*
X0272219Y0073901D01*
X0272164Y0073998D01*
X0272113Y0074097D01*
X0272065Y0074198D01*
X0272020Y0074301D01*
X0271979Y0074405D01*
X0271942Y0074511D01*
X0271909Y0074617D01*
X0271880Y0074725D01*
X0271854Y0074834D01*
X0271832Y0074944D01*
X0271815Y0075054D01*
X0271801Y0075165D01*
X0271791Y0075277D01*
X0271785Y0075388D01*
X0271783Y0075500D01*
D11*
X0270106Y0072847D02*
X0266903Y0072847D01*
X0265835Y0073915D01*
X0265835Y0078185D01*
X0266903Y0079253D01*
X0270106Y0079253D01*
X0270106Y0072847D01*
X0263660Y0072847D02*
X0260457Y0072847D01*
X0259390Y0073915D01*
X0259390Y0078185D01*
X0260457Y0079253D01*
X0263660Y0079253D01*
X0263660Y0072847D01*
X0257215Y0072847D02*
X0257215Y0079253D01*
X0254012Y0079253D01*
X0252944Y0078185D01*
X0252944Y0076050D01*
X0254012Y0074982D01*
X0257215Y0074982D01*
X0255079Y0074982D02*
X0252944Y0072847D01*
X0250769Y0072847D02*
X0246499Y0077118D01*
X0246499Y0078185D01*
X0247566Y0079253D01*
X0249701Y0079253D01*
X0250769Y0078185D01*
X0250769Y0072847D02*
X0246499Y0072847D01*
X0237878Y0073915D02*
X0236810Y0072847D01*
X0234675Y0072847D01*
X0233608Y0073915D01*
X0233608Y0074982D01*
X0234675Y0076050D01*
X0236810Y0076050D01*
X0237878Y0077118D01*
X0237878Y0078185D01*
X0236810Y0079253D01*
X0234675Y0079253D01*
X0233608Y0078185D01*
X0231433Y0079253D02*
X0227162Y0079253D01*
X0229297Y0079253D02*
X0229297Y0072847D01*
X0224987Y0072847D02*
X0221784Y0072847D01*
X0220717Y0073915D01*
X0220717Y0078185D01*
X0221784Y0079253D01*
X0224987Y0079253D01*
X0224987Y0072847D01*
X0046200Y0185368D02*
X0041930Y0189638D01*
X0044065Y0189638D02*
X0044065Y0185368D01*
X0041930Y0185368D02*
X0046200Y0189638D01*
X0046200Y0187503D02*
X0041930Y0187503D01*
D12*
X0003083Y0139870D02*
X0003083Y0114476D01*
X0007610Y0109161D01*
X0007610Y0082783D01*
X0003870Y0082390D02*
X0283004Y0082390D01*
X0283004Y0056209D01*
X0271980Y0056209D01*
X0271980Y0060539D01*
X0279264Y0082783D02*
X0279264Y0109161D01*
X0283791Y0114476D01*
X0283791Y0139870D01*
X0217453Y0090657D02*
X0217453Y0082783D01*
X0214697Y0082783D02*
X0214697Y0090657D01*
X0214698Y0090657D02*
X0214705Y0090731D01*
X0214716Y0090804D01*
X0214731Y0090876D01*
X0214750Y0090948D01*
X0214773Y0091018D01*
X0214799Y0091087D01*
X0214829Y0091155D01*
X0214863Y0091221D01*
X0214900Y0091285D01*
X0214941Y0091347D01*
X0214984Y0091406D01*
X0215031Y0091463D01*
X0215081Y0091518D01*
X0215134Y0091570D01*
X0215189Y0091619D01*
X0215247Y0091665D01*
X0215308Y0091707D01*
X0215370Y0091747D01*
X0215435Y0091783D01*
X0215501Y0091815D01*
X0215569Y0091844D01*
X0215639Y0091869D01*
X0215710Y0091891D01*
X0215781Y0091908D01*
X0215854Y0091922D01*
X0215927Y0091932D01*
X0216001Y0091938D01*
X0216075Y0091940D01*
X0216149Y0091938D01*
X0216223Y0091932D01*
X0216296Y0091922D01*
X0216369Y0091908D01*
X0216440Y0091891D01*
X0216511Y0091869D01*
X0216581Y0091844D01*
X0216649Y0091815D01*
X0216715Y0091783D01*
X0216780Y0091747D01*
X0216842Y0091707D01*
X0216903Y0091665D01*
X0216961Y0091619D01*
X0217016Y0091570D01*
X0217069Y0091518D01*
X0217119Y0091463D01*
X0217166Y0091406D01*
X0217209Y0091347D01*
X0217250Y0091285D01*
X0217287Y0091221D01*
X0217321Y0091155D01*
X0217351Y0091087D01*
X0217377Y0091018D01*
X0217400Y0090948D01*
X0217419Y0090876D01*
X0217434Y0090804D01*
X0217445Y0090731D01*
X0217452Y0090657D01*
X0145386Y0202280D02*
X0140661Y0202280D01*
X0140661Y0207791D01*
X0123339Y0207791D01*
X0123339Y0202280D01*
X0118614Y0202280D01*
X0118614Y0208579D01*
X0118614Y0219209D02*
X0145386Y0219209D01*
X0145386Y0208579D02*
X0145386Y0202280D01*
X0003870Y0082390D02*
X0003870Y0056209D01*
X0014894Y0056209D01*
X0014894Y0060539D01*
D13*
X0054588Y0199910D02*
X0054254Y0200244D01*
X0054254Y0200911D01*
X0054588Y0201245D01*
X0054921Y0201245D01*
X0055589Y0200911D01*
X0055589Y0201912D01*
X0054254Y0201912D01*
X0054588Y0199910D02*
X0055255Y0199910D01*
X0055589Y0200244D01*
X0056464Y0200244D02*
X0056464Y0201912D01*
X0057799Y0201912D02*
X0057799Y0200244D01*
X0057465Y0199910D01*
X0056798Y0199910D01*
X0056464Y0200244D01*
X0268732Y0066445D02*
X0270209Y0063492D01*
X0271685Y0066445D01*
X0268732Y0066445D01*
X0268925Y0066059D02*
X0271492Y0066059D01*
X0271293Y0065660D02*
X0269125Y0065660D01*
X0269324Y0065262D02*
X0271094Y0065262D01*
X0270894Y0064863D02*
X0269523Y0064863D01*
X0269722Y0064465D02*
X0270695Y0064465D01*
X0270496Y0064066D02*
X0269922Y0064066D01*
X0270121Y0063668D02*
X0270296Y0063668D01*
D14*
X0284500Y0053000D02*
X0002000Y0053000D01*
X0002000Y0160500D01*
X0009500Y0160500D01*
X0009500Y0195500D01*
X0277000Y0195500D01*
X0277000Y0160500D01*
X0284500Y0160500D01*
X0284500Y0053000D01*
X0090299Y0104776D02*
X0090299Y0114618D01*
X0077701Y0114618D01*
X0077701Y0104776D01*
X0090299Y0104776D01*
X0039437Y0173126D02*
X0031563Y0173126D01*
X0027626Y0177063D01*
X0027626Y0184937D01*
X0031563Y0188874D01*
X0039437Y0188874D01*
X0043374Y0184937D01*
X0043374Y0177063D01*
X0039437Y0173126D01*
X0071563Y0202126D02*
X0079437Y0202126D01*
X0083374Y0206063D01*
X0083374Y0213937D01*
X0079437Y0217874D01*
X0071563Y0217874D01*
X0067626Y0213937D01*
X0067626Y0206063D01*
X0071563Y0202126D01*
D15*
X0066400Y0206467D02*
X0066033Y0206100D01*
X0065299Y0206100D01*
X0064932Y0206467D01*
X0064190Y0206100D02*
X0062722Y0207568D01*
X0062722Y0207935D01*
X0063089Y0208302D01*
X0063823Y0208302D01*
X0064190Y0207935D01*
X0064932Y0207935D02*
X0065299Y0208302D01*
X0066033Y0208302D01*
X0066400Y0207935D01*
X0066400Y0206467D01*
X0064190Y0206100D02*
X0062722Y0206100D01*
X0062589Y0214100D02*
X0062222Y0214467D01*
X0062222Y0214834D01*
X0062589Y0215201D01*
X0063690Y0215201D01*
X0063690Y0214467D01*
X0063323Y0214100D01*
X0062589Y0214100D01*
X0063690Y0215201D02*
X0062956Y0215935D01*
X0062222Y0216302D01*
X0064432Y0215935D02*
X0064799Y0216302D01*
X0065533Y0216302D01*
X0065900Y0215935D01*
X0065900Y0214467D01*
X0065533Y0214100D01*
X0064799Y0214100D01*
X0064432Y0214467D01*
X0070967Y0188278D02*
X0070600Y0187911D01*
X0070600Y0187177D01*
X0070967Y0186810D01*
X0070600Y0186068D02*
X0071334Y0185334D01*
X0071334Y0185701D02*
X0071334Y0184600D01*
X0070600Y0184600D02*
X0072802Y0184600D01*
X0072802Y0185701D01*
X0072435Y0186068D01*
X0071701Y0186068D01*
X0071334Y0185701D01*
X0072435Y0186810D02*
X0072802Y0187177D01*
X0072802Y0187911D01*
X0072435Y0188278D01*
X0072068Y0188278D01*
X0071701Y0187911D01*
X0071334Y0188278D01*
X0070967Y0188278D01*
X0071701Y0187911D02*
X0071701Y0187544D01*
X0076600Y0187911D02*
X0076600Y0187177D01*
X0076967Y0186810D01*
X0077701Y0186810D02*
X0078068Y0187544D01*
X0078068Y0187911D01*
X0077701Y0188278D01*
X0076967Y0188278D01*
X0076600Y0187911D01*
X0077701Y0186810D02*
X0078802Y0186810D01*
X0078802Y0188278D01*
X0078435Y0186068D02*
X0078802Y0185701D01*
X0078802Y0184967D01*
X0078435Y0184600D01*
X0076967Y0184600D01*
X0076600Y0184967D01*
X0076600Y0185701D01*
X0076967Y0186068D01*
X0077956Y0182302D02*
X0077956Y0180100D01*
X0078690Y0180100D02*
X0077222Y0180100D01*
X0078690Y0181568D02*
X0077956Y0182302D01*
X0079432Y0181935D02*
X0079432Y0181201D01*
X0079799Y0180834D01*
X0080900Y0180834D01*
X0080166Y0180834D02*
X0079432Y0180100D01*
X0080900Y0180100D02*
X0080900Y0182302D01*
X0079799Y0182302D01*
X0079432Y0181935D01*
X0081200Y0184180D02*
X0083402Y0184180D01*
X0083402Y0185281D01*
X0083035Y0185648D01*
X0082301Y0185648D01*
X0081934Y0185281D01*
X0081934Y0184180D01*
X0081934Y0184914D02*
X0081200Y0185648D01*
X0082301Y0186390D02*
X0082301Y0187858D01*
X0081200Y0187491D02*
X0083402Y0187491D01*
X0082301Y0186390D01*
X0080953Y0176402D02*
X0080219Y0176402D01*
X0079852Y0176035D01*
X0079110Y0175668D02*
X0078376Y0176402D01*
X0078376Y0174200D01*
X0079110Y0174200D02*
X0077642Y0174200D01*
X0079852Y0174567D02*
X0080219Y0174200D01*
X0080953Y0174200D01*
X0081320Y0174567D01*
X0081320Y0176035D01*
X0080953Y0176402D01*
X0078033Y0159302D02*
X0077299Y0159302D01*
X0076932Y0158935D01*
X0076190Y0158935D02*
X0075823Y0159302D01*
X0075089Y0159302D01*
X0074722Y0158935D01*
X0074722Y0158568D01*
X0075089Y0158201D01*
X0074722Y0157834D01*
X0074722Y0157467D01*
X0075089Y0157100D01*
X0075823Y0157100D01*
X0076190Y0157467D01*
X0076932Y0157467D02*
X0077299Y0157100D01*
X0078033Y0157100D01*
X0078400Y0157467D01*
X0078400Y0158935D01*
X0078033Y0159302D01*
X0075456Y0158201D02*
X0075089Y0158201D01*
X0073980Y0158201D02*
X0073246Y0158568D01*
X0072879Y0158568D01*
X0072512Y0158201D01*
X0072512Y0157467D01*
X0072879Y0157100D01*
X0073613Y0157100D01*
X0073980Y0157467D01*
X0073980Y0158201D02*
X0073980Y0159302D01*
X0072512Y0159302D01*
X0073379Y0151302D02*
X0074480Y0150201D01*
X0073012Y0150201D01*
X0073379Y0149100D02*
X0073379Y0151302D01*
X0075222Y0150935D02*
X0075222Y0150568D01*
X0075589Y0150201D01*
X0075222Y0149834D01*
X0075222Y0149467D01*
X0075589Y0149100D01*
X0076323Y0149100D01*
X0076690Y0149467D01*
X0077432Y0149467D02*
X0077799Y0149100D01*
X0078533Y0149100D01*
X0078900Y0149467D01*
X0078900Y0150935D01*
X0078533Y0151302D01*
X0077799Y0151302D01*
X0077432Y0150935D01*
X0076690Y0150935D02*
X0076323Y0151302D01*
X0075589Y0151302D01*
X0075222Y0150935D01*
X0075589Y0150201D02*
X0075956Y0150201D01*
X0075589Y0143402D02*
X0075222Y0143035D01*
X0075222Y0142668D01*
X0075589Y0142301D01*
X0075222Y0141934D01*
X0075222Y0141567D01*
X0075589Y0141200D01*
X0076323Y0141200D01*
X0076690Y0141567D01*
X0077432Y0141567D02*
X0077799Y0141200D01*
X0078533Y0141200D01*
X0078900Y0141567D01*
X0078900Y0143035D01*
X0078533Y0143402D01*
X0077799Y0143402D01*
X0077432Y0143035D01*
X0076690Y0143035D02*
X0076323Y0143402D01*
X0075589Y0143402D01*
X0075589Y0142301D02*
X0075956Y0142301D01*
X0074480Y0143035D02*
X0074113Y0143402D01*
X0073379Y0143402D01*
X0073012Y0143035D01*
X0073012Y0142668D01*
X0073379Y0142301D01*
X0073012Y0141934D01*
X0073012Y0141567D01*
X0073379Y0141200D01*
X0074113Y0141200D01*
X0074480Y0141567D01*
X0073746Y0142301D02*
X0073379Y0142301D01*
X0073379Y0135502D02*
X0073012Y0135135D01*
X0074480Y0133667D01*
X0074113Y0133300D01*
X0073379Y0133300D01*
X0073012Y0133667D01*
X0073012Y0135135D01*
X0073379Y0135502D02*
X0074113Y0135502D01*
X0074480Y0135135D01*
X0074480Y0133667D01*
X0075222Y0133300D02*
X0076690Y0133300D01*
X0075956Y0133300D02*
X0075956Y0135502D01*
X0076690Y0134768D01*
X0077432Y0135135D02*
X0077799Y0135502D01*
X0078900Y0135502D01*
X0078900Y0133300D01*
X0078900Y0134034D02*
X0077799Y0134034D01*
X0077432Y0134401D01*
X0077432Y0135135D01*
X0078166Y0134034D02*
X0077432Y0133300D01*
X0091100Y0125121D02*
X0091467Y0125488D01*
X0092935Y0125488D01*
X0093302Y0125121D01*
X0093302Y0124387D01*
X0092935Y0124020D01*
X0092568Y0124020D01*
X0092201Y0124387D01*
X0092201Y0125488D01*
X0091100Y0125121D02*
X0091100Y0124387D01*
X0091467Y0124020D01*
X0091100Y0123278D02*
X0091100Y0121810D01*
X0091100Y0122544D02*
X0093302Y0122544D01*
X0092568Y0121810D01*
X0092935Y0121068D02*
X0092201Y0121068D01*
X0091834Y0120701D01*
X0091834Y0119600D01*
X0091834Y0120334D02*
X0091100Y0121068D01*
X0091100Y0119600D02*
X0093302Y0119600D01*
X0093302Y0120701D01*
X0092935Y0121068D01*
X0093201Y0112488D02*
X0092467Y0112488D01*
X0092100Y0112121D01*
X0092100Y0111387D01*
X0092467Y0111020D01*
X0093201Y0111020D02*
X0093568Y0111754D01*
X0093568Y0112121D01*
X0093201Y0112488D01*
X0094302Y0112488D02*
X0094302Y0111020D01*
X0093201Y0111020D01*
X0093201Y0110278D02*
X0093201Y0108810D01*
X0094302Y0109911D01*
X0092100Y0109911D01*
X0092467Y0108068D02*
X0092100Y0107701D01*
X0092100Y0106967D01*
X0092467Y0106600D01*
X0093935Y0106600D01*
X0094302Y0106967D01*
X0094302Y0107701D01*
X0093935Y0108068D01*
X0082593Y0115979D02*
X0082226Y0115612D01*
X0081492Y0115612D01*
X0081125Y0115979D01*
X0081125Y0117447D01*
X0081492Y0117814D01*
X0082226Y0117814D01*
X0082593Y0117447D01*
X0082593Y0115979D01*
X0081859Y0116346D02*
X0081125Y0115612D01*
X0080383Y0115979D02*
X0080016Y0115612D01*
X0079282Y0115612D01*
X0078915Y0115979D01*
X0078915Y0116346D01*
X0079282Y0116713D01*
X0080383Y0116713D01*
X0080383Y0115979D01*
X0080383Y0116713D02*
X0079649Y0117447D01*
X0078915Y0117814D01*
X0068302Y0112121D02*
X0067201Y0111020D01*
X0067201Y0112488D01*
X0066100Y0112121D02*
X0068302Y0112121D01*
X0067201Y0110278D02*
X0067201Y0108810D01*
X0068302Y0109911D01*
X0066100Y0109911D01*
X0066467Y0108068D02*
X0066100Y0107701D01*
X0066100Y0106967D01*
X0066467Y0106600D01*
X0067935Y0106600D01*
X0068302Y0106967D01*
X0068302Y0107701D01*
X0067935Y0108068D01*
X0056302Y0114967D02*
X0056302Y0115701D01*
X0055935Y0116068D01*
X0055935Y0116810D02*
X0056302Y0117177D01*
X0056302Y0117911D01*
X0055935Y0118278D01*
X0055568Y0118278D01*
X0055201Y0117911D01*
X0054834Y0118278D01*
X0054467Y0118278D01*
X0054100Y0117911D01*
X0054100Y0117177D01*
X0054467Y0116810D01*
X0054467Y0116068D02*
X0054100Y0115701D01*
X0054100Y0114967D01*
X0054467Y0114600D01*
X0055935Y0114600D01*
X0056302Y0114967D01*
X0055201Y0117544D02*
X0055201Y0117911D01*
X0055935Y0119020D02*
X0056302Y0119387D01*
X0056302Y0120121D01*
X0055935Y0120488D01*
X0055568Y0120488D01*
X0054100Y0119020D01*
X0054100Y0120488D01*
X0048802Y0120121D02*
X0048802Y0119387D01*
X0048435Y0119020D01*
X0048068Y0119020D01*
X0047701Y0119387D01*
X0047701Y0120121D01*
X0047334Y0120488D01*
X0046967Y0120488D01*
X0046600Y0120121D01*
X0046600Y0119387D01*
X0046967Y0119020D01*
X0047334Y0119020D01*
X0047701Y0119387D01*
X0047701Y0120121D02*
X0048068Y0120488D01*
X0048435Y0120488D01*
X0048802Y0120121D01*
X0048435Y0118278D02*
X0048068Y0118278D01*
X0047701Y0117911D01*
X0047334Y0118278D01*
X0046967Y0118278D01*
X0046600Y0117911D01*
X0046600Y0117177D01*
X0046967Y0116810D01*
X0046967Y0116068D02*
X0046600Y0115701D01*
X0046600Y0114967D01*
X0046967Y0114600D01*
X0048435Y0114600D01*
X0048802Y0114967D01*
X0048802Y0115701D01*
X0048435Y0116068D01*
X0048435Y0116810D02*
X0048802Y0117177D01*
X0048802Y0117911D01*
X0048435Y0118278D01*
X0047701Y0117911D02*
X0047701Y0117544D01*
X0038802Y0116411D02*
X0038802Y0115677D01*
X0038435Y0115310D01*
X0038068Y0115310D01*
X0037701Y0115677D01*
X0037701Y0116778D01*
X0038435Y0116778D02*
X0038802Y0116411D01*
X0038435Y0116778D02*
X0036967Y0116778D01*
X0036600Y0116411D01*
X0036600Y0115677D01*
X0036967Y0115310D01*
X0036600Y0114568D02*
X0037334Y0113834D01*
X0037334Y0114201D02*
X0037334Y0113100D01*
X0036600Y0113100D02*
X0038802Y0113100D01*
X0038802Y0114201D01*
X0038435Y0114568D01*
X0037701Y0114568D01*
X0037334Y0114201D01*
X0030802Y0113701D02*
X0030802Y0112600D01*
X0028600Y0112600D01*
X0029334Y0112600D02*
X0029334Y0113701D01*
X0029701Y0114068D01*
X0030435Y0114068D01*
X0030802Y0113701D01*
X0030435Y0114810D02*
X0030068Y0114810D01*
X0029701Y0115177D01*
X0029701Y0115911D01*
X0029334Y0116278D01*
X0028967Y0116278D01*
X0028600Y0115911D01*
X0028600Y0115177D01*
X0028967Y0114810D01*
X0029334Y0114810D01*
X0029701Y0115177D01*
X0029701Y0115911D02*
X0030068Y0116278D01*
X0030435Y0116278D01*
X0030802Y0115911D01*
X0030802Y0115177D01*
X0030435Y0114810D01*
X0029334Y0113334D02*
X0028600Y0114068D01*
X0016802Y0106278D02*
X0016802Y0104810D01*
X0016435Y0104068D02*
X0015701Y0104068D01*
X0015334Y0103701D01*
X0015334Y0102600D01*
X0015334Y0103334D02*
X0014600Y0104068D01*
X0014600Y0104810D02*
X0014967Y0104810D01*
X0016435Y0106278D01*
X0016802Y0106278D01*
X0016435Y0104068D02*
X0016802Y0103701D01*
X0016802Y0102600D01*
X0014600Y0102600D01*
X0093200Y0135337D02*
X0093200Y0136071D01*
X0093567Y0136438D01*
X0094301Y0137180D02*
X0094301Y0138648D01*
X0095035Y0139390D02*
X0095402Y0139757D01*
X0095402Y0140491D01*
X0095035Y0140858D01*
X0094668Y0140858D01*
X0093200Y0139390D01*
X0093200Y0140858D01*
X0093200Y0138281D02*
X0095402Y0138281D01*
X0094301Y0137180D01*
X0095035Y0136438D02*
X0095402Y0136071D01*
X0095402Y0135337D01*
X0095035Y0134970D01*
X0093567Y0134970D01*
X0093200Y0135337D01*
X0136200Y0151337D02*
X0136567Y0150970D01*
X0138035Y0150970D01*
X0138402Y0151337D01*
X0138402Y0152071D01*
X0138035Y0152438D01*
X0137668Y0153180D02*
X0138402Y0153914D01*
X0136200Y0153914D01*
X0136200Y0153180D02*
X0136200Y0154648D01*
X0136567Y0155390D02*
X0138035Y0156858D01*
X0136567Y0156858D01*
X0136200Y0156491D01*
X0136200Y0155757D01*
X0136567Y0155390D01*
X0138035Y0155390D01*
X0138402Y0155757D01*
X0138402Y0156491D01*
X0138035Y0156858D01*
X0136567Y0152438D02*
X0136200Y0152071D01*
X0136200Y0151337D01*
X0156300Y0125488D02*
X0156300Y0124020D01*
X0156300Y0124754D02*
X0158502Y0124754D01*
X0157768Y0124020D01*
X0156300Y0123278D02*
X0156300Y0121810D01*
X0156300Y0122544D02*
X0158502Y0122544D01*
X0157768Y0121810D01*
X0158135Y0121068D02*
X0157401Y0121068D01*
X0157034Y0120701D01*
X0157034Y0119600D01*
X0157034Y0120334D02*
X0156300Y0121068D01*
X0156300Y0119600D02*
X0158502Y0119600D01*
X0158502Y0120701D01*
X0158135Y0121068D01*
X0161900Y0121068D02*
X0162634Y0120334D01*
X0162634Y0120701D02*
X0162634Y0119600D01*
X0161900Y0119600D02*
X0164102Y0119600D01*
X0164102Y0120701D01*
X0163735Y0121068D01*
X0163001Y0121068D01*
X0162634Y0120701D01*
X0163368Y0121810D02*
X0164102Y0122544D01*
X0161900Y0122544D01*
X0161900Y0121810D02*
X0161900Y0123278D01*
X0161900Y0124020D02*
X0163368Y0125488D01*
X0163735Y0125488D01*
X0164102Y0125121D01*
X0164102Y0124387D01*
X0163735Y0124020D01*
X0161900Y0124020D02*
X0161900Y0125488D01*
X0186600Y0128600D02*
X0188802Y0128600D01*
X0188802Y0129701D01*
X0188435Y0130068D01*
X0187701Y0130068D01*
X0187334Y0129701D01*
X0187334Y0128600D01*
X0187334Y0129334D02*
X0186600Y0130068D01*
X0186600Y0130810D02*
X0188068Y0132278D01*
X0188435Y0132278D01*
X0188802Y0131911D01*
X0188802Y0131177D01*
X0188435Y0130810D01*
X0186600Y0130810D02*
X0186600Y0132278D01*
X0186967Y0133020D02*
X0187334Y0133020D01*
X0187701Y0133387D01*
X0187701Y0134121D01*
X0187334Y0134488D01*
X0186967Y0134488D01*
X0186600Y0134121D01*
X0186600Y0133387D01*
X0186967Y0133020D01*
X0187701Y0133387D02*
X0188068Y0133020D01*
X0188435Y0133020D01*
X0188802Y0133387D01*
X0188802Y0134121D01*
X0188435Y0134488D01*
X0188068Y0134488D01*
X0187701Y0134121D01*
X0194600Y0133020D02*
X0194967Y0133020D01*
X0196435Y0134488D01*
X0196802Y0134488D01*
X0196802Y0133020D01*
X0196435Y0132278D02*
X0196802Y0131911D01*
X0196802Y0131177D01*
X0196435Y0130810D01*
X0196435Y0130068D02*
X0195701Y0130068D01*
X0195334Y0129701D01*
X0195334Y0128600D01*
X0195334Y0129334D02*
X0194600Y0130068D01*
X0194600Y0130810D02*
X0196068Y0132278D01*
X0196435Y0132278D01*
X0194600Y0132278D02*
X0194600Y0130810D01*
X0196435Y0130068D02*
X0196802Y0129701D01*
X0196802Y0128600D01*
X0194600Y0128600D01*
X0202600Y0128600D02*
X0204802Y0128600D01*
X0204802Y0129701D01*
X0204435Y0130068D01*
X0203701Y0130068D01*
X0203334Y0129701D01*
X0203334Y0128600D01*
X0203334Y0129334D02*
X0202600Y0130068D01*
X0202600Y0130810D02*
X0204068Y0132278D01*
X0204435Y0132278D01*
X0204802Y0131911D01*
X0204802Y0131177D01*
X0204435Y0130810D01*
X0202600Y0130810D02*
X0202600Y0132278D01*
X0202967Y0133020D02*
X0202600Y0133387D01*
X0202600Y0134121D01*
X0202967Y0134488D01*
X0204435Y0134488D01*
X0204802Y0134121D01*
X0204802Y0133387D01*
X0204435Y0133020D01*
X0204068Y0133020D01*
X0203701Y0133387D01*
X0203701Y0134488D01*
X0210600Y0134121D02*
X0210600Y0133387D01*
X0210967Y0133020D01*
X0212435Y0134488D01*
X0210967Y0134488D01*
X0210600Y0134121D01*
X0210967Y0133020D02*
X0212435Y0133020D01*
X0212802Y0133387D01*
X0212802Y0134121D01*
X0212435Y0134488D01*
X0212435Y0132278D02*
X0212068Y0132278D01*
X0211701Y0131911D01*
X0211334Y0132278D01*
X0210967Y0132278D01*
X0210600Y0131911D01*
X0210600Y0131177D01*
X0210967Y0130810D01*
X0210600Y0130068D02*
X0211334Y0129334D01*
X0211334Y0129701D02*
X0211334Y0128600D01*
X0210600Y0128600D02*
X0212802Y0128600D01*
X0212802Y0129701D01*
X0212435Y0130068D01*
X0211701Y0130068D01*
X0211334Y0129701D01*
X0212435Y0130810D02*
X0212802Y0131177D01*
X0212802Y0131911D01*
X0212435Y0132278D01*
X0211701Y0131911D02*
X0211701Y0131544D01*
X0218600Y0131911D02*
X0218600Y0131177D01*
X0218967Y0130810D01*
X0218600Y0130068D02*
X0219334Y0129334D01*
X0219334Y0129701D02*
X0219334Y0128600D01*
X0218600Y0128600D02*
X0220802Y0128600D01*
X0220802Y0129701D01*
X0220435Y0130068D01*
X0219701Y0130068D01*
X0219334Y0129701D01*
X0220435Y0130810D02*
X0220802Y0131177D01*
X0220802Y0131911D01*
X0220435Y0132278D01*
X0220068Y0132278D01*
X0219701Y0131911D01*
X0219334Y0132278D01*
X0218967Y0132278D01*
X0218600Y0131911D01*
X0219701Y0131911D02*
X0219701Y0131544D01*
X0220068Y0133020D02*
X0220802Y0133754D01*
X0218600Y0133754D01*
X0218600Y0133020D02*
X0218600Y0134488D01*
X0212535Y0119358D02*
X0212168Y0119358D01*
X0211801Y0118991D01*
X0211801Y0118257D01*
X0212168Y0117890D01*
X0212535Y0117890D01*
X0212902Y0118257D01*
X0212902Y0118991D01*
X0212535Y0119358D01*
X0211801Y0118991D02*
X0211434Y0119358D01*
X0211067Y0119358D01*
X0210700Y0118991D01*
X0210700Y0118257D01*
X0211067Y0117890D01*
X0211434Y0117890D01*
X0211801Y0118257D01*
X0212535Y0117148D02*
X0212902Y0116781D01*
X0212902Y0116047D01*
X0212535Y0115680D01*
X0211067Y0115680D01*
X0210700Y0116047D01*
X0210700Y0116781D01*
X0211067Y0117148D01*
X0197402Y0116781D02*
X0197402Y0116047D01*
X0197035Y0115680D01*
X0195567Y0115680D01*
X0195200Y0116047D01*
X0195200Y0116781D01*
X0195567Y0117148D01*
X0195567Y0117890D02*
X0195200Y0118257D01*
X0195200Y0118991D01*
X0195567Y0119358D01*
X0197035Y0119358D01*
X0197402Y0118991D01*
X0197402Y0118257D01*
X0197035Y0117890D01*
X0196668Y0117890D01*
X0196301Y0118257D01*
X0196301Y0119358D01*
X0197035Y0117148D02*
X0197402Y0116781D01*
X0200467Y0163100D02*
X0200100Y0163467D01*
X0200100Y0164201D01*
X0200467Y0164568D01*
X0200100Y0165310D02*
X0201568Y0166778D01*
X0201935Y0166778D01*
X0202302Y0166411D01*
X0202302Y0165677D01*
X0201935Y0165310D01*
X0201935Y0164568D02*
X0202302Y0164201D01*
X0202302Y0163467D01*
X0201935Y0163100D01*
X0200467Y0163100D01*
X0200100Y0165310D02*
X0200100Y0166778D01*
X0200467Y0167520D02*
X0200100Y0167887D01*
X0200100Y0168621D01*
X0200467Y0168988D01*
X0200834Y0168988D01*
X0201201Y0168621D01*
X0201201Y0168254D01*
X0201201Y0168621D02*
X0201568Y0168988D01*
X0201935Y0168988D01*
X0202302Y0168621D01*
X0202302Y0167887D01*
X0201935Y0167520D01*
X0207600Y0167520D02*
X0209068Y0168988D01*
X0209435Y0168988D01*
X0209802Y0168621D01*
X0209802Y0167887D01*
X0209435Y0167520D01*
X0209435Y0166778D02*
X0209068Y0166778D01*
X0207600Y0165310D01*
X0207600Y0166778D01*
X0207600Y0167520D02*
X0207600Y0168988D01*
X0209435Y0166778D02*
X0209802Y0166411D01*
X0209802Y0165677D01*
X0209435Y0165310D01*
X0209435Y0164568D02*
X0209802Y0164201D01*
X0209802Y0163467D01*
X0209435Y0163100D01*
X0207967Y0163100D01*
X0207600Y0163467D01*
X0207600Y0164201D01*
X0207967Y0164568D01*
X0215100Y0164201D02*
X0215467Y0164568D01*
X0215100Y0164201D02*
X0215100Y0163467D01*
X0215467Y0163100D01*
X0216935Y0163100D01*
X0217302Y0163467D01*
X0217302Y0164201D01*
X0216935Y0164568D01*
X0216935Y0165310D02*
X0217302Y0165677D01*
X0217302Y0166411D01*
X0216935Y0166778D01*
X0216568Y0166778D01*
X0215100Y0165310D01*
X0215100Y0166778D01*
X0215100Y0167520D02*
X0215100Y0168988D01*
X0215100Y0168254D02*
X0217302Y0168254D01*
X0216568Y0167520D01*
X0194302Y0166411D02*
X0194302Y0165677D01*
X0193935Y0165310D01*
X0193935Y0164568D02*
X0194302Y0164201D01*
X0194302Y0163467D01*
X0193935Y0163100D01*
X0192467Y0163100D01*
X0192100Y0163467D01*
X0192100Y0164201D01*
X0192467Y0164568D01*
X0192100Y0165310D02*
X0193568Y0166778D01*
X0193935Y0166778D01*
X0194302Y0166411D01*
X0193201Y0167520D02*
X0193201Y0168621D01*
X0192834Y0168988D01*
X0192467Y0168988D01*
X0192100Y0168621D01*
X0192100Y0167887D01*
X0192467Y0167520D01*
X0193201Y0167520D01*
X0193935Y0168254D01*
X0194302Y0168988D01*
X0192100Y0166778D02*
X0192100Y0165310D01*
X0186302Y0165677D02*
X0185935Y0165310D01*
X0186302Y0165677D02*
X0186302Y0166411D01*
X0185935Y0166778D01*
X0185568Y0166778D01*
X0184100Y0165310D01*
X0184100Y0166778D01*
X0185201Y0167520D02*
X0185201Y0168988D01*
X0186302Y0168621D02*
X0185201Y0167520D01*
X0184100Y0168621D02*
X0186302Y0168621D01*
X0185935Y0164568D02*
X0186302Y0164201D01*
X0186302Y0163467D01*
X0185935Y0163100D01*
X0184467Y0163100D01*
X0184100Y0163467D01*
X0184100Y0164201D01*
X0184467Y0164568D01*
X0164402Y0207470D02*
X0162200Y0207470D01*
X0162934Y0207470D02*
X0162934Y0208571D01*
X0163301Y0208938D01*
X0164035Y0208938D01*
X0164402Y0208571D01*
X0164402Y0207470D01*
X0162934Y0208204D02*
X0162200Y0208938D01*
X0162200Y0209680D02*
X0163668Y0211148D01*
X0164035Y0211148D01*
X0164402Y0210781D01*
X0164402Y0210047D01*
X0164035Y0209680D01*
X0162200Y0209680D02*
X0162200Y0211148D01*
X0162567Y0211890D02*
X0162200Y0212257D01*
X0162200Y0212991D01*
X0162567Y0213358D01*
X0163301Y0213358D01*
X0163668Y0212991D01*
X0163668Y0212624D01*
X0163301Y0211890D01*
X0164402Y0211890D01*
X0164402Y0213358D01*
X0215200Y0212991D02*
X0215567Y0213358D01*
X0215934Y0213358D01*
X0216301Y0212991D01*
X0216301Y0211890D01*
X0215567Y0211890D01*
X0215200Y0212257D01*
X0215200Y0212991D01*
X0216301Y0211890D02*
X0217035Y0212624D01*
X0217402Y0213358D01*
X0217035Y0211148D02*
X0217402Y0210781D01*
X0217402Y0210047D01*
X0217035Y0209680D01*
X0217035Y0208938D02*
X0216301Y0208938D01*
X0215934Y0208571D01*
X0215934Y0207470D01*
X0215200Y0207470D02*
X0217402Y0207470D01*
X0217402Y0208571D01*
X0217035Y0208938D01*
X0215934Y0208204D02*
X0215200Y0208938D01*
X0215200Y0209680D02*
X0216668Y0211148D01*
X0217035Y0211148D01*
X0215200Y0211148D02*
X0215200Y0209680D01*
X0048320Y0185035D02*
X0048320Y0183567D01*
X0047953Y0183200D01*
X0047219Y0183200D01*
X0046852Y0183567D01*
X0046110Y0183567D02*
X0045743Y0183200D01*
X0045009Y0183200D01*
X0044642Y0183567D01*
X0044642Y0183934D01*
X0045009Y0184301D01*
X0045376Y0184301D01*
X0045009Y0184301D02*
X0044642Y0184668D01*
X0044642Y0185035D01*
X0045009Y0185402D01*
X0045743Y0185402D01*
X0046110Y0185035D01*
X0046852Y0185035D02*
X0047219Y0185402D01*
X0047953Y0185402D01*
X0048320Y0185035D01*
X0047953Y0174902D02*
X0048320Y0174535D01*
X0048320Y0173067D01*
X0047953Y0172700D01*
X0047219Y0172700D01*
X0046852Y0173067D01*
X0046110Y0173067D02*
X0046110Y0172700D01*
X0046110Y0173067D02*
X0044642Y0174535D01*
X0044642Y0174902D01*
X0046110Y0174902D01*
X0046852Y0174535D02*
X0047219Y0174902D01*
X0047953Y0174902D01*
X0026902Y0189180D02*
X0026902Y0190281D01*
X0026535Y0190648D01*
X0025801Y0190648D01*
X0025434Y0190281D01*
X0025434Y0189180D01*
X0024700Y0189180D02*
X0026902Y0189180D01*
X0025434Y0189914D02*
X0024700Y0190648D01*
X0024700Y0191390D02*
X0026168Y0192858D01*
X0026535Y0192858D01*
X0026902Y0192491D01*
X0026902Y0191757D01*
X0026535Y0191390D01*
X0024700Y0191390D02*
X0024700Y0192858D01*
X0013402Y0198547D02*
X0013035Y0198180D01*
X0011567Y0198180D01*
X0011200Y0198547D01*
X0011200Y0199281D01*
X0011567Y0199648D01*
X0012301Y0200390D02*
X0012301Y0201858D01*
X0013402Y0201491D02*
X0012301Y0200390D01*
X0013035Y0199648D02*
X0013402Y0199281D01*
X0013402Y0198547D01*
X0013402Y0201491D02*
X0011200Y0201491D01*
X0007802Y0192778D02*
X0007802Y0191310D01*
X0006701Y0191310D01*
X0007068Y0192044D01*
X0007068Y0192411D01*
X0006701Y0192778D01*
X0005967Y0192778D01*
X0005600Y0192411D01*
X0005600Y0191677D01*
X0005967Y0191310D01*
X0005600Y0190568D02*
X0006334Y0189834D01*
X0006334Y0190201D02*
X0006334Y0189100D01*
X0005600Y0189100D02*
X0007802Y0189100D01*
X0007802Y0190201D01*
X0007435Y0190568D01*
X0006701Y0190568D01*
X0006334Y0190201D01*
X0209650Y0025091D02*
X0209650Y0024357D01*
X0210017Y0023990D01*
X0209650Y0023248D02*
X0209650Y0021780D01*
X0209650Y0022514D02*
X0211852Y0022514D01*
X0211118Y0021780D01*
X0211485Y0021038D02*
X0210751Y0021038D01*
X0210384Y0020671D01*
X0210384Y0019570D01*
X0209650Y0019570D02*
X0211852Y0019570D01*
X0211852Y0020671D01*
X0211485Y0021038D01*
X0210384Y0020304D02*
X0209650Y0021038D01*
X0211485Y0023990D02*
X0211852Y0024357D01*
X0211852Y0025091D01*
X0211485Y0025458D01*
X0211118Y0025458D01*
X0210751Y0025091D01*
X0210384Y0025458D01*
X0210017Y0025458D01*
X0209650Y0025091D01*
X0210751Y0025091D02*
X0210751Y0024724D01*
X0214250Y0025091D02*
X0216452Y0025091D01*
X0215351Y0023990D01*
X0215351Y0025458D01*
X0214250Y0023248D02*
X0214250Y0021780D01*
X0214250Y0022514D02*
X0216452Y0022514D01*
X0215718Y0021780D01*
X0216085Y0021038D02*
X0215351Y0021038D01*
X0214984Y0020671D01*
X0214984Y0019570D01*
X0214250Y0019570D02*
X0216452Y0019570D01*
X0216452Y0020671D01*
X0216085Y0021038D01*
X0214984Y0020304D02*
X0214250Y0021038D01*
X0116902Y0021414D02*
X0114700Y0021414D01*
X0114700Y0020680D02*
X0114700Y0022148D01*
X0115067Y0022890D02*
X0114700Y0023257D01*
X0114700Y0023991D01*
X0115067Y0024358D01*
X0115434Y0024358D01*
X0115801Y0023991D01*
X0115801Y0022890D01*
X0115067Y0022890D01*
X0115801Y0022890D02*
X0116535Y0023624D01*
X0116902Y0024358D01*
X0116902Y0021414D02*
X0116168Y0020680D01*
X0116535Y0019938D02*
X0115801Y0019938D01*
X0115434Y0019571D01*
X0115434Y0018470D01*
X0114700Y0018470D02*
X0116902Y0018470D01*
X0116902Y0019571D01*
X0116535Y0019938D01*
X0115434Y0019204D02*
X0114700Y0019938D01*
X0111902Y0019571D02*
X0111535Y0019938D01*
X0110801Y0019938D01*
X0110434Y0019571D01*
X0110434Y0018470D01*
X0109700Y0018470D02*
X0111902Y0018470D01*
X0111902Y0019571D01*
X0111168Y0020680D02*
X0111902Y0021414D01*
X0109700Y0021414D01*
X0109700Y0020680D02*
X0109700Y0022148D01*
X0109700Y0022890D02*
X0110067Y0022890D01*
X0111535Y0024358D01*
X0111902Y0024358D01*
X0111902Y0022890D01*
X0109700Y0019938D02*
X0110434Y0019204D01*
M02*
