%
M48
M72
T01C0.01200
T02C0.01575
T03C0.01969
T04C0.02362
T05C0.03543
T06C0.03622
T07C0.04000
T08C0.04331
T09C0.04724
T10C0.06299
T11C0.06693
T12C0.09055
T13C0.11024
T14C0.12598
%
T01
X14500Y6500
X7500Y15500
X16500Y26000
X5500Y34000
X11000Y44500
X23500Y44500
X33500Y36000
X43500Y36000
X49000Y29000
X59500Y29500
X61000Y36500
X54500Y40500
X56000Y51000
X43500Y47500
X29500Y55500
X38409Y69000
X33500Y72500
X28961Y78500
X32500Y83000
X42000Y84000
X42000Y74000
X54000Y73500
X54000Y83500
X67600Y85500
X70400Y85500
X70500Y73500
X86000Y55000
X94500Y55000
X92500Y47500
X101000Y38000
X104800Y33300
X108800Y33300
X112700Y33300
X116700Y33300
X125000Y30500
X138500Y21500
X147000Y21500
X155500Y12000
X166000Y17500
X171500Y13000
X177500Y18000
X182500Y12500
X189000Y18000
X195000Y12500
X201500Y18000
X206500Y13000
X211000Y18000
X215500Y18500
X228500Y21000
X235500Y12500
X243500Y6000
X226000Y7000
X219500Y7500
X241500Y21000
X266000Y29500
X281000Y32000
X280000Y15000
X271500Y7000
X216200Y44800
X212200Y44800
X208300Y44800
X204300Y44800
X197500Y47000
X195000Y55500
X191500Y55500
X203500Y54500
X219500Y51000
X222000Y68500
X226000Y71500
X231500Y71000
X237500Y80500
X253000Y80500
X230000Y107500
X212500Y105500
X200500Y118500
X214500Y119500
X229500Y122500
X217500Y141000
X230000Y144500
X227500Y159000
X229500Y176000
X244000Y179500
X238000Y190000
X228000Y202000
X227000Y214500
X216000Y218500
X214500Y208000
X195500Y205500
X200000Y194000
X209500Y189000
X222000Y190000
X206500Y175500
X195500Y180500
X185000Y175500
X182000Y185500
X185000Y193500
X176000Y208000
X174000Y218000
X160500Y212500
X159500Y218000
X141000Y214000
X147500Y202500
X142000Y192000
X154500Y191500
X162500Y201000
X136000Y179000
X125000Y187500
X114500Y186500
X122500Y176000
X122500Y165000
X116000Y158000
X108000Y166500
X99500Y158000
X97000Y148000
X94500Y142500
X108000Y144000
X127500Y146500
X140000Y143000
X153500Y156500
X165000Y158500
X173000Y167500
X176500Y152000
X172000Y141000
X160500Y147000
X138000Y165500
X152500Y171000
X130000Y203000
X124000Y214500
X113500Y203500
X102000Y201000
X96500Y208000
X88500Y213500
X81000Y210500
X72000Y210000
X64500Y218000
X43500Y215000
X41000Y219000
X18000Y218500
X9000Y213500
X5500Y203500
X14500Y203000
X15000Y199000
X25000Y184000
X13000Y175500
X18000Y171000
X10500Y167500
X23000Y161000
X30500Y163000
X27500Y169000
X37500Y170000
X40500Y167000
X47500Y170000
X50500Y166500
X55500Y166500
X58900Y165000
X62350Y170000
X73500Y159500
X77500Y162500
X78500Y170500
X85000Y176000
X80000Y177000
X86000Y183500
X96000Y186500
X96500Y176000
X89500Y166000
X73500Y150500
X73483Y146990
X73483Y139000
X73433Y127540
X69000Y124500
X75000Y122000
X73500Y119000
X70500Y117500
X61490Y116990
X59510Y115010
X55500Y115500
X47500Y114000
X43000Y104000
X63100Y101000
X65900Y101000
X93000Y102500
X103500Y102000
X114500Y105500
X129000Y103500
X137000Y108000
X140500Y110000
X148000Y120000
X141000Y125500
X156000Y126500
X177000Y120000
X186000Y118000
X177500Y110500
X178000Y101000
X163500Y109500
X161000Y101500
X150500Y102500
X165000Y88000
X176000Y87000
X184500Y79500
X177000Y71500
X172350Y75000
X169012Y75012
X162000Y74500
X156500Y79500
X154000Y86500
X148500Y86500
X144500Y86000
X135000Y88000
X120555Y76445
X118445Y78555
X117173Y69500
X113827Y69500
X110173Y69500
X106827Y69500
X125000Y71000
X145500Y75000
X158500Y32000
X129500Y12000
X120000Y7500
X116000Y17000
X111000Y17000
X106500Y11500
X102000Y18000
X95500Y11000
X89000Y18000
X83000Y11500
X77000Y17500
X66000Y18000
X66500Y12000
X52500Y15000
X44000Y6500
X69727Y33500
X73073Y33500
X81527Y33500
X84873Y33500
X93327Y33500
X96673Y33500
X20693Y88000
X12000Y90500
X5600Y83500
X16500Y78000
X5600Y73000
X14000Y66000
X11000Y57500
X11000Y109500
X33500Y127500
X27000Y130000
X30500Y134500
X26000Y138500
X22000Y143500
X24500Y146000
X28000Y151000
X30500Y154000
X24500Y153000
X21000Y151500
X39000Y121000
X100000Y126000
X74000Y186000
X55500Y191000
X55500Y194000
X55500Y197000
X88500Y201000
X106500Y214000
X196000Y218500
X241000Y205500
X244000Y218500
X271500Y216000
X280000Y201000
X267000Y196000
X259500Y188000
X260500Y170000
X218500Y93500
X215500Y87500
X208000Y93500
X200000Y87000
X211500Y80000
X199000Y74000
X206500Y69000
T02
X46500Y181000
X64500Y206000
X27000Y122000
X27000Y117000
T03
X27000Y175000
T04
X41000Y155500
X48000Y155500
X48000Y148500
X41000Y148500
X41000Y141500
X48000Y141500
X48000Y134500
X41000Y134500
X55000Y134500
X62000Y134500
X62000Y141500
X55000Y141500
X55000Y148500
X62000Y148500
X62000Y155500
X55000Y155500
X86000Y218000
T05
X182520Y154000
X192520Y154000
X202520Y154000
X212520Y154000
X207520Y144000
X197520Y144000
X187520Y144000
X177520Y144000
T06
X144780Y170870
X134937Y170870
X127063Y170870
X117220Y170870
T07
X170000Y125000
X170000Y115000
X170000Y105000
X127000Y112500
X127000Y122500
X117000Y122500
X107000Y122500
X107000Y112500
X117000Y112500
X48500Y50000
X38500Y50000
X28500Y50000
X18500Y50000
X18500Y40000
X28500Y40000
X38500Y40000
X48500Y40000
X18000Y180500
X8000Y180500
X227000Y52500
X237000Y52500
X237000Y42500
X227000Y42500
X227000Y32500
X237000Y32500
T08
X221102Y198291
X211102Y198291
X178898Y198291
X168898Y198291
X11441Y78500
T09
X254315Y46000
X274000Y46000
X275185Y177500
X255500Y177500
T10
X274433Y78500
T11
X225512Y166992
X164488Y166992
T12
X156866Y181500
X105134Y181500
T13
X29453Y207799
X257012Y207799
X257012Y15673
X29453Y15673
T14
X172500Y179000
X217500Y179000
M30
