G75*
%MOIN*%
%OFA0B0*%
%FSLAX25Y25*%
%IPPOS*%
%LPD*%
%AMOC8*
5,1,8,0,0,1.08239X$1,22.5*
%
%ADD10C,0.00000*%
%ADD11C,0.06000*%
%ADD12C,0.15024*%
%ADD13C,0.07087*%
%ADD14C,0.05315*%
%ADD15C,0.06496*%
%ADD16C,0.13055*%
%ADD17C,0.05433*%
%ADD18C,0.03200*%
%ADD19C,0.02375*%
%ADD20C,0.02000*%
%ADD21C,0.01600*%
%ADD22C,0.01000*%
%ADD23C,0.03543*%
%ADD24C,0.02953*%
%ADD25C,0.00800*%
D10*
X0015673Y0001500D02*
X0270791Y0001500D01*
X0271133Y0001504D01*
X0271476Y0001517D01*
X0271818Y0001537D01*
X0272159Y0001566D01*
X0272499Y0001603D01*
X0272839Y0001649D01*
X0273177Y0001702D01*
X0273514Y0001764D01*
X0273849Y0001834D01*
X0274183Y0001912D01*
X0274514Y0001998D01*
X0274844Y0002092D01*
X0275171Y0002194D01*
X0275495Y0002303D01*
X0275817Y0002421D01*
X0276136Y0002546D01*
X0276451Y0002679D01*
X0276764Y0002820D01*
X0277072Y0002968D01*
X0277378Y0003123D01*
X0277679Y0003286D01*
X0277976Y0003456D01*
X0278269Y0003633D01*
X0278558Y0003818D01*
X0278842Y0004009D01*
X0279122Y0004207D01*
X0279396Y0004411D01*
X0279666Y0004623D01*
X0279930Y0004840D01*
X0280189Y0005064D01*
X0280443Y0005295D01*
X0280691Y0005531D01*
X0280933Y0005773D01*
X0281169Y0006021D01*
X0281400Y0006275D01*
X0281624Y0006534D01*
X0281841Y0006798D01*
X0282053Y0007068D01*
X0282257Y0007342D01*
X0282455Y0007622D01*
X0282646Y0007906D01*
X0282831Y0008195D01*
X0283008Y0008488D01*
X0283178Y0008785D01*
X0283341Y0009086D01*
X0283496Y0009392D01*
X0283644Y0009700D01*
X0283785Y0010013D01*
X0283918Y0010328D01*
X0284043Y0010647D01*
X0284161Y0010969D01*
X0284270Y0011293D01*
X0284372Y0011620D01*
X0284466Y0011950D01*
X0284552Y0012281D01*
X0284630Y0012615D01*
X0284700Y0012950D01*
X0284762Y0013287D01*
X0284815Y0013625D01*
X0284861Y0013965D01*
X0284898Y0014305D01*
X0284927Y0014646D01*
X0284947Y0014988D01*
X0284960Y0015331D01*
X0284964Y0015673D01*
X0284965Y0015673D02*
X0284965Y0207799D01*
X0284964Y0207799D02*
X0284960Y0208141D01*
X0284947Y0208484D01*
X0284927Y0208826D01*
X0284898Y0209167D01*
X0284861Y0209507D01*
X0284815Y0209847D01*
X0284762Y0210185D01*
X0284700Y0210522D01*
X0284630Y0210857D01*
X0284552Y0211191D01*
X0284466Y0211522D01*
X0284372Y0211852D01*
X0284270Y0212179D01*
X0284161Y0212503D01*
X0284043Y0212825D01*
X0283918Y0213144D01*
X0283785Y0213459D01*
X0283644Y0213772D01*
X0283496Y0214080D01*
X0283341Y0214386D01*
X0283178Y0214687D01*
X0283008Y0214984D01*
X0282831Y0215277D01*
X0282646Y0215566D01*
X0282455Y0215850D01*
X0282257Y0216130D01*
X0282053Y0216404D01*
X0281841Y0216674D01*
X0281624Y0216938D01*
X0281400Y0217197D01*
X0281169Y0217451D01*
X0280933Y0217699D01*
X0280691Y0217941D01*
X0280443Y0218177D01*
X0280189Y0218408D01*
X0279930Y0218632D01*
X0279666Y0218849D01*
X0279396Y0219061D01*
X0279122Y0219265D01*
X0278842Y0219463D01*
X0278558Y0219654D01*
X0278269Y0219839D01*
X0277976Y0220016D01*
X0277679Y0220186D01*
X0277378Y0220349D01*
X0277072Y0220504D01*
X0276764Y0220652D01*
X0276451Y0220793D01*
X0276136Y0220926D01*
X0275817Y0221051D01*
X0275495Y0221169D01*
X0275171Y0221278D01*
X0274844Y0221380D01*
X0274514Y0221474D01*
X0274183Y0221560D01*
X0273849Y0221638D01*
X0273514Y0221708D01*
X0273177Y0221770D01*
X0272839Y0221823D01*
X0272499Y0221869D01*
X0272159Y0221906D01*
X0271818Y0221935D01*
X0271476Y0221955D01*
X0271133Y0221968D01*
X0270791Y0221972D01*
X0015673Y0221972D01*
X0015342Y0221980D01*
X0015012Y0221980D01*
X0014681Y0221972D01*
X0014351Y0221956D01*
X0014021Y0221932D01*
X0013692Y0221901D01*
X0013364Y0221861D01*
X0013037Y0221813D01*
X0012711Y0221758D01*
X0012386Y0221694D01*
X0012063Y0221623D01*
X0011742Y0221544D01*
X0011423Y0221457D01*
X0011107Y0221363D01*
X0010792Y0221261D01*
X0010480Y0221151D01*
X0010171Y0221034D01*
X0009865Y0220909D01*
X0009562Y0220777D01*
X0009262Y0220638D01*
X0008965Y0220492D01*
X0008672Y0220338D01*
X0008383Y0220177D01*
X0008098Y0220010D01*
X0007817Y0219836D01*
X0007541Y0219654D01*
X0007269Y0219467D01*
X0007001Y0219272D01*
X0006738Y0219072D01*
X0006480Y0218865D01*
X0006228Y0218652D01*
X0005980Y0218433D01*
X0005738Y0218207D01*
X0005501Y0217977D01*
X0005270Y0217740D01*
X0005045Y0217498D01*
X0004826Y0217251D01*
X0004612Y0216998D01*
X0004405Y0216740D01*
X0004204Y0216478D01*
X0004010Y0216210D01*
X0003822Y0215938D01*
X0003641Y0215662D01*
X0003466Y0215381D01*
X0003299Y0215096D01*
X0003138Y0214807D01*
X0002984Y0214514D01*
X0002838Y0214218D01*
X0002698Y0213918D01*
X0002566Y0213615D01*
X0002441Y0213309D01*
X0002324Y0213000D01*
X0002214Y0212688D01*
X0002112Y0212373D01*
X0002017Y0212057D01*
X0001930Y0211738D01*
X0001851Y0211417D01*
X0001779Y0211094D01*
X0001716Y0210769D01*
X0001660Y0210443D01*
X0001612Y0210116D01*
X0001572Y0209788D01*
X0001540Y0209459D01*
X0001516Y0209129D01*
X0001500Y0208799D01*
X0001500Y0016673D01*
X0001492Y0016318D01*
X0001492Y0015963D01*
X0001502Y0015609D01*
X0001520Y0015254D01*
X0001546Y0014901D01*
X0001581Y0014548D01*
X0001625Y0014195D01*
X0001677Y0013845D01*
X0001737Y0013495D01*
X0001806Y0013147D01*
X0001884Y0012801D01*
X0001969Y0012456D01*
X0002063Y0012114D01*
X0002165Y0011774D01*
X0002276Y0011437D01*
X0002394Y0011103D01*
X0002521Y0010771D01*
X0002655Y0010443D01*
X0002798Y0010118D01*
X0002948Y0009797D01*
X0003106Y0009479D01*
X0003271Y0009165D01*
X0003445Y0008855D01*
X0003625Y0008550D01*
X0003813Y0008249D01*
X0004008Y0007953D01*
X0004210Y0007661D01*
X0004419Y0007375D01*
X0004635Y0007093D01*
X0004858Y0006817D01*
X0005088Y0006546D01*
X0005323Y0006281D01*
X0005566Y0006022D01*
X0005814Y0005769D01*
X0006068Y0005521D01*
X0006329Y0005280D01*
X0006595Y0005046D01*
X0006867Y0004817D01*
X0007144Y0004596D01*
X0007426Y0004381D01*
X0007714Y0004173D01*
X0008006Y0003972D01*
X0008303Y0003778D01*
X0008605Y0003592D01*
X0008911Y0003413D01*
X0009222Y0003241D01*
X0009536Y0003077D01*
X0009855Y0002920D01*
X0010177Y0002771D01*
X0010502Y0002630D01*
X0010831Y0002497D01*
X0011163Y0002372D01*
X0011498Y0002255D01*
X0011836Y0002146D01*
X0012176Y0002046D01*
X0012518Y0001953D01*
X0012863Y0001869D01*
X0013210Y0001793D01*
X0013558Y0001726D01*
X0013908Y0001667D01*
X0014259Y0001616D01*
X0014611Y0001574D01*
X0014965Y0001541D01*
X0015319Y0001516D01*
X0015673Y0001500D01*
X0009776Y0075500D02*
X0009778Y0075593D01*
X0009784Y0075685D01*
X0009794Y0075777D01*
X0009808Y0075868D01*
X0009825Y0075959D01*
X0009847Y0076049D01*
X0009872Y0076138D01*
X0009901Y0076226D01*
X0009934Y0076312D01*
X0009971Y0076397D01*
X0010011Y0076481D01*
X0010055Y0076562D01*
X0010102Y0076642D01*
X0010152Y0076720D01*
X0010206Y0076795D01*
X0010263Y0076868D01*
X0010323Y0076938D01*
X0010386Y0077006D01*
X0010452Y0077071D01*
X0010520Y0077133D01*
X0010591Y0077193D01*
X0010665Y0077249D01*
X0010741Y0077302D01*
X0010819Y0077351D01*
X0010899Y0077398D01*
X0010981Y0077440D01*
X0011065Y0077480D01*
X0011150Y0077515D01*
X0011237Y0077547D01*
X0011325Y0077576D01*
X0011414Y0077600D01*
X0011504Y0077621D01*
X0011595Y0077637D01*
X0011687Y0077650D01*
X0011779Y0077659D01*
X0011872Y0077664D01*
X0011964Y0077665D01*
X0012057Y0077662D01*
X0012149Y0077655D01*
X0012241Y0077644D01*
X0012332Y0077629D01*
X0012423Y0077611D01*
X0012513Y0077588D01*
X0012601Y0077562D01*
X0012689Y0077532D01*
X0012775Y0077498D01*
X0012859Y0077461D01*
X0012942Y0077419D01*
X0013023Y0077375D01*
X0013103Y0077327D01*
X0013180Y0077276D01*
X0013254Y0077221D01*
X0013327Y0077163D01*
X0013397Y0077103D01*
X0013464Y0077039D01*
X0013528Y0076973D01*
X0013590Y0076903D01*
X0013648Y0076832D01*
X0013703Y0076758D01*
X0013755Y0076681D01*
X0013804Y0076602D01*
X0013850Y0076522D01*
X0013892Y0076439D01*
X0013930Y0076355D01*
X0013965Y0076269D01*
X0013996Y0076182D01*
X0014023Y0076094D01*
X0014046Y0076004D01*
X0014066Y0075914D01*
X0014082Y0075823D01*
X0014094Y0075731D01*
X0014102Y0075639D01*
X0014106Y0075546D01*
X0014106Y0075454D01*
X0014102Y0075361D01*
X0014094Y0075269D01*
X0014082Y0075177D01*
X0014066Y0075086D01*
X0014046Y0074996D01*
X0014023Y0074906D01*
X0013996Y0074818D01*
X0013965Y0074731D01*
X0013930Y0074645D01*
X0013892Y0074561D01*
X0013850Y0074478D01*
X0013804Y0074398D01*
X0013755Y0074319D01*
X0013703Y0074242D01*
X0013648Y0074168D01*
X0013590Y0074097D01*
X0013528Y0074027D01*
X0013464Y0073961D01*
X0013397Y0073897D01*
X0013327Y0073837D01*
X0013254Y0073779D01*
X0013180Y0073724D01*
X0013103Y0073673D01*
X0013024Y0073625D01*
X0012942Y0073581D01*
X0012859Y0073539D01*
X0012775Y0073502D01*
X0012689Y0073468D01*
X0012601Y0073438D01*
X0012513Y0073412D01*
X0012423Y0073389D01*
X0012332Y0073371D01*
X0012241Y0073356D01*
X0012149Y0073345D01*
X0012057Y0073338D01*
X0011964Y0073335D01*
X0011872Y0073336D01*
X0011779Y0073341D01*
X0011687Y0073350D01*
X0011595Y0073363D01*
X0011504Y0073379D01*
X0011414Y0073400D01*
X0011325Y0073424D01*
X0011237Y0073453D01*
X0011150Y0073485D01*
X0011065Y0073520D01*
X0010981Y0073560D01*
X0010899Y0073602D01*
X0010819Y0073649D01*
X0010741Y0073698D01*
X0010665Y0073751D01*
X0010591Y0073807D01*
X0010520Y0073867D01*
X0010452Y0073929D01*
X0010386Y0073994D01*
X0010323Y0074062D01*
X0010263Y0074132D01*
X0010206Y0074205D01*
X0010152Y0074280D01*
X0010102Y0074358D01*
X0010055Y0074438D01*
X0010011Y0074519D01*
X0009971Y0074603D01*
X0009934Y0074688D01*
X0009901Y0074774D01*
X0009872Y0074862D01*
X0009847Y0074951D01*
X0009825Y0075041D01*
X0009808Y0075132D01*
X0009794Y0075223D01*
X0009784Y0075315D01*
X0009778Y0075407D01*
X0009776Y0075500D01*
X0161142Y0166992D02*
X0161144Y0167107D01*
X0161150Y0167223D01*
X0161160Y0167338D01*
X0161174Y0167453D01*
X0161192Y0167567D01*
X0161214Y0167680D01*
X0161239Y0167793D01*
X0161269Y0167904D01*
X0161302Y0168015D01*
X0161339Y0168124D01*
X0161380Y0168232D01*
X0161425Y0168339D01*
X0161473Y0168444D01*
X0161525Y0168547D01*
X0161581Y0168648D01*
X0161640Y0168748D01*
X0161702Y0168845D01*
X0161768Y0168940D01*
X0161836Y0169033D01*
X0161908Y0169123D01*
X0161983Y0169211D01*
X0162062Y0169296D01*
X0162143Y0169378D01*
X0162226Y0169458D01*
X0162313Y0169534D01*
X0162402Y0169608D01*
X0162493Y0169678D01*
X0162587Y0169746D01*
X0162683Y0169810D01*
X0162782Y0169870D01*
X0162882Y0169927D01*
X0162984Y0169981D01*
X0163088Y0170031D01*
X0163194Y0170078D01*
X0163301Y0170121D01*
X0163410Y0170160D01*
X0163520Y0170195D01*
X0163631Y0170226D01*
X0163743Y0170254D01*
X0163856Y0170278D01*
X0163970Y0170298D01*
X0164085Y0170314D01*
X0164200Y0170326D01*
X0164315Y0170334D01*
X0164430Y0170338D01*
X0164546Y0170338D01*
X0164661Y0170334D01*
X0164776Y0170326D01*
X0164891Y0170314D01*
X0165006Y0170298D01*
X0165120Y0170278D01*
X0165233Y0170254D01*
X0165345Y0170226D01*
X0165456Y0170195D01*
X0165566Y0170160D01*
X0165675Y0170121D01*
X0165782Y0170078D01*
X0165888Y0170031D01*
X0165992Y0169981D01*
X0166094Y0169927D01*
X0166194Y0169870D01*
X0166293Y0169810D01*
X0166389Y0169746D01*
X0166483Y0169678D01*
X0166574Y0169608D01*
X0166663Y0169534D01*
X0166750Y0169458D01*
X0166833Y0169378D01*
X0166914Y0169296D01*
X0166993Y0169211D01*
X0167068Y0169123D01*
X0167140Y0169033D01*
X0167208Y0168940D01*
X0167274Y0168845D01*
X0167336Y0168748D01*
X0167395Y0168648D01*
X0167451Y0168547D01*
X0167503Y0168444D01*
X0167551Y0168339D01*
X0167596Y0168232D01*
X0167637Y0168124D01*
X0167674Y0168015D01*
X0167707Y0167904D01*
X0167737Y0167793D01*
X0167762Y0167680D01*
X0167784Y0167567D01*
X0167802Y0167453D01*
X0167816Y0167338D01*
X0167826Y0167223D01*
X0167832Y0167107D01*
X0167834Y0166992D01*
X0167832Y0166877D01*
X0167826Y0166761D01*
X0167816Y0166646D01*
X0167802Y0166531D01*
X0167784Y0166417D01*
X0167762Y0166304D01*
X0167737Y0166191D01*
X0167707Y0166080D01*
X0167674Y0165969D01*
X0167637Y0165860D01*
X0167596Y0165752D01*
X0167551Y0165645D01*
X0167503Y0165540D01*
X0167451Y0165437D01*
X0167395Y0165336D01*
X0167336Y0165236D01*
X0167274Y0165139D01*
X0167208Y0165044D01*
X0167140Y0164951D01*
X0167068Y0164861D01*
X0166993Y0164773D01*
X0166914Y0164688D01*
X0166833Y0164606D01*
X0166750Y0164526D01*
X0166663Y0164450D01*
X0166574Y0164376D01*
X0166483Y0164306D01*
X0166389Y0164238D01*
X0166293Y0164174D01*
X0166194Y0164114D01*
X0166094Y0164057D01*
X0165992Y0164003D01*
X0165888Y0163953D01*
X0165782Y0163906D01*
X0165675Y0163863D01*
X0165566Y0163824D01*
X0165456Y0163789D01*
X0165345Y0163758D01*
X0165233Y0163730D01*
X0165120Y0163706D01*
X0165006Y0163686D01*
X0164891Y0163670D01*
X0164776Y0163658D01*
X0164661Y0163650D01*
X0164546Y0163646D01*
X0164430Y0163646D01*
X0164315Y0163650D01*
X0164200Y0163658D01*
X0164085Y0163670D01*
X0163970Y0163686D01*
X0163856Y0163706D01*
X0163743Y0163730D01*
X0163631Y0163758D01*
X0163520Y0163789D01*
X0163410Y0163824D01*
X0163301Y0163863D01*
X0163194Y0163906D01*
X0163088Y0163953D01*
X0162984Y0164003D01*
X0162882Y0164057D01*
X0162782Y0164114D01*
X0162683Y0164174D01*
X0162587Y0164238D01*
X0162493Y0164306D01*
X0162402Y0164376D01*
X0162313Y0164450D01*
X0162226Y0164526D01*
X0162143Y0164606D01*
X0162062Y0164688D01*
X0161983Y0164773D01*
X0161908Y0164861D01*
X0161836Y0164951D01*
X0161768Y0165044D01*
X0161702Y0165139D01*
X0161640Y0165236D01*
X0161581Y0165336D01*
X0161525Y0165437D01*
X0161473Y0165540D01*
X0161425Y0165645D01*
X0161380Y0165752D01*
X0161339Y0165860D01*
X0161302Y0165969D01*
X0161269Y0166080D01*
X0161239Y0166191D01*
X0161214Y0166304D01*
X0161192Y0166417D01*
X0161174Y0166531D01*
X0161160Y0166646D01*
X0161150Y0166761D01*
X0161144Y0166877D01*
X0161142Y0166992D01*
X0166201Y0179000D02*
X0166203Y0179158D01*
X0166209Y0179316D01*
X0166219Y0179474D01*
X0166233Y0179632D01*
X0166251Y0179789D01*
X0166272Y0179946D01*
X0166298Y0180102D01*
X0166328Y0180258D01*
X0166361Y0180413D01*
X0166399Y0180566D01*
X0166440Y0180719D01*
X0166485Y0180871D01*
X0166534Y0181022D01*
X0166587Y0181171D01*
X0166643Y0181319D01*
X0166703Y0181465D01*
X0166767Y0181610D01*
X0166835Y0181753D01*
X0166906Y0181895D01*
X0166980Y0182035D01*
X0167058Y0182172D01*
X0167140Y0182308D01*
X0167224Y0182442D01*
X0167313Y0182573D01*
X0167404Y0182702D01*
X0167499Y0182829D01*
X0167596Y0182954D01*
X0167697Y0183076D01*
X0167801Y0183195D01*
X0167908Y0183312D01*
X0168018Y0183426D01*
X0168131Y0183537D01*
X0168246Y0183646D01*
X0168364Y0183751D01*
X0168485Y0183853D01*
X0168608Y0183953D01*
X0168734Y0184049D01*
X0168862Y0184142D01*
X0168992Y0184232D01*
X0169125Y0184318D01*
X0169260Y0184402D01*
X0169396Y0184481D01*
X0169535Y0184558D01*
X0169676Y0184630D01*
X0169818Y0184700D01*
X0169962Y0184765D01*
X0170108Y0184827D01*
X0170255Y0184885D01*
X0170404Y0184940D01*
X0170554Y0184991D01*
X0170705Y0185038D01*
X0170857Y0185081D01*
X0171010Y0185120D01*
X0171165Y0185156D01*
X0171320Y0185187D01*
X0171476Y0185215D01*
X0171632Y0185239D01*
X0171789Y0185259D01*
X0171947Y0185275D01*
X0172104Y0185287D01*
X0172263Y0185295D01*
X0172421Y0185299D01*
X0172579Y0185299D01*
X0172737Y0185295D01*
X0172896Y0185287D01*
X0173053Y0185275D01*
X0173211Y0185259D01*
X0173368Y0185239D01*
X0173524Y0185215D01*
X0173680Y0185187D01*
X0173835Y0185156D01*
X0173990Y0185120D01*
X0174143Y0185081D01*
X0174295Y0185038D01*
X0174446Y0184991D01*
X0174596Y0184940D01*
X0174745Y0184885D01*
X0174892Y0184827D01*
X0175038Y0184765D01*
X0175182Y0184700D01*
X0175324Y0184630D01*
X0175465Y0184558D01*
X0175604Y0184481D01*
X0175740Y0184402D01*
X0175875Y0184318D01*
X0176008Y0184232D01*
X0176138Y0184142D01*
X0176266Y0184049D01*
X0176392Y0183953D01*
X0176515Y0183853D01*
X0176636Y0183751D01*
X0176754Y0183646D01*
X0176869Y0183537D01*
X0176982Y0183426D01*
X0177092Y0183312D01*
X0177199Y0183195D01*
X0177303Y0183076D01*
X0177404Y0182954D01*
X0177501Y0182829D01*
X0177596Y0182702D01*
X0177687Y0182573D01*
X0177776Y0182442D01*
X0177860Y0182308D01*
X0177942Y0182172D01*
X0178020Y0182035D01*
X0178094Y0181895D01*
X0178165Y0181753D01*
X0178233Y0181610D01*
X0178297Y0181465D01*
X0178357Y0181319D01*
X0178413Y0181171D01*
X0178466Y0181022D01*
X0178515Y0180871D01*
X0178560Y0180719D01*
X0178601Y0180566D01*
X0178639Y0180413D01*
X0178672Y0180258D01*
X0178702Y0180102D01*
X0178728Y0179946D01*
X0178749Y0179789D01*
X0178767Y0179632D01*
X0178781Y0179474D01*
X0178791Y0179316D01*
X0178797Y0179158D01*
X0178799Y0179000D01*
X0178797Y0178842D01*
X0178791Y0178684D01*
X0178781Y0178526D01*
X0178767Y0178368D01*
X0178749Y0178211D01*
X0178728Y0178054D01*
X0178702Y0177898D01*
X0178672Y0177742D01*
X0178639Y0177587D01*
X0178601Y0177434D01*
X0178560Y0177281D01*
X0178515Y0177129D01*
X0178466Y0176978D01*
X0178413Y0176829D01*
X0178357Y0176681D01*
X0178297Y0176535D01*
X0178233Y0176390D01*
X0178165Y0176247D01*
X0178094Y0176105D01*
X0178020Y0175965D01*
X0177942Y0175828D01*
X0177860Y0175692D01*
X0177776Y0175558D01*
X0177687Y0175427D01*
X0177596Y0175298D01*
X0177501Y0175171D01*
X0177404Y0175046D01*
X0177303Y0174924D01*
X0177199Y0174805D01*
X0177092Y0174688D01*
X0176982Y0174574D01*
X0176869Y0174463D01*
X0176754Y0174354D01*
X0176636Y0174249D01*
X0176515Y0174147D01*
X0176392Y0174047D01*
X0176266Y0173951D01*
X0176138Y0173858D01*
X0176008Y0173768D01*
X0175875Y0173682D01*
X0175740Y0173598D01*
X0175604Y0173519D01*
X0175465Y0173442D01*
X0175324Y0173370D01*
X0175182Y0173300D01*
X0175038Y0173235D01*
X0174892Y0173173D01*
X0174745Y0173115D01*
X0174596Y0173060D01*
X0174446Y0173009D01*
X0174295Y0172962D01*
X0174143Y0172919D01*
X0173990Y0172880D01*
X0173835Y0172844D01*
X0173680Y0172813D01*
X0173524Y0172785D01*
X0173368Y0172761D01*
X0173211Y0172741D01*
X0173053Y0172725D01*
X0172896Y0172713D01*
X0172737Y0172705D01*
X0172579Y0172701D01*
X0172421Y0172701D01*
X0172263Y0172705D01*
X0172104Y0172713D01*
X0171947Y0172725D01*
X0171789Y0172741D01*
X0171632Y0172761D01*
X0171476Y0172785D01*
X0171320Y0172813D01*
X0171165Y0172844D01*
X0171010Y0172880D01*
X0170857Y0172919D01*
X0170705Y0172962D01*
X0170554Y0173009D01*
X0170404Y0173060D01*
X0170255Y0173115D01*
X0170108Y0173173D01*
X0169962Y0173235D01*
X0169818Y0173300D01*
X0169676Y0173370D01*
X0169535Y0173442D01*
X0169396Y0173519D01*
X0169260Y0173598D01*
X0169125Y0173682D01*
X0168992Y0173768D01*
X0168862Y0173858D01*
X0168734Y0173951D01*
X0168608Y0174047D01*
X0168485Y0174147D01*
X0168364Y0174249D01*
X0168246Y0174354D01*
X0168131Y0174463D01*
X0168018Y0174574D01*
X0167908Y0174688D01*
X0167801Y0174805D01*
X0167697Y0174924D01*
X0167596Y0175046D01*
X0167499Y0175171D01*
X0167404Y0175298D01*
X0167313Y0175427D01*
X0167224Y0175558D01*
X0167140Y0175692D01*
X0167058Y0175828D01*
X0166980Y0175965D01*
X0166906Y0176105D01*
X0166835Y0176247D01*
X0166767Y0176390D01*
X0166703Y0176535D01*
X0166643Y0176681D01*
X0166587Y0176829D01*
X0166534Y0176978D01*
X0166485Y0177129D01*
X0166440Y0177281D01*
X0166399Y0177434D01*
X0166361Y0177587D01*
X0166328Y0177742D01*
X0166298Y0177898D01*
X0166272Y0178054D01*
X0166251Y0178211D01*
X0166233Y0178368D01*
X0166219Y0178526D01*
X0166209Y0178684D01*
X0166203Y0178842D01*
X0166201Y0179000D01*
X0211201Y0179000D02*
X0211203Y0179158D01*
X0211209Y0179316D01*
X0211219Y0179474D01*
X0211233Y0179632D01*
X0211251Y0179789D01*
X0211272Y0179946D01*
X0211298Y0180102D01*
X0211328Y0180258D01*
X0211361Y0180413D01*
X0211399Y0180566D01*
X0211440Y0180719D01*
X0211485Y0180871D01*
X0211534Y0181022D01*
X0211587Y0181171D01*
X0211643Y0181319D01*
X0211703Y0181465D01*
X0211767Y0181610D01*
X0211835Y0181753D01*
X0211906Y0181895D01*
X0211980Y0182035D01*
X0212058Y0182172D01*
X0212140Y0182308D01*
X0212224Y0182442D01*
X0212313Y0182573D01*
X0212404Y0182702D01*
X0212499Y0182829D01*
X0212596Y0182954D01*
X0212697Y0183076D01*
X0212801Y0183195D01*
X0212908Y0183312D01*
X0213018Y0183426D01*
X0213131Y0183537D01*
X0213246Y0183646D01*
X0213364Y0183751D01*
X0213485Y0183853D01*
X0213608Y0183953D01*
X0213734Y0184049D01*
X0213862Y0184142D01*
X0213992Y0184232D01*
X0214125Y0184318D01*
X0214260Y0184402D01*
X0214396Y0184481D01*
X0214535Y0184558D01*
X0214676Y0184630D01*
X0214818Y0184700D01*
X0214962Y0184765D01*
X0215108Y0184827D01*
X0215255Y0184885D01*
X0215404Y0184940D01*
X0215554Y0184991D01*
X0215705Y0185038D01*
X0215857Y0185081D01*
X0216010Y0185120D01*
X0216165Y0185156D01*
X0216320Y0185187D01*
X0216476Y0185215D01*
X0216632Y0185239D01*
X0216789Y0185259D01*
X0216947Y0185275D01*
X0217104Y0185287D01*
X0217263Y0185295D01*
X0217421Y0185299D01*
X0217579Y0185299D01*
X0217737Y0185295D01*
X0217896Y0185287D01*
X0218053Y0185275D01*
X0218211Y0185259D01*
X0218368Y0185239D01*
X0218524Y0185215D01*
X0218680Y0185187D01*
X0218835Y0185156D01*
X0218990Y0185120D01*
X0219143Y0185081D01*
X0219295Y0185038D01*
X0219446Y0184991D01*
X0219596Y0184940D01*
X0219745Y0184885D01*
X0219892Y0184827D01*
X0220038Y0184765D01*
X0220182Y0184700D01*
X0220324Y0184630D01*
X0220465Y0184558D01*
X0220604Y0184481D01*
X0220740Y0184402D01*
X0220875Y0184318D01*
X0221008Y0184232D01*
X0221138Y0184142D01*
X0221266Y0184049D01*
X0221392Y0183953D01*
X0221515Y0183853D01*
X0221636Y0183751D01*
X0221754Y0183646D01*
X0221869Y0183537D01*
X0221982Y0183426D01*
X0222092Y0183312D01*
X0222199Y0183195D01*
X0222303Y0183076D01*
X0222404Y0182954D01*
X0222501Y0182829D01*
X0222596Y0182702D01*
X0222687Y0182573D01*
X0222776Y0182442D01*
X0222860Y0182308D01*
X0222942Y0182172D01*
X0223020Y0182035D01*
X0223094Y0181895D01*
X0223165Y0181753D01*
X0223233Y0181610D01*
X0223297Y0181465D01*
X0223357Y0181319D01*
X0223413Y0181171D01*
X0223466Y0181022D01*
X0223515Y0180871D01*
X0223560Y0180719D01*
X0223601Y0180566D01*
X0223639Y0180413D01*
X0223672Y0180258D01*
X0223702Y0180102D01*
X0223728Y0179946D01*
X0223749Y0179789D01*
X0223767Y0179632D01*
X0223781Y0179474D01*
X0223791Y0179316D01*
X0223797Y0179158D01*
X0223799Y0179000D01*
X0223797Y0178842D01*
X0223791Y0178684D01*
X0223781Y0178526D01*
X0223767Y0178368D01*
X0223749Y0178211D01*
X0223728Y0178054D01*
X0223702Y0177898D01*
X0223672Y0177742D01*
X0223639Y0177587D01*
X0223601Y0177434D01*
X0223560Y0177281D01*
X0223515Y0177129D01*
X0223466Y0176978D01*
X0223413Y0176829D01*
X0223357Y0176681D01*
X0223297Y0176535D01*
X0223233Y0176390D01*
X0223165Y0176247D01*
X0223094Y0176105D01*
X0223020Y0175965D01*
X0222942Y0175828D01*
X0222860Y0175692D01*
X0222776Y0175558D01*
X0222687Y0175427D01*
X0222596Y0175298D01*
X0222501Y0175171D01*
X0222404Y0175046D01*
X0222303Y0174924D01*
X0222199Y0174805D01*
X0222092Y0174688D01*
X0221982Y0174574D01*
X0221869Y0174463D01*
X0221754Y0174354D01*
X0221636Y0174249D01*
X0221515Y0174147D01*
X0221392Y0174047D01*
X0221266Y0173951D01*
X0221138Y0173858D01*
X0221008Y0173768D01*
X0220875Y0173682D01*
X0220740Y0173598D01*
X0220604Y0173519D01*
X0220465Y0173442D01*
X0220324Y0173370D01*
X0220182Y0173300D01*
X0220038Y0173235D01*
X0219892Y0173173D01*
X0219745Y0173115D01*
X0219596Y0173060D01*
X0219446Y0173009D01*
X0219295Y0172962D01*
X0219143Y0172919D01*
X0218990Y0172880D01*
X0218835Y0172844D01*
X0218680Y0172813D01*
X0218524Y0172785D01*
X0218368Y0172761D01*
X0218211Y0172741D01*
X0218053Y0172725D01*
X0217896Y0172713D01*
X0217737Y0172705D01*
X0217579Y0172701D01*
X0217421Y0172701D01*
X0217263Y0172705D01*
X0217104Y0172713D01*
X0216947Y0172725D01*
X0216789Y0172741D01*
X0216632Y0172761D01*
X0216476Y0172785D01*
X0216320Y0172813D01*
X0216165Y0172844D01*
X0216010Y0172880D01*
X0215857Y0172919D01*
X0215705Y0172962D01*
X0215554Y0173009D01*
X0215404Y0173060D01*
X0215255Y0173115D01*
X0215108Y0173173D01*
X0214962Y0173235D01*
X0214818Y0173300D01*
X0214676Y0173370D01*
X0214535Y0173442D01*
X0214396Y0173519D01*
X0214260Y0173598D01*
X0214125Y0173682D01*
X0213992Y0173768D01*
X0213862Y0173858D01*
X0213734Y0173951D01*
X0213608Y0174047D01*
X0213485Y0174147D01*
X0213364Y0174249D01*
X0213246Y0174354D01*
X0213131Y0174463D01*
X0213018Y0174574D01*
X0212908Y0174688D01*
X0212801Y0174805D01*
X0212697Y0174924D01*
X0212596Y0175046D01*
X0212499Y0175171D01*
X0212404Y0175298D01*
X0212313Y0175427D01*
X0212224Y0175558D01*
X0212140Y0175692D01*
X0212058Y0175828D01*
X0211980Y0175965D01*
X0211906Y0176105D01*
X0211835Y0176247D01*
X0211767Y0176390D01*
X0211703Y0176535D01*
X0211643Y0176681D01*
X0211587Y0176829D01*
X0211534Y0176978D01*
X0211485Y0177129D01*
X0211440Y0177281D01*
X0211399Y0177434D01*
X0211361Y0177587D01*
X0211328Y0177742D01*
X0211298Y0177898D01*
X0211272Y0178054D01*
X0211251Y0178211D01*
X0211233Y0178368D01*
X0211219Y0178526D01*
X0211209Y0178684D01*
X0211203Y0178842D01*
X0211201Y0179000D01*
X0222166Y0166992D02*
X0222168Y0167107D01*
X0222174Y0167223D01*
X0222184Y0167338D01*
X0222198Y0167453D01*
X0222216Y0167567D01*
X0222238Y0167680D01*
X0222263Y0167793D01*
X0222293Y0167904D01*
X0222326Y0168015D01*
X0222363Y0168124D01*
X0222404Y0168232D01*
X0222449Y0168339D01*
X0222497Y0168444D01*
X0222549Y0168547D01*
X0222605Y0168648D01*
X0222664Y0168748D01*
X0222726Y0168845D01*
X0222792Y0168940D01*
X0222860Y0169033D01*
X0222932Y0169123D01*
X0223007Y0169211D01*
X0223086Y0169296D01*
X0223167Y0169378D01*
X0223250Y0169458D01*
X0223337Y0169534D01*
X0223426Y0169608D01*
X0223517Y0169678D01*
X0223611Y0169746D01*
X0223707Y0169810D01*
X0223806Y0169870D01*
X0223906Y0169927D01*
X0224008Y0169981D01*
X0224112Y0170031D01*
X0224218Y0170078D01*
X0224325Y0170121D01*
X0224434Y0170160D01*
X0224544Y0170195D01*
X0224655Y0170226D01*
X0224767Y0170254D01*
X0224880Y0170278D01*
X0224994Y0170298D01*
X0225109Y0170314D01*
X0225224Y0170326D01*
X0225339Y0170334D01*
X0225454Y0170338D01*
X0225570Y0170338D01*
X0225685Y0170334D01*
X0225800Y0170326D01*
X0225915Y0170314D01*
X0226030Y0170298D01*
X0226144Y0170278D01*
X0226257Y0170254D01*
X0226369Y0170226D01*
X0226480Y0170195D01*
X0226590Y0170160D01*
X0226699Y0170121D01*
X0226806Y0170078D01*
X0226912Y0170031D01*
X0227016Y0169981D01*
X0227118Y0169927D01*
X0227218Y0169870D01*
X0227317Y0169810D01*
X0227413Y0169746D01*
X0227507Y0169678D01*
X0227598Y0169608D01*
X0227687Y0169534D01*
X0227774Y0169458D01*
X0227857Y0169378D01*
X0227938Y0169296D01*
X0228017Y0169211D01*
X0228092Y0169123D01*
X0228164Y0169033D01*
X0228232Y0168940D01*
X0228298Y0168845D01*
X0228360Y0168748D01*
X0228419Y0168648D01*
X0228475Y0168547D01*
X0228527Y0168444D01*
X0228575Y0168339D01*
X0228620Y0168232D01*
X0228661Y0168124D01*
X0228698Y0168015D01*
X0228731Y0167904D01*
X0228761Y0167793D01*
X0228786Y0167680D01*
X0228808Y0167567D01*
X0228826Y0167453D01*
X0228840Y0167338D01*
X0228850Y0167223D01*
X0228856Y0167107D01*
X0228858Y0166992D01*
X0228856Y0166877D01*
X0228850Y0166761D01*
X0228840Y0166646D01*
X0228826Y0166531D01*
X0228808Y0166417D01*
X0228786Y0166304D01*
X0228761Y0166191D01*
X0228731Y0166080D01*
X0228698Y0165969D01*
X0228661Y0165860D01*
X0228620Y0165752D01*
X0228575Y0165645D01*
X0228527Y0165540D01*
X0228475Y0165437D01*
X0228419Y0165336D01*
X0228360Y0165236D01*
X0228298Y0165139D01*
X0228232Y0165044D01*
X0228164Y0164951D01*
X0228092Y0164861D01*
X0228017Y0164773D01*
X0227938Y0164688D01*
X0227857Y0164606D01*
X0227774Y0164526D01*
X0227687Y0164450D01*
X0227598Y0164376D01*
X0227507Y0164306D01*
X0227413Y0164238D01*
X0227317Y0164174D01*
X0227218Y0164114D01*
X0227118Y0164057D01*
X0227016Y0164003D01*
X0226912Y0163953D01*
X0226806Y0163906D01*
X0226699Y0163863D01*
X0226590Y0163824D01*
X0226480Y0163789D01*
X0226369Y0163758D01*
X0226257Y0163730D01*
X0226144Y0163706D01*
X0226030Y0163686D01*
X0225915Y0163670D01*
X0225800Y0163658D01*
X0225685Y0163650D01*
X0225570Y0163646D01*
X0225454Y0163646D01*
X0225339Y0163650D01*
X0225224Y0163658D01*
X0225109Y0163670D01*
X0224994Y0163686D01*
X0224880Y0163706D01*
X0224767Y0163730D01*
X0224655Y0163758D01*
X0224544Y0163789D01*
X0224434Y0163824D01*
X0224325Y0163863D01*
X0224218Y0163906D01*
X0224112Y0163953D01*
X0224008Y0164003D01*
X0223906Y0164057D01*
X0223806Y0164114D01*
X0223707Y0164174D01*
X0223611Y0164238D01*
X0223517Y0164306D01*
X0223426Y0164376D01*
X0223337Y0164450D01*
X0223250Y0164526D01*
X0223167Y0164606D01*
X0223086Y0164688D01*
X0223007Y0164773D01*
X0222932Y0164861D01*
X0222860Y0164951D01*
X0222792Y0165044D01*
X0222726Y0165139D01*
X0222664Y0165236D01*
X0222605Y0165336D01*
X0222549Y0165437D01*
X0222497Y0165540D01*
X0222449Y0165645D01*
X0222404Y0165752D01*
X0222363Y0165860D01*
X0222326Y0165969D01*
X0222293Y0166080D01*
X0222263Y0166191D01*
X0222238Y0166304D01*
X0222216Y0166417D01*
X0222198Y0166531D01*
X0222184Y0166646D01*
X0222174Y0166761D01*
X0222168Y0166877D01*
X0222166Y0166992D01*
X0271783Y0075500D02*
X0271785Y0075612D01*
X0271791Y0075723D01*
X0271801Y0075835D01*
X0271815Y0075946D01*
X0271832Y0076056D01*
X0271854Y0076166D01*
X0271880Y0076275D01*
X0271909Y0076383D01*
X0271942Y0076489D01*
X0271979Y0076595D01*
X0272020Y0076699D01*
X0272065Y0076802D01*
X0272113Y0076903D01*
X0272164Y0077002D01*
X0272219Y0077099D01*
X0272278Y0077194D01*
X0272339Y0077288D01*
X0272404Y0077379D01*
X0272473Y0077467D01*
X0272544Y0077553D01*
X0272618Y0077637D01*
X0272696Y0077717D01*
X0272776Y0077795D01*
X0272859Y0077871D01*
X0272944Y0077943D01*
X0273032Y0078012D01*
X0273122Y0078078D01*
X0273215Y0078140D01*
X0273310Y0078200D01*
X0273407Y0078256D01*
X0273505Y0078308D01*
X0273606Y0078357D01*
X0273708Y0078402D01*
X0273812Y0078444D01*
X0273917Y0078482D01*
X0274024Y0078516D01*
X0274131Y0078546D01*
X0274240Y0078573D01*
X0274349Y0078595D01*
X0274460Y0078614D01*
X0274570Y0078629D01*
X0274682Y0078640D01*
X0274793Y0078647D01*
X0274905Y0078650D01*
X0275017Y0078649D01*
X0275129Y0078644D01*
X0275240Y0078635D01*
X0275351Y0078622D01*
X0275462Y0078605D01*
X0275572Y0078585D01*
X0275681Y0078560D01*
X0275789Y0078532D01*
X0275896Y0078499D01*
X0276002Y0078463D01*
X0276106Y0078423D01*
X0276209Y0078380D01*
X0276311Y0078333D01*
X0276410Y0078282D01*
X0276508Y0078228D01*
X0276604Y0078170D01*
X0276698Y0078109D01*
X0276789Y0078045D01*
X0276878Y0077978D01*
X0276965Y0077907D01*
X0277049Y0077833D01*
X0277131Y0077757D01*
X0277209Y0077677D01*
X0277285Y0077595D01*
X0277358Y0077510D01*
X0277428Y0077423D01*
X0277494Y0077333D01*
X0277558Y0077241D01*
X0277618Y0077147D01*
X0277675Y0077051D01*
X0277728Y0076952D01*
X0277778Y0076852D01*
X0277824Y0076751D01*
X0277867Y0076647D01*
X0277906Y0076542D01*
X0277941Y0076436D01*
X0277972Y0076329D01*
X0278000Y0076220D01*
X0278023Y0076111D01*
X0278043Y0076001D01*
X0278059Y0075890D01*
X0278071Y0075779D01*
X0278079Y0075668D01*
X0278083Y0075556D01*
X0278083Y0075444D01*
X0278079Y0075332D01*
X0278071Y0075221D01*
X0278059Y0075110D01*
X0278043Y0074999D01*
X0278023Y0074889D01*
X0278000Y0074780D01*
X0277972Y0074671D01*
X0277941Y0074564D01*
X0277906Y0074458D01*
X0277867Y0074353D01*
X0277824Y0074249D01*
X0277778Y0074148D01*
X0277728Y0074048D01*
X0277675Y0073949D01*
X0277618Y0073853D01*
X0277558Y0073759D01*
X0277494Y0073667D01*
X0277428Y0073577D01*
X0277358Y0073490D01*
X0277285Y0073405D01*
X0277209Y0073323D01*
X0277131Y0073243D01*
X0277049Y0073167D01*
X0276965Y0073093D01*
X0276878Y0073022D01*
X0276789Y0072955D01*
X0276698Y0072891D01*
X0276604Y0072830D01*
X0276508Y0072772D01*
X0276410Y0072718D01*
X0276311Y0072667D01*
X0276209Y0072620D01*
X0276106Y0072577D01*
X0276002Y0072537D01*
X0275896Y0072501D01*
X0275789Y0072468D01*
X0275681Y0072440D01*
X0275572Y0072415D01*
X0275462Y0072395D01*
X0275351Y0072378D01*
X0275240Y0072365D01*
X0275129Y0072356D01*
X0275017Y0072351D01*
X0274905Y0072350D01*
X0274793Y0072353D01*
X0274682Y0072360D01*
X0274570Y0072371D01*
X0274460Y0072386D01*
X0274349Y0072405D01*
X0274240Y0072427D01*
X0274131Y0072454D01*
X0274024Y0072484D01*
X0273917Y0072518D01*
X0273812Y0072556D01*
X0273708Y0072598D01*
X0273606Y0072643D01*
X0273505Y0072692D01*
X0273407Y0072744D01*
X0273310Y0072800D01*
X0273215Y0072860D01*
X0273122Y0072922D01*
X0273032Y0072988D01*
X0272944Y0073057D01*
X0272859Y0073129D01*
X0272776Y0073205D01*
X0272696Y0073283D01*
X0272618Y0073363D01*
X0272544Y0073447D01*
X0272473Y0073533D01*
X0272404Y0073621D01*
X0272339Y0073712D01*
X0272278Y0073806D01*
X0272219Y0073901D01*
X0272164Y0073998D01*
X0272113Y0074097D01*
X0272065Y0074198D01*
X0272020Y0074301D01*
X0271979Y0074405D01*
X0271942Y0074511D01*
X0271909Y0074617D01*
X0271880Y0074725D01*
X0271854Y0074834D01*
X0271832Y0074944D01*
X0271815Y0075054D01*
X0271801Y0075165D01*
X0271791Y0075277D01*
X0271785Y0075388D01*
X0271783Y0075500D01*
D11*
X0238000Y0050000D03*
X0228000Y0050000D03*
X0228000Y0040000D03*
X0228000Y0030000D03*
X0238000Y0030000D03*
X0238000Y0040000D03*
X0145500Y0105000D03*
X0145500Y0115000D03*
X0145500Y0125000D03*
X0128000Y0120000D03*
X0118000Y0120000D03*
X0108000Y0120000D03*
X0108000Y0110000D03*
X0118000Y0110000D03*
X0128000Y0110000D03*
X0049500Y0047000D03*
X0049500Y0037000D03*
X0039500Y0037000D03*
X0029500Y0037000D03*
X0029500Y0047000D03*
X0039500Y0047000D03*
X0019500Y0047000D03*
X0019500Y0037000D03*
X0018000Y0180500D03*
X0008000Y0180500D03*
D12*
X0029453Y0207799D03*
X0257012Y0207799D03*
X0257012Y0015673D03*
X0029453Y0015673D03*
D13*
X0254315Y0045000D03*
X0274000Y0045000D03*
X0275185Y0177500D03*
X0255500Y0177500D03*
D14*
X0212520Y0154000D03*
X0202520Y0154000D03*
X0192520Y0154000D03*
X0182520Y0154000D03*
X0187520Y0144000D03*
X0197520Y0144000D03*
X0207520Y0144000D03*
X0177520Y0144000D03*
D15*
X0178898Y0198291D03*
X0168898Y0198291D03*
X0211102Y0198291D03*
X0221102Y0198291D03*
D16*
X0156866Y0181500D03*
X0105134Y0181500D03*
D17*
X0117220Y0170870D03*
X0127063Y0170870D03*
X0134937Y0170870D03*
X0144780Y0170870D03*
D18*
X0144780Y0181720D01*
X0132500Y0194000D01*
X0124500Y0194000D01*
X0086000Y0194000D01*
X0077500Y0186000D01*
X0074000Y0186000D01*
X0064500Y0186000D01*
X0059500Y0181000D01*
X0046500Y0181000D01*
X0036500Y0192000D02*
X0022000Y0192000D01*
X0015000Y0199000D01*
X0009000Y0199000D01*
X0005600Y0195600D01*
X0005600Y0180500D01*
X0006100Y0181000D01*
X0005600Y0180500D02*
X0005600Y0117000D01*
X0027000Y0117000D01*
X0027000Y0122000D02*
X0022000Y0122000D01*
X0015500Y0128500D01*
X0015500Y0163500D01*
X0027000Y0175000D01*
X0027100Y0174950D02*
X0077950Y0174950D01*
X0080000Y0177000D01*
X0064500Y0186000D02*
X0064500Y0206000D01*
X0064500Y0218000D02*
X0053500Y0218000D01*
X0045500Y0210000D01*
X0045500Y0201000D01*
X0036500Y0192000D01*
X0064500Y0218000D02*
X0086000Y0218000D01*
X0159500Y0218000D01*
X0144780Y0170870D02*
X0144780Y0125720D01*
X0145500Y0125000D01*
X0151000Y0125000D01*
X0157000Y0119000D01*
X0157500Y0077500D01*
X0141500Y0061500D01*
X0034000Y0061500D01*
X0019500Y0047000D01*
X0019500Y0037000D01*
X0015000Y0029500D02*
X0036500Y0029500D01*
X0043500Y0022500D01*
X0043500Y0013500D01*
X0049500Y0007500D01*
X0120000Y0007500D01*
X0143000Y0007500D01*
X0143000Y0031500D01*
X0182000Y0070500D01*
X0207500Y0070500D01*
X0220000Y0070500D01*
X0222000Y0068500D01*
X0207500Y0070500D02*
X0207500Y0093000D01*
X0219000Y0093000D01*
X0128000Y0107500D02*
X0128000Y0110000D01*
X0128000Y0120000D01*
X0128000Y0107500D02*
X0112500Y0092000D01*
X0005600Y0092500D01*
X0005600Y0082000D01*
X0005600Y0067500D01*
X0005600Y0038950D01*
X0015000Y0029500D01*
X0005600Y0092500D02*
X0005600Y0117000D01*
X0143000Y0007500D02*
X0219500Y0007500D01*
D19*
X0027000Y0117000D03*
X0027000Y0122000D03*
X0046500Y0181000D03*
X0064500Y0206000D03*
D20*
X0072000Y0210000D03*
X0081000Y0210500D03*
X0088500Y0213500D03*
X0096500Y0208000D03*
X0102000Y0201000D03*
X0114000Y0206500D03*
X0119500Y0202000D03*
X0124500Y0203000D03*
X0125000Y0187500D03*
X0114500Y0186500D03*
X0122500Y0176000D03*
X0122500Y0165000D03*
X0116000Y0158000D03*
X0108000Y0166500D03*
X0099500Y0158000D03*
X0097000Y0148000D03*
X0094500Y0142500D03*
X0108000Y0144000D03*
X0127500Y0146500D03*
X0140000Y0143000D03*
X0153500Y0156500D03*
X0165000Y0158500D03*
X0173000Y0167500D03*
X0185000Y0175500D03*
X0195500Y0180500D03*
X0206500Y0175500D03*
X0209500Y0189000D03*
X0200000Y0194000D03*
X0185000Y0193500D03*
X0182000Y0185500D03*
X0162500Y0201000D03*
X0154500Y0205000D03*
X0145000Y0202500D03*
X0140500Y0191500D03*
X0154500Y0191500D03*
X0137000Y0177000D03*
X0138000Y0165500D03*
X0152500Y0171000D03*
X0176500Y0152000D03*
X0172000Y0141000D03*
X0160500Y0147000D03*
X0179500Y0128000D03*
X0177000Y0120000D03*
X0169000Y0120500D03*
X0162000Y0120500D03*
X0166500Y0109500D03*
X0177500Y0110500D03*
X0178000Y0101000D03*
X0162500Y0100500D03*
X0152000Y0100000D03*
X0151000Y0110000D03*
X0137000Y0108000D03*
X0129000Y0103500D03*
X0114500Y0105500D03*
X0103500Y0102000D03*
X0093000Y0102500D03*
X0073500Y0119000D03*
X0070500Y0117500D03*
X0075000Y0122000D03*
X0073433Y0127540D03*
X0069000Y0124500D03*
X0061490Y0116990D03*
X0059510Y0115010D03*
X0055500Y0115500D03*
X0047500Y0114000D03*
X0039000Y0121000D03*
X0033500Y0127500D03*
X0027000Y0130000D03*
X0030500Y0134500D03*
X0026000Y0138500D03*
X0022000Y0143500D03*
X0024500Y0146000D03*
X0028000Y0151000D03*
X0024500Y0153000D03*
X0021000Y0151500D03*
X0030500Y0154000D03*
X0023000Y0161000D03*
X0030500Y0163000D03*
X0027500Y0169000D03*
X0018000Y0171000D03*
X0013000Y0175500D03*
X0010500Y0167500D03*
X0025000Y0184000D03*
X0037500Y0170000D03*
X0040500Y0167000D03*
X0047500Y0170000D03*
X0050500Y0166500D03*
X0055500Y0166500D03*
X0058900Y0165000D03*
X0062350Y0170000D03*
X0073500Y0159500D03*
X0077500Y0162500D03*
X0087000Y0165500D03*
X0078500Y0170500D03*
X0085000Y0176000D03*
X0080000Y0177000D03*
X0084500Y0183000D03*
X0090000Y0184600D03*
X0090000Y0187400D03*
X0100000Y0190000D03*
X0088500Y0201000D03*
X0104000Y0214500D03*
X0074000Y0186000D03*
X0055500Y0191000D03*
X0055500Y0194000D03*
X0055500Y0197000D03*
X0043500Y0215000D03*
X0041000Y0219000D03*
X0018000Y0218500D03*
X0009000Y0213500D03*
X0005500Y0203500D03*
X0014500Y0203000D03*
X0015000Y0199000D03*
X0064500Y0218000D03*
X0097500Y0176000D03*
X0073500Y0150500D03*
X0073483Y0146990D03*
X0073483Y0139000D03*
X0100000Y0126000D03*
X0065900Y0101000D03*
X0063100Y0101000D03*
X0067600Y0084500D03*
X0070400Y0084500D03*
X0070500Y0073500D03*
X0054500Y0081000D03*
X0054000Y0072000D03*
X0042500Y0072000D03*
X0038909Y0067500D03*
X0034500Y0070000D03*
X0029461Y0076500D03*
X0033500Y0081500D03*
X0042500Y0081500D03*
X0021193Y0085500D03*
X0012000Y0088500D03*
X0005600Y0082000D03*
X0017000Y0073500D03*
X0005600Y0067500D03*
X0013500Y0063000D03*
X0011000Y0057500D03*
X0031000Y0053000D03*
X0024500Y0041500D03*
X0011000Y0040000D03*
X0005500Y0034000D03*
X0007000Y0026500D03*
X0016500Y0026000D03*
X0007500Y0015500D03*
X0014500Y0006500D03*
X0044000Y0006500D03*
X0052500Y0015000D03*
X0049000Y0024500D03*
X0059500Y0026500D03*
X0062000Y0034000D03*
X0054500Y0039500D03*
X0056000Y0046500D03*
X0044500Y0044500D03*
X0044500Y0032500D03*
X0066000Y0015500D03*
X0069000Y0011000D03*
X0077500Y0015500D03*
X0083000Y0011000D03*
X0089500Y0015000D03*
X0095500Y0011000D03*
X0102500Y0015500D03*
X0106500Y0011000D03*
X0111000Y0017000D03*
X0116000Y0017000D03*
X0120000Y0007500D03*
X0129500Y0012000D03*
X0138500Y0021500D03*
X0147000Y0021500D03*
X0155500Y0012000D03*
X0166000Y0015000D03*
X0171500Y0011000D03*
X0177000Y0015500D03*
X0183000Y0011000D03*
X0189000Y0015000D03*
X0195000Y0011000D03*
X0201500Y0015500D03*
X0206500Y0013000D03*
X0211000Y0018000D03*
X0215500Y0018500D03*
X0228500Y0016500D03*
X0235500Y0010500D03*
X0243500Y0006000D03*
X0240500Y0017000D03*
X0228500Y0006000D03*
X0219500Y0007500D03*
X0216200Y0044800D03*
X0212200Y0044800D03*
X0208300Y0044800D03*
X0204300Y0044800D03*
X0197500Y0047000D03*
X0195500Y0053000D03*
X0191500Y0053000D03*
X0202000Y0052500D03*
X0220000Y0051000D03*
X0222000Y0068500D03*
X0226000Y0071500D03*
X0231500Y0071000D03*
X0237500Y0079000D03*
X0241000Y0079000D03*
X0244500Y0079000D03*
X0248000Y0079000D03*
X0251500Y0079000D03*
X0255000Y0079000D03*
X0230000Y0107500D03*
X0212500Y0105500D03*
X0207500Y0093000D03*
X0215500Y0087500D03*
X0219000Y0093000D03*
X0211500Y0080000D03*
X0207500Y0070500D03*
X0199000Y0074000D03*
X0200000Y0085000D03*
X0184500Y0079500D03*
X0176000Y0084500D03*
X0172850Y0075000D03*
X0169512Y0075012D03*
X0166000Y0076500D03*
X0162000Y0074500D03*
X0150000Y0079000D03*
X0145500Y0075000D03*
X0144500Y0085000D03*
X0148500Y0085500D03*
X0136000Y0085000D03*
X0120555Y0074445D03*
X0118445Y0076555D03*
X0125000Y0071000D03*
X0117173Y0067500D03*
X0113827Y0067500D03*
X0110173Y0067500D03*
X0106827Y0067500D03*
X0094500Y0052000D03*
X0087000Y0052500D03*
X0094500Y0046000D03*
X0101000Y0038000D03*
X0104800Y0033300D03*
X0108800Y0033300D03*
X0112700Y0033300D03*
X0116700Y0033300D03*
X0125000Y0030500D03*
X0096673Y0033500D03*
X0093327Y0033500D03*
X0084873Y0033500D03*
X0081527Y0033500D03*
X0073073Y0033500D03*
X0069727Y0033500D03*
X0158500Y0032000D03*
X0177000Y0071500D03*
X0165500Y0084500D03*
X0186000Y0118000D03*
X0200500Y0118500D03*
X0214500Y0119500D03*
X0229500Y0122500D03*
X0217500Y0141000D03*
X0230000Y0144500D03*
X0227500Y0159000D03*
X0229500Y0176000D03*
X0244000Y0179500D03*
X0238000Y0190000D03*
X0228000Y0202000D03*
X0222000Y0190000D03*
X0241000Y0205500D03*
X0244000Y0218500D03*
X0227000Y0214500D03*
X0216000Y0218500D03*
X0214500Y0208000D03*
X0195500Y0205500D03*
X0196000Y0218500D03*
X0176000Y0208000D03*
X0174000Y0218000D03*
X0160500Y0212500D03*
X0159500Y0218000D03*
X0154000Y0213000D03*
X0259500Y0188000D03*
X0267000Y0196000D03*
X0280000Y0201000D03*
X0271500Y0216000D03*
X0260500Y0170000D03*
X0139500Y0120000D03*
X0043000Y0104000D03*
X0011000Y0109500D03*
X0266000Y0029500D03*
X0281000Y0032000D03*
X0280000Y0015000D03*
X0271500Y0007000D03*
D21*
X0124500Y0194000D02*
X0124500Y0203000D01*
X0008000Y0181000D02*
X0008000Y0180500D01*
X0008000Y0181000D02*
X0006100Y0181000D01*
D22*
X0007332Y0006493D02*
X0046406Y0006493D01*
X0047041Y0005857D02*
X0047857Y0005041D01*
X0048923Y0004600D01*
X0220077Y0004600D01*
X0221143Y0005041D01*
X0221958Y0005857D01*
X0222400Y0006923D01*
X0222400Y0008077D01*
X0221958Y0009143D01*
X0221143Y0009958D01*
X0220077Y0010400D01*
X0145900Y0010400D01*
X0145900Y0030299D01*
X0183201Y0067600D01*
X0218799Y0067600D01*
X0220357Y0066041D01*
X0221423Y0065600D01*
X0222577Y0065600D01*
X0223643Y0066041D01*
X0224458Y0066857D01*
X0224900Y0067923D01*
X0224900Y0069077D01*
X0224458Y0070143D01*
X0222458Y0072143D01*
X0221643Y0072958D01*
X0220577Y0073400D01*
X0210400Y0073400D01*
X0210400Y0090100D01*
X0219577Y0090100D01*
X0220643Y0090541D01*
X0221458Y0091357D01*
X0221900Y0092423D01*
X0221900Y0093577D01*
X0221458Y0094643D01*
X0220643Y0095458D01*
X0219577Y0095900D01*
X0206923Y0095900D01*
X0205857Y0095458D01*
X0205041Y0094643D01*
X0204600Y0093577D01*
X0204600Y0073400D01*
X0181423Y0073400D01*
X0180357Y0072958D01*
X0141357Y0033958D01*
X0140541Y0033143D01*
X0140100Y0032077D01*
X0140100Y0010400D01*
X0050701Y0010400D01*
X0046400Y0014701D01*
X0046400Y0023077D01*
X0045958Y0024143D01*
X0045143Y0024958D01*
X0038143Y0031958D01*
X0037077Y0032400D01*
X0020627Y0032400D01*
X0022152Y0033032D01*
X0023468Y0034348D01*
X0024181Y0036069D01*
X0024181Y0037931D01*
X0023468Y0039652D01*
X0022781Y0040339D01*
X0022781Y0043661D01*
X0023468Y0044348D01*
X0024181Y0046069D01*
X0024181Y0047041D01*
X0025345Y0048204D01*
X0025200Y0047855D01*
X0025200Y0046145D01*
X0025855Y0044564D01*
X0027064Y0043355D01*
X0028645Y0042700D01*
X0030355Y0042700D01*
X0031936Y0043355D01*
X0033145Y0044564D01*
X0033800Y0046145D01*
X0033800Y0047855D01*
X0033145Y0049436D01*
X0031936Y0050645D01*
X0030355Y0051300D01*
X0028645Y0051300D01*
X0028296Y0051155D01*
X0035359Y0058219D01*
X0142153Y0058219D01*
X0143359Y0058718D01*
X0159373Y0074733D01*
X0159392Y0074741D01*
X0159834Y0075194D01*
X0160282Y0075641D01*
X0160289Y0075660D01*
X0160304Y0075675D01*
X0160539Y0076263D01*
X0160781Y0076847D01*
X0160781Y0076868D01*
X0160789Y0076887D01*
X0160781Y0077520D01*
X0160781Y0078153D01*
X0160773Y0078172D01*
X0160281Y0119020D01*
X0160281Y0119653D01*
X0160273Y0119672D01*
X0160273Y0119692D01*
X0160024Y0120274D01*
X0159782Y0120859D01*
X0159767Y0120873D01*
X0159759Y0120892D01*
X0159306Y0121334D01*
X0153782Y0126859D01*
X0152859Y0127782D01*
X0151653Y0128281D01*
X0148839Y0128281D01*
X0148152Y0128968D01*
X0148061Y0129006D01*
X0148061Y0167932D01*
X0148508Y0168379D01*
X0149177Y0169995D01*
X0149177Y0171745D01*
X0148508Y0173361D01*
X0148061Y0173808D01*
X0148061Y0182373D01*
X0147561Y0183579D01*
X0146638Y0184502D01*
X0135282Y0195859D01*
X0134359Y0196782D01*
X0133153Y0197281D01*
X0126981Y0197281D01*
X0126981Y0201984D01*
X0127181Y0202467D01*
X0127181Y0203533D01*
X0126773Y0204519D01*
X0126019Y0205273D01*
X0125033Y0205681D01*
X0123967Y0205681D01*
X0122981Y0205273D01*
X0122227Y0204519D01*
X0121819Y0203533D01*
X0121819Y0202467D01*
X0122019Y0201984D01*
X0122019Y0197281D01*
X0086050Y0197281D01*
X0085447Y0197299D01*
X0085399Y0197281D01*
X0085347Y0197281D01*
X0084790Y0197050D01*
X0084227Y0196837D01*
X0084189Y0196801D01*
X0084141Y0196782D01*
X0083715Y0196355D01*
X0076199Y0189281D01*
X0067781Y0189281D01*
X0067781Y0206653D01*
X0067282Y0207859D01*
X0066359Y0208782D01*
X0065153Y0209281D01*
X0063847Y0209281D01*
X0062641Y0208782D01*
X0061718Y0207859D01*
X0061219Y0206653D01*
X0061219Y0187359D01*
X0058141Y0184281D01*
X0045847Y0184281D01*
X0044641Y0183782D01*
X0043718Y0182859D01*
X0043219Y0181653D01*
X0043219Y0180347D01*
X0043718Y0179141D01*
X0044641Y0178218D01*
X0045531Y0177850D01*
X0027698Y0177850D01*
X0027577Y0177900D01*
X0026423Y0177900D01*
X0025357Y0177458D01*
X0013857Y0165958D01*
X0013041Y0165143D01*
X0012600Y0164077D01*
X0012600Y0127923D01*
X0013041Y0126857D01*
X0019541Y0120357D01*
X0019999Y0119900D01*
X0008500Y0119900D01*
X0008500Y0176200D01*
X0008855Y0176200D01*
X0010436Y0176855D01*
X0011645Y0178064D01*
X0012300Y0179645D01*
X0012300Y0181355D01*
X0011645Y0182936D01*
X0010436Y0184145D01*
X0008855Y0184800D01*
X0008500Y0184800D01*
X0008500Y0194399D01*
X0010201Y0196100D01*
X0013799Y0196100D01*
X0020357Y0189541D01*
X0021423Y0189100D01*
X0037077Y0189100D01*
X0038143Y0189541D01*
X0038958Y0190357D01*
X0038958Y0190357D01*
X0047958Y0199357D01*
X0048400Y0200423D01*
X0048400Y0208799D01*
X0054701Y0215100D01*
X0084975Y0215100D01*
X0085389Y0214928D01*
X0086611Y0214928D01*
X0087025Y0215100D01*
X0160077Y0215100D01*
X0161143Y0215541D01*
X0161958Y0216357D01*
X0162400Y0217423D01*
X0162400Y0218577D01*
X0161958Y0219643D01*
X0161143Y0220458D01*
X0161109Y0220472D01*
X0270791Y0220472D01*
X0272446Y0220364D01*
X0275641Y0219508D01*
X0278506Y0217854D01*
X0280846Y0215514D01*
X0282500Y0212649D01*
X0283356Y0209453D01*
X0283465Y0207799D01*
X0283465Y0141000D01*
X0233000Y0141000D01*
X0233000Y0120500D01*
X0283465Y0120500D01*
X0283465Y0015673D01*
X0283356Y0014019D01*
X0282500Y0010823D01*
X0280846Y0007958D01*
X0278506Y0005619D01*
X0275641Y0003965D01*
X0272446Y0003108D01*
X0270791Y0003000D01*
X0015716Y0003000D01*
X0014009Y0003170D01*
X0010717Y0004174D01*
X0007797Y0005995D01*
X0005448Y0008509D01*
X0003830Y0011546D01*
X0003053Y0014899D01*
X0003000Y0016594D01*
X0003000Y0016648D01*
X0003020Y0017243D01*
X0003000Y0017265D01*
X0003000Y0037647D01*
X0003137Y0037314D01*
X0003140Y0037311D01*
X0003141Y0037307D01*
X0003547Y0036902D01*
X0012540Y0027861D01*
X0012541Y0027857D01*
X0012948Y0027451D01*
X0013351Y0027046D01*
X0013354Y0027044D01*
X0013357Y0027041D01*
X0013887Y0026822D01*
X0014415Y0026602D01*
X0014419Y0026602D01*
X0014423Y0026600D01*
X0014995Y0026600D01*
X0015569Y0026598D01*
X0015573Y0026600D01*
X0035299Y0026600D01*
X0040600Y0021299D01*
X0040600Y0012923D01*
X0041041Y0011857D01*
X0047041Y0005857D01*
X0047405Y0005494D02*
X0008600Y0005494D01*
X0010201Y0004496D02*
X0276561Y0004496D01*
X0278290Y0005494D02*
X0221595Y0005494D01*
X0222222Y0006493D02*
X0279380Y0006493D01*
X0280379Y0007491D02*
X0260807Y0007491D01*
X0261006Y0007573D02*
X0262029Y0008164D01*
X0262966Y0008883D01*
X0263802Y0009719D01*
X0264521Y0010656D01*
X0265112Y0011679D01*
X0265564Y0012770D01*
X0265869Y0013911D01*
X0266024Y0015083D01*
X0266024Y0015173D01*
X0257512Y0015173D01*
X0257512Y0016173D01*
X0266024Y0016173D01*
X0266024Y0016264D01*
X0265869Y0017435D01*
X0265564Y0018576D01*
X0265112Y0019668D01*
X0264521Y0020691D01*
X0263802Y0021628D01*
X0262966Y0022463D01*
X0262029Y0023182D01*
X0261006Y0023773D01*
X0259915Y0024225D01*
X0258774Y0024531D01*
X0257602Y0024685D01*
X0257512Y0024685D01*
X0257512Y0016173D01*
X0256512Y0016173D01*
X0256512Y0015173D01*
X0257512Y0015173D01*
X0257512Y0006661D01*
X0257602Y0006661D01*
X0258774Y0006816D01*
X0259915Y0007121D01*
X0261006Y0007573D01*
X0262453Y0008490D02*
X0281152Y0008490D01*
X0281729Y0009488D02*
X0263571Y0009488D01*
X0264391Y0010487D02*
X0282305Y0010487D01*
X0282677Y0011485D02*
X0265000Y0011485D01*
X0265445Y0012484D02*
X0282945Y0012484D01*
X0283212Y0013482D02*
X0265754Y0013482D01*
X0265944Y0014481D02*
X0283386Y0014481D01*
X0283452Y0015479D02*
X0257512Y0015479D01*
X0257512Y0014481D02*
X0256512Y0014481D01*
X0256512Y0015173D02*
X0256512Y0006661D01*
X0256421Y0006661D01*
X0255250Y0006816D01*
X0254109Y0007121D01*
X0253017Y0007573D01*
X0251994Y0008164D01*
X0251057Y0008883D01*
X0250222Y0009719D01*
X0249503Y0010656D01*
X0248912Y0011679D01*
X0248460Y0012770D01*
X0248154Y0013911D01*
X0248000Y0015083D01*
X0248000Y0015173D01*
X0256512Y0015173D01*
X0256512Y0015479D02*
X0145900Y0015479D01*
X0145900Y0014481D02*
X0248079Y0014481D01*
X0248269Y0013482D02*
X0145900Y0013482D01*
X0145900Y0012484D02*
X0248579Y0012484D01*
X0249024Y0011485D02*
X0145900Y0011485D01*
X0145900Y0010487D02*
X0249632Y0010487D01*
X0250452Y0009488D02*
X0221613Y0009488D01*
X0222229Y0008490D02*
X0251570Y0008490D01*
X0253216Y0007491D02*
X0222400Y0007491D01*
X0216453Y0016200D02*
X0214547Y0016200D01*
X0213300Y0017447D01*
X0213300Y0017047D01*
X0211953Y0015700D01*
X0210047Y0015700D01*
X0208700Y0017047D01*
X0208700Y0018953D01*
X0210047Y0020300D01*
X0211953Y0020300D01*
X0213200Y0019053D01*
X0213200Y0019453D01*
X0214547Y0020800D01*
X0216453Y0020800D01*
X0217800Y0019453D01*
X0217800Y0017547D01*
X0216453Y0016200D01*
X0216730Y0016478D02*
X0248028Y0016478D01*
X0248000Y0016264D02*
X0248000Y0016173D01*
X0256512Y0016173D01*
X0256512Y0024685D01*
X0256421Y0024685D01*
X0255250Y0024531D01*
X0254109Y0024225D01*
X0253017Y0023773D01*
X0251994Y0023182D01*
X0251057Y0022463D01*
X0250222Y0021628D01*
X0249503Y0020691D01*
X0248912Y0019668D01*
X0248460Y0018576D01*
X0248154Y0017435D01*
X0248000Y0016264D01*
X0248165Y0017476D02*
X0217729Y0017476D01*
X0217800Y0018475D02*
X0248433Y0018475D01*
X0248832Y0019473D02*
X0217779Y0019473D01*
X0216781Y0020472D02*
X0249376Y0020472D01*
X0250101Y0021470D02*
X0145900Y0021470D01*
X0145900Y0020472D02*
X0214219Y0020472D01*
X0213221Y0019473D02*
X0212779Y0019473D01*
X0212730Y0016478D02*
X0214270Y0016478D01*
X0209270Y0016478D02*
X0145900Y0016478D01*
X0145900Y0017476D02*
X0208700Y0017476D01*
X0208700Y0018475D02*
X0145900Y0018475D01*
X0145900Y0019473D02*
X0209221Y0019473D01*
X0224355Y0027564D02*
X0225564Y0026355D01*
X0227145Y0025700D01*
X0228855Y0025700D01*
X0230436Y0026355D01*
X0231645Y0027564D01*
X0232300Y0029145D01*
X0232300Y0030855D01*
X0231645Y0032436D01*
X0230436Y0033645D01*
X0228855Y0034300D01*
X0227145Y0034300D01*
X0225564Y0033645D01*
X0224355Y0032436D01*
X0223700Y0030855D01*
X0223700Y0029145D01*
X0224355Y0027564D01*
X0224458Y0027461D02*
X0145900Y0027461D01*
X0145900Y0026463D02*
X0225456Y0026463D01*
X0223984Y0028460D02*
X0145900Y0028460D01*
X0145900Y0029458D02*
X0223700Y0029458D01*
X0223700Y0030457D02*
X0146058Y0030457D01*
X0147057Y0031455D02*
X0223949Y0031455D01*
X0224373Y0032454D02*
X0148055Y0032454D01*
X0149054Y0033452D02*
X0225371Y0033452D01*
X0227145Y0035700D02*
X0228855Y0035700D01*
X0230436Y0036355D01*
X0231645Y0037564D01*
X0232300Y0039145D01*
X0232300Y0040855D01*
X0231645Y0042436D01*
X0230436Y0043645D01*
X0228855Y0044300D01*
X0227145Y0044300D01*
X0225564Y0043645D01*
X0224355Y0042436D01*
X0223700Y0040855D01*
X0223700Y0039145D01*
X0224355Y0037564D01*
X0225564Y0036355D01*
X0227145Y0035700D01*
X0225471Y0036448D02*
X0152049Y0036448D01*
X0151051Y0035449D02*
X0283465Y0035449D01*
X0283465Y0034451D02*
X0150052Y0034451D01*
X0153048Y0037446D02*
X0224472Y0037446D01*
X0223990Y0038445D02*
X0154046Y0038445D01*
X0155045Y0039443D02*
X0223700Y0039443D01*
X0223700Y0040442D02*
X0156043Y0040442D01*
X0157042Y0041440D02*
X0223942Y0041440D01*
X0224358Y0042439D02*
X0158040Y0042439D01*
X0159039Y0043437D02*
X0202410Y0043437D01*
X0202000Y0043847D02*
X0203347Y0042500D01*
X0205253Y0042500D01*
X0206300Y0043547D01*
X0207347Y0042500D01*
X0209253Y0042500D01*
X0210250Y0043497D01*
X0211247Y0042500D01*
X0213153Y0042500D01*
X0214200Y0043547D01*
X0215247Y0042500D01*
X0217153Y0042500D01*
X0218500Y0043847D01*
X0218500Y0045753D01*
X0217153Y0047100D01*
X0215247Y0047100D01*
X0214200Y0046053D01*
X0213153Y0047100D01*
X0211247Y0047100D01*
X0210250Y0046103D01*
X0209253Y0047100D01*
X0207347Y0047100D01*
X0206300Y0046053D01*
X0205253Y0047100D01*
X0203347Y0047100D01*
X0202000Y0045753D01*
X0202000Y0043847D01*
X0202000Y0044436D02*
X0160037Y0044436D01*
X0161036Y0045434D02*
X0202000Y0045434D01*
X0202680Y0046433D02*
X0162034Y0046433D01*
X0163033Y0047432D02*
X0224487Y0047432D01*
X0224355Y0047564D02*
X0225564Y0046355D01*
X0227145Y0045700D01*
X0228855Y0045700D01*
X0230436Y0046355D01*
X0231645Y0047564D01*
X0232300Y0049145D01*
X0232300Y0050855D01*
X0231645Y0052436D01*
X0230436Y0053645D01*
X0228855Y0054300D01*
X0227145Y0054300D01*
X0225564Y0053645D01*
X0224355Y0052436D01*
X0223700Y0050855D01*
X0223700Y0049145D01*
X0224355Y0047564D01*
X0223996Y0048430D02*
X0164031Y0048430D01*
X0165030Y0049429D02*
X0223700Y0049429D01*
X0223700Y0050427D02*
X0166028Y0050427D01*
X0167027Y0051426D02*
X0189822Y0051426D01*
X0189200Y0052047D02*
X0190547Y0050700D01*
X0192453Y0050700D01*
X0193500Y0051747D01*
X0194547Y0050700D01*
X0196453Y0050700D01*
X0197800Y0052047D01*
X0197800Y0053953D01*
X0196453Y0055300D01*
X0194547Y0055300D01*
X0193500Y0054253D01*
X0192453Y0055300D01*
X0190547Y0055300D01*
X0189200Y0053953D01*
X0189200Y0052047D01*
X0189200Y0052424D02*
X0168025Y0052424D01*
X0169024Y0053423D02*
X0189200Y0053423D01*
X0189668Y0054421D02*
X0170022Y0054421D01*
X0171021Y0055420D02*
X0283465Y0055420D01*
X0283465Y0056418D02*
X0172019Y0056418D01*
X0173018Y0057417D02*
X0283465Y0057417D01*
X0283465Y0058415D02*
X0174016Y0058415D01*
X0175015Y0059414D02*
X0283465Y0059414D01*
X0283465Y0060412D02*
X0176013Y0060412D01*
X0177012Y0061411D02*
X0283465Y0061411D01*
X0283465Y0062409D02*
X0178010Y0062409D01*
X0179009Y0063408D02*
X0283465Y0063408D01*
X0283465Y0064406D02*
X0180007Y0064406D01*
X0181006Y0065405D02*
X0283465Y0065405D01*
X0283465Y0066403D02*
X0224004Y0066403D01*
X0224684Y0067402D02*
X0283465Y0067402D01*
X0283465Y0068400D02*
X0224900Y0068400D01*
X0224767Y0069399D02*
X0229849Y0069399D01*
X0229200Y0070047D02*
X0230547Y0068700D01*
X0232453Y0068700D01*
X0233800Y0070047D01*
X0233800Y0071953D01*
X0232453Y0073300D01*
X0230547Y0073300D01*
X0229200Y0071953D01*
X0229200Y0070047D01*
X0229200Y0070397D02*
X0224204Y0070397D01*
X0223205Y0071396D02*
X0229200Y0071396D01*
X0229642Y0072394D02*
X0222207Y0072394D01*
X0220594Y0073393D02*
X0270773Y0073393D01*
X0270991Y0072866D02*
X0272299Y0071558D01*
X0274008Y0070850D01*
X0275858Y0070850D01*
X0277567Y0071558D01*
X0278875Y0072866D01*
X0279583Y0074575D01*
X0279583Y0076425D01*
X0278875Y0078134D01*
X0277567Y0079442D01*
X0275858Y0080150D01*
X0274008Y0080150D01*
X0272299Y0079442D01*
X0270991Y0078134D01*
X0270283Y0076425D01*
X0270283Y0074575D01*
X0270991Y0072866D01*
X0271463Y0072394D02*
X0233358Y0072394D01*
X0233800Y0071396D02*
X0272691Y0071396D01*
X0270360Y0074391D02*
X0210400Y0074391D01*
X0210400Y0075390D02*
X0270283Y0075390D01*
X0270283Y0076388D02*
X0210400Y0076388D01*
X0210400Y0077387D02*
X0270682Y0077387D01*
X0271243Y0078385D02*
X0210400Y0078385D01*
X0210400Y0079384D02*
X0272241Y0079384D01*
X0277625Y0079384D02*
X0283465Y0079384D01*
X0283465Y0080382D02*
X0210400Y0080382D01*
X0210400Y0081381D02*
X0283465Y0081381D01*
X0283465Y0082379D02*
X0210400Y0082379D01*
X0210400Y0083378D02*
X0283465Y0083378D01*
X0283465Y0084376D02*
X0210400Y0084376D01*
X0210400Y0085375D02*
X0283465Y0085375D01*
X0283465Y0086373D02*
X0210400Y0086373D01*
X0210400Y0087372D02*
X0283465Y0087372D01*
X0283465Y0088370D02*
X0210400Y0088370D01*
X0210400Y0089369D02*
X0283465Y0089369D01*
X0283465Y0090368D02*
X0220223Y0090368D01*
X0221462Y0091366D02*
X0283465Y0091366D01*
X0283465Y0092365D02*
X0221876Y0092365D01*
X0221900Y0093363D02*
X0283465Y0093363D01*
X0283465Y0094362D02*
X0221575Y0094362D01*
X0220741Y0095360D02*
X0283465Y0095360D01*
X0283465Y0096359D02*
X0160554Y0096359D01*
X0160542Y0097357D02*
X0283465Y0097357D01*
X0283465Y0098356D02*
X0160530Y0098356D01*
X0160518Y0099354D02*
X0283465Y0099354D01*
X0283465Y0100353D02*
X0160506Y0100353D01*
X0160494Y0101351D02*
X0283465Y0101351D01*
X0283465Y0102350D02*
X0160482Y0102350D01*
X0160470Y0103348D02*
X0283465Y0103348D01*
X0283465Y0104347D02*
X0160458Y0104347D01*
X0160446Y0105345D02*
X0283465Y0105345D01*
X0283465Y0106344D02*
X0160434Y0106344D01*
X0160422Y0107342D02*
X0283465Y0107342D01*
X0283465Y0108341D02*
X0160410Y0108341D01*
X0160398Y0109339D02*
X0283465Y0109339D01*
X0283465Y0110338D02*
X0160386Y0110338D01*
X0160374Y0111336D02*
X0283465Y0111336D01*
X0283465Y0112335D02*
X0160362Y0112335D01*
X0160350Y0113333D02*
X0283465Y0113333D01*
X0283465Y0114332D02*
X0160338Y0114332D01*
X0160326Y0115330D02*
X0283465Y0115330D01*
X0283465Y0116329D02*
X0160314Y0116329D01*
X0160301Y0117327D02*
X0283465Y0117327D01*
X0283465Y0118326D02*
X0160289Y0118326D01*
X0160281Y0119324D02*
X0283465Y0119324D01*
X0283465Y0120323D02*
X0160003Y0120323D01*
X0159319Y0121321D02*
X0233000Y0121321D01*
X0233000Y0122320D02*
X0158320Y0122320D01*
X0157322Y0123318D02*
X0233000Y0123318D01*
X0233000Y0124317D02*
X0156323Y0124317D01*
X0155325Y0125315D02*
X0233000Y0125315D01*
X0233000Y0126314D02*
X0181067Y0126314D01*
X0180453Y0125700D02*
X0181800Y0127047D01*
X0181800Y0128953D01*
X0180453Y0130300D01*
X0178547Y0130300D01*
X0177200Y0128953D01*
X0177200Y0127047D01*
X0178547Y0125700D01*
X0180453Y0125700D01*
X0181800Y0127312D02*
X0233000Y0127312D01*
X0233000Y0128311D02*
X0181800Y0128311D01*
X0181443Y0129309D02*
X0233000Y0129309D01*
X0233000Y0130308D02*
X0148061Y0130308D01*
X0148061Y0131306D02*
X0233000Y0131306D01*
X0233000Y0132305D02*
X0148061Y0132305D01*
X0148061Y0133303D02*
X0233000Y0133303D01*
X0233000Y0134302D02*
X0148061Y0134302D01*
X0148061Y0135301D02*
X0233000Y0135301D01*
X0233000Y0136299D02*
X0148061Y0136299D01*
X0148061Y0137298D02*
X0233000Y0137298D01*
X0233000Y0138296D02*
X0148061Y0138296D01*
X0148061Y0139295D02*
X0185485Y0139295D01*
X0184616Y0139654D02*
X0186500Y0138874D01*
X0188539Y0138874D01*
X0190423Y0139654D01*
X0191865Y0141096D01*
X0192646Y0142980D01*
X0192646Y0145020D01*
X0191865Y0146904D01*
X0190423Y0148346D01*
X0188539Y0149126D01*
X0186500Y0149126D01*
X0184616Y0148346D01*
X0183174Y0146904D01*
X0182394Y0145020D01*
X0182394Y0142980D01*
X0183174Y0141096D01*
X0184616Y0139654D01*
X0183977Y0140293D02*
X0179402Y0140293D01*
X0179116Y0140147D02*
X0179699Y0140444D01*
X0180228Y0140829D01*
X0180691Y0141292D01*
X0183093Y0141292D01*
X0182680Y0142290D02*
X0181314Y0142290D01*
X0181373Y0142404D02*
X0181575Y0143026D01*
X0181668Y0143614D01*
X0177906Y0143614D01*
X0177906Y0144386D01*
X0181668Y0144386D01*
X0181575Y0144974D01*
X0181373Y0145596D01*
X0181075Y0146179D01*
X0180691Y0146708D01*
X0180228Y0147171D01*
X0179699Y0147556D01*
X0179116Y0147853D01*
X0178493Y0148055D01*
X0177906Y0148148D01*
X0177906Y0144386D01*
X0177134Y0144386D01*
X0177134Y0148148D01*
X0176546Y0148055D01*
X0175924Y0147853D01*
X0175341Y0147556D01*
X0174811Y0147171D01*
X0174349Y0146708D01*
X0173964Y0146179D01*
X0173667Y0145596D01*
X0173465Y0144974D01*
X0173371Y0144386D01*
X0177134Y0144386D01*
X0177134Y0143614D01*
X0177906Y0143614D01*
X0177906Y0139852D01*
X0178493Y0139945D01*
X0179116Y0140147D01*
X0177906Y0140293D02*
X0177134Y0140293D01*
X0177134Y0139852D02*
X0177134Y0143614D01*
X0173371Y0143614D01*
X0173465Y0143026D01*
X0173667Y0142404D01*
X0173964Y0141821D01*
X0174349Y0141292D01*
X0148061Y0141292D01*
X0148061Y0142290D02*
X0173725Y0142290D01*
X0173423Y0143289D02*
X0148061Y0143289D01*
X0148061Y0144287D02*
X0177134Y0144287D01*
X0177906Y0144287D02*
X0182394Y0144287D01*
X0182394Y0143289D02*
X0181616Y0143289D01*
X0181373Y0142404D02*
X0181075Y0141821D01*
X0180691Y0141292D01*
X0177906Y0141292D02*
X0177134Y0141292D01*
X0177134Y0142290D02*
X0177906Y0142290D01*
X0177906Y0143289D02*
X0177134Y0143289D01*
X0177134Y0145286D02*
X0177906Y0145286D01*
X0177906Y0146284D02*
X0177134Y0146284D01*
X0177134Y0147283D02*
X0177906Y0147283D01*
X0180075Y0147283D02*
X0183553Y0147283D01*
X0182917Y0146284D02*
X0180999Y0146284D01*
X0181473Y0145286D02*
X0182504Y0145286D01*
X0184552Y0148281D02*
X0148061Y0148281D01*
X0148061Y0147283D02*
X0174965Y0147283D01*
X0174040Y0146284D02*
X0148061Y0146284D01*
X0148061Y0145286D02*
X0173566Y0145286D01*
X0174349Y0141292D02*
X0174811Y0140829D01*
X0175341Y0140444D01*
X0175924Y0140147D01*
X0176546Y0139945D01*
X0177134Y0139852D01*
X0175637Y0140293D02*
X0148061Y0140293D01*
X0141498Y0140293D02*
X0075443Y0140293D01*
X0075783Y0139953D02*
X0074436Y0141300D01*
X0072530Y0141300D01*
X0071183Y0139953D01*
X0071183Y0138047D01*
X0072530Y0136700D01*
X0074436Y0136700D01*
X0075783Y0138047D01*
X0075783Y0139953D01*
X0075783Y0139295D02*
X0141498Y0139295D01*
X0141498Y0138296D02*
X0075783Y0138296D01*
X0075033Y0137298D02*
X0141498Y0137298D01*
X0141498Y0136299D02*
X0031954Y0136299D01*
X0031453Y0136800D02*
X0032800Y0135453D01*
X0032800Y0133547D01*
X0031453Y0132200D01*
X0029547Y0132200D01*
X0028200Y0133547D01*
X0028200Y0135453D01*
X0029547Y0136800D01*
X0031453Y0136800D01*
X0032800Y0135301D02*
X0141498Y0135301D01*
X0141498Y0134302D02*
X0032800Y0134302D01*
X0032556Y0133303D02*
X0141498Y0133303D01*
X0141498Y0132305D02*
X0031558Y0132305D01*
X0029442Y0132305D02*
X0018400Y0132305D01*
X0018400Y0133303D02*
X0028444Y0133303D01*
X0028200Y0134302D02*
X0018400Y0134302D01*
X0018400Y0135301D02*
X0028200Y0135301D01*
X0029046Y0136299D02*
X0018400Y0136299D01*
X0018400Y0137298D02*
X0071933Y0137298D01*
X0071183Y0138296D02*
X0018400Y0138296D01*
X0018400Y0139295D02*
X0071183Y0139295D01*
X0071523Y0140293D02*
X0018400Y0140293D01*
X0018400Y0141292D02*
X0072522Y0141292D01*
X0074444Y0141292D02*
X0141498Y0141292D01*
X0141498Y0142290D02*
X0018400Y0142290D01*
X0018400Y0143289D02*
X0141498Y0143289D01*
X0141498Y0144287D02*
X0026040Y0144287D01*
X0025453Y0143700D02*
X0026800Y0145047D01*
X0026800Y0146953D01*
X0025453Y0148300D01*
X0023547Y0148300D01*
X0022200Y0146953D01*
X0022200Y0145047D01*
X0023547Y0143700D01*
X0025453Y0143700D01*
X0026800Y0145286D02*
X0071935Y0145286D01*
X0072530Y0144690D02*
X0074436Y0144690D01*
X0075783Y0146037D01*
X0075783Y0147943D01*
X0074989Y0148736D01*
X0075800Y0149547D01*
X0075800Y0151453D01*
X0074453Y0152800D01*
X0072547Y0152800D01*
X0071200Y0151453D01*
X0071200Y0149547D01*
X0071994Y0148753D01*
X0071183Y0147943D01*
X0071183Y0146037D01*
X0072530Y0144690D01*
X0071183Y0146284D02*
X0026800Y0146284D01*
X0026470Y0147283D02*
X0071183Y0147283D01*
X0071522Y0148281D02*
X0025472Y0148281D01*
X0026468Y0149280D02*
X0018400Y0149280D01*
X0018400Y0150278D02*
X0025700Y0150278D01*
X0025700Y0150047D02*
X0027047Y0148700D01*
X0028953Y0148700D01*
X0030300Y0150047D01*
X0030300Y0151953D01*
X0028953Y0153300D01*
X0027047Y0153300D01*
X0026800Y0153053D01*
X0026800Y0153953D01*
X0025453Y0155300D01*
X0023547Y0155300D01*
X0022200Y0153953D01*
X0022200Y0152047D01*
X0023547Y0150700D01*
X0025453Y0150700D01*
X0025700Y0150947D01*
X0025700Y0150047D01*
X0023528Y0148281D02*
X0018400Y0148281D01*
X0018400Y0147283D02*
X0022530Y0147283D01*
X0022200Y0146284D02*
X0018400Y0146284D01*
X0018400Y0145286D02*
X0022200Y0145286D01*
X0022960Y0144287D02*
X0018400Y0144287D01*
X0012600Y0144287D02*
X0008500Y0144287D01*
X0008500Y0143289D02*
X0012600Y0143289D01*
X0012600Y0142290D02*
X0008500Y0142290D01*
X0008500Y0141292D02*
X0012600Y0141292D01*
X0012600Y0140293D02*
X0008500Y0140293D01*
X0008500Y0139295D02*
X0012600Y0139295D01*
X0012600Y0138296D02*
X0008500Y0138296D01*
X0008500Y0137298D02*
X0012600Y0137298D01*
X0012600Y0136299D02*
X0008500Y0136299D01*
X0008500Y0135301D02*
X0012600Y0135301D01*
X0012600Y0134302D02*
X0008500Y0134302D01*
X0008500Y0133303D02*
X0012600Y0133303D01*
X0012600Y0132305D02*
X0008500Y0132305D01*
X0008500Y0131306D02*
X0012600Y0131306D01*
X0012600Y0130308D02*
X0008500Y0130308D01*
X0008500Y0129309D02*
X0012600Y0129309D01*
X0012600Y0128311D02*
X0008500Y0128311D01*
X0008500Y0127312D02*
X0012853Y0127312D01*
X0013585Y0126314D02*
X0008500Y0126314D01*
X0008500Y0125315D02*
X0014583Y0125315D01*
X0015582Y0124317D02*
X0008500Y0124317D01*
X0008500Y0123318D02*
X0016580Y0123318D01*
X0017579Y0122320D02*
X0008500Y0122320D01*
X0008500Y0121321D02*
X0018577Y0121321D01*
X0019576Y0120323D02*
X0008500Y0120323D01*
X0008500Y0114100D02*
X0027577Y0114100D01*
X0028643Y0114541D01*
X0029458Y0115357D01*
X0029900Y0116423D01*
X0029900Y0117577D01*
X0029458Y0118643D01*
X0028643Y0119458D01*
X0028542Y0119500D01*
X0028643Y0119541D01*
X0029458Y0120357D01*
X0029900Y0121423D01*
X0029900Y0122577D01*
X0029458Y0123643D01*
X0028643Y0124458D01*
X0027577Y0124900D01*
X0023201Y0124900D01*
X0018400Y0129701D01*
X0018400Y0162299D01*
X0028151Y0172050D01*
X0036297Y0172050D01*
X0035200Y0170953D01*
X0035200Y0169047D01*
X0036547Y0167700D01*
X0038453Y0167700D01*
X0039800Y0169047D01*
X0039800Y0170953D01*
X0038703Y0172050D01*
X0046297Y0172050D01*
X0045200Y0170953D01*
X0045200Y0169047D01*
X0046547Y0167700D01*
X0048453Y0167700D01*
X0049800Y0169047D01*
X0049800Y0170953D01*
X0048703Y0172050D01*
X0061147Y0172050D01*
X0060050Y0170953D01*
X0060050Y0169047D01*
X0061397Y0167700D01*
X0063303Y0167700D01*
X0064650Y0169047D01*
X0064650Y0170953D01*
X0063553Y0172050D01*
X0078527Y0172050D01*
X0079593Y0172491D01*
X0082458Y0175357D01*
X0082900Y0176423D01*
X0082900Y0177577D01*
X0082458Y0178643D01*
X0081643Y0179458D01*
X0080577Y0179900D01*
X0079423Y0179900D01*
X0078357Y0179458D01*
X0076749Y0177850D01*
X0060469Y0177850D01*
X0061359Y0178218D01*
X0062282Y0179141D01*
X0065859Y0182719D01*
X0077450Y0182719D01*
X0078053Y0182701D01*
X0078101Y0182719D01*
X0078153Y0182719D01*
X0078710Y0182950D01*
X0079273Y0183163D01*
X0079311Y0183199D01*
X0079359Y0183218D01*
X0079785Y0183645D01*
X0087301Y0190719D01*
X0088949Y0190719D01*
X0088035Y0190340D01*
X0087060Y0189365D01*
X0086531Y0188090D01*
X0086531Y0186710D01*
X0086826Y0186000D01*
X0086531Y0185290D01*
X0086531Y0183910D01*
X0087060Y0182635D01*
X0088035Y0181660D01*
X0089310Y0181131D01*
X0090690Y0181131D01*
X0091965Y0181660D01*
X0092940Y0182635D01*
X0093468Y0183910D01*
X0093468Y0185290D01*
X0093174Y0186000D01*
X0093468Y0186710D01*
X0093468Y0188090D01*
X0092940Y0189365D01*
X0091965Y0190340D01*
X0091051Y0190719D01*
X0131141Y0190719D01*
X0141498Y0180361D01*
X0141498Y0173808D01*
X0141051Y0173361D01*
X0140382Y0171745D01*
X0140382Y0169995D01*
X0141051Y0168379D01*
X0141498Y0167932D01*
X0141498Y0127572D01*
X0140819Y0125931D01*
X0140819Y0124069D01*
X0141532Y0122348D01*
X0142848Y0121032D01*
X0144569Y0120319D01*
X0146431Y0120319D01*
X0148152Y0121032D01*
X0148839Y0121719D01*
X0149641Y0121719D01*
X0153735Y0117625D01*
X0154202Y0078843D01*
X0140141Y0064781D01*
X0119359Y0064781D01*
X0120114Y0065535D01*
X0120642Y0066810D01*
X0120642Y0068190D01*
X0120114Y0069465D01*
X0119138Y0070440D01*
X0117863Y0070968D01*
X0116483Y0070968D01*
X0115500Y0070561D01*
X0114517Y0070968D01*
X0113137Y0070968D01*
X0112000Y0070498D01*
X0110863Y0070968D01*
X0109483Y0070968D01*
X0108500Y0070561D01*
X0107517Y0070968D01*
X0106137Y0070968D01*
X0104862Y0070440D01*
X0103886Y0069465D01*
X0103358Y0068190D01*
X0103358Y0066810D01*
X0103886Y0065535D01*
X0104640Y0064781D01*
X0033347Y0064781D01*
X0032141Y0064282D01*
X0031218Y0063359D01*
X0019541Y0051681D01*
X0018569Y0051681D01*
X0016848Y0050968D01*
X0015532Y0049652D01*
X0014819Y0047931D01*
X0014819Y0046069D01*
X0015532Y0044348D01*
X0016219Y0043661D01*
X0016219Y0040339D01*
X0015532Y0039652D01*
X0014819Y0037931D01*
X0014819Y0036069D01*
X0015532Y0034348D01*
X0016848Y0033032D01*
X0018373Y0032400D01*
X0016206Y0032400D01*
X0008500Y0040147D01*
X0008500Y0074229D01*
X0008834Y0073424D01*
X0009865Y0072393D01*
X0011212Y0071835D01*
X0012670Y0071835D01*
X0014017Y0072393D01*
X0015048Y0073424D01*
X0015606Y0074771D01*
X0015606Y0076229D01*
X0015048Y0077576D01*
X0014017Y0078607D01*
X0012670Y0079165D01*
X0011212Y0079165D01*
X0009865Y0078607D01*
X0008834Y0077576D01*
X0008500Y0076771D01*
X0008500Y0089586D01*
X0111917Y0089103D01*
X0111923Y0089100D01*
X0112493Y0089100D01*
X0113063Y0089097D01*
X0113070Y0089100D01*
X0113077Y0089100D01*
X0113604Y0089319D01*
X0114131Y0089534D01*
X0114136Y0089539D01*
X0114143Y0089541D01*
X0114547Y0089946D01*
X0114951Y0090346D01*
X0114953Y0090352D01*
X0130458Y0105857D01*
X0130826Y0106745D01*
X0131645Y0107564D01*
X0132300Y0109145D01*
X0132300Y0110855D01*
X0131645Y0112436D01*
X0130900Y0113181D01*
X0130900Y0116819D01*
X0131645Y0117564D01*
X0132300Y0119145D01*
X0132300Y0120855D01*
X0131645Y0122436D01*
X0130436Y0123645D01*
X0128855Y0124300D01*
X0127145Y0124300D01*
X0125564Y0123645D01*
X0124355Y0122436D01*
X0123700Y0120855D01*
X0123700Y0119145D01*
X0124355Y0117564D01*
X0125100Y0116819D01*
X0125100Y0113181D01*
X0124355Y0112436D01*
X0123700Y0110855D01*
X0123700Y0109145D01*
X0124240Y0107841D01*
X0111304Y0094906D01*
X0008500Y0095386D01*
X0008500Y0114100D01*
X0008500Y0113333D02*
X0045200Y0113333D01*
X0045200Y0113047D02*
X0046547Y0111700D01*
X0048453Y0111700D01*
X0049800Y0113047D01*
X0049800Y0114953D01*
X0048453Y0116300D01*
X0046547Y0116300D01*
X0045200Y0114953D01*
X0045200Y0113047D01*
X0045913Y0112335D02*
X0008500Y0112335D01*
X0008500Y0111336D02*
X0009584Y0111336D01*
X0010047Y0111800D02*
X0008700Y0110453D01*
X0008700Y0108547D01*
X0010047Y0107200D01*
X0011953Y0107200D01*
X0013300Y0108547D01*
X0013300Y0110453D01*
X0011953Y0111800D01*
X0010047Y0111800D01*
X0008700Y0110338D02*
X0008500Y0110338D01*
X0008500Y0109339D02*
X0008700Y0109339D01*
X0008500Y0108341D02*
X0008907Y0108341D01*
X0008500Y0107342D02*
X0009905Y0107342D01*
X0008500Y0106344D02*
X0105377Y0106344D01*
X0105641Y0106151D02*
X0106273Y0105830D01*
X0106946Y0105611D01*
X0107500Y0105523D01*
X0107500Y0109500D01*
X0108500Y0109500D01*
X0108500Y0110500D01*
X0112477Y0110500D01*
X0112389Y0111054D01*
X0112170Y0111727D01*
X0111849Y0112359D01*
X0111432Y0112932D01*
X0110932Y0113432D01*
X0110359Y0113849D01*
X0109727Y0114170D01*
X0109054Y0114389D01*
X0108500Y0114477D01*
X0108500Y0110500D01*
X0107500Y0110500D01*
X0107500Y0114477D01*
X0106946Y0114389D01*
X0106273Y0114170D01*
X0105641Y0113849D01*
X0105068Y0113432D01*
X0104568Y0112932D01*
X0104151Y0112359D01*
X0103830Y0111727D01*
X0103611Y0111054D01*
X0103523Y0110500D01*
X0107500Y0110500D01*
X0107500Y0109500D01*
X0103523Y0109500D01*
X0103611Y0108946D01*
X0103830Y0108273D01*
X0104151Y0107641D01*
X0104568Y0107068D01*
X0105068Y0106568D01*
X0105641Y0106151D01*
X0104369Y0107342D02*
X0012095Y0107342D01*
X0013093Y0108341D02*
X0103808Y0108341D01*
X0103549Y0109339D02*
X0013300Y0109339D01*
X0013300Y0110338D02*
X0107500Y0110338D01*
X0107500Y0111336D02*
X0108500Y0111336D01*
X0108500Y0110338D02*
X0113700Y0110338D01*
X0113700Y0110855D02*
X0113700Y0109145D01*
X0114355Y0107564D01*
X0115564Y0106355D01*
X0117145Y0105700D01*
X0118855Y0105700D01*
X0120436Y0106355D01*
X0121645Y0107564D01*
X0122300Y0109145D01*
X0122300Y0110855D01*
X0121645Y0112436D01*
X0120436Y0113645D01*
X0118855Y0114300D01*
X0117145Y0114300D01*
X0115564Y0113645D01*
X0114355Y0112436D01*
X0113700Y0110855D01*
X0113899Y0111336D02*
X0112297Y0111336D01*
X0111861Y0112335D02*
X0114313Y0112335D01*
X0115252Y0113333D02*
X0111031Y0113333D01*
X0109230Y0114332D02*
X0125100Y0114332D01*
X0125100Y0115330D02*
X0071583Y0115330D01*
X0071453Y0115200D02*
X0072800Y0116547D01*
X0072800Y0116700D01*
X0074453Y0116700D01*
X0075800Y0118047D01*
X0075800Y0119700D01*
X0075953Y0119700D01*
X0077300Y0121047D01*
X0077300Y0122953D01*
X0075953Y0124300D01*
X0074047Y0124300D01*
X0072700Y0122953D01*
X0072700Y0121300D01*
X0072547Y0121300D01*
X0071200Y0119953D01*
X0071200Y0119800D01*
X0069547Y0119800D01*
X0068200Y0118453D01*
X0068200Y0116547D01*
X0069547Y0115200D01*
X0071453Y0115200D01*
X0072581Y0116329D02*
X0105627Y0116329D01*
X0105564Y0116355D02*
X0107145Y0115700D01*
X0108855Y0115700D01*
X0110436Y0116355D01*
X0111645Y0117564D01*
X0112300Y0119145D01*
X0112300Y0120855D01*
X0111645Y0122436D01*
X0110436Y0123645D01*
X0108855Y0124300D01*
X0107145Y0124300D01*
X0105564Y0123645D01*
X0104355Y0122436D01*
X0103700Y0120855D01*
X0103700Y0119145D01*
X0104355Y0117564D01*
X0105564Y0116355D01*
X0104592Y0117327D02*
X0075080Y0117327D01*
X0075800Y0118326D02*
X0104039Y0118326D01*
X0103700Y0119324D02*
X0075800Y0119324D01*
X0076576Y0120323D02*
X0103700Y0120323D01*
X0103893Y0121321D02*
X0077300Y0121321D01*
X0077300Y0122320D02*
X0104307Y0122320D01*
X0105237Y0123318D02*
X0076934Y0123318D01*
X0074461Y0125315D02*
X0140819Y0125315D01*
X0140819Y0124317D02*
X0071300Y0124317D01*
X0071300Y0123547D02*
X0071300Y0125453D01*
X0069953Y0126800D01*
X0068047Y0126800D01*
X0066700Y0125453D01*
X0066700Y0123547D01*
X0068047Y0122200D01*
X0069953Y0122200D01*
X0071300Y0123547D01*
X0071071Y0123318D02*
X0073066Y0123318D01*
X0072700Y0122320D02*
X0070073Y0122320D01*
X0067927Y0122320D02*
X0040933Y0122320D01*
X0041300Y0121953D02*
X0039953Y0123300D01*
X0038047Y0123300D01*
X0036700Y0121953D01*
X0036700Y0120047D01*
X0038047Y0118700D01*
X0039953Y0118700D01*
X0041300Y0120047D01*
X0041300Y0121953D01*
X0041300Y0121321D02*
X0072700Y0121321D01*
X0071570Y0120323D02*
X0062507Y0120323D01*
X0062180Y0120458D02*
X0060800Y0120458D01*
X0059525Y0119930D01*
X0058549Y0118955D01*
X0058255Y0118245D01*
X0057545Y0117950D01*
X0056924Y0117329D01*
X0056453Y0117800D01*
X0054547Y0117800D01*
X0053200Y0116453D01*
X0053200Y0114547D01*
X0054547Y0113200D01*
X0056453Y0113200D01*
X0056490Y0113237D01*
X0056570Y0113045D01*
X0057545Y0112070D01*
X0058820Y0111542D01*
X0060200Y0111542D01*
X0061475Y0112070D01*
X0062450Y0113045D01*
X0062745Y0113755D01*
X0063455Y0114049D01*
X0064430Y0115025D01*
X0064958Y0116300D01*
X0064958Y0117680D01*
X0064430Y0118955D01*
X0063455Y0119930D01*
X0062180Y0120458D01*
X0060473Y0120323D02*
X0041300Y0120323D01*
X0040577Y0119324D02*
X0058919Y0119324D01*
X0058289Y0118326D02*
X0029590Y0118326D01*
X0029900Y0117327D02*
X0054075Y0117327D01*
X0053200Y0116329D02*
X0029861Y0116329D01*
X0029432Y0115330D02*
X0045578Y0115330D01*
X0045200Y0114332D02*
X0028136Y0114332D01*
X0028777Y0119324D02*
X0037423Y0119324D01*
X0036700Y0120323D02*
X0029424Y0120323D01*
X0029858Y0121321D02*
X0036700Y0121321D01*
X0037067Y0122320D02*
X0029900Y0122320D01*
X0029593Y0123318D02*
X0066929Y0123318D01*
X0066700Y0124317D02*
X0028784Y0124317D01*
X0031200Y0126547D02*
X0032547Y0125200D01*
X0034453Y0125200D01*
X0035800Y0126547D01*
X0035800Y0128453D01*
X0034453Y0129800D01*
X0032547Y0129800D01*
X0031200Y0128453D01*
X0031200Y0126547D01*
X0031433Y0126314D02*
X0021787Y0126314D01*
X0020789Y0127312D02*
X0031200Y0127312D01*
X0031200Y0128311D02*
X0028564Y0128311D01*
X0027953Y0127700D02*
X0029300Y0129047D01*
X0029300Y0130953D01*
X0027953Y0132300D01*
X0026047Y0132300D01*
X0024700Y0130953D01*
X0024700Y0129047D01*
X0026047Y0127700D01*
X0027953Y0127700D01*
X0029300Y0129309D02*
X0032057Y0129309D01*
X0034943Y0129309D02*
X0071950Y0129309D01*
X0072480Y0129840D02*
X0071133Y0128493D01*
X0071133Y0126587D01*
X0072480Y0125240D01*
X0074386Y0125240D01*
X0075733Y0126587D01*
X0075733Y0128493D01*
X0074386Y0129840D01*
X0072480Y0129840D01*
X0071133Y0128311D02*
X0035800Y0128311D01*
X0035800Y0127312D02*
X0071133Y0127312D01*
X0071406Y0126314D02*
X0070439Y0126314D01*
X0071300Y0125315D02*
X0072405Y0125315D01*
X0075460Y0126314D02*
X0140977Y0126314D01*
X0141391Y0127312D02*
X0075733Y0127312D01*
X0075733Y0128311D02*
X0141498Y0128311D01*
X0141498Y0129309D02*
X0074916Y0129309D01*
X0067561Y0126314D02*
X0035567Y0126314D01*
X0034568Y0125315D02*
X0066700Y0125315D01*
X0069072Y0119324D02*
X0064061Y0119324D01*
X0064691Y0118326D02*
X0068200Y0118326D01*
X0068200Y0117327D02*
X0064958Y0117327D01*
X0064958Y0116329D02*
X0068419Y0116329D01*
X0069417Y0115330D02*
X0064557Y0115330D01*
X0063737Y0114332D02*
X0106770Y0114332D01*
X0107500Y0114332D02*
X0108500Y0114332D01*
X0108500Y0113333D02*
X0107500Y0113333D01*
X0107500Y0112335D02*
X0108500Y0112335D01*
X0108500Y0109500D02*
X0112477Y0109500D01*
X0112389Y0108946D01*
X0112170Y0108273D01*
X0111849Y0107641D01*
X0111432Y0107068D01*
X0110932Y0106568D01*
X0110359Y0106151D01*
X0109727Y0105830D01*
X0109054Y0105611D01*
X0108500Y0105523D01*
X0108500Y0109500D01*
X0108500Y0109339D02*
X0107500Y0109339D01*
X0107500Y0108341D02*
X0108500Y0108341D01*
X0108500Y0107342D02*
X0107500Y0107342D01*
X0107500Y0106344D02*
X0108500Y0106344D01*
X0110623Y0106344D02*
X0115591Y0106344D01*
X0114577Y0107342D02*
X0111631Y0107342D01*
X0112192Y0108341D02*
X0114033Y0108341D01*
X0113700Y0109339D02*
X0112451Y0109339D01*
X0110373Y0116329D02*
X0115627Y0116329D01*
X0115564Y0116355D02*
X0117145Y0115700D01*
X0118855Y0115700D01*
X0120436Y0116355D01*
X0121645Y0117564D01*
X0122300Y0119145D01*
X0122300Y0120855D01*
X0121645Y0122436D01*
X0120436Y0123645D01*
X0118855Y0124300D01*
X0117145Y0124300D01*
X0115564Y0123645D01*
X0114355Y0122436D01*
X0113700Y0120855D01*
X0113700Y0119145D01*
X0114355Y0117564D01*
X0115564Y0116355D01*
X0114592Y0117327D02*
X0111408Y0117327D01*
X0111961Y0118326D02*
X0114039Y0118326D01*
X0113700Y0119324D02*
X0112300Y0119324D01*
X0112300Y0120323D02*
X0113700Y0120323D01*
X0113893Y0121321D02*
X0112107Y0121321D01*
X0111693Y0122320D02*
X0114307Y0122320D01*
X0115237Y0123318D02*
X0110763Y0123318D01*
X0120763Y0123318D02*
X0125237Y0123318D01*
X0124307Y0122320D02*
X0121693Y0122320D01*
X0122107Y0121321D02*
X0123893Y0121321D01*
X0123700Y0120323D02*
X0122300Y0120323D01*
X0122300Y0119324D02*
X0123700Y0119324D01*
X0124039Y0118326D02*
X0121961Y0118326D01*
X0121408Y0117327D02*
X0124592Y0117327D01*
X0125100Y0116329D02*
X0120373Y0116329D01*
X0120748Y0113333D02*
X0125100Y0113333D01*
X0124313Y0112335D02*
X0121687Y0112335D01*
X0122101Y0111336D02*
X0123899Y0111336D01*
X0123700Y0110338D02*
X0122300Y0110338D01*
X0122300Y0109339D02*
X0123700Y0109339D01*
X0124033Y0108341D02*
X0121967Y0108341D01*
X0121423Y0107342D02*
X0123741Y0107342D01*
X0122742Y0106344D02*
X0120409Y0106344D01*
X0121744Y0105345D02*
X0008500Y0105345D01*
X0008500Y0104347D02*
X0062116Y0104347D01*
X0062410Y0104468D02*
X0061135Y0103940D01*
X0060160Y0102965D01*
X0059631Y0101690D01*
X0059631Y0100310D01*
X0060160Y0099035D01*
X0061135Y0098060D01*
X0062410Y0097531D01*
X0063790Y0097531D01*
X0064500Y0097826D01*
X0065210Y0097531D01*
X0066590Y0097531D01*
X0067865Y0098060D01*
X0068840Y0099035D01*
X0069368Y0100310D01*
X0069368Y0101690D01*
X0068840Y0102965D01*
X0067865Y0103940D01*
X0066590Y0104468D01*
X0065210Y0104468D01*
X0064500Y0104174D01*
X0063790Y0104468D01*
X0062410Y0104468D01*
X0064084Y0104347D02*
X0064916Y0104347D01*
X0066884Y0104347D02*
X0120745Y0104347D01*
X0119747Y0103348D02*
X0068457Y0103348D01*
X0069095Y0102350D02*
X0118748Y0102350D01*
X0117750Y0101351D02*
X0069368Y0101351D01*
X0069368Y0100353D02*
X0116751Y0100353D01*
X0115753Y0099354D02*
X0068973Y0099354D01*
X0068161Y0098356D02*
X0114754Y0098356D01*
X0113756Y0097357D02*
X0008500Y0097357D01*
X0008500Y0096359D02*
X0112757Y0096359D01*
X0111759Y0095360D02*
X0014142Y0095360D01*
X0008500Y0098356D02*
X0060839Y0098356D01*
X0060027Y0099354D02*
X0008500Y0099354D01*
X0008500Y0100353D02*
X0059631Y0100353D01*
X0059631Y0101351D02*
X0008500Y0101351D01*
X0008500Y0102350D02*
X0059905Y0102350D01*
X0060543Y0103348D02*
X0008500Y0103348D01*
X0012416Y0111336D02*
X0103703Y0111336D01*
X0104139Y0112335D02*
X0061740Y0112335D01*
X0062570Y0113333D02*
X0104969Y0113333D01*
X0121958Y0097357D02*
X0153979Y0097357D01*
X0153991Y0096359D02*
X0120960Y0096359D01*
X0119961Y0095360D02*
X0154003Y0095360D01*
X0154016Y0094362D02*
X0118963Y0094362D01*
X0117964Y0093363D02*
X0154028Y0093363D01*
X0154040Y0092365D02*
X0116966Y0092365D01*
X0115967Y0091366D02*
X0154052Y0091366D01*
X0154064Y0090368D02*
X0114969Y0090368D01*
X0113728Y0089369D02*
X0154076Y0089369D01*
X0154088Y0088370D02*
X0008500Y0088370D01*
X0008500Y0087372D02*
X0019812Y0087372D01*
X0020240Y0087800D02*
X0018893Y0086453D01*
X0018893Y0084547D01*
X0020240Y0083200D01*
X0022146Y0083200D01*
X0023493Y0084547D01*
X0023493Y0086453D01*
X0022146Y0087800D01*
X0020240Y0087800D01*
X0018893Y0086373D02*
X0008500Y0086373D01*
X0008500Y0085375D02*
X0018893Y0085375D01*
X0019064Y0084376D02*
X0008500Y0084376D01*
X0008500Y0083378D02*
X0020062Y0083378D01*
X0022324Y0083378D02*
X0064310Y0083378D01*
X0064131Y0083810D02*
X0064660Y0082535D01*
X0065635Y0081560D01*
X0066910Y0081031D01*
X0068290Y0081031D01*
X0069000Y0081326D01*
X0069710Y0081031D01*
X0071090Y0081031D01*
X0072365Y0081560D01*
X0073340Y0082535D01*
X0073868Y0083810D01*
X0073868Y0085190D01*
X0073340Y0086465D01*
X0072365Y0087440D01*
X0071090Y0087968D01*
X0069710Y0087968D01*
X0069000Y0087674D01*
X0068290Y0087968D01*
X0066910Y0087968D01*
X0065635Y0087440D01*
X0064660Y0086465D01*
X0064131Y0085190D01*
X0064131Y0083810D01*
X0064131Y0084376D02*
X0023322Y0084376D01*
X0023493Y0085375D02*
X0064208Y0085375D01*
X0064622Y0086373D02*
X0023493Y0086373D01*
X0022574Y0087372D02*
X0065567Y0087372D01*
X0064815Y0082379D02*
X0008500Y0082379D01*
X0008500Y0081381D02*
X0066067Y0081381D01*
X0071933Y0081381D02*
X0154172Y0081381D01*
X0154160Y0082379D02*
X0073185Y0082379D01*
X0073689Y0083378D02*
X0147369Y0083378D01*
X0147547Y0083200D02*
X0149453Y0083200D01*
X0150800Y0084547D01*
X0150800Y0086453D01*
X0149453Y0087800D01*
X0147547Y0087800D01*
X0146200Y0086453D01*
X0146200Y0084547D01*
X0147547Y0083200D01*
X0146371Y0084376D02*
X0073868Y0084376D01*
X0073792Y0085375D02*
X0146200Y0085375D01*
X0146200Y0086373D02*
X0073378Y0086373D01*
X0072433Y0087372D02*
X0147119Y0087372D01*
X0149881Y0087372D02*
X0154100Y0087372D01*
X0154112Y0086373D02*
X0150800Y0086373D01*
X0150800Y0085375D02*
X0154124Y0085375D01*
X0154136Y0084376D02*
X0150629Y0084376D01*
X0149631Y0083378D02*
X0154148Y0083378D01*
X0154184Y0080382D02*
X0008500Y0080382D01*
X0008500Y0079384D02*
X0116368Y0079384D01*
X0116480Y0079496D02*
X0115504Y0078520D01*
X0114976Y0077245D01*
X0114976Y0075865D01*
X0115504Y0074590D01*
X0116480Y0073615D01*
X0117282Y0073282D01*
X0117615Y0072480D01*
X0118590Y0071504D01*
X0119865Y0070976D01*
X0121245Y0070976D01*
X0122520Y0071504D01*
X0123496Y0072480D01*
X0124024Y0073755D01*
X0124024Y0075135D01*
X0123496Y0076410D01*
X0122520Y0077385D01*
X0121718Y0077718D01*
X0121385Y0078520D01*
X0120410Y0079496D01*
X0119135Y0080024D01*
X0117755Y0080024D01*
X0116480Y0079496D01*
X0115449Y0078385D02*
X0030828Y0078385D01*
X0030413Y0078800D02*
X0028508Y0078800D01*
X0027161Y0077453D01*
X0027161Y0075547D01*
X0028508Y0074200D01*
X0030413Y0074200D01*
X0031761Y0075547D01*
X0031761Y0077453D01*
X0030413Y0078800D01*
X0031761Y0077387D02*
X0115035Y0077387D01*
X0114976Y0076388D02*
X0031761Y0076388D01*
X0031603Y0075390D02*
X0115173Y0075390D01*
X0115703Y0074391D02*
X0030605Y0074391D01*
X0028317Y0074391D02*
X0015449Y0074391D01*
X0015606Y0075390D02*
X0027318Y0075390D01*
X0027161Y0076388D02*
X0015540Y0076388D01*
X0015127Y0077387D02*
X0027161Y0077387D01*
X0028093Y0078385D02*
X0014239Y0078385D01*
X0009643Y0078385D02*
X0008500Y0078385D01*
X0008500Y0077387D02*
X0008755Y0077387D01*
X0008865Y0073393D02*
X0008500Y0073393D01*
X0008500Y0072394D02*
X0009863Y0072394D01*
X0008500Y0071396D02*
X0118853Y0071396D01*
X0119181Y0070397D02*
X0145757Y0070397D01*
X0144759Y0069399D02*
X0120141Y0069399D01*
X0120555Y0068400D02*
X0143760Y0068400D01*
X0142762Y0067402D02*
X0120642Y0067402D01*
X0120473Y0066403D02*
X0141763Y0066403D01*
X0140765Y0065405D02*
X0119983Y0065405D01*
X0122258Y0071396D02*
X0146756Y0071396D01*
X0147754Y0072394D02*
X0123410Y0072394D01*
X0123874Y0073393D02*
X0148753Y0073393D01*
X0149751Y0074391D02*
X0124024Y0074391D01*
X0123918Y0075390D02*
X0150750Y0075390D01*
X0151748Y0076388D02*
X0123504Y0076388D01*
X0122516Y0077387D02*
X0152747Y0077387D01*
X0153745Y0078385D02*
X0121441Y0078385D01*
X0120521Y0079384D02*
X0154196Y0079384D01*
X0160030Y0075390D02*
X0167212Y0075390D01*
X0167212Y0075964D02*
X0167212Y0074059D01*
X0168559Y0072712D01*
X0170464Y0072712D01*
X0171175Y0073422D01*
X0171897Y0072700D01*
X0173803Y0072700D01*
X0175150Y0074047D01*
X0175150Y0075953D01*
X0173803Y0077300D01*
X0171897Y0077300D01*
X0171187Y0076589D01*
X0170464Y0077312D01*
X0168559Y0077312D01*
X0167212Y0075964D01*
X0167636Y0076388D02*
X0160591Y0076388D01*
X0160783Y0077387D02*
X0204600Y0077387D01*
X0204600Y0078385D02*
X0160771Y0078385D01*
X0160759Y0079384D02*
X0204600Y0079384D01*
X0204600Y0080382D02*
X0160747Y0080382D01*
X0160735Y0081381D02*
X0204600Y0081381D01*
X0204600Y0082379D02*
X0160723Y0082379D01*
X0160711Y0083378D02*
X0204600Y0083378D01*
X0204600Y0084376D02*
X0160698Y0084376D01*
X0160686Y0085375D02*
X0204600Y0085375D01*
X0204600Y0086373D02*
X0160674Y0086373D01*
X0160662Y0087372D02*
X0204600Y0087372D01*
X0204600Y0088370D02*
X0160650Y0088370D01*
X0160638Y0089369D02*
X0204600Y0089369D01*
X0204600Y0090368D02*
X0160626Y0090368D01*
X0160614Y0091366D02*
X0204600Y0091366D01*
X0204600Y0092365D02*
X0160602Y0092365D01*
X0160590Y0093363D02*
X0204600Y0093363D01*
X0204925Y0094362D02*
X0160578Y0094362D01*
X0160566Y0095360D02*
X0205759Y0095360D01*
X0204600Y0076388D02*
X0174714Y0076388D01*
X0175150Y0075390D02*
X0204600Y0075390D01*
X0204600Y0074391D02*
X0175150Y0074391D01*
X0174495Y0073393D02*
X0181406Y0073393D01*
X0179793Y0072394D02*
X0157034Y0072394D01*
X0156036Y0071396D02*
X0178795Y0071396D01*
X0177796Y0070397D02*
X0155037Y0070397D01*
X0154039Y0069399D02*
X0176798Y0069399D01*
X0175799Y0068400D02*
X0153040Y0068400D01*
X0152042Y0067402D02*
X0174801Y0067402D01*
X0173802Y0066403D02*
X0151043Y0066403D01*
X0150045Y0065405D02*
X0172804Y0065405D01*
X0171805Y0064406D02*
X0149046Y0064406D01*
X0148048Y0063408D02*
X0170806Y0063408D01*
X0169808Y0062409D02*
X0147049Y0062409D01*
X0146051Y0061411D02*
X0168809Y0061411D01*
X0167811Y0060412D02*
X0145052Y0060412D01*
X0144054Y0059414D02*
X0166812Y0059414D01*
X0165814Y0058415D02*
X0142626Y0058415D01*
X0153832Y0046433D02*
X0053966Y0046433D01*
X0053977Y0046500D02*
X0050000Y0046500D01*
X0050000Y0047500D01*
X0053977Y0047500D01*
X0053889Y0048054D01*
X0053670Y0048727D01*
X0053349Y0049359D01*
X0052932Y0049932D01*
X0052432Y0050432D01*
X0051859Y0050849D01*
X0051227Y0051170D01*
X0050554Y0051389D01*
X0050000Y0051477D01*
X0050000Y0047500D01*
X0049000Y0047500D01*
X0049000Y0051477D01*
X0048446Y0051389D01*
X0047773Y0051170D01*
X0047141Y0050849D01*
X0046568Y0050432D01*
X0046068Y0049932D01*
X0045651Y0049359D01*
X0045330Y0048727D01*
X0045111Y0048054D01*
X0045023Y0047500D01*
X0049000Y0047500D01*
X0049000Y0046500D01*
X0050000Y0046500D01*
X0050000Y0042523D01*
X0050554Y0042611D01*
X0051227Y0042830D01*
X0051859Y0043151D01*
X0052432Y0043568D01*
X0052932Y0044068D01*
X0053349Y0044641D01*
X0053670Y0045273D01*
X0053889Y0045946D01*
X0053977Y0046500D01*
X0053723Y0045434D02*
X0152833Y0045434D01*
X0151835Y0044436D02*
X0053199Y0044436D01*
X0052252Y0043437D02*
X0150836Y0043437D01*
X0149838Y0042439D02*
X0022781Y0042439D01*
X0022781Y0043437D02*
X0026981Y0043437D01*
X0025983Y0044436D02*
X0023505Y0044436D01*
X0023918Y0045434D02*
X0025494Y0045434D01*
X0025200Y0046433D02*
X0024181Y0046433D01*
X0024572Y0047432D02*
X0025200Y0047432D01*
X0028566Y0051426D02*
X0048676Y0051426D01*
X0049000Y0051426D02*
X0050000Y0051426D01*
X0050324Y0051426D02*
X0158824Y0051426D01*
X0159823Y0052424D02*
X0029564Y0052424D01*
X0030563Y0053423D02*
X0160821Y0053423D01*
X0161820Y0054421D02*
X0031561Y0054421D01*
X0032560Y0055420D02*
X0162818Y0055420D01*
X0163817Y0056418D02*
X0033558Y0056418D01*
X0034557Y0057417D02*
X0164815Y0057417D01*
X0157826Y0050427D02*
X0052437Y0050427D01*
X0053298Y0049429D02*
X0156827Y0049429D01*
X0155829Y0048430D02*
X0053767Y0048430D01*
X0050000Y0048430D02*
X0049000Y0048430D01*
X0049000Y0047432D02*
X0043800Y0047432D01*
X0043800Y0047855D02*
X0043145Y0049436D01*
X0041936Y0050645D01*
X0040355Y0051300D01*
X0038645Y0051300D01*
X0037064Y0050645D01*
X0035855Y0049436D01*
X0035200Y0047855D01*
X0035200Y0046145D01*
X0035855Y0044564D01*
X0037064Y0043355D01*
X0038645Y0042700D01*
X0040355Y0042700D01*
X0041936Y0043355D01*
X0043145Y0044564D01*
X0043800Y0046145D01*
X0043800Y0047855D01*
X0043562Y0048430D02*
X0045233Y0048430D01*
X0045702Y0049429D02*
X0043148Y0049429D01*
X0042154Y0050427D02*
X0046563Y0050427D01*
X0049000Y0050427D02*
X0050000Y0050427D01*
X0050000Y0049429D02*
X0049000Y0049429D01*
X0050000Y0047432D02*
X0154830Y0047432D01*
X0148839Y0041440D02*
X0050230Y0041440D01*
X0050000Y0041440D02*
X0049000Y0041440D01*
X0049000Y0041477D02*
X0048446Y0041389D01*
X0047773Y0041170D01*
X0047141Y0040849D01*
X0046568Y0040432D01*
X0046068Y0039932D01*
X0045651Y0039359D01*
X0045330Y0038727D01*
X0045111Y0038054D01*
X0045023Y0037500D01*
X0049000Y0037500D01*
X0049000Y0041477D01*
X0048770Y0041440D02*
X0022781Y0041440D01*
X0022781Y0040442D02*
X0026861Y0040442D01*
X0027064Y0040645D02*
X0025855Y0039436D01*
X0025200Y0037855D01*
X0025200Y0036145D01*
X0025855Y0034564D01*
X0027064Y0033355D01*
X0028645Y0032700D01*
X0030355Y0032700D01*
X0031936Y0033355D01*
X0033145Y0034564D01*
X0033800Y0036145D01*
X0033800Y0037855D01*
X0033145Y0039436D01*
X0031936Y0040645D01*
X0030355Y0041300D01*
X0028645Y0041300D01*
X0027064Y0040645D01*
X0025862Y0039443D02*
X0023555Y0039443D01*
X0023968Y0038445D02*
X0025444Y0038445D01*
X0025200Y0037446D02*
X0024181Y0037446D01*
X0024181Y0036448D02*
X0025200Y0036448D01*
X0025488Y0035449D02*
X0023924Y0035449D01*
X0023511Y0034451D02*
X0025968Y0034451D01*
X0026967Y0033452D02*
X0022572Y0033452D01*
X0020757Y0032454D02*
X0066406Y0032454D01*
X0066258Y0032810D02*
X0066786Y0031535D01*
X0067762Y0030560D01*
X0069037Y0030031D01*
X0070417Y0030031D01*
X0071400Y0030439D01*
X0072383Y0030031D01*
X0073763Y0030031D01*
X0075038Y0030560D01*
X0076014Y0031535D01*
X0076542Y0032810D01*
X0076542Y0034190D01*
X0076014Y0035465D01*
X0075038Y0036440D01*
X0073763Y0036968D01*
X0072383Y0036968D01*
X0071400Y0036561D01*
X0070417Y0036968D01*
X0069037Y0036968D01*
X0067762Y0036440D01*
X0066786Y0035465D01*
X0066258Y0034190D01*
X0066258Y0032810D01*
X0066258Y0033452D02*
X0052273Y0033452D01*
X0052432Y0033568D02*
X0052932Y0034068D01*
X0053349Y0034641D01*
X0053670Y0035273D01*
X0053889Y0035946D01*
X0053977Y0036500D01*
X0050000Y0036500D01*
X0050000Y0037500D01*
X0053977Y0037500D01*
X0053889Y0038054D01*
X0053670Y0038727D01*
X0053349Y0039359D01*
X0052932Y0039932D01*
X0052432Y0040432D01*
X0051859Y0040849D01*
X0051227Y0041170D01*
X0050554Y0041389D01*
X0050000Y0041477D01*
X0050000Y0037500D01*
X0049000Y0037500D01*
X0049000Y0036500D01*
X0050000Y0036500D01*
X0050000Y0032523D01*
X0050554Y0032611D01*
X0051227Y0032830D01*
X0051859Y0033151D01*
X0052432Y0033568D01*
X0053210Y0034451D02*
X0066366Y0034451D01*
X0066780Y0035449D02*
X0053728Y0035449D01*
X0053969Y0036448D02*
X0067780Y0036448D01*
X0066866Y0031455D02*
X0038646Y0031455D01*
X0038645Y0032700D02*
X0037064Y0033355D01*
X0035855Y0034564D01*
X0035200Y0036145D01*
X0035200Y0037855D01*
X0035855Y0039436D01*
X0037064Y0040645D01*
X0038645Y0041300D01*
X0040355Y0041300D01*
X0041936Y0040645D01*
X0043145Y0039436D01*
X0043800Y0037855D01*
X0043800Y0036145D01*
X0043145Y0034564D01*
X0041936Y0033355D01*
X0040355Y0032700D01*
X0038645Y0032700D01*
X0036967Y0033452D02*
X0032033Y0033452D01*
X0033032Y0034451D02*
X0035968Y0034451D01*
X0035488Y0035449D02*
X0033512Y0035449D01*
X0033800Y0036448D02*
X0035200Y0036448D01*
X0035200Y0037446D02*
X0033800Y0037446D01*
X0033556Y0038445D02*
X0035444Y0038445D01*
X0035862Y0039443D02*
X0033138Y0039443D01*
X0032139Y0040442D02*
X0036861Y0040442D01*
X0036981Y0043437D02*
X0032019Y0043437D01*
X0033017Y0044436D02*
X0035983Y0044436D01*
X0035494Y0045434D02*
X0033506Y0045434D01*
X0033800Y0046433D02*
X0035200Y0046433D01*
X0035200Y0047432D02*
X0033800Y0047432D01*
X0033562Y0048430D02*
X0035438Y0048430D01*
X0035852Y0049429D02*
X0033148Y0049429D01*
X0032154Y0050427D02*
X0036846Y0050427D01*
X0043800Y0046433D02*
X0045034Y0046433D01*
X0045023Y0046500D02*
X0045111Y0045946D01*
X0045330Y0045273D01*
X0045651Y0044641D01*
X0046068Y0044068D01*
X0046568Y0043568D01*
X0047141Y0043151D01*
X0047773Y0042830D01*
X0048446Y0042611D01*
X0049000Y0042523D01*
X0049000Y0046500D01*
X0045023Y0046500D01*
X0045277Y0045434D02*
X0043506Y0045434D01*
X0043017Y0044436D02*
X0045801Y0044436D01*
X0046748Y0043437D02*
X0042019Y0043437D01*
X0042139Y0040442D02*
X0046582Y0040442D01*
X0045713Y0039443D02*
X0043138Y0039443D01*
X0043556Y0038445D02*
X0045238Y0038445D01*
X0043800Y0037446D02*
X0049000Y0037446D01*
X0049000Y0036500D02*
X0045023Y0036500D01*
X0045111Y0035946D01*
X0045330Y0035273D01*
X0045651Y0034641D01*
X0046068Y0034068D01*
X0046568Y0033568D01*
X0047141Y0033151D01*
X0047773Y0032830D01*
X0048446Y0032611D01*
X0049000Y0032523D01*
X0049000Y0036500D01*
X0049000Y0036448D02*
X0050000Y0036448D01*
X0050000Y0037446D02*
X0144845Y0037446D01*
X0143847Y0036448D02*
X0098620Y0036448D01*
X0098638Y0036440D02*
X0097363Y0036968D01*
X0095983Y0036968D01*
X0095000Y0036561D01*
X0094017Y0036968D01*
X0092637Y0036968D01*
X0091362Y0036440D01*
X0090386Y0035465D01*
X0089858Y0034190D01*
X0089858Y0032810D01*
X0090386Y0031535D01*
X0091362Y0030560D01*
X0092637Y0030031D01*
X0094017Y0030031D01*
X0095000Y0030439D01*
X0095983Y0030031D01*
X0097363Y0030031D01*
X0098638Y0030560D01*
X0099614Y0031535D01*
X0100142Y0032810D01*
X0100142Y0034190D01*
X0099614Y0035465D01*
X0098638Y0036440D01*
X0099620Y0035449D02*
X0103697Y0035449D01*
X0103847Y0035600D02*
X0102500Y0034253D01*
X0102500Y0032347D01*
X0103847Y0031000D01*
X0105753Y0031000D01*
X0106800Y0032047D01*
X0107847Y0031000D01*
X0109753Y0031000D01*
X0110750Y0031997D01*
X0111747Y0031000D01*
X0113653Y0031000D01*
X0114700Y0032047D01*
X0115747Y0031000D01*
X0117653Y0031000D01*
X0119000Y0032347D01*
X0119000Y0034253D01*
X0117653Y0035600D01*
X0115747Y0035600D01*
X0114700Y0034553D01*
X0113653Y0035600D01*
X0111747Y0035600D01*
X0110750Y0034603D01*
X0109753Y0035600D01*
X0107847Y0035600D01*
X0106800Y0034553D01*
X0105753Y0035600D01*
X0103847Y0035600D01*
X0102698Y0034451D02*
X0100034Y0034451D01*
X0100142Y0033452D02*
X0102500Y0033452D01*
X0102500Y0032454D02*
X0099994Y0032454D01*
X0099534Y0031455D02*
X0103392Y0031455D01*
X0106208Y0031455D02*
X0107392Y0031455D01*
X0110208Y0031455D02*
X0111292Y0031455D01*
X0114108Y0031455D02*
X0115292Y0031455D01*
X0118108Y0031455D02*
X0140100Y0031455D01*
X0140100Y0030457D02*
X0098390Y0030457D01*
X0105903Y0035449D02*
X0107697Y0035449D01*
X0109903Y0035449D02*
X0111597Y0035449D01*
X0113803Y0035449D02*
X0115597Y0035449D01*
X0117803Y0035449D02*
X0142848Y0035449D01*
X0141850Y0034451D02*
X0118802Y0034451D01*
X0119000Y0033452D02*
X0140851Y0033452D01*
X0140256Y0032454D02*
X0119000Y0032454D01*
X0116953Y0019300D02*
X0115047Y0019300D01*
X0113700Y0017953D01*
X0113700Y0016047D01*
X0115047Y0014700D01*
X0116953Y0014700D01*
X0118300Y0016047D01*
X0118300Y0017953D01*
X0116953Y0019300D01*
X0117778Y0018475D02*
X0140100Y0018475D01*
X0140100Y0019473D02*
X0046400Y0019473D01*
X0046400Y0018475D02*
X0109222Y0018475D01*
X0108700Y0017953D02*
X0110047Y0019300D01*
X0111953Y0019300D01*
X0113300Y0017953D01*
X0113300Y0016047D01*
X0111953Y0014700D01*
X0110047Y0014700D01*
X0108700Y0016047D01*
X0108700Y0017953D01*
X0108700Y0017476D02*
X0046400Y0017476D01*
X0046400Y0016478D02*
X0108700Y0016478D01*
X0109268Y0015479D02*
X0046400Y0015479D01*
X0046621Y0014481D02*
X0140100Y0014481D01*
X0140100Y0015479D02*
X0117732Y0015479D01*
X0118300Y0016478D02*
X0140100Y0016478D01*
X0140100Y0017476D02*
X0118300Y0017476D01*
X0114222Y0018475D02*
X0112778Y0018475D01*
X0113300Y0017476D02*
X0113700Y0017476D01*
X0113700Y0016478D02*
X0113300Y0016478D01*
X0112732Y0015479D02*
X0114268Y0015479D01*
X0091610Y0030457D02*
X0086590Y0030457D01*
X0086838Y0030560D02*
X0087814Y0031535D01*
X0088342Y0032810D01*
X0088342Y0034190D01*
X0087814Y0035465D01*
X0086838Y0036440D01*
X0085563Y0036968D01*
X0084183Y0036968D01*
X0083200Y0036561D01*
X0082217Y0036968D01*
X0080837Y0036968D01*
X0079562Y0036440D01*
X0078586Y0035465D01*
X0078058Y0034190D01*
X0078058Y0032810D01*
X0078586Y0031535D01*
X0079562Y0030560D01*
X0080837Y0030031D01*
X0082217Y0030031D01*
X0083200Y0030439D01*
X0084183Y0030031D01*
X0085563Y0030031D01*
X0086838Y0030560D01*
X0087734Y0031455D02*
X0090466Y0031455D01*
X0090006Y0032454D02*
X0088194Y0032454D01*
X0088342Y0033452D02*
X0089858Y0033452D01*
X0089966Y0034451D02*
X0088234Y0034451D01*
X0087820Y0035449D02*
X0090380Y0035449D01*
X0091380Y0036448D02*
X0086820Y0036448D01*
X0079580Y0036448D02*
X0075020Y0036448D01*
X0076020Y0035449D02*
X0078580Y0035449D01*
X0078166Y0034451D02*
X0076434Y0034451D01*
X0076542Y0033452D02*
X0078058Y0033452D01*
X0078206Y0032454D02*
X0076394Y0032454D01*
X0075934Y0031455D02*
X0078666Y0031455D01*
X0079810Y0030457D02*
X0074790Y0030457D01*
X0068010Y0030457D02*
X0039644Y0030457D01*
X0040643Y0029458D02*
X0140100Y0029458D01*
X0140100Y0028460D02*
X0041641Y0028460D01*
X0042640Y0027461D02*
X0140100Y0027461D01*
X0140100Y0026463D02*
X0043638Y0026463D01*
X0044637Y0025464D02*
X0140100Y0025464D01*
X0140100Y0024466D02*
X0045635Y0024466D01*
X0046238Y0023467D02*
X0140100Y0023467D01*
X0140100Y0022469D02*
X0046400Y0022469D01*
X0046400Y0021470D02*
X0140100Y0021470D01*
X0140100Y0020472D02*
X0046400Y0020472D01*
X0040600Y0020472D02*
X0037088Y0020472D01*
X0036962Y0020691D02*
X0036243Y0021628D01*
X0035407Y0022463D01*
X0034470Y0023182D01*
X0033447Y0023773D01*
X0032356Y0024225D01*
X0031215Y0024531D01*
X0030043Y0024685D01*
X0029953Y0024685D01*
X0029953Y0016173D01*
X0038465Y0016173D01*
X0038465Y0016264D01*
X0038310Y0017435D01*
X0038005Y0018576D01*
X0037553Y0019668D01*
X0036962Y0020691D01*
X0036364Y0021470D02*
X0040429Y0021470D01*
X0039430Y0022469D02*
X0035400Y0022469D01*
X0033977Y0023467D02*
X0038432Y0023467D01*
X0037433Y0024466D02*
X0031458Y0024466D01*
X0029953Y0024466D02*
X0028953Y0024466D01*
X0028953Y0024685D02*
X0028862Y0024685D01*
X0027691Y0024531D01*
X0026550Y0024225D01*
X0025458Y0023773D01*
X0024435Y0023182D01*
X0023498Y0022463D01*
X0022663Y0021628D01*
X0021944Y0020691D01*
X0021353Y0019668D01*
X0020901Y0018576D01*
X0020595Y0017435D01*
X0020441Y0016264D01*
X0020441Y0016173D01*
X0028953Y0016173D01*
X0028953Y0015173D01*
X0029953Y0015173D01*
X0029953Y0016173D01*
X0028953Y0016173D01*
X0028953Y0024685D01*
X0028953Y0023467D02*
X0029953Y0023467D01*
X0029953Y0022469D02*
X0028953Y0022469D01*
X0028953Y0021470D02*
X0029953Y0021470D01*
X0029953Y0020472D02*
X0028953Y0020472D01*
X0028953Y0019473D02*
X0029953Y0019473D01*
X0029953Y0018475D02*
X0028953Y0018475D01*
X0028953Y0017476D02*
X0029953Y0017476D01*
X0029953Y0016478D02*
X0028953Y0016478D01*
X0028953Y0015479D02*
X0003035Y0015479D01*
X0003004Y0016478D02*
X0020469Y0016478D01*
X0020606Y0017476D02*
X0003000Y0017476D01*
X0003000Y0018475D02*
X0020874Y0018475D01*
X0021272Y0019473D02*
X0003000Y0019473D01*
X0003000Y0020472D02*
X0021817Y0020472D01*
X0022542Y0021470D02*
X0003000Y0021470D01*
X0003000Y0022469D02*
X0023505Y0022469D01*
X0024929Y0023467D02*
X0003000Y0023467D01*
X0003000Y0024466D02*
X0027448Y0024466D01*
X0035436Y0026463D02*
X0003000Y0026463D01*
X0003000Y0027461D02*
X0012937Y0027461D01*
X0011944Y0028460D02*
X0003000Y0028460D01*
X0003000Y0029458D02*
X0010951Y0029458D01*
X0009958Y0030457D02*
X0003000Y0030457D01*
X0003000Y0031455D02*
X0008965Y0031455D01*
X0007971Y0032454D02*
X0003000Y0032454D01*
X0003000Y0033452D02*
X0006978Y0033452D01*
X0005985Y0034451D02*
X0003000Y0034451D01*
X0003000Y0035449D02*
X0004992Y0035449D01*
X0003998Y0036448D02*
X0003000Y0036448D01*
X0003000Y0037446D02*
X0003083Y0037446D01*
X0008500Y0040442D02*
X0016219Y0040442D01*
X0016219Y0041440D02*
X0008500Y0041440D01*
X0008500Y0042439D02*
X0016219Y0042439D01*
X0016219Y0043437D02*
X0008500Y0043437D01*
X0008500Y0044436D02*
X0015495Y0044436D01*
X0015082Y0045434D02*
X0008500Y0045434D01*
X0008500Y0046433D02*
X0014819Y0046433D01*
X0014819Y0047432D02*
X0008500Y0047432D01*
X0008500Y0048430D02*
X0015026Y0048430D01*
X0015439Y0049429D02*
X0008500Y0049429D01*
X0008500Y0050427D02*
X0016307Y0050427D01*
X0017952Y0051426D02*
X0008500Y0051426D01*
X0008500Y0052424D02*
X0020284Y0052424D01*
X0021282Y0053423D02*
X0008500Y0053423D01*
X0008500Y0054421D02*
X0022281Y0054421D01*
X0023279Y0055420D02*
X0008500Y0055420D01*
X0008500Y0056418D02*
X0024278Y0056418D01*
X0025276Y0057417D02*
X0008500Y0057417D01*
X0008500Y0058415D02*
X0026275Y0058415D01*
X0027273Y0059414D02*
X0008500Y0059414D01*
X0008500Y0060412D02*
X0028272Y0060412D01*
X0029271Y0061411D02*
X0008500Y0061411D01*
X0008500Y0062409D02*
X0030269Y0062409D01*
X0031268Y0063408D02*
X0008500Y0063408D01*
X0008500Y0064406D02*
X0032442Y0064406D01*
X0036609Y0066547D02*
X0037957Y0065200D01*
X0039862Y0065200D01*
X0041209Y0066547D01*
X0041209Y0068453D01*
X0039862Y0069800D01*
X0037957Y0069800D01*
X0036609Y0068453D01*
X0036609Y0066547D01*
X0036754Y0066403D02*
X0008500Y0066403D01*
X0008500Y0065405D02*
X0037752Y0065405D01*
X0036609Y0067402D02*
X0008500Y0067402D01*
X0008500Y0068400D02*
X0036609Y0068400D01*
X0037556Y0069399D02*
X0008500Y0069399D01*
X0008500Y0070397D02*
X0104819Y0070397D01*
X0103859Y0069399D02*
X0040263Y0069399D01*
X0041209Y0068400D02*
X0103445Y0068400D01*
X0103358Y0067402D02*
X0041209Y0067402D01*
X0041065Y0066403D02*
X0103527Y0066403D01*
X0104017Y0065405D02*
X0040067Y0065405D01*
X0049000Y0046433D02*
X0050000Y0046433D01*
X0050000Y0045434D02*
X0049000Y0045434D01*
X0049000Y0044436D02*
X0050000Y0044436D01*
X0050000Y0043437D02*
X0049000Y0043437D01*
X0049000Y0040442D02*
X0050000Y0040442D01*
X0050000Y0039443D02*
X0049000Y0039443D01*
X0049000Y0038445D02*
X0050000Y0038445D01*
X0052418Y0040442D02*
X0147841Y0040442D01*
X0146842Y0039443D02*
X0053287Y0039443D01*
X0053762Y0038445D02*
X0145844Y0038445D01*
X0145900Y0025464D02*
X0283465Y0025464D01*
X0283465Y0024466D02*
X0259017Y0024466D01*
X0257512Y0024466D02*
X0256512Y0024466D01*
X0256512Y0023467D02*
X0257512Y0023467D01*
X0257512Y0022469D02*
X0256512Y0022469D01*
X0256512Y0021470D02*
X0257512Y0021470D01*
X0257512Y0020472D02*
X0256512Y0020472D01*
X0256512Y0019473D02*
X0257512Y0019473D01*
X0257512Y0018475D02*
X0256512Y0018475D01*
X0256512Y0017476D02*
X0257512Y0017476D01*
X0257512Y0016478D02*
X0256512Y0016478D01*
X0256512Y0013482D02*
X0257512Y0013482D01*
X0257512Y0012484D02*
X0256512Y0012484D01*
X0256512Y0011485D02*
X0257512Y0011485D01*
X0257512Y0010487D02*
X0256512Y0010487D01*
X0256512Y0009488D02*
X0257512Y0009488D01*
X0257512Y0008490D02*
X0256512Y0008490D01*
X0256512Y0007491D02*
X0257512Y0007491D01*
X0265995Y0016478D02*
X0283465Y0016478D01*
X0283465Y0017476D02*
X0265858Y0017476D01*
X0265591Y0018475D02*
X0283465Y0018475D01*
X0283465Y0019473D02*
X0265192Y0019473D01*
X0264647Y0020472D02*
X0283465Y0020472D01*
X0283465Y0021470D02*
X0263923Y0021470D01*
X0262959Y0022469D02*
X0283465Y0022469D01*
X0283465Y0023467D02*
X0261536Y0023467D01*
X0255007Y0024466D02*
X0145900Y0024466D01*
X0145900Y0023467D02*
X0252488Y0023467D01*
X0251064Y0022469D02*
X0145900Y0022469D01*
X0140100Y0013482D02*
X0047619Y0013482D01*
X0048618Y0012484D02*
X0140100Y0012484D01*
X0140100Y0011485D02*
X0049616Y0011485D01*
X0050615Y0010487D02*
X0140100Y0010487D01*
X0193178Y0051426D02*
X0193822Y0051426D01*
X0197178Y0051426D02*
X0223936Y0051426D01*
X0224350Y0052424D02*
X0197800Y0052424D01*
X0197800Y0053423D02*
X0225341Y0053423D01*
X0230659Y0053423D02*
X0235341Y0053423D01*
X0235564Y0053645D02*
X0234355Y0052436D01*
X0233700Y0050855D01*
X0233700Y0049145D01*
X0234355Y0047564D01*
X0235564Y0046355D01*
X0237145Y0045700D01*
X0238855Y0045700D01*
X0240436Y0046355D01*
X0241645Y0047564D01*
X0242300Y0049145D01*
X0242300Y0050855D01*
X0241645Y0052436D01*
X0240436Y0053645D01*
X0238855Y0054300D01*
X0237145Y0054300D01*
X0235564Y0053645D01*
X0234350Y0052424D02*
X0231650Y0052424D01*
X0232064Y0051426D02*
X0233936Y0051426D01*
X0233700Y0050427D02*
X0232300Y0050427D01*
X0232300Y0049429D02*
X0233700Y0049429D01*
X0233996Y0048430D02*
X0232004Y0048430D01*
X0231513Y0047432D02*
X0234487Y0047432D01*
X0235486Y0046433D02*
X0230514Y0046433D01*
X0230644Y0043437D02*
X0235356Y0043437D01*
X0235564Y0043645D02*
X0234355Y0042436D01*
X0233700Y0040855D01*
X0233700Y0039145D01*
X0234355Y0037564D01*
X0235564Y0036355D01*
X0237145Y0035700D01*
X0238855Y0035700D01*
X0240436Y0036355D01*
X0241645Y0037564D01*
X0242300Y0039145D01*
X0242300Y0040855D01*
X0241645Y0042436D01*
X0240436Y0043645D01*
X0238855Y0044300D01*
X0237145Y0044300D01*
X0235564Y0043645D01*
X0234358Y0042439D02*
X0231642Y0042439D01*
X0232058Y0041440D02*
X0233942Y0041440D01*
X0233700Y0040442D02*
X0232300Y0040442D01*
X0232300Y0039443D02*
X0233700Y0039443D01*
X0233990Y0038445D02*
X0232010Y0038445D01*
X0231528Y0037446D02*
X0234472Y0037446D01*
X0235471Y0036448D02*
X0230529Y0036448D01*
X0230629Y0033452D02*
X0235371Y0033452D01*
X0235564Y0033645D02*
X0234355Y0032436D01*
X0233700Y0030855D01*
X0233700Y0029145D01*
X0234355Y0027564D01*
X0235564Y0026355D01*
X0237145Y0025700D01*
X0238855Y0025700D01*
X0240436Y0026355D01*
X0241645Y0027564D01*
X0242300Y0029145D01*
X0242300Y0030855D01*
X0241645Y0032436D01*
X0240436Y0033645D01*
X0238855Y0034300D01*
X0237145Y0034300D01*
X0235564Y0033645D01*
X0234373Y0032454D02*
X0231627Y0032454D01*
X0232051Y0031455D02*
X0233949Y0031455D01*
X0233700Y0030457D02*
X0232300Y0030457D01*
X0232300Y0029458D02*
X0233700Y0029458D01*
X0233984Y0028460D02*
X0232016Y0028460D01*
X0231542Y0027461D02*
X0234458Y0027461D01*
X0235456Y0026463D02*
X0230544Y0026463D01*
X0240544Y0026463D02*
X0283465Y0026463D01*
X0283465Y0027461D02*
X0241542Y0027461D01*
X0242016Y0028460D02*
X0283465Y0028460D01*
X0283465Y0029458D02*
X0242300Y0029458D01*
X0242300Y0030457D02*
X0283465Y0030457D01*
X0283465Y0031455D02*
X0242051Y0031455D01*
X0241627Y0032454D02*
X0283465Y0032454D01*
X0283465Y0033452D02*
X0240629Y0033452D01*
X0240529Y0036448D02*
X0283465Y0036448D01*
X0283465Y0037446D02*
X0241528Y0037446D01*
X0242010Y0038445D02*
X0283465Y0038445D01*
X0283465Y0039443D02*
X0242300Y0039443D01*
X0242300Y0040442D02*
X0252663Y0040442D01*
X0253352Y0040157D02*
X0255278Y0040157D01*
X0257058Y0040894D01*
X0258421Y0042256D01*
X0259158Y0044037D01*
X0259158Y0045963D01*
X0258421Y0047744D01*
X0257058Y0049106D01*
X0255278Y0049843D01*
X0253352Y0049843D01*
X0251571Y0049106D01*
X0250209Y0047744D01*
X0249472Y0045963D01*
X0249472Y0044037D01*
X0250209Y0042256D01*
X0251571Y0040894D01*
X0253352Y0040157D01*
X0255967Y0040442D02*
X0272348Y0040442D01*
X0273037Y0040157D02*
X0274963Y0040157D01*
X0276744Y0040894D01*
X0278106Y0042256D01*
X0278843Y0044037D01*
X0278843Y0045963D01*
X0278106Y0047744D01*
X0276744Y0049106D01*
X0274963Y0049843D01*
X0273037Y0049843D01*
X0271256Y0049106D01*
X0269894Y0047744D01*
X0269157Y0045963D01*
X0269157Y0044037D01*
X0269894Y0042256D01*
X0271256Y0040894D01*
X0273037Y0040157D01*
X0275652Y0040442D02*
X0283465Y0040442D01*
X0283465Y0041440D02*
X0277290Y0041440D01*
X0278182Y0042439D02*
X0283465Y0042439D01*
X0283465Y0043437D02*
X0278595Y0043437D01*
X0278843Y0044436D02*
X0283465Y0044436D01*
X0283465Y0045434D02*
X0278843Y0045434D01*
X0278649Y0046433D02*
X0283465Y0046433D01*
X0283465Y0047432D02*
X0278235Y0047432D01*
X0277419Y0048430D02*
X0283465Y0048430D01*
X0283465Y0049429D02*
X0275965Y0049429D01*
X0272035Y0049429D02*
X0256280Y0049429D01*
X0257734Y0048430D02*
X0270581Y0048430D01*
X0269765Y0047432D02*
X0258550Y0047432D01*
X0258964Y0046433D02*
X0269351Y0046433D01*
X0269157Y0045434D02*
X0259158Y0045434D01*
X0259158Y0044436D02*
X0269157Y0044436D01*
X0269405Y0043437D02*
X0258910Y0043437D01*
X0258496Y0042439D02*
X0269818Y0042439D01*
X0270710Y0041440D02*
X0257605Y0041440D01*
X0251025Y0041440D02*
X0242058Y0041440D01*
X0241642Y0042439D02*
X0250133Y0042439D01*
X0249720Y0043437D02*
X0240644Y0043437D01*
X0240514Y0046433D02*
X0249666Y0046433D01*
X0249472Y0045434D02*
X0218500Y0045434D01*
X0218500Y0044436D02*
X0249472Y0044436D01*
X0250080Y0047432D02*
X0241513Y0047432D01*
X0242004Y0048430D02*
X0250896Y0048430D01*
X0252350Y0049429D02*
X0242300Y0049429D01*
X0242300Y0050427D02*
X0283465Y0050427D01*
X0283465Y0051426D02*
X0242064Y0051426D01*
X0241650Y0052424D02*
X0283465Y0052424D01*
X0283465Y0053423D02*
X0240659Y0053423D01*
X0225486Y0046433D02*
X0217820Y0046433D01*
X0218090Y0043437D02*
X0225356Y0043437D01*
X0214310Y0043437D02*
X0214090Y0043437D01*
X0213820Y0046433D02*
X0214580Y0046433D01*
X0210580Y0046433D02*
X0209920Y0046433D01*
X0210190Y0043437D02*
X0210310Y0043437D01*
X0206410Y0043437D02*
X0206190Y0043437D01*
X0205920Y0046433D02*
X0206680Y0046433D01*
X0197332Y0054421D02*
X0283465Y0054421D01*
X0283465Y0069399D02*
X0233151Y0069399D01*
X0233800Y0070397D02*
X0283465Y0070397D01*
X0283465Y0071396D02*
X0277175Y0071396D01*
X0278403Y0072394D02*
X0283465Y0072394D01*
X0283465Y0073393D02*
X0279093Y0073393D01*
X0279507Y0074391D02*
X0283465Y0074391D01*
X0283465Y0075390D02*
X0279583Y0075390D01*
X0279583Y0076388D02*
X0283465Y0076388D01*
X0283465Y0077387D02*
X0279184Y0077387D01*
X0278623Y0078385D02*
X0283465Y0078385D01*
X0219996Y0066403D02*
X0182004Y0066403D01*
X0183003Y0067402D02*
X0218997Y0067402D01*
X0193668Y0054421D02*
X0193332Y0054421D01*
X0171204Y0073393D02*
X0171145Y0073393D01*
X0167878Y0073393D02*
X0158033Y0073393D01*
X0159031Y0074391D02*
X0167212Y0074391D01*
X0153967Y0098356D02*
X0122957Y0098356D01*
X0123955Y0099354D02*
X0153955Y0099354D01*
X0153943Y0100353D02*
X0124954Y0100353D01*
X0125952Y0101351D02*
X0143073Y0101351D01*
X0143064Y0101355D02*
X0144645Y0100700D01*
X0146355Y0100700D01*
X0147936Y0101355D01*
X0149145Y0102564D01*
X0149800Y0104145D01*
X0149800Y0105855D01*
X0149145Y0107436D01*
X0147936Y0108645D01*
X0146355Y0109300D01*
X0144645Y0109300D01*
X0143064Y0108645D01*
X0141855Y0107436D01*
X0141200Y0105855D01*
X0141200Y0104145D01*
X0141855Y0102564D01*
X0143064Y0101355D01*
X0142069Y0102350D02*
X0126951Y0102350D01*
X0127949Y0103348D02*
X0141530Y0103348D01*
X0141200Y0104347D02*
X0128948Y0104347D01*
X0129946Y0105345D02*
X0141200Y0105345D01*
X0141402Y0106344D02*
X0138596Y0106344D01*
X0137953Y0105700D02*
X0139300Y0107047D01*
X0139300Y0108953D01*
X0137953Y0110300D01*
X0136047Y0110300D01*
X0134700Y0108953D01*
X0134700Y0107047D01*
X0136047Y0105700D01*
X0137953Y0105700D01*
X0139300Y0107342D02*
X0141816Y0107342D01*
X0142760Y0108341D02*
X0139300Y0108341D01*
X0138913Y0109339D02*
X0153835Y0109339D01*
X0153847Y0108341D02*
X0148240Y0108341D01*
X0149184Y0107342D02*
X0153859Y0107342D01*
X0153871Y0106344D02*
X0149598Y0106344D01*
X0149800Y0105345D02*
X0153883Y0105345D01*
X0153895Y0104347D02*
X0149800Y0104347D01*
X0149470Y0103348D02*
X0153907Y0103348D01*
X0153919Y0102350D02*
X0148931Y0102350D01*
X0147927Y0101351D02*
X0153931Y0101351D01*
X0153823Y0110338D02*
X0132300Y0110338D01*
X0132300Y0109339D02*
X0135087Y0109339D01*
X0134700Y0108341D02*
X0131967Y0108341D01*
X0131423Y0107342D02*
X0134700Y0107342D01*
X0135404Y0106344D02*
X0130660Y0106344D01*
X0132101Y0111336D02*
X0142887Y0111336D01*
X0143141Y0111151D02*
X0143773Y0110830D01*
X0144446Y0110611D01*
X0145000Y0110523D01*
X0145000Y0114500D01*
X0146000Y0114500D01*
X0146000Y0115500D01*
X0149977Y0115500D01*
X0149889Y0116054D01*
X0149670Y0116727D01*
X0149349Y0117359D01*
X0148932Y0117932D01*
X0148432Y0118432D01*
X0147859Y0118849D01*
X0147227Y0119170D01*
X0146554Y0119389D01*
X0146000Y0119477D01*
X0146000Y0115500D01*
X0145000Y0115500D01*
X0145000Y0119477D01*
X0144446Y0119389D01*
X0143773Y0119170D01*
X0143141Y0118849D01*
X0142568Y0118432D01*
X0142068Y0117932D01*
X0141651Y0117359D01*
X0141330Y0116727D01*
X0141111Y0116054D01*
X0141023Y0115500D01*
X0145000Y0115500D01*
X0145000Y0114500D01*
X0141023Y0114500D01*
X0141111Y0113946D01*
X0141330Y0113273D01*
X0141651Y0112641D01*
X0142068Y0112068D01*
X0142568Y0111568D01*
X0143141Y0111151D01*
X0141874Y0112335D02*
X0131687Y0112335D01*
X0130900Y0113333D02*
X0141310Y0113333D01*
X0141050Y0114332D02*
X0130900Y0114332D01*
X0130900Y0115330D02*
X0145000Y0115330D01*
X0145000Y0114332D02*
X0146000Y0114332D01*
X0146000Y0114500D02*
X0146000Y0110523D01*
X0146554Y0110611D01*
X0147227Y0110830D01*
X0147859Y0111151D01*
X0148432Y0111568D01*
X0148932Y0112068D01*
X0149349Y0112641D01*
X0149670Y0113273D01*
X0149889Y0113946D01*
X0149977Y0114500D01*
X0146000Y0114500D01*
X0146000Y0115330D02*
X0153763Y0115330D01*
X0153775Y0114332D02*
X0149950Y0114332D01*
X0149690Y0113333D02*
X0153787Y0113333D01*
X0153799Y0112335D02*
X0149126Y0112335D01*
X0148113Y0111336D02*
X0153811Y0111336D01*
X0153751Y0116329D02*
X0149800Y0116329D01*
X0149365Y0117327D02*
X0153739Y0117327D01*
X0153034Y0118326D02*
X0148538Y0118326D01*
X0146753Y0119324D02*
X0152035Y0119324D01*
X0151037Y0120323D02*
X0146441Y0120323D01*
X0146000Y0119324D02*
X0145000Y0119324D01*
X0144247Y0119324D02*
X0132300Y0119324D01*
X0132300Y0120323D02*
X0144559Y0120323D01*
X0145000Y0118326D02*
X0146000Y0118326D01*
X0146000Y0117327D02*
X0145000Y0117327D01*
X0145000Y0116329D02*
X0146000Y0116329D01*
X0146000Y0113333D02*
X0145000Y0113333D01*
X0145000Y0112335D02*
X0146000Y0112335D01*
X0146000Y0111336D02*
X0145000Y0111336D01*
X0141200Y0116329D02*
X0130900Y0116329D01*
X0131408Y0117327D02*
X0141635Y0117327D01*
X0142462Y0118326D02*
X0131961Y0118326D01*
X0132107Y0121321D02*
X0142559Y0121321D01*
X0141560Y0122320D02*
X0131693Y0122320D01*
X0130763Y0123318D02*
X0141130Y0123318D01*
X0148441Y0121321D02*
X0150038Y0121321D01*
X0154326Y0126314D02*
X0177933Y0126314D01*
X0177200Y0127312D02*
X0153328Y0127312D01*
X0148809Y0128311D02*
X0177200Y0128311D01*
X0177557Y0129309D02*
X0148061Y0129309D01*
X0141498Y0130308D02*
X0029300Y0130308D01*
X0028946Y0131306D02*
X0141498Y0131306D01*
X0141498Y0145286D02*
X0075032Y0145286D01*
X0075783Y0146284D02*
X0141498Y0146284D01*
X0141498Y0147283D02*
X0075783Y0147283D01*
X0075444Y0148281D02*
X0141498Y0148281D01*
X0141498Y0149280D02*
X0075532Y0149280D01*
X0075800Y0150278D02*
X0141498Y0150278D01*
X0141498Y0151277D02*
X0075800Y0151277D01*
X0074977Y0152275D02*
X0141498Y0152275D01*
X0141498Y0153274D02*
X0028979Y0153274D01*
X0029977Y0152275D02*
X0072023Y0152275D01*
X0071200Y0151277D02*
X0030300Y0151277D01*
X0030300Y0150278D02*
X0071200Y0150278D01*
X0071468Y0149280D02*
X0029532Y0149280D01*
X0027021Y0153274D02*
X0026800Y0153274D01*
X0026480Y0154272D02*
X0141498Y0154272D01*
X0141498Y0155271D02*
X0025482Y0155271D01*
X0023518Y0155271D02*
X0018400Y0155271D01*
X0018400Y0156269D02*
X0141498Y0156269D01*
X0141498Y0157268D02*
X0074520Y0157268D01*
X0074453Y0157200D02*
X0075800Y0158547D01*
X0075800Y0160453D01*
X0074453Y0161800D01*
X0072547Y0161800D01*
X0071200Y0160453D01*
X0071200Y0158547D01*
X0072547Y0157200D01*
X0074453Y0157200D01*
X0075519Y0158266D02*
X0141498Y0158266D01*
X0141498Y0159265D02*
X0075800Y0159265D01*
X0075800Y0160263D02*
X0076484Y0160263D01*
X0076547Y0160200D02*
X0078453Y0160200D01*
X0079800Y0161547D01*
X0079800Y0163453D01*
X0078453Y0164800D01*
X0076547Y0164800D01*
X0075200Y0163453D01*
X0075200Y0161547D01*
X0076547Y0160200D01*
X0075485Y0161262D02*
X0074991Y0161262D01*
X0075200Y0162260D02*
X0032800Y0162260D01*
X0032800Y0162047D02*
X0031453Y0160700D01*
X0029547Y0160700D01*
X0028200Y0162047D01*
X0028200Y0163953D01*
X0029547Y0165300D01*
X0031453Y0165300D01*
X0032800Y0163953D01*
X0032800Y0162047D01*
X0032014Y0161262D02*
X0072009Y0161262D01*
X0071200Y0160263D02*
X0018400Y0160263D01*
X0018400Y0159265D02*
X0071200Y0159265D01*
X0071481Y0158266D02*
X0018400Y0158266D01*
X0018400Y0157268D02*
X0072480Y0157268D01*
X0078516Y0160263D02*
X0141498Y0160263D01*
X0141498Y0161262D02*
X0079514Y0161262D01*
X0079800Y0162260D02*
X0141498Y0162260D01*
X0141498Y0163259D02*
X0079800Y0163259D01*
X0078995Y0164257D02*
X0141498Y0164257D01*
X0141498Y0165256D02*
X0061200Y0165256D01*
X0061200Y0165953D02*
X0059853Y0167300D01*
X0057947Y0167300D01*
X0057800Y0167153D01*
X0057800Y0167453D01*
X0056453Y0168800D01*
X0054547Y0168800D01*
X0053200Y0167453D01*
X0053200Y0165547D01*
X0054547Y0164200D01*
X0056453Y0164200D01*
X0056600Y0164347D01*
X0056600Y0164047D01*
X0057947Y0162700D01*
X0059853Y0162700D01*
X0061200Y0164047D01*
X0061200Y0165953D01*
X0060898Y0166254D02*
X0124657Y0166254D01*
X0124126Y0166474D02*
X0126032Y0165685D01*
X0128094Y0165685D01*
X0130000Y0166474D01*
X0131000Y0167474D01*
X0132000Y0166474D01*
X0133906Y0165685D01*
X0135968Y0165685D01*
X0137874Y0166474D01*
X0139333Y0167933D01*
X0140122Y0169839D01*
X0140122Y0171901D01*
X0139333Y0173807D01*
X0137874Y0175266D01*
X0135968Y0176055D01*
X0133906Y0176055D01*
X0132000Y0175266D01*
X0131000Y0174266D01*
X0130000Y0175266D01*
X0128094Y0176055D01*
X0126032Y0176055D01*
X0124126Y0175266D01*
X0122667Y0173807D01*
X0121878Y0171901D01*
X0121878Y0169839D01*
X0122667Y0167933D01*
X0124126Y0166474D01*
X0123347Y0167253D02*
X0119409Y0167253D01*
X0119430Y0167264D02*
X0119967Y0167654D01*
X0120437Y0168123D01*
X0120827Y0168660D01*
X0121128Y0169251D01*
X0121333Y0169883D01*
X0121425Y0170465D01*
X0117626Y0170465D01*
X0117626Y0171276D01*
X0116815Y0171276D01*
X0116815Y0175075D01*
X0116233Y0174983D01*
X0115602Y0174778D01*
X0115011Y0174476D01*
X0114474Y0174086D01*
X0114004Y0173617D01*
X0113614Y0173080D01*
X0113313Y0172489D01*
X0113108Y0171857D01*
X0113016Y0171276D01*
X0116815Y0171276D01*
X0116815Y0170465D01*
X0113016Y0170465D01*
X0113108Y0169883D01*
X0113313Y0169251D01*
X0113614Y0168660D01*
X0114004Y0168123D01*
X0114474Y0167654D01*
X0115011Y0167264D01*
X0115602Y0166962D01*
X0116233Y0166757D01*
X0116815Y0166665D01*
X0116815Y0170464D01*
X0117626Y0170464D01*
X0117626Y0166665D01*
X0118208Y0166757D01*
X0118839Y0166962D01*
X0119430Y0167264D01*
X0120530Y0168251D02*
X0122535Y0168251D01*
X0122122Y0169250D02*
X0121127Y0169250D01*
X0121391Y0170248D02*
X0121878Y0170248D01*
X0121878Y0171247D02*
X0117626Y0171247D01*
X0117626Y0171276D02*
X0121425Y0171276D01*
X0121333Y0171857D01*
X0121128Y0172489D01*
X0120827Y0173080D01*
X0120437Y0173617D01*
X0119967Y0174086D01*
X0119430Y0174476D01*
X0118839Y0174778D01*
X0118208Y0174983D01*
X0117626Y0175075D01*
X0117626Y0171276D01*
X0116815Y0171247D02*
X0064356Y0171247D01*
X0064650Y0170248D02*
X0113050Y0170248D01*
X0113314Y0169250D02*
X0064650Y0169250D01*
X0063854Y0168251D02*
X0113911Y0168251D01*
X0115032Y0167253D02*
X0059900Y0167253D01*
X0060846Y0168251D02*
X0057001Y0168251D01*
X0057800Y0167253D02*
X0057900Y0167253D01*
X0060050Y0169250D02*
X0049800Y0169250D01*
X0049800Y0170248D02*
X0060050Y0170248D01*
X0060344Y0171247D02*
X0049506Y0171247D01*
X0049004Y0168251D02*
X0053999Y0168251D01*
X0053200Y0167253D02*
X0023354Y0167253D01*
X0024353Y0168251D02*
X0035996Y0168251D01*
X0035200Y0169250D02*
X0025351Y0169250D01*
X0026350Y0170248D02*
X0035200Y0170248D01*
X0035494Y0171247D02*
X0027348Y0171247D01*
X0023140Y0175241D02*
X0008500Y0175241D01*
X0008500Y0174242D02*
X0022141Y0174242D01*
X0021143Y0173244D02*
X0008500Y0173244D01*
X0008500Y0172245D02*
X0020144Y0172245D01*
X0019146Y0171247D02*
X0008500Y0171247D01*
X0008500Y0170248D02*
X0018147Y0170248D01*
X0017149Y0169250D02*
X0008500Y0169250D01*
X0008500Y0168251D02*
X0016150Y0168251D01*
X0015152Y0167253D02*
X0008500Y0167253D01*
X0008500Y0166254D02*
X0014153Y0166254D01*
X0013155Y0165256D02*
X0008500Y0165256D01*
X0008500Y0164257D02*
X0012675Y0164257D01*
X0012600Y0163259D02*
X0008500Y0163259D01*
X0008500Y0162260D02*
X0012600Y0162260D01*
X0012600Y0161262D02*
X0008500Y0161262D01*
X0008500Y0160263D02*
X0012600Y0160263D01*
X0012600Y0159265D02*
X0008500Y0159265D01*
X0008500Y0158266D02*
X0012600Y0158266D01*
X0012600Y0157268D02*
X0008500Y0157268D01*
X0008500Y0156269D02*
X0012600Y0156269D01*
X0012600Y0155271D02*
X0008500Y0155271D01*
X0008500Y0154272D02*
X0012600Y0154272D01*
X0012600Y0153274D02*
X0008500Y0153274D01*
X0008500Y0152275D02*
X0012600Y0152275D01*
X0012600Y0151277D02*
X0008500Y0151277D01*
X0008500Y0150278D02*
X0012600Y0150278D01*
X0012600Y0149280D02*
X0008500Y0149280D01*
X0008500Y0148281D02*
X0012600Y0148281D01*
X0012600Y0147283D02*
X0008500Y0147283D01*
X0008500Y0146284D02*
X0012600Y0146284D01*
X0012600Y0145286D02*
X0008500Y0145286D01*
X0018400Y0151277D02*
X0022971Y0151277D01*
X0022200Y0152275D02*
X0018400Y0152275D01*
X0018400Y0153274D02*
X0022200Y0153274D01*
X0022520Y0154272D02*
X0018400Y0154272D01*
X0018400Y0161262D02*
X0028985Y0161262D01*
X0028200Y0162260D02*
X0018400Y0162260D01*
X0019360Y0163259D02*
X0028200Y0163259D01*
X0028505Y0164257D02*
X0020359Y0164257D01*
X0021357Y0165256D02*
X0029503Y0165256D01*
X0031497Y0165256D02*
X0053491Y0165256D01*
X0053200Y0166254D02*
X0022356Y0166254D01*
X0032495Y0164257D02*
X0054490Y0164257D01*
X0056510Y0164257D02*
X0056600Y0164257D01*
X0057388Y0163259D02*
X0032800Y0163259D01*
X0039004Y0168251D02*
X0045996Y0168251D01*
X0045200Y0169250D02*
X0039800Y0169250D01*
X0039800Y0170248D02*
X0045200Y0170248D01*
X0045494Y0171247D02*
X0039506Y0171247D01*
X0044623Y0178237D02*
X0021897Y0178237D01*
X0021849Y0178141D02*
X0022170Y0178773D01*
X0022389Y0179446D01*
X0022477Y0180000D01*
X0018500Y0180000D01*
X0018500Y0181000D01*
X0017500Y0181000D01*
X0017500Y0184977D01*
X0016946Y0184889D01*
X0016273Y0184670D01*
X0015641Y0184349D01*
X0015068Y0183932D01*
X0014568Y0183432D01*
X0014151Y0182859D01*
X0013830Y0182227D01*
X0013611Y0181554D01*
X0013523Y0181000D01*
X0017500Y0181000D01*
X0017500Y0180000D01*
X0013523Y0180000D01*
X0013611Y0179446D01*
X0013830Y0178773D01*
X0014151Y0178141D01*
X0014568Y0177568D01*
X0015068Y0177068D01*
X0015641Y0176651D01*
X0016273Y0176330D01*
X0016946Y0176111D01*
X0017500Y0176023D01*
X0017500Y0180000D01*
X0018500Y0180000D01*
X0018500Y0176023D01*
X0019054Y0176111D01*
X0019727Y0176330D01*
X0020359Y0176651D01*
X0020932Y0177068D01*
X0021432Y0177568D01*
X0021849Y0178141D01*
X0021102Y0177238D02*
X0025137Y0177238D01*
X0024138Y0176239D02*
X0019450Y0176239D01*
X0018500Y0176239D02*
X0017500Y0176239D01*
X0016550Y0176239D02*
X0008951Y0176239D01*
X0010819Y0177238D02*
X0014898Y0177238D01*
X0014103Y0178237D02*
X0011717Y0178237D01*
X0012130Y0179235D02*
X0013679Y0179235D01*
X0012300Y0180234D02*
X0017500Y0180234D01*
X0017500Y0181232D02*
X0018500Y0181232D01*
X0018500Y0181000D02*
X0018500Y0184977D01*
X0019054Y0184889D01*
X0019727Y0184670D01*
X0020359Y0184349D01*
X0020932Y0183932D01*
X0021432Y0183432D01*
X0021849Y0182859D01*
X0022170Y0182227D01*
X0022389Y0181554D01*
X0022477Y0181000D01*
X0018500Y0181000D01*
X0018500Y0180234D02*
X0043266Y0180234D01*
X0043219Y0181232D02*
X0022440Y0181232D01*
X0022169Y0182231D02*
X0043458Y0182231D01*
X0044089Y0183229D02*
X0021580Y0183229D01*
X0020525Y0184228D02*
X0045718Y0184228D01*
X0043680Y0179235D02*
X0022321Y0179235D01*
X0018500Y0179235D02*
X0017500Y0179235D01*
X0017500Y0178237D02*
X0018500Y0178237D01*
X0018500Y0177238D02*
X0017500Y0177238D01*
X0017500Y0182231D02*
X0018500Y0182231D01*
X0018500Y0183229D02*
X0017500Y0183229D01*
X0017500Y0184228D02*
X0018500Y0184228D01*
X0015475Y0184228D02*
X0010237Y0184228D01*
X0011352Y0183229D02*
X0014420Y0183229D01*
X0013831Y0182231D02*
X0011937Y0182231D01*
X0012300Y0181232D02*
X0013560Y0181232D01*
X0008500Y0185226D02*
X0059086Y0185226D01*
X0060084Y0186225D02*
X0008500Y0186225D01*
X0008500Y0187223D02*
X0061083Y0187223D01*
X0061219Y0188222D02*
X0008500Y0188222D01*
X0008500Y0189220D02*
X0021133Y0189220D01*
X0019680Y0190219D02*
X0008500Y0190219D01*
X0008500Y0191217D02*
X0018682Y0191217D01*
X0017683Y0192216D02*
X0008500Y0192216D01*
X0008500Y0193214D02*
X0016685Y0193214D01*
X0015686Y0194213D02*
X0008500Y0194213D01*
X0009312Y0195211D02*
X0014688Y0195211D01*
X0019894Y0198207D02*
X0038606Y0198207D01*
X0039604Y0199205D02*
X0032199Y0199205D01*
X0032356Y0199247D02*
X0033447Y0199699D01*
X0034470Y0200290D01*
X0035407Y0201009D01*
X0036243Y0201845D01*
X0036962Y0202782D01*
X0037553Y0203805D01*
X0038005Y0204896D01*
X0038310Y0206037D01*
X0038465Y0207209D01*
X0038465Y0207299D01*
X0029953Y0207299D01*
X0029953Y0208299D01*
X0038465Y0208299D01*
X0038465Y0208390D01*
X0038310Y0209561D01*
X0038005Y0210702D01*
X0037553Y0211794D01*
X0036962Y0212817D01*
X0036243Y0213754D01*
X0035407Y0214589D01*
X0034470Y0215308D01*
X0033447Y0215899D01*
X0032356Y0216351D01*
X0031215Y0216657D01*
X0030043Y0216811D01*
X0029953Y0216811D01*
X0029953Y0208299D01*
X0028953Y0208299D01*
X0028953Y0207299D01*
X0029953Y0207299D01*
X0029953Y0198787D01*
X0030043Y0198787D01*
X0031215Y0198942D01*
X0032356Y0199247D01*
X0034321Y0200204D02*
X0040603Y0200204D01*
X0041601Y0201202D02*
X0035600Y0201202D01*
X0036516Y0202201D02*
X0042600Y0202201D01*
X0035299Y0194900D01*
X0023201Y0194900D01*
X0017458Y0200643D01*
X0016643Y0201458D01*
X0015577Y0201900D01*
X0008423Y0201900D01*
X0007357Y0201458D01*
X0003141Y0197243D01*
X0003000Y0196901D01*
X0003000Y0208754D01*
X0003161Y0210330D01*
X0003161Y0210330D01*
X0004096Y0213369D01*
X0005786Y0216064D01*
X0008115Y0218229D01*
X0010926Y0219717D01*
X0014026Y0220427D01*
X0015584Y0220472D01*
X0015646Y0220472D01*
X0016239Y0220451D01*
X0016263Y0220472D01*
X0051891Y0220472D01*
X0051857Y0220458D01*
X0043857Y0212458D01*
X0043041Y0211643D01*
X0042600Y0210577D01*
X0042600Y0202201D01*
X0042600Y0203199D02*
X0037203Y0203199D01*
X0037715Y0204198D02*
X0042600Y0204198D01*
X0042600Y0205196D02*
X0038085Y0205196D01*
X0038331Y0206195D02*
X0042600Y0206195D01*
X0042600Y0207193D02*
X0038463Y0207193D01*
X0038359Y0209190D02*
X0042600Y0209190D01*
X0042600Y0208192D02*
X0029953Y0208192D01*
X0029953Y0209190D02*
X0028953Y0209190D01*
X0028953Y0208299D02*
X0028953Y0216811D01*
X0028862Y0216811D01*
X0027691Y0216657D01*
X0026550Y0216351D01*
X0025458Y0215899D01*
X0024435Y0215308D01*
X0023498Y0214589D01*
X0022663Y0213754D01*
X0021944Y0212817D01*
X0021353Y0211794D01*
X0020901Y0210702D01*
X0020595Y0209561D01*
X0020441Y0208390D01*
X0020441Y0208299D01*
X0028953Y0208299D01*
X0028953Y0208192D02*
X0003000Y0208192D01*
X0003000Y0207193D02*
X0020443Y0207193D01*
X0020441Y0207209D02*
X0020595Y0206037D01*
X0020901Y0204896D01*
X0021353Y0203805D01*
X0021944Y0202782D01*
X0022663Y0201845D01*
X0023498Y0201009D01*
X0024435Y0200290D01*
X0025458Y0199699D01*
X0026550Y0199247D01*
X0027691Y0198942D01*
X0028862Y0198787D01*
X0028953Y0198787D01*
X0028953Y0207299D01*
X0020441Y0207299D01*
X0020441Y0207209D01*
X0020574Y0206195D02*
X0003000Y0206195D01*
X0003000Y0205196D02*
X0020820Y0205196D01*
X0021190Y0204198D02*
X0003000Y0204198D01*
X0003000Y0203199D02*
X0021703Y0203199D01*
X0022389Y0202201D02*
X0003000Y0202201D01*
X0003000Y0201202D02*
X0007101Y0201202D01*
X0006103Y0200204D02*
X0003000Y0200204D01*
X0003000Y0199205D02*
X0005104Y0199205D01*
X0004106Y0198207D02*
X0003000Y0198207D01*
X0003000Y0197208D02*
X0003127Y0197208D01*
X0016899Y0201202D02*
X0023305Y0201202D01*
X0024585Y0200204D02*
X0017897Y0200204D01*
X0018896Y0199205D02*
X0026707Y0199205D01*
X0028953Y0199205D02*
X0029953Y0199205D01*
X0029953Y0200204D02*
X0028953Y0200204D01*
X0028953Y0201202D02*
X0029953Y0201202D01*
X0029953Y0202201D02*
X0028953Y0202201D01*
X0028953Y0203199D02*
X0029953Y0203199D01*
X0029953Y0204198D02*
X0028953Y0204198D01*
X0028953Y0205196D02*
X0029953Y0205196D01*
X0029953Y0206195D02*
X0028953Y0206195D01*
X0028953Y0207193D02*
X0029953Y0207193D01*
X0029953Y0210189D02*
X0028953Y0210189D01*
X0028953Y0211187D02*
X0029953Y0211187D01*
X0029953Y0212186D02*
X0028953Y0212186D01*
X0028953Y0213184D02*
X0029953Y0213184D01*
X0029953Y0214183D02*
X0028953Y0214183D01*
X0028953Y0215181D02*
X0029953Y0215181D01*
X0029953Y0216180D02*
X0028953Y0216180D01*
X0026137Y0216180D02*
X0005911Y0216180D01*
X0005232Y0215181D02*
X0024270Y0215181D01*
X0023092Y0214183D02*
X0004606Y0214183D01*
X0004039Y0213184D02*
X0022226Y0213184D01*
X0021579Y0212186D02*
X0003732Y0212186D01*
X0003425Y0211187D02*
X0021102Y0211187D01*
X0020763Y0210189D02*
X0003147Y0210189D01*
X0003045Y0209190D02*
X0020546Y0209190D01*
X0032769Y0216180D02*
X0047579Y0216180D01*
X0048577Y0217178D02*
X0006985Y0217178D01*
X0008060Y0218177D02*
X0049576Y0218177D01*
X0050574Y0219175D02*
X0009903Y0219175D01*
X0012920Y0220174D02*
X0051573Y0220174D01*
X0046580Y0215181D02*
X0034636Y0215181D01*
X0035814Y0214183D02*
X0045582Y0214183D01*
X0044583Y0213184D02*
X0036680Y0213184D01*
X0037326Y0212186D02*
X0043585Y0212186D01*
X0042853Y0211187D02*
X0037804Y0211187D01*
X0038142Y0210189D02*
X0042600Y0210189D01*
X0048400Y0208192D02*
X0062052Y0208192D01*
X0061443Y0207193D02*
X0048400Y0207193D01*
X0048400Y0206195D02*
X0061219Y0206195D01*
X0061219Y0205196D02*
X0048400Y0205196D01*
X0048400Y0204198D02*
X0061219Y0204198D01*
X0061219Y0203199D02*
X0048400Y0203199D01*
X0048400Y0202201D02*
X0061219Y0202201D01*
X0061219Y0201202D02*
X0048400Y0201202D01*
X0048309Y0200204D02*
X0061219Y0200204D01*
X0061219Y0199205D02*
X0047806Y0199205D01*
X0046808Y0198207D02*
X0061219Y0198207D01*
X0061219Y0197208D02*
X0045809Y0197208D01*
X0044811Y0196210D02*
X0061219Y0196210D01*
X0061219Y0195211D02*
X0043812Y0195211D01*
X0042814Y0194213D02*
X0061219Y0194213D01*
X0061219Y0193214D02*
X0041815Y0193214D01*
X0040817Y0192216D02*
X0061219Y0192216D01*
X0061219Y0191217D02*
X0039818Y0191217D01*
X0038820Y0190219D02*
X0061219Y0190219D01*
X0061219Y0189220D02*
X0037367Y0189220D01*
X0035610Y0195211D02*
X0022890Y0195211D01*
X0021891Y0196210D02*
X0036609Y0196210D01*
X0037607Y0197208D02*
X0020893Y0197208D01*
X0048792Y0209190D02*
X0063628Y0209190D01*
X0065372Y0209190D02*
X0248105Y0209190D01*
X0248154Y0209561D02*
X0248000Y0208390D01*
X0248000Y0208299D01*
X0256512Y0208299D01*
X0256512Y0207299D01*
X0257512Y0207299D01*
X0257512Y0208299D01*
X0266024Y0208299D01*
X0266024Y0208390D01*
X0265869Y0209561D01*
X0265564Y0210702D01*
X0265112Y0211794D01*
X0264521Y0212817D01*
X0263802Y0213754D01*
X0262966Y0214589D01*
X0262029Y0215308D01*
X0261006Y0215899D01*
X0259915Y0216351D01*
X0258774Y0216657D01*
X0257602Y0216811D01*
X0257512Y0216811D01*
X0257512Y0208299D01*
X0256512Y0208299D01*
X0256512Y0216811D01*
X0256421Y0216811D01*
X0255250Y0216657D01*
X0254109Y0216351D01*
X0253017Y0215899D01*
X0251994Y0215308D01*
X0251057Y0214589D01*
X0250222Y0213754D01*
X0249503Y0212817D01*
X0248912Y0211794D01*
X0248460Y0210702D01*
X0248154Y0209561D01*
X0248322Y0210189D02*
X0049790Y0210189D01*
X0050789Y0211187D02*
X0248661Y0211187D01*
X0249139Y0212186D02*
X0051787Y0212186D01*
X0052786Y0213184D02*
X0249785Y0213184D01*
X0250651Y0214183D02*
X0053784Y0214183D01*
X0066948Y0208192D02*
X0256512Y0208192D01*
X0256512Y0207299D02*
X0248000Y0207299D01*
X0248000Y0207209D01*
X0248154Y0206037D01*
X0248460Y0204896D01*
X0248912Y0203805D01*
X0249503Y0202782D01*
X0250222Y0201845D01*
X0251057Y0201009D01*
X0251994Y0200290D01*
X0253017Y0199699D01*
X0254109Y0199247D01*
X0255250Y0198942D01*
X0256421Y0198787D01*
X0256512Y0198787D01*
X0256512Y0207299D01*
X0256512Y0207193D02*
X0257512Y0207193D01*
X0257512Y0207299D02*
X0257512Y0198787D01*
X0257602Y0198787D01*
X0258774Y0198942D01*
X0259915Y0199247D01*
X0261006Y0199699D01*
X0262029Y0200290D01*
X0262966Y0201009D01*
X0263802Y0201845D01*
X0264521Y0202782D01*
X0265112Y0203805D01*
X0265564Y0204896D01*
X0265869Y0206037D01*
X0266024Y0207209D01*
X0266024Y0207299D01*
X0257512Y0207299D01*
X0257512Y0208192D02*
X0283439Y0208192D01*
X0283465Y0207193D02*
X0266022Y0207193D01*
X0265890Y0206195D02*
X0283465Y0206195D01*
X0283465Y0205196D02*
X0265644Y0205196D01*
X0265274Y0204198D02*
X0283465Y0204198D01*
X0283465Y0203199D02*
X0264762Y0203199D01*
X0264075Y0202201D02*
X0283465Y0202201D01*
X0283465Y0201202D02*
X0263159Y0201202D01*
X0261880Y0200204D02*
X0283465Y0200204D01*
X0283465Y0199205D02*
X0259758Y0199205D01*
X0257512Y0199205D02*
X0256512Y0199205D01*
X0256512Y0200204D02*
X0257512Y0200204D01*
X0257512Y0201202D02*
X0256512Y0201202D01*
X0256512Y0202201D02*
X0257512Y0202201D01*
X0257512Y0203199D02*
X0256512Y0203199D01*
X0256512Y0204198D02*
X0257512Y0204198D01*
X0257512Y0205196D02*
X0256512Y0205196D01*
X0256512Y0206195D02*
X0257512Y0206195D01*
X0257512Y0209190D02*
X0256512Y0209190D01*
X0256512Y0210189D02*
X0257512Y0210189D01*
X0257512Y0211187D02*
X0256512Y0211187D01*
X0256512Y0212186D02*
X0257512Y0212186D01*
X0257512Y0213184D02*
X0256512Y0213184D01*
X0256512Y0214183D02*
X0257512Y0214183D01*
X0257512Y0215181D02*
X0256512Y0215181D01*
X0256512Y0216180D02*
X0257512Y0216180D01*
X0260328Y0216180D02*
X0280180Y0216180D01*
X0281038Y0215181D02*
X0262195Y0215181D01*
X0263373Y0214183D02*
X0281614Y0214183D01*
X0282191Y0213184D02*
X0264239Y0213184D01*
X0264885Y0212186D02*
X0282624Y0212186D01*
X0282892Y0211187D02*
X0265363Y0211187D01*
X0265701Y0210189D02*
X0283159Y0210189D01*
X0283373Y0209190D02*
X0265918Y0209190D01*
X0253696Y0216180D02*
X0161781Y0216180D01*
X0162299Y0217178D02*
X0279181Y0217178D01*
X0277946Y0218177D02*
X0162400Y0218177D01*
X0162152Y0219175D02*
X0276217Y0219175D01*
X0273155Y0220174D02*
X0161427Y0220174D01*
X0160273Y0215181D02*
X0251829Y0215181D01*
X0248002Y0207193D02*
X0067557Y0207193D01*
X0067781Y0206195D02*
X0248133Y0206195D01*
X0248380Y0205196D02*
X0126095Y0205196D01*
X0126906Y0204198D02*
X0248749Y0204198D01*
X0249262Y0203199D02*
X0127181Y0203199D01*
X0127071Y0202201D02*
X0166451Y0202201D01*
X0166321Y0202147D02*
X0165042Y0200868D01*
X0164350Y0199196D01*
X0164350Y0197387D01*
X0165042Y0195715D01*
X0166321Y0194436D01*
X0167993Y0193743D01*
X0169802Y0193743D01*
X0171474Y0194436D01*
X0172753Y0195715D01*
X0173446Y0197387D01*
X0173446Y0199196D01*
X0172753Y0200868D01*
X0171474Y0202147D01*
X0169802Y0202839D01*
X0167993Y0202839D01*
X0166321Y0202147D01*
X0165377Y0201202D02*
X0126981Y0201202D01*
X0126981Y0200204D02*
X0164767Y0200204D01*
X0164353Y0199205D02*
X0126981Y0199205D01*
X0126981Y0198207D02*
X0164350Y0198207D01*
X0164424Y0197208D02*
X0133329Y0197208D01*
X0134930Y0196210D02*
X0164837Y0196210D01*
X0165546Y0195211D02*
X0135929Y0195211D01*
X0135282Y0195859D02*
X0135282Y0195859D01*
X0136927Y0194213D02*
X0166860Y0194213D01*
X0170935Y0194213D02*
X0176860Y0194213D01*
X0176321Y0194436D02*
X0177993Y0193743D01*
X0179802Y0193743D01*
X0181474Y0194436D01*
X0182753Y0195715D01*
X0183446Y0197387D01*
X0183446Y0199196D01*
X0182753Y0200868D01*
X0181474Y0202147D01*
X0179802Y0202839D01*
X0177993Y0202839D01*
X0176321Y0202147D01*
X0175042Y0200868D01*
X0174350Y0199196D01*
X0174350Y0197387D01*
X0175042Y0195715D01*
X0176321Y0194436D01*
X0175546Y0195211D02*
X0172249Y0195211D01*
X0172958Y0196210D02*
X0174837Y0196210D01*
X0174424Y0197208D02*
X0173372Y0197208D01*
X0173446Y0198207D02*
X0174350Y0198207D01*
X0174353Y0199205D02*
X0173442Y0199205D01*
X0173028Y0200204D02*
X0174767Y0200204D01*
X0175377Y0201202D02*
X0172419Y0201202D01*
X0171344Y0202201D02*
X0176451Y0202201D01*
X0181344Y0202201D02*
X0208656Y0202201D01*
X0208526Y0202147D02*
X0207247Y0200868D01*
X0206554Y0199196D01*
X0206554Y0197387D01*
X0207247Y0195715D01*
X0208526Y0194436D01*
X0210198Y0193743D01*
X0212007Y0193743D01*
X0213679Y0194436D01*
X0214958Y0195715D01*
X0215650Y0197387D01*
X0215650Y0199196D01*
X0214958Y0200868D01*
X0213679Y0202147D01*
X0212007Y0202839D01*
X0210198Y0202839D01*
X0208526Y0202147D01*
X0207581Y0201202D02*
X0182419Y0201202D01*
X0183028Y0200204D02*
X0206972Y0200204D01*
X0206558Y0199205D02*
X0183442Y0199205D01*
X0183446Y0198207D02*
X0206554Y0198207D01*
X0206628Y0197208D02*
X0183372Y0197208D01*
X0182958Y0196210D02*
X0207042Y0196210D01*
X0207751Y0195211D02*
X0182249Y0195211D01*
X0180935Y0194213D02*
X0209065Y0194213D01*
X0213140Y0194213D02*
X0219065Y0194213D01*
X0218526Y0194436D02*
X0220198Y0193743D01*
X0222007Y0193743D01*
X0223679Y0194436D01*
X0224958Y0195715D01*
X0225650Y0197387D01*
X0225650Y0199196D01*
X0224958Y0200868D01*
X0223679Y0202147D01*
X0222007Y0202839D01*
X0220198Y0202839D01*
X0218526Y0202147D01*
X0217247Y0200868D01*
X0216554Y0199196D01*
X0216554Y0197387D01*
X0217247Y0195715D01*
X0218526Y0194436D01*
X0217751Y0195211D02*
X0214454Y0195211D01*
X0215163Y0196210D02*
X0217042Y0196210D01*
X0216628Y0197208D02*
X0215576Y0197208D01*
X0215650Y0198207D02*
X0216554Y0198207D01*
X0216558Y0199205D02*
X0215647Y0199205D01*
X0215233Y0200204D02*
X0216972Y0200204D01*
X0217581Y0201202D02*
X0214623Y0201202D01*
X0213549Y0202201D02*
X0218656Y0202201D01*
X0223549Y0202201D02*
X0249948Y0202201D01*
X0250864Y0201202D02*
X0224623Y0201202D01*
X0225233Y0200204D02*
X0252144Y0200204D01*
X0254266Y0199205D02*
X0225647Y0199205D01*
X0225650Y0198207D02*
X0283465Y0198207D01*
X0283465Y0197208D02*
X0225576Y0197208D01*
X0225163Y0196210D02*
X0283465Y0196210D01*
X0283465Y0195211D02*
X0224454Y0195211D01*
X0223140Y0194213D02*
X0283465Y0194213D01*
X0283465Y0193214D02*
X0137926Y0193214D01*
X0138924Y0192216D02*
X0283465Y0192216D01*
X0283465Y0191217D02*
X0139923Y0191217D01*
X0140922Y0190219D02*
X0283465Y0190219D01*
X0283465Y0189220D02*
X0158682Y0189220D01*
X0158423Y0189328D02*
X0155309Y0189328D01*
X0152432Y0188136D01*
X0150230Y0185934D01*
X0149039Y0183057D01*
X0149039Y0179943D01*
X0150230Y0177066D01*
X0152432Y0174864D01*
X0155309Y0173672D01*
X0158423Y0173672D01*
X0161300Y0174864D01*
X0163502Y0177066D01*
X0164694Y0179943D01*
X0164694Y0183057D01*
X0163502Y0185934D01*
X0161300Y0188136D01*
X0158423Y0189328D01*
X0161093Y0188222D02*
X0283465Y0188222D01*
X0283465Y0187223D02*
X0162213Y0187223D01*
X0163211Y0186225D02*
X0169561Y0186225D01*
X0170949Y0186799D02*
X0168082Y0185612D01*
X0165888Y0183418D01*
X0164701Y0180551D01*
X0164701Y0177449D01*
X0165888Y0174582D01*
X0168082Y0172388D01*
X0170949Y0171201D01*
X0174051Y0171201D01*
X0176918Y0172388D01*
X0179112Y0174582D01*
X0180299Y0177449D01*
X0180299Y0180551D01*
X0179112Y0183418D01*
X0176918Y0185612D01*
X0174051Y0186799D01*
X0170949Y0186799D01*
X0167696Y0185226D02*
X0163795Y0185226D01*
X0164209Y0184228D02*
X0166698Y0184228D01*
X0165810Y0183229D02*
X0164622Y0183229D01*
X0164694Y0182231D02*
X0165396Y0182231D01*
X0164983Y0181232D02*
X0164694Y0181232D01*
X0164694Y0180234D02*
X0164701Y0180234D01*
X0164701Y0179235D02*
X0164400Y0179235D01*
X0164701Y0178237D02*
X0163987Y0178237D01*
X0163573Y0177238D02*
X0164788Y0177238D01*
X0165202Y0176239D02*
X0162675Y0176239D01*
X0161677Y0175241D02*
X0165615Y0175241D01*
X0166228Y0174242D02*
X0159799Y0174242D01*
X0161743Y0171101D02*
X0160380Y0169737D01*
X0159642Y0167956D01*
X0159642Y0166028D01*
X0160380Y0164247D01*
X0161743Y0162884D01*
X0163524Y0162146D01*
X0165452Y0162146D01*
X0167233Y0162884D01*
X0168597Y0164247D01*
X0169335Y0166028D01*
X0169335Y0167956D01*
X0168597Y0169737D01*
X0167233Y0171101D01*
X0165452Y0171839D01*
X0163524Y0171839D01*
X0161743Y0171101D01*
X0162096Y0171247D02*
X0149177Y0171247D01*
X0149177Y0170248D02*
X0160891Y0170248D01*
X0160178Y0169250D02*
X0148868Y0169250D01*
X0148380Y0168251D02*
X0159764Y0168251D01*
X0159642Y0167253D02*
X0148061Y0167253D01*
X0148061Y0166254D02*
X0159642Y0166254D01*
X0159962Y0165256D02*
X0148061Y0165256D01*
X0148061Y0164257D02*
X0160375Y0164257D01*
X0161368Y0163259D02*
X0148061Y0163259D01*
X0148061Y0162260D02*
X0163247Y0162260D01*
X0165729Y0162260D02*
X0224271Y0162260D01*
X0224548Y0162146D02*
X0226476Y0162146D01*
X0228257Y0162884D01*
X0229620Y0164247D01*
X0230358Y0166028D01*
X0230358Y0167956D01*
X0229620Y0169737D01*
X0228257Y0171101D01*
X0226476Y0171839D01*
X0224548Y0171839D01*
X0222767Y0171101D01*
X0221403Y0169737D01*
X0220665Y0167956D01*
X0220665Y0166028D01*
X0221403Y0164247D01*
X0222767Y0162884D01*
X0224548Y0162146D01*
X0226753Y0162260D02*
X0283465Y0162260D01*
X0283465Y0161262D02*
X0148061Y0161262D01*
X0148061Y0160263D02*
X0283465Y0160263D01*
X0283465Y0159265D02*
X0148061Y0159265D01*
X0148061Y0158266D02*
X0199537Y0158266D01*
X0199616Y0158346D02*
X0198174Y0156904D01*
X0197394Y0155020D01*
X0197394Y0152980D01*
X0198174Y0151096D01*
X0199616Y0149654D01*
X0201500Y0148874D01*
X0203539Y0148874D01*
X0205423Y0149654D01*
X0206865Y0151096D01*
X0207520Y0152676D01*
X0208174Y0151096D01*
X0209616Y0149654D01*
X0211500Y0148874D01*
X0213539Y0148874D01*
X0215423Y0149654D01*
X0216865Y0151096D01*
X0217646Y0152980D01*
X0217646Y0155020D01*
X0216865Y0156904D01*
X0215423Y0158346D01*
X0213539Y0159126D01*
X0211500Y0159126D01*
X0209616Y0158346D01*
X0208174Y0156904D01*
X0207520Y0155324D01*
X0206865Y0156904D01*
X0205423Y0158346D01*
X0203539Y0159126D01*
X0201500Y0159126D01*
X0199616Y0158346D01*
X0198538Y0157268D02*
X0194849Y0157268D01*
X0194761Y0157355D02*
X0195875Y0156242D01*
X0196477Y0154787D01*
X0196477Y0153213D01*
X0195875Y0151758D01*
X0194761Y0150645D01*
X0193307Y0150043D01*
X0191732Y0150043D01*
X0190278Y0150645D01*
X0189165Y0151758D01*
X0188562Y0153213D01*
X0188562Y0154787D01*
X0189165Y0156242D01*
X0190278Y0157355D01*
X0191732Y0157957D01*
X0193307Y0157957D01*
X0194761Y0157355D01*
X0195847Y0156269D02*
X0197911Y0156269D01*
X0197498Y0155271D02*
X0196277Y0155271D01*
X0196477Y0154272D02*
X0197394Y0154272D01*
X0197394Y0153274D02*
X0196477Y0153274D01*
X0196089Y0152275D02*
X0197686Y0152275D01*
X0198099Y0151277D02*
X0195393Y0151277D01*
X0193876Y0150278D02*
X0198992Y0150278D01*
X0200521Y0149280D02*
X0148061Y0149280D01*
X0148061Y0150278D02*
X0181164Y0150278D01*
X0181732Y0150043D02*
X0183307Y0150043D01*
X0184761Y0150645D01*
X0185875Y0151758D01*
X0186477Y0153213D01*
X0186477Y0154787D01*
X0185875Y0156242D01*
X0184761Y0157355D01*
X0183307Y0157957D01*
X0181732Y0157957D01*
X0180278Y0157355D01*
X0179165Y0156242D01*
X0178562Y0154787D01*
X0178562Y0153213D01*
X0179165Y0151758D01*
X0180278Y0150645D01*
X0181732Y0150043D01*
X0183876Y0150278D02*
X0191164Y0150278D01*
X0189646Y0151277D02*
X0185393Y0151277D01*
X0186089Y0152275D02*
X0188951Y0152275D01*
X0188562Y0153274D02*
X0186477Y0153274D01*
X0186477Y0154272D02*
X0188562Y0154272D01*
X0188762Y0155271D02*
X0186277Y0155271D01*
X0185847Y0156269D02*
X0189192Y0156269D01*
X0190191Y0157268D02*
X0184849Y0157268D01*
X0180191Y0157268D02*
X0148061Y0157268D01*
X0148061Y0156269D02*
X0179192Y0156269D01*
X0178762Y0155271D02*
X0148061Y0155271D01*
X0148061Y0154272D02*
X0178562Y0154272D01*
X0178562Y0153274D02*
X0148061Y0153274D01*
X0148061Y0152275D02*
X0178951Y0152275D01*
X0179646Y0151277D02*
X0148061Y0151277D01*
X0141498Y0166254D02*
X0137343Y0166254D01*
X0138653Y0167253D02*
X0141498Y0167253D01*
X0141179Y0168251D02*
X0139465Y0168251D01*
X0139878Y0169250D02*
X0140691Y0169250D01*
X0140382Y0170248D02*
X0140122Y0170248D01*
X0140122Y0171247D02*
X0140382Y0171247D01*
X0140589Y0172245D02*
X0139980Y0172245D01*
X0139566Y0173244D02*
X0141003Y0173244D01*
X0141498Y0174242D02*
X0138897Y0174242D01*
X0137899Y0175241D02*
X0141498Y0175241D01*
X0141498Y0176239D02*
X0110943Y0176239D01*
X0111770Y0177066D02*
X0109568Y0174864D01*
X0106691Y0173672D01*
X0103577Y0173672D01*
X0100700Y0174864D01*
X0098498Y0177066D01*
X0097306Y0179943D01*
X0097306Y0183057D01*
X0098498Y0185934D01*
X0100700Y0188136D01*
X0103577Y0189328D01*
X0106691Y0189328D01*
X0109568Y0188136D01*
X0111770Y0185934D01*
X0112961Y0183057D01*
X0112961Y0179943D01*
X0111770Y0177066D01*
X0111841Y0177238D02*
X0141498Y0177238D01*
X0141498Y0178237D02*
X0112255Y0178237D01*
X0112668Y0179235D02*
X0141498Y0179235D01*
X0141498Y0180234D02*
X0112961Y0180234D01*
X0112961Y0181232D02*
X0140628Y0181232D01*
X0139629Y0182231D02*
X0112961Y0182231D01*
X0112890Y0183229D02*
X0138631Y0183229D01*
X0137632Y0184228D02*
X0112477Y0184228D01*
X0112063Y0185226D02*
X0136634Y0185226D01*
X0135635Y0186225D02*
X0111479Y0186225D01*
X0110481Y0187223D02*
X0134637Y0187223D01*
X0133638Y0188222D02*
X0109361Y0188222D01*
X0106950Y0189220D02*
X0132640Y0189220D01*
X0131641Y0190219D02*
X0092087Y0190219D01*
X0093000Y0189220D02*
X0103318Y0189220D01*
X0100907Y0188222D02*
X0093414Y0188222D01*
X0093468Y0187223D02*
X0099787Y0187223D01*
X0098789Y0186225D02*
X0093267Y0186225D01*
X0093468Y0185226D02*
X0098205Y0185226D01*
X0097791Y0184228D02*
X0093468Y0184228D01*
X0093186Y0183229D02*
X0097378Y0183229D01*
X0097306Y0182231D02*
X0092536Y0182231D01*
X0090933Y0181232D02*
X0097306Y0181232D01*
X0097306Y0180234D02*
X0063374Y0180234D01*
X0064372Y0181232D02*
X0089067Y0181232D01*
X0087464Y0182231D02*
X0065371Y0182231D01*
X0062375Y0179235D02*
X0078134Y0179235D01*
X0077135Y0178237D02*
X0061377Y0178237D01*
X0067781Y0190219D02*
X0077195Y0190219D01*
X0078256Y0191217D02*
X0067781Y0191217D01*
X0067781Y0192216D02*
X0079317Y0192216D01*
X0080378Y0193214D02*
X0067781Y0193214D01*
X0067781Y0194213D02*
X0081439Y0194213D01*
X0082500Y0195211D02*
X0067781Y0195211D01*
X0067781Y0196210D02*
X0083560Y0196210D01*
X0085171Y0197208D02*
X0067781Y0197208D01*
X0067781Y0198207D02*
X0122019Y0198207D01*
X0122019Y0199205D02*
X0067781Y0199205D01*
X0067781Y0200204D02*
X0122019Y0200204D01*
X0122019Y0201202D02*
X0067781Y0201202D01*
X0067781Y0202201D02*
X0121929Y0202201D01*
X0121819Y0203199D02*
X0067781Y0203199D01*
X0067781Y0204198D02*
X0122094Y0204198D01*
X0122905Y0205196D02*
X0067781Y0205196D01*
X0084648Y0188222D02*
X0086586Y0188222D01*
X0086531Y0187223D02*
X0083587Y0187223D01*
X0082526Y0186225D02*
X0086733Y0186225D01*
X0086531Y0185226D02*
X0081465Y0185226D01*
X0080404Y0184228D02*
X0086531Y0184228D01*
X0086814Y0183229D02*
X0079369Y0183229D01*
X0081866Y0179235D02*
X0097600Y0179235D01*
X0098013Y0178237D02*
X0082627Y0178237D01*
X0082900Y0177238D02*
X0098427Y0177238D01*
X0099325Y0176239D02*
X0082824Y0176239D01*
X0082342Y0175241D02*
X0100323Y0175241D01*
X0102201Y0174242D02*
X0081344Y0174242D01*
X0080345Y0173244D02*
X0113733Y0173244D01*
X0113234Y0172245D02*
X0078999Y0172245D01*
X0076005Y0164257D02*
X0061200Y0164257D01*
X0060412Y0163259D02*
X0075200Y0163259D01*
X0085709Y0189220D02*
X0087000Y0189220D01*
X0086770Y0190219D02*
X0087913Y0190219D01*
X0108067Y0174242D02*
X0114689Y0174242D01*
X0116815Y0174242D02*
X0117626Y0174242D01*
X0117626Y0173244D02*
X0116815Y0173244D01*
X0116815Y0172245D02*
X0117626Y0172245D01*
X0117626Y0170248D02*
X0116815Y0170248D01*
X0116815Y0169250D02*
X0117626Y0169250D01*
X0117626Y0168251D02*
X0116815Y0168251D01*
X0116815Y0167253D02*
X0117626Y0167253D01*
X0121207Y0172245D02*
X0122020Y0172245D01*
X0122434Y0173244D02*
X0120708Y0173244D01*
X0119752Y0174242D02*
X0123103Y0174242D01*
X0124101Y0175241D02*
X0109945Y0175241D01*
X0130025Y0175241D02*
X0131975Y0175241D01*
X0131221Y0167253D02*
X0130779Y0167253D01*
X0129469Y0166254D02*
X0132531Y0166254D01*
X0148061Y0174242D02*
X0153933Y0174242D01*
X0152055Y0175241D02*
X0148061Y0175241D01*
X0148061Y0176239D02*
X0151057Y0176239D01*
X0150159Y0177238D02*
X0148061Y0177238D01*
X0148061Y0178237D02*
X0149745Y0178237D01*
X0149332Y0179235D02*
X0148061Y0179235D01*
X0148061Y0180234D02*
X0149039Y0180234D01*
X0149039Y0181232D02*
X0148061Y0181232D01*
X0148061Y0182231D02*
X0149039Y0182231D01*
X0149110Y0183229D02*
X0147706Y0183229D01*
X0146913Y0184228D02*
X0149523Y0184228D01*
X0149937Y0185226D02*
X0145914Y0185226D01*
X0146638Y0184502D02*
X0146638Y0184502D01*
X0144916Y0186225D02*
X0150521Y0186225D01*
X0151519Y0187223D02*
X0143917Y0187223D01*
X0142919Y0188222D02*
X0152639Y0188222D01*
X0155050Y0189220D02*
X0141920Y0189220D01*
X0148556Y0173244D02*
X0167226Y0173244D01*
X0168427Y0172245D02*
X0148970Y0172245D01*
X0166881Y0171247D02*
X0170837Y0171247D01*
X0168799Y0169250D02*
X0221201Y0169250D01*
X0220788Y0168251D02*
X0169212Y0168251D01*
X0169335Y0167253D02*
X0220665Y0167253D01*
X0220665Y0166254D02*
X0169335Y0166254D01*
X0169015Y0165256D02*
X0220985Y0165256D01*
X0221399Y0164257D02*
X0168601Y0164257D01*
X0167609Y0163259D02*
X0222391Y0163259D01*
X0228632Y0163259D02*
X0283465Y0163259D01*
X0283465Y0164257D02*
X0229625Y0164257D01*
X0230038Y0165256D02*
X0283465Y0165256D01*
X0283465Y0166254D02*
X0230358Y0166254D01*
X0230358Y0167253D02*
X0283465Y0167253D01*
X0283465Y0168251D02*
X0230236Y0168251D01*
X0229822Y0169250D02*
X0283465Y0169250D01*
X0283465Y0170248D02*
X0229109Y0170248D01*
X0227904Y0171247D02*
X0283465Y0171247D01*
X0283465Y0172245D02*
X0221573Y0172245D01*
X0221918Y0172388D02*
X0224112Y0174582D01*
X0225299Y0177449D01*
X0225299Y0180551D01*
X0224112Y0183418D01*
X0221918Y0185612D01*
X0219051Y0186799D01*
X0215949Y0186799D01*
X0213082Y0185612D01*
X0210888Y0183418D01*
X0209701Y0180551D01*
X0209701Y0177449D01*
X0210888Y0174582D01*
X0213082Y0172388D01*
X0215949Y0171201D01*
X0219051Y0171201D01*
X0221918Y0172388D01*
X0222774Y0173244D02*
X0252778Y0173244D01*
X0252857Y0173187D02*
X0253564Y0172826D01*
X0254319Y0172581D01*
X0255000Y0172473D01*
X0255000Y0177000D01*
X0256000Y0177000D01*
X0256000Y0178000D01*
X0260527Y0178000D01*
X0260419Y0178681D01*
X0260174Y0179436D01*
X0259813Y0180143D01*
X0259347Y0180785D01*
X0258785Y0181347D01*
X0258143Y0181813D01*
X0257436Y0182174D01*
X0256681Y0182419D01*
X0256000Y0182527D01*
X0256000Y0178000D01*
X0255000Y0178000D01*
X0255000Y0182527D01*
X0254319Y0182419D01*
X0253564Y0182174D01*
X0252857Y0181813D01*
X0252215Y0181347D01*
X0251653Y0180785D01*
X0251187Y0180143D01*
X0250826Y0179436D01*
X0250581Y0178681D01*
X0250473Y0178000D01*
X0255000Y0178000D01*
X0255000Y0177000D01*
X0250473Y0177000D01*
X0250581Y0176319D01*
X0250826Y0175564D01*
X0251187Y0174857D01*
X0251653Y0174215D01*
X0252215Y0173653D01*
X0252857Y0173187D01*
X0251633Y0174242D02*
X0223772Y0174242D01*
X0224385Y0175241D02*
X0250991Y0175241D01*
X0250607Y0176239D02*
X0224798Y0176239D01*
X0225212Y0177238D02*
X0255000Y0177238D01*
X0255000Y0178237D02*
X0256000Y0178237D01*
X0256000Y0179235D02*
X0255000Y0179235D01*
X0255000Y0180234D02*
X0256000Y0180234D01*
X0256000Y0181232D02*
X0255000Y0181232D01*
X0255000Y0182231D02*
X0256000Y0182231D01*
X0257261Y0182231D02*
X0272954Y0182231D01*
X0272226Y0181929D02*
X0270756Y0180459D01*
X0269961Y0178539D01*
X0269961Y0176461D01*
X0270756Y0174541D01*
X0272226Y0173071D01*
X0274146Y0172276D01*
X0276224Y0172276D01*
X0278144Y0173071D01*
X0279614Y0174541D01*
X0280409Y0176461D01*
X0280409Y0178539D01*
X0279614Y0180459D01*
X0278144Y0181929D01*
X0276224Y0182724D01*
X0274146Y0182724D01*
X0272226Y0181929D01*
X0271529Y0181232D02*
X0258900Y0181232D01*
X0259748Y0180234D02*
X0270662Y0180234D01*
X0270249Y0179235D02*
X0260239Y0179235D01*
X0260490Y0178237D02*
X0269961Y0178237D01*
X0269961Y0177238D02*
X0256000Y0177238D01*
X0256000Y0177000D02*
X0260527Y0177000D01*
X0260419Y0176319D01*
X0260174Y0175564D01*
X0259813Y0174857D01*
X0259347Y0174215D01*
X0258785Y0173653D01*
X0258143Y0173187D01*
X0257436Y0172826D01*
X0256681Y0172581D01*
X0256000Y0172473D01*
X0256000Y0177000D01*
X0256000Y0176239D02*
X0255000Y0176239D01*
X0255000Y0175241D02*
X0256000Y0175241D01*
X0256000Y0174242D02*
X0255000Y0174242D01*
X0255000Y0173244D02*
X0256000Y0173244D01*
X0258222Y0173244D02*
X0272053Y0173244D01*
X0271054Y0174242D02*
X0259367Y0174242D01*
X0260009Y0175241D02*
X0270466Y0175241D01*
X0270052Y0176239D02*
X0260393Y0176239D01*
X0253739Y0182231D02*
X0224604Y0182231D01*
X0224190Y0183229D02*
X0283465Y0183229D01*
X0283465Y0182231D02*
X0277417Y0182231D01*
X0278841Y0181232D02*
X0283465Y0181232D01*
X0283465Y0180234D02*
X0279708Y0180234D01*
X0280121Y0179235D02*
X0283465Y0179235D01*
X0283465Y0178237D02*
X0280409Y0178237D01*
X0280409Y0177238D02*
X0283465Y0177238D01*
X0283465Y0176239D02*
X0280318Y0176239D01*
X0279904Y0175241D02*
X0283465Y0175241D01*
X0283465Y0174242D02*
X0279316Y0174242D01*
X0278317Y0173244D02*
X0283465Y0173244D01*
X0283465Y0184228D02*
X0223302Y0184228D01*
X0222304Y0185226D02*
X0283465Y0185226D01*
X0283465Y0186225D02*
X0220439Y0186225D01*
X0214561Y0186225D02*
X0175439Y0186225D01*
X0177304Y0185226D02*
X0212696Y0185226D01*
X0211698Y0184228D02*
X0178302Y0184228D01*
X0179190Y0183229D02*
X0210810Y0183229D01*
X0210396Y0182231D02*
X0179604Y0182231D01*
X0180017Y0181232D02*
X0209983Y0181232D01*
X0209701Y0180234D02*
X0180299Y0180234D01*
X0180299Y0179235D02*
X0209701Y0179235D01*
X0209701Y0178237D02*
X0180299Y0178237D01*
X0180212Y0177238D02*
X0209788Y0177238D01*
X0210202Y0176239D02*
X0179798Y0176239D01*
X0179385Y0175241D02*
X0210615Y0175241D01*
X0211228Y0174242D02*
X0178772Y0174242D01*
X0177774Y0173244D02*
X0212226Y0173244D01*
X0213427Y0172245D02*
X0176573Y0172245D01*
X0174163Y0171247D02*
X0215837Y0171247D01*
X0219163Y0171247D02*
X0223119Y0171247D01*
X0221914Y0170248D02*
X0168086Y0170248D01*
X0190488Y0148281D02*
X0204552Y0148281D01*
X0204616Y0148346D02*
X0203174Y0146904D01*
X0202394Y0145020D01*
X0202394Y0142980D01*
X0203174Y0141096D01*
X0204616Y0139654D01*
X0206500Y0138874D01*
X0208539Y0138874D01*
X0210423Y0139654D01*
X0211865Y0141096D01*
X0212646Y0142980D01*
X0212646Y0145020D01*
X0211865Y0146904D01*
X0210423Y0148346D01*
X0208539Y0149126D01*
X0206500Y0149126D01*
X0204616Y0148346D01*
X0204519Y0149280D02*
X0210521Y0149280D01*
X0210488Y0148281D02*
X0283465Y0148281D01*
X0283465Y0147283D02*
X0211486Y0147283D01*
X0212122Y0146284D02*
X0283465Y0146284D01*
X0283465Y0145286D02*
X0212535Y0145286D01*
X0212646Y0144287D02*
X0283465Y0144287D01*
X0283465Y0143289D02*
X0212646Y0143289D01*
X0212360Y0142290D02*
X0283465Y0142290D01*
X0283465Y0141292D02*
X0211946Y0141292D01*
X0211062Y0140293D02*
X0233000Y0140293D01*
X0233000Y0139295D02*
X0209555Y0139295D01*
X0205485Y0139295D02*
X0189555Y0139295D01*
X0191062Y0140293D02*
X0196128Y0140293D01*
X0196732Y0140043D02*
X0198307Y0140043D01*
X0199761Y0140645D01*
X0200875Y0141758D01*
X0201477Y0143213D01*
X0201477Y0144787D01*
X0200875Y0146242D01*
X0199761Y0147355D01*
X0198307Y0147957D01*
X0196732Y0147957D01*
X0195278Y0147355D01*
X0194165Y0146242D01*
X0193562Y0144787D01*
X0193562Y0143213D01*
X0194165Y0141758D01*
X0195278Y0140645D01*
X0196732Y0140043D01*
X0198912Y0140293D02*
X0203977Y0140293D01*
X0203093Y0141292D02*
X0200408Y0141292D01*
X0201095Y0142290D02*
X0202680Y0142290D01*
X0202394Y0143289D02*
X0201477Y0143289D01*
X0201477Y0144287D02*
X0202394Y0144287D01*
X0202504Y0145286D02*
X0201271Y0145286D01*
X0200832Y0146284D02*
X0202917Y0146284D01*
X0203553Y0147283D02*
X0199834Y0147283D01*
X0195206Y0147283D02*
X0191486Y0147283D01*
X0192122Y0146284D02*
X0194207Y0146284D01*
X0193769Y0145286D02*
X0192535Y0145286D01*
X0192646Y0144287D02*
X0193562Y0144287D01*
X0193562Y0143289D02*
X0192646Y0143289D01*
X0192360Y0142290D02*
X0193944Y0142290D01*
X0194631Y0141292D02*
X0191946Y0141292D01*
X0206047Y0150278D02*
X0208992Y0150278D01*
X0208099Y0151277D02*
X0206940Y0151277D01*
X0207354Y0152275D02*
X0207686Y0152275D01*
X0207911Y0156269D02*
X0207128Y0156269D01*
X0206501Y0157268D02*
X0208538Y0157268D01*
X0209537Y0158266D02*
X0205503Y0158266D01*
X0215503Y0158266D02*
X0283465Y0158266D01*
X0283465Y0157268D02*
X0216501Y0157268D01*
X0217128Y0156269D02*
X0283465Y0156269D01*
X0283465Y0155271D02*
X0217542Y0155271D01*
X0217646Y0154272D02*
X0283465Y0154272D01*
X0283465Y0153274D02*
X0217646Y0153274D01*
X0217354Y0152275D02*
X0283465Y0152275D01*
X0283465Y0151277D02*
X0216940Y0151277D01*
X0216047Y0150278D02*
X0283465Y0150278D01*
X0283465Y0149280D02*
X0214519Y0149280D01*
X0225299Y0178237D02*
X0250510Y0178237D01*
X0250761Y0179235D02*
X0225299Y0179235D01*
X0225299Y0180234D02*
X0251252Y0180234D01*
X0252100Y0181232D02*
X0225017Y0181232D01*
X0117016Y0073393D02*
X0015017Y0073393D01*
X0014019Y0072394D02*
X0117700Y0072394D01*
X0054982Y0089369D02*
X0008500Y0089369D01*
X0049087Y0112335D02*
X0057280Y0112335D01*
X0054414Y0113333D02*
X0049800Y0113333D01*
X0049800Y0114332D02*
X0053416Y0114332D01*
X0053200Y0115330D02*
X0049422Y0115330D01*
X0032432Y0125315D02*
X0022786Y0125315D01*
X0025436Y0128311D02*
X0019790Y0128311D01*
X0018792Y0129309D02*
X0024700Y0129309D01*
X0024700Y0130308D02*
X0018400Y0130308D01*
X0018400Y0131306D02*
X0025054Y0131306D01*
X0015445Y0039443D02*
X0009200Y0039443D01*
X0010193Y0038445D02*
X0015032Y0038445D01*
X0014819Y0037446D02*
X0011186Y0037446D01*
X0012179Y0036448D02*
X0014819Y0036448D01*
X0015075Y0035449D02*
X0013172Y0035449D01*
X0014166Y0034451D02*
X0015489Y0034451D01*
X0015159Y0033452D02*
X0016428Y0033452D01*
X0016152Y0032454D02*
X0018243Y0032454D01*
X0003000Y0025464D02*
X0036434Y0025464D01*
X0037633Y0019473D02*
X0040600Y0019473D01*
X0040600Y0018475D02*
X0038032Y0018475D01*
X0038299Y0017476D02*
X0040600Y0017476D01*
X0040600Y0016478D02*
X0038436Y0016478D01*
X0038465Y0015173D02*
X0029953Y0015173D01*
X0029953Y0006661D01*
X0030043Y0006661D01*
X0031215Y0006816D01*
X0032356Y0007121D01*
X0033447Y0007573D01*
X0034470Y0008164D01*
X0035407Y0008883D01*
X0036243Y0009719D01*
X0036962Y0010656D01*
X0037553Y0011679D01*
X0038005Y0012770D01*
X0038310Y0013911D01*
X0038465Y0015083D01*
X0038465Y0015173D01*
X0038385Y0014481D02*
X0040600Y0014481D01*
X0040600Y0015479D02*
X0029953Y0015479D01*
X0029953Y0014481D02*
X0028953Y0014481D01*
X0028953Y0015173D02*
X0028953Y0006661D01*
X0028862Y0006661D01*
X0027691Y0006816D01*
X0026550Y0007121D01*
X0025458Y0007573D01*
X0024435Y0008164D01*
X0023498Y0008883D01*
X0022663Y0009719D01*
X0021944Y0010656D01*
X0021353Y0011679D01*
X0020901Y0012770D01*
X0020595Y0013911D01*
X0020441Y0015083D01*
X0020441Y0015173D01*
X0028953Y0015173D01*
X0028953Y0013482D02*
X0029953Y0013482D01*
X0029953Y0012484D02*
X0028953Y0012484D01*
X0028953Y0011485D02*
X0029953Y0011485D01*
X0029953Y0010487D02*
X0028953Y0010487D01*
X0028953Y0009488D02*
X0029953Y0009488D01*
X0029953Y0008490D02*
X0028953Y0008490D01*
X0028953Y0007491D02*
X0029953Y0007491D01*
X0033248Y0007491D02*
X0045408Y0007491D01*
X0044409Y0008490D02*
X0034894Y0008490D01*
X0036012Y0009488D02*
X0043411Y0009488D01*
X0042412Y0010487D02*
X0036832Y0010487D01*
X0037441Y0011485D02*
X0041414Y0011485D01*
X0040782Y0012484D02*
X0037886Y0012484D01*
X0038195Y0013482D02*
X0040600Y0013482D01*
X0025657Y0007491D02*
X0006400Y0007491D01*
X0005467Y0008490D02*
X0024011Y0008490D01*
X0022893Y0009488D02*
X0004927Y0009488D01*
X0004395Y0010487D02*
X0022073Y0010487D01*
X0021465Y0011485D02*
X0003863Y0011485D01*
X0003613Y0012484D02*
X0021020Y0012484D01*
X0020710Y0013482D02*
X0003382Y0013482D01*
X0003150Y0014481D02*
X0020520Y0014481D01*
X0012937Y0003497D02*
X0273896Y0003497D01*
X0050000Y0033452D02*
X0049000Y0033452D01*
X0049000Y0034451D02*
X0050000Y0034451D01*
X0050000Y0035449D02*
X0049000Y0035449D01*
X0046727Y0033452D02*
X0042033Y0033452D01*
X0043032Y0034451D02*
X0045790Y0034451D01*
X0045272Y0035449D02*
X0043512Y0035449D01*
X0043800Y0036448D02*
X0045031Y0036448D01*
D23*
X0048000Y0134500D03*
X0041000Y0134500D03*
X0041000Y0141500D03*
X0048000Y0141500D03*
X0048000Y0148500D03*
X0041000Y0148500D03*
X0041000Y0155500D03*
X0048000Y0155500D03*
X0055000Y0155500D03*
X0062000Y0155500D03*
X0062000Y0148500D03*
X0055000Y0148500D03*
X0055000Y0141500D03*
X0062000Y0141500D03*
X0062000Y0134500D03*
X0055000Y0134500D03*
X0086000Y0218000D03*
D24*
X0027000Y0175000D03*
D25*
X0026050Y0174950D01*
X0027100Y0174950D01*
M02*
