%
M48
M72
T01C0.01200
T02C0.04000
T03C0.04724
T04C0.05600
T05C0.11024
%
T01
X29000Y9109
X41500Y31609
X54000Y41609
X59000Y31609
X74000Y46609
X79000Y31609
X99000Y31609
X109000Y44109
X96500Y61609
X119000Y66609
X134000Y54109
X134000Y34109
X151500Y34109
X164472Y43400
X174000Y44109
X186500Y36609
X171500Y31609
X154000Y49109
X164000Y64109
X189000Y74109
X176500Y86609
X161500Y89109
X161500Y106609
X176500Y109109
X191500Y101609
X199000Y91609
X221500Y91609
X221500Y106609
X189000Y121609
X169000Y139109
X179000Y154109
X191500Y141609
X159000Y159109
X166500Y176609
X184000Y186609
X194000Y201609
X199000Y219109
X174000Y219109
X161500Y196609
X144000Y219109
X134000Y196609
X134000Y176609
X134000Y156609
X144000Y136609
X159000Y124109
X139000Y111609
X124000Y129109
X114000Y106609
X131500Y89109
X139000Y74109
X101500Y86609
X76500Y76609
X61500Y94109
X41500Y89109
X24000Y106609
X6500Y116609
X24000Y136609
X6500Y149109
X26500Y171609
X6500Y176609
X6500Y194109
X31500Y194109
X46500Y209109
X31500Y219109
X66500Y189109
X86500Y199109
X106500Y199109
X114000Y219109
X76500Y219109
X99000Y179109
X79000Y159109
X101500Y154109
X99000Y129109
X79000Y111609
X44000Y116609
X9000Y86609
X9000Y64109
X9000Y41609
X31500Y46609
X46500Y66609
X59787Y7928
X89394Y8321
X119787Y7928
X149531Y8321
X179925Y8715
X199787Y8321
X236756Y33183
X254000Y31609
X254000Y199109
X229000Y199109
X224000Y216609
X49000Y151609
T02
X61500Y134109
X71500Y134109
X81500Y134109
X81500Y124109
X71500Y124109
X61500Y124109
X146500Y146609
X146500Y156609
X146500Y166609
X181500Y64109
X191500Y64109
X191500Y54109
X181500Y54109
X181500Y44109
X191500Y44109
X194441Y24117
X204441Y24117
X214441Y24117
X224441Y24117
X224441Y14117
X214441Y14117
X204441Y14117
X194441Y14117
X184441Y14117
X174441Y14117
X164441Y14117
X154441Y14117
X144441Y14117
X134441Y14117
X124441Y14117
X114441Y14117
X104441Y14117
X94441Y14117
X84441Y14117
X74441Y14117
X64441Y14117
X54441Y14117
X44441Y14117
X34441Y14117
X34441Y24117
X44441Y24117
X54441Y24117
X64441Y24117
X74441Y24117
X84441Y24117
X94441Y24117
X104441Y24117
X114441Y24117
X124441Y24117
X134441Y24117
X144441Y24117
X154441Y24117
X164441Y24117
X174441Y24117
X184441Y24117
T03
X216815Y54109
X236500Y54109
T04
X206500Y184109
X186500Y195359
X206500Y207859
T05
X15673Y18282
X15673Y210408
X243232Y210408
X243232Y18282
M30
