G75*
%MOIN*%
%OFA0B0*%
%FSLAX25Y25*%
%IPPOS*%
%LPD*%
%AMOC8*
5,1,8,0,0,1.08239X$1,22.5*
%
%ADD10C,0.00000*%
%ADD11C,0.21000*%
%ADD12C,0.06000*%
%ADD13R,0.08600X0.08600*%
%ADD14R,0.10000X0.10000*%
%ADD15OC8,0.10000*%
%ADD16OC8,0.07400*%
%ADD17OC8,0.06000*%
%ADD18C,0.01000*%
%ADD19C,0.02000*%
%ADD20C,0.02400*%
%ADD21C,0.01600*%
D10*
X0015673Y0004109D02*
X0243232Y0004109D01*
X0243574Y0004113D01*
X0243917Y0004126D01*
X0244259Y0004146D01*
X0244600Y0004175D01*
X0244940Y0004212D01*
X0245280Y0004258D01*
X0245618Y0004311D01*
X0245955Y0004373D01*
X0246290Y0004443D01*
X0246624Y0004521D01*
X0246955Y0004607D01*
X0247285Y0004701D01*
X0247612Y0004803D01*
X0247936Y0004912D01*
X0248258Y0005030D01*
X0248577Y0005155D01*
X0248892Y0005288D01*
X0249205Y0005429D01*
X0249513Y0005577D01*
X0249819Y0005732D01*
X0250120Y0005895D01*
X0250417Y0006065D01*
X0250710Y0006242D01*
X0250999Y0006427D01*
X0251283Y0006618D01*
X0251563Y0006816D01*
X0251837Y0007020D01*
X0252107Y0007232D01*
X0252371Y0007449D01*
X0252630Y0007673D01*
X0252884Y0007904D01*
X0253132Y0008140D01*
X0253374Y0008382D01*
X0253610Y0008630D01*
X0253841Y0008884D01*
X0254065Y0009143D01*
X0254282Y0009407D01*
X0254494Y0009677D01*
X0254698Y0009951D01*
X0254896Y0010231D01*
X0255087Y0010515D01*
X0255272Y0010804D01*
X0255449Y0011097D01*
X0255619Y0011394D01*
X0255782Y0011695D01*
X0255937Y0012001D01*
X0256085Y0012309D01*
X0256226Y0012622D01*
X0256359Y0012937D01*
X0256484Y0013256D01*
X0256602Y0013578D01*
X0256711Y0013902D01*
X0256813Y0014229D01*
X0256907Y0014559D01*
X0256993Y0014890D01*
X0257071Y0015224D01*
X0257141Y0015559D01*
X0257203Y0015896D01*
X0257256Y0016234D01*
X0257302Y0016574D01*
X0257339Y0016914D01*
X0257368Y0017255D01*
X0257388Y0017597D01*
X0257401Y0017940D01*
X0257405Y0018282D01*
X0257406Y0018282D02*
X0257406Y0210408D01*
X0257405Y0210408D02*
X0257401Y0210750D01*
X0257388Y0211093D01*
X0257368Y0211435D01*
X0257339Y0211776D01*
X0257302Y0212116D01*
X0257256Y0212456D01*
X0257203Y0212794D01*
X0257141Y0213131D01*
X0257071Y0213466D01*
X0256993Y0213800D01*
X0256907Y0214131D01*
X0256813Y0214461D01*
X0256711Y0214788D01*
X0256602Y0215112D01*
X0256484Y0215434D01*
X0256359Y0215753D01*
X0256226Y0216068D01*
X0256085Y0216381D01*
X0255937Y0216689D01*
X0255782Y0216995D01*
X0255619Y0217296D01*
X0255449Y0217593D01*
X0255272Y0217886D01*
X0255087Y0218175D01*
X0254896Y0218459D01*
X0254698Y0218739D01*
X0254494Y0219013D01*
X0254282Y0219283D01*
X0254065Y0219547D01*
X0253841Y0219806D01*
X0253610Y0220060D01*
X0253374Y0220308D01*
X0253132Y0220550D01*
X0252884Y0220786D01*
X0252630Y0221017D01*
X0252371Y0221241D01*
X0252107Y0221458D01*
X0251837Y0221670D01*
X0251563Y0221874D01*
X0251283Y0222072D01*
X0250999Y0222263D01*
X0250710Y0222448D01*
X0250417Y0222625D01*
X0250120Y0222795D01*
X0249819Y0222958D01*
X0249513Y0223113D01*
X0249205Y0223261D01*
X0248892Y0223402D01*
X0248577Y0223535D01*
X0248258Y0223660D01*
X0247936Y0223778D01*
X0247612Y0223887D01*
X0247285Y0223989D01*
X0246955Y0224083D01*
X0246624Y0224169D01*
X0246290Y0224247D01*
X0245955Y0224317D01*
X0245618Y0224379D01*
X0245280Y0224432D01*
X0244940Y0224478D01*
X0244600Y0224515D01*
X0244259Y0224544D01*
X0243917Y0224564D01*
X0243574Y0224577D01*
X0243232Y0224581D01*
X0015673Y0224581D01*
X0015331Y0224577D01*
X0014988Y0224564D01*
X0014646Y0224544D01*
X0014305Y0224515D01*
X0013965Y0224478D01*
X0013625Y0224432D01*
X0013287Y0224379D01*
X0012950Y0224317D01*
X0012615Y0224247D01*
X0012281Y0224169D01*
X0011950Y0224083D01*
X0011620Y0223989D01*
X0011293Y0223887D01*
X0010969Y0223778D01*
X0010647Y0223660D01*
X0010328Y0223535D01*
X0010013Y0223402D01*
X0009700Y0223261D01*
X0009392Y0223113D01*
X0009086Y0222958D01*
X0008785Y0222795D01*
X0008488Y0222625D01*
X0008195Y0222448D01*
X0007906Y0222263D01*
X0007622Y0222072D01*
X0007342Y0221874D01*
X0007068Y0221670D01*
X0006798Y0221458D01*
X0006534Y0221241D01*
X0006275Y0221017D01*
X0006021Y0220786D01*
X0005773Y0220550D01*
X0005531Y0220308D01*
X0005295Y0220060D01*
X0005064Y0219806D01*
X0004840Y0219547D01*
X0004623Y0219283D01*
X0004411Y0219013D01*
X0004207Y0218739D01*
X0004009Y0218459D01*
X0003818Y0218175D01*
X0003633Y0217886D01*
X0003456Y0217593D01*
X0003286Y0217296D01*
X0003123Y0216995D01*
X0002968Y0216689D01*
X0002820Y0216381D01*
X0002679Y0216068D01*
X0002546Y0215753D01*
X0002421Y0215434D01*
X0002303Y0215112D01*
X0002194Y0214788D01*
X0002092Y0214461D01*
X0001998Y0214131D01*
X0001912Y0213800D01*
X0001834Y0213466D01*
X0001764Y0213131D01*
X0001702Y0212794D01*
X0001649Y0212456D01*
X0001603Y0212116D01*
X0001566Y0211776D01*
X0001537Y0211435D01*
X0001517Y0211093D01*
X0001504Y0210750D01*
X0001500Y0210408D01*
X0001500Y0018282D01*
X0001504Y0017940D01*
X0001517Y0017597D01*
X0001537Y0017255D01*
X0001566Y0016914D01*
X0001603Y0016574D01*
X0001649Y0016234D01*
X0001702Y0015896D01*
X0001764Y0015559D01*
X0001834Y0015224D01*
X0001912Y0014890D01*
X0001998Y0014559D01*
X0002092Y0014229D01*
X0002194Y0013902D01*
X0002303Y0013578D01*
X0002421Y0013256D01*
X0002546Y0012937D01*
X0002679Y0012622D01*
X0002820Y0012309D01*
X0002968Y0012001D01*
X0003123Y0011695D01*
X0003286Y0011394D01*
X0003456Y0011097D01*
X0003633Y0010804D01*
X0003818Y0010515D01*
X0004009Y0010231D01*
X0004207Y0009951D01*
X0004411Y0009677D01*
X0004623Y0009407D01*
X0004840Y0009143D01*
X0005064Y0008884D01*
X0005295Y0008630D01*
X0005531Y0008382D01*
X0005773Y0008140D01*
X0006021Y0007904D01*
X0006275Y0007673D01*
X0006534Y0007449D01*
X0006798Y0007232D01*
X0007068Y0007020D01*
X0007342Y0006816D01*
X0007622Y0006618D01*
X0007906Y0006427D01*
X0008195Y0006242D01*
X0008488Y0006065D01*
X0008785Y0005895D01*
X0009086Y0005732D01*
X0009392Y0005577D01*
X0009700Y0005429D01*
X0010013Y0005288D01*
X0010328Y0005155D01*
X0010647Y0005030D01*
X0010969Y0004912D01*
X0011293Y0004803D01*
X0011620Y0004701D01*
X0011950Y0004607D01*
X0012281Y0004521D01*
X0012615Y0004443D01*
X0012950Y0004373D01*
X0013287Y0004311D01*
X0013625Y0004258D01*
X0013965Y0004212D01*
X0014305Y0004175D01*
X0014646Y0004146D01*
X0014988Y0004126D01*
X0015331Y0004113D01*
X0015673Y0004109D01*
D11*
X0015673Y0018282D03*
X0015673Y0210408D03*
X0243232Y0210408D03*
X0243232Y0018282D03*
D12*
X0149500Y0146609D02*
X0143500Y0146609D01*
X0143500Y0156609D02*
X0149500Y0156609D01*
X0149500Y0166609D02*
X0143500Y0166609D01*
D13*
X0216815Y0054109D03*
X0236500Y0054109D03*
D14*
X0206500Y0184109D03*
D15*
X0186500Y0195359D03*
X0206500Y0207859D03*
D16*
X0204441Y0024117D03*
X0194441Y0024117D03*
X0184441Y0024117D03*
X0174441Y0024117D03*
X0164441Y0024117D03*
X0154441Y0024117D03*
X0144441Y0024117D03*
X0134441Y0024117D03*
X0124441Y0024117D03*
X0114441Y0024117D03*
X0104441Y0024117D03*
X0094441Y0024117D03*
X0084441Y0024117D03*
X0074441Y0024117D03*
X0064441Y0024117D03*
X0054441Y0024117D03*
X0044441Y0024117D03*
X0034441Y0024117D03*
X0034441Y0014117D03*
X0044441Y0014117D03*
X0054441Y0014117D03*
X0064441Y0014117D03*
X0074441Y0014117D03*
X0084441Y0014117D03*
X0094441Y0014117D03*
X0104441Y0014117D03*
X0114441Y0014117D03*
X0124441Y0014117D03*
X0134441Y0014117D03*
X0144441Y0014117D03*
X0154441Y0014117D03*
X0164441Y0014117D03*
X0174441Y0014117D03*
X0184441Y0014117D03*
X0194441Y0014117D03*
X0204441Y0014117D03*
X0214441Y0014117D03*
X0224441Y0014117D03*
X0224441Y0024117D03*
X0214441Y0024117D03*
D17*
X0191500Y0044109D03*
X0181500Y0044109D03*
X0181500Y0054109D03*
X0191500Y0054109D03*
X0191500Y0064109D03*
X0181500Y0064109D03*
X0081500Y0124109D03*
X0071500Y0124109D03*
X0061500Y0124109D03*
X0061500Y0134109D03*
X0071500Y0134109D03*
X0081500Y0134109D03*
D18*
X0005619Y0010567D02*
X0007958Y0008228D01*
X0010823Y0006573D01*
X0014019Y0005717D01*
X0015673Y0005609D01*
X0208219Y0005609D01*
X0208219Y0010541D01*
X0206595Y0008917D01*
X0204941Y0008917D01*
X0204941Y0013616D01*
X0203941Y0013616D01*
X0203941Y0008917D01*
X0202287Y0008917D01*
X0199300Y0011904D01*
X0196512Y0009117D01*
X0192370Y0009117D01*
X0189441Y0012045D01*
X0189441Y0016188D01*
X0192370Y0019117D01*
X0196512Y0019117D01*
X0199441Y0022045D01*
X0202228Y0019258D01*
X0199300Y0016329D01*
X0196512Y0019117D01*
X0192370Y0019117D01*
X0189582Y0021904D01*
X0186653Y0018975D01*
X0189441Y0016188D01*
X0189441Y0012045D01*
X0186512Y0009117D01*
X0182370Y0009117D01*
X0179441Y0012045D01*
X0179441Y0016188D01*
X0176512Y0019117D01*
X0179300Y0021904D01*
X0182228Y0018975D01*
X0179441Y0016188D01*
X0179441Y0012045D01*
X0176512Y0009117D01*
X0172370Y0009117D01*
X0169582Y0011904D01*
X0166595Y0008917D01*
X0164941Y0008917D01*
X0164941Y0013616D01*
X0163941Y0013616D01*
X0163941Y0008917D01*
X0162287Y0008917D01*
X0159300Y0011904D01*
X0156512Y0009117D01*
X0152370Y0009117D01*
X0149441Y0012045D01*
X0149441Y0016188D01*
X0152370Y0019117D01*
X0156512Y0019117D01*
X0159441Y0022045D01*
X0159441Y0026188D01*
X0156512Y0029117D01*
X0152370Y0029117D01*
X0149441Y0026188D01*
X0149441Y0022045D01*
X0152370Y0019117D01*
X0156512Y0019117D01*
X0159300Y0016329D01*
X0162228Y0019258D01*
X0159441Y0022045D01*
X0159441Y0026188D01*
X0162370Y0029117D01*
X0166512Y0029117D01*
X0169441Y0026188D01*
X0169441Y0022045D01*
X0166653Y0019258D01*
X0169582Y0016329D01*
X0172370Y0019117D01*
X0176512Y0019117D01*
X0172370Y0019117D01*
X0169441Y0022045D01*
X0169441Y0026188D01*
X0172370Y0029117D01*
X0176512Y0029117D01*
X0179300Y0026329D01*
X0182079Y0029109D01*
X0178503Y0029109D01*
X0177584Y0029489D01*
X0176881Y0030193D01*
X0176881Y0030193D01*
X0167584Y0039489D01*
X0166881Y0040193D01*
X0166500Y0041111D01*
X0166500Y0123073D01*
X0147264Y0142309D01*
X0142645Y0142309D01*
X0141064Y0142963D01*
X0139855Y0144173D01*
X0139200Y0145753D01*
X0139200Y0147464D01*
X0139855Y0149044D01*
X0141064Y0150254D01*
X0142645Y0150909D01*
X0150355Y0150909D01*
X0151936Y0150254D01*
X0153145Y0149044D01*
X0153800Y0147464D01*
X0153800Y0145753D01*
X0153145Y0144173D01*
X0152808Y0143836D01*
X0170416Y0126228D01*
X0171119Y0125525D01*
X0171500Y0124606D01*
X0171500Y0042644D01*
X0180036Y0034109D01*
X0209318Y0034109D01*
X0209449Y0034240D01*
X0232370Y0034240D01*
X0233600Y0033010D01*
X0233600Y0025450D01*
X0234270Y0026291D01*
X0235224Y0027244D01*
X0236277Y0028084D01*
X0237419Y0028801D01*
X0238633Y0029386D01*
X0239905Y0029831D01*
X0241219Y0030131D01*
X0242558Y0030282D01*
X0242732Y0030282D01*
X0242732Y0018782D01*
X0243732Y0018782D01*
X0243732Y0030282D01*
X0243906Y0030282D01*
X0245246Y0030131D01*
X0246560Y0029831D01*
X0247832Y0029386D01*
X0249046Y0028801D01*
X0250187Y0028084D01*
X0251241Y0027244D01*
X0252194Y0026291D01*
X0253034Y0025237D01*
X0253752Y0024096D01*
X0254336Y0022881D01*
X0254781Y0021609D01*
X0255081Y0020295D01*
X0255232Y0018956D01*
X0255232Y0018782D01*
X0243732Y0018782D01*
X0243732Y0017782D01*
X0243732Y0006282D01*
X0243906Y0006282D01*
X0245246Y0006433D01*
X0246560Y0006733D01*
X0247832Y0007178D01*
X0249046Y0007763D01*
X0250187Y0008480D01*
X0251241Y0009320D01*
X0252194Y0010273D01*
X0253034Y0011327D01*
X0253752Y0012468D01*
X0254336Y0013682D01*
X0254781Y0014955D01*
X0255081Y0016269D01*
X0255232Y0017608D01*
X0255232Y0017782D01*
X0243732Y0017782D01*
X0242732Y0017782D01*
X0242732Y0006282D01*
X0242558Y0006282D01*
X0241219Y0006433D01*
X0239905Y0006733D01*
X0238633Y0007178D01*
X0237419Y0007763D01*
X0236277Y0008480D01*
X0235224Y0009320D01*
X0234270Y0010273D01*
X0233600Y0011114D01*
X0233600Y0005609D01*
X0243232Y0005609D01*
X0244886Y0005717D01*
X0248082Y0006573D01*
X0250947Y0008228D01*
X0253287Y0010567D01*
X0254941Y0013432D01*
X0255797Y0016628D01*
X0255906Y0018282D01*
X0255906Y0133636D01*
X0198744Y0133636D01*
X0198744Y0154896D01*
X0255906Y0154896D01*
X0255906Y0210408D01*
X0255797Y0212062D01*
X0254941Y0215258D01*
X0253287Y0218123D01*
X0250947Y0220462D01*
X0248082Y0222116D01*
X0244886Y0222973D01*
X0243232Y0223081D01*
X0015673Y0223081D01*
X0014019Y0222973D01*
X0010823Y0222116D01*
X0007958Y0220462D01*
X0005619Y0218123D01*
X0003965Y0215258D01*
X0003108Y0212062D01*
X0003108Y0212062D01*
X0003000Y0210408D01*
X0003000Y0018282D01*
X0003108Y0016628D01*
X0003965Y0013432D01*
X0005619Y0010567D01*
X0005312Y0011098D02*
X0006053Y0011098D01*
X0005871Y0011327D02*
X0006711Y0010273D01*
X0007664Y0009320D01*
X0008718Y0008480D01*
X0009859Y0007763D01*
X0011074Y0007178D01*
X0012346Y0006733D01*
X0013660Y0006433D01*
X0014999Y0006282D01*
X0015173Y0006282D01*
X0015173Y0017782D01*
X0003673Y0017782D01*
X0003673Y0017608D01*
X0003824Y0016269D01*
X0004124Y0014955D01*
X0004569Y0013682D01*
X0005154Y0012468D01*
X0005871Y0011327D01*
X0005387Y0012097D02*
X0004736Y0012097D01*
X0004852Y0013095D02*
X0004159Y0013095D01*
X0004425Y0014094D02*
X0003787Y0014094D01*
X0003520Y0015092D02*
X0004093Y0015092D01*
X0003865Y0016091D02*
X0003252Y0016091D01*
X0003078Y0017089D02*
X0003732Y0017089D01*
X0003013Y0018088D02*
X0015173Y0018088D01*
X0015173Y0017782D02*
X0015173Y0018782D01*
X0003673Y0018782D01*
X0003673Y0018956D01*
X0003824Y0020295D01*
X0004124Y0021609D01*
X0004569Y0022881D01*
X0005154Y0024096D01*
X0005871Y0025237D01*
X0006711Y0026291D01*
X0007664Y0027244D01*
X0008718Y0028084D01*
X0009859Y0028801D01*
X0011074Y0029386D01*
X0012346Y0029831D01*
X0013660Y0030131D01*
X0014999Y0030282D01*
X0015173Y0030282D01*
X0015173Y0018782D01*
X0016173Y0018782D01*
X0016173Y0030282D01*
X0016347Y0030282D01*
X0017686Y0030131D01*
X0019000Y0029831D01*
X0020273Y0029386D01*
X0021487Y0028801D01*
X0022628Y0028084D01*
X0023682Y0027244D01*
X0024635Y0026291D01*
X0025475Y0025237D01*
X0026192Y0024096D01*
X0026777Y0022881D01*
X0027222Y0021609D01*
X0027522Y0020295D01*
X0027673Y0018956D01*
X0027673Y0018782D01*
X0016173Y0018782D01*
X0016173Y0017782D01*
X0016173Y0006282D01*
X0016347Y0006282D01*
X0017686Y0006433D01*
X0019000Y0006733D01*
X0020273Y0007178D01*
X0021487Y0007763D01*
X0022628Y0008480D01*
X0023682Y0009320D01*
X0024635Y0010273D01*
X0025475Y0011327D01*
X0026192Y0012468D01*
X0026777Y0013682D01*
X0027222Y0014955D01*
X0027522Y0016269D01*
X0027673Y0017608D01*
X0027673Y0017782D01*
X0016173Y0017782D01*
X0015173Y0017782D01*
X0015173Y0017089D02*
X0016173Y0017089D01*
X0016173Y0016091D02*
X0015173Y0016091D01*
X0015173Y0015092D02*
X0016173Y0015092D01*
X0016173Y0014094D02*
X0015173Y0014094D01*
X0015173Y0013095D02*
X0016173Y0013095D01*
X0016173Y0012097D02*
X0015173Y0012097D01*
X0015173Y0011098D02*
X0016173Y0011098D01*
X0016173Y0010100D02*
X0015173Y0010100D01*
X0015173Y0009101D02*
X0016173Y0009101D01*
X0016173Y0008103D02*
X0015173Y0008103D01*
X0015173Y0007104D02*
X0016173Y0007104D01*
X0020062Y0007104D02*
X0208219Y0007104D01*
X0208219Y0006106D02*
X0012569Y0006106D01*
X0011284Y0007104D02*
X0009904Y0007104D01*
X0009318Y0008103D02*
X0008174Y0008103D01*
X0007939Y0009101D02*
X0007085Y0009101D01*
X0006885Y0010100D02*
X0006086Y0010100D01*
X0003688Y0019086D02*
X0003000Y0019086D01*
X0003000Y0020085D02*
X0003800Y0020085D01*
X0004004Y0021083D02*
X0003000Y0021083D01*
X0003000Y0022082D02*
X0004289Y0022082D01*
X0004665Y0023080D02*
X0003000Y0023080D01*
X0003000Y0024079D02*
X0005146Y0024079D01*
X0005771Y0025077D02*
X0003000Y0025077D01*
X0003000Y0026076D02*
X0006540Y0026076D01*
X0007495Y0027074D02*
X0003000Y0027074D01*
X0003000Y0028073D02*
X0008704Y0028073D01*
X0010421Y0029071D02*
X0003000Y0029071D01*
X0003000Y0030070D02*
X0013393Y0030070D01*
X0015173Y0030070D02*
X0016173Y0030070D01*
X0016173Y0029071D02*
X0015173Y0029071D01*
X0015173Y0028073D02*
X0016173Y0028073D01*
X0016173Y0027074D02*
X0015173Y0027074D01*
X0015173Y0026076D02*
X0016173Y0026076D01*
X0016173Y0025077D02*
X0015173Y0025077D01*
X0015173Y0024079D02*
X0016173Y0024079D01*
X0016173Y0023080D02*
X0015173Y0023080D01*
X0015173Y0022082D02*
X0016173Y0022082D01*
X0016173Y0021083D02*
X0015173Y0021083D01*
X0015173Y0020085D02*
X0016173Y0020085D01*
X0016173Y0019086D02*
X0015173Y0019086D01*
X0016173Y0018088D02*
X0031341Y0018088D01*
X0032228Y0018975D02*
X0029441Y0016188D01*
X0029441Y0012045D01*
X0032370Y0009117D01*
X0036512Y0009117D01*
X0039441Y0012045D01*
X0042370Y0009117D01*
X0046512Y0009117D01*
X0049441Y0012045D01*
X0052370Y0009117D01*
X0056512Y0009117D01*
X0059300Y0011904D01*
X0062287Y0008917D01*
X0063941Y0008917D01*
X0063941Y0013616D01*
X0064941Y0013616D01*
X0064941Y0008917D01*
X0066595Y0008917D01*
X0069582Y0011904D01*
X0072370Y0009117D01*
X0076512Y0009117D01*
X0079300Y0011904D01*
X0082287Y0008917D01*
X0083941Y0008917D01*
X0083941Y0013616D01*
X0084941Y0013616D01*
X0084941Y0008917D01*
X0086595Y0008917D01*
X0089582Y0011904D01*
X0092370Y0009117D01*
X0096512Y0009117D01*
X0099441Y0012045D01*
X0102370Y0009117D01*
X0106512Y0009117D01*
X0109441Y0012045D01*
X0112370Y0009117D01*
X0116512Y0009117D01*
X0119441Y0012045D01*
X0122370Y0009117D01*
X0126512Y0009117D01*
X0129300Y0011904D01*
X0132287Y0008917D01*
X0133941Y0008917D01*
X0133941Y0013616D01*
X0134941Y0013616D01*
X0134941Y0008917D01*
X0136595Y0008917D01*
X0139582Y0011904D01*
X0142370Y0009117D01*
X0146512Y0009117D01*
X0149441Y0012045D01*
X0149441Y0016188D01*
X0146512Y0019117D01*
X0149441Y0022045D01*
X0149441Y0026188D01*
X0146941Y0028688D01*
X0146941Y0061665D01*
X0146560Y0062584D01*
X0145857Y0063287D01*
X0085800Y0123344D01*
X0085800Y0125890D01*
X0084000Y0127690D01*
X0084000Y0130528D01*
X0085800Y0132328D01*
X0085800Y0135890D01*
X0083281Y0138409D01*
X0079719Y0138409D01*
X0077200Y0135890D01*
X0077200Y0132328D01*
X0079000Y0130528D01*
X0079000Y0127690D01*
X0077200Y0125890D01*
X0077200Y0122328D01*
X0079719Y0119809D01*
X0082264Y0119809D01*
X0141941Y0060132D01*
X0141941Y0028688D01*
X0139441Y0026188D01*
X0139441Y0022045D01*
X0142370Y0019117D01*
X0146512Y0019117D01*
X0142370Y0019117D01*
X0139582Y0016329D01*
X0136653Y0019258D01*
X0139441Y0022045D01*
X0139441Y0026188D01*
X0136512Y0029117D01*
X0132370Y0029117D01*
X0129441Y0026188D01*
X0126512Y0029117D01*
X0122370Y0029117D01*
X0119441Y0026188D01*
X0119441Y0022045D01*
X0122370Y0019117D01*
X0126512Y0019117D01*
X0129441Y0022045D01*
X0129441Y0026188D01*
X0129441Y0022045D01*
X0132228Y0019258D01*
X0129300Y0016329D01*
X0126512Y0019117D01*
X0122370Y0019117D01*
X0119441Y0016188D01*
X0119441Y0012045D01*
X0119441Y0016188D01*
X0116512Y0019117D01*
X0119441Y0022045D01*
X0119441Y0026188D01*
X0116512Y0029117D01*
X0112370Y0029117D01*
X0109582Y0026329D01*
X0106595Y0029317D01*
X0104941Y0029317D01*
X0104941Y0024617D01*
X0103941Y0024617D01*
X0103941Y0029317D01*
X0102287Y0029317D01*
X0099300Y0026329D01*
X0096512Y0029117D01*
X0092370Y0029117D01*
X0089441Y0026188D01*
X0089441Y0022045D01*
X0092370Y0019117D01*
X0096512Y0019117D01*
X0099300Y0021904D01*
X0102228Y0018975D01*
X0099441Y0016188D01*
X0099441Y0012045D01*
X0099441Y0016188D01*
X0096512Y0019117D01*
X0092370Y0019117D01*
X0089582Y0016329D01*
X0086653Y0019258D01*
X0089441Y0022045D01*
X0089441Y0026188D01*
X0086512Y0029117D01*
X0082370Y0029117D01*
X0079441Y0026188D01*
X0076512Y0029117D01*
X0072370Y0029117D01*
X0069441Y0026188D01*
X0069441Y0022045D01*
X0072370Y0019117D01*
X0076512Y0019117D01*
X0079441Y0022045D01*
X0079441Y0026188D01*
X0079441Y0022045D01*
X0082228Y0019258D01*
X0079300Y0016329D01*
X0076512Y0019117D01*
X0072370Y0019117D01*
X0069582Y0016329D01*
X0066653Y0019258D01*
X0069441Y0022045D01*
X0069441Y0026188D01*
X0066512Y0029117D01*
X0062370Y0029117D01*
X0059441Y0026188D01*
X0056512Y0029117D01*
X0052370Y0029117D01*
X0049441Y0026188D01*
X0049441Y0022045D01*
X0052370Y0019117D01*
X0056512Y0019117D01*
X0059441Y0022045D01*
X0059441Y0026188D01*
X0059441Y0022045D01*
X0062228Y0019258D01*
X0059300Y0016329D01*
X0056512Y0019117D01*
X0052370Y0019117D01*
X0049441Y0016188D01*
X0049441Y0012045D01*
X0049441Y0016188D01*
X0046512Y0019117D01*
X0049441Y0022045D01*
X0049441Y0026188D01*
X0046512Y0029117D01*
X0042370Y0029117D01*
X0039582Y0026329D01*
X0036595Y0029317D01*
X0034941Y0029317D01*
X0034941Y0024617D01*
X0033941Y0024617D01*
X0033941Y0029317D01*
X0032287Y0029317D01*
X0029241Y0026270D01*
X0029241Y0024617D01*
X0033941Y0024617D01*
X0033941Y0023617D01*
X0029241Y0023617D01*
X0029241Y0021963D01*
X0032228Y0018975D01*
X0032117Y0019086D02*
X0027659Y0019086D01*
X0027546Y0020085D02*
X0031119Y0020085D01*
X0030120Y0021083D02*
X0027342Y0021083D01*
X0027057Y0022082D02*
X0029241Y0022082D01*
X0029241Y0023080D02*
X0026681Y0023080D01*
X0026201Y0024079D02*
X0033941Y0024079D01*
X0034441Y0024117D02*
X0029008Y0024117D01*
X0029000Y0024109D01*
X0029000Y0009109D01*
X0030388Y0011098D02*
X0025293Y0011098D01*
X0025959Y0012097D02*
X0029441Y0012097D01*
X0029441Y0013095D02*
X0026494Y0013095D01*
X0026921Y0014094D02*
X0029441Y0014094D01*
X0029441Y0015092D02*
X0027254Y0015092D01*
X0027482Y0016091D02*
X0029441Y0016091D01*
X0030343Y0017089D02*
X0027615Y0017089D01*
X0024462Y0010100D02*
X0031387Y0010100D01*
X0037495Y0010100D02*
X0041387Y0010100D01*
X0040388Y0011098D02*
X0038494Y0011098D01*
X0039441Y0012045D02*
X0039441Y0016188D01*
X0039441Y0012045D01*
X0039441Y0012097D02*
X0039441Y0012097D01*
X0039441Y0013095D02*
X0039441Y0013095D01*
X0039441Y0014094D02*
X0039441Y0014094D01*
X0039441Y0015092D02*
X0039441Y0015092D01*
X0039441Y0016091D02*
X0039441Y0016091D01*
X0039441Y0016188D02*
X0042370Y0019117D01*
X0046512Y0019117D01*
X0042370Y0019117D01*
X0039582Y0021904D01*
X0036653Y0018975D01*
X0039441Y0016188D01*
X0038539Y0017089D02*
X0040343Y0017089D01*
X0041341Y0018088D02*
X0037541Y0018088D01*
X0036765Y0019086D02*
X0042340Y0019086D01*
X0041402Y0020085D02*
X0037763Y0020085D01*
X0038762Y0021083D02*
X0040403Y0021083D01*
X0046542Y0019086D02*
X0052340Y0019086D01*
X0051402Y0020085D02*
X0047480Y0020085D01*
X0048479Y0021083D02*
X0050403Y0021083D01*
X0049441Y0022082D02*
X0049441Y0022082D01*
X0049441Y0023080D02*
X0049441Y0023080D01*
X0049441Y0024079D02*
X0049441Y0024079D01*
X0049441Y0025077D02*
X0049441Y0025077D01*
X0049441Y0026076D02*
X0049441Y0026076D01*
X0048554Y0027074D02*
X0050328Y0027074D01*
X0051326Y0028073D02*
X0047556Y0028073D01*
X0046557Y0029071D02*
X0052325Y0029071D01*
X0056557Y0029071D02*
X0062325Y0029071D01*
X0061326Y0028073D02*
X0057556Y0028073D01*
X0058554Y0027074D02*
X0060328Y0027074D01*
X0059441Y0026076D02*
X0059441Y0026076D01*
X0059441Y0025077D02*
X0059441Y0025077D01*
X0059441Y0024079D02*
X0059441Y0024079D01*
X0059441Y0023080D02*
X0059441Y0023080D01*
X0059441Y0022082D02*
X0059441Y0022082D01*
X0058479Y0021083D02*
X0060403Y0021083D01*
X0061402Y0020085D02*
X0057480Y0020085D01*
X0056542Y0019086D02*
X0062057Y0019086D01*
X0061058Y0018088D02*
X0057541Y0018088D01*
X0058539Y0017089D02*
X0060060Y0017089D01*
X0063941Y0013095D02*
X0064941Y0013095D01*
X0064941Y0012097D02*
X0063941Y0012097D01*
X0063941Y0011098D02*
X0064941Y0011098D01*
X0064941Y0010100D02*
X0063941Y0010100D01*
X0063941Y0009101D02*
X0064941Y0009101D01*
X0066780Y0009101D02*
X0082102Y0009101D01*
X0081104Y0010100D02*
X0077495Y0010100D01*
X0078494Y0011098D02*
X0080105Y0011098D01*
X0083941Y0011098D02*
X0084941Y0011098D01*
X0084941Y0010100D02*
X0083941Y0010100D01*
X0083941Y0009101D02*
X0084941Y0009101D01*
X0086780Y0009101D02*
X0132102Y0009101D01*
X0131104Y0010100D02*
X0127495Y0010100D01*
X0128494Y0011098D02*
X0130105Y0011098D01*
X0133941Y0011098D02*
X0134941Y0011098D01*
X0134941Y0010100D02*
X0133941Y0010100D01*
X0133941Y0009101D02*
X0134941Y0009101D01*
X0136780Y0009101D02*
X0162102Y0009101D01*
X0161104Y0010100D02*
X0157495Y0010100D01*
X0158494Y0011098D02*
X0160105Y0011098D01*
X0163941Y0011098D02*
X0164941Y0011098D01*
X0164941Y0010100D02*
X0163941Y0010100D01*
X0163941Y0009101D02*
X0164941Y0009101D01*
X0166780Y0009101D02*
X0202102Y0009101D01*
X0201104Y0010100D02*
X0197495Y0010100D01*
X0198494Y0011098D02*
X0200105Y0011098D01*
X0203941Y0011098D02*
X0204941Y0011098D01*
X0204941Y0010100D02*
X0203941Y0010100D01*
X0203941Y0009101D02*
X0204941Y0009101D01*
X0206780Y0009101D02*
X0208219Y0009101D01*
X0208219Y0008103D02*
X0022028Y0008103D01*
X0023408Y0009101D02*
X0062102Y0009101D01*
X0061104Y0010100D02*
X0057495Y0010100D01*
X0058494Y0011098D02*
X0060105Y0011098D01*
X0067778Y0010100D02*
X0071387Y0010100D01*
X0070388Y0011098D02*
X0068777Y0011098D01*
X0068822Y0017089D02*
X0070343Y0017089D01*
X0071341Y0018088D02*
X0067824Y0018088D01*
X0066825Y0019086D02*
X0072340Y0019086D01*
X0071402Y0020085D02*
X0067480Y0020085D01*
X0068479Y0021083D02*
X0070403Y0021083D01*
X0069441Y0022082D02*
X0069441Y0022082D01*
X0069441Y0023080D02*
X0069441Y0023080D01*
X0069441Y0024079D02*
X0069441Y0024079D01*
X0069441Y0025077D02*
X0069441Y0025077D01*
X0069441Y0026076D02*
X0069441Y0026076D01*
X0068554Y0027074D02*
X0070328Y0027074D01*
X0071326Y0028073D02*
X0067556Y0028073D01*
X0066557Y0029071D02*
X0072325Y0029071D01*
X0076557Y0029071D02*
X0082325Y0029071D01*
X0081326Y0028073D02*
X0077556Y0028073D01*
X0078554Y0027074D02*
X0080328Y0027074D01*
X0079441Y0026076D02*
X0079441Y0026076D01*
X0079441Y0025077D02*
X0079441Y0025077D01*
X0079441Y0024079D02*
X0079441Y0024079D01*
X0079441Y0023080D02*
X0079441Y0023080D01*
X0079441Y0022082D02*
X0079441Y0022082D01*
X0078479Y0021083D02*
X0080403Y0021083D01*
X0081402Y0020085D02*
X0077480Y0020085D01*
X0076542Y0019086D02*
X0082057Y0019086D01*
X0081058Y0018088D02*
X0077541Y0018088D01*
X0078539Y0017089D02*
X0080060Y0017089D01*
X0083941Y0013095D02*
X0084941Y0013095D01*
X0084941Y0012097D02*
X0083941Y0012097D01*
X0087778Y0010100D02*
X0091387Y0010100D01*
X0090388Y0011098D02*
X0088777Y0011098D01*
X0088822Y0017089D02*
X0090343Y0017089D01*
X0091341Y0018088D02*
X0087824Y0018088D01*
X0086825Y0019086D02*
X0092340Y0019086D01*
X0091402Y0020085D02*
X0087480Y0020085D01*
X0088479Y0021083D02*
X0090403Y0021083D01*
X0089441Y0022082D02*
X0089441Y0022082D01*
X0089441Y0023080D02*
X0089441Y0023080D01*
X0089441Y0024079D02*
X0089441Y0024079D01*
X0089441Y0025077D02*
X0089441Y0025077D01*
X0089441Y0026076D02*
X0089441Y0026076D01*
X0088554Y0027074D02*
X0090328Y0027074D01*
X0091326Y0028073D02*
X0087556Y0028073D01*
X0086557Y0029071D02*
X0092325Y0029071D01*
X0096557Y0029071D02*
X0102042Y0029071D01*
X0101043Y0028073D02*
X0097556Y0028073D01*
X0098554Y0027074D02*
X0100045Y0027074D01*
X0103941Y0027074D02*
X0104941Y0027074D01*
X0104941Y0026076D02*
X0103941Y0026076D01*
X0103941Y0025077D02*
X0104941Y0025077D01*
X0104941Y0028073D02*
X0103941Y0028073D01*
X0103941Y0029071D02*
X0104941Y0029071D01*
X0106840Y0029071D02*
X0112325Y0029071D01*
X0111326Y0028073D02*
X0107838Y0028073D01*
X0108837Y0027074D02*
X0110328Y0027074D01*
X0109582Y0021904D02*
X0112370Y0019117D01*
X0116512Y0019117D01*
X0112370Y0019117D01*
X0109441Y0016188D01*
X0109441Y0012045D01*
X0109441Y0016188D01*
X0106653Y0018975D01*
X0109582Y0021904D01*
X0108762Y0021083D02*
X0110403Y0021083D01*
X0111402Y0020085D02*
X0107763Y0020085D01*
X0106765Y0019086D02*
X0112340Y0019086D01*
X0111341Y0018088D02*
X0107541Y0018088D01*
X0108539Y0017089D02*
X0110343Y0017089D01*
X0109441Y0016091D02*
X0109441Y0016091D01*
X0109441Y0015092D02*
X0109441Y0015092D01*
X0109441Y0014094D02*
X0109441Y0014094D01*
X0109441Y0013095D02*
X0109441Y0013095D01*
X0109441Y0012097D02*
X0109441Y0012097D01*
X0108494Y0011098D02*
X0110388Y0011098D01*
X0111387Y0010100D02*
X0107495Y0010100D01*
X0101387Y0010100D02*
X0097495Y0010100D01*
X0098494Y0011098D02*
X0100388Y0011098D01*
X0099441Y0012097D02*
X0099441Y0012097D01*
X0099441Y0013095D02*
X0099441Y0013095D01*
X0099441Y0014094D02*
X0099441Y0014094D01*
X0099441Y0015092D02*
X0099441Y0015092D01*
X0099441Y0016091D02*
X0099441Y0016091D01*
X0098539Y0017089D02*
X0100343Y0017089D01*
X0101341Y0018088D02*
X0097541Y0018088D01*
X0096542Y0019086D02*
X0102117Y0019086D01*
X0101119Y0020085D02*
X0097480Y0020085D01*
X0098479Y0021083D02*
X0100120Y0021083D01*
X0116542Y0019086D02*
X0122340Y0019086D01*
X0121402Y0020085D02*
X0117480Y0020085D01*
X0118479Y0021083D02*
X0120403Y0021083D01*
X0119441Y0022082D02*
X0119441Y0022082D01*
X0119441Y0023080D02*
X0119441Y0023080D01*
X0119441Y0024079D02*
X0119441Y0024079D01*
X0119441Y0025077D02*
X0119441Y0025077D01*
X0119441Y0026076D02*
X0119441Y0026076D01*
X0118554Y0027074D02*
X0120328Y0027074D01*
X0121326Y0028073D02*
X0117556Y0028073D01*
X0116557Y0029071D02*
X0122325Y0029071D01*
X0126557Y0029071D02*
X0132325Y0029071D01*
X0131326Y0028073D02*
X0127556Y0028073D01*
X0128554Y0027074D02*
X0130328Y0027074D01*
X0129441Y0026076D02*
X0129441Y0026076D01*
X0129441Y0025077D02*
X0129441Y0025077D01*
X0129441Y0024079D02*
X0129441Y0024079D01*
X0129441Y0023080D02*
X0129441Y0023080D01*
X0129441Y0022082D02*
X0129441Y0022082D01*
X0128479Y0021083D02*
X0130403Y0021083D01*
X0131402Y0020085D02*
X0127480Y0020085D01*
X0126542Y0019086D02*
X0132057Y0019086D01*
X0131058Y0018088D02*
X0127541Y0018088D01*
X0128539Y0017089D02*
X0130060Y0017089D01*
X0133941Y0013095D02*
X0134941Y0013095D01*
X0134941Y0012097D02*
X0133941Y0012097D01*
X0137778Y0010100D02*
X0141387Y0010100D01*
X0140388Y0011098D02*
X0138777Y0011098D01*
X0138822Y0017089D02*
X0140343Y0017089D01*
X0141341Y0018088D02*
X0137824Y0018088D01*
X0136825Y0019086D02*
X0142340Y0019086D01*
X0141402Y0020085D02*
X0137480Y0020085D01*
X0138479Y0021083D02*
X0140403Y0021083D01*
X0139441Y0022082D02*
X0139441Y0022082D01*
X0139441Y0023080D02*
X0139441Y0023080D01*
X0139441Y0024079D02*
X0139441Y0024079D01*
X0139441Y0025077D02*
X0139441Y0025077D01*
X0139441Y0026076D02*
X0139441Y0026076D01*
X0138554Y0027074D02*
X0140328Y0027074D01*
X0141326Y0028073D02*
X0137556Y0028073D01*
X0136557Y0029071D02*
X0141941Y0029071D01*
X0141941Y0030070D02*
X0017954Y0030070D01*
X0020926Y0029071D02*
X0032042Y0029071D01*
X0031043Y0028073D02*
X0022642Y0028073D01*
X0023851Y0027074D02*
X0030045Y0027074D01*
X0029241Y0026076D02*
X0024806Y0026076D01*
X0025576Y0025077D02*
X0029241Y0025077D01*
X0033941Y0025077D02*
X0034941Y0025077D01*
X0034941Y0026076D02*
X0033941Y0026076D01*
X0033941Y0027074D02*
X0034941Y0027074D01*
X0034941Y0028073D02*
X0033941Y0028073D01*
X0033941Y0029071D02*
X0034941Y0029071D01*
X0036840Y0029071D02*
X0042325Y0029071D01*
X0041326Y0028073D02*
X0037838Y0028073D01*
X0038837Y0027074D02*
X0040328Y0027074D01*
X0047541Y0018088D02*
X0051341Y0018088D01*
X0050343Y0017089D02*
X0048539Y0017089D01*
X0049441Y0016091D02*
X0049441Y0016091D01*
X0049441Y0015092D02*
X0049441Y0015092D01*
X0049441Y0014094D02*
X0049441Y0014094D01*
X0049441Y0013095D02*
X0049441Y0013095D01*
X0049441Y0012097D02*
X0049441Y0012097D01*
X0048494Y0011098D02*
X0050388Y0011098D01*
X0051387Y0010100D02*
X0047495Y0010100D01*
X0003000Y0031068D02*
X0141941Y0031068D01*
X0141941Y0032067D02*
X0003000Y0032067D01*
X0003000Y0033065D02*
X0141941Y0033065D01*
X0141941Y0034064D02*
X0003000Y0034064D01*
X0003000Y0035063D02*
X0141941Y0035063D01*
X0141941Y0036061D02*
X0003000Y0036061D01*
X0003000Y0037060D02*
X0141941Y0037060D01*
X0141941Y0038058D02*
X0003000Y0038058D01*
X0003000Y0039057D02*
X0141941Y0039057D01*
X0141941Y0040055D02*
X0003000Y0040055D01*
X0003000Y0041054D02*
X0141941Y0041054D01*
X0141941Y0042052D02*
X0003000Y0042052D01*
X0003000Y0043051D02*
X0141941Y0043051D01*
X0141941Y0044049D02*
X0003000Y0044049D01*
X0003000Y0045048D02*
X0141941Y0045048D01*
X0141941Y0046046D02*
X0003000Y0046046D01*
X0003000Y0047045D02*
X0141941Y0047045D01*
X0141941Y0048043D02*
X0003000Y0048043D01*
X0003000Y0049042D02*
X0141941Y0049042D01*
X0141941Y0050040D02*
X0003000Y0050040D01*
X0003000Y0051039D02*
X0141941Y0051039D01*
X0141941Y0052037D02*
X0003000Y0052037D01*
X0003000Y0053036D02*
X0141941Y0053036D01*
X0141941Y0054034D02*
X0003000Y0054034D01*
X0003000Y0055033D02*
X0141941Y0055033D01*
X0141941Y0056031D02*
X0003000Y0056031D01*
X0003000Y0057030D02*
X0141941Y0057030D01*
X0141941Y0058028D02*
X0003000Y0058028D01*
X0003000Y0059027D02*
X0141941Y0059027D01*
X0141941Y0060025D02*
X0003000Y0060025D01*
X0003000Y0061024D02*
X0141049Y0061024D01*
X0140051Y0062022D02*
X0003000Y0062022D01*
X0003000Y0063021D02*
X0139052Y0063021D01*
X0138054Y0064019D02*
X0003000Y0064019D01*
X0003000Y0065018D02*
X0137055Y0065018D01*
X0136057Y0066016D02*
X0003000Y0066016D01*
X0003000Y0067015D02*
X0135058Y0067015D01*
X0134060Y0068013D02*
X0003000Y0068013D01*
X0003000Y0069012D02*
X0133061Y0069012D01*
X0132063Y0070010D02*
X0003000Y0070010D01*
X0003000Y0071009D02*
X0131064Y0071009D01*
X0130066Y0072007D02*
X0003000Y0072007D01*
X0003000Y0073006D02*
X0129067Y0073006D01*
X0128069Y0074004D02*
X0003000Y0074004D01*
X0003000Y0075003D02*
X0127070Y0075003D01*
X0126072Y0076001D02*
X0003000Y0076001D01*
X0003000Y0077000D02*
X0125073Y0077000D01*
X0124075Y0077998D02*
X0003000Y0077998D01*
X0003000Y0078997D02*
X0123076Y0078997D01*
X0122078Y0079996D02*
X0003000Y0079996D01*
X0003000Y0080994D02*
X0121079Y0080994D01*
X0120081Y0081993D02*
X0003000Y0081993D01*
X0003000Y0082991D02*
X0119082Y0082991D01*
X0118084Y0083990D02*
X0003000Y0083990D01*
X0003000Y0084988D02*
X0117085Y0084988D01*
X0116087Y0085987D02*
X0003000Y0085987D01*
X0003000Y0086985D02*
X0115088Y0086985D01*
X0114090Y0087984D02*
X0003000Y0087984D01*
X0003000Y0088982D02*
X0113091Y0088982D01*
X0112092Y0089981D02*
X0003000Y0089981D01*
X0003000Y0090979D02*
X0111094Y0090979D01*
X0110095Y0091978D02*
X0003000Y0091978D01*
X0003000Y0092976D02*
X0109097Y0092976D01*
X0108098Y0093975D02*
X0003000Y0093975D01*
X0003000Y0094973D02*
X0107100Y0094973D01*
X0106101Y0095972D02*
X0003000Y0095972D01*
X0003000Y0096970D02*
X0105103Y0096970D01*
X0104104Y0097969D02*
X0003000Y0097969D01*
X0003000Y0098967D02*
X0103106Y0098967D01*
X0102107Y0099966D02*
X0003000Y0099966D01*
X0003000Y0100964D02*
X0101109Y0100964D01*
X0100110Y0101963D02*
X0003000Y0101963D01*
X0003000Y0102961D02*
X0099112Y0102961D01*
X0098113Y0103960D02*
X0003000Y0103960D01*
X0003000Y0104958D02*
X0097115Y0104958D01*
X0096116Y0105957D02*
X0003000Y0105957D01*
X0003000Y0106955D02*
X0095118Y0106955D01*
X0094119Y0107954D02*
X0003000Y0107954D01*
X0003000Y0108952D02*
X0093121Y0108952D01*
X0092122Y0109951D02*
X0003000Y0109951D01*
X0003000Y0110949D02*
X0091124Y0110949D01*
X0090125Y0111948D02*
X0003000Y0111948D01*
X0003000Y0112946D02*
X0089127Y0112946D01*
X0088128Y0113945D02*
X0003000Y0113945D01*
X0003000Y0114943D02*
X0087130Y0114943D01*
X0086131Y0115942D02*
X0003000Y0115942D01*
X0003000Y0116940D02*
X0085133Y0116940D01*
X0084134Y0117939D02*
X0003000Y0117939D01*
X0003000Y0118937D02*
X0083136Y0118937D01*
X0087211Y0121933D02*
X0166500Y0121933D01*
X0166500Y0120934D02*
X0088210Y0120934D01*
X0089208Y0119936D02*
X0166500Y0119936D01*
X0166500Y0118937D02*
X0090207Y0118937D01*
X0091205Y0117939D02*
X0166500Y0117939D01*
X0166500Y0116940D02*
X0092204Y0116940D01*
X0093202Y0115942D02*
X0166500Y0115942D01*
X0166500Y0114943D02*
X0094201Y0114943D01*
X0095199Y0113945D02*
X0166500Y0113945D01*
X0166500Y0112946D02*
X0096198Y0112946D01*
X0097196Y0111948D02*
X0166500Y0111948D01*
X0166500Y0110949D02*
X0098195Y0110949D01*
X0099193Y0109951D02*
X0166500Y0109951D01*
X0166500Y0108952D02*
X0100192Y0108952D01*
X0101190Y0107954D02*
X0166500Y0107954D01*
X0166500Y0106955D02*
X0102189Y0106955D01*
X0103187Y0105957D02*
X0166500Y0105957D01*
X0166500Y0104958D02*
X0104186Y0104958D01*
X0105184Y0103960D02*
X0166500Y0103960D01*
X0166500Y0102961D02*
X0106183Y0102961D01*
X0107181Y0101963D02*
X0166500Y0101963D01*
X0166500Y0100964D02*
X0108180Y0100964D01*
X0109178Y0099966D02*
X0166500Y0099966D01*
X0166500Y0098967D02*
X0110177Y0098967D01*
X0111175Y0097969D02*
X0166500Y0097969D01*
X0166500Y0096970D02*
X0112174Y0096970D01*
X0113172Y0095972D02*
X0166500Y0095972D01*
X0166500Y0094973D02*
X0114171Y0094973D01*
X0115169Y0093975D02*
X0166500Y0093975D01*
X0166500Y0092976D02*
X0116168Y0092976D01*
X0117167Y0091978D02*
X0166500Y0091978D01*
X0166500Y0090979D02*
X0118165Y0090979D01*
X0119164Y0089981D02*
X0166500Y0089981D01*
X0166500Y0088982D02*
X0120162Y0088982D01*
X0121161Y0087984D02*
X0166500Y0087984D01*
X0166500Y0086985D02*
X0122159Y0086985D01*
X0123158Y0085987D02*
X0166500Y0085987D01*
X0166500Y0084988D02*
X0124156Y0084988D01*
X0125155Y0083990D02*
X0166500Y0083990D01*
X0166500Y0082991D02*
X0126153Y0082991D01*
X0127152Y0081993D02*
X0166500Y0081993D01*
X0166500Y0080994D02*
X0128150Y0080994D01*
X0129149Y0079996D02*
X0166500Y0079996D01*
X0166500Y0078997D02*
X0130147Y0078997D01*
X0131146Y0077998D02*
X0166500Y0077998D01*
X0166500Y0077000D02*
X0132144Y0077000D01*
X0133143Y0076001D02*
X0166500Y0076001D01*
X0166500Y0075003D02*
X0134141Y0075003D01*
X0135140Y0074004D02*
X0166500Y0074004D01*
X0166500Y0073006D02*
X0136138Y0073006D01*
X0137137Y0072007D02*
X0166500Y0072007D01*
X0166500Y0071009D02*
X0138135Y0071009D01*
X0139134Y0070010D02*
X0166500Y0070010D01*
X0166500Y0069012D02*
X0140132Y0069012D01*
X0141131Y0068013D02*
X0166500Y0068013D01*
X0166500Y0067015D02*
X0142129Y0067015D01*
X0143128Y0066016D02*
X0166500Y0066016D01*
X0166500Y0065018D02*
X0144126Y0065018D01*
X0145125Y0064019D02*
X0166500Y0064019D01*
X0166500Y0063021D02*
X0146123Y0063021D01*
X0145857Y0063287D02*
X0145857Y0063287D01*
X0146793Y0062022D02*
X0166500Y0062022D01*
X0166500Y0061024D02*
X0146941Y0061024D01*
X0146941Y0060025D02*
X0166500Y0060025D01*
X0166500Y0059027D02*
X0146941Y0059027D01*
X0146941Y0058028D02*
X0166500Y0058028D01*
X0166500Y0057030D02*
X0146941Y0057030D01*
X0146941Y0056031D02*
X0166500Y0056031D01*
X0166500Y0055033D02*
X0146941Y0055033D01*
X0146941Y0054034D02*
X0166500Y0054034D01*
X0166500Y0053036D02*
X0146941Y0053036D01*
X0146941Y0052037D02*
X0166500Y0052037D01*
X0166500Y0051039D02*
X0146941Y0051039D01*
X0146941Y0050040D02*
X0166500Y0050040D01*
X0166500Y0049042D02*
X0146941Y0049042D01*
X0146941Y0048043D02*
X0166500Y0048043D01*
X0166500Y0047045D02*
X0146941Y0047045D01*
X0146941Y0046046D02*
X0166500Y0046046D01*
X0166500Y0045048D02*
X0146941Y0045048D01*
X0146941Y0044049D02*
X0166500Y0044049D01*
X0166500Y0043051D02*
X0146941Y0043051D01*
X0146941Y0042052D02*
X0166500Y0042052D01*
X0166524Y0041054D02*
X0146941Y0041054D01*
X0146941Y0040055D02*
X0167018Y0040055D01*
X0168017Y0039057D02*
X0146941Y0039057D01*
X0146941Y0038058D02*
X0169015Y0038058D01*
X0170014Y0037060D02*
X0146941Y0037060D01*
X0146941Y0036061D02*
X0171012Y0036061D01*
X0172011Y0035063D02*
X0146941Y0035063D01*
X0146941Y0034064D02*
X0173009Y0034064D01*
X0174008Y0033065D02*
X0146941Y0033065D01*
X0146941Y0032067D02*
X0175006Y0032067D01*
X0176005Y0031068D02*
X0146941Y0031068D01*
X0146941Y0030070D02*
X0177003Y0030070D01*
X0176557Y0029071D02*
X0182042Y0029071D01*
X0181043Y0028073D02*
X0177556Y0028073D01*
X0178554Y0027074D02*
X0180045Y0027074D01*
X0180120Y0021083D02*
X0178479Y0021083D01*
X0177480Y0020085D02*
X0181119Y0020085D01*
X0182117Y0019086D02*
X0176542Y0019086D01*
X0177541Y0018088D02*
X0181341Y0018088D01*
X0180343Y0017089D02*
X0178539Y0017089D01*
X0179441Y0016091D02*
X0179441Y0016091D01*
X0179441Y0015092D02*
X0179441Y0015092D01*
X0179441Y0014094D02*
X0179441Y0014094D01*
X0179441Y0013095D02*
X0179441Y0013095D01*
X0179441Y0012097D02*
X0179441Y0012097D01*
X0178494Y0011098D02*
X0180388Y0011098D01*
X0181387Y0010100D02*
X0177495Y0010100D01*
X0171387Y0010100D02*
X0167778Y0010100D01*
X0168777Y0011098D02*
X0170388Y0011098D01*
X0164941Y0012097D02*
X0163941Y0012097D01*
X0163941Y0013095D02*
X0164941Y0013095D01*
X0168822Y0017089D02*
X0170343Y0017089D01*
X0171341Y0018088D02*
X0167824Y0018088D01*
X0166825Y0019086D02*
X0172340Y0019086D01*
X0171402Y0020085D02*
X0167480Y0020085D01*
X0168479Y0021083D02*
X0170403Y0021083D01*
X0169441Y0022082D02*
X0169441Y0022082D01*
X0169441Y0023080D02*
X0169441Y0023080D01*
X0169441Y0024079D02*
X0169441Y0024079D01*
X0169441Y0025077D02*
X0169441Y0025077D01*
X0169441Y0026076D02*
X0169441Y0026076D01*
X0168554Y0027074D02*
X0170328Y0027074D01*
X0171326Y0028073D02*
X0167556Y0028073D01*
X0166557Y0029071D02*
X0172325Y0029071D01*
X0179082Y0035063D02*
X0255906Y0035063D01*
X0255906Y0036061D02*
X0178083Y0036061D01*
X0177085Y0037060D02*
X0255906Y0037060D01*
X0255906Y0038058D02*
X0176086Y0038058D01*
X0175088Y0039057D02*
X0178818Y0039057D01*
X0179235Y0038640D02*
X0183765Y0038640D01*
X0185965Y0040840D01*
X0187035Y0040840D01*
X0189235Y0038640D01*
X0193765Y0038640D01*
X0195965Y0040840D01*
X0227150Y0040840D01*
X0228351Y0041338D01*
X0229271Y0042257D01*
X0229271Y0042257D01*
X0234354Y0047340D01*
X0241291Y0047340D01*
X0242198Y0047716D01*
X0242893Y0048410D01*
X0243268Y0049318D01*
X0243268Y0058900D01*
X0242893Y0059807D01*
X0242198Y0060501D01*
X0241291Y0060877D01*
X0231709Y0060877D01*
X0230802Y0060501D01*
X0230107Y0059807D01*
X0229731Y0058900D01*
X0229731Y0051962D01*
X0225146Y0047377D01*
X0221695Y0047377D01*
X0222513Y0047716D01*
X0223208Y0048410D01*
X0223583Y0049318D01*
X0223583Y0058900D01*
X0223208Y0059807D01*
X0222513Y0060501D01*
X0221606Y0060877D01*
X0214669Y0060877D01*
X0209586Y0065960D01*
X0208666Y0066880D01*
X0207465Y0067377D01*
X0195965Y0067377D01*
X0193765Y0069577D01*
X0189235Y0069577D01*
X0187035Y0067377D01*
X0185965Y0067377D01*
X0183765Y0069577D01*
X0179235Y0069577D01*
X0176031Y0066374D01*
X0176031Y0061844D01*
X0179235Y0058640D01*
X0183765Y0058640D01*
X0185965Y0060840D01*
X0187035Y0060840D01*
X0189235Y0058640D01*
X0193765Y0058640D01*
X0195965Y0060840D01*
X0205461Y0060840D01*
X0210046Y0056255D01*
X0210046Y0049318D01*
X0210422Y0048410D01*
X0211117Y0047716D01*
X0211935Y0047377D01*
X0195965Y0047377D01*
X0193765Y0049577D01*
X0189235Y0049577D01*
X0187035Y0047377D01*
X0185965Y0047377D01*
X0183765Y0049577D01*
X0179235Y0049577D01*
X0176031Y0046374D01*
X0176031Y0041844D01*
X0179235Y0038640D01*
X0177820Y0040055D02*
X0174089Y0040055D01*
X0173091Y0041054D02*
X0176821Y0041054D01*
X0176031Y0042052D02*
X0172092Y0042052D01*
X0171500Y0043051D02*
X0176031Y0043051D01*
X0176031Y0044049D02*
X0171500Y0044049D01*
X0171500Y0045048D02*
X0176031Y0045048D01*
X0176031Y0046046D02*
X0171500Y0046046D01*
X0171500Y0047045D02*
X0176702Y0047045D01*
X0177701Y0048043D02*
X0171500Y0048043D01*
X0171500Y0049042D02*
X0178699Y0049042D01*
X0179487Y0050040D02*
X0171500Y0050040D01*
X0171500Y0051039D02*
X0178489Y0051039D01*
X0177490Y0052037D02*
X0171500Y0052037D01*
X0171500Y0053036D02*
X0177200Y0053036D01*
X0177200Y0052328D02*
X0179719Y0049809D01*
X0183281Y0049809D01*
X0185800Y0052328D01*
X0185800Y0055890D01*
X0183281Y0058409D01*
X0179719Y0058409D01*
X0177200Y0055890D01*
X0177200Y0052328D01*
X0177200Y0054034D02*
X0171500Y0054034D01*
X0171500Y0055033D02*
X0177200Y0055033D01*
X0177341Y0056031D02*
X0171500Y0056031D01*
X0171500Y0057030D02*
X0178340Y0057030D01*
X0179339Y0058028D02*
X0171500Y0058028D01*
X0171500Y0059027D02*
X0178848Y0059027D01*
X0177850Y0060025D02*
X0171500Y0060025D01*
X0171500Y0061024D02*
X0176851Y0061024D01*
X0176031Y0062022D02*
X0171500Y0062022D01*
X0171500Y0063021D02*
X0176031Y0063021D01*
X0176031Y0064019D02*
X0171500Y0064019D01*
X0171500Y0065018D02*
X0176031Y0065018D01*
X0176031Y0066016D02*
X0171500Y0066016D01*
X0171500Y0067015D02*
X0176673Y0067015D01*
X0177671Y0068013D02*
X0171500Y0068013D01*
X0171500Y0069012D02*
X0178670Y0069012D01*
X0171500Y0070010D02*
X0255906Y0070010D01*
X0255906Y0069012D02*
X0194330Y0069012D01*
X0195329Y0068013D02*
X0255906Y0068013D01*
X0255906Y0067015D02*
X0208340Y0067015D01*
X0209530Y0066016D02*
X0255906Y0066016D01*
X0255906Y0065018D02*
X0210528Y0065018D01*
X0211527Y0064019D02*
X0255906Y0064019D01*
X0255906Y0063021D02*
X0212525Y0063021D01*
X0213524Y0062022D02*
X0255906Y0062022D01*
X0255906Y0061024D02*
X0214522Y0061024D01*
X0209271Y0057030D02*
X0194660Y0057030D01*
X0193661Y0058028D02*
X0208273Y0058028D01*
X0207274Y0059027D02*
X0194152Y0059027D01*
X0193281Y0058409D02*
X0189719Y0058409D01*
X0187200Y0055890D01*
X0187200Y0052328D01*
X0189719Y0049809D01*
X0193281Y0049809D01*
X0195800Y0052328D01*
X0195800Y0055890D01*
X0193281Y0058409D01*
X0195150Y0060025D02*
X0206276Y0060025D01*
X0210046Y0056031D02*
X0195659Y0056031D01*
X0195800Y0055033D02*
X0210046Y0055033D01*
X0210046Y0054034D02*
X0195800Y0054034D01*
X0195800Y0053036D02*
X0210046Y0053036D01*
X0210046Y0052037D02*
X0195510Y0052037D01*
X0194511Y0051039D02*
X0210046Y0051039D01*
X0210046Y0050040D02*
X0193513Y0050040D01*
X0194301Y0049042D02*
X0210161Y0049042D01*
X0210789Y0048043D02*
X0195299Y0048043D01*
X0189487Y0050040D02*
X0183513Y0050040D01*
X0184301Y0049042D02*
X0188699Y0049042D01*
X0187701Y0048043D02*
X0185299Y0048043D01*
X0184511Y0051039D02*
X0188489Y0051039D01*
X0187490Y0052037D02*
X0185510Y0052037D01*
X0185800Y0053036D02*
X0187200Y0053036D01*
X0187200Y0054034D02*
X0185800Y0054034D01*
X0185800Y0055033D02*
X0187200Y0055033D01*
X0187341Y0056031D02*
X0185659Y0056031D01*
X0184660Y0057030D02*
X0188340Y0057030D01*
X0189339Y0058028D02*
X0183661Y0058028D01*
X0184152Y0059027D02*
X0188848Y0059027D01*
X0187850Y0060025D02*
X0185150Y0060025D01*
X0185329Y0068013D02*
X0187671Y0068013D01*
X0188670Y0069012D02*
X0184330Y0069012D01*
X0171500Y0071009D02*
X0255906Y0071009D01*
X0255906Y0072007D02*
X0171500Y0072007D01*
X0171500Y0073006D02*
X0255906Y0073006D01*
X0255906Y0074004D02*
X0171500Y0074004D01*
X0171500Y0075003D02*
X0255906Y0075003D01*
X0255906Y0076001D02*
X0171500Y0076001D01*
X0171500Y0077000D02*
X0255906Y0077000D01*
X0255906Y0077998D02*
X0171500Y0077998D01*
X0171500Y0078997D02*
X0255906Y0078997D01*
X0255906Y0079996D02*
X0171500Y0079996D01*
X0171500Y0080994D02*
X0255906Y0080994D01*
X0255906Y0081993D02*
X0171500Y0081993D01*
X0171500Y0082991D02*
X0255906Y0082991D01*
X0255906Y0083990D02*
X0171500Y0083990D01*
X0171500Y0084988D02*
X0255906Y0084988D01*
X0255906Y0085987D02*
X0171500Y0085987D01*
X0171500Y0086985D02*
X0255906Y0086985D01*
X0255906Y0087984D02*
X0171500Y0087984D01*
X0171500Y0088982D02*
X0255906Y0088982D01*
X0255906Y0089981D02*
X0171500Y0089981D01*
X0171500Y0090979D02*
X0255906Y0090979D01*
X0255906Y0091978D02*
X0171500Y0091978D01*
X0171500Y0092976D02*
X0255906Y0092976D01*
X0255906Y0093975D02*
X0171500Y0093975D01*
X0171500Y0094973D02*
X0255906Y0094973D01*
X0255906Y0095972D02*
X0171500Y0095972D01*
X0171500Y0096970D02*
X0255906Y0096970D01*
X0255906Y0097969D02*
X0171500Y0097969D01*
X0171500Y0098967D02*
X0255906Y0098967D01*
X0255906Y0099966D02*
X0171500Y0099966D01*
X0171500Y0100964D02*
X0255906Y0100964D01*
X0255906Y0101963D02*
X0171500Y0101963D01*
X0171500Y0102961D02*
X0255906Y0102961D01*
X0255906Y0103960D02*
X0171500Y0103960D01*
X0171500Y0104958D02*
X0255906Y0104958D01*
X0255906Y0105957D02*
X0171500Y0105957D01*
X0171500Y0106955D02*
X0255906Y0106955D01*
X0255906Y0107954D02*
X0171500Y0107954D01*
X0171500Y0108952D02*
X0255906Y0108952D01*
X0255906Y0109951D02*
X0171500Y0109951D01*
X0171500Y0110949D02*
X0255906Y0110949D01*
X0255906Y0111948D02*
X0171500Y0111948D01*
X0171500Y0112946D02*
X0255906Y0112946D01*
X0255906Y0113945D02*
X0171500Y0113945D01*
X0171500Y0114943D02*
X0255906Y0114943D01*
X0255906Y0115942D02*
X0171500Y0115942D01*
X0171500Y0116940D02*
X0255906Y0116940D01*
X0255906Y0117939D02*
X0171500Y0117939D01*
X0171500Y0118937D02*
X0255906Y0118937D01*
X0255906Y0119936D02*
X0171500Y0119936D01*
X0171500Y0120934D02*
X0255906Y0120934D01*
X0255906Y0121933D02*
X0171500Y0121933D01*
X0171500Y0122932D02*
X0255906Y0122932D01*
X0255906Y0123930D02*
X0171500Y0123930D01*
X0171366Y0124929D02*
X0255906Y0124929D01*
X0255906Y0125927D02*
X0170717Y0125927D01*
X0169719Y0126926D02*
X0255906Y0126926D01*
X0255906Y0127924D02*
X0168720Y0127924D01*
X0167722Y0128923D02*
X0255906Y0128923D01*
X0255906Y0129921D02*
X0166723Y0129921D01*
X0165725Y0130920D02*
X0255906Y0130920D01*
X0255906Y0131918D02*
X0164726Y0131918D01*
X0163728Y0132917D02*
X0255906Y0132917D01*
X0255906Y0155882D02*
X0153941Y0155882D01*
X0153977Y0156109D02*
X0147000Y0156109D01*
X0147000Y0157109D01*
X0146000Y0157109D01*
X0146000Y0161109D01*
X0143146Y0161109D01*
X0142446Y0160998D01*
X0141773Y0160779D01*
X0141141Y0160457D01*
X0140568Y0160041D01*
X0140068Y0159540D01*
X0139651Y0158967D01*
X0139330Y0158336D01*
X0139111Y0157662D01*
X0139023Y0157109D01*
X0146000Y0157109D01*
X0146000Y0156109D01*
X0139023Y0156109D01*
X0139111Y0155555D01*
X0139330Y0154881D01*
X0139651Y0154250D01*
X0140068Y0153677D01*
X0140568Y0153176D01*
X0141141Y0152760D01*
X0141773Y0152438D01*
X0142446Y0152219D01*
X0143146Y0152109D01*
X0146000Y0152109D01*
X0146000Y0156109D01*
X0147000Y0156109D01*
X0147000Y0152109D01*
X0149854Y0152109D01*
X0150554Y0152219D01*
X0151227Y0152438D01*
X0151859Y0152760D01*
X0152432Y0153176D01*
X0152932Y0153677D01*
X0153349Y0154250D01*
X0153670Y0154881D01*
X0153889Y0155555D01*
X0153977Y0156109D01*
X0153977Y0157109D02*
X0153889Y0157662D01*
X0153670Y0158336D01*
X0153349Y0158967D01*
X0152932Y0159540D01*
X0152432Y0160041D01*
X0151859Y0160457D01*
X0151227Y0160779D01*
X0150554Y0160998D01*
X0149854Y0161109D01*
X0147000Y0161109D01*
X0147000Y0157109D01*
X0153977Y0157109D01*
X0153819Y0157879D02*
X0255906Y0157879D01*
X0255906Y0156881D02*
X0147000Y0156881D01*
X0147000Y0157879D02*
X0146000Y0157879D01*
X0146000Y0156881D02*
X0003000Y0156881D01*
X0003000Y0157879D02*
X0139181Y0157879D01*
X0139606Y0158878D02*
X0003000Y0158878D01*
X0003000Y0159876D02*
X0140404Y0159876D01*
X0142068Y0160875D02*
X0003000Y0160875D01*
X0003000Y0161873D02*
X0255906Y0161873D01*
X0255906Y0160875D02*
X0150932Y0160875D01*
X0150355Y0162309D02*
X0151936Y0162963D01*
X0153145Y0164173D01*
X0153800Y0165753D01*
X0153800Y0167464D01*
X0153145Y0169044D01*
X0151936Y0170254D01*
X0150355Y0170909D01*
X0142645Y0170909D01*
X0141064Y0170254D01*
X0139855Y0169044D01*
X0139200Y0167464D01*
X0139200Y0165753D01*
X0139855Y0164173D01*
X0141064Y0162963D01*
X0142645Y0162309D01*
X0150355Y0162309D01*
X0151715Y0162872D02*
X0255906Y0162872D01*
X0255906Y0163870D02*
X0152843Y0163870D01*
X0153434Y0164869D02*
X0255906Y0164869D01*
X0255906Y0165867D02*
X0153800Y0165867D01*
X0153800Y0166866D02*
X0255906Y0166866D01*
X0255906Y0167865D02*
X0153634Y0167865D01*
X0153220Y0168863D02*
X0255906Y0168863D01*
X0255906Y0169862D02*
X0152328Y0169862D01*
X0150473Y0170860D02*
X0255906Y0170860D01*
X0255906Y0171859D02*
X0003000Y0171859D01*
X0003000Y0172857D02*
X0255906Y0172857D01*
X0255906Y0173856D02*
X0003000Y0173856D01*
X0003000Y0174854D02*
X0255906Y0174854D01*
X0255906Y0175853D02*
X0003000Y0175853D01*
X0003000Y0176851D02*
X0255906Y0176851D01*
X0255906Y0177850D02*
X0213175Y0177850D01*
X0213575Y0178249D02*
X0213575Y0189968D01*
X0212359Y0191183D01*
X0200641Y0191183D01*
X0199425Y0189968D01*
X0199425Y0178249D01*
X0200641Y0177034D01*
X0212359Y0177034D01*
X0213575Y0178249D01*
X0213575Y0178848D02*
X0255906Y0178848D01*
X0255906Y0179847D02*
X0213575Y0179847D01*
X0213575Y0180845D02*
X0255906Y0180845D01*
X0255906Y0181844D02*
X0213575Y0181844D01*
X0213575Y0182842D02*
X0255906Y0182842D01*
X0255906Y0183841D02*
X0213575Y0183841D01*
X0213575Y0184839D02*
X0255906Y0184839D01*
X0255906Y0185838D02*
X0213575Y0185838D01*
X0213575Y0186836D02*
X0255906Y0186836D01*
X0255906Y0187835D02*
X0213575Y0187835D01*
X0213575Y0188833D02*
X0255906Y0188833D01*
X0255906Y0189832D02*
X0213575Y0189832D01*
X0212713Y0190830D02*
X0255906Y0190830D01*
X0255906Y0191829D02*
X0192162Y0191829D01*
X0193000Y0192666D02*
X0193000Y0194859D01*
X0187000Y0194859D01*
X0187000Y0195859D01*
X0186000Y0195859D01*
X0186000Y0201859D01*
X0183808Y0201859D01*
X0180000Y0198051D01*
X0180000Y0195859D01*
X0186000Y0195859D01*
X0186000Y0194859D01*
X0180000Y0194859D01*
X0180000Y0192666D01*
X0183808Y0188859D01*
X0186000Y0188859D01*
X0186000Y0194859D01*
X0187000Y0194859D01*
X0187000Y0188859D01*
X0189192Y0188859D01*
X0193000Y0192666D01*
X0193000Y0192827D02*
X0255906Y0192827D01*
X0255906Y0193826D02*
X0193000Y0193826D01*
X0193000Y0194824D02*
X0255906Y0194824D01*
X0255906Y0195823D02*
X0187000Y0195823D01*
X0187000Y0195859D02*
X0193000Y0195859D01*
X0193000Y0198051D01*
X0189192Y0201859D01*
X0187000Y0201859D01*
X0187000Y0195859D01*
X0187000Y0196821D02*
X0186000Y0196821D01*
X0186000Y0195823D02*
X0003000Y0195823D01*
X0003000Y0196821D02*
X0180000Y0196821D01*
X0180000Y0197820D02*
X0003000Y0197820D01*
X0003000Y0198818D02*
X0012523Y0198818D01*
X0012346Y0198859D02*
X0013660Y0198559D01*
X0014999Y0198408D01*
X0015173Y0198408D01*
X0015173Y0209908D01*
X0003673Y0209908D01*
X0003673Y0209734D01*
X0003824Y0208395D01*
X0004124Y0207081D01*
X0004569Y0205808D01*
X0003000Y0205808D01*
X0003000Y0206806D02*
X0004220Y0206806D01*
X0003959Y0207805D02*
X0003000Y0207805D01*
X0003000Y0208803D02*
X0003778Y0208803D01*
X0003673Y0209802D02*
X0003000Y0209802D01*
X0003026Y0210801D02*
X0015173Y0210801D01*
X0015173Y0210908D02*
X0015173Y0209908D01*
X0016173Y0209908D01*
X0016173Y0198408D01*
X0016347Y0198408D01*
X0017686Y0198559D01*
X0019000Y0198859D01*
X0020273Y0199304D01*
X0021487Y0199889D01*
X0022628Y0200606D01*
X0023682Y0201446D01*
X0024635Y0202399D01*
X0025475Y0203453D01*
X0026192Y0204594D01*
X0026777Y0205808D01*
X0200000Y0205808D01*
X0200000Y0205166D02*
X0200000Y0207359D01*
X0206000Y0207359D01*
X0206000Y0208359D01*
X0206000Y0214359D01*
X0203808Y0214359D01*
X0200000Y0210551D01*
X0200000Y0208359D01*
X0206000Y0208359D01*
X0207000Y0208359D01*
X0207000Y0214359D01*
X0209192Y0214359D01*
X0213000Y0210551D01*
X0213000Y0208359D01*
X0207000Y0208359D01*
X0207000Y0207359D01*
X0213000Y0207359D01*
X0213000Y0205166D01*
X0209192Y0201359D01*
X0207000Y0201359D01*
X0207000Y0207359D01*
X0206000Y0207359D01*
X0206000Y0201359D01*
X0203808Y0201359D01*
X0200000Y0205166D01*
X0200357Y0204809D02*
X0026296Y0204809D01*
X0026777Y0205808D02*
X0027222Y0207081D01*
X0027522Y0208395D01*
X0027673Y0209734D01*
X0027673Y0209908D01*
X0016173Y0209908D01*
X0016173Y0210908D01*
X0015173Y0210908D01*
X0003673Y0210908D01*
X0003673Y0211082D01*
X0003824Y0212421D01*
X0004124Y0213735D01*
X0004569Y0215007D01*
X0005154Y0216222D01*
X0005871Y0217363D01*
X0006711Y0218417D01*
X0007664Y0219370D01*
X0008718Y0220210D01*
X0009859Y0220927D01*
X0011074Y0221512D01*
X0012346Y0221957D01*
X0013660Y0222257D01*
X0014999Y0222408D01*
X0015173Y0222408D01*
X0015173Y0210908D01*
X0015173Y0211799D02*
X0016173Y0211799D01*
X0016173Y0210908D02*
X0016173Y0222408D01*
X0016347Y0222408D01*
X0017686Y0222257D01*
X0019000Y0221957D01*
X0020273Y0221512D01*
X0021487Y0220927D01*
X0022628Y0220210D01*
X0023682Y0219370D01*
X0024635Y0218417D01*
X0025475Y0217363D01*
X0026192Y0216222D01*
X0026777Y0215007D01*
X0027222Y0213735D01*
X0027522Y0212421D01*
X0027673Y0211082D01*
X0027673Y0210908D01*
X0016173Y0210908D01*
X0016173Y0210801D02*
X0200249Y0210801D01*
X0200000Y0209802D02*
X0027673Y0209802D01*
X0027568Y0208803D02*
X0200000Y0208803D01*
X0200000Y0206806D02*
X0027126Y0206806D01*
X0027388Y0207805D02*
X0206000Y0207805D01*
X0206000Y0208803D02*
X0207000Y0208803D01*
X0207000Y0207805D02*
X0231518Y0207805D01*
X0231383Y0208395D02*
X0231683Y0207081D01*
X0232128Y0205808D01*
X0213000Y0205808D01*
X0213000Y0206806D02*
X0231779Y0206806D01*
X0232128Y0205808D02*
X0232713Y0204594D01*
X0233430Y0203453D01*
X0234270Y0202399D01*
X0235224Y0201446D01*
X0236277Y0200606D01*
X0237419Y0199889D01*
X0238633Y0199304D01*
X0239905Y0198859D01*
X0241219Y0198559D01*
X0242558Y0198408D01*
X0242732Y0198408D01*
X0242732Y0209908D01*
X0231232Y0209908D01*
X0231232Y0209734D01*
X0231383Y0208395D01*
X0231337Y0208803D02*
X0213000Y0208803D01*
X0213000Y0209802D02*
X0231232Y0209802D01*
X0231232Y0210908D02*
X0242732Y0210908D01*
X0242732Y0209908D01*
X0243732Y0209908D01*
X0243732Y0198408D01*
X0243906Y0198408D01*
X0245246Y0198559D01*
X0246560Y0198859D01*
X0247832Y0199304D01*
X0249046Y0199889D01*
X0250187Y0200606D01*
X0251241Y0201446D01*
X0252194Y0202399D01*
X0253034Y0203453D01*
X0253752Y0204594D01*
X0254336Y0205808D01*
X0255906Y0205808D01*
X0255906Y0206806D02*
X0254686Y0206806D01*
X0254781Y0207081D02*
X0255081Y0208395D01*
X0255232Y0209734D01*
X0255232Y0209908D01*
X0243732Y0209908D01*
X0243732Y0210908D01*
X0242732Y0210908D01*
X0242732Y0222408D01*
X0242558Y0222408D01*
X0241219Y0222257D01*
X0239905Y0221957D01*
X0238633Y0221512D01*
X0237419Y0220927D01*
X0236277Y0220210D01*
X0235224Y0219370D01*
X0234270Y0218417D01*
X0233430Y0217363D01*
X0232713Y0216222D01*
X0232128Y0215007D01*
X0231683Y0213735D01*
X0231383Y0212421D01*
X0231232Y0211082D01*
X0231232Y0210908D01*
X0231313Y0211799D02*
X0211752Y0211799D01*
X0212751Y0210801D02*
X0242732Y0210801D01*
X0242732Y0211799D02*
X0243732Y0211799D01*
X0243732Y0210908D02*
X0243732Y0222408D01*
X0243906Y0222408D01*
X0245246Y0222257D01*
X0246560Y0221957D01*
X0247832Y0221512D01*
X0249046Y0220927D01*
X0250187Y0220210D01*
X0251241Y0219370D01*
X0252194Y0218417D01*
X0253034Y0217363D01*
X0253752Y0216222D01*
X0254336Y0215007D01*
X0254781Y0213735D01*
X0255081Y0212421D01*
X0255232Y0211082D01*
X0255232Y0210908D01*
X0243732Y0210908D01*
X0243732Y0210801D02*
X0255880Y0210801D01*
X0255906Y0209802D02*
X0255232Y0209802D01*
X0255127Y0208803D02*
X0255906Y0208803D01*
X0255906Y0207805D02*
X0254947Y0207805D01*
X0254781Y0207081D02*
X0254336Y0205808D01*
X0253855Y0204809D02*
X0255906Y0204809D01*
X0255906Y0203811D02*
X0253259Y0203811D01*
X0252524Y0202812D02*
X0255906Y0202812D01*
X0255906Y0201814D02*
X0251609Y0201814D01*
X0250450Y0200815D02*
X0255906Y0200815D01*
X0255906Y0199817D02*
X0248897Y0199817D01*
X0246383Y0198818D02*
X0255906Y0198818D01*
X0255906Y0197820D02*
X0193000Y0197820D01*
X0193000Y0196821D02*
X0255906Y0196821D01*
X0243732Y0198818D02*
X0242732Y0198818D01*
X0242732Y0199817D02*
X0243732Y0199817D01*
X0243732Y0200815D02*
X0242732Y0200815D01*
X0242732Y0201814D02*
X0243732Y0201814D01*
X0243732Y0202812D02*
X0242732Y0202812D01*
X0242732Y0203811D02*
X0243732Y0203811D01*
X0243732Y0204809D02*
X0242732Y0204809D01*
X0242732Y0205808D02*
X0243732Y0205808D01*
X0243732Y0206806D02*
X0242732Y0206806D01*
X0242732Y0207805D02*
X0243732Y0207805D01*
X0243732Y0208803D02*
X0242732Y0208803D01*
X0242732Y0209802D02*
X0243732Y0209802D01*
X0243732Y0212798D02*
X0242732Y0212798D01*
X0242732Y0213796D02*
X0243732Y0213796D01*
X0243732Y0214795D02*
X0242732Y0214795D01*
X0242732Y0215793D02*
X0243732Y0215793D01*
X0243732Y0216792D02*
X0242732Y0216792D01*
X0242732Y0217790D02*
X0243732Y0217790D01*
X0243732Y0218789D02*
X0242732Y0218789D01*
X0242732Y0219787D02*
X0243732Y0219787D01*
X0243732Y0220786D02*
X0242732Y0220786D01*
X0242732Y0221784D02*
X0243732Y0221784D01*
X0245596Y0222783D02*
X0013310Y0222783D01*
X0011852Y0221784D02*
X0010248Y0221784D01*
X0009634Y0220786D02*
X0008518Y0220786D01*
X0008188Y0219787D02*
X0007283Y0219787D01*
X0007083Y0218789D02*
X0006285Y0218789D01*
X0006212Y0217790D02*
X0005427Y0217790D01*
X0005512Y0216792D02*
X0004850Y0216792D01*
X0004948Y0215793D02*
X0004274Y0215793D01*
X0004495Y0214795D02*
X0003841Y0214795D01*
X0003573Y0213796D02*
X0004145Y0213796D01*
X0003910Y0212798D02*
X0003305Y0212798D01*
X0003091Y0211799D02*
X0003754Y0211799D01*
X0004569Y0205808D02*
X0005154Y0204594D01*
X0005871Y0203453D01*
X0006711Y0202399D01*
X0007664Y0201446D01*
X0008718Y0200606D01*
X0009859Y0199889D01*
X0011074Y0199304D01*
X0012346Y0198859D01*
X0010008Y0199817D02*
X0003000Y0199817D01*
X0003000Y0200815D02*
X0008455Y0200815D01*
X0007297Y0201814D02*
X0003000Y0201814D01*
X0003000Y0202812D02*
X0006382Y0202812D01*
X0005646Y0203811D02*
X0003000Y0203811D01*
X0003000Y0204809D02*
X0005050Y0204809D01*
X0015173Y0204809D02*
X0016173Y0204809D01*
X0016173Y0203811D02*
X0015173Y0203811D01*
X0015173Y0202812D02*
X0016173Y0202812D01*
X0016173Y0201814D02*
X0015173Y0201814D01*
X0015173Y0200815D02*
X0016173Y0200815D01*
X0016173Y0199817D02*
X0015173Y0199817D01*
X0015173Y0198818D02*
X0016173Y0198818D01*
X0018824Y0198818D02*
X0180767Y0198818D01*
X0181766Y0199817D02*
X0021338Y0199817D01*
X0022891Y0200815D02*
X0182764Y0200815D01*
X0183763Y0201814D02*
X0024050Y0201814D01*
X0024965Y0202812D02*
X0202354Y0202812D01*
X0203352Y0201814D02*
X0189237Y0201814D01*
X0190236Y0200815D02*
X0236014Y0200815D01*
X0234856Y0201814D02*
X0209648Y0201814D01*
X0210646Y0202812D02*
X0233941Y0202812D01*
X0233205Y0203811D02*
X0211645Y0203811D01*
X0212643Y0204809D02*
X0232609Y0204809D01*
X0237568Y0199817D02*
X0191234Y0199817D01*
X0192233Y0198818D02*
X0240082Y0198818D01*
X0231469Y0212798D02*
X0210753Y0212798D01*
X0209755Y0213796D02*
X0231704Y0213796D01*
X0232054Y0214795D02*
X0026852Y0214795D01*
X0027201Y0213796D02*
X0203245Y0213796D01*
X0202246Y0212798D02*
X0027436Y0212798D01*
X0027592Y0211799D02*
X0201248Y0211799D01*
X0206000Y0211799D02*
X0207000Y0211799D01*
X0207000Y0210801D02*
X0206000Y0210801D01*
X0206000Y0209802D02*
X0207000Y0209802D01*
X0207000Y0212798D02*
X0206000Y0212798D01*
X0206000Y0213796D02*
X0207000Y0213796D01*
X0207000Y0206806D02*
X0206000Y0206806D01*
X0206000Y0205808D02*
X0207000Y0205808D01*
X0207000Y0204809D02*
X0206000Y0204809D01*
X0206000Y0203811D02*
X0207000Y0203811D01*
X0207000Y0202812D02*
X0206000Y0202812D01*
X0206000Y0201814D02*
X0207000Y0201814D01*
X0201355Y0203811D02*
X0025700Y0203811D01*
X0016173Y0205808D02*
X0015173Y0205808D01*
X0015173Y0206806D02*
X0016173Y0206806D01*
X0016173Y0207805D02*
X0015173Y0207805D01*
X0015173Y0208803D02*
X0016173Y0208803D01*
X0016173Y0209802D02*
X0015173Y0209802D01*
X0015173Y0212798D02*
X0016173Y0212798D01*
X0016173Y0213796D02*
X0015173Y0213796D01*
X0015173Y0214795D02*
X0016173Y0214795D01*
X0016173Y0215793D02*
X0015173Y0215793D01*
X0015173Y0216792D02*
X0016173Y0216792D01*
X0016173Y0217790D02*
X0015173Y0217790D01*
X0015173Y0218789D02*
X0016173Y0218789D01*
X0016173Y0219787D02*
X0015173Y0219787D01*
X0015173Y0220786D02*
X0016173Y0220786D01*
X0016173Y0221784D02*
X0015173Y0221784D01*
X0019495Y0221784D02*
X0239411Y0221784D01*
X0237193Y0220786D02*
X0021712Y0220786D01*
X0023159Y0219787D02*
X0235747Y0219787D01*
X0234642Y0218789D02*
X0024263Y0218789D01*
X0025135Y0217790D02*
X0233771Y0217790D01*
X0233071Y0216792D02*
X0025834Y0216792D01*
X0026399Y0215793D02*
X0232507Y0215793D01*
X0247054Y0221784D02*
X0248658Y0221784D01*
X0249271Y0220786D02*
X0250387Y0220786D01*
X0250718Y0219787D02*
X0251622Y0219787D01*
X0251822Y0218789D02*
X0252621Y0218789D01*
X0252694Y0217790D02*
X0253479Y0217790D01*
X0253393Y0216792D02*
X0254055Y0216792D01*
X0253958Y0215793D02*
X0254632Y0215793D01*
X0254411Y0214795D02*
X0255065Y0214795D01*
X0255332Y0213796D02*
X0254760Y0213796D01*
X0254995Y0212798D02*
X0255600Y0212798D01*
X0255814Y0211799D02*
X0255151Y0211799D01*
X0200287Y0190830D02*
X0191164Y0190830D01*
X0190165Y0189832D02*
X0199425Y0189832D01*
X0199425Y0188833D02*
X0003000Y0188833D01*
X0003000Y0187835D02*
X0199425Y0187835D01*
X0199425Y0186836D02*
X0003000Y0186836D01*
X0003000Y0185838D02*
X0199425Y0185838D01*
X0199425Y0184839D02*
X0003000Y0184839D01*
X0003000Y0183841D02*
X0199425Y0183841D01*
X0199425Y0182842D02*
X0003000Y0182842D01*
X0003000Y0181844D02*
X0199425Y0181844D01*
X0199425Y0180845D02*
X0003000Y0180845D01*
X0003000Y0179847D02*
X0199425Y0179847D01*
X0199425Y0178848D02*
X0003000Y0178848D01*
X0003000Y0177850D02*
X0199825Y0177850D01*
X0187000Y0189832D02*
X0186000Y0189832D01*
X0186000Y0190830D02*
X0187000Y0190830D01*
X0187000Y0191829D02*
X0186000Y0191829D01*
X0186000Y0192827D02*
X0187000Y0192827D01*
X0187000Y0193826D02*
X0186000Y0193826D01*
X0186000Y0194824D02*
X0187000Y0194824D01*
X0187000Y0197820D02*
X0186000Y0197820D01*
X0186000Y0198818D02*
X0187000Y0198818D01*
X0187000Y0199817D02*
X0186000Y0199817D01*
X0186000Y0200815D02*
X0187000Y0200815D01*
X0187000Y0201814D02*
X0186000Y0201814D01*
X0180000Y0194824D02*
X0003000Y0194824D01*
X0003000Y0193826D02*
X0180000Y0193826D01*
X0180000Y0192827D02*
X0003000Y0192827D01*
X0003000Y0191829D02*
X0180837Y0191829D01*
X0181836Y0190830D02*
X0003000Y0190830D01*
X0003000Y0189832D02*
X0182835Y0189832D01*
X0152596Y0159876D02*
X0255906Y0159876D01*
X0255906Y0158878D02*
X0153394Y0158878D01*
X0153671Y0154884D02*
X0198744Y0154884D01*
X0198744Y0153885D02*
X0153084Y0153885D01*
X0152033Y0152887D02*
X0198744Y0152887D01*
X0198744Y0151888D02*
X0003000Y0151888D01*
X0003000Y0150890D02*
X0142599Y0150890D01*
X0140702Y0149891D02*
X0003000Y0149891D01*
X0003000Y0148893D02*
X0139792Y0148893D01*
X0139378Y0147894D02*
X0003000Y0147894D01*
X0003000Y0146896D02*
X0139200Y0146896D01*
X0139200Y0145897D02*
X0003000Y0145897D01*
X0003000Y0144899D02*
X0139554Y0144899D01*
X0140127Y0143900D02*
X0003000Y0143900D01*
X0003000Y0142902D02*
X0141213Y0142902D01*
X0147670Y0141903D02*
X0003000Y0141903D01*
X0003000Y0140905D02*
X0148668Y0140905D01*
X0149667Y0139906D02*
X0003000Y0139906D01*
X0003000Y0138908D02*
X0150665Y0138908D01*
X0151664Y0137909D02*
X0083781Y0137909D01*
X0084779Y0136911D02*
X0152662Y0136911D01*
X0153661Y0135912D02*
X0085778Y0135912D01*
X0085800Y0134914D02*
X0154659Y0134914D01*
X0155658Y0133915D02*
X0085800Y0133915D01*
X0085800Y0132917D02*
X0156656Y0132917D01*
X0157655Y0131918D02*
X0085391Y0131918D01*
X0084392Y0130920D02*
X0158654Y0130920D01*
X0159652Y0129921D02*
X0084000Y0129921D01*
X0084000Y0128923D02*
X0160651Y0128923D01*
X0161649Y0127924D02*
X0084000Y0127924D01*
X0084764Y0126926D02*
X0162648Y0126926D01*
X0163646Y0125927D02*
X0085763Y0125927D01*
X0085800Y0124929D02*
X0164645Y0124929D01*
X0165643Y0123930D02*
X0085800Y0123930D01*
X0086213Y0122932D02*
X0166500Y0122932D01*
X0162729Y0133915D02*
X0198744Y0133915D01*
X0198744Y0134914D02*
X0161731Y0134914D01*
X0160732Y0135912D02*
X0198744Y0135912D01*
X0198744Y0136911D02*
X0159734Y0136911D01*
X0158735Y0137909D02*
X0198744Y0137909D01*
X0198744Y0138908D02*
X0157736Y0138908D01*
X0156738Y0139906D02*
X0198744Y0139906D01*
X0198744Y0140905D02*
X0155739Y0140905D01*
X0154741Y0141903D02*
X0198744Y0141903D01*
X0198744Y0142902D02*
X0153742Y0142902D01*
X0152873Y0143900D02*
X0198744Y0143900D01*
X0198744Y0144899D02*
X0153446Y0144899D01*
X0153800Y0145897D02*
X0198744Y0145897D01*
X0198744Y0146896D02*
X0153800Y0146896D01*
X0153622Y0147894D02*
X0198744Y0147894D01*
X0198744Y0148893D02*
X0153208Y0148893D01*
X0152298Y0149891D02*
X0198744Y0149891D01*
X0198744Y0150890D02*
X0150401Y0150890D01*
X0147000Y0152887D02*
X0146000Y0152887D01*
X0146000Y0153885D02*
X0147000Y0153885D01*
X0147000Y0154884D02*
X0146000Y0154884D01*
X0146000Y0155882D02*
X0147000Y0155882D01*
X0147000Y0158878D02*
X0146000Y0158878D01*
X0146000Y0159876D02*
X0147000Y0159876D01*
X0147000Y0160875D02*
X0146000Y0160875D01*
X0141285Y0162872D02*
X0003000Y0162872D01*
X0003000Y0163870D02*
X0140157Y0163870D01*
X0139566Y0164869D02*
X0003000Y0164869D01*
X0003000Y0165867D02*
X0139200Y0165867D01*
X0139200Y0166866D02*
X0003000Y0166866D01*
X0003000Y0167865D02*
X0139366Y0167865D01*
X0139780Y0168863D02*
X0003000Y0168863D01*
X0003000Y0169862D02*
X0140672Y0169862D01*
X0142527Y0170860D02*
X0003000Y0170860D01*
X0003000Y0155882D02*
X0139059Y0155882D01*
X0139329Y0154884D02*
X0003000Y0154884D01*
X0003000Y0153885D02*
X0139916Y0153885D01*
X0140967Y0152887D02*
X0003000Y0152887D01*
X0003000Y0137909D02*
X0059219Y0137909D01*
X0059719Y0138409D02*
X0057200Y0135890D01*
X0057200Y0132328D01*
X0059719Y0129809D01*
X0063281Y0129809D01*
X0065800Y0132328D01*
X0065800Y0135890D01*
X0063281Y0138409D01*
X0059719Y0138409D01*
X0058221Y0136911D02*
X0003000Y0136911D01*
X0003000Y0135912D02*
X0057222Y0135912D01*
X0057200Y0134914D02*
X0003000Y0134914D01*
X0003000Y0133915D02*
X0057200Y0133915D01*
X0057200Y0132917D02*
X0003000Y0132917D01*
X0003000Y0131918D02*
X0057609Y0131918D01*
X0058608Y0130920D02*
X0003000Y0130920D01*
X0003000Y0129921D02*
X0059606Y0129921D01*
X0059636Y0128609D02*
X0057000Y0125973D01*
X0057000Y0124609D01*
X0061000Y0124609D01*
X0061000Y0128609D01*
X0059636Y0128609D01*
X0058951Y0127924D02*
X0003000Y0127924D01*
X0003000Y0126926D02*
X0057953Y0126926D01*
X0057000Y0125927D02*
X0003000Y0125927D01*
X0003000Y0124929D02*
X0057000Y0124929D01*
X0057000Y0123609D02*
X0057000Y0122245D01*
X0059636Y0119609D01*
X0061000Y0119609D01*
X0061000Y0123609D01*
X0057000Y0123609D01*
X0057000Y0122932D02*
X0003000Y0122932D01*
X0003000Y0123930D02*
X0061000Y0123930D01*
X0061000Y0123609D02*
X0061000Y0124609D01*
X0062000Y0124609D01*
X0062000Y0128609D01*
X0063364Y0128609D01*
X0066000Y0125973D01*
X0066000Y0124609D01*
X0062000Y0124609D01*
X0062000Y0123609D01*
X0066000Y0123609D01*
X0066000Y0122245D01*
X0063364Y0119609D01*
X0062000Y0119609D01*
X0062000Y0123609D01*
X0061000Y0123609D01*
X0061000Y0122932D02*
X0062000Y0122932D01*
X0062000Y0123930D02*
X0067200Y0123930D01*
X0067200Y0122932D02*
X0066000Y0122932D01*
X0065688Y0121933D02*
X0067595Y0121933D01*
X0067200Y0122328D02*
X0069719Y0119809D01*
X0073281Y0119809D01*
X0075800Y0122328D01*
X0075800Y0125890D01*
X0073281Y0128409D01*
X0069719Y0128409D01*
X0067200Y0125890D01*
X0067200Y0122328D01*
X0068593Y0120934D02*
X0064690Y0120934D01*
X0063691Y0119936D02*
X0069592Y0119936D01*
X0073408Y0119936D02*
X0079592Y0119936D01*
X0078593Y0120934D02*
X0074407Y0120934D01*
X0075405Y0121933D02*
X0077595Y0121933D01*
X0077200Y0122932D02*
X0075800Y0122932D01*
X0075800Y0123930D02*
X0077200Y0123930D01*
X0077200Y0124929D02*
X0075800Y0124929D01*
X0075763Y0125927D02*
X0077237Y0125927D01*
X0078236Y0126926D02*
X0074764Y0126926D01*
X0073766Y0127924D02*
X0079000Y0127924D01*
X0079000Y0128923D02*
X0003000Y0128923D01*
X0003000Y0121933D02*
X0057312Y0121933D01*
X0058310Y0120934D02*
X0003000Y0120934D01*
X0003000Y0119936D02*
X0059309Y0119936D01*
X0061000Y0119936D02*
X0062000Y0119936D01*
X0062000Y0120934D02*
X0061000Y0120934D01*
X0061000Y0121933D02*
X0062000Y0121933D01*
X0062000Y0124929D02*
X0061000Y0124929D01*
X0061000Y0125927D02*
X0062000Y0125927D01*
X0062000Y0126926D02*
X0061000Y0126926D01*
X0061000Y0127924D02*
X0062000Y0127924D01*
X0064049Y0127924D02*
X0069234Y0127924D01*
X0068236Y0126926D02*
X0065047Y0126926D01*
X0066000Y0125927D02*
X0067237Y0125927D01*
X0067200Y0124929D02*
X0066000Y0124929D01*
X0063394Y0129921D02*
X0069606Y0129921D01*
X0069719Y0129809D02*
X0073281Y0129809D01*
X0075800Y0132328D01*
X0075800Y0135890D01*
X0073281Y0138409D01*
X0069719Y0138409D01*
X0067200Y0135890D01*
X0067200Y0132328D01*
X0069719Y0129809D01*
X0068608Y0130920D02*
X0064392Y0130920D01*
X0065391Y0131918D02*
X0067609Y0131918D01*
X0067200Y0132917D02*
X0065800Y0132917D01*
X0065800Y0133915D02*
X0067200Y0133915D01*
X0067200Y0134914D02*
X0065800Y0134914D01*
X0065778Y0135912D02*
X0067222Y0135912D01*
X0068221Y0136911D02*
X0064779Y0136911D01*
X0063781Y0137909D02*
X0069219Y0137909D01*
X0073781Y0137909D02*
X0079219Y0137909D01*
X0078221Y0136911D02*
X0074779Y0136911D01*
X0075778Y0135912D02*
X0077222Y0135912D01*
X0077200Y0134914D02*
X0075800Y0134914D01*
X0075800Y0133915D02*
X0077200Y0133915D01*
X0077200Y0132917D02*
X0075800Y0132917D01*
X0075391Y0131918D02*
X0077609Y0131918D01*
X0078608Y0130920D02*
X0074392Y0130920D01*
X0073394Y0129921D02*
X0079000Y0129921D01*
X0184182Y0039057D02*
X0188818Y0039057D01*
X0187820Y0040055D02*
X0185180Y0040055D01*
X0194182Y0039057D02*
X0255906Y0039057D01*
X0255906Y0040055D02*
X0195180Y0040055D01*
X0196520Y0029109D02*
X0202362Y0029109D01*
X0199441Y0026188D01*
X0199441Y0022045D01*
X0199441Y0026188D01*
X0196520Y0029109D01*
X0196557Y0029071D02*
X0202325Y0029071D01*
X0201326Y0028073D02*
X0197556Y0028073D01*
X0198554Y0027074D02*
X0200328Y0027074D01*
X0199441Y0026076D02*
X0199441Y0026076D01*
X0199441Y0025077D02*
X0199441Y0025077D01*
X0199441Y0024079D02*
X0199441Y0024079D01*
X0199441Y0023080D02*
X0199441Y0023080D01*
X0199441Y0022082D02*
X0199441Y0022082D01*
X0198479Y0021083D02*
X0200403Y0021083D01*
X0201402Y0020085D02*
X0197480Y0020085D01*
X0196542Y0019086D02*
X0202057Y0019086D01*
X0201058Y0018088D02*
X0197541Y0018088D01*
X0198539Y0017089D02*
X0200060Y0017089D01*
X0203941Y0013095D02*
X0204941Y0013095D01*
X0204941Y0012097D02*
X0203941Y0012097D01*
X0207778Y0010100D02*
X0208219Y0010100D01*
X0192340Y0019086D02*
X0186765Y0019086D01*
X0187541Y0018088D02*
X0191341Y0018088D01*
X0190343Y0017089D02*
X0188539Y0017089D01*
X0189441Y0016091D02*
X0189441Y0016091D01*
X0189441Y0015092D02*
X0189441Y0015092D01*
X0189441Y0014094D02*
X0189441Y0014094D01*
X0189441Y0013095D02*
X0189441Y0013095D01*
X0189441Y0012097D02*
X0189441Y0012097D01*
X0188494Y0011098D02*
X0190388Y0011098D01*
X0191387Y0010100D02*
X0187495Y0010100D01*
X0187763Y0020085D02*
X0191402Y0020085D01*
X0190403Y0021083D02*
X0188762Y0021083D01*
X0162057Y0019086D02*
X0156542Y0019086D01*
X0157480Y0020085D02*
X0161402Y0020085D01*
X0160403Y0021083D02*
X0158479Y0021083D01*
X0159441Y0022082D02*
X0159441Y0022082D01*
X0159441Y0023080D02*
X0159441Y0023080D01*
X0159441Y0024079D02*
X0159441Y0024079D01*
X0159441Y0025077D02*
X0159441Y0025077D01*
X0159441Y0026076D02*
X0159441Y0026076D01*
X0158554Y0027074D02*
X0160328Y0027074D01*
X0161326Y0028073D02*
X0157556Y0028073D01*
X0156557Y0029071D02*
X0162325Y0029071D01*
X0152325Y0029071D02*
X0146941Y0029071D01*
X0147556Y0028073D02*
X0151326Y0028073D01*
X0150328Y0027074D02*
X0148554Y0027074D01*
X0149441Y0026076D02*
X0149441Y0026076D01*
X0149441Y0025077D02*
X0149441Y0025077D01*
X0149441Y0024079D02*
X0149441Y0024079D01*
X0149441Y0023080D02*
X0149441Y0023080D01*
X0149441Y0022082D02*
X0149441Y0022082D01*
X0148479Y0021083D02*
X0150403Y0021083D01*
X0151402Y0020085D02*
X0147480Y0020085D01*
X0146542Y0019086D02*
X0152340Y0019086D01*
X0151341Y0018088D02*
X0147541Y0018088D01*
X0148539Y0017089D02*
X0150343Y0017089D01*
X0149441Y0016091D02*
X0149441Y0016091D01*
X0149441Y0015092D02*
X0149441Y0015092D01*
X0149441Y0014094D02*
X0149441Y0014094D01*
X0149441Y0013095D02*
X0149441Y0013095D01*
X0149441Y0012097D02*
X0149441Y0012097D01*
X0148494Y0011098D02*
X0150388Y0011098D01*
X0151387Y0010100D02*
X0147495Y0010100D01*
X0157541Y0018088D02*
X0161058Y0018088D01*
X0160060Y0017089D02*
X0158539Y0017089D01*
X0121341Y0018088D02*
X0117541Y0018088D01*
X0118539Y0017089D02*
X0120343Y0017089D01*
X0119441Y0016091D02*
X0119441Y0016091D01*
X0119441Y0015092D02*
X0119441Y0015092D01*
X0119441Y0014094D02*
X0119441Y0014094D01*
X0119441Y0013095D02*
X0119441Y0013095D01*
X0119441Y0012097D02*
X0119441Y0012097D01*
X0118494Y0011098D02*
X0120388Y0011098D01*
X0121387Y0010100D02*
X0117495Y0010100D01*
X0222840Y0048043D02*
X0225812Y0048043D01*
X0226811Y0049042D02*
X0223469Y0049042D01*
X0223583Y0050040D02*
X0227809Y0050040D01*
X0228808Y0051039D02*
X0223583Y0051039D01*
X0223583Y0052037D02*
X0229731Y0052037D01*
X0229731Y0053036D02*
X0223583Y0053036D01*
X0223583Y0054034D02*
X0229731Y0054034D01*
X0229731Y0055033D02*
X0223583Y0055033D01*
X0223583Y0056031D02*
X0229731Y0056031D01*
X0229731Y0057030D02*
X0223583Y0057030D01*
X0223583Y0058028D02*
X0229731Y0058028D01*
X0229784Y0059027D02*
X0223531Y0059027D01*
X0222989Y0060025D02*
X0230326Y0060025D01*
X0242674Y0060025D02*
X0255906Y0060025D01*
X0255906Y0059027D02*
X0243216Y0059027D01*
X0243268Y0058028D02*
X0255906Y0058028D01*
X0255906Y0057030D02*
X0243268Y0057030D01*
X0243268Y0056031D02*
X0255906Y0056031D01*
X0255906Y0055033D02*
X0243268Y0055033D01*
X0243268Y0054034D02*
X0255906Y0054034D01*
X0255906Y0053036D02*
X0243268Y0053036D01*
X0243268Y0052037D02*
X0255906Y0052037D01*
X0255906Y0051039D02*
X0243268Y0051039D01*
X0243268Y0050040D02*
X0255906Y0050040D01*
X0255906Y0049042D02*
X0243154Y0049042D01*
X0242525Y0048043D02*
X0255906Y0048043D01*
X0255906Y0047045D02*
X0234058Y0047045D01*
X0233060Y0046046D02*
X0255906Y0046046D01*
X0255906Y0045048D02*
X0232061Y0045048D01*
X0231063Y0044049D02*
X0255906Y0044049D01*
X0255906Y0043051D02*
X0230064Y0043051D01*
X0229066Y0042052D02*
X0255906Y0042052D01*
X0255906Y0041054D02*
X0227665Y0041054D01*
X0232546Y0034064D02*
X0255906Y0034064D01*
X0255906Y0033065D02*
X0233545Y0033065D01*
X0233600Y0032067D02*
X0255906Y0032067D01*
X0255906Y0031068D02*
X0233600Y0031068D01*
X0233600Y0030070D02*
X0240952Y0030070D01*
X0242732Y0030070D02*
X0243732Y0030070D01*
X0243732Y0029071D02*
X0242732Y0029071D01*
X0242732Y0028073D02*
X0243732Y0028073D01*
X0243732Y0027074D02*
X0242732Y0027074D01*
X0242732Y0026076D02*
X0243732Y0026076D01*
X0243732Y0025077D02*
X0242732Y0025077D01*
X0242732Y0024079D02*
X0243732Y0024079D01*
X0243732Y0023080D02*
X0242732Y0023080D01*
X0242732Y0022082D02*
X0243732Y0022082D01*
X0243732Y0021083D02*
X0242732Y0021083D01*
X0242732Y0020085D02*
X0243732Y0020085D01*
X0243732Y0019086D02*
X0242732Y0019086D01*
X0243732Y0018088D02*
X0255893Y0018088D01*
X0255906Y0019086D02*
X0255218Y0019086D01*
X0255105Y0020085D02*
X0255906Y0020085D01*
X0255906Y0021083D02*
X0254901Y0021083D01*
X0254616Y0022082D02*
X0255906Y0022082D01*
X0255906Y0023080D02*
X0254240Y0023080D01*
X0253760Y0024079D02*
X0255906Y0024079D01*
X0255906Y0025077D02*
X0253135Y0025077D01*
X0252365Y0026076D02*
X0255906Y0026076D01*
X0255906Y0027074D02*
X0251410Y0027074D01*
X0250201Y0028073D02*
X0255906Y0028073D01*
X0255906Y0029071D02*
X0248485Y0029071D01*
X0245513Y0030070D02*
X0255906Y0030070D01*
X0255827Y0017089D02*
X0255174Y0017089D01*
X0255041Y0016091D02*
X0255653Y0016091D01*
X0255386Y0015092D02*
X0254813Y0015092D01*
X0255118Y0014094D02*
X0254480Y0014094D01*
X0254746Y0013095D02*
X0254054Y0013095D01*
X0254170Y0012097D02*
X0253518Y0012097D01*
X0253593Y0011098D02*
X0252852Y0011098D01*
X0252819Y0010100D02*
X0252021Y0010100D01*
X0251821Y0009101D02*
X0250967Y0009101D01*
X0250731Y0008103D02*
X0249587Y0008103D01*
X0249002Y0007104D02*
X0247621Y0007104D01*
X0246337Y0006106D02*
X0233600Y0006106D01*
X0233600Y0007104D02*
X0238843Y0007104D01*
X0236877Y0008103D02*
X0233600Y0008103D01*
X0233600Y0009101D02*
X0235498Y0009101D01*
X0234444Y0010100D02*
X0233600Y0010100D01*
X0233600Y0011098D02*
X0233612Y0011098D01*
X0242732Y0011098D02*
X0243732Y0011098D01*
X0243732Y0010100D02*
X0242732Y0010100D01*
X0242732Y0009101D02*
X0243732Y0009101D01*
X0243732Y0008103D02*
X0242732Y0008103D01*
X0242732Y0007104D02*
X0243732Y0007104D01*
X0243732Y0012097D02*
X0242732Y0012097D01*
X0242732Y0013095D02*
X0243732Y0013095D01*
X0243732Y0014094D02*
X0242732Y0014094D01*
X0242732Y0015092D02*
X0243732Y0015092D01*
X0243732Y0016091D02*
X0242732Y0016091D01*
X0242732Y0017089D02*
X0243732Y0017089D01*
X0234099Y0026076D02*
X0233600Y0026076D01*
X0233600Y0027074D02*
X0235054Y0027074D01*
X0236263Y0028073D02*
X0233600Y0028073D01*
X0233600Y0029071D02*
X0237980Y0029071D01*
D19*
X0236756Y0033183D03*
X0254000Y0031609D03*
X0199787Y0008321D03*
X0179925Y0008715D03*
X0171500Y0031609D03*
X0174000Y0044109D03*
X0164472Y0043400D03*
X0154000Y0049109D03*
X0151500Y0034109D03*
X0134000Y0034109D03*
X0134000Y0054109D03*
X0119000Y0066609D03*
X0139000Y0074109D03*
X0131500Y0089109D03*
X0114000Y0106609D03*
X0101500Y0086609D03*
X0076500Y0076609D03*
X0061500Y0094109D03*
X0041500Y0089109D03*
X0024000Y0106609D03*
X0006500Y0116609D03*
X0024000Y0136609D03*
X0006500Y0149109D03*
X0026500Y0171609D03*
X0006500Y0176609D03*
X0006500Y0194109D03*
X0031500Y0194109D03*
X0046500Y0209109D03*
X0031500Y0219109D03*
X0066500Y0189109D03*
X0086500Y0199109D03*
X0106500Y0199109D03*
X0114000Y0219109D03*
X0134000Y0196609D03*
X0134000Y0176609D03*
X0134000Y0156609D03*
X0144000Y0136609D03*
X0159000Y0124109D03*
X0161500Y0106609D03*
X0176500Y0109109D03*
X0191500Y0101609D03*
X0199000Y0091609D03*
X0189000Y0074109D03*
X0176500Y0086609D03*
X0161500Y0089109D03*
X0139000Y0111609D03*
X0124000Y0129109D03*
X0099000Y0129109D03*
X0079000Y0111609D03*
X0044000Y0116609D03*
X0009000Y0086609D03*
X0009000Y0064109D03*
X0009000Y0041609D03*
X0031500Y0046609D03*
X0041500Y0031609D03*
X0054000Y0041609D03*
X0059000Y0031609D03*
X0074000Y0046609D03*
X0079000Y0031609D03*
X0099000Y0031609D03*
X0109000Y0044109D03*
X0096500Y0061609D03*
X0046500Y0066609D03*
X0029000Y0009109D03*
X0059787Y0007928D03*
X0089394Y0008321D03*
X0119787Y0007928D03*
X0149531Y0008321D03*
X0186500Y0036609D03*
X0164000Y0064109D03*
X0221500Y0091609D03*
X0221500Y0106609D03*
X0189000Y0121609D03*
X0169000Y0139109D03*
X0179000Y0154109D03*
X0191500Y0141609D03*
X0159000Y0159109D03*
X0166500Y0176609D03*
X0184000Y0186609D03*
X0194000Y0201609D03*
X0199000Y0219109D03*
X0174000Y0219109D03*
X0161500Y0196609D03*
X0144000Y0219109D03*
X0099000Y0179109D03*
X0079000Y0159109D03*
X0101500Y0154109D03*
X0049000Y0151609D03*
X0076500Y0219109D03*
X0224000Y0216609D03*
X0229000Y0199109D03*
X0254000Y0199109D03*
D20*
X0169000Y0124109D02*
X0169000Y0041609D01*
X0179000Y0031609D01*
X0229325Y0031609D01*
X0229325Y0029433D01*
X0227150Y0031609D01*
X0229325Y0029433D02*
X0230240Y0028518D01*
X0224441Y0014117D02*
X0214441Y0014117D01*
X0144441Y0024117D02*
X0144441Y0061168D01*
X0081500Y0124109D01*
X0081500Y0134109D01*
X0146500Y0146609D02*
X0169000Y0124109D01*
D21*
X0181500Y0064109D02*
X0191500Y0064109D01*
X0206815Y0064109D01*
X0216815Y0054109D01*
X0226500Y0044109D02*
X0191500Y0044109D01*
X0181500Y0044109D01*
X0210319Y0032140D02*
X0210319Y0027490D01*
X0212246Y0029417D01*
X0216636Y0029417D01*
X0219441Y0026612D01*
X0222246Y0029417D01*
X0226636Y0029417D01*
X0229741Y0026312D01*
X0229741Y0021921D01*
X0227078Y0019258D01*
X0229941Y0016395D01*
X0229941Y0014317D01*
X0224641Y0014317D01*
X0224641Y0013917D01*
X0229941Y0013917D01*
X0229941Y0011838D01*
X0226719Y0008617D01*
X0224641Y0008617D01*
X0224641Y0013916D01*
X0224241Y0013916D01*
X0224241Y0008617D01*
X0222163Y0008617D01*
X0219441Y0011338D01*
X0216719Y0008617D01*
X0214641Y0008617D01*
X0214641Y0013916D01*
X0214241Y0013916D01*
X0214241Y0008617D01*
X0212163Y0008617D01*
X0210319Y0010460D01*
X0210319Y0005909D01*
X0231500Y0005909D01*
X0231500Y0015317D01*
X0231132Y0016689D01*
X0231132Y0019875D01*
X0231500Y0021247D01*
X0231500Y0032140D01*
X0210319Y0032140D01*
X0210319Y0031283D02*
X0231500Y0031283D01*
X0231500Y0029685D02*
X0210319Y0029685D01*
X0210319Y0028086D02*
X0210915Y0028086D01*
X0217966Y0028086D02*
X0220915Y0028086D01*
X0227966Y0028086D02*
X0231500Y0028086D01*
X0231500Y0026488D02*
X0229565Y0026488D01*
X0229741Y0024889D02*
X0231500Y0024889D01*
X0231500Y0023291D02*
X0229741Y0023291D01*
X0229512Y0021692D02*
X0231500Y0021692D01*
X0231191Y0020094D02*
X0227913Y0020094D01*
X0227840Y0018495D02*
X0231132Y0018495D01*
X0231132Y0016897D02*
X0229439Y0016897D01*
X0229941Y0015298D02*
X0231500Y0015298D01*
X0231500Y0013700D02*
X0229941Y0013700D01*
X0229941Y0012101D02*
X0231500Y0012101D01*
X0231500Y0010503D02*
X0228605Y0010503D01*
X0227007Y0008904D02*
X0231500Y0008904D01*
X0231500Y0007306D02*
X0210319Y0007306D01*
X0210319Y0008904D02*
X0211875Y0008904D01*
X0214241Y0008904D02*
X0214641Y0008904D01*
X0214641Y0010503D02*
X0214241Y0010503D01*
X0214241Y0012101D02*
X0214641Y0012101D01*
X0214641Y0013700D02*
X0214241Y0013700D01*
X0214641Y0013917D02*
X0214641Y0014317D01*
X0219941Y0014317D01*
X0224241Y0014317D01*
X0224241Y0013917D01*
X0214641Y0013917D01*
X0218605Y0010503D02*
X0220277Y0010503D01*
X0221875Y0008904D02*
X0217007Y0008904D01*
X0224241Y0008904D02*
X0224641Y0008904D01*
X0224641Y0010503D02*
X0224241Y0010503D01*
X0224241Y0012101D02*
X0224641Y0012101D01*
X0224641Y0013700D02*
X0224241Y0013700D01*
X0226500Y0044109D02*
X0236500Y0054109D01*
M02*
