G75*
%MOIN*%
%OFA0B0*%
%FSLAX25Y25*%
%IPPOS*%
%LPD*%
%AMOC8*
5,1,8,0,0,1.08239X$1,22.5*
%
%ADD10C,0.06000*%
%ADD11C,0.04724*%
%ADD12C,0.14961*%
%ADD13C,0.12992*%
%ADD14C,0.05433*%
%ADD15C,0.02756*%
%ADD16C,0.02362*%
%ADD17C,0.01000*%
%ADD18C,0.03200*%
D10*
X0127500Y0104500D03*
X0137500Y0104500D03*
X0137500Y0114500D03*
X0127500Y0114500D03*
X0127500Y0124500D03*
X0137500Y0124500D03*
X0108500Y0133500D03*
X0098500Y0133500D03*
X0088500Y0133500D03*
X0084500Y0119500D03*
X0074500Y0119500D03*
X0074500Y0109500D03*
X0084500Y0109500D03*
X0094500Y0109500D03*
X0104500Y0109500D03*
X0104500Y0119500D03*
X0094500Y0119500D03*
X0237500Y0044500D03*
X0247500Y0044500D03*
X0257500Y0044500D03*
X0257500Y0034500D03*
X0247500Y0034500D03*
X0237500Y0034500D03*
D11*
X0099437Y0185500D03*
X0091563Y0185500D03*
D12*
X0023154Y0184177D03*
X0262327Y0184177D03*
X0270791Y0015673D03*
X0015673Y0015673D03*
D13*
X0119634Y0157500D03*
X0171366Y0157500D03*
D14*
X0159280Y0146870D03*
X0149437Y0146870D03*
X0141563Y0146870D03*
X0131720Y0146870D03*
D15*
X0080500Y0130500D03*
X0074500Y0144500D03*
X0061500Y0122500D03*
X0031500Y0133500D03*
X0033500Y0155500D03*
X0033500Y0163500D03*
X0048500Y0169500D03*
X0068500Y0176500D03*
X0071500Y0172500D03*
X0068500Y0182500D03*
X0016500Y0086500D03*
X0027780Y0084500D03*
X0037228Y0084500D03*
X0110500Y0017500D03*
X0106500Y0012500D03*
X0127500Y0012500D03*
X0127500Y0017500D03*
X0139500Y0007500D03*
X0212500Y0012500D03*
X0216500Y0017500D03*
X0232500Y0017500D03*
X0232500Y0012500D03*
X0244500Y0007500D03*
X0222500Y0068500D03*
X0206500Y0068500D03*
X0197850Y0070750D03*
X0206500Y0088500D03*
X0219500Y0088500D03*
D16*
X0212850Y0082750D03*
X0227850Y0070750D03*
X0247850Y0076750D03*
X0239850Y0086750D03*
X0244850Y0104750D03*
X0258850Y0113750D03*
X0275850Y0104750D03*
X0278850Y0087750D03*
X0265850Y0086750D03*
X0266850Y0070750D03*
X0278850Y0070750D03*
X0279850Y0050750D03*
X0265850Y0047750D03*
X0279850Y0028750D03*
X0259850Y0027750D03*
X0250850Y0026750D03*
X0228850Y0034750D03*
X0216200Y0044800D03*
X0212200Y0044800D03*
X0208300Y0044800D03*
X0204300Y0044800D03*
X0195850Y0048750D03*
X0188850Y0054750D03*
X0180850Y0046750D03*
X0160850Y0031750D03*
X0150850Y0024750D03*
X0140850Y0031750D03*
X0165850Y0017750D03*
X0165850Y0011750D03*
X0155850Y0011750D03*
X0145850Y0011750D03*
X0115850Y0032750D03*
X0110700Y0033300D03*
X0106700Y0033300D03*
X0102800Y0033300D03*
X0098800Y0033300D03*
X0094850Y0037750D03*
X0090673Y0033500D03*
X0087327Y0033500D03*
X0078873Y0033500D03*
X0075527Y0033500D03*
X0067073Y0033500D03*
X0063727Y0033500D03*
X0053850Y0030750D03*
X0041850Y0029750D03*
X0030850Y0023750D03*
X0024850Y0029750D03*
X0032850Y0040750D03*
X0048850Y0042750D03*
X0057850Y0053750D03*
X0043850Y0054750D03*
X0027850Y0054750D03*
X0012850Y0058750D03*
X0017450Y0069400D03*
X0011450Y0073400D03*
X0016450Y0077400D03*
X0011450Y0084400D03*
X0013450Y0092400D03*
X0016450Y0101400D03*
X0011450Y0113400D03*
X0021450Y0113400D03*
X0033450Y0101400D03*
X0043450Y0109400D03*
X0056450Y0105400D03*
X0065450Y0102400D03*
X0067450Y0114400D03*
X0067450Y0122400D03*
X0056450Y0122400D03*
X0056450Y0129400D03*
X0041450Y0131400D03*
X0026450Y0129400D03*
X0029500Y0145500D03*
X0037500Y0151500D03*
X0044500Y0150500D03*
X0050450Y0143400D03*
X0034500Y0169500D03*
X0045500Y0174500D03*
X0023500Y0168500D03*
X0010500Y0165500D03*
X0006500Y0172500D03*
X0010500Y0192500D03*
X0034500Y0194500D03*
X0045500Y0192500D03*
X0061500Y0192500D03*
X0083500Y0180500D03*
X0091500Y0180500D03*
X0089500Y0193500D03*
X0112500Y0191500D03*
X0127850Y0189750D03*
X0145850Y0174750D03*
X0164850Y0189750D03*
X0188850Y0190750D03*
X0220850Y0190750D03*
X0246850Y0192750D03*
X0274850Y0192750D03*
X0258850Y0169750D03*
X0277850Y0163750D03*
X0247850Y0149750D03*
X0258850Y0137750D03*
X0277850Y0139750D03*
X0233850Y0124750D03*
X0216850Y0139750D03*
X0195850Y0130750D03*
X0171850Y0122750D03*
X0159500Y0118500D03*
X0147500Y0126500D03*
X0159500Y0134500D03*
X0144500Y0140500D03*
X0133500Y0133500D03*
X0119500Y0121500D03*
X0112450Y0118400D03*
X0112450Y0111400D03*
X0119500Y0110500D03*
X0116700Y0103300D03*
X0117500Y0086500D03*
X0120850Y0086750D03*
X0125500Y0086500D03*
X0129500Y0086500D03*
X0113500Y0086500D03*
X0108450Y0087400D03*
X0094423Y0087500D03*
X0091077Y0087500D03*
X0073450Y0086400D03*
X0066450Y0086400D03*
X0060076Y0084500D03*
X0056924Y0084500D03*
X0052450Y0087400D03*
X0047450Y0078400D03*
X0053450Y0071400D03*
X0047450Y0069400D03*
X0064450Y0070400D03*
X0072450Y0075400D03*
X0086450Y0069400D03*
X0098327Y0069500D03*
X0101673Y0069500D03*
X0105327Y0069500D03*
X0108673Y0069500D03*
X0115450Y0070400D03*
X0122450Y0072400D03*
X0148200Y0087500D03*
X0162800Y0088250D03*
X0175850Y0086750D03*
X0169850Y0077750D03*
X0157850Y0068750D03*
X0184850Y0068800D03*
X0191850Y0083750D03*
X0171850Y0103750D03*
X0145500Y0102500D03*
X0114500Y0134500D03*
X0117500Y0147500D03*
X0102500Y0152500D03*
X0102500Y0157500D03*
X0092500Y0157500D03*
X0092500Y0152500D03*
X0092450Y0140400D03*
X0099450Y0122400D03*
X0085450Y0102400D03*
X0041450Y0087400D03*
X0024450Y0087400D03*
X0084850Y0053750D03*
X0102850Y0018750D03*
X0100850Y0011750D03*
X0086850Y0014750D03*
X0073850Y0014750D03*
X0059850Y0011750D03*
X0050850Y0011750D03*
X0042850Y0018750D03*
X0037850Y0006750D03*
X0027850Y0006750D03*
X0006850Y0027750D03*
X0006850Y0035750D03*
X0013850Y0041750D03*
X0059850Y0018750D03*
X0179850Y0014750D03*
X0192850Y0014750D03*
X0206850Y0011750D03*
X0207850Y0018750D03*
X0230850Y0046750D03*
X0219850Y0055750D03*
X0204850Y0054750D03*
X0249850Y0006750D03*
X0257850Y0006750D03*
X0221850Y0104750D03*
X0198850Y0104750D03*
X0171850Y0145750D03*
X0159500Y0159500D03*
X0182850Y0164750D03*
X0206850Y0164750D03*
X0232850Y0166750D03*
X0130500Y0159500D03*
X0115500Y0167500D03*
D17*
X0011960Y0007491D02*
X0007444Y0007491D01*
X0008443Y0006493D02*
X0137245Y0006493D01*
X0137407Y0006102D02*
X0138102Y0005407D01*
X0139009Y0005031D01*
X0139991Y0005031D01*
X0140898Y0005407D01*
X0141593Y0006102D01*
X0141968Y0007009D01*
X0141968Y0007991D01*
X0141593Y0008898D01*
X0140898Y0009593D01*
X0139991Y0009968D01*
X0139009Y0009968D01*
X0138102Y0009593D01*
X0137407Y0008898D01*
X0137031Y0007991D01*
X0137031Y0007009D01*
X0137407Y0006102D01*
X0138015Y0005494D02*
X0010095Y0005494D01*
X0011194Y0004859D02*
X0008548Y0006387D01*
X0006387Y0008548D01*
X0004859Y0011194D01*
X0004069Y0014145D01*
X0003968Y0015673D01*
X0003968Y0184177D01*
X0004069Y0185705D01*
X0004859Y0188656D01*
X0006387Y0191303D01*
X0008548Y0193463D01*
X0011194Y0194991D01*
X0014145Y0195782D01*
X0015673Y0195882D01*
X0270791Y0195882D01*
X0272319Y0195782D01*
X0275271Y0194991D01*
X0277917Y0193463D01*
X0280077Y0191303D01*
X0281605Y0188656D01*
X0282396Y0185705D01*
X0282496Y0184177D01*
X0282496Y0015673D01*
X0282396Y0014145D01*
X0281605Y0011194D01*
X0280077Y0008548D01*
X0277917Y0006387D01*
X0275271Y0004859D01*
X0272319Y0004069D01*
X0270791Y0003968D01*
X0015673Y0003968D01*
X0014145Y0004069D01*
X0011194Y0004859D01*
X0012552Y0004496D02*
X0273912Y0004496D01*
X0276370Y0005494D02*
X0245985Y0005494D01*
X0245898Y0005407D02*
X0246593Y0006102D01*
X0246968Y0007009D01*
X0246968Y0007991D01*
X0246593Y0008898D01*
X0245898Y0009593D01*
X0244991Y0009968D01*
X0244009Y0009968D01*
X0243102Y0009593D01*
X0242407Y0008898D01*
X0242031Y0007991D01*
X0242031Y0007009D01*
X0242407Y0006102D01*
X0243102Y0005407D01*
X0244009Y0005031D01*
X0244991Y0005031D01*
X0245898Y0005407D01*
X0246755Y0006493D02*
X0278022Y0006493D01*
X0279021Y0007491D02*
X0274505Y0007491D01*
X0274772Y0007602D02*
X0275791Y0008190D01*
X0276725Y0008907D01*
X0277558Y0009739D01*
X0278274Y0010673D01*
X0278863Y0011693D01*
X0279313Y0012780D01*
X0279618Y0013917D01*
X0279772Y0015085D01*
X0279772Y0015173D01*
X0271291Y0015173D01*
X0271291Y0006693D01*
X0271380Y0006693D01*
X0272547Y0006847D01*
X0273684Y0007151D01*
X0274772Y0007602D01*
X0276181Y0008490D02*
X0280019Y0008490D01*
X0280620Y0009488D02*
X0277306Y0009488D01*
X0278131Y0010487D02*
X0281197Y0010487D01*
X0281683Y0011485D02*
X0278743Y0011485D01*
X0279190Y0012484D02*
X0281951Y0012484D01*
X0282218Y0013482D02*
X0279501Y0013482D01*
X0279692Y0014481D02*
X0282418Y0014481D01*
X0282483Y0015479D02*
X0271291Y0015479D01*
X0271291Y0015173D02*
X0271291Y0016173D01*
X0270291Y0016173D01*
X0270291Y0015173D01*
X0261811Y0015173D01*
X0261811Y0015085D01*
X0261965Y0013917D01*
X0262269Y0012780D01*
X0262720Y0011693D01*
X0263308Y0010673D01*
X0264025Y0009739D01*
X0264857Y0008907D01*
X0265791Y0008190D01*
X0266811Y0007602D01*
X0267899Y0007151D01*
X0269036Y0006847D01*
X0270203Y0006693D01*
X0270291Y0006693D01*
X0270291Y0015173D01*
X0271291Y0015173D01*
X0271291Y0014481D02*
X0270291Y0014481D01*
X0270291Y0015479D02*
X0233970Y0015479D01*
X0233898Y0015407D02*
X0234593Y0016102D01*
X0234968Y0017009D01*
X0234968Y0017991D01*
X0234593Y0018898D01*
X0233898Y0019593D01*
X0232991Y0019968D01*
X0232009Y0019968D01*
X0231102Y0019593D01*
X0230407Y0018898D01*
X0230031Y0017991D01*
X0230031Y0017009D01*
X0230407Y0016102D01*
X0231102Y0015407D01*
X0232009Y0015031D01*
X0232991Y0015031D01*
X0233898Y0015407D01*
X0233898Y0014593D02*
X0232991Y0014968D01*
X0232009Y0014968D01*
X0231102Y0014593D01*
X0230407Y0013898D01*
X0230031Y0012991D01*
X0230031Y0012009D01*
X0230407Y0011102D01*
X0231102Y0010407D01*
X0232009Y0010031D01*
X0232991Y0010031D01*
X0233898Y0010407D01*
X0234593Y0011102D01*
X0234968Y0012009D01*
X0234968Y0012991D01*
X0234593Y0013898D01*
X0233898Y0014593D01*
X0234010Y0014481D02*
X0261891Y0014481D01*
X0262081Y0013482D02*
X0234765Y0013482D01*
X0234968Y0012484D02*
X0262392Y0012484D01*
X0262840Y0011485D02*
X0234752Y0011485D01*
X0233978Y0010487D02*
X0263452Y0010487D01*
X0264276Y0009488D02*
X0246003Y0009488D01*
X0246762Y0008490D02*
X0265401Y0008490D01*
X0267078Y0007491D02*
X0246968Y0007491D01*
X0243015Y0005494D02*
X0140985Y0005494D01*
X0141755Y0006493D02*
X0242245Y0006493D01*
X0242031Y0007491D02*
X0141968Y0007491D01*
X0141762Y0008490D02*
X0242238Y0008490D01*
X0242997Y0009488D02*
X0141003Y0009488D01*
X0137997Y0009488D02*
X0022188Y0009488D01*
X0022439Y0009739D02*
X0023156Y0010673D01*
X0023745Y0011693D01*
X0024195Y0012780D01*
X0024500Y0013917D01*
X0024654Y0015085D01*
X0024654Y0015173D01*
X0016173Y0015173D01*
X0016173Y0006693D01*
X0016262Y0006693D01*
X0017429Y0006847D01*
X0018566Y0007151D01*
X0019654Y0007602D01*
X0020673Y0008190D01*
X0021607Y0008907D01*
X0022439Y0009739D01*
X0023013Y0010487D02*
X0105022Y0010487D01*
X0105102Y0010407D02*
X0106009Y0010031D01*
X0106991Y0010031D01*
X0107898Y0010407D01*
X0108593Y0011102D01*
X0108968Y0012009D01*
X0108968Y0012991D01*
X0108593Y0013898D01*
X0107898Y0014593D01*
X0106991Y0014968D01*
X0106009Y0014968D01*
X0105102Y0014593D01*
X0104407Y0013898D01*
X0104031Y0012991D01*
X0104031Y0012009D01*
X0104407Y0011102D01*
X0105102Y0010407D01*
X0104248Y0011485D02*
X0023625Y0011485D01*
X0024072Y0012484D02*
X0104031Y0012484D01*
X0104235Y0013482D02*
X0024383Y0013482D01*
X0024574Y0014481D02*
X0104990Y0014481D01*
X0108010Y0014481D02*
X0125990Y0014481D01*
X0126102Y0014593D02*
X0125407Y0013898D01*
X0125031Y0012991D01*
X0125031Y0012009D01*
X0125407Y0011102D01*
X0126102Y0010407D01*
X0127009Y0010031D01*
X0127991Y0010031D01*
X0128898Y0010407D01*
X0129593Y0011102D01*
X0129968Y0012009D01*
X0129968Y0012991D01*
X0129593Y0013898D01*
X0128898Y0014593D01*
X0127991Y0014968D01*
X0127009Y0014968D01*
X0126102Y0014593D01*
X0126102Y0015407D02*
X0127009Y0015031D01*
X0127991Y0015031D01*
X0128898Y0015407D01*
X0129593Y0016102D01*
X0129968Y0017009D01*
X0129968Y0017991D01*
X0129593Y0018898D01*
X0128898Y0019593D01*
X0127991Y0019968D01*
X0127009Y0019968D01*
X0126102Y0019593D01*
X0125407Y0018898D01*
X0125031Y0017991D01*
X0125031Y0017009D01*
X0125407Y0016102D01*
X0126102Y0015407D01*
X0126030Y0015479D02*
X0111970Y0015479D01*
X0111898Y0015407D02*
X0112593Y0016102D01*
X0112968Y0017009D01*
X0112968Y0017991D01*
X0112593Y0018898D01*
X0111898Y0019593D01*
X0110991Y0019968D01*
X0110009Y0019968D01*
X0109102Y0019593D01*
X0108407Y0018898D01*
X0108031Y0017991D01*
X0108031Y0017009D01*
X0108407Y0016102D01*
X0109102Y0015407D01*
X0110009Y0015031D01*
X0110991Y0015031D01*
X0111898Y0015407D01*
X0112748Y0016478D02*
X0125252Y0016478D01*
X0125031Y0017476D02*
X0112968Y0017476D01*
X0112768Y0018475D02*
X0125232Y0018475D01*
X0125982Y0019473D02*
X0112018Y0019473D01*
X0108982Y0019473D02*
X0023819Y0019473D01*
X0023745Y0019654D02*
X0023156Y0020673D01*
X0022439Y0021607D01*
X0021607Y0022439D01*
X0020673Y0023156D01*
X0019654Y0023745D01*
X0018566Y0024195D01*
X0017429Y0024500D01*
X0016262Y0024654D01*
X0016173Y0024654D01*
X0016173Y0016173D01*
X0024654Y0016173D01*
X0024654Y0016262D01*
X0024500Y0017429D01*
X0024195Y0018566D01*
X0023745Y0019654D01*
X0023272Y0020472D02*
X0263192Y0020472D01*
X0263308Y0020673D02*
X0262720Y0019654D01*
X0262269Y0018566D01*
X0261965Y0017429D01*
X0261811Y0016262D01*
X0261811Y0016173D01*
X0270291Y0016173D01*
X0270291Y0024654D01*
X0270203Y0024654D01*
X0269036Y0024500D01*
X0267899Y0024195D01*
X0266811Y0023745D01*
X0265791Y0023156D01*
X0264857Y0022439D01*
X0264025Y0021607D01*
X0263308Y0020673D01*
X0263920Y0021470D02*
X0022544Y0021470D01*
X0021569Y0022469D02*
X0264896Y0022469D01*
X0266330Y0023467D02*
X0020134Y0023467D01*
X0017556Y0024466D02*
X0268908Y0024466D01*
X0270291Y0024466D02*
X0271291Y0024466D01*
X0271291Y0024654D02*
X0271380Y0024654D01*
X0272547Y0024500D01*
X0273684Y0024195D01*
X0274772Y0023745D01*
X0275791Y0023156D01*
X0276725Y0022439D01*
X0277558Y0021607D01*
X0278274Y0020673D01*
X0278863Y0019654D01*
X0279313Y0018566D01*
X0279618Y0017429D01*
X0279772Y0016262D01*
X0279772Y0016173D01*
X0271291Y0016173D01*
X0271291Y0024654D01*
X0271291Y0023467D02*
X0270291Y0023467D01*
X0270291Y0022469D02*
X0271291Y0022469D01*
X0271291Y0021470D02*
X0270291Y0021470D01*
X0270291Y0020472D02*
X0271291Y0020472D01*
X0271291Y0019473D02*
X0270291Y0019473D01*
X0270291Y0018475D02*
X0271291Y0018475D01*
X0271291Y0017476D02*
X0270291Y0017476D01*
X0270291Y0016478D02*
X0271291Y0016478D01*
X0271291Y0013482D02*
X0270291Y0013482D01*
X0270291Y0012484D02*
X0271291Y0012484D01*
X0271291Y0011485D02*
X0270291Y0011485D01*
X0270291Y0010487D02*
X0271291Y0010487D01*
X0271291Y0009488D02*
X0270291Y0009488D01*
X0270291Y0008490D02*
X0271291Y0008490D01*
X0271291Y0007491D02*
X0270291Y0007491D01*
X0261839Y0016478D02*
X0234748Y0016478D01*
X0234968Y0017476D02*
X0261977Y0017476D01*
X0262245Y0018475D02*
X0234768Y0018475D01*
X0234018Y0019473D02*
X0262645Y0019473D01*
X0272674Y0024466D02*
X0282496Y0024466D01*
X0282496Y0025464D02*
X0003968Y0025464D01*
X0003968Y0024466D02*
X0013790Y0024466D01*
X0013917Y0024500D02*
X0012780Y0024195D01*
X0011693Y0023745D01*
X0010673Y0023156D01*
X0009739Y0022439D01*
X0008907Y0021607D01*
X0008190Y0020673D01*
X0007602Y0019654D01*
X0007151Y0018566D01*
X0006847Y0017429D01*
X0006693Y0016262D01*
X0006693Y0016173D01*
X0015173Y0016173D01*
X0015173Y0015173D01*
X0016173Y0015173D01*
X0016173Y0016173D01*
X0015173Y0016173D01*
X0015173Y0024654D01*
X0015085Y0024654D01*
X0013917Y0024500D01*
X0015173Y0024466D02*
X0016173Y0024466D01*
X0016173Y0023467D02*
X0015173Y0023467D01*
X0015173Y0022469D02*
X0016173Y0022469D01*
X0016173Y0021470D02*
X0015173Y0021470D01*
X0015173Y0020472D02*
X0016173Y0020472D01*
X0016173Y0019473D02*
X0015173Y0019473D01*
X0015173Y0018475D02*
X0016173Y0018475D01*
X0016173Y0017476D02*
X0015173Y0017476D01*
X0015173Y0016478D02*
X0016173Y0016478D01*
X0016173Y0015479D02*
X0109030Y0015479D01*
X0108252Y0016478D02*
X0024625Y0016478D01*
X0024487Y0017476D02*
X0108031Y0017476D01*
X0108232Y0018475D02*
X0024220Y0018475D01*
X0016173Y0014481D02*
X0015173Y0014481D01*
X0015173Y0015173D02*
X0015173Y0006693D01*
X0015085Y0006693D01*
X0013917Y0006847D01*
X0012780Y0007151D01*
X0011693Y0007602D01*
X0010673Y0008190D01*
X0009739Y0008907D01*
X0008907Y0009739D01*
X0008190Y0010673D01*
X0007602Y0011693D01*
X0007151Y0012780D01*
X0006847Y0013917D01*
X0006693Y0015085D01*
X0006693Y0015173D01*
X0015173Y0015173D01*
X0015173Y0015479D02*
X0003981Y0015479D01*
X0003968Y0016478D02*
X0006721Y0016478D01*
X0006859Y0017476D02*
X0003968Y0017476D01*
X0003968Y0018475D02*
X0007127Y0018475D01*
X0007527Y0019473D02*
X0003968Y0019473D01*
X0003968Y0020472D02*
X0008074Y0020472D01*
X0008802Y0021470D02*
X0003968Y0021470D01*
X0003968Y0022469D02*
X0009778Y0022469D01*
X0011212Y0023467D02*
X0003968Y0023467D01*
X0003968Y0026463D02*
X0282496Y0026463D01*
X0282496Y0027461D02*
X0003968Y0027461D01*
X0003968Y0028460D02*
X0282496Y0028460D01*
X0282496Y0029458D02*
X0003968Y0029458D01*
X0003968Y0030457D02*
X0061609Y0030457D01*
X0061659Y0030406D02*
X0063001Y0029850D01*
X0064453Y0029850D01*
X0065400Y0030243D01*
X0066347Y0029850D01*
X0067799Y0029850D01*
X0069141Y0030406D01*
X0070167Y0031433D01*
X0070723Y0032774D01*
X0070723Y0034226D01*
X0070167Y0035567D01*
X0069141Y0036594D01*
X0067799Y0037150D01*
X0066347Y0037150D01*
X0065400Y0036757D01*
X0064453Y0037150D01*
X0063001Y0037150D01*
X0061659Y0036594D01*
X0060633Y0035567D01*
X0060077Y0034226D01*
X0060077Y0032774D01*
X0060633Y0031433D01*
X0061659Y0030406D01*
X0060623Y0031455D02*
X0003968Y0031455D01*
X0003968Y0032454D02*
X0060210Y0032454D01*
X0060077Y0033452D02*
X0003968Y0033452D01*
X0003968Y0034451D02*
X0060170Y0034451D01*
X0060584Y0035449D02*
X0003968Y0035449D01*
X0003968Y0036448D02*
X0061513Y0036448D01*
X0069287Y0036448D02*
X0073313Y0036448D01*
X0073459Y0036594D02*
X0072433Y0035567D01*
X0071877Y0034226D01*
X0071877Y0032774D01*
X0072433Y0031433D01*
X0073459Y0030406D01*
X0074801Y0029850D01*
X0076253Y0029850D01*
X0077200Y0030243D01*
X0078147Y0029850D01*
X0079599Y0029850D01*
X0080941Y0030406D01*
X0081967Y0031433D01*
X0082523Y0032774D01*
X0082523Y0034226D01*
X0081967Y0035567D01*
X0080941Y0036594D01*
X0079599Y0037150D01*
X0078147Y0037150D01*
X0077200Y0036757D01*
X0076253Y0037150D01*
X0074801Y0037150D01*
X0073459Y0036594D01*
X0072384Y0035449D02*
X0070216Y0035449D01*
X0070630Y0034451D02*
X0071970Y0034451D01*
X0071877Y0033452D02*
X0070723Y0033452D01*
X0070590Y0032454D02*
X0072010Y0032454D01*
X0072423Y0031455D02*
X0070177Y0031455D01*
X0069191Y0030457D02*
X0073409Y0030457D01*
X0080991Y0030457D02*
X0085209Y0030457D01*
X0085259Y0030406D02*
X0086601Y0029850D01*
X0088053Y0029850D01*
X0089000Y0030243D01*
X0089947Y0029850D01*
X0091399Y0029850D01*
X0092741Y0030406D01*
X0093767Y0031433D01*
X0094323Y0032774D01*
X0094323Y0034226D01*
X0093767Y0035567D01*
X0092741Y0036594D01*
X0091399Y0037150D01*
X0089947Y0037150D01*
X0089000Y0036757D01*
X0088053Y0037150D01*
X0086601Y0037150D01*
X0085259Y0036594D01*
X0084233Y0035567D01*
X0083677Y0034226D01*
X0083677Y0032774D01*
X0084233Y0031433D01*
X0085259Y0030406D01*
X0084223Y0031455D02*
X0081977Y0031455D01*
X0082390Y0032454D02*
X0083810Y0032454D01*
X0083677Y0033452D02*
X0082523Y0033452D01*
X0082430Y0034451D02*
X0083770Y0034451D01*
X0084184Y0035449D02*
X0082016Y0035449D01*
X0081087Y0036448D02*
X0085113Y0036448D01*
X0092887Y0036448D02*
X0233879Y0036448D01*
X0234032Y0036817D02*
X0233409Y0035314D01*
X0233409Y0033686D01*
X0234032Y0032183D01*
X0235183Y0031032D01*
X0236686Y0030409D01*
X0238314Y0030409D01*
X0239817Y0031032D01*
X0240968Y0032183D01*
X0241591Y0033686D01*
X0241591Y0035314D01*
X0240968Y0036817D01*
X0239817Y0037968D01*
X0238314Y0038591D01*
X0236686Y0038591D01*
X0235183Y0037968D01*
X0234032Y0036817D01*
X0234662Y0037446D02*
X0003968Y0037446D01*
X0003968Y0038445D02*
X0236335Y0038445D01*
X0236686Y0040409D02*
X0238314Y0040409D01*
X0239817Y0041032D01*
X0240968Y0042183D01*
X0241591Y0043686D01*
X0241591Y0045314D01*
X0240968Y0046817D01*
X0239817Y0047968D01*
X0238314Y0048591D01*
X0236686Y0048591D01*
X0235183Y0047968D01*
X0234032Y0046817D01*
X0233409Y0045314D01*
X0233409Y0043686D01*
X0234032Y0042183D01*
X0235183Y0041032D01*
X0236686Y0040409D01*
X0236608Y0040442D02*
X0003968Y0040442D01*
X0003968Y0041440D02*
X0234775Y0041440D01*
X0233926Y0042439D02*
X0003968Y0042439D01*
X0003968Y0043437D02*
X0202450Y0043437D01*
X0202028Y0043859D02*
X0203359Y0042528D01*
X0205241Y0042528D01*
X0206300Y0043587D01*
X0207359Y0042528D01*
X0209241Y0042528D01*
X0210250Y0043537D01*
X0211259Y0042528D01*
X0213141Y0042528D01*
X0214200Y0043587D01*
X0215259Y0042528D01*
X0217141Y0042528D01*
X0218472Y0043859D01*
X0218472Y0045741D01*
X0217141Y0047072D01*
X0215259Y0047072D01*
X0214200Y0046013D01*
X0213141Y0047072D01*
X0211259Y0047072D01*
X0210250Y0046063D01*
X0209241Y0047072D01*
X0207359Y0047072D01*
X0206300Y0046013D01*
X0205241Y0047072D01*
X0203359Y0047072D01*
X0202028Y0045741D01*
X0202028Y0043859D01*
X0202028Y0044436D02*
X0003968Y0044436D01*
X0003968Y0045434D02*
X0202028Y0045434D01*
X0202720Y0046433D02*
X0003968Y0046433D01*
X0003968Y0047432D02*
X0234647Y0047432D01*
X0233873Y0046433D02*
X0217780Y0046433D01*
X0218472Y0045434D02*
X0233460Y0045434D01*
X0233409Y0044436D02*
X0218472Y0044436D01*
X0218050Y0043437D02*
X0233513Y0043437D01*
X0238392Y0040442D02*
X0246608Y0040442D01*
X0246686Y0040409D02*
X0248314Y0040409D01*
X0249817Y0041032D01*
X0250968Y0042183D01*
X0251591Y0043686D01*
X0251591Y0045314D01*
X0250968Y0046817D01*
X0249817Y0047968D01*
X0248314Y0048591D01*
X0246686Y0048591D01*
X0245183Y0047968D01*
X0244032Y0046817D01*
X0243409Y0045314D01*
X0243409Y0043686D01*
X0244032Y0042183D01*
X0245183Y0041032D01*
X0246686Y0040409D01*
X0248392Y0040442D02*
X0255552Y0040442D01*
X0255773Y0040330D02*
X0256446Y0040111D01*
X0257000Y0040023D01*
X0257000Y0044000D01*
X0258000Y0044000D01*
X0258000Y0045000D01*
X0261977Y0045000D01*
X0261889Y0045554D01*
X0261670Y0046227D01*
X0261349Y0046859D01*
X0260932Y0047432D01*
X0260432Y0047932D01*
X0259859Y0048349D01*
X0259227Y0048670D01*
X0258554Y0048889D01*
X0258000Y0048977D01*
X0258000Y0045000D01*
X0257000Y0045000D01*
X0257000Y0048977D01*
X0256446Y0048889D01*
X0255773Y0048670D01*
X0255141Y0048349D01*
X0254568Y0047932D01*
X0254068Y0047432D01*
X0253651Y0046859D01*
X0253330Y0046227D01*
X0253111Y0045554D01*
X0253023Y0045000D01*
X0257000Y0045000D01*
X0257000Y0044000D01*
X0253023Y0044000D01*
X0253111Y0043446D01*
X0253330Y0042773D01*
X0253651Y0042141D01*
X0254068Y0041568D01*
X0254568Y0041068D01*
X0255141Y0040651D01*
X0255773Y0040330D01*
X0257000Y0040442D02*
X0258000Y0040442D01*
X0258000Y0040023D02*
X0258554Y0040111D01*
X0259227Y0040330D01*
X0259859Y0040651D01*
X0260432Y0041068D01*
X0260932Y0041568D01*
X0261349Y0042141D01*
X0261670Y0042773D01*
X0261889Y0043446D01*
X0261977Y0044000D01*
X0258000Y0044000D01*
X0258000Y0040023D01*
X0258000Y0041440D02*
X0257000Y0041440D01*
X0257000Y0042439D02*
X0258000Y0042439D01*
X0258000Y0043437D02*
X0257000Y0043437D01*
X0257000Y0044436D02*
X0251591Y0044436D01*
X0251540Y0045434D02*
X0253092Y0045434D01*
X0253434Y0046433D02*
X0251127Y0046433D01*
X0250353Y0047432D02*
X0254068Y0047432D01*
X0255301Y0048430D02*
X0248701Y0048430D01*
X0246299Y0048430D02*
X0238701Y0048430D01*
X0240353Y0047432D02*
X0244647Y0047432D01*
X0243873Y0046433D02*
X0241127Y0046433D01*
X0241540Y0045434D02*
X0243460Y0045434D01*
X0243409Y0044436D02*
X0241591Y0044436D01*
X0241487Y0043437D02*
X0243513Y0043437D01*
X0243926Y0042439D02*
X0241074Y0042439D01*
X0240225Y0041440D02*
X0244775Y0041440D01*
X0246335Y0038445D02*
X0238665Y0038445D01*
X0240338Y0037446D02*
X0244662Y0037446D01*
X0245183Y0037968D02*
X0244032Y0036817D01*
X0243409Y0035314D01*
X0243409Y0033686D01*
X0244032Y0032183D01*
X0245183Y0031032D01*
X0246686Y0030409D01*
X0248314Y0030409D01*
X0249817Y0031032D01*
X0250968Y0032183D01*
X0251591Y0033686D01*
X0251591Y0035314D01*
X0250968Y0036817D01*
X0249817Y0037968D01*
X0248314Y0038591D01*
X0246686Y0038591D01*
X0245183Y0037968D01*
X0243879Y0036448D02*
X0241121Y0036448D01*
X0241534Y0035449D02*
X0243466Y0035449D01*
X0243409Y0034451D02*
X0241591Y0034451D01*
X0241494Y0033452D02*
X0243506Y0033452D01*
X0243920Y0032454D02*
X0241080Y0032454D01*
X0240240Y0031455D02*
X0244760Y0031455D01*
X0246572Y0030457D02*
X0238428Y0030457D01*
X0236572Y0030457D02*
X0092791Y0030457D01*
X0093777Y0031455D02*
X0097432Y0031455D01*
X0097859Y0031028D02*
X0099741Y0031028D01*
X0100800Y0032087D01*
X0101859Y0031028D01*
X0103741Y0031028D01*
X0104750Y0032037D01*
X0105759Y0031028D01*
X0107641Y0031028D01*
X0108700Y0032087D01*
X0109759Y0031028D01*
X0111641Y0031028D01*
X0112972Y0032359D01*
X0112972Y0034241D01*
X0111641Y0035572D01*
X0109759Y0035572D01*
X0108700Y0034513D01*
X0107641Y0035572D01*
X0105759Y0035572D01*
X0104750Y0034563D01*
X0103741Y0035572D01*
X0101859Y0035572D01*
X0100800Y0034513D01*
X0099741Y0035572D01*
X0097859Y0035572D01*
X0096528Y0034241D01*
X0096528Y0032359D01*
X0097859Y0031028D01*
X0096528Y0032454D02*
X0094190Y0032454D01*
X0094323Y0033452D02*
X0096528Y0033452D01*
X0096738Y0034451D02*
X0094230Y0034451D01*
X0093816Y0035449D02*
X0097737Y0035449D01*
X0099863Y0035449D02*
X0101737Y0035449D01*
X0103863Y0035449D02*
X0105637Y0035449D01*
X0107763Y0035449D02*
X0109637Y0035449D01*
X0111763Y0035449D02*
X0233466Y0035449D01*
X0233409Y0034451D02*
X0112762Y0034451D01*
X0112972Y0033452D02*
X0233506Y0033452D01*
X0233920Y0032454D02*
X0112972Y0032454D01*
X0112068Y0031455D02*
X0234760Y0031455D01*
X0248428Y0030457D02*
X0256572Y0030457D01*
X0256686Y0030409D02*
X0258314Y0030409D01*
X0259817Y0031032D01*
X0260968Y0032183D01*
X0261591Y0033686D01*
X0261591Y0035314D01*
X0260968Y0036817D01*
X0259817Y0037968D01*
X0258314Y0038591D01*
X0256686Y0038591D01*
X0255183Y0037968D01*
X0254032Y0036817D01*
X0253409Y0035314D01*
X0253409Y0033686D01*
X0254032Y0032183D01*
X0255183Y0031032D01*
X0256686Y0030409D01*
X0258428Y0030457D02*
X0282496Y0030457D01*
X0282496Y0031455D02*
X0260240Y0031455D01*
X0261080Y0032454D02*
X0282496Y0032454D01*
X0282496Y0033452D02*
X0261494Y0033452D01*
X0261591Y0034451D02*
X0282496Y0034451D01*
X0282496Y0035449D02*
X0261534Y0035449D01*
X0261121Y0036448D02*
X0282496Y0036448D01*
X0282496Y0037446D02*
X0260338Y0037446D01*
X0258665Y0038445D02*
X0282496Y0038445D01*
X0282496Y0039443D02*
X0003968Y0039443D01*
X0003968Y0048430D02*
X0236299Y0048430D01*
X0250225Y0041440D02*
X0254196Y0041440D01*
X0253500Y0042439D02*
X0251074Y0042439D01*
X0251487Y0043437D02*
X0253114Y0043437D01*
X0257000Y0045434D02*
X0258000Y0045434D01*
X0258000Y0044436D02*
X0282496Y0044436D01*
X0282496Y0045434D02*
X0261908Y0045434D01*
X0261566Y0046433D02*
X0282496Y0046433D01*
X0282496Y0047432D02*
X0260932Y0047432D01*
X0259699Y0048430D02*
X0282496Y0048430D01*
X0282496Y0049429D02*
X0003968Y0049429D01*
X0003968Y0050427D02*
X0282496Y0050427D01*
X0282496Y0051426D02*
X0003968Y0051426D01*
X0003968Y0052424D02*
X0282496Y0052424D01*
X0282496Y0053423D02*
X0003968Y0053423D01*
X0003968Y0054421D02*
X0282496Y0054421D01*
X0282496Y0055420D02*
X0003968Y0055420D01*
X0003968Y0056418D02*
X0282496Y0056418D01*
X0282496Y0057417D02*
X0003968Y0057417D01*
X0003968Y0058415D02*
X0282496Y0058415D01*
X0282496Y0059414D02*
X0003968Y0059414D01*
X0003968Y0060412D02*
X0282496Y0060412D01*
X0282496Y0061411D02*
X0003968Y0061411D01*
X0003968Y0062409D02*
X0282496Y0062409D01*
X0282496Y0063408D02*
X0003968Y0063408D01*
X0003968Y0064406D02*
X0282496Y0064406D01*
X0282496Y0065405D02*
X0003968Y0065405D01*
X0003968Y0066403D02*
X0096266Y0066403D01*
X0096259Y0066406D02*
X0097601Y0065850D01*
X0099053Y0065850D01*
X0100000Y0066243D01*
X0100947Y0065850D01*
X0102399Y0065850D01*
X0103500Y0066306D01*
X0104601Y0065850D01*
X0106053Y0065850D01*
X0107000Y0066243D01*
X0107947Y0065850D01*
X0109399Y0065850D01*
X0110741Y0066406D01*
X0111767Y0067433D01*
X0112323Y0068774D01*
X0112323Y0070226D01*
X0111767Y0071567D01*
X0110741Y0072594D01*
X0109399Y0073150D01*
X0107947Y0073150D01*
X0107000Y0072757D01*
X0106053Y0073150D01*
X0104601Y0073150D01*
X0103500Y0072694D01*
X0102399Y0073150D01*
X0100947Y0073150D01*
X0100000Y0072757D01*
X0099053Y0073150D01*
X0097601Y0073150D01*
X0096259Y0072594D01*
X0095233Y0071567D01*
X0094677Y0070226D01*
X0094677Y0068774D01*
X0095233Y0067433D01*
X0096259Y0066406D01*
X0095264Y0067402D02*
X0003968Y0067402D01*
X0003968Y0068400D02*
X0094832Y0068400D01*
X0094677Y0069399D02*
X0003968Y0069399D01*
X0003968Y0070397D02*
X0094748Y0070397D01*
X0095162Y0071396D02*
X0003968Y0071396D01*
X0003968Y0072394D02*
X0096060Y0072394D01*
X0095149Y0083850D02*
X0093697Y0083850D01*
X0092750Y0084243D01*
X0091803Y0083850D01*
X0090351Y0083850D01*
X0089009Y0084406D01*
X0087983Y0085433D01*
X0087427Y0086774D01*
X0087427Y0088226D01*
X0087983Y0089567D01*
X0089009Y0090594D01*
X0090351Y0091150D01*
X0091803Y0091150D01*
X0092750Y0090757D01*
X0093697Y0091150D01*
X0095149Y0091150D01*
X0096491Y0090594D01*
X0097517Y0089567D01*
X0098073Y0088226D01*
X0098073Y0086774D01*
X0097517Y0085433D01*
X0096491Y0084406D01*
X0095149Y0083850D01*
X0096419Y0084376D02*
X0112411Y0084376D01*
X0112559Y0084228D02*
X0114441Y0084228D01*
X0115500Y0085287D01*
X0116559Y0084228D01*
X0118441Y0084228D01*
X0119772Y0085559D01*
X0119772Y0087441D01*
X0118441Y0088772D01*
X0116559Y0088772D01*
X0115500Y0087713D01*
X0114441Y0088772D01*
X0112559Y0088772D01*
X0111228Y0087441D01*
X0111228Y0085559D01*
X0112559Y0084228D01*
X0111412Y0085375D02*
X0097459Y0085375D01*
X0097907Y0086373D02*
X0111228Y0086373D01*
X0111228Y0087372D02*
X0098073Y0087372D01*
X0098013Y0088370D02*
X0112158Y0088370D01*
X0114842Y0088370D02*
X0116158Y0088370D01*
X0118842Y0088370D02*
X0124158Y0088370D01*
X0124559Y0088772D02*
X0123228Y0087441D01*
X0123228Y0085559D01*
X0124559Y0084228D01*
X0126441Y0084228D01*
X0127500Y0085287D01*
X0128559Y0084228D01*
X0130441Y0084228D01*
X0131772Y0085559D01*
X0131772Y0087441D01*
X0130441Y0088772D01*
X0128559Y0088772D01*
X0127500Y0087713D01*
X0126441Y0088772D01*
X0124559Y0088772D01*
X0123228Y0087372D02*
X0119772Y0087372D01*
X0119772Y0086373D02*
X0123228Y0086373D01*
X0123412Y0085375D02*
X0119588Y0085375D01*
X0118589Y0084376D02*
X0124411Y0084376D01*
X0126589Y0084376D02*
X0128411Y0084376D01*
X0130589Y0084376D02*
X0282496Y0084376D01*
X0282496Y0083378D02*
X0063562Y0083378D01*
X0063726Y0083774D02*
X0063726Y0085226D01*
X0063170Y0086567D01*
X0062144Y0087594D01*
X0060802Y0088150D01*
X0059350Y0088150D01*
X0058500Y0087797D01*
X0057650Y0088150D01*
X0056198Y0088150D01*
X0054856Y0087594D01*
X0053830Y0086567D01*
X0053274Y0085226D01*
X0053274Y0083774D01*
X0053830Y0082433D01*
X0054856Y0081406D01*
X0056198Y0080850D01*
X0057650Y0080850D01*
X0058500Y0081203D01*
X0059350Y0080850D01*
X0060802Y0080850D01*
X0062144Y0081406D01*
X0063170Y0082433D01*
X0063726Y0083774D01*
X0063726Y0084376D02*
X0089081Y0084376D01*
X0088041Y0085375D02*
X0063664Y0085375D01*
X0063251Y0086373D02*
X0087593Y0086373D01*
X0087427Y0087372D02*
X0062366Y0087372D01*
X0063117Y0082379D02*
X0271759Y0082379D01*
X0271808Y0082428D02*
X0270505Y0081125D01*
X0269799Y0079422D01*
X0269799Y0077578D01*
X0270505Y0075875D01*
X0271808Y0074572D01*
X0273511Y0073866D01*
X0275355Y0073866D01*
X0277058Y0074572D01*
X0278361Y0075875D01*
X0279067Y0077578D01*
X0279067Y0079422D01*
X0278361Y0081125D01*
X0277058Y0082428D01*
X0275355Y0083134D01*
X0273511Y0083134D01*
X0271808Y0082428D01*
X0270761Y0081381D02*
X0062083Y0081381D01*
X0054917Y0081381D02*
X0013721Y0081381D01*
X0013508Y0081594D02*
X0012167Y0082150D01*
X0010715Y0082150D01*
X0009374Y0081594D01*
X0008347Y0080567D01*
X0007791Y0079226D01*
X0007791Y0077774D01*
X0008347Y0076433D01*
X0009374Y0075406D01*
X0010715Y0074850D01*
X0012167Y0074850D01*
X0013508Y0075406D01*
X0014535Y0076433D01*
X0015091Y0077774D01*
X0015091Y0079226D01*
X0014535Y0080567D01*
X0013508Y0081594D01*
X0014612Y0080382D02*
X0270197Y0080382D01*
X0269799Y0079384D02*
X0015025Y0079384D01*
X0015091Y0078385D02*
X0269799Y0078385D01*
X0269878Y0077387D02*
X0014930Y0077387D01*
X0014491Y0076388D02*
X0270292Y0076388D01*
X0270990Y0075390D02*
X0013469Y0075390D01*
X0009413Y0075390D02*
X0003968Y0075390D01*
X0003968Y0076388D02*
X0008391Y0076388D01*
X0007952Y0077387D02*
X0003968Y0077387D01*
X0003968Y0078385D02*
X0007791Y0078385D01*
X0007857Y0079384D02*
X0003968Y0079384D01*
X0003968Y0080382D02*
X0008270Y0080382D01*
X0009161Y0081381D02*
X0003968Y0081381D01*
X0003968Y0082379D02*
X0026449Y0082379D01*
X0026381Y0082407D02*
X0027288Y0082031D01*
X0028271Y0082031D01*
X0029178Y0082407D01*
X0029872Y0083102D01*
X0030248Y0084009D01*
X0030248Y0084991D01*
X0029872Y0085898D01*
X0029178Y0086593D01*
X0028271Y0086968D01*
X0027288Y0086968D01*
X0026381Y0086593D01*
X0025687Y0085898D01*
X0025311Y0084991D01*
X0025311Y0084009D01*
X0025687Y0083102D01*
X0026381Y0082407D01*
X0025572Y0083378D02*
X0003968Y0083378D01*
X0003968Y0084376D02*
X0015176Y0084376D01*
X0015102Y0084407D02*
X0016009Y0084031D01*
X0016991Y0084031D01*
X0017898Y0084407D01*
X0018593Y0085102D01*
X0018968Y0086009D01*
X0018968Y0086991D01*
X0018593Y0087898D01*
X0017898Y0088593D01*
X0016991Y0088968D01*
X0016009Y0088968D01*
X0015102Y0088593D01*
X0014407Y0087898D01*
X0014031Y0086991D01*
X0014031Y0086009D01*
X0014407Y0085102D01*
X0015102Y0084407D01*
X0014294Y0085375D02*
X0003968Y0085375D01*
X0003968Y0086373D02*
X0014031Y0086373D01*
X0014189Y0087372D02*
X0003968Y0087372D01*
X0003968Y0088370D02*
X0014879Y0088370D01*
X0018120Y0088370D02*
X0087487Y0088370D01*
X0087901Y0089369D02*
X0003968Y0089369D01*
X0003968Y0090368D02*
X0088783Y0090368D01*
X0096717Y0090368D02*
X0204877Y0090368D01*
X0205102Y0090593D02*
X0204407Y0089898D01*
X0204031Y0088991D01*
X0204031Y0088009D01*
X0204407Y0087102D01*
X0205102Y0086407D01*
X0206009Y0086031D01*
X0206991Y0086031D01*
X0207898Y0086407D01*
X0208593Y0087102D01*
X0208968Y0088009D01*
X0208968Y0088991D01*
X0208593Y0089898D01*
X0207898Y0090593D01*
X0206991Y0090968D01*
X0206009Y0090968D01*
X0205102Y0090593D01*
X0204188Y0089369D02*
X0149544Y0089369D01*
X0149141Y0089772D02*
X0147259Y0089772D01*
X0145928Y0088441D01*
X0145928Y0086559D01*
X0147259Y0085228D01*
X0149141Y0085228D01*
X0150472Y0086559D01*
X0150472Y0088441D01*
X0149141Y0089772D01*
X0150472Y0088370D02*
X0204031Y0088370D01*
X0204295Y0087372D02*
X0150472Y0087372D01*
X0150286Y0086373D02*
X0205183Y0086373D01*
X0207817Y0086373D02*
X0218183Y0086373D01*
X0218102Y0086407D02*
X0219009Y0086031D01*
X0219991Y0086031D01*
X0220898Y0086407D01*
X0221593Y0087102D01*
X0221968Y0088009D01*
X0221968Y0088991D01*
X0221593Y0089898D01*
X0220898Y0090593D01*
X0219991Y0090968D01*
X0219009Y0090968D01*
X0218102Y0090593D01*
X0217407Y0089898D01*
X0217031Y0088991D01*
X0217031Y0088009D01*
X0217407Y0087102D01*
X0218102Y0086407D01*
X0217295Y0087372D02*
X0208705Y0087372D01*
X0208968Y0088370D02*
X0217031Y0088370D01*
X0217188Y0089369D02*
X0208812Y0089369D01*
X0208123Y0090368D02*
X0217877Y0090368D01*
X0221123Y0090368D02*
X0282496Y0090368D01*
X0282496Y0091366D02*
X0003968Y0091366D01*
X0003968Y0092365D02*
X0282496Y0092365D01*
X0282496Y0093363D02*
X0003968Y0093363D01*
X0003968Y0094362D02*
X0282496Y0094362D01*
X0282496Y0095360D02*
X0003968Y0095360D01*
X0003968Y0096359D02*
X0282496Y0096359D01*
X0282496Y0097357D02*
X0003968Y0097357D01*
X0003968Y0098356D02*
X0282496Y0098356D01*
X0282496Y0099354D02*
X0139367Y0099354D01*
X0138588Y0099031D02*
X0140598Y0099864D01*
X0142136Y0101402D01*
X0142968Y0103412D01*
X0142968Y0105588D01*
X0142136Y0107598D01*
X0140598Y0109136D01*
X0138588Y0109968D01*
X0136412Y0109968D01*
X0134402Y0109136D01*
X0132864Y0107598D01*
X0132500Y0106719D01*
X0132136Y0107598D01*
X0130598Y0109136D01*
X0128588Y0109968D01*
X0126412Y0109968D01*
X0124402Y0109136D01*
X0122864Y0107598D01*
X0122031Y0105588D01*
X0122031Y0103412D01*
X0122864Y0101402D01*
X0124402Y0099864D01*
X0126412Y0099031D01*
X0128588Y0099031D01*
X0130598Y0099864D01*
X0132136Y0101402D01*
X0132500Y0102281D01*
X0132864Y0101402D01*
X0134402Y0099864D01*
X0136412Y0099031D01*
X0138588Y0099031D01*
X0141086Y0100353D02*
X0282496Y0100353D01*
X0282496Y0101351D02*
X0142085Y0101351D01*
X0142528Y0102350D02*
X0282496Y0102350D01*
X0282496Y0103348D02*
X0142942Y0103348D01*
X0142968Y0104347D02*
X0282496Y0104347D01*
X0282496Y0105345D02*
X0142968Y0105345D01*
X0142655Y0106344D02*
X0282496Y0106344D01*
X0282496Y0107342D02*
X0142242Y0107342D01*
X0141393Y0108341D02*
X0282496Y0108341D01*
X0282496Y0109339D02*
X0140107Y0109339D01*
X0139817Y0111032D02*
X0140968Y0112183D01*
X0141591Y0113686D01*
X0141591Y0115314D01*
X0140968Y0116817D01*
X0139817Y0117968D01*
X0138314Y0118591D01*
X0136686Y0118591D01*
X0135183Y0117968D01*
X0134032Y0116817D01*
X0133409Y0115314D01*
X0133409Y0113686D01*
X0134032Y0112183D01*
X0135183Y0111032D01*
X0136686Y0110409D01*
X0138314Y0110409D01*
X0139817Y0111032D01*
X0140121Y0111336D02*
X0282496Y0111336D01*
X0282496Y0110338D02*
X0108581Y0110338D01*
X0108591Y0110314D02*
X0107968Y0111817D01*
X0106817Y0112968D01*
X0105314Y0113591D01*
X0103686Y0113591D01*
X0102183Y0112968D01*
X0101032Y0111817D01*
X0100409Y0110314D01*
X0100409Y0108686D01*
X0101032Y0107183D01*
X0102183Y0106032D01*
X0103686Y0105409D01*
X0105314Y0105409D01*
X0106817Y0106032D01*
X0107968Y0107183D01*
X0108591Y0108686D01*
X0108591Y0110314D01*
X0108591Y0109339D02*
X0124893Y0109339D01*
X0123607Y0108341D02*
X0108447Y0108341D01*
X0108034Y0107342D02*
X0122758Y0107342D01*
X0122345Y0106344D02*
X0107129Y0106344D01*
X0108167Y0111336D02*
X0124879Y0111336D01*
X0125183Y0111032D02*
X0126686Y0110409D01*
X0128314Y0110409D01*
X0129817Y0111032D01*
X0130968Y0112183D01*
X0131591Y0113686D01*
X0131591Y0115314D01*
X0130968Y0116817D01*
X0129817Y0117968D01*
X0128314Y0118591D01*
X0126686Y0118591D01*
X0125183Y0117968D01*
X0124032Y0116817D01*
X0123409Y0115314D01*
X0123409Y0113686D01*
X0124032Y0112183D01*
X0125183Y0111032D01*
X0123969Y0112335D02*
X0107450Y0112335D01*
X0105935Y0113333D02*
X0123556Y0113333D01*
X0123409Y0114332D02*
X0003968Y0114332D01*
X0003968Y0115330D02*
X0072771Y0115330D01*
X0072773Y0115330D02*
X0073446Y0115111D01*
X0074000Y0115023D01*
X0074000Y0119000D01*
X0075000Y0119000D01*
X0075000Y0120000D01*
X0078977Y0120000D01*
X0078889Y0120554D01*
X0078670Y0121227D01*
X0078349Y0121859D01*
X0077932Y0122432D01*
X0077432Y0122932D01*
X0076859Y0123349D01*
X0076227Y0123670D01*
X0075554Y0123889D01*
X0075000Y0123977D01*
X0075000Y0120000D01*
X0074000Y0120000D01*
X0074000Y0123977D01*
X0073446Y0123889D01*
X0072773Y0123670D01*
X0072141Y0123349D01*
X0071568Y0122932D01*
X0071068Y0122432D01*
X0070651Y0121859D01*
X0070330Y0121227D01*
X0070111Y0120554D01*
X0070023Y0120000D01*
X0074000Y0120000D01*
X0074000Y0119000D01*
X0070023Y0119000D01*
X0070111Y0118446D01*
X0070330Y0117773D01*
X0070651Y0117141D01*
X0071068Y0116568D01*
X0071568Y0116068D01*
X0072141Y0115651D01*
X0072773Y0115330D01*
X0074000Y0115330D02*
X0075000Y0115330D01*
X0075000Y0115023D02*
X0075554Y0115111D01*
X0076227Y0115330D01*
X0076859Y0115651D01*
X0077432Y0116068D01*
X0077932Y0116568D01*
X0078349Y0117141D01*
X0078670Y0117773D01*
X0078889Y0118446D01*
X0078977Y0119000D01*
X0075000Y0119000D01*
X0075000Y0115023D01*
X0075000Y0113977D02*
X0075554Y0113889D01*
X0076227Y0113670D01*
X0076859Y0113349D01*
X0077432Y0112932D01*
X0077932Y0112432D01*
X0078349Y0111859D01*
X0078670Y0111227D01*
X0078889Y0110554D01*
X0078977Y0110000D01*
X0075000Y0110000D01*
X0075000Y0109000D01*
X0078977Y0109000D01*
X0078889Y0108446D01*
X0078670Y0107773D01*
X0078349Y0107141D01*
X0077932Y0106568D01*
X0077432Y0106068D01*
X0076859Y0105651D01*
X0076227Y0105330D01*
X0075554Y0105111D01*
X0075000Y0105023D01*
X0075000Y0109000D01*
X0074000Y0109000D01*
X0074000Y0105023D01*
X0073446Y0105111D01*
X0072773Y0105330D01*
X0072141Y0105651D01*
X0071568Y0106068D01*
X0071068Y0106568D01*
X0070651Y0107141D01*
X0070330Y0107773D01*
X0070111Y0108446D01*
X0070023Y0109000D01*
X0074000Y0109000D01*
X0074000Y0110000D01*
X0074000Y0113977D01*
X0073446Y0113889D01*
X0072773Y0113670D01*
X0072141Y0113349D01*
X0071568Y0112932D01*
X0071068Y0112432D01*
X0070651Y0111859D01*
X0070330Y0111227D01*
X0070111Y0110554D01*
X0070023Y0110000D01*
X0074000Y0110000D01*
X0075000Y0110000D01*
X0075000Y0113977D01*
X0075000Y0113333D02*
X0074000Y0113333D01*
X0074000Y0112335D02*
X0075000Y0112335D01*
X0075000Y0111336D02*
X0074000Y0111336D01*
X0074000Y0110338D02*
X0075000Y0110338D01*
X0075000Y0109339D02*
X0080409Y0109339D01*
X0080409Y0108686D02*
X0081032Y0107183D01*
X0082183Y0106032D01*
X0083686Y0105409D01*
X0085314Y0105409D01*
X0086817Y0106032D01*
X0087968Y0107183D01*
X0088591Y0108686D01*
X0088591Y0110314D01*
X0087968Y0111817D01*
X0086817Y0112968D01*
X0085314Y0113591D01*
X0083686Y0113591D01*
X0082183Y0112968D01*
X0081032Y0111817D01*
X0080409Y0110314D01*
X0080409Y0108686D01*
X0080553Y0108341D02*
X0078855Y0108341D01*
X0078451Y0107342D02*
X0080966Y0107342D01*
X0081871Y0106344D02*
X0077708Y0106344D01*
X0076258Y0105345D02*
X0122031Y0105345D01*
X0122031Y0104347D02*
X0003968Y0104347D01*
X0003968Y0105345D02*
X0072742Y0105345D01*
X0074000Y0105345D02*
X0075000Y0105345D01*
X0075000Y0106344D02*
X0074000Y0106344D01*
X0074000Y0107342D02*
X0075000Y0107342D01*
X0075000Y0108341D02*
X0074000Y0108341D01*
X0074000Y0109339D02*
X0003968Y0109339D01*
X0003968Y0108341D02*
X0070145Y0108341D01*
X0070549Y0107342D02*
X0003968Y0107342D01*
X0003968Y0106344D02*
X0071292Y0106344D01*
X0070077Y0110338D02*
X0003968Y0110338D01*
X0003968Y0111336D02*
X0070385Y0111336D01*
X0070997Y0112335D02*
X0003968Y0112335D01*
X0003968Y0113333D02*
X0072120Y0113333D01*
X0076229Y0115330D02*
X0123416Y0115330D01*
X0123830Y0116329D02*
X0107114Y0116329D01*
X0106817Y0116032D02*
X0107968Y0117183D01*
X0108591Y0118686D01*
X0108591Y0120314D01*
X0107968Y0121817D01*
X0106817Y0122968D01*
X0105314Y0123591D01*
X0103686Y0123591D01*
X0102183Y0122968D01*
X0101032Y0121817D01*
X0100409Y0120314D01*
X0100409Y0118686D01*
X0101032Y0117183D01*
X0102183Y0116032D01*
X0103686Y0115409D01*
X0105314Y0115409D01*
X0106817Y0116032D01*
X0108028Y0117327D02*
X0124542Y0117327D01*
X0126047Y0118326D02*
X0108441Y0118326D01*
X0108591Y0119324D02*
X0125705Y0119324D01*
X0126412Y0119031D02*
X0124402Y0119864D01*
X0122864Y0121402D01*
X0122031Y0123412D01*
X0122031Y0125588D01*
X0122864Y0127598D01*
X0124402Y0129136D01*
X0126412Y0129968D01*
X0128588Y0129968D01*
X0130598Y0129136D01*
X0132136Y0127598D01*
X0132500Y0126719D01*
X0132864Y0127598D01*
X0134402Y0129136D01*
X0136412Y0129968D01*
X0138588Y0129968D01*
X0140598Y0129136D01*
X0142136Y0127598D01*
X0142968Y0125588D01*
X0142968Y0123412D01*
X0142136Y0121402D01*
X0140598Y0119864D01*
X0138588Y0119031D01*
X0136412Y0119031D01*
X0134402Y0119864D01*
X0132864Y0121402D01*
X0132500Y0122281D01*
X0132136Y0121402D01*
X0130598Y0119864D01*
X0128588Y0119031D01*
X0126412Y0119031D01*
X0128953Y0118326D02*
X0136047Y0118326D01*
X0135705Y0119324D02*
X0129295Y0119324D01*
X0131056Y0120323D02*
X0133944Y0120323D01*
X0132945Y0121321D02*
X0132055Y0121321D01*
X0130458Y0117327D02*
X0134542Y0117327D01*
X0133830Y0116329D02*
X0131170Y0116329D01*
X0131584Y0115330D02*
X0133416Y0115330D01*
X0133409Y0114332D02*
X0131591Y0114332D01*
X0131444Y0113333D02*
X0133556Y0113333D01*
X0133969Y0112335D02*
X0131031Y0112335D01*
X0130121Y0111336D02*
X0134879Y0111336D01*
X0134893Y0109339D02*
X0130107Y0109339D01*
X0131393Y0108341D02*
X0133607Y0108341D01*
X0132758Y0107342D02*
X0132242Y0107342D01*
X0132085Y0101351D02*
X0132915Y0101351D01*
X0133914Y0100353D02*
X0131086Y0100353D01*
X0129367Y0099354D02*
X0135633Y0099354D01*
X0125633Y0099354D02*
X0003968Y0099354D01*
X0003968Y0100353D02*
X0123914Y0100353D01*
X0122915Y0101351D02*
X0003968Y0101351D01*
X0003968Y0102350D02*
X0122472Y0102350D01*
X0122058Y0103348D02*
X0003968Y0103348D01*
X0003968Y0116329D02*
X0071307Y0116329D01*
X0070557Y0117327D02*
X0003968Y0117327D01*
X0003968Y0118326D02*
X0070150Y0118326D01*
X0070074Y0120323D02*
X0063128Y0120323D01*
X0063024Y0120219D02*
X0062035Y0119809D01*
X0060965Y0119809D01*
X0059976Y0120219D01*
X0059219Y0120976D01*
X0058809Y0121965D01*
X0058809Y0123035D01*
X0059219Y0124024D01*
X0067976Y0132781D01*
X0068965Y0133191D01*
X0070035Y0133191D01*
X0077809Y0133191D01*
X0077809Y0172155D01*
X0070792Y0177418D01*
X0070968Y0176991D01*
X0070968Y0176009D01*
X0070593Y0175102D01*
X0069898Y0174407D01*
X0068991Y0174031D01*
X0068009Y0174031D01*
X0067102Y0174407D01*
X0066407Y0175102D01*
X0066031Y0176009D01*
X0066031Y0176991D01*
X0066407Y0177898D01*
X0067102Y0178593D01*
X0068009Y0178968D01*
X0068724Y0178968D01*
X0066458Y0180669D01*
X0065912Y0181590D01*
X0065761Y0182649D01*
X0066026Y0183686D01*
X0066669Y0184542D01*
X0067590Y0185088D01*
X0068649Y0185239D01*
X0069686Y0184974D01*
X0081843Y0175856D01*
X0082024Y0175781D01*
X0082267Y0175538D01*
X0082542Y0175331D01*
X0082642Y0175163D01*
X0082781Y0175024D01*
X0082913Y0174706D01*
X0083088Y0174410D01*
X0083116Y0174216D01*
X0083191Y0174035D01*
X0083191Y0173691D01*
X0083239Y0173351D01*
X0083191Y0173161D01*
X0083191Y0129965D01*
X0082781Y0128976D01*
X0082024Y0128219D01*
X0081035Y0127809D01*
X0070614Y0127809D01*
X0063024Y0120219D01*
X0064126Y0121321D02*
X0070378Y0121321D01*
X0070986Y0122320D02*
X0065125Y0122320D01*
X0066123Y0123318D02*
X0072100Y0123318D01*
X0074000Y0123318D02*
X0075000Y0123318D01*
X0075000Y0122320D02*
X0074000Y0122320D01*
X0074000Y0121321D02*
X0075000Y0121321D01*
X0075000Y0120323D02*
X0074000Y0120323D01*
X0074000Y0119324D02*
X0003968Y0119324D01*
X0003968Y0120323D02*
X0059872Y0120323D01*
X0059076Y0121321D02*
X0003968Y0121321D01*
X0003968Y0122320D02*
X0058809Y0122320D01*
X0058927Y0123318D02*
X0003968Y0123318D01*
X0003968Y0124317D02*
X0059512Y0124317D01*
X0060510Y0125315D02*
X0003968Y0125315D01*
X0003968Y0126314D02*
X0061509Y0126314D01*
X0062507Y0127312D02*
X0003968Y0127312D01*
X0003968Y0128311D02*
X0063506Y0128311D01*
X0064504Y0129309D02*
X0003968Y0129309D01*
X0003968Y0130308D02*
X0065503Y0130308D01*
X0066501Y0131306D02*
X0032655Y0131306D01*
X0032898Y0131407D02*
X0033593Y0132102D01*
X0033968Y0133009D01*
X0033968Y0133991D01*
X0033593Y0134898D01*
X0032898Y0135593D01*
X0031991Y0135968D01*
X0031009Y0135968D01*
X0030102Y0135593D01*
X0029407Y0134898D01*
X0029031Y0133991D01*
X0029031Y0133009D01*
X0029407Y0132102D01*
X0030102Y0131407D01*
X0031009Y0131031D01*
X0031991Y0131031D01*
X0032898Y0131407D01*
X0033677Y0132305D02*
X0067500Y0132305D01*
X0070117Y0127312D02*
X0122746Y0127312D01*
X0122332Y0126314D02*
X0069119Y0126314D01*
X0068120Y0125315D02*
X0122031Y0125315D01*
X0122031Y0124317D02*
X0067122Y0124317D01*
X0074000Y0118326D02*
X0075000Y0118326D01*
X0075000Y0119324D02*
X0080409Y0119324D01*
X0080409Y0118686D02*
X0081032Y0117183D01*
X0082183Y0116032D01*
X0083686Y0115409D01*
X0085314Y0115409D01*
X0086817Y0116032D01*
X0087968Y0117183D01*
X0088591Y0118686D01*
X0088591Y0120314D01*
X0087968Y0121817D01*
X0086817Y0122968D01*
X0085314Y0123591D01*
X0083686Y0123591D01*
X0082183Y0122968D01*
X0081032Y0121817D01*
X0080409Y0120314D01*
X0080409Y0118686D01*
X0080559Y0118326D02*
X0078850Y0118326D01*
X0078443Y0117327D02*
X0080972Y0117327D01*
X0081886Y0116329D02*
X0077693Y0116329D01*
X0075000Y0116329D02*
X0074000Y0116329D01*
X0074000Y0117327D02*
X0075000Y0117327D01*
X0076880Y0113333D02*
X0083065Y0113333D01*
X0081550Y0112335D02*
X0078003Y0112335D01*
X0078615Y0111336D02*
X0080833Y0111336D01*
X0080419Y0110338D02*
X0078923Y0110338D01*
X0085935Y0113333D02*
X0093065Y0113333D01*
X0093686Y0113591D02*
X0092183Y0112968D01*
X0091032Y0111817D01*
X0090409Y0110314D01*
X0090409Y0108686D01*
X0091032Y0107183D01*
X0092183Y0106032D01*
X0093686Y0105409D01*
X0095314Y0105409D01*
X0096817Y0106032D01*
X0097968Y0107183D01*
X0098591Y0108686D01*
X0098591Y0110314D01*
X0097968Y0111817D01*
X0096817Y0112968D01*
X0095314Y0113591D01*
X0093686Y0113591D01*
X0093686Y0115409D02*
X0095314Y0115409D01*
X0096817Y0116032D01*
X0097968Y0117183D01*
X0098591Y0118686D01*
X0098591Y0120314D01*
X0097968Y0121817D01*
X0096817Y0122968D01*
X0095314Y0123591D01*
X0093686Y0123591D01*
X0092183Y0122968D01*
X0091032Y0121817D01*
X0090409Y0120314D01*
X0090409Y0118686D01*
X0091032Y0117183D01*
X0092183Y0116032D01*
X0093686Y0115409D01*
X0091886Y0116329D02*
X0087114Y0116329D01*
X0088028Y0117327D02*
X0090972Y0117327D01*
X0090559Y0118326D02*
X0088441Y0118326D01*
X0088591Y0119324D02*
X0090409Y0119324D01*
X0090413Y0120323D02*
X0088587Y0120323D01*
X0088173Y0121321D02*
X0090827Y0121321D01*
X0091535Y0122320D02*
X0087465Y0122320D01*
X0085971Y0123318D02*
X0093029Y0123318D01*
X0095971Y0123318D02*
X0103029Y0123318D01*
X0101535Y0122320D02*
X0097465Y0122320D01*
X0098173Y0121321D02*
X0100827Y0121321D01*
X0100413Y0120323D02*
X0098587Y0120323D01*
X0098591Y0119324D02*
X0100409Y0119324D01*
X0100559Y0118326D02*
X0098441Y0118326D01*
X0098028Y0117327D02*
X0100972Y0117327D01*
X0101886Y0116329D02*
X0097114Y0116329D01*
X0095935Y0113333D02*
X0103065Y0113333D01*
X0101550Y0112335D02*
X0097450Y0112335D01*
X0098167Y0111336D02*
X0100833Y0111336D01*
X0100419Y0110338D02*
X0098581Y0110338D01*
X0098591Y0109339D02*
X0100409Y0109339D01*
X0100553Y0108341D02*
X0098447Y0108341D01*
X0098034Y0107342D02*
X0100966Y0107342D01*
X0101871Y0106344D02*
X0097129Y0106344D01*
X0091871Y0106344D02*
X0087129Y0106344D01*
X0088034Y0107342D02*
X0090966Y0107342D01*
X0090553Y0108341D02*
X0088447Y0108341D01*
X0088591Y0109339D02*
X0090409Y0109339D01*
X0090419Y0110338D02*
X0088581Y0110338D01*
X0088167Y0111336D02*
X0090833Y0111336D01*
X0091550Y0112335D02*
X0087450Y0112335D01*
X0080413Y0120323D02*
X0078926Y0120323D01*
X0078622Y0121321D02*
X0080827Y0121321D01*
X0081535Y0122320D02*
X0078014Y0122320D01*
X0076900Y0123318D02*
X0083029Y0123318D01*
X0082116Y0128311D02*
X0123577Y0128311D01*
X0124821Y0129309D02*
X0100165Y0129309D01*
X0100227Y0129330D02*
X0100859Y0129651D01*
X0101432Y0130068D01*
X0101932Y0130568D01*
X0102349Y0131141D01*
X0102670Y0131773D01*
X0102889Y0132446D01*
X0102977Y0133000D01*
X0099000Y0133000D01*
X0099000Y0134000D01*
X0098000Y0134000D01*
X0098000Y0137977D01*
X0097446Y0137889D01*
X0096773Y0137670D01*
X0096141Y0137349D01*
X0095568Y0136932D01*
X0095068Y0136432D01*
X0094651Y0135859D01*
X0094330Y0135227D01*
X0094111Y0134554D01*
X0094023Y0134000D01*
X0098000Y0134000D01*
X0098000Y0133000D01*
X0094023Y0133000D01*
X0094111Y0132446D01*
X0094330Y0131773D01*
X0094651Y0131141D01*
X0095068Y0130568D01*
X0095568Y0130068D01*
X0096141Y0129651D01*
X0096773Y0129330D01*
X0097446Y0129111D01*
X0098000Y0129023D01*
X0098000Y0133000D01*
X0099000Y0133000D01*
X0099000Y0129023D01*
X0099554Y0129111D01*
X0100227Y0129330D01*
X0099000Y0129309D02*
X0098000Y0129309D01*
X0098000Y0130308D02*
X0099000Y0130308D01*
X0099000Y0131306D02*
X0098000Y0131306D01*
X0098000Y0132305D02*
X0099000Y0132305D01*
X0099000Y0133303D02*
X0104409Y0133303D01*
X0104409Y0132686D02*
X0105032Y0131183D01*
X0106183Y0130032D01*
X0107686Y0129409D01*
X0109314Y0129409D01*
X0110817Y0130032D01*
X0111968Y0131183D01*
X0112591Y0132686D01*
X0112591Y0134314D01*
X0111968Y0135817D01*
X0110817Y0136968D01*
X0109314Y0137591D01*
X0107686Y0137591D01*
X0106183Y0136968D01*
X0105032Y0135817D01*
X0104409Y0134314D01*
X0104409Y0132686D01*
X0104567Y0132305D02*
X0102843Y0132305D01*
X0102433Y0131306D02*
X0104981Y0131306D01*
X0105907Y0130308D02*
X0101672Y0130308D01*
X0098000Y0133303D02*
X0092591Y0133303D01*
X0092591Y0132686D02*
X0091968Y0131183D01*
X0090817Y0130032D01*
X0089314Y0129409D01*
X0087686Y0129409D01*
X0086183Y0130032D01*
X0085032Y0131183D01*
X0084409Y0132686D01*
X0084409Y0134314D01*
X0085032Y0135817D01*
X0086183Y0136968D01*
X0087686Y0137591D01*
X0089314Y0137591D01*
X0090817Y0136968D01*
X0091968Y0135817D01*
X0092591Y0134314D01*
X0092591Y0132686D01*
X0092433Y0132305D02*
X0094157Y0132305D01*
X0094567Y0131306D02*
X0092019Y0131306D01*
X0091093Y0130308D02*
X0095328Y0130308D01*
X0096835Y0129309D02*
X0082919Y0129309D01*
X0083191Y0130308D02*
X0085907Y0130308D01*
X0084981Y0131306D02*
X0083191Y0131306D01*
X0083191Y0132305D02*
X0084567Y0132305D01*
X0084409Y0133303D02*
X0083191Y0133303D01*
X0083191Y0134302D02*
X0084409Y0134302D01*
X0084818Y0135301D02*
X0083191Y0135301D01*
X0083191Y0136299D02*
X0085514Y0136299D01*
X0086979Y0137298D02*
X0083191Y0137298D01*
X0083191Y0138296D02*
X0282496Y0138296D01*
X0282496Y0137298D02*
X0110021Y0137298D01*
X0111486Y0136299D02*
X0282496Y0136299D01*
X0282496Y0135301D02*
X0112182Y0135301D01*
X0112591Y0134302D02*
X0282496Y0134302D01*
X0282496Y0133303D02*
X0112591Y0133303D01*
X0112433Y0132305D02*
X0282496Y0132305D01*
X0282496Y0131306D02*
X0112019Y0131306D01*
X0111093Y0130308D02*
X0282496Y0130308D01*
X0282496Y0129309D02*
X0140179Y0129309D01*
X0141423Y0128311D02*
X0282496Y0128311D01*
X0282496Y0127312D02*
X0142254Y0127312D01*
X0142668Y0126314D02*
X0282496Y0126314D01*
X0282496Y0125315D02*
X0142968Y0125315D01*
X0142968Y0124317D02*
X0282496Y0124317D01*
X0282496Y0123318D02*
X0142930Y0123318D01*
X0142516Y0122320D02*
X0282496Y0122320D01*
X0282496Y0121321D02*
X0142055Y0121321D01*
X0141056Y0120323D02*
X0282496Y0120323D01*
X0282496Y0119324D02*
X0139295Y0119324D01*
X0138953Y0118326D02*
X0282496Y0118326D01*
X0282496Y0117327D02*
X0140458Y0117327D01*
X0141170Y0116329D02*
X0282496Y0116329D01*
X0282496Y0115330D02*
X0141584Y0115330D01*
X0141591Y0114332D02*
X0282496Y0114332D01*
X0282496Y0113333D02*
X0141444Y0113333D01*
X0141031Y0112335D02*
X0282496Y0112335D01*
X0282496Y0089369D02*
X0221812Y0089369D01*
X0221968Y0088370D02*
X0282496Y0088370D01*
X0282496Y0087372D02*
X0221705Y0087372D01*
X0220817Y0086373D02*
X0282496Y0086373D01*
X0282496Y0085375D02*
X0149288Y0085375D01*
X0147112Y0085375D02*
X0131588Y0085375D01*
X0131772Y0086373D02*
X0146114Y0086373D01*
X0145928Y0087372D02*
X0131772Y0087372D01*
X0130842Y0088370D02*
X0145928Y0088370D01*
X0146856Y0089369D02*
X0097599Y0089369D01*
X0114589Y0084376D02*
X0116411Y0084376D01*
X0126842Y0088370D02*
X0128158Y0088370D01*
X0110940Y0072394D02*
X0282496Y0072394D01*
X0282496Y0071396D02*
X0111838Y0071396D01*
X0112252Y0070397D02*
X0204906Y0070397D01*
X0205102Y0070593D02*
X0204407Y0069898D01*
X0204031Y0068991D01*
X0204031Y0068009D01*
X0204407Y0067102D01*
X0205102Y0066407D01*
X0206009Y0066031D01*
X0206991Y0066031D01*
X0207898Y0066407D01*
X0208593Y0067102D01*
X0208968Y0068009D01*
X0208968Y0068991D01*
X0208593Y0069898D01*
X0207898Y0070593D01*
X0206991Y0070968D01*
X0206009Y0070968D01*
X0205102Y0070593D01*
X0204200Y0069399D02*
X0112323Y0069399D01*
X0112168Y0068400D02*
X0204031Y0068400D01*
X0204283Y0067402D02*
X0111736Y0067402D01*
X0110734Y0066403D02*
X0205111Y0066403D01*
X0207888Y0066403D02*
X0221111Y0066403D01*
X0221102Y0066407D02*
X0222009Y0066031D01*
X0222991Y0066031D01*
X0223898Y0066407D01*
X0224593Y0067102D01*
X0224968Y0068009D01*
X0224968Y0068991D01*
X0224593Y0069898D01*
X0223898Y0070593D01*
X0222991Y0070968D01*
X0222009Y0070968D01*
X0221102Y0070593D01*
X0220407Y0069898D01*
X0220031Y0068991D01*
X0220031Y0068009D01*
X0220407Y0067102D01*
X0221102Y0066407D01*
X0220283Y0067402D02*
X0208717Y0067402D01*
X0208968Y0068400D02*
X0220031Y0068400D01*
X0220200Y0069399D02*
X0208800Y0069399D01*
X0208094Y0070397D02*
X0220906Y0070397D01*
X0224094Y0070397D02*
X0282496Y0070397D01*
X0282496Y0069399D02*
X0224800Y0069399D01*
X0224968Y0068400D02*
X0282496Y0068400D01*
X0282496Y0067402D02*
X0224717Y0067402D01*
X0223888Y0066403D02*
X0282496Y0066403D01*
X0282496Y0073393D02*
X0003968Y0073393D01*
X0003968Y0074391D02*
X0272243Y0074391D01*
X0276623Y0074391D02*
X0282496Y0074391D01*
X0282496Y0075390D02*
X0277876Y0075390D01*
X0278574Y0076388D02*
X0282496Y0076388D01*
X0282496Y0077387D02*
X0278988Y0077387D01*
X0279067Y0078385D02*
X0282496Y0078385D01*
X0282496Y0079384D02*
X0279067Y0079384D01*
X0278669Y0080382D02*
X0282496Y0080382D01*
X0282496Y0081381D02*
X0278105Y0081381D01*
X0277107Y0082379D02*
X0282496Y0082379D01*
X0258000Y0048430D02*
X0257000Y0048430D01*
X0257000Y0047432D02*
X0258000Y0047432D01*
X0258000Y0046433D02*
X0257000Y0046433D01*
X0261886Y0043437D02*
X0282496Y0043437D01*
X0282496Y0042439D02*
X0261500Y0042439D01*
X0260804Y0041440D02*
X0282496Y0041440D01*
X0282496Y0040442D02*
X0259448Y0040442D01*
X0256335Y0038445D02*
X0248665Y0038445D01*
X0250338Y0037446D02*
X0254662Y0037446D01*
X0253879Y0036448D02*
X0251121Y0036448D01*
X0251534Y0035449D02*
X0253466Y0035449D01*
X0253409Y0034451D02*
X0251591Y0034451D01*
X0251494Y0033452D02*
X0253506Y0033452D01*
X0253920Y0032454D02*
X0251080Y0032454D01*
X0250240Y0031455D02*
X0254760Y0031455D01*
X0275252Y0023467D02*
X0282496Y0023467D01*
X0282496Y0022469D02*
X0276687Y0022469D01*
X0277663Y0021470D02*
X0282496Y0021470D01*
X0282496Y0020472D02*
X0278391Y0020472D01*
X0278938Y0019473D02*
X0282496Y0019473D01*
X0282496Y0018475D02*
X0279338Y0018475D01*
X0279605Y0017476D02*
X0282496Y0017476D01*
X0282496Y0016478D02*
X0279743Y0016478D01*
X0231030Y0015479D02*
X0217970Y0015479D01*
X0217898Y0015407D02*
X0218593Y0016102D01*
X0218968Y0017009D01*
X0218968Y0017991D01*
X0218593Y0018898D01*
X0217898Y0019593D01*
X0216991Y0019968D01*
X0216009Y0019968D01*
X0215102Y0019593D01*
X0214407Y0018898D01*
X0214031Y0017991D01*
X0214031Y0017009D01*
X0214407Y0016102D01*
X0215102Y0015407D01*
X0216009Y0015031D01*
X0216991Y0015031D01*
X0217898Y0015407D01*
X0218748Y0016478D02*
X0230252Y0016478D01*
X0230031Y0017476D02*
X0218968Y0017476D01*
X0218768Y0018475D02*
X0230232Y0018475D01*
X0230982Y0019473D02*
X0218018Y0019473D01*
X0214982Y0019473D02*
X0129018Y0019473D01*
X0129768Y0018475D02*
X0214232Y0018475D01*
X0214031Y0017476D02*
X0129968Y0017476D01*
X0129748Y0016478D02*
X0214252Y0016478D01*
X0215030Y0015479D02*
X0128970Y0015479D01*
X0129010Y0014481D02*
X0210990Y0014481D01*
X0211102Y0014593D02*
X0210407Y0013898D01*
X0210031Y0012991D01*
X0210031Y0012009D01*
X0210407Y0011102D01*
X0211102Y0010407D01*
X0212009Y0010031D01*
X0212991Y0010031D01*
X0213898Y0010407D01*
X0214593Y0011102D01*
X0214968Y0012009D01*
X0214968Y0012991D01*
X0214593Y0013898D01*
X0213898Y0014593D01*
X0212991Y0014968D01*
X0212009Y0014968D01*
X0211102Y0014593D01*
X0210235Y0013482D02*
X0129765Y0013482D01*
X0129968Y0012484D02*
X0210031Y0012484D01*
X0210248Y0011485D02*
X0129752Y0011485D01*
X0128978Y0010487D02*
X0211022Y0010487D01*
X0213978Y0010487D02*
X0231022Y0010487D01*
X0230248Y0011485D02*
X0214752Y0011485D01*
X0214968Y0012484D02*
X0230031Y0012484D01*
X0230235Y0013482D02*
X0214765Y0013482D01*
X0214010Y0014481D02*
X0230990Y0014481D01*
X0214350Y0043437D02*
X0214050Y0043437D01*
X0210350Y0043437D02*
X0210150Y0043437D01*
X0206450Y0043437D02*
X0206150Y0043437D01*
X0205880Y0046433D02*
X0206720Y0046433D01*
X0209880Y0046433D02*
X0210620Y0046433D01*
X0213780Y0046433D02*
X0214620Y0046433D01*
X0137238Y0008490D02*
X0021063Y0008490D01*
X0019386Y0007491D02*
X0137031Y0007491D01*
X0126022Y0010487D02*
X0107978Y0010487D01*
X0108752Y0011485D02*
X0125248Y0011485D01*
X0125031Y0012484D02*
X0108968Y0012484D01*
X0108765Y0013482D02*
X0125235Y0013482D01*
X0109332Y0031455D02*
X0108068Y0031455D01*
X0105332Y0031455D02*
X0104168Y0031455D01*
X0101432Y0031455D02*
X0100168Y0031455D01*
X0053883Y0082379D02*
X0038559Y0082379D01*
X0038627Y0082407D02*
X0039321Y0083102D01*
X0039697Y0084009D01*
X0039697Y0084991D01*
X0039321Y0085898D01*
X0038627Y0086593D01*
X0037719Y0086968D01*
X0036737Y0086968D01*
X0035830Y0086593D01*
X0035136Y0085898D01*
X0034760Y0084991D01*
X0034760Y0084009D01*
X0035136Y0083102D01*
X0035830Y0082407D01*
X0036737Y0082031D01*
X0037719Y0082031D01*
X0038627Y0082407D01*
X0039435Y0083378D02*
X0053438Y0083378D01*
X0053274Y0084376D02*
X0039697Y0084376D01*
X0039538Y0085375D02*
X0053336Y0085375D01*
X0053749Y0086373D02*
X0038846Y0086373D01*
X0035611Y0086373D02*
X0029397Y0086373D01*
X0030089Y0085375D02*
X0034919Y0085375D01*
X0034760Y0084376D02*
X0030248Y0084376D01*
X0029987Y0083378D02*
X0035021Y0083378D01*
X0035897Y0082379D02*
X0029111Y0082379D01*
X0025311Y0084376D02*
X0017824Y0084376D01*
X0018706Y0085375D02*
X0025470Y0085375D01*
X0026162Y0086373D02*
X0018968Y0086373D01*
X0018811Y0087372D02*
X0054634Y0087372D01*
X0105971Y0123318D02*
X0122070Y0123318D01*
X0122484Y0122320D02*
X0107465Y0122320D01*
X0108173Y0121321D02*
X0122945Y0121321D01*
X0123944Y0120323D02*
X0108587Y0120323D01*
X0104409Y0134302D02*
X0102929Y0134302D01*
X0102889Y0134554D02*
X0102670Y0135227D01*
X0102349Y0135859D01*
X0101932Y0136432D01*
X0101432Y0136932D01*
X0100859Y0137349D01*
X0100227Y0137670D01*
X0099554Y0137889D01*
X0099000Y0137977D01*
X0099000Y0134000D01*
X0102977Y0134000D01*
X0102889Y0134554D01*
X0102633Y0135301D02*
X0104818Y0135301D01*
X0105514Y0136299D02*
X0102029Y0136299D01*
X0100929Y0137298D02*
X0106979Y0137298D01*
X0099000Y0137298D02*
X0098000Y0137298D01*
X0098000Y0136299D02*
X0099000Y0136299D01*
X0099000Y0135301D02*
X0098000Y0135301D01*
X0098000Y0134302D02*
X0099000Y0134302D01*
X0096071Y0137298D02*
X0090021Y0137298D01*
X0091486Y0136299D02*
X0094971Y0136299D01*
X0094367Y0135301D02*
X0092182Y0135301D01*
X0092591Y0134302D02*
X0094071Y0134302D01*
X0083191Y0139295D02*
X0282496Y0139295D01*
X0282496Y0140293D02*
X0083191Y0140293D01*
X0083191Y0141292D02*
X0282496Y0141292D01*
X0282496Y0142290D02*
X0151929Y0142290D01*
X0152374Y0142474D02*
X0153833Y0143933D01*
X0154622Y0145839D01*
X0154622Y0147901D01*
X0153833Y0149807D01*
X0152374Y0151266D01*
X0150468Y0152055D01*
X0148406Y0152055D01*
X0146500Y0151266D01*
X0145500Y0150266D01*
X0144500Y0151266D01*
X0142594Y0152055D01*
X0140532Y0152055D01*
X0138626Y0151266D01*
X0137167Y0149807D01*
X0136378Y0147901D01*
X0136378Y0145839D01*
X0137167Y0143933D01*
X0138626Y0142474D01*
X0140532Y0141685D01*
X0142594Y0141685D01*
X0144500Y0142474D01*
X0145500Y0143474D01*
X0146500Y0142474D01*
X0148406Y0141685D01*
X0150468Y0141685D01*
X0152374Y0142474D01*
X0153188Y0143289D02*
X0157978Y0143289D01*
X0158522Y0143063D02*
X0160037Y0143063D01*
X0161436Y0143643D01*
X0162507Y0144714D01*
X0163087Y0146113D01*
X0163087Y0147627D01*
X0162507Y0149027D01*
X0161436Y0150098D01*
X0160037Y0150677D01*
X0158522Y0150677D01*
X0157123Y0150098D01*
X0156052Y0149027D01*
X0155472Y0147627D01*
X0155472Y0146113D01*
X0156052Y0144714D01*
X0157123Y0143643D01*
X0158522Y0143063D01*
X0160581Y0143289D02*
X0282496Y0143289D01*
X0282496Y0144287D02*
X0162081Y0144287D01*
X0162744Y0145286D02*
X0282496Y0145286D01*
X0282496Y0146284D02*
X0163087Y0146284D01*
X0163087Y0147283D02*
X0282496Y0147283D01*
X0282496Y0148281D02*
X0162816Y0148281D01*
X0162254Y0149280D02*
X0282496Y0149280D01*
X0282496Y0150278D02*
X0173756Y0150278D01*
X0172875Y0149913D02*
X0175664Y0151068D01*
X0177798Y0153203D01*
X0178953Y0155991D01*
X0178953Y0159009D01*
X0177798Y0161797D01*
X0175664Y0163932D01*
X0172875Y0165087D01*
X0169857Y0165087D01*
X0167069Y0163932D01*
X0164935Y0161797D01*
X0163780Y0159009D01*
X0163780Y0155991D01*
X0164935Y0153203D01*
X0167069Y0151068D01*
X0169857Y0149913D01*
X0172875Y0149913D01*
X0175872Y0151277D02*
X0282496Y0151277D01*
X0282496Y0152275D02*
X0176870Y0152275D01*
X0177827Y0153274D02*
X0282496Y0153274D01*
X0282496Y0154272D02*
X0178241Y0154272D01*
X0178654Y0155271D02*
X0282496Y0155271D01*
X0282496Y0156269D02*
X0178953Y0156269D01*
X0178953Y0157268D02*
X0282496Y0157268D01*
X0282496Y0158266D02*
X0178953Y0158266D01*
X0178847Y0159265D02*
X0282496Y0159265D01*
X0282496Y0160263D02*
X0178433Y0160263D01*
X0178020Y0161262D02*
X0282496Y0161262D01*
X0282496Y0162260D02*
X0177335Y0162260D01*
X0176336Y0163259D02*
X0282496Y0163259D01*
X0282496Y0164257D02*
X0174877Y0164257D01*
X0167855Y0164257D02*
X0123145Y0164257D01*
X0123931Y0163932D02*
X0121143Y0165087D01*
X0118125Y0165087D01*
X0115336Y0163932D01*
X0113202Y0161797D01*
X0112047Y0159009D01*
X0112047Y0155991D01*
X0113202Y0153203D01*
X0115336Y0151068D01*
X0118125Y0149913D01*
X0121143Y0149913D01*
X0123931Y0151068D01*
X0126065Y0153203D01*
X0127220Y0155991D01*
X0127220Y0159009D01*
X0126065Y0161797D01*
X0123931Y0163932D01*
X0124604Y0163259D02*
X0166396Y0163259D01*
X0165397Y0162260D02*
X0125603Y0162260D01*
X0126287Y0161262D02*
X0164713Y0161262D01*
X0164299Y0160263D02*
X0126701Y0160263D01*
X0127115Y0159265D02*
X0163885Y0159265D01*
X0163780Y0158266D02*
X0127220Y0158266D01*
X0127220Y0157268D02*
X0163780Y0157268D01*
X0163780Y0156269D02*
X0127220Y0156269D01*
X0126922Y0155271D02*
X0164078Y0155271D01*
X0164491Y0154272D02*
X0126509Y0154272D01*
X0126095Y0153274D02*
X0164905Y0153274D01*
X0165862Y0152275D02*
X0125138Y0152275D01*
X0124140Y0151277D02*
X0138652Y0151277D01*
X0137638Y0150278D02*
X0134203Y0150278D01*
X0134467Y0150086D02*
X0133930Y0150476D01*
X0133339Y0150778D01*
X0132708Y0150983D01*
X0132126Y0151075D01*
X0132126Y0147276D01*
X0131315Y0147276D01*
X0131315Y0151075D01*
X0130733Y0150983D01*
X0130102Y0150778D01*
X0129511Y0150476D01*
X0128974Y0150086D01*
X0128504Y0149617D01*
X0128114Y0149080D01*
X0127813Y0148489D01*
X0127608Y0147857D01*
X0127516Y0147276D01*
X0131315Y0147276D01*
X0131315Y0146465D01*
X0127516Y0146465D01*
X0127608Y0145883D01*
X0127813Y0145251D01*
X0128114Y0144660D01*
X0128504Y0144123D01*
X0128974Y0143654D01*
X0129511Y0143264D01*
X0130102Y0142962D01*
X0130733Y0142757D01*
X0131315Y0142665D01*
X0131315Y0146464D01*
X0132126Y0146464D01*
X0132126Y0142665D01*
X0132708Y0142757D01*
X0133339Y0142962D01*
X0133930Y0143264D01*
X0134467Y0143654D01*
X0134937Y0144123D01*
X0135327Y0144660D01*
X0135628Y0145251D01*
X0135833Y0145883D01*
X0135925Y0146465D01*
X0132126Y0146465D01*
X0132126Y0147276D01*
X0135925Y0147276D01*
X0135833Y0147857D01*
X0135628Y0148489D01*
X0135327Y0149080D01*
X0134937Y0149617D01*
X0134467Y0150086D01*
X0135182Y0149280D02*
X0136949Y0149280D01*
X0136535Y0148281D02*
X0135695Y0148281D01*
X0135924Y0147283D02*
X0136378Y0147283D01*
X0136378Y0146284D02*
X0135897Y0146284D01*
X0135639Y0145286D02*
X0136607Y0145286D01*
X0137021Y0144287D02*
X0135056Y0144287D01*
X0133965Y0143289D02*
X0137812Y0143289D01*
X0139071Y0142290D02*
X0083191Y0142290D01*
X0083191Y0143289D02*
X0129476Y0143289D01*
X0128385Y0144287D02*
X0083191Y0144287D01*
X0083191Y0145286D02*
X0127802Y0145286D01*
X0127544Y0146284D02*
X0083191Y0146284D01*
X0083191Y0147283D02*
X0127517Y0147283D01*
X0127745Y0148281D02*
X0083191Y0148281D01*
X0083191Y0149280D02*
X0128259Y0149280D01*
X0129238Y0150278D02*
X0122024Y0150278D01*
X0117244Y0150278D02*
X0083191Y0150278D01*
X0083191Y0151277D02*
X0115128Y0151277D01*
X0114130Y0152275D02*
X0083191Y0152275D01*
X0083191Y0153274D02*
X0113173Y0153274D01*
X0112759Y0154272D02*
X0083191Y0154272D01*
X0083191Y0155271D02*
X0112346Y0155271D01*
X0112047Y0156269D02*
X0083191Y0156269D01*
X0083191Y0157268D02*
X0112047Y0157268D01*
X0112047Y0158266D02*
X0083191Y0158266D01*
X0083191Y0159265D02*
X0112153Y0159265D01*
X0112567Y0160263D02*
X0083191Y0160263D01*
X0083191Y0161262D02*
X0112980Y0161262D01*
X0113665Y0162260D02*
X0083191Y0162260D01*
X0083191Y0163259D02*
X0114664Y0163259D01*
X0116123Y0164257D02*
X0083191Y0164257D01*
X0083191Y0165256D02*
X0282496Y0165256D01*
X0282496Y0166254D02*
X0083191Y0166254D01*
X0083191Y0167253D02*
X0282496Y0167253D01*
X0282496Y0168251D02*
X0083191Y0168251D01*
X0083191Y0169250D02*
X0282496Y0169250D01*
X0282496Y0170248D02*
X0083191Y0170248D01*
X0083191Y0171247D02*
X0282496Y0171247D01*
X0282496Y0172245D02*
X0083191Y0172245D01*
X0083212Y0173244D02*
X0282496Y0173244D01*
X0282496Y0174242D02*
X0083112Y0174242D01*
X0082596Y0175241D02*
X0261403Y0175241D01*
X0261738Y0175197D02*
X0261827Y0175197D01*
X0261827Y0183677D01*
X0262827Y0183677D01*
X0262827Y0184677D01*
X0271307Y0184677D01*
X0271307Y0184766D01*
X0271153Y0185933D01*
X0270849Y0187070D01*
X0270398Y0188158D01*
X0269810Y0189177D01*
X0269093Y0190111D01*
X0268261Y0190943D01*
X0267327Y0191660D01*
X0266307Y0192249D01*
X0265220Y0192699D01*
X0264083Y0193004D01*
X0262915Y0193157D01*
X0262827Y0193157D01*
X0262827Y0184677D01*
X0261827Y0184677D01*
X0261827Y0193157D01*
X0261738Y0193157D01*
X0260571Y0193004D01*
X0259434Y0192699D01*
X0258346Y0192249D01*
X0257327Y0191660D01*
X0256393Y0190943D01*
X0255561Y0190111D01*
X0254844Y0189177D01*
X0254255Y0188158D01*
X0253805Y0187070D01*
X0253500Y0185933D01*
X0253346Y0184766D01*
X0253346Y0184677D01*
X0261827Y0184677D01*
X0261827Y0183677D01*
X0253346Y0183677D01*
X0253346Y0183589D01*
X0253500Y0182421D01*
X0253805Y0181284D01*
X0254255Y0180197D01*
X0254844Y0179177D01*
X0255561Y0178243D01*
X0256393Y0177411D01*
X0257327Y0176694D01*
X0258346Y0176106D01*
X0259434Y0175655D01*
X0260571Y0175351D01*
X0261738Y0175197D01*
X0261827Y0175241D02*
X0262827Y0175241D01*
X0262827Y0175197D02*
X0262915Y0175197D01*
X0264083Y0175351D01*
X0265220Y0175655D01*
X0266307Y0176106D01*
X0267327Y0176694D01*
X0268261Y0177411D01*
X0269093Y0178243D01*
X0269810Y0179177D01*
X0270398Y0180197D01*
X0270849Y0181284D01*
X0271153Y0182421D01*
X0271307Y0183589D01*
X0271307Y0183677D01*
X0262827Y0183677D01*
X0262827Y0175197D01*
X0263250Y0175241D02*
X0282496Y0175241D01*
X0282496Y0176239D02*
X0266539Y0176239D01*
X0268035Y0177238D02*
X0282496Y0177238D01*
X0282496Y0178237D02*
X0269086Y0178237D01*
X0269843Y0179235D02*
X0282496Y0179235D01*
X0282496Y0180234D02*
X0270413Y0180234D01*
X0270827Y0181232D02*
X0282496Y0181232D01*
X0282496Y0182231D02*
X0271102Y0182231D01*
X0271260Y0183229D02*
X0282496Y0183229D01*
X0282493Y0184228D02*
X0262827Y0184228D01*
X0262827Y0185226D02*
X0261827Y0185226D01*
X0261827Y0184228D02*
X0102647Y0184228D01*
X0102890Y0184813D02*
X0102364Y0183544D01*
X0101393Y0182573D01*
X0100124Y0182047D01*
X0098750Y0182047D01*
X0097481Y0182573D01*
X0096510Y0183544D01*
X0095984Y0184813D01*
X0095984Y0186187D01*
X0096510Y0187456D01*
X0097481Y0188427D01*
X0098750Y0188953D01*
X0100124Y0188953D01*
X0101393Y0188427D01*
X0102364Y0187456D01*
X0102890Y0186187D01*
X0102890Y0184813D01*
X0102890Y0185226D02*
X0253407Y0185226D01*
X0253578Y0186225D02*
X0102874Y0186225D01*
X0102460Y0187223D02*
X0253868Y0187223D01*
X0254292Y0188222D02*
X0101598Y0188222D01*
X0097276Y0188222D02*
X0094303Y0188222D01*
X0094563Y0187962D02*
X0094025Y0188500D01*
X0093392Y0188923D01*
X0092690Y0189214D01*
X0091943Y0189362D01*
X0091850Y0189362D01*
X0091850Y0185787D01*
X0095425Y0185787D01*
X0095425Y0185880D01*
X0095277Y0186627D01*
X0094986Y0187329D01*
X0094563Y0187962D01*
X0095030Y0187223D02*
X0096414Y0187223D01*
X0096000Y0186225D02*
X0095357Y0186225D01*
X0095425Y0185213D02*
X0091850Y0185213D01*
X0091850Y0185787D01*
X0091276Y0185787D01*
X0091276Y0185213D01*
X0091850Y0185213D01*
X0091850Y0181638D01*
X0091943Y0181638D01*
X0092690Y0181786D01*
X0093392Y0182077D01*
X0094025Y0182500D01*
X0094563Y0183038D01*
X0094986Y0183671D01*
X0095277Y0184373D01*
X0095425Y0185120D01*
X0095425Y0185213D01*
X0095984Y0185226D02*
X0091850Y0185226D01*
X0091276Y0185226D02*
X0068700Y0185226D01*
X0068558Y0185226D02*
X0032073Y0185226D01*
X0032134Y0184766D02*
X0031980Y0185933D01*
X0031676Y0187070D01*
X0031225Y0188158D01*
X0030636Y0189177D01*
X0029920Y0190111D01*
X0029087Y0190943D01*
X0028153Y0191660D01*
X0027134Y0192249D01*
X0026046Y0192699D01*
X0024909Y0193004D01*
X0023742Y0193157D01*
X0023654Y0193157D01*
X0023654Y0184677D01*
X0032134Y0184677D01*
X0032134Y0184766D01*
X0032134Y0183677D02*
X0023654Y0183677D01*
X0023654Y0184677D01*
X0022654Y0184677D01*
X0022654Y0193157D01*
X0022565Y0193157D01*
X0021398Y0193004D01*
X0020261Y0192699D01*
X0019173Y0192249D01*
X0018154Y0191660D01*
X0017220Y0190943D01*
X0016387Y0190111D01*
X0015671Y0189177D01*
X0015082Y0188158D01*
X0014632Y0187070D01*
X0014327Y0185933D01*
X0014173Y0184766D01*
X0014173Y0184677D01*
X0022653Y0184677D01*
X0022653Y0183677D01*
X0014173Y0183677D01*
X0014173Y0183589D01*
X0014327Y0182421D01*
X0014632Y0181284D01*
X0015082Y0180197D01*
X0015671Y0179177D01*
X0016387Y0178243D01*
X0017220Y0177411D01*
X0018154Y0176694D01*
X0019173Y0176106D01*
X0020261Y0175655D01*
X0021398Y0175351D01*
X0022565Y0175197D01*
X0022654Y0175197D01*
X0022654Y0183677D01*
X0023654Y0183677D01*
X0023654Y0175197D01*
X0023742Y0175197D01*
X0024909Y0175351D01*
X0026046Y0175655D01*
X0027134Y0176106D01*
X0028153Y0176694D01*
X0029087Y0177411D01*
X0029920Y0178243D01*
X0030636Y0179177D01*
X0031225Y0180197D01*
X0031676Y0181284D01*
X0031980Y0182421D01*
X0032134Y0183589D01*
X0032134Y0183677D01*
X0032087Y0183229D02*
X0065909Y0183229D01*
X0065821Y0182231D02*
X0031929Y0182231D01*
X0031654Y0181232D02*
X0066124Y0181232D01*
X0067038Y0180234D02*
X0031240Y0180234D01*
X0030670Y0179235D02*
X0068369Y0179235D01*
X0066746Y0178237D02*
X0029913Y0178237D01*
X0028862Y0177238D02*
X0066134Y0177238D01*
X0066031Y0176239D02*
X0027366Y0176239D01*
X0024077Y0175241D02*
X0066350Y0175241D01*
X0067500Y0174242D02*
X0003968Y0174242D01*
X0003968Y0173244D02*
X0069136Y0173244D01*
X0069031Y0172991D02*
X0069031Y0172009D01*
X0069407Y0171102D01*
X0070102Y0170407D01*
X0071009Y0170031D01*
X0071991Y0170031D01*
X0072898Y0170407D01*
X0073593Y0171102D01*
X0073968Y0172009D01*
X0073968Y0172991D01*
X0073593Y0173898D01*
X0072898Y0174593D01*
X0071991Y0174968D01*
X0071009Y0174968D01*
X0070102Y0174593D01*
X0069407Y0173898D01*
X0069031Y0172991D01*
X0069031Y0172245D02*
X0003968Y0172245D01*
X0003968Y0171247D02*
X0046756Y0171247D01*
X0047102Y0171593D02*
X0046407Y0170898D01*
X0046031Y0169991D01*
X0046031Y0169009D01*
X0046407Y0168102D01*
X0047102Y0167407D01*
X0048009Y0167031D01*
X0048991Y0167031D01*
X0049898Y0167407D01*
X0050593Y0168102D01*
X0050968Y0169009D01*
X0050968Y0169991D01*
X0050593Y0170898D01*
X0049898Y0171593D01*
X0048991Y0171968D01*
X0048009Y0171968D01*
X0047102Y0171593D01*
X0046138Y0170248D02*
X0003968Y0170248D01*
X0003968Y0169250D02*
X0046031Y0169250D01*
X0046345Y0168251D02*
X0003968Y0168251D01*
X0003968Y0167253D02*
X0047474Y0167253D01*
X0049525Y0167253D02*
X0077809Y0167253D01*
X0077809Y0168251D02*
X0050655Y0168251D01*
X0050968Y0169250D02*
X0077809Y0169250D01*
X0077809Y0170248D02*
X0072515Y0170248D01*
X0073653Y0171247D02*
X0077809Y0171247D01*
X0077688Y0172245D02*
X0073968Y0172245D01*
X0073864Y0173244D02*
X0076357Y0173244D01*
X0075026Y0174242D02*
X0073249Y0174242D01*
X0073694Y0175241D02*
X0070650Y0175241D01*
X0070968Y0176239D02*
X0072363Y0176239D01*
X0071032Y0177238D02*
X0070866Y0177238D01*
X0069751Y0174242D02*
X0069500Y0174242D01*
X0069347Y0171247D02*
X0050244Y0171247D01*
X0050862Y0170248D02*
X0070485Y0170248D01*
X0077809Y0166254D02*
X0003968Y0166254D01*
X0003968Y0165256D02*
X0031765Y0165256D01*
X0032102Y0165593D02*
X0031407Y0164898D01*
X0031031Y0163991D01*
X0031031Y0163009D01*
X0031407Y0162102D01*
X0032102Y0161407D01*
X0033009Y0161031D01*
X0033991Y0161031D01*
X0034898Y0161407D01*
X0035593Y0162102D01*
X0035968Y0163009D01*
X0035968Y0163991D01*
X0035593Y0164898D01*
X0034898Y0165593D01*
X0033991Y0165968D01*
X0033009Y0165968D01*
X0032102Y0165593D01*
X0031142Y0164257D02*
X0003968Y0164257D01*
X0003968Y0163259D02*
X0031031Y0163259D01*
X0031342Y0162260D02*
X0003968Y0162260D01*
X0003968Y0161262D02*
X0032453Y0161262D01*
X0034547Y0161262D02*
X0077809Y0161262D01*
X0077809Y0162260D02*
X0035658Y0162260D01*
X0035968Y0163259D02*
X0077809Y0163259D01*
X0077809Y0164257D02*
X0035858Y0164257D01*
X0035235Y0165256D02*
X0077809Y0165256D01*
X0077809Y0160263D02*
X0003968Y0160263D01*
X0003968Y0159265D02*
X0077809Y0159265D01*
X0077809Y0158266D02*
X0003968Y0158266D01*
X0003968Y0157268D02*
X0031777Y0157268D01*
X0032102Y0157593D02*
X0031407Y0156898D01*
X0031031Y0155991D01*
X0031031Y0155009D01*
X0031407Y0154102D01*
X0032102Y0153407D01*
X0033009Y0153031D01*
X0033991Y0153031D01*
X0034898Y0153407D01*
X0035593Y0154102D01*
X0035968Y0155009D01*
X0035968Y0155991D01*
X0035593Y0156898D01*
X0034898Y0157593D01*
X0033991Y0157968D01*
X0033009Y0157968D01*
X0032102Y0157593D01*
X0031147Y0156269D02*
X0003968Y0156269D01*
X0003968Y0155271D02*
X0031031Y0155271D01*
X0031337Y0154272D02*
X0003968Y0154272D01*
X0003968Y0153274D02*
X0032424Y0153274D01*
X0034576Y0153274D02*
X0077809Y0153274D01*
X0077809Y0154272D02*
X0035663Y0154272D01*
X0035968Y0155271D02*
X0077809Y0155271D01*
X0077809Y0156269D02*
X0035853Y0156269D01*
X0035223Y0157268D02*
X0077809Y0157268D01*
X0077809Y0152275D02*
X0003968Y0152275D01*
X0003968Y0151277D02*
X0077809Y0151277D01*
X0077809Y0150278D02*
X0003968Y0150278D01*
X0003968Y0149280D02*
X0077809Y0149280D01*
X0077809Y0148281D02*
X0003968Y0148281D01*
X0003968Y0147283D02*
X0077809Y0147283D01*
X0077809Y0146284D02*
X0076207Y0146284D01*
X0075898Y0146593D02*
X0074991Y0146968D01*
X0074009Y0146968D01*
X0073102Y0146593D01*
X0072407Y0145898D01*
X0072031Y0144991D01*
X0072031Y0144009D01*
X0072407Y0143102D01*
X0073102Y0142407D01*
X0074009Y0142031D01*
X0074991Y0142031D01*
X0075898Y0142407D01*
X0076593Y0143102D01*
X0076968Y0144009D01*
X0076968Y0144991D01*
X0076593Y0145898D01*
X0075898Y0146593D01*
X0076846Y0145286D02*
X0077809Y0145286D01*
X0077809Y0144287D02*
X0076968Y0144287D01*
X0076670Y0143289D02*
X0077809Y0143289D01*
X0077809Y0142290D02*
X0075615Y0142290D01*
X0073385Y0142290D02*
X0003968Y0142290D01*
X0003968Y0141292D02*
X0077809Y0141292D01*
X0077809Y0140293D02*
X0003968Y0140293D01*
X0003968Y0139295D02*
X0077809Y0139295D01*
X0077809Y0138296D02*
X0003968Y0138296D01*
X0003968Y0137298D02*
X0077809Y0137298D01*
X0077809Y0136299D02*
X0003968Y0136299D01*
X0003968Y0135301D02*
X0029810Y0135301D01*
X0029160Y0134302D02*
X0003968Y0134302D01*
X0003968Y0133303D02*
X0029031Y0133303D01*
X0029323Y0132305D02*
X0003968Y0132305D01*
X0003968Y0131306D02*
X0030345Y0131306D01*
X0033968Y0133303D02*
X0077809Y0133303D01*
X0077809Y0134302D02*
X0033840Y0134302D01*
X0033190Y0135301D02*
X0077809Y0135301D01*
X0072330Y0143289D02*
X0003968Y0143289D01*
X0003968Y0144287D02*
X0072031Y0144287D01*
X0072154Y0145286D02*
X0003968Y0145286D01*
X0003968Y0146284D02*
X0072793Y0146284D01*
X0081332Y0176239D02*
X0258115Y0176239D01*
X0256618Y0177238D02*
X0080000Y0177238D01*
X0078669Y0178237D02*
X0255567Y0178237D01*
X0254811Y0179235D02*
X0077338Y0179235D01*
X0076006Y0180234D02*
X0254240Y0180234D01*
X0253826Y0181232D02*
X0074675Y0181232D01*
X0073344Y0182231D02*
X0089504Y0182231D01*
X0089734Y0182077D02*
X0090436Y0181786D01*
X0091183Y0181638D01*
X0091276Y0181638D01*
X0091276Y0185213D01*
X0087701Y0185213D01*
X0087701Y0185120D01*
X0087849Y0184373D01*
X0088140Y0183671D01*
X0088563Y0183038D01*
X0089101Y0182500D01*
X0089734Y0182077D01*
X0091276Y0182231D02*
X0091850Y0182231D01*
X0091850Y0183229D02*
X0091276Y0183229D01*
X0091276Y0184228D02*
X0091850Y0184228D01*
X0091276Y0185787D02*
X0087701Y0185787D01*
X0087701Y0185880D01*
X0087849Y0186627D01*
X0088140Y0187329D01*
X0088563Y0187962D01*
X0089101Y0188500D01*
X0089734Y0188923D01*
X0090436Y0189214D01*
X0091183Y0189362D01*
X0091276Y0189362D01*
X0091276Y0185787D01*
X0091276Y0186225D02*
X0091850Y0186225D01*
X0091850Y0187223D02*
X0091276Y0187223D01*
X0091276Y0188222D02*
X0091850Y0188222D01*
X0091850Y0189220D02*
X0091276Y0189220D01*
X0090468Y0189220D02*
X0030603Y0189220D01*
X0031188Y0188222D02*
X0088823Y0188222D01*
X0088096Y0187223D02*
X0031612Y0187223D01*
X0031902Y0186225D02*
X0087769Y0186225D01*
X0087910Y0184228D02*
X0070681Y0184228D01*
X0072012Y0183229D02*
X0088435Y0183229D01*
X0093622Y0182231D02*
X0098308Y0182231D01*
X0096825Y0183229D02*
X0094691Y0183229D01*
X0095216Y0184228D02*
X0096227Y0184228D01*
X0100566Y0182231D02*
X0253551Y0182231D01*
X0253394Y0183229D02*
X0102049Y0183229D01*
X0092658Y0189220D02*
X0254877Y0189220D01*
X0255668Y0190219D02*
X0029812Y0190219D01*
X0028731Y0191217D02*
X0256750Y0191217D01*
X0258289Y0192216D02*
X0027191Y0192216D01*
X0023654Y0192216D02*
X0022654Y0192216D01*
X0022654Y0191217D02*
X0023654Y0191217D01*
X0023654Y0190219D02*
X0022654Y0190219D01*
X0022654Y0189220D02*
X0023654Y0189220D01*
X0023654Y0188222D02*
X0022654Y0188222D01*
X0022654Y0187223D02*
X0023654Y0187223D01*
X0023654Y0186225D02*
X0022654Y0186225D01*
X0022654Y0185226D02*
X0023654Y0185226D01*
X0023654Y0184228D02*
X0066432Y0184228D01*
X0023654Y0183229D02*
X0022654Y0183229D01*
X0022654Y0182231D02*
X0023654Y0182231D01*
X0023654Y0181232D02*
X0022654Y0181232D01*
X0022654Y0180234D02*
X0023654Y0180234D01*
X0023654Y0179235D02*
X0022654Y0179235D01*
X0022654Y0178237D02*
X0023654Y0178237D01*
X0023654Y0177238D02*
X0022654Y0177238D01*
X0022654Y0176239D02*
X0023654Y0176239D01*
X0023654Y0175241D02*
X0022654Y0175241D01*
X0022230Y0175241D02*
X0003968Y0175241D01*
X0003968Y0176239D02*
X0018941Y0176239D01*
X0017445Y0177238D02*
X0003968Y0177238D01*
X0003968Y0178237D02*
X0016394Y0178237D01*
X0015637Y0179235D02*
X0003968Y0179235D01*
X0003968Y0180234D02*
X0015067Y0180234D01*
X0014653Y0181232D02*
X0003968Y0181232D01*
X0003968Y0182231D02*
X0014378Y0182231D01*
X0014221Y0183229D02*
X0003968Y0183229D01*
X0003972Y0184228D02*
X0022653Y0184228D01*
X0014405Y0186225D02*
X0004208Y0186225D01*
X0004069Y0185705D02*
X0004069Y0185705D01*
X0004037Y0185226D02*
X0014234Y0185226D01*
X0014695Y0187223D02*
X0004475Y0187223D01*
X0004743Y0188222D02*
X0015119Y0188222D01*
X0015704Y0189220D02*
X0005185Y0189220D01*
X0005761Y0190219D02*
X0016495Y0190219D01*
X0017576Y0191217D02*
X0006338Y0191217D01*
X0007300Y0192216D02*
X0019116Y0192216D01*
X0012016Y0195211D02*
X0274448Y0195211D01*
X0276618Y0194213D02*
X0009846Y0194213D01*
X0008299Y0193214D02*
X0278166Y0193214D01*
X0279164Y0192216D02*
X0266364Y0192216D01*
X0267904Y0191217D02*
X0280127Y0191217D01*
X0280703Y0190219D02*
X0268985Y0190219D01*
X0269777Y0189220D02*
X0281280Y0189220D01*
X0281722Y0188222D02*
X0270361Y0188222D01*
X0270785Y0187223D02*
X0281989Y0187223D01*
X0282257Y0186225D02*
X0271075Y0186225D01*
X0271246Y0185226D02*
X0282427Y0185226D01*
X0262827Y0186225D02*
X0261827Y0186225D01*
X0261827Y0187223D02*
X0262827Y0187223D01*
X0262827Y0188222D02*
X0261827Y0188222D01*
X0261827Y0189220D02*
X0262827Y0189220D01*
X0262827Y0190219D02*
X0261827Y0190219D01*
X0261827Y0191217D02*
X0262827Y0191217D01*
X0262827Y0192216D02*
X0261827Y0192216D01*
X0261827Y0183229D02*
X0262827Y0183229D01*
X0262827Y0182231D02*
X0261827Y0182231D01*
X0261827Y0181232D02*
X0262827Y0181232D01*
X0262827Y0180234D02*
X0261827Y0180234D01*
X0261827Y0179235D02*
X0262827Y0179235D01*
X0262827Y0178237D02*
X0261827Y0178237D01*
X0261827Y0177238D02*
X0262827Y0177238D01*
X0262827Y0176239D02*
X0261827Y0176239D01*
X0168976Y0150278D02*
X0161000Y0150278D01*
X0157559Y0150278D02*
X0153362Y0150278D01*
X0154051Y0149280D02*
X0156305Y0149280D01*
X0155743Y0148281D02*
X0154465Y0148281D01*
X0154622Y0147283D02*
X0155472Y0147283D01*
X0155472Y0146284D02*
X0154622Y0146284D01*
X0154393Y0145286D02*
X0155815Y0145286D01*
X0156478Y0144287D02*
X0153979Y0144287D01*
X0146945Y0142290D02*
X0144055Y0142290D01*
X0145314Y0143289D02*
X0145686Y0143289D01*
X0145488Y0150278D02*
X0145512Y0150278D01*
X0146526Y0151277D02*
X0144474Y0151277D01*
X0152348Y0151277D02*
X0166860Y0151277D01*
X0134821Y0129309D02*
X0130179Y0129309D01*
X0131423Y0128311D02*
X0133577Y0128311D01*
X0132746Y0127312D02*
X0132254Y0127312D01*
X0132126Y0143289D02*
X0131315Y0143289D01*
X0131315Y0144287D02*
X0132126Y0144287D01*
X0132126Y0145286D02*
X0131315Y0145286D01*
X0131315Y0146284D02*
X0132126Y0146284D01*
X0132126Y0147283D02*
X0131315Y0147283D01*
X0131315Y0148281D02*
X0132126Y0148281D01*
X0132126Y0149280D02*
X0131315Y0149280D01*
X0131315Y0150278D02*
X0132126Y0150278D01*
X0006772Y0014481D02*
X0004047Y0014481D01*
X0004246Y0013482D02*
X0006963Y0013482D01*
X0007274Y0012484D02*
X0004514Y0012484D01*
X0004781Y0011485D02*
X0007722Y0011485D01*
X0008334Y0010487D02*
X0005268Y0010487D01*
X0005844Y0009488D02*
X0009158Y0009488D01*
X0010283Y0008490D02*
X0006445Y0008490D01*
X0015173Y0008490D02*
X0016173Y0008490D01*
X0016173Y0009488D02*
X0015173Y0009488D01*
X0015173Y0010487D02*
X0016173Y0010487D01*
X0016173Y0011485D02*
X0015173Y0011485D01*
X0015173Y0012484D02*
X0016173Y0012484D01*
X0016173Y0013482D02*
X0015173Y0013482D01*
X0015173Y0007491D02*
X0016173Y0007491D01*
D18*
X0061500Y0122500D02*
X0069500Y0130500D01*
X0080500Y0130500D01*
X0080500Y0173500D01*
X0068500Y0182500D01*
M02*
