%
M48
M72
T01C0.01181
T02C0.01575
T03C0.02362
T04C0.03150
T05C0.03622
T06C0.04000
T07C0.04331
T08C0.09055
T09C0.11024
%
T01
X27850Y6750
X37850Y6750
X50850Y11750
X59850Y11750
X59850Y18750
X73850Y14750
X86850Y14750
X100850Y11750
X102850Y18750
X102800Y33300
X98800Y33300
X94850Y37750
X90673Y33500
X87327Y33500
X78873Y33500
X75527Y33500
X67073Y33500
X63727Y33500
X53850Y30750
X41850Y29750
X30850Y23750
X24850Y29750
X32850Y40750
X48850Y42750
X57850Y53750
X43850Y54750
X27850Y54750
X12850Y58750
X17450Y69400
X11450Y73400
X16450Y77400
X11450Y84400
X13450Y92400
X16450Y101400
X11450Y113400
X21450Y113400
X33450Y101400
X43450Y109400
X56450Y105400
X65450Y102400
X67450Y114400
X67450Y122400
X56450Y122400
X56450Y129400
X41450Y131400
X26450Y129400
X29500Y145500
X37500Y151500
X44500Y150500
X50450Y143400
X34500Y169500
X45500Y174500
X23500Y168500
X10500Y165500
X6500Y172500
X10500Y192500
X34500Y194500
X45500Y192500
X61500Y192500
X83500Y180500
X91500Y180500
X89500Y193500
X112500Y191500
X127850Y189750
X145850Y174750
X164850Y189750
X188850Y190750
X220850Y190750
X246850Y192750
X274850Y192750
X258850Y169750
X277850Y163750
X247850Y149750
X258850Y137750
X277850Y139750
X258850Y113750
X244850Y104750
X221850Y104750
X198850Y104750
X175850Y86750
X169850Y77750
X157850Y68750
X148200Y87500
X162800Y88250
X171850Y103750
X159500Y118500
X171850Y122750
X159500Y134500
X147500Y126500
X133500Y133500
X144500Y140500
X130500Y159500
X115500Y167500
X102500Y157500
X102500Y152500
X92500Y152500
X92500Y157500
X92450Y140400
X114500Y134500
X117500Y147500
X99450Y122400
X112450Y118400
X119500Y121500
X119500Y110500
X112450Y111400
X116700Y103300
X117500Y86500
X120850Y86750
X125500Y86500
X129500Y86500
X113500Y86500
X108450Y87400
X94423Y87500
X91077Y87500
X73450Y86400
X66450Y86400
X60076Y84500
X56924Y84500
X52450Y87400
X47450Y78400
X53450Y71400
X47450Y69400
X64450Y70400
X72450Y75400
X86450Y69400
X98327Y69500
X101673Y69500
X105327Y69500
X108673Y69500
X115450Y70400
X122450Y72400
X84850Y53750
X106700Y33300
X110700Y33300
X115850Y32750
X140850Y31750
X150850Y24750
X160850Y31750
X165850Y17750
X165850Y11750
X155850Y11750
X145850Y11750
X179850Y14750
X192850Y14750
X206850Y11750
X207850Y18750
X228850Y34750
X216200Y44800
X212200Y44800
X208300Y44800
X204300Y44800
X195850Y48750
X188850Y54750
X180850Y46750
X204850Y54750
X219850Y55750
X230850Y46750
X250850Y26750
X259850Y27750
X279850Y28750
X265850Y47750
X279850Y50750
X278850Y70750
X266850Y70750
X247850Y76750
X239850Y86750
X227850Y70750
X212850Y82750
X191850Y83750
X184850Y68800
X145500Y102500
X195850Y130750
X216850Y139750
X233850Y124750
X275850Y104750
X278850Y87750
X265850Y86750
X171850Y145750
X159500Y159500
X182850Y164750
X206850Y164750
X232850Y166750
X85450Y102400
X41450Y87400
X24450Y87400
X13850Y41750
X6850Y35750
X6850Y27750
X42850Y18750
X249850Y6750
X257850Y6750
T02
X244500Y7500
X232500Y12500
X232500Y17500
X216500Y17500
X212500Y12500
X139500Y7500
X127500Y12500
X127500Y17500
X110500Y17500
X106500Y12500
X197850Y70750
X206500Y68500
X222500Y68500
X219500Y88500
X206500Y88500
X80500Y130500
X74500Y144500
X61500Y122500
X31500Y133500
X33500Y155500
X33500Y163500
X48500Y169500
X68500Y176500
X71500Y172500
X68500Y182500
X16500Y86500
X27780Y84500
X37228Y84500
T03
X11441Y78500
T04
X91563Y185500
X99437Y185500
T05
X131720Y146870
X141563Y146870
X149437Y146870
X159280Y146870
T06
X137500Y124500
X127500Y124500
X127500Y114500
X137500Y114500
X137500Y104500
X127500Y104500
X104500Y109500
X94500Y109500
X84500Y109500
X74500Y109500
X74500Y119500
X84500Y119500
X94500Y119500
X104500Y119500
X108500Y133500
X98500Y133500
X88500Y133500
X237500Y44500
X247500Y44500
X257500Y44500
X257500Y34500
X247500Y34500
X237500Y34500
T07
X274433Y78500
T08
X171366Y157500
X119634Y157500
T09
X15673Y15673
X23154Y184177
X262327Y184177
X270791Y15673
M30
