G75*
%MOIN*%
%OFA0B0*%
%FSLAX25Y25*%
%IPPOS*%
%LPD*%
%AMOC8*
5,1,8,0,0,1.08239X$1,22.5*
%
%ADD10C,0.00000*%
%ADD11C,0.00004*%
%ADD12R,0.05512X0.03937*%
%ADD13R,0.05315X0.01772*%
%ADD14R,0.06693X0.07874*%
%ADD15R,0.04331X0.03937*%
%ADD16R,0.08661X0.07087*%
%ADD17C,0.01200*%
%ADD18R,0.02756X0.03543*%
%ADD19R,0.03543X0.02756*%
%ADD20C,0.12992*%
%ADD21C,0.10630*%
%ADD22R,0.13780X0.09843*%
%ADD23C,0.21000*%
%ADD24C,0.06000*%
%ADD25R,0.08600X0.08600*%
%ADD26C,0.02400*%
%ADD27C,0.03200*%
%ADD28C,0.02000*%
%ADD29C,0.01600*%
%ADD30C,0.04000*%
D10*
X0016773Y0002600D02*
X0244332Y0002600D01*
X0244674Y0002604D01*
X0245017Y0002617D01*
X0245359Y0002637D01*
X0245700Y0002666D01*
X0246040Y0002703D01*
X0246380Y0002749D01*
X0246718Y0002802D01*
X0247055Y0002864D01*
X0247390Y0002934D01*
X0247724Y0003012D01*
X0248055Y0003098D01*
X0248385Y0003192D01*
X0248712Y0003294D01*
X0249036Y0003403D01*
X0249358Y0003521D01*
X0249677Y0003646D01*
X0249992Y0003779D01*
X0250305Y0003920D01*
X0250613Y0004068D01*
X0250919Y0004223D01*
X0251220Y0004386D01*
X0251517Y0004556D01*
X0251810Y0004733D01*
X0252099Y0004918D01*
X0252383Y0005109D01*
X0252663Y0005307D01*
X0252937Y0005511D01*
X0253207Y0005723D01*
X0253471Y0005940D01*
X0253730Y0006164D01*
X0253984Y0006395D01*
X0254232Y0006631D01*
X0254474Y0006873D01*
X0254710Y0007121D01*
X0254941Y0007375D01*
X0255165Y0007634D01*
X0255382Y0007898D01*
X0255594Y0008168D01*
X0255798Y0008442D01*
X0255996Y0008722D01*
X0256187Y0009006D01*
X0256372Y0009295D01*
X0256549Y0009588D01*
X0256719Y0009885D01*
X0256882Y0010186D01*
X0257037Y0010492D01*
X0257185Y0010800D01*
X0257326Y0011113D01*
X0257459Y0011428D01*
X0257584Y0011747D01*
X0257702Y0012069D01*
X0257811Y0012393D01*
X0257913Y0012720D01*
X0258007Y0013050D01*
X0258093Y0013381D01*
X0258171Y0013715D01*
X0258241Y0014050D01*
X0258303Y0014387D01*
X0258356Y0014725D01*
X0258402Y0015065D01*
X0258439Y0015405D01*
X0258468Y0015746D01*
X0258488Y0016088D01*
X0258501Y0016431D01*
X0258505Y0016773D01*
X0258506Y0016773D02*
X0258506Y0208899D01*
X0258505Y0208899D02*
X0258501Y0209241D01*
X0258488Y0209584D01*
X0258468Y0209926D01*
X0258439Y0210267D01*
X0258402Y0210607D01*
X0258356Y0210947D01*
X0258303Y0211285D01*
X0258241Y0211622D01*
X0258171Y0211957D01*
X0258093Y0212291D01*
X0258007Y0212622D01*
X0257913Y0212952D01*
X0257811Y0213279D01*
X0257702Y0213603D01*
X0257584Y0213925D01*
X0257459Y0214244D01*
X0257326Y0214559D01*
X0257185Y0214872D01*
X0257037Y0215180D01*
X0256882Y0215486D01*
X0256719Y0215787D01*
X0256549Y0216084D01*
X0256372Y0216377D01*
X0256187Y0216666D01*
X0255996Y0216950D01*
X0255798Y0217230D01*
X0255594Y0217504D01*
X0255382Y0217774D01*
X0255165Y0218038D01*
X0254941Y0218297D01*
X0254710Y0218551D01*
X0254474Y0218799D01*
X0254232Y0219041D01*
X0253984Y0219277D01*
X0253730Y0219508D01*
X0253471Y0219732D01*
X0253207Y0219949D01*
X0252937Y0220161D01*
X0252663Y0220365D01*
X0252383Y0220563D01*
X0252099Y0220754D01*
X0251810Y0220939D01*
X0251517Y0221116D01*
X0251220Y0221286D01*
X0250919Y0221449D01*
X0250613Y0221604D01*
X0250305Y0221752D01*
X0249992Y0221893D01*
X0249677Y0222026D01*
X0249358Y0222151D01*
X0249036Y0222269D01*
X0248712Y0222378D01*
X0248385Y0222480D01*
X0248055Y0222574D01*
X0247724Y0222660D01*
X0247390Y0222738D01*
X0247055Y0222808D01*
X0246718Y0222870D01*
X0246380Y0222923D01*
X0246040Y0222969D01*
X0245700Y0223006D01*
X0245359Y0223035D01*
X0245017Y0223055D01*
X0244674Y0223068D01*
X0244332Y0223072D01*
X0016773Y0223072D01*
X0016431Y0223068D01*
X0016088Y0223055D01*
X0015746Y0223035D01*
X0015405Y0223006D01*
X0015065Y0222969D01*
X0014725Y0222923D01*
X0014387Y0222870D01*
X0014050Y0222808D01*
X0013715Y0222738D01*
X0013381Y0222660D01*
X0013050Y0222574D01*
X0012720Y0222480D01*
X0012393Y0222378D01*
X0012069Y0222269D01*
X0011747Y0222151D01*
X0011428Y0222026D01*
X0011113Y0221893D01*
X0010800Y0221752D01*
X0010492Y0221604D01*
X0010186Y0221449D01*
X0009885Y0221286D01*
X0009588Y0221116D01*
X0009295Y0220939D01*
X0009006Y0220754D01*
X0008722Y0220563D01*
X0008442Y0220365D01*
X0008168Y0220161D01*
X0007898Y0219949D01*
X0007634Y0219732D01*
X0007375Y0219508D01*
X0007121Y0219277D01*
X0006873Y0219041D01*
X0006631Y0218799D01*
X0006395Y0218551D01*
X0006164Y0218297D01*
X0005940Y0218038D01*
X0005723Y0217774D01*
X0005511Y0217504D01*
X0005307Y0217230D01*
X0005109Y0216950D01*
X0004918Y0216666D01*
X0004733Y0216377D01*
X0004556Y0216084D01*
X0004386Y0215787D01*
X0004223Y0215486D01*
X0004068Y0215180D01*
X0003920Y0214872D01*
X0003779Y0214559D01*
X0003646Y0214244D01*
X0003521Y0213925D01*
X0003403Y0213603D01*
X0003294Y0213279D01*
X0003192Y0212952D01*
X0003098Y0212622D01*
X0003012Y0212291D01*
X0002934Y0211957D01*
X0002864Y0211622D01*
X0002802Y0211285D01*
X0002749Y0210947D01*
X0002703Y0210607D01*
X0002666Y0210267D01*
X0002637Y0209926D01*
X0002617Y0209584D01*
X0002604Y0209241D01*
X0002600Y0208899D01*
X0002600Y0016773D01*
X0002604Y0016431D01*
X0002617Y0016088D01*
X0002637Y0015746D01*
X0002666Y0015405D01*
X0002703Y0015065D01*
X0002749Y0014725D01*
X0002802Y0014387D01*
X0002864Y0014050D01*
X0002934Y0013715D01*
X0003012Y0013381D01*
X0003098Y0013050D01*
X0003192Y0012720D01*
X0003294Y0012393D01*
X0003403Y0012069D01*
X0003521Y0011747D01*
X0003646Y0011428D01*
X0003779Y0011113D01*
X0003920Y0010800D01*
X0004068Y0010492D01*
X0004223Y0010186D01*
X0004386Y0009885D01*
X0004556Y0009588D01*
X0004733Y0009295D01*
X0004918Y0009006D01*
X0005109Y0008722D01*
X0005307Y0008442D01*
X0005511Y0008168D01*
X0005723Y0007898D01*
X0005940Y0007634D01*
X0006164Y0007375D01*
X0006395Y0007121D01*
X0006631Y0006873D01*
X0006873Y0006631D01*
X0007121Y0006395D01*
X0007375Y0006164D01*
X0007634Y0005940D01*
X0007898Y0005723D01*
X0008168Y0005511D01*
X0008442Y0005307D01*
X0008722Y0005109D01*
X0009006Y0004918D01*
X0009295Y0004733D01*
X0009588Y0004556D01*
X0009885Y0004386D01*
X0010186Y0004223D01*
X0010492Y0004068D01*
X0010800Y0003920D01*
X0011113Y0003779D01*
X0011428Y0003646D01*
X0011747Y0003521D01*
X0012069Y0003403D01*
X0012393Y0003294D01*
X0012720Y0003192D01*
X0013050Y0003098D01*
X0013381Y0003012D01*
X0013715Y0002934D01*
X0014050Y0002864D01*
X0014387Y0002802D01*
X0014725Y0002749D01*
X0015065Y0002703D01*
X0015405Y0002666D01*
X0015746Y0002637D01*
X0016088Y0002617D01*
X0016431Y0002604D01*
X0016773Y0002600D01*
D11*
X0071225Y0053606D02*
X0071579Y0053281D01*
X0071970Y0053002D01*
X0072393Y0052772D01*
X0072840Y0052596D01*
X0073306Y0052476D01*
X0073782Y0052413D01*
X0074263Y0052409D01*
X0074741Y0052463D01*
X0075208Y0052575D01*
X0075658Y0052744D01*
X0076084Y0052965D01*
X0076481Y0053238D01*
X0076841Y0053556D01*
X0077159Y0053916D01*
X0077431Y0054313D01*
X0077654Y0054739D01*
X0077822Y0055189D01*
X0077934Y0055657D01*
X0077988Y0056134D01*
X0077984Y0056615D01*
X0077921Y0057091D01*
X0077801Y0057557D01*
X0077625Y0058004D01*
X0077396Y0058426D01*
X0077117Y0058818D01*
X0076792Y0059172D01*
X0076426Y0059484D01*
X0076025Y0059750D01*
X0075595Y0059964D01*
X0075142Y0060125D01*
X0074672Y0060229D01*
X0074194Y0060275D01*
X0073714Y0060262D01*
X0073509Y0060239D01*
X0073038Y0060143D01*
X0072582Y0059991D01*
X0072148Y0059783D01*
X0071743Y0059525D01*
X0071372Y0059220D01*
X0071041Y0058871D01*
X0070755Y0058484D01*
X0070518Y0058066D01*
X0070334Y0057622D01*
X0070206Y0057159D01*
X0070135Y0056683D01*
X0070122Y0056203D01*
X0070168Y0055724D01*
X0070272Y0055255D01*
X0070433Y0054802D01*
X0070647Y0054372D01*
X0070913Y0053971D01*
X0071225Y0053606D01*
X0104934Y0087218D02*
X0105294Y0086899D01*
X0105691Y0086627D01*
X0106117Y0086405D01*
X0106567Y0086237D01*
X0107035Y0086124D01*
X0107512Y0086070D01*
X0107718Y0086065D01*
X0153593Y0086070D01*
X0154071Y0086124D01*
X0154538Y0086237D01*
X0154989Y0086405D01*
X0155415Y0086627D01*
X0155811Y0086899D01*
X0156171Y0087218D01*
X0156490Y0087578D01*
X0156762Y0087974D01*
X0156984Y0088400D01*
X0157152Y0088851D01*
X0157265Y0089318D01*
X0157319Y0089796D01*
X0157324Y0090002D01*
X0157324Y0104967D01*
X0170129Y0104968D01*
X0170606Y0105022D01*
X0171074Y0105134D01*
X0171524Y0105303D01*
X0171950Y0105524D01*
X0172346Y0105797D01*
X0172707Y0106115D01*
X0173025Y0106476D01*
X0173298Y0106872D01*
X0173519Y0107298D01*
X0173688Y0107748D01*
X0173800Y0108216D01*
X0173854Y0108693D01*
X0173860Y0108899D01*
X0173860Y0116773D01*
X0173830Y0117253D01*
X0173743Y0117726D01*
X0173598Y0118184D01*
X0173399Y0118622D01*
X0173148Y0119031D01*
X0172848Y0119407D01*
X0172506Y0119744D01*
X0172124Y0120037D01*
X0171710Y0120281D01*
X0171269Y0120473D01*
X0170808Y0120609D01*
X0170334Y0120689D01*
X0169923Y0120710D01*
X0157324Y0120709D01*
X0157324Y0135671D01*
X0157295Y0136150D01*
X0157207Y0136623D01*
X0157063Y0137082D01*
X0156863Y0137519D01*
X0156612Y0137929D01*
X0156313Y0138305D01*
X0155970Y0138642D01*
X0155589Y0138935D01*
X0155175Y0139179D01*
X0154734Y0139370D01*
X0154273Y0139507D01*
X0153799Y0139586D01*
X0153387Y0139608D01*
X0107512Y0139602D01*
X0107035Y0139548D01*
X0106567Y0139436D01*
X0106117Y0139267D01*
X0105691Y0139046D01*
X0105294Y0138773D01*
X0104934Y0138455D01*
X0104616Y0138094D01*
X0104343Y0137698D01*
X0104122Y0137272D01*
X0103953Y0136822D01*
X0103841Y0136354D01*
X0103787Y0135877D01*
X0103781Y0135671D01*
X0103783Y0120706D01*
X0090977Y0120705D01*
X0090499Y0120650D01*
X0090031Y0120538D01*
X0089581Y0120370D01*
X0089155Y0120148D01*
X0088759Y0119876D01*
X0088399Y0119557D01*
X0088080Y0119197D01*
X0087808Y0118801D01*
X0087586Y0118374D01*
X0087418Y0117924D01*
X0087306Y0117457D01*
X0087251Y0116979D01*
X0087246Y0116773D01*
X0087251Y0108693D01*
X0087306Y0108216D01*
X0087418Y0107748D01*
X0087586Y0107298D01*
X0087808Y0106872D01*
X0088080Y0106476D01*
X0088399Y0106115D01*
X0088759Y0105797D01*
X0089155Y0105524D01*
X0089581Y0105303D01*
X0090031Y0105134D01*
X0090499Y0105022D01*
X0090977Y0104968D01*
X0091183Y0104962D01*
X0103785Y0104963D01*
X0103787Y0089796D01*
X0103841Y0089318D01*
X0103953Y0088851D01*
X0104122Y0088400D01*
X0104343Y0087974D01*
X0104616Y0087578D01*
X0104934Y0087218D01*
X0183326Y0057622D02*
X0183198Y0057159D01*
X0183127Y0056683D01*
X0183114Y0056203D01*
X0183160Y0055724D01*
X0183264Y0055255D01*
X0183425Y0054802D01*
X0183639Y0054372D01*
X0183905Y0053971D01*
X0184217Y0053606D01*
X0184571Y0053281D01*
X0184963Y0053002D01*
X0185385Y0052772D01*
X0185832Y0052596D01*
X0186298Y0052476D01*
X0186774Y0052413D01*
X0187255Y0052409D01*
X0187732Y0052463D01*
X0188200Y0052575D01*
X0188650Y0052744D01*
X0189076Y0052965D01*
X0189473Y0053238D01*
X0189833Y0053556D01*
X0190151Y0053916D01*
X0190424Y0054313D01*
X0190645Y0054739D01*
X0190814Y0055189D01*
X0190926Y0055657D01*
X0190980Y0056134D01*
X0190976Y0056615D01*
X0190913Y0057091D01*
X0190793Y0057557D01*
X0190617Y0058004D01*
X0190387Y0058426D01*
X0190108Y0058818D01*
X0189783Y0059172D01*
X0189418Y0059484D01*
X0189017Y0059750D01*
X0188587Y0059964D01*
X0188134Y0060125D01*
X0187665Y0060229D01*
X0187186Y0060275D01*
X0186706Y0060262D01*
X0186501Y0060239D01*
X0186030Y0060143D01*
X0185574Y0059991D01*
X0185140Y0059783D01*
X0184735Y0059525D01*
X0184364Y0059220D01*
X0184033Y0058871D01*
X0183747Y0058484D01*
X0183510Y0058066D01*
X0183326Y0057622D01*
X0172491Y0160480D02*
X0162443Y0160474D01*
X0162237Y0160480D01*
X0161759Y0160534D01*
X0161291Y0160646D01*
X0160841Y0160814D01*
X0160415Y0161036D01*
X0160019Y0161309D01*
X0159659Y0161627D01*
X0159340Y0161987D01*
X0159068Y0162383D01*
X0158846Y0162810D01*
X0158678Y0163260D01*
X0158565Y0163727D01*
X0158511Y0164205D01*
X0158506Y0174254D01*
X0158511Y0174459D01*
X0158565Y0174937D01*
X0158678Y0175404D01*
X0158846Y0175855D01*
X0159068Y0176281D01*
X0159340Y0176677D01*
X0159659Y0177037D01*
X0160019Y0177356D01*
X0160415Y0177628D01*
X0160841Y0177850D01*
X0161291Y0178019D01*
X0161759Y0178131D01*
X0162237Y0178185D01*
X0172285Y0178191D01*
X0172696Y0178169D01*
X0173170Y0178090D01*
X0173631Y0177953D01*
X0174072Y0177761D01*
X0174487Y0177517D01*
X0174868Y0177225D01*
X0175211Y0176888D01*
X0175510Y0176512D01*
X0175761Y0176102D01*
X0175961Y0175665D01*
X0176105Y0175206D01*
X0176193Y0174733D01*
X0176222Y0174254D01*
X0176222Y0164411D01*
X0176217Y0164205D01*
X0176162Y0163727D01*
X0176050Y0163260D01*
X0175881Y0162810D01*
X0175660Y0162383D01*
X0175387Y0161987D01*
X0175069Y0161627D01*
X0174709Y0161309D01*
X0174313Y0161036D01*
X0173886Y0160814D01*
X0173436Y0160646D01*
X0172969Y0160534D01*
X0172491Y0160480D01*
X0183747Y0167188D02*
X0184033Y0166802D01*
X0184364Y0166453D01*
X0184735Y0166147D01*
X0185140Y0165889D01*
X0185574Y0165682D01*
X0186030Y0165530D01*
X0186501Y0165433D01*
X0186706Y0165410D01*
X0187186Y0165398D01*
X0187665Y0165444D01*
X0188134Y0165548D01*
X0188587Y0165708D01*
X0189017Y0165923D01*
X0189418Y0166188D01*
X0189783Y0166500D01*
X0190108Y0166855D01*
X0190387Y0167246D01*
X0190617Y0167669D01*
X0190793Y0168116D01*
X0190913Y0168581D01*
X0190976Y0169057D01*
X0190980Y0169538D01*
X0190926Y0170016D01*
X0190814Y0170483D01*
X0190645Y0170933D01*
X0190424Y0171360D01*
X0190151Y0171756D01*
X0189833Y0172116D01*
X0189473Y0172435D01*
X0189076Y0172707D01*
X0188650Y0172929D01*
X0188200Y0173097D01*
X0187732Y0173209D01*
X0187255Y0173264D01*
X0186774Y0173259D01*
X0186298Y0173197D01*
X0185832Y0173077D01*
X0185385Y0172900D01*
X0184963Y0172671D01*
X0184571Y0172392D01*
X0184217Y0172067D01*
X0183905Y0171702D01*
X0183639Y0171301D01*
X0183425Y0170870D01*
X0183264Y0170417D01*
X0183160Y0169948D01*
X0183114Y0169470D01*
X0183127Y0168989D01*
X0183198Y0168514D01*
X0183326Y0168050D01*
X0183510Y0167606D01*
X0183747Y0167188D01*
X0077984Y0169057D02*
X0077988Y0169538D01*
X0077934Y0170016D01*
X0077822Y0170483D01*
X0077654Y0170933D01*
X0077431Y0171360D01*
X0077159Y0171756D01*
X0076841Y0172116D01*
X0076481Y0172435D01*
X0076084Y0172707D01*
X0075658Y0172929D01*
X0075208Y0173097D01*
X0074741Y0173209D01*
X0074263Y0173264D01*
X0073782Y0173259D01*
X0073306Y0173197D01*
X0072840Y0173077D01*
X0072393Y0172900D01*
X0071970Y0172671D01*
X0071579Y0172392D01*
X0071225Y0172067D01*
X0070913Y0171702D01*
X0070647Y0171301D01*
X0070433Y0170870D01*
X0070272Y0170417D01*
X0070168Y0169948D01*
X0070122Y0169470D01*
X0070135Y0168989D01*
X0070206Y0168514D01*
X0070334Y0168050D01*
X0070518Y0167606D01*
X0070755Y0167188D01*
X0071041Y0166802D01*
X0071372Y0166453D01*
X0071743Y0166147D01*
X0072148Y0165889D01*
X0072582Y0165682D01*
X0073038Y0165530D01*
X0073509Y0165433D01*
X0073714Y0165410D01*
X0074194Y0165398D01*
X0074672Y0165444D01*
X0075142Y0165548D01*
X0075595Y0165708D01*
X0076025Y0165923D01*
X0076426Y0166188D01*
X0076792Y0166500D01*
X0077117Y0166855D01*
X0077396Y0167246D01*
X0077625Y0167669D01*
X0077801Y0168116D01*
X0077921Y0168581D01*
X0077984Y0169057D01*
D12*
X0215769Y0065100D03*
X0224431Y0061360D03*
X0224431Y0068840D03*
D13*
X0200376Y0073761D03*
X0200376Y0076320D03*
X0200376Y0078880D03*
X0200376Y0081439D03*
X0184824Y0081439D03*
X0184824Y0078880D03*
X0184824Y0076320D03*
X0184824Y0073761D03*
D14*
X0192600Y0077600D03*
D15*
X0209687Y0110277D03*
X0209687Y0115395D03*
X0228584Y0115395D03*
X0228584Y0110277D03*
X0051419Y0110277D03*
X0051419Y0115395D03*
X0032521Y0115395D03*
X0032521Y0110277D03*
D16*
X0041970Y0112836D03*
X0219135Y0112836D03*
D17*
X0214135Y0112863D02*
X0224135Y0112863D01*
X0224135Y0111665D02*
X0214135Y0111665D01*
X0214135Y0110466D02*
X0224135Y0110466D01*
X0224135Y0109268D02*
X0214135Y0109268D01*
X0214135Y0108069D02*
X0224135Y0108069D01*
X0224135Y0106870D02*
X0214135Y0106870D01*
X0214135Y0105672D02*
X0224135Y0105672D01*
X0224135Y0104473D02*
X0214135Y0104473D01*
X0214135Y0103275D02*
X0224135Y0103275D01*
X0224135Y0102076D02*
X0214135Y0102076D01*
X0214135Y0100878D02*
X0224135Y0100878D01*
X0224135Y0100336D02*
X0214135Y0100336D01*
X0214135Y0125336D01*
X0224135Y0125336D01*
X0224135Y0100336D01*
X0224135Y0114062D02*
X0214135Y0114062D01*
X0214135Y0115260D02*
X0224135Y0115260D01*
X0224135Y0116459D02*
X0214135Y0116459D01*
X0214135Y0117657D02*
X0224135Y0117657D01*
X0224135Y0118856D02*
X0214135Y0118856D01*
X0214135Y0120054D02*
X0224135Y0120054D01*
X0224135Y0121253D02*
X0214135Y0121253D01*
X0214135Y0122451D02*
X0224135Y0122451D01*
X0224135Y0123650D02*
X0214135Y0123650D01*
X0214135Y0124848D02*
X0224135Y0124848D01*
X0046970Y0124848D02*
X0036970Y0124848D01*
X0036970Y0125336D02*
X0046970Y0125336D01*
X0046970Y0100336D01*
X0036970Y0100336D01*
X0036970Y0125336D01*
X0036970Y0123650D02*
X0046970Y0123650D01*
X0046970Y0122451D02*
X0036970Y0122451D01*
X0036970Y0121253D02*
X0046970Y0121253D01*
X0046970Y0120054D02*
X0036970Y0120054D01*
X0036970Y0118856D02*
X0046970Y0118856D01*
X0046970Y0117657D02*
X0036970Y0117657D01*
X0036970Y0116459D02*
X0046970Y0116459D01*
X0046970Y0115260D02*
X0036970Y0115260D01*
X0036970Y0114062D02*
X0046970Y0114062D01*
X0046970Y0112863D02*
X0036970Y0112863D01*
X0036970Y0111665D02*
X0046970Y0111665D01*
X0046970Y0110466D02*
X0036970Y0110466D01*
X0036970Y0109268D02*
X0046970Y0109268D01*
X0046970Y0108069D02*
X0036970Y0108069D01*
X0036970Y0106870D02*
X0046970Y0106870D01*
X0046970Y0105672D02*
X0036970Y0105672D01*
X0036970Y0104473D02*
X0046970Y0104473D01*
X0046970Y0103275D02*
X0036970Y0103275D01*
X0036970Y0102076D02*
X0046970Y0102076D01*
X0046970Y0100878D02*
X0036970Y0100878D01*
D18*
X0200041Y0065100D03*
X0205159Y0065100D03*
X0220041Y0052600D03*
X0225159Y0052600D03*
X0225159Y0042600D03*
X0220041Y0042600D03*
D19*
X0169214Y0075159D03*
X0169214Y0080277D03*
D20*
X0171891Y0038702D02*
X0171891Y0025710D01*
X0089214Y0025710D02*
X0089214Y0038702D01*
X0089214Y0186970D02*
X0089214Y0199962D01*
X0171891Y0199962D02*
X0171891Y0186970D01*
D21*
X0162049Y0198151D02*
X0162049Y0208781D01*
X0099057Y0208781D02*
X0099057Y0198151D01*
X0099057Y0027521D02*
X0099057Y0016891D01*
X0162049Y0016891D02*
X0162049Y0027521D01*
D22*
X0065395Y0032600D03*
X0039805Y0032600D03*
X0194805Y0192600D03*
X0220395Y0192600D03*
D23*
X0244332Y0208899D03*
X0244332Y0016773D03*
X0016773Y0016773D03*
X0016773Y0208899D03*
D24*
X0190100Y0020600D02*
X0190100Y0014600D01*
X0200100Y0014600D02*
X0200100Y0020600D01*
X0210100Y0020600D02*
X0210100Y0014600D01*
X0220100Y0014600D02*
X0220100Y0020600D01*
D25*
X0070100Y0207600D03*
X0050415Y0207600D03*
D26*
X0083624Y0147600D02*
X0051419Y0115395D01*
X0051419Y0110277D01*
X0042600Y0112206D02*
X0042600Y0075100D01*
X0065395Y0052305D01*
X0065395Y0032600D01*
X0089214Y0032206D02*
X0114706Y0032206D01*
X0162600Y0080100D01*
X0169037Y0080100D01*
X0169214Y0080277D01*
X0170277Y0080277D01*
X0172600Y0082600D01*
X0183309Y0082600D01*
X0209687Y0110277D02*
X0209687Y0115395D01*
X0216576Y0115395D01*
X0219135Y0112836D01*
X0209687Y0115395D02*
X0177482Y0147600D01*
X0083624Y0147600D01*
X0042600Y0112206D02*
X0041970Y0112836D01*
X0039411Y0115395D01*
X0032521Y0115395D01*
X0032521Y0110277D01*
D27*
X0033195Y0105134D02*
X0029724Y0105134D01*
X0028558Y0105617D01*
X0027664Y0106510D01*
X0027181Y0107677D01*
X0027181Y0117995D01*
X0027664Y0119162D01*
X0028558Y0120055D01*
X0029724Y0120539D01*
X0033195Y0120539D01*
X0033195Y0126087D01*
X0033770Y0127474D01*
X0034832Y0128536D01*
X0036219Y0129111D01*
X0047721Y0129111D01*
X0049108Y0128536D01*
X0050170Y0127474D01*
X0050745Y0126087D01*
X0050745Y0120908D01*
X0081145Y0151309D01*
X0082753Y0151975D01*
X0178352Y0151975D01*
X0179960Y0151309D01*
X0210361Y0120908D01*
X0210361Y0126087D01*
X0210935Y0127474D01*
X0211997Y0128536D01*
X0213385Y0129111D01*
X0224886Y0129111D01*
X0226274Y0128536D01*
X0227336Y0127474D01*
X0227910Y0126087D01*
X0227910Y0119764D01*
X0231227Y0119764D01*
X0232109Y0119398D01*
X0232784Y0118723D01*
X0233150Y0117841D01*
X0233150Y0112949D01*
X0233103Y0112836D01*
X0233150Y0112723D01*
X0233150Y0107831D01*
X0232784Y0106949D01*
X0232109Y0106274D01*
X0231784Y0106139D01*
X0231784Y0090448D01*
X0231297Y0089272D01*
X0230397Y0088371D01*
X0221401Y0079375D01*
X0220225Y0078888D01*
X0205433Y0078888D01*
X0205433Y0075647D01*
X0205533Y0075406D01*
X0205633Y0074903D01*
X0205633Y0073761D01*
X0204754Y0073761D01*
X0204754Y0073761D01*
X0205633Y0073761D01*
X0205633Y0072620D01*
X0205533Y0072117D01*
X0205337Y0071644D01*
X0205053Y0071218D01*
X0204690Y0070856D01*
X0204265Y0070571D01*
X0203791Y0070376D01*
X0203289Y0070276D01*
X0200376Y0070276D01*
X0200376Y0073035D01*
X0200376Y0073035D01*
X0200376Y0070276D01*
X0197462Y0070276D01*
X0196960Y0070376D01*
X0196487Y0070571D01*
X0196061Y0070856D01*
X0195854Y0071063D01*
X0192673Y0071063D01*
X0192673Y0077527D01*
X0192527Y0077527D01*
X0192527Y0071063D01*
X0189063Y0071063D01*
X0188863Y0070863D01*
X0191425Y0068300D01*
X0196697Y0068300D01*
X0197303Y0068906D01*
X0198186Y0069272D01*
X0201896Y0069272D01*
X0202600Y0068980D01*
X0203304Y0069272D01*
X0207014Y0069272D01*
X0207896Y0068906D01*
X0208503Y0068300D01*
X0210926Y0068300D01*
X0210979Y0068428D01*
X0211654Y0069103D01*
X0212536Y0069468D01*
X0219003Y0069468D01*
X0219075Y0069439D01*
X0219075Y0071065D01*
X0219175Y0071567D01*
X0219371Y0072040D01*
X0219655Y0072466D01*
X0220017Y0072828D01*
X0220443Y0073113D01*
X0220916Y0073309D01*
X0221419Y0073409D01*
X0224431Y0073409D01*
X0224431Y0068840D01*
X0224431Y0068840D01*
X0229787Y0068840D01*
X0229787Y0066616D01*
X0229687Y0066113D01*
X0229491Y0065640D01*
X0229206Y0065214D01*
X0228950Y0064959D01*
X0229221Y0064688D01*
X0229587Y0063806D01*
X0229587Y0058914D01*
X0229221Y0058032D01*
X0228546Y0057357D01*
X0228359Y0057279D01*
X0228359Y0055944D01*
X0228572Y0055731D01*
X0228937Y0054849D01*
X0228937Y0050351D01*
X0228572Y0049469D01*
X0228359Y0049256D01*
X0228359Y0045944D01*
X0228572Y0045731D01*
X0228937Y0044849D01*
X0228937Y0040351D01*
X0228572Y0039469D01*
X0227896Y0038794D01*
X0227014Y0038428D01*
X0223304Y0038428D01*
X0223300Y0038430D01*
X0223300Y0025037D01*
X0224678Y0023659D01*
X0225500Y0021674D01*
X0225500Y0013526D01*
X0224678Y0011541D01*
X0223159Y0010022D01*
X0221174Y0009200D01*
X0219026Y0009200D01*
X0217041Y0010022D01*
X0215522Y0011541D01*
X0215100Y0012560D01*
X0214678Y0011541D01*
X0213159Y0010022D01*
X0211174Y0009200D01*
X0209026Y0009200D01*
X0207041Y0010022D01*
X0205522Y0011541D01*
X0205100Y0012560D01*
X0204678Y0011541D01*
X0203159Y0010022D01*
X0201174Y0009200D01*
X0199026Y0009200D01*
X0197041Y0010022D01*
X0195522Y0011541D01*
X0195100Y0012560D01*
X0194678Y0011541D01*
X0193159Y0010022D01*
X0191174Y0009200D01*
X0189026Y0009200D01*
X0187041Y0010022D01*
X0185522Y0011541D01*
X0184700Y0013526D01*
X0184700Y0021674D01*
X0185522Y0023659D01*
X0187041Y0025178D01*
X0189026Y0026000D01*
X0191174Y0026000D01*
X0193159Y0025178D01*
X0194678Y0023659D01*
X0195100Y0022640D01*
X0195522Y0023659D01*
X0197041Y0025178D01*
X0199026Y0026000D01*
X0201174Y0026000D01*
X0203159Y0025178D01*
X0204678Y0023659D01*
X0205100Y0022640D01*
X0205522Y0023659D01*
X0207041Y0025178D01*
X0209026Y0026000D01*
X0211174Y0026000D01*
X0213159Y0025178D01*
X0214678Y0023659D01*
X0215100Y0022640D01*
X0215522Y0023659D01*
X0216900Y0025037D01*
X0216900Y0039197D01*
X0216628Y0039469D01*
X0216263Y0040351D01*
X0216263Y0044849D01*
X0216628Y0045731D01*
X0217303Y0046406D01*
X0218186Y0046772D01*
X0221896Y0046772D01*
X0221959Y0046746D01*
X0221959Y0048285D01*
X0221675Y0048228D01*
X0220041Y0048228D01*
X0220041Y0052600D01*
X0220041Y0052600D01*
X0220041Y0056972D01*
X0221675Y0056972D01*
X0221959Y0056915D01*
X0221959Y0056991D01*
X0221197Y0056991D01*
X0220315Y0057357D01*
X0219640Y0058032D01*
X0219275Y0058914D01*
X0219275Y0060844D01*
X0219003Y0060731D01*
X0212536Y0060731D01*
X0211654Y0061097D01*
X0210979Y0061772D01*
X0210926Y0061900D01*
X0208503Y0061900D01*
X0207896Y0061294D01*
X0207014Y0060928D01*
X0203304Y0060928D01*
X0202600Y0061220D01*
X0201896Y0060928D01*
X0198186Y0060928D01*
X0197303Y0061294D01*
X0196697Y0061900D01*
X0190536Y0061900D01*
X0190642Y0061847D01*
X0190671Y0061813D01*
X0190714Y0061799D01*
X0190987Y0061566D01*
X0191286Y0061368D01*
X0191311Y0061331D01*
X0191353Y0061311D01*
X0191594Y0061048D01*
X0191866Y0060816D01*
X0191887Y0060774D01*
X0191926Y0060750D01*
X0192134Y0060458D01*
X0192377Y0060193D01*
X0192392Y0060151D01*
X0192427Y0060123D01*
X0192598Y0059808D01*
X0192806Y0059516D01*
X0192816Y0059472D01*
X0192848Y0059440D01*
X0192979Y0059106D01*
X0193150Y0058791D01*
X0193155Y0058746D01*
X0193183Y0058708D01*
X0193273Y0058362D01*
X0193404Y0058030D01*
X0193403Y0057983D01*
X0193426Y0057943D01*
X0193472Y0057588D01*
X0193562Y0057240D01*
X0193556Y0057196D01*
X0193573Y0057156D01*
X0193576Y0056797D01*
X0193623Y0056441D01*
X0193612Y0056398D01*
X0193624Y0056354D01*
X0193584Y0055998D01*
X0193587Y0055640D01*
X0193570Y0055598D01*
X0193577Y0055553D01*
X0193493Y0055204D01*
X0193453Y0054848D01*
X0193430Y0054808D01*
X0193432Y0054761D01*
X0193307Y0054426D01*
X0193223Y0054079D01*
X0193196Y0054042D01*
X0193193Y0053998D01*
X0193027Y0053679D01*
X0192901Y0053342D01*
X0192871Y0053310D01*
X0192861Y0053266D01*
X0192659Y0052971D01*
X0192494Y0052653D01*
X0192458Y0052623D01*
X0192443Y0052579D01*
X0192205Y0052311D01*
X0192002Y0052016D01*
X0191964Y0051991D01*
X0191945Y0051951D01*
X0191676Y0051713D01*
X0191438Y0051444D01*
X0191398Y0051425D01*
X0191373Y0051386D01*
X0191078Y0051184D01*
X0190810Y0050946D01*
X0190766Y0050931D01*
X0190736Y0050895D01*
X0190418Y0050730D01*
X0190123Y0050528D01*
X0190079Y0050518D01*
X0190047Y0050488D01*
X0189710Y0050362D01*
X0189391Y0050196D01*
X0189347Y0050193D01*
X0189310Y0050166D01*
X0188963Y0050082D01*
X0188628Y0049957D01*
X0188581Y0049959D01*
X0188541Y0049936D01*
X0188185Y0049896D01*
X0187836Y0049812D01*
X0187791Y0049819D01*
X0187749Y0049802D01*
X0187391Y0049805D01*
X0187035Y0049765D01*
X0186991Y0049777D01*
X0186948Y0049766D01*
X0186592Y0049813D01*
X0186233Y0049816D01*
X0186192Y0049833D01*
X0186149Y0049827D01*
X0185801Y0049916D01*
X0185445Y0049963D01*
X0185406Y0049986D01*
X0185359Y0049985D01*
X0185027Y0050116D01*
X0184681Y0050206D01*
X0184643Y0050234D01*
X0184598Y0050239D01*
X0184283Y0050410D01*
X0183949Y0050541D01*
X0183917Y0050573D01*
X0183873Y0050583D01*
X0183581Y0050791D01*
X0183266Y0050962D01*
X0183238Y0050997D01*
X0183196Y0051012D01*
X0182931Y0051255D01*
X0182639Y0051463D01*
X0182615Y0051502D01*
X0182573Y0051523D01*
X0182341Y0051795D01*
X0182078Y0052036D01*
X0182058Y0052078D01*
X0182021Y0052103D01*
X0181823Y0052402D01*
X0181590Y0052675D01*
X0181576Y0052718D01*
X0181542Y0052747D01*
X0181382Y0053068D01*
X0181184Y0053367D01*
X0181175Y0053411D01*
X0181145Y0053445D01*
X0181025Y0053783D01*
X0180865Y0054104D01*
X0180862Y0054149D01*
X0180836Y0054187D01*
X0180758Y0054536D01*
X0180639Y0054874D01*
X0180641Y0054920D01*
X0180620Y0054960D01*
X0180585Y0055317D01*
X0180508Y0055667D01*
X0180516Y0055711D01*
X0180500Y0055754D01*
X0180509Y0056112D01*
X0180475Y0056469D01*
X0180488Y0056512D01*
X0180477Y0056555D01*
X0180530Y0056910D01*
X0180539Y0057269D01*
X0180558Y0057310D01*
X0180552Y0057356D01*
X0180648Y0057701D01*
X0180700Y0058054D01*
X0180724Y0058094D01*
X0180724Y0058139D01*
X0180862Y0058471D01*
X0180958Y0058817D01*
X0180985Y0058852D01*
X0180991Y0058897D01*
X0181167Y0059209D01*
X0181304Y0059540D01*
X0181337Y0059572D01*
X0181348Y0059616D01*
X0181561Y0059904D01*
X0181737Y0060216D01*
X0181773Y0060244D01*
X0181789Y0060285D01*
X0182036Y0060546D01*
X0182250Y0060835D01*
X0182288Y0060858D01*
X0182310Y0060899D01*
X0182586Y0061126D01*
X0182832Y0061385D01*
X0182874Y0061404D01*
X0182900Y0061442D01*
X0183203Y0061634D01*
X0183480Y0061863D01*
X0183522Y0061876D01*
X0183552Y0061909D01*
X0183876Y0062063D01*
X0184179Y0062256D01*
X0184224Y0062264D01*
X0184258Y0062294D01*
X0184598Y0062408D01*
X0184920Y0062562D01*
X0184966Y0062564D01*
X0185003Y0062589D01*
X0185355Y0062661D01*
X0185696Y0062775D01*
X0185742Y0062772D01*
X0186014Y0062802D01*
X0186120Y0062850D01*
X0186305Y0062855D01*
X0186488Y0062892D01*
X0186604Y0062869D01*
X0186873Y0062900D01*
X0186920Y0062914D01*
X0187277Y0062880D01*
X0187635Y0062889D01*
X0187678Y0062873D01*
X0187722Y0062881D01*
X0187814Y0062861D01*
X0183012Y0067663D01*
X0182112Y0068563D01*
X0181624Y0069739D01*
X0181624Y0070503D01*
X0180807Y0070841D01*
X0180132Y0071516D01*
X0179767Y0072398D01*
X0179767Y0078225D01*
X0174412Y0078225D01*
X0173986Y0077799D01*
X0173986Y0077799D01*
X0173953Y0077766D01*
X0173677Y0077101D01*
X0173550Y0076973D01*
X0173586Y0076793D01*
X0173586Y0075159D01*
X0169214Y0075159D01*
X0164843Y0075159D01*
X0164843Y0073525D01*
X0164942Y0073023D01*
X0165138Y0072550D01*
X0165423Y0072124D01*
X0165785Y0071762D01*
X0166211Y0071477D01*
X0166684Y0071281D01*
X0167186Y0071181D01*
X0169214Y0071181D01*
X0169214Y0075159D01*
X0169214Y0075159D01*
X0164843Y0075159D01*
X0164843Y0075725D01*
X0164412Y0075725D01*
X0118415Y0029728D01*
X0117184Y0028498D01*
X0115577Y0027831D01*
X0107546Y0027831D01*
X0107546Y0015203D01*
X0106254Y0012082D01*
X0103866Y0009694D01*
X0100745Y0008402D01*
X0097368Y0008402D01*
X0094248Y0009694D01*
X0091859Y0012082D01*
X0090567Y0015203D01*
X0090567Y0016039D01*
X0087291Y0016039D01*
X0083736Y0017512D01*
X0081016Y0020232D01*
X0079543Y0023787D01*
X0079543Y0027425D01*
X0075460Y0027425D01*
X0075460Y0027047D01*
X0074977Y0025880D01*
X0074083Y0024987D01*
X0072917Y0024504D01*
X0057874Y0024504D01*
X0056707Y0024987D01*
X0055814Y0025880D01*
X0055331Y0027047D01*
X0055331Y0038153D01*
X0055814Y0039320D01*
X0056707Y0040213D01*
X0057874Y0040696D01*
X0061020Y0040696D01*
X0061020Y0050493D01*
X0038891Y0072622D01*
X0038225Y0074230D01*
X0038225Y0096561D01*
X0036219Y0096561D01*
X0034832Y0097136D01*
X0033770Y0098198D01*
X0033195Y0099585D01*
X0033195Y0105134D01*
X0033195Y0104952D02*
X0005200Y0104952D01*
X0005200Y0101754D02*
X0033195Y0101754D01*
X0033622Y0098555D02*
X0005200Y0098555D01*
X0005200Y0095357D02*
X0038225Y0095357D01*
X0038225Y0092158D02*
X0005200Y0092158D01*
X0005200Y0088960D02*
X0038225Y0088960D01*
X0038225Y0085761D02*
X0005200Y0085761D01*
X0005200Y0082563D02*
X0038225Y0082563D01*
X0038225Y0079364D02*
X0005200Y0079364D01*
X0005200Y0076166D02*
X0038225Y0076166D01*
X0038748Y0072967D02*
X0005200Y0072967D01*
X0005200Y0069769D02*
X0041744Y0069769D01*
X0044943Y0066570D02*
X0005200Y0066570D01*
X0005200Y0063372D02*
X0048141Y0063372D01*
X0051340Y0060173D02*
X0005200Y0060173D01*
X0005200Y0056975D02*
X0054538Y0056975D01*
X0057737Y0053776D02*
X0005200Y0053776D01*
X0005200Y0050578D02*
X0060935Y0050578D01*
X0061020Y0047379D02*
X0005200Y0047379D01*
X0005200Y0044181D02*
X0061020Y0044181D01*
X0061020Y0040982D02*
X0005200Y0040982D01*
X0005200Y0037784D02*
X0030316Y0037784D01*
X0030315Y0037777D02*
X0030315Y0033461D01*
X0038944Y0033461D01*
X0038944Y0040121D01*
X0032659Y0040121D01*
X0032157Y0040021D01*
X0031683Y0039825D01*
X0031258Y0039541D01*
X0030895Y0039179D01*
X0030611Y0038753D01*
X0030415Y0038280D01*
X0030315Y0037777D01*
X0030315Y0034585D02*
X0005200Y0034585D01*
X0005200Y0031387D02*
X0030315Y0031387D01*
X0030315Y0031739D02*
X0030315Y0027423D01*
X0030415Y0026920D01*
X0030611Y0026447D01*
X0030895Y0026021D01*
X0031258Y0025659D01*
X0031683Y0025375D01*
X0032157Y0025179D01*
X0032659Y0025079D01*
X0038944Y0025079D01*
X0038944Y0031739D01*
X0040665Y0031739D01*
X0040665Y0025079D01*
X0046951Y0025079D01*
X0047453Y0025179D01*
X0047926Y0025375D01*
X0048352Y0025659D01*
X0048714Y0026021D01*
X0048999Y0026447D01*
X0049195Y0026920D01*
X0049294Y0027423D01*
X0049294Y0031739D01*
X0040665Y0031739D01*
X0040665Y0033461D01*
X0038944Y0033461D01*
X0038944Y0031739D01*
X0030315Y0031739D01*
X0030315Y0028188D02*
X0023207Y0028188D01*
X0023516Y0028023D02*
X0022381Y0028630D01*
X0021192Y0029122D01*
X0019960Y0029496D01*
X0018698Y0029747D01*
X0017929Y0029823D01*
X0017929Y0017929D01*
X0015617Y0017929D01*
X0015617Y0029823D01*
X0014849Y0029747D01*
X0013586Y0029496D01*
X0012355Y0029122D01*
X0011165Y0028630D01*
X0010030Y0028023D01*
X0008960Y0027308D01*
X0007965Y0026491D01*
X0007055Y0025581D01*
X0006239Y0024586D01*
X0005523Y0023516D01*
X0005200Y0022911D01*
X0005200Y0202761D01*
X0005523Y0202156D01*
X0006239Y0201086D01*
X0007055Y0200091D01*
X0007965Y0199181D01*
X0008960Y0198365D01*
X0010030Y0197649D01*
X0011165Y0197043D01*
X0012355Y0196550D01*
X0013586Y0196176D01*
X0014849Y0195925D01*
X0015617Y0195850D01*
X0015617Y0207743D01*
X0017929Y0207743D01*
X0017929Y0195850D01*
X0018698Y0195925D01*
X0019960Y0196176D01*
X0021192Y0196550D01*
X0022381Y0197043D01*
X0023516Y0197649D01*
X0024586Y0198365D01*
X0025581Y0199181D01*
X0026491Y0200091D01*
X0027308Y0201086D01*
X0028023Y0202156D01*
X0028630Y0203291D01*
X0029122Y0204481D01*
X0029496Y0205712D01*
X0029747Y0206975D01*
X0029823Y0207743D01*
X0017929Y0207743D01*
X0017929Y0210055D01*
X0029823Y0210055D01*
X0029747Y0210824D01*
X0029496Y0212086D01*
X0029122Y0213318D01*
X0028630Y0214507D01*
X0028023Y0215642D01*
X0027308Y0216712D01*
X0026491Y0217707D01*
X0025581Y0218617D01*
X0024586Y0219434D01*
X0023516Y0220149D01*
X0022911Y0220472D01*
X0238195Y0220472D01*
X0237589Y0220149D01*
X0236519Y0219434D01*
X0235524Y0218617D01*
X0234614Y0217707D01*
X0233798Y0216712D01*
X0233082Y0215642D01*
X0232476Y0214507D01*
X0231983Y0213318D01*
X0231610Y0212086D01*
X0231358Y0210824D01*
X0231283Y0210055D01*
X0243176Y0210055D01*
X0243176Y0207743D01*
X0231283Y0207743D01*
X0231358Y0206975D01*
X0231610Y0205712D01*
X0231983Y0204481D01*
X0232476Y0203291D01*
X0233082Y0202156D01*
X0233798Y0201086D01*
X0234614Y0200091D01*
X0235524Y0199181D01*
X0236519Y0198365D01*
X0237589Y0197649D01*
X0238725Y0197043D01*
X0239914Y0196550D01*
X0241145Y0196176D01*
X0242408Y0195925D01*
X0243176Y0195850D01*
X0243176Y0207743D01*
X0245488Y0207743D01*
X0245488Y0195850D01*
X0246257Y0195925D01*
X0247519Y0196176D01*
X0248751Y0196550D01*
X0249940Y0197043D01*
X0251075Y0197649D01*
X0252145Y0198365D01*
X0253140Y0199181D01*
X0254050Y0200091D01*
X0254867Y0201086D01*
X0255582Y0202156D01*
X0255906Y0202761D01*
X0255906Y0022911D01*
X0255582Y0023516D01*
X0254867Y0024586D01*
X0254050Y0025581D01*
X0253140Y0026491D01*
X0252145Y0027308D01*
X0251075Y0028023D01*
X0249940Y0028630D01*
X0248751Y0029122D01*
X0247519Y0029496D01*
X0246257Y0029747D01*
X0245488Y0029823D01*
X0245488Y0017929D01*
X0243176Y0017929D01*
X0243176Y0015617D01*
X0231283Y0015617D01*
X0231358Y0014849D01*
X0231610Y0013586D01*
X0231983Y0012355D01*
X0232476Y0011165D01*
X0233082Y0010030D01*
X0233798Y0008960D01*
X0234614Y0007965D01*
X0235524Y0007055D01*
X0236519Y0006239D01*
X0237589Y0005523D01*
X0238195Y0005200D01*
X0022911Y0005200D01*
X0023516Y0005523D01*
X0024586Y0006239D01*
X0025581Y0007055D01*
X0026491Y0007965D01*
X0027308Y0008960D01*
X0028023Y0010030D01*
X0028630Y0011165D01*
X0029122Y0012355D01*
X0029496Y0013586D01*
X0029747Y0014849D01*
X0029823Y0015617D01*
X0017929Y0015617D01*
X0017929Y0017929D01*
X0029823Y0017929D01*
X0029747Y0018698D01*
X0029496Y0019960D01*
X0029122Y0021192D01*
X0028630Y0022381D01*
X0028023Y0023516D01*
X0027308Y0024586D01*
X0026491Y0025581D01*
X0025581Y0026491D01*
X0024586Y0027308D01*
X0023516Y0028023D01*
X0026977Y0024990D02*
X0056705Y0024990D01*
X0055331Y0028188D02*
X0049294Y0028188D01*
X0049294Y0031387D02*
X0055331Y0031387D01*
X0055331Y0034585D02*
X0049294Y0034585D01*
X0049294Y0033461D02*
X0049294Y0037777D01*
X0049195Y0038280D01*
X0048999Y0038753D01*
X0048714Y0039179D01*
X0048352Y0039541D01*
X0047926Y0039825D01*
X0047453Y0040021D01*
X0046951Y0040121D01*
X0040665Y0040121D01*
X0040665Y0033461D01*
X0049294Y0033461D01*
X0049293Y0037784D02*
X0055331Y0037784D01*
X0069770Y0040696D02*
X0069770Y0051375D01*
X0069938Y0051255D01*
X0070202Y0051013D01*
X0070245Y0050997D01*
X0070273Y0050962D01*
X0070589Y0050791D01*
X0070881Y0050583D01*
X0070925Y0050573D01*
X0070957Y0050541D01*
X0071290Y0050410D01*
X0071605Y0050239D01*
X0071651Y0050234D01*
X0071689Y0050206D01*
X0072035Y0050116D01*
X0072367Y0049985D01*
X0072414Y0049986D01*
X0072453Y0049963D01*
X0072809Y0049916D01*
X0073157Y0049827D01*
X0073200Y0049833D01*
X0073241Y0049816D01*
X0073600Y0049813D01*
X0073956Y0049766D01*
X0073999Y0049777D01*
X0074042Y0049765D01*
X0074398Y0049805D01*
X0074757Y0049802D01*
X0074799Y0049819D01*
X0074845Y0049812D01*
X0075193Y0049896D01*
X0075549Y0049936D01*
X0075589Y0049959D01*
X0075636Y0049957D01*
X0075971Y0050082D01*
X0076319Y0050166D01*
X0076355Y0050193D01*
X0076399Y0050196D01*
X0076718Y0050362D01*
X0077055Y0050488D01*
X0077087Y0050518D01*
X0077131Y0050528D01*
X0077426Y0050730D01*
X0077744Y0050895D01*
X0077774Y0050931D01*
X0077818Y0050946D01*
X0078086Y0051184D01*
X0078381Y0051386D01*
X0078406Y0051425D01*
X0078446Y0051444D01*
X0078684Y0051713D01*
X0078953Y0051951D01*
X0078972Y0051991D01*
X0079010Y0052016D01*
X0079213Y0052311D01*
X0079450Y0052579D01*
X0079465Y0052623D01*
X0079500Y0052652D01*
X0079666Y0052970D01*
X0079869Y0053266D01*
X0079878Y0053310D01*
X0079910Y0053344D01*
X0080035Y0053679D01*
X0080200Y0053996D01*
X0080204Y0054042D01*
X0080231Y0054079D01*
X0080315Y0054427D01*
X0080440Y0054763D01*
X0080439Y0054809D01*
X0080461Y0054848D01*
X0080501Y0055204D01*
X0080585Y0055553D01*
X0080578Y0055597D01*
X0080594Y0055638D01*
X0080591Y0055997D01*
X0080632Y0056354D01*
X0080620Y0056398D01*
X0080632Y0056443D01*
X0080585Y0056797D01*
X0080582Y0057154D01*
X0080564Y0057196D01*
X0080570Y0057240D01*
X0080480Y0057589D01*
X0080433Y0057946D01*
X0080411Y0057984D01*
X0080412Y0058030D01*
X0080281Y0058362D01*
X0080191Y0058708D01*
X0080163Y0058745D01*
X0080159Y0058790D01*
X0079987Y0059106D01*
X0079855Y0059440D01*
X0079825Y0059472D01*
X0079815Y0059516D01*
X0079607Y0059807D01*
X0079436Y0060122D01*
X0079400Y0060151D01*
X0079385Y0060193D01*
X0079143Y0060458D01*
X0078934Y0060750D01*
X0078895Y0060774D01*
X0078874Y0060817D01*
X0078602Y0061048D01*
X0078361Y0061311D01*
X0078319Y0061331D01*
X0078294Y0061368D01*
X0077994Y0061567D01*
X0077720Y0061800D01*
X0077679Y0061814D01*
X0077649Y0061847D01*
X0077329Y0062007D01*
X0077030Y0062205D01*
X0076986Y0062214D01*
X0076952Y0062244D01*
X0076614Y0062364D01*
X0076293Y0062524D01*
X0076247Y0062527D01*
X0076210Y0062553D01*
X0075860Y0062631D01*
X0075523Y0062750D01*
X0075477Y0062748D01*
X0075437Y0062769D01*
X0075080Y0062803D01*
X0074730Y0062881D01*
X0074685Y0062873D01*
X0074643Y0062889D01*
X0074285Y0062880D01*
X0073928Y0062914D01*
X0073880Y0062900D01*
X0073612Y0062869D01*
X0073496Y0062892D01*
X0073313Y0062855D01*
X0073128Y0062850D01*
X0073022Y0062802D01*
X0072749Y0062772D01*
X0072704Y0062775D01*
X0072363Y0062661D01*
X0072011Y0062589D01*
X0071974Y0062564D01*
X0071928Y0062562D01*
X0071605Y0062408D01*
X0071266Y0062294D01*
X0071231Y0062264D01*
X0071187Y0062256D01*
X0070884Y0062063D01*
X0070560Y0061909D01*
X0070530Y0061876D01*
X0070488Y0061863D01*
X0070211Y0061634D01*
X0069908Y0061442D01*
X0069882Y0061404D01*
X0069840Y0061385D01*
X0069594Y0061126D01*
X0069318Y0060899D01*
X0069296Y0060858D01*
X0069258Y0060835D01*
X0069044Y0060546D01*
X0068797Y0060285D01*
X0068781Y0060244D01*
X0068745Y0060216D01*
X0068569Y0059904D01*
X0068356Y0059616D01*
X0068344Y0059572D01*
X0068312Y0059540D01*
X0068175Y0059209D01*
X0067999Y0058897D01*
X0067993Y0058852D01*
X0067965Y0058815D01*
X0067869Y0058470D01*
X0067732Y0058139D01*
X0067732Y0058094D01*
X0067709Y0058056D01*
X0067656Y0057701D01*
X0067560Y0057354D01*
X0067566Y0057310D01*
X0067547Y0057269D01*
X0067538Y0056911D01*
X0067485Y0056557D01*
X0067496Y0056512D01*
X0067482Y0056469D01*
X0067489Y0056398D01*
X0046975Y0076912D01*
X0046975Y0096561D01*
X0047721Y0096561D01*
X0049108Y0097136D01*
X0050170Y0098198D01*
X0050745Y0099585D01*
X0050745Y0105134D01*
X0054216Y0105134D01*
X0055383Y0105617D01*
X0056276Y0106510D01*
X0056759Y0107677D01*
X0056759Y0114549D01*
X0085436Y0143225D01*
X0175670Y0143225D01*
X0204346Y0114549D01*
X0204346Y0107677D01*
X0204830Y0106510D01*
X0205723Y0105617D01*
X0206890Y0105134D01*
X0210361Y0105134D01*
X0210361Y0099585D01*
X0210935Y0098198D01*
X0211997Y0097136D01*
X0213385Y0096561D01*
X0224886Y0096561D01*
X0225384Y0096768D01*
X0225384Y0092410D01*
X0218263Y0085288D01*
X0200389Y0085288D01*
X0199213Y0084801D01*
X0199136Y0084724D01*
X0197241Y0084724D01*
X0196359Y0084359D01*
X0196137Y0084137D01*
X0192673Y0084137D01*
X0192673Y0077673D01*
X0192527Y0077673D01*
X0192527Y0084137D01*
X0190159Y0084137D01*
X0189280Y0085016D01*
X0188113Y0085499D01*
X0186596Y0085499D01*
X0185787Y0086309D01*
X0184179Y0086975D01*
X0171730Y0086975D01*
X0170122Y0086309D01*
X0168643Y0084830D01*
X0166811Y0084830D01*
X0165954Y0084475D01*
X0161730Y0084475D01*
X0160122Y0083809D01*
X0112894Y0036581D01*
X0098885Y0036581D01*
X0098885Y0040626D01*
X0097413Y0044180D01*
X0094692Y0046901D01*
X0091138Y0048373D01*
X0087291Y0048373D01*
X0083736Y0046901D01*
X0081016Y0044180D01*
X0079543Y0040626D01*
X0079543Y0037775D01*
X0075460Y0037775D01*
X0075460Y0038153D01*
X0074977Y0039320D01*
X0074083Y0040213D01*
X0072917Y0040696D01*
X0069770Y0040696D01*
X0069770Y0040982D02*
X0079691Y0040982D01*
X0081016Y0044181D02*
X0069770Y0044181D01*
X0069770Y0047379D02*
X0084891Y0047379D01*
X0080086Y0053776D02*
X0130089Y0053776D01*
X0126891Y0050578D02*
X0077204Y0050578D01*
X0070903Y0050578D02*
X0069770Y0050578D01*
X0067539Y0056975D02*
X0066912Y0056975D01*
X0068721Y0060173D02*
X0063714Y0060173D01*
X0060515Y0063372D02*
X0139685Y0063372D01*
X0142883Y0066570D02*
X0057317Y0066570D01*
X0054118Y0069769D02*
X0146082Y0069769D01*
X0149280Y0072967D02*
X0050920Y0072967D01*
X0047721Y0076166D02*
X0152479Y0076166D01*
X0155677Y0079364D02*
X0046975Y0079364D01*
X0046975Y0082563D02*
X0158876Y0082563D01*
X0157147Y0084607D02*
X0157416Y0084845D01*
X0157712Y0085049D01*
X0157736Y0085086D01*
X0157778Y0085106D01*
X0158015Y0085374D01*
X0158282Y0085611D01*
X0158303Y0085653D01*
X0158340Y0085677D01*
X0158544Y0085973D01*
X0158782Y0086242D01*
X0158797Y0086285D01*
X0158832Y0086315D01*
X0158997Y0086632D01*
X0159199Y0086926D01*
X0159209Y0086971D01*
X0159239Y0087004D01*
X0159365Y0087341D01*
X0159531Y0087659D01*
X0159535Y0087704D01*
X0159562Y0087740D01*
X0159645Y0088088D01*
X0159771Y0088424D01*
X0159769Y0088470D01*
X0159791Y0088510D01*
X0159832Y0088866D01*
X0159915Y0089214D01*
X0159908Y0089264D01*
X0159913Y0089451D01*
X0159926Y0089484D01*
X0159926Y0089697D01*
X0159963Y0090016D01*
X0159931Y0090127D01*
X0159939Y0090449D01*
X0159926Y0090483D01*
X0159926Y0102365D01*
X0169763Y0102366D01*
X0169909Y0102324D01*
X0170276Y0102366D01*
X0170647Y0102366D01*
X0170673Y0102377D01*
X0170710Y0102371D01*
X0171059Y0102455D01*
X0171415Y0102495D01*
X0171455Y0102518D01*
X0171502Y0102516D01*
X0171837Y0102641D01*
X0172184Y0102725D01*
X0172221Y0102752D01*
X0172265Y0102755D01*
X0172584Y0102921D01*
X0172921Y0103048D01*
X0172954Y0103078D01*
X0172999Y0103087D01*
X0173293Y0103290D01*
X0173610Y0103454D01*
X0173640Y0103490D01*
X0173682Y0103505D01*
X0173951Y0103743D01*
X0174248Y0103946D01*
X0174272Y0103984D01*
X0174313Y0104004D01*
X0174550Y0104272D01*
X0174818Y0104509D01*
X0174838Y0104550D01*
X0174876Y0104575D01*
X0175079Y0104871D01*
X0175317Y0105140D01*
X0175332Y0105182D01*
X0175368Y0105212D01*
X0175532Y0105529D01*
X0175735Y0105823D01*
X0175744Y0105869D01*
X0175775Y0105901D01*
X0175901Y0106238D01*
X0176067Y0106557D01*
X0176070Y0106601D01*
X0176097Y0106638D01*
X0176181Y0106985D01*
X0176306Y0107320D01*
X0176304Y0107367D01*
X0176327Y0107407D01*
X0176367Y0107764D01*
X0176451Y0108112D01*
X0176443Y0108162D01*
X0176448Y0108348D01*
X0176462Y0108382D01*
X0176462Y0108594D01*
X0176498Y0108913D01*
X0176466Y0109025D01*
X0176475Y0109347D01*
X0176462Y0109381D01*
X0176462Y0116338D01*
X0176489Y0116416D01*
X0176462Y0116853D01*
X0176462Y0117118D01*
X0176483Y0117218D01*
X0176418Y0117571D01*
X0176396Y0117930D01*
X0176376Y0117969D01*
X0176380Y0118014D01*
X0176272Y0118355D01*
X0176207Y0118708D01*
X0176182Y0118747D01*
X0176180Y0118794D01*
X0176032Y0119119D01*
X0175925Y0119460D01*
X0175895Y0119495D01*
X0175888Y0119540D01*
X0175700Y0119846D01*
X0175551Y0120173D01*
X0175518Y0120203D01*
X0175506Y0120247D01*
X0175283Y0120527D01*
X0175096Y0120832D01*
X0175059Y0120859D01*
X0175042Y0120899D01*
X0174786Y0121151D01*
X0174562Y0121433D01*
X0174523Y0121454D01*
X0174500Y0121494D01*
X0174216Y0121712D01*
X0173962Y0121962D01*
X0173919Y0121980D01*
X0173891Y0122016D01*
X0173582Y0122198D01*
X0173297Y0122417D01*
X0173254Y0122428D01*
X0173222Y0122461D01*
X0172894Y0122604D01*
X0172585Y0122786D01*
X0172540Y0122792D01*
X0172505Y0122821D01*
X0172161Y0122922D01*
X0171832Y0123065D01*
X0171786Y0123066D01*
X0171747Y0123091D01*
X0171394Y0123150D01*
X0171051Y0123251D01*
X0171014Y0123247D01*
X0170988Y0123260D01*
X0170618Y0123279D01*
X0170454Y0123307D01*
X0170440Y0123312D01*
X0170420Y0123312D01*
X0170252Y0123340D01*
X0170131Y0123312D01*
X0169991Y0123312D01*
X0169543Y0123336D01*
X0169476Y0123312D01*
X0159926Y0123312D01*
X0159926Y0135236D01*
X0159953Y0135314D01*
X0159926Y0135751D01*
X0159926Y0136015D01*
X0159948Y0136114D01*
X0159882Y0136468D01*
X0159860Y0136827D01*
X0159841Y0136866D01*
X0159845Y0136911D01*
X0159737Y0137253D01*
X0159672Y0137605D01*
X0159647Y0137644D01*
X0159645Y0137691D01*
X0159497Y0138016D01*
X0159389Y0138357D01*
X0159359Y0138393D01*
X0159352Y0138438D01*
X0159165Y0138744D01*
X0159016Y0139070D01*
X0158983Y0139101D01*
X0158970Y0139144D01*
X0158747Y0139425D01*
X0158560Y0139730D01*
X0158524Y0139757D01*
X0158506Y0139798D01*
X0158250Y0140050D01*
X0158027Y0140330D01*
X0157987Y0140352D01*
X0157965Y0140391D01*
X0157680Y0140609D01*
X0157425Y0140861D01*
X0157383Y0140878D01*
X0157356Y0140913D01*
X0157047Y0141096D01*
X0156763Y0141314D01*
X0156719Y0141326D01*
X0156687Y0141359D01*
X0156359Y0141501D01*
X0156050Y0141683D01*
X0156005Y0141690D01*
X0155969Y0141718D01*
X0155626Y0141820D01*
X0155297Y0141963D01*
X0155251Y0141964D01*
X0155212Y0141988D01*
X0154859Y0142047D01*
X0154516Y0142149D01*
X0154478Y0142145D01*
X0154452Y0142157D01*
X0154082Y0142177D01*
X0153918Y0142204D01*
X0153905Y0142210D01*
X0153884Y0142210D01*
X0153717Y0142238D01*
X0153596Y0142210D01*
X0153456Y0142210D01*
X0153007Y0142233D01*
X0152940Y0142210D01*
X0107878Y0142204D01*
X0107732Y0142246D01*
X0107365Y0142204D01*
X0106994Y0142204D01*
X0106967Y0142193D01*
X0106930Y0142199D01*
X0106582Y0142115D01*
X0106226Y0142075D01*
X0106186Y0142053D01*
X0106140Y0142054D01*
X0105805Y0141929D01*
X0105457Y0141845D01*
X0105420Y0141819D01*
X0105376Y0141815D01*
X0105057Y0141649D01*
X0104720Y0141523D01*
X0104688Y0141492D01*
X0104642Y0141483D01*
X0104348Y0141280D01*
X0104031Y0141116D01*
X0104001Y0141080D01*
X0103959Y0141065D01*
X0103690Y0140827D01*
X0103393Y0140624D01*
X0103369Y0140586D01*
X0103328Y0140566D01*
X0103091Y0140298D01*
X0102823Y0140061D01*
X0102803Y0140020D01*
X0102765Y0139996D01*
X0102562Y0139699D01*
X0102324Y0139430D01*
X0102309Y0139388D01*
X0102273Y0139358D01*
X0102109Y0139041D01*
X0101906Y0138747D01*
X0101897Y0138701D01*
X0101866Y0138669D01*
X0101740Y0138332D01*
X0101574Y0138013D01*
X0101570Y0137969D01*
X0101544Y0137932D01*
X0101460Y0137584D01*
X0101335Y0137249D01*
X0101336Y0137203D01*
X0101314Y0137163D01*
X0101274Y0136807D01*
X0101190Y0136459D01*
X0101198Y0136409D01*
X0101193Y0136222D01*
X0101179Y0136188D01*
X0101179Y0135975D01*
X0101143Y0135657D01*
X0101175Y0135545D01*
X0101166Y0135223D01*
X0101179Y0135189D01*
X0101181Y0123308D01*
X0091343Y0123307D01*
X0091197Y0123349D01*
X0090829Y0123307D01*
X0090459Y0123307D01*
X0090432Y0123295D01*
X0090395Y0123301D01*
X0090047Y0123218D01*
X0089691Y0123177D01*
X0089650Y0123155D01*
X0089604Y0123156D01*
X0089269Y0123031D01*
X0088921Y0122948D01*
X0088884Y0122921D01*
X0088841Y0122917D01*
X0088521Y0122751D01*
X0088184Y0122625D01*
X0088152Y0122595D01*
X0088107Y0122585D01*
X0087813Y0122383D01*
X0087496Y0122218D01*
X0087466Y0122182D01*
X0087423Y0122168D01*
X0087154Y0121930D01*
X0086858Y0121726D01*
X0086834Y0121688D01*
X0086792Y0121668D01*
X0086555Y0121400D01*
X0086288Y0121164D01*
X0086267Y0121122D01*
X0086230Y0121098D01*
X0086026Y0120802D01*
X0085788Y0120533D01*
X0085774Y0120490D01*
X0085738Y0120460D01*
X0085573Y0120143D01*
X0085371Y0119849D01*
X0085361Y0119804D01*
X0085331Y0119772D01*
X0085205Y0119435D01*
X0085039Y0119115D01*
X0085035Y0119072D01*
X0085008Y0119035D01*
X0084925Y0118687D01*
X0084799Y0118352D01*
X0084801Y0118305D01*
X0084779Y0118265D01*
X0084738Y0117909D01*
X0084655Y0117560D01*
X0084663Y0117511D01*
X0084657Y0117323D01*
X0084643Y0117289D01*
X0084643Y0117076D01*
X0084607Y0116759D01*
X0084639Y0116647D01*
X0084631Y0116325D01*
X0084644Y0116291D01*
X0084649Y0109058D01*
X0084607Y0108913D01*
X0084649Y0108545D01*
X0084650Y0108174D01*
X0084660Y0108148D01*
X0084655Y0108112D01*
X0084738Y0107764D01*
X0084779Y0107407D01*
X0084801Y0107367D01*
X0084799Y0107320D01*
X0084925Y0106985D01*
X0085008Y0106638D01*
X0085035Y0106601D01*
X0085039Y0106557D01*
X0085205Y0106238D01*
X0085331Y0105901D01*
X0085361Y0105869D01*
X0085371Y0105823D01*
X0085573Y0105529D01*
X0085738Y0105212D01*
X0085774Y0105182D01*
X0085788Y0105140D01*
X0086026Y0104871D01*
X0086230Y0104575D01*
X0086267Y0104550D01*
X0086288Y0104509D01*
X0086555Y0104272D01*
X0086792Y0104004D01*
X0086834Y0103984D01*
X0086858Y0103946D01*
X0087154Y0103743D01*
X0087423Y0103505D01*
X0087466Y0103490D01*
X0087496Y0103454D01*
X0087813Y0103290D01*
X0088107Y0103087D01*
X0088152Y0103078D01*
X0088184Y0103048D01*
X0088521Y0102921D01*
X0088841Y0102755D01*
X0088884Y0102752D01*
X0088921Y0102725D01*
X0089269Y0102641D01*
X0089604Y0102516D01*
X0089650Y0102518D01*
X0089691Y0102495D01*
X0090047Y0102455D01*
X0090395Y0102371D01*
X0090445Y0102379D01*
X0090632Y0102374D01*
X0090665Y0102360D01*
X0090878Y0102360D01*
X0091197Y0102324D01*
X0091308Y0102356D01*
X0091630Y0102347D01*
X0091664Y0102360D01*
X0101183Y0102361D01*
X0101185Y0090161D01*
X0101143Y0090016D01*
X0101185Y0089648D01*
X0101185Y0089278D01*
X0101196Y0089251D01*
X0101190Y0089214D01*
X0101274Y0088866D01*
X0101314Y0088510D01*
X0101336Y0088470D01*
X0101335Y0088424D01*
X0101460Y0088088D01*
X0101544Y0087740D01*
X0101570Y0087704D01*
X0101574Y0087659D01*
X0101740Y0087341D01*
X0101866Y0087004D01*
X0101897Y0086971D01*
X0101906Y0086926D01*
X0102109Y0086632D01*
X0102273Y0086315D01*
X0102309Y0086285D01*
X0102324Y0086242D01*
X0102562Y0085973D01*
X0102765Y0085677D01*
X0102803Y0085653D01*
X0102823Y0085611D01*
X0103091Y0085374D01*
X0103328Y0085106D01*
X0103369Y0085086D01*
X0103393Y0085049D01*
X0103690Y0084845D01*
X0103959Y0084607D01*
X0104001Y0084592D01*
X0104031Y0084557D01*
X0104348Y0084392D01*
X0104642Y0084190D01*
X0104688Y0084180D01*
X0104720Y0084149D01*
X0105057Y0084024D01*
X0105376Y0083858D01*
X0105420Y0083854D01*
X0105457Y0083827D01*
X0105805Y0083744D01*
X0106140Y0083618D01*
X0106186Y0083620D01*
X0106226Y0083598D01*
X0106582Y0083557D01*
X0106930Y0083474D01*
X0106980Y0083481D01*
X0107167Y0083476D01*
X0107201Y0083463D01*
X0107413Y0083463D01*
X0107732Y0083426D01*
X0107844Y0083458D01*
X0108166Y0083450D01*
X0108200Y0083463D01*
X0153228Y0083468D01*
X0153373Y0083426D01*
X0153741Y0083468D01*
X0154111Y0083468D01*
X0154138Y0083479D01*
X0154175Y0083474D01*
X0154523Y0083557D01*
X0154879Y0083598D01*
X0154919Y0083620D01*
X0154965Y0083618D01*
X0155301Y0083744D01*
X0155649Y0083827D01*
X0155685Y0083854D01*
X0155730Y0083858D01*
X0156048Y0084024D01*
X0156385Y0084149D01*
X0156418Y0084180D01*
X0156463Y0084190D01*
X0156757Y0084392D01*
X0157074Y0084557D01*
X0157104Y0084592D01*
X0157147Y0084607D01*
X0158398Y0085761D02*
X0169574Y0085761D01*
X0159854Y0088960D02*
X0221934Y0088960D01*
X0218736Y0085761D02*
X0186334Y0085761D01*
X0192527Y0082563D02*
X0192673Y0082563D01*
X0192673Y0079364D02*
X0192527Y0079364D01*
X0192527Y0076166D02*
X0192673Y0076166D01*
X0192673Y0072967D02*
X0192527Y0072967D01*
X0189957Y0069769D02*
X0219075Y0069769D01*
X0220225Y0072967D02*
X0205633Y0072967D01*
X0205433Y0076166D02*
X0255906Y0076166D01*
X0255906Y0072967D02*
X0228636Y0072967D01*
X0228844Y0072828D02*
X0228418Y0073113D01*
X0227945Y0073309D01*
X0227443Y0073409D01*
X0224431Y0073409D01*
X0224431Y0068840D01*
X0229787Y0068840D01*
X0229787Y0071065D01*
X0229687Y0071567D01*
X0229491Y0072040D01*
X0229206Y0072466D01*
X0228844Y0072828D01*
X0229787Y0069769D02*
X0255906Y0069769D01*
X0255906Y0066570D02*
X0229778Y0066570D01*
X0229587Y0063372D02*
X0255906Y0063372D01*
X0255906Y0060173D02*
X0229587Y0060173D01*
X0228359Y0056975D02*
X0255906Y0056975D01*
X0255906Y0053776D02*
X0228937Y0053776D01*
X0228937Y0050578D02*
X0255906Y0050578D01*
X0255906Y0047379D02*
X0228359Y0047379D01*
X0228937Y0044181D02*
X0255906Y0044181D01*
X0255906Y0040982D02*
X0228937Y0040982D01*
X0223300Y0037784D02*
X0255906Y0037784D01*
X0255906Y0034585D02*
X0223300Y0034585D01*
X0223300Y0031387D02*
X0255906Y0031387D01*
X0255906Y0028188D02*
X0250766Y0028188D01*
X0254536Y0024990D02*
X0255906Y0024990D01*
X0245488Y0024990D02*
X0243176Y0024990D01*
X0243176Y0028188D02*
X0245488Y0028188D01*
X0243176Y0029823D02*
X0242408Y0029747D01*
X0241145Y0029496D01*
X0239914Y0029122D01*
X0238725Y0028630D01*
X0237589Y0028023D01*
X0236519Y0027308D01*
X0235524Y0026491D01*
X0234614Y0025581D01*
X0233798Y0024586D01*
X0233082Y0023516D01*
X0232476Y0022381D01*
X0231983Y0021192D01*
X0231610Y0019960D01*
X0231358Y0018698D01*
X0231283Y0017929D01*
X0243176Y0017929D01*
X0243176Y0029823D01*
X0237898Y0028188D02*
X0223300Y0028188D01*
X0223347Y0024990D02*
X0234129Y0024990D01*
X0232231Y0021791D02*
X0225452Y0021791D01*
X0225500Y0018593D02*
X0231348Y0018593D01*
X0231305Y0015394D02*
X0225500Y0015394D01*
X0224949Y0012196D02*
X0232049Y0012196D01*
X0233773Y0008997D02*
X0162724Y0008997D01*
X0162568Y0008976D02*
X0163596Y0009112D01*
X0164598Y0009380D01*
X0165557Y0009777D01*
X0166456Y0010296D01*
X0167279Y0010928D01*
X0168012Y0011661D01*
X0168644Y0012485D01*
X0169163Y0013383D01*
X0169560Y0014342D01*
X0169828Y0015344D01*
X0169964Y0016373D01*
X0169964Y0016810D01*
X0170113Y0016770D01*
X0171295Y0016614D01*
X0171326Y0016614D01*
X0171326Y0031641D01*
X0172457Y0031641D01*
X0172457Y0032772D01*
X0171326Y0032772D01*
X0171326Y0047798D01*
X0171295Y0047798D01*
X0170113Y0047643D01*
X0168961Y0047334D01*
X0167860Y0046878D01*
X0166827Y0046282D01*
X0165881Y0045556D01*
X0165038Y0044713D01*
X0164312Y0043767D01*
X0163716Y0042734D01*
X0163260Y0041632D01*
X0162951Y0040481D01*
X0162795Y0039299D01*
X0162795Y0035406D01*
X0162568Y0035436D01*
X0162049Y0035436D01*
X0162049Y0022206D01*
X0162049Y0008976D01*
X0162568Y0008976D01*
X0162049Y0008976D02*
X0162049Y0022206D01*
X0162049Y0022206D01*
X0154134Y0022206D01*
X0154134Y0016373D01*
X0154269Y0015344D01*
X0154538Y0014342D01*
X0154935Y0013383D01*
X0155454Y0012485D01*
X0156085Y0011661D01*
X0156819Y0010928D01*
X0157642Y0010296D01*
X0158541Y0009777D01*
X0159499Y0009380D01*
X0160501Y0009112D01*
X0161530Y0008976D01*
X0162049Y0008976D01*
X0162049Y0008997D02*
X0162049Y0008997D01*
X0161373Y0008997D02*
X0102183Y0008997D01*
X0106301Y0012196D02*
X0155675Y0012196D01*
X0154263Y0015394D02*
X0107546Y0015394D01*
X0107546Y0018593D02*
X0154134Y0018593D01*
X0154134Y0021791D02*
X0107546Y0021791D01*
X0107546Y0024990D02*
X0154134Y0024990D01*
X0154134Y0022206D02*
X0154134Y0028040D01*
X0154269Y0029069D01*
X0154538Y0030071D01*
X0154935Y0031029D01*
X0155454Y0031928D01*
X0156085Y0032751D01*
X0156819Y0033485D01*
X0157642Y0034116D01*
X0158541Y0034635D01*
X0159499Y0035032D01*
X0160501Y0035301D01*
X0161530Y0035436D01*
X0162049Y0035436D01*
X0162049Y0022206D01*
X0162049Y0022206D01*
X0162049Y0022206D01*
X0154134Y0022206D01*
X0154153Y0028188D02*
X0116437Y0028188D01*
X0120074Y0031387D02*
X0155141Y0031387D01*
X0158454Y0034585D02*
X0123272Y0034585D01*
X0126471Y0037784D02*
X0162795Y0037784D01*
X0162049Y0034585D02*
X0162049Y0034585D01*
X0162049Y0031387D02*
X0162049Y0031387D01*
X0162049Y0028188D02*
X0162049Y0028188D01*
X0162049Y0024990D02*
X0162049Y0024990D01*
X0162049Y0021791D02*
X0162049Y0021791D01*
X0162049Y0018593D02*
X0162049Y0018593D01*
X0162049Y0015394D02*
X0162049Y0015394D01*
X0162049Y0012196D02*
X0162049Y0012196D01*
X0168422Y0012196D02*
X0185251Y0012196D01*
X0184700Y0015394D02*
X0169835Y0015394D01*
X0172457Y0016614D02*
X0172488Y0016614D01*
X0173670Y0016770D01*
X0174821Y0017078D01*
X0175923Y0017535D01*
X0176956Y0018131D01*
X0177902Y0018857D01*
X0178745Y0019700D01*
X0179471Y0020646D01*
X0180067Y0021679D01*
X0180523Y0022780D01*
X0180832Y0023932D01*
X0180987Y0025114D01*
X0180987Y0031641D01*
X0172457Y0031641D01*
X0172457Y0016614D01*
X0172457Y0018593D02*
X0171326Y0018593D01*
X0171326Y0021791D02*
X0172457Y0021791D01*
X0172457Y0024990D02*
X0171326Y0024990D01*
X0171326Y0028188D02*
X0172457Y0028188D01*
X0172457Y0031387D02*
X0171326Y0031387D01*
X0172457Y0032772D02*
X0180987Y0032772D01*
X0180987Y0039299D01*
X0180832Y0040481D01*
X0180523Y0041632D01*
X0180067Y0042734D01*
X0179471Y0043767D01*
X0178745Y0044713D01*
X0177902Y0045556D01*
X0176956Y0046282D01*
X0175923Y0046878D01*
X0174821Y0047334D01*
X0173670Y0047643D01*
X0172488Y0047798D01*
X0172457Y0047798D01*
X0172457Y0032772D01*
X0172457Y0034585D02*
X0171326Y0034585D01*
X0171326Y0037784D02*
X0172457Y0037784D01*
X0172457Y0040982D02*
X0171326Y0040982D01*
X0171326Y0044181D02*
X0172457Y0044181D01*
X0172457Y0047379D02*
X0171326Y0047379D01*
X0169129Y0047379D02*
X0136066Y0047379D01*
X0132868Y0044181D02*
X0164630Y0044181D01*
X0163085Y0040982D02*
X0129669Y0040982D01*
X0123692Y0047379D02*
X0093538Y0047379D01*
X0097413Y0044181D02*
X0120494Y0044181D01*
X0117295Y0040982D02*
X0098738Y0040982D01*
X0098885Y0037784D02*
X0114097Y0037784D01*
X0133288Y0056975D02*
X0080583Y0056975D01*
X0079392Y0060173D02*
X0136486Y0060173D01*
X0142463Y0053776D02*
X0181028Y0053776D01*
X0183895Y0050578D02*
X0139265Y0050578D01*
X0145662Y0056975D02*
X0180532Y0056975D01*
X0181713Y0060173D02*
X0148860Y0060173D01*
X0152059Y0063372D02*
X0187303Y0063372D01*
X0184104Y0066570D02*
X0155257Y0066570D01*
X0158456Y0069769D02*
X0181624Y0069769D01*
X0179767Y0072967D02*
X0173463Y0072967D01*
X0173486Y0073023D02*
X0173586Y0073525D01*
X0173586Y0075159D01*
X0169214Y0075159D01*
X0169214Y0075159D01*
X0169214Y0071181D01*
X0171242Y0071181D01*
X0171744Y0071281D01*
X0172217Y0071477D01*
X0172643Y0071762D01*
X0173005Y0072124D01*
X0173290Y0072550D01*
X0173486Y0073023D01*
X0173586Y0076166D02*
X0179767Y0076166D01*
X0169214Y0075159D02*
X0169214Y0075159D01*
X0169214Y0072967D02*
X0169214Y0072967D01*
X0164965Y0072967D02*
X0161654Y0072967D01*
X0159926Y0092158D02*
X0225133Y0092158D01*
X0225384Y0095357D02*
X0159926Y0095357D01*
X0159926Y0098555D02*
X0210787Y0098555D01*
X0210361Y0101754D02*
X0159926Y0101754D01*
X0175152Y0104952D02*
X0210361Y0104952D01*
X0204346Y0108151D02*
X0176445Y0108151D01*
X0176462Y0111349D02*
X0204346Y0111349D01*
X0204346Y0114548D02*
X0176462Y0114548D01*
X0176407Y0117746D02*
X0201149Y0117746D01*
X0197950Y0120945D02*
X0174996Y0120945D01*
X0188355Y0130540D02*
X0159926Y0130540D01*
X0159926Y0127342D02*
X0191553Y0127342D01*
X0194752Y0124143D02*
X0159926Y0124143D01*
X0159926Y0133739D02*
X0185156Y0133739D01*
X0181957Y0136937D02*
X0159837Y0136937D01*
X0158181Y0140136D02*
X0178759Y0140136D01*
X0184736Y0146533D02*
X0255906Y0146533D01*
X0255906Y0143334D02*
X0187934Y0143334D01*
X0191133Y0140136D02*
X0255906Y0140136D01*
X0255906Y0136937D02*
X0194331Y0136937D01*
X0197530Y0133739D02*
X0255906Y0133739D01*
X0255906Y0130540D02*
X0200728Y0130540D01*
X0203927Y0127342D02*
X0210880Y0127342D01*
X0210361Y0124143D02*
X0207125Y0124143D01*
X0210324Y0120945D02*
X0210361Y0120945D01*
X0227910Y0120945D02*
X0255906Y0120945D01*
X0255906Y0117746D02*
X0233150Y0117746D01*
X0233150Y0114548D02*
X0255906Y0114548D01*
X0255906Y0111349D02*
X0233150Y0111349D01*
X0233150Y0108151D02*
X0255906Y0108151D01*
X0255906Y0104952D02*
X0231784Y0104952D01*
X0231784Y0101754D02*
X0255906Y0101754D01*
X0255906Y0098555D02*
X0231784Y0098555D01*
X0231784Y0095357D02*
X0255906Y0095357D01*
X0255906Y0092158D02*
X0231784Y0092158D01*
X0230985Y0088960D02*
X0255906Y0088960D01*
X0255906Y0085761D02*
X0227787Y0085761D01*
X0224588Y0082563D02*
X0255906Y0082563D01*
X0255906Y0079364D02*
X0221374Y0079364D01*
X0224431Y0072967D02*
X0224431Y0072967D01*
X0224431Y0069769D02*
X0224431Y0069769D01*
X0224431Y0068840D02*
X0224431Y0068840D01*
X0219275Y0060173D02*
X0192384Y0060173D01*
X0193575Y0056975D02*
X0221959Y0056975D01*
X0220041Y0056972D02*
X0218407Y0056972D01*
X0217905Y0056872D01*
X0217431Y0056676D01*
X0217006Y0056391D01*
X0216643Y0056029D01*
X0216359Y0055603D01*
X0216163Y0055130D01*
X0216063Y0054628D01*
X0216063Y0052600D01*
X0220041Y0052600D01*
X0220041Y0052600D01*
X0220041Y0048228D01*
X0218407Y0048228D01*
X0217905Y0048328D01*
X0217431Y0048524D01*
X0217006Y0048809D01*
X0216643Y0049171D01*
X0216359Y0049597D01*
X0216163Y0050070D01*
X0216063Y0050572D01*
X0216063Y0052600D01*
X0220041Y0052600D01*
X0220041Y0056972D01*
X0220041Y0053776D02*
X0220041Y0053776D01*
X0220041Y0052600D02*
X0220041Y0052600D01*
X0220041Y0050578D02*
X0220041Y0050578D01*
X0221959Y0047379D02*
X0174654Y0047379D01*
X0179153Y0044181D02*
X0216263Y0044181D01*
X0216263Y0040982D02*
X0180697Y0040982D01*
X0180987Y0037784D02*
X0216900Y0037784D01*
X0216900Y0034585D02*
X0180987Y0034585D01*
X0180987Y0031387D02*
X0216900Y0031387D01*
X0216900Y0028188D02*
X0180987Y0028188D01*
X0180971Y0024990D02*
X0186853Y0024990D01*
X0184748Y0021791D02*
X0180113Y0021791D01*
X0177557Y0018593D02*
X0184700Y0018593D01*
X0193347Y0024990D02*
X0196853Y0024990D01*
X0203347Y0024990D02*
X0206853Y0024990D01*
X0213347Y0024990D02*
X0216853Y0024990D01*
X0215251Y0012196D02*
X0214949Y0012196D01*
X0205251Y0012196D02*
X0204949Y0012196D01*
X0195251Y0012196D02*
X0194949Y0012196D01*
X0237178Y0005799D02*
X0023928Y0005799D01*
X0027333Y0008997D02*
X0095930Y0008997D01*
X0091812Y0012196D02*
X0029056Y0012196D01*
X0029801Y0015394D02*
X0090567Y0015394D01*
X0082655Y0018593D02*
X0029757Y0018593D01*
X0028874Y0021791D02*
X0080370Y0021791D01*
X0079543Y0024990D02*
X0074086Y0024990D01*
X0075460Y0037784D02*
X0079543Y0037784D01*
X0040665Y0037784D02*
X0038944Y0037784D01*
X0038944Y0034585D02*
X0040665Y0034585D01*
X0040665Y0031387D02*
X0038944Y0031387D01*
X0038944Y0028188D02*
X0040665Y0028188D01*
X0017929Y0028188D02*
X0015617Y0028188D01*
X0015617Y0024990D02*
X0017929Y0024990D01*
X0017929Y0021791D02*
X0015617Y0021791D01*
X0015617Y0018593D02*
X0017929Y0018593D01*
X0010339Y0028188D02*
X0005200Y0028188D01*
X0005200Y0024990D02*
X0006569Y0024990D01*
X0046975Y0085761D02*
X0102707Y0085761D01*
X0101251Y0088960D02*
X0046975Y0088960D01*
X0046975Y0092158D02*
X0101184Y0092158D01*
X0101184Y0095357D02*
X0046975Y0095357D01*
X0050318Y0098555D02*
X0101184Y0098555D01*
X0101183Y0101754D02*
X0050745Y0101754D01*
X0050745Y0104952D02*
X0085954Y0104952D01*
X0084659Y0108151D02*
X0056759Y0108151D01*
X0056759Y0111349D02*
X0084647Y0111349D01*
X0084645Y0114548D02*
X0056759Y0114548D01*
X0059957Y0117746D02*
X0084699Y0117746D01*
X0086125Y0120945D02*
X0063155Y0120945D01*
X0066354Y0124143D02*
X0101181Y0124143D01*
X0101180Y0127342D02*
X0069552Y0127342D01*
X0072751Y0130540D02*
X0101180Y0130540D01*
X0101179Y0133739D02*
X0075949Y0133739D01*
X0079148Y0136937D02*
X0101289Y0136937D01*
X0102908Y0140136D02*
X0082347Y0140136D01*
X0076370Y0146533D02*
X0005200Y0146533D01*
X0005200Y0143334D02*
X0073171Y0143334D01*
X0069973Y0140136D02*
X0005200Y0140136D01*
X0005200Y0136937D02*
X0066774Y0136937D01*
X0063576Y0133739D02*
X0005200Y0133739D01*
X0005200Y0130540D02*
X0060377Y0130540D01*
X0057179Y0127342D02*
X0050225Y0127342D01*
X0050745Y0124143D02*
X0053980Y0124143D01*
X0050782Y0120945D02*
X0050745Y0120945D01*
X0033195Y0120945D02*
X0005200Y0120945D01*
X0005200Y0117746D02*
X0027181Y0117746D01*
X0027181Y0114548D02*
X0005200Y0114548D01*
X0005200Y0111349D02*
X0027181Y0111349D01*
X0027181Y0108151D02*
X0005200Y0108151D01*
X0005200Y0124143D02*
X0033195Y0124143D01*
X0033715Y0127342D02*
X0005200Y0127342D01*
X0005200Y0149732D02*
X0079568Y0149732D01*
X0075523Y0162922D02*
X0075860Y0163042D01*
X0076210Y0163119D01*
X0076247Y0163146D01*
X0076293Y0163149D01*
X0076614Y0163309D01*
X0076952Y0163429D01*
X0076986Y0163459D01*
X0077030Y0163468D01*
X0077329Y0163665D01*
X0077649Y0163825D01*
X0077679Y0163859D01*
X0077720Y0163872D01*
X0077994Y0164106D01*
X0078294Y0164304D01*
X0078319Y0164341D01*
X0078361Y0164361D01*
X0078602Y0164624D01*
X0078874Y0164856D01*
X0078895Y0164898D01*
X0078934Y0164922D01*
X0079143Y0165215D01*
X0079385Y0165479D01*
X0079400Y0165522D01*
X0079436Y0165551D01*
X0079607Y0165865D01*
X0079815Y0166156D01*
X0079825Y0166201D01*
X0079855Y0166232D01*
X0079987Y0166567D01*
X0080159Y0166883D01*
X0080163Y0166927D01*
X0080191Y0166964D01*
X0080281Y0167310D01*
X0080412Y0167643D01*
X0080411Y0167689D01*
X0080433Y0167727D01*
X0080480Y0168084D01*
X0080570Y0168432D01*
X0080564Y0168476D01*
X0080582Y0168519D01*
X0080585Y0168876D01*
X0080632Y0169229D01*
X0080620Y0169275D01*
X0080632Y0169318D01*
X0080591Y0169675D01*
X0080594Y0170034D01*
X0080578Y0170075D01*
X0080585Y0170119D01*
X0080501Y0170468D01*
X0080461Y0170824D01*
X0080439Y0170864D01*
X0080440Y0170909D01*
X0080315Y0171245D01*
X0080231Y0171594D01*
X0080204Y0171630D01*
X0080200Y0171676D01*
X0080035Y0171994D01*
X0079910Y0172329D01*
X0079878Y0172363D01*
X0079869Y0172407D01*
X0079666Y0172702D01*
X0079500Y0173021D01*
X0079465Y0173050D01*
X0079450Y0173093D01*
X0079213Y0173361D01*
X0079010Y0173656D01*
X0078972Y0173681D01*
X0078953Y0173721D01*
X0078684Y0173959D01*
X0078446Y0174228D01*
X0078406Y0174248D01*
X0078381Y0174286D01*
X0078086Y0174489D01*
X0077818Y0174726D01*
X0077774Y0174741D01*
X0077744Y0174777D01*
X0077426Y0174942D01*
X0077131Y0175145D01*
X0077087Y0175154D01*
X0077055Y0175184D01*
X0076718Y0175310D01*
X0076399Y0175476D01*
X0076355Y0175480D01*
X0076319Y0175506D01*
X0075971Y0175590D01*
X0075636Y0175715D01*
X0075589Y0175714D01*
X0075549Y0175736D01*
X0075193Y0175777D01*
X0074845Y0175860D01*
X0074799Y0175853D01*
X0074757Y0175870D01*
X0074398Y0175867D01*
X0074042Y0175908D01*
X0073999Y0175895D01*
X0073956Y0175907D01*
X0073600Y0175860D01*
X0073241Y0175857D01*
X0073200Y0175839D01*
X0073157Y0175846D01*
X0072809Y0175756D01*
X0072453Y0175709D01*
X0072414Y0175686D01*
X0072367Y0175687D01*
X0072035Y0175556D01*
X0071689Y0175467D01*
X0071651Y0175439D01*
X0071605Y0175434D01*
X0071290Y0175263D01*
X0070957Y0175131D01*
X0070925Y0175100D01*
X0070881Y0175090D01*
X0070589Y0174881D01*
X0070273Y0174710D01*
X0070245Y0174675D01*
X0070202Y0174659D01*
X0069938Y0174418D01*
X0069647Y0174209D01*
X0069623Y0174171D01*
X0069583Y0174151D01*
X0069350Y0173878D01*
X0069085Y0173635D01*
X0069066Y0173595D01*
X0069029Y0173570D01*
X0068831Y0173271D01*
X0068598Y0172998D01*
X0068584Y0172955D01*
X0068550Y0172925D01*
X0068390Y0172604D01*
X0068192Y0172306D01*
X0068183Y0172260D01*
X0068152Y0172226D01*
X0068033Y0171889D01*
X0067873Y0171568D01*
X0067870Y0171523D01*
X0067845Y0171487D01*
X0067767Y0171136D01*
X0067647Y0170797D01*
X0067649Y0170753D01*
X0067628Y0170713D01*
X0067593Y0170357D01*
X0067516Y0170007D01*
X0067524Y0169962D01*
X0067507Y0169919D01*
X0067517Y0169561D01*
X0067482Y0169204D01*
X0067496Y0169160D01*
X0067485Y0169115D01*
X0067538Y0168761D01*
X0067547Y0168403D01*
X0067566Y0168362D01*
X0067560Y0168318D01*
X0067656Y0167972D01*
X0067709Y0167616D01*
X0067732Y0167578D01*
X0067732Y0167533D01*
X0067869Y0167202D01*
X0067965Y0166857D01*
X0067993Y0166821D01*
X0067999Y0166775D01*
X0068175Y0166464D01*
X0068312Y0166133D01*
X0068344Y0166100D01*
X0068356Y0166056D01*
X0068569Y0165768D01*
X0068745Y0165456D01*
X0068781Y0165428D01*
X0068797Y0165387D01*
X0069044Y0165126D01*
X0069258Y0164837D01*
X0069296Y0164814D01*
X0069318Y0164774D01*
X0069594Y0164546D01*
X0069840Y0164287D01*
X0069882Y0164268D01*
X0069908Y0164231D01*
X0070211Y0164038D01*
X0070488Y0163810D01*
X0070530Y0163797D01*
X0070560Y0163764D01*
X0070884Y0163609D01*
X0071187Y0163416D01*
X0071231Y0163408D01*
X0071266Y0163378D01*
X0071605Y0163265D01*
X0071928Y0163111D01*
X0071974Y0163108D01*
X0072011Y0163084D01*
X0072363Y0163012D01*
X0072704Y0162898D01*
X0072749Y0162901D01*
X0073022Y0162870D01*
X0073128Y0162823D01*
X0073313Y0162818D01*
X0073496Y0162781D01*
X0073612Y0162803D01*
X0073880Y0162773D01*
X0073928Y0162758D01*
X0074285Y0162792D01*
X0074643Y0162783D01*
X0074685Y0162799D01*
X0074730Y0162791D01*
X0075080Y0162869D01*
X0075437Y0162903D01*
X0075477Y0162925D01*
X0075523Y0162922D01*
X0079530Y0165724D02*
X0155908Y0165724D01*
X0155909Y0164570D02*
X0155867Y0164425D01*
X0155909Y0164057D01*
X0155909Y0163686D01*
X0155920Y0163660D01*
X0155914Y0163623D01*
X0155998Y0163275D01*
X0156038Y0162919D01*
X0156061Y0162879D01*
X0156059Y0162834D01*
X0156185Y0162498D01*
X0156268Y0162149D01*
X0156295Y0162113D01*
X0156299Y0162067D01*
X0156464Y0161750D01*
X0156589Y0161414D01*
X0156621Y0161381D01*
X0156630Y0161336D01*
X0156833Y0161041D01*
X0156999Y0160723D01*
X0157034Y0160693D01*
X0157049Y0160650D01*
X0157286Y0160382D01*
X0157489Y0160087D01*
X0157527Y0160062D01*
X0157547Y0160022D01*
X0157815Y0159784D01*
X0158053Y0159515D01*
X0158094Y0159495D01*
X0158118Y0159457D01*
X0158413Y0159255D01*
X0158682Y0159017D01*
X0158725Y0159002D01*
X0158754Y0158967D01*
X0159072Y0158802D01*
X0159368Y0158599D01*
X0159412Y0158589D01*
X0159446Y0158558D01*
X0159781Y0158433D01*
X0160099Y0158267D01*
X0160144Y0158263D01*
X0160181Y0158237D01*
X0160529Y0158153D01*
X0160866Y0158027D01*
X0160911Y0158029D01*
X0160951Y0158007D01*
X0161306Y0157967D01*
X0161654Y0157883D01*
X0161704Y0157891D01*
X0161892Y0157886D01*
X0161926Y0157872D01*
X0162139Y0157872D01*
X0162457Y0157836D01*
X0162568Y0157868D01*
X0162890Y0157859D01*
X0162925Y0157872D01*
X0172126Y0157877D01*
X0172271Y0157836D01*
X0172639Y0157878D01*
X0173010Y0157878D01*
X0173036Y0157889D01*
X0173073Y0157883D01*
X0173421Y0157967D01*
X0173777Y0158007D01*
X0173816Y0158029D01*
X0173861Y0158027D01*
X0174197Y0158153D01*
X0174547Y0158237D01*
X0174583Y0158263D01*
X0174629Y0158267D01*
X0174946Y0158432D01*
X0175281Y0158557D01*
X0175315Y0158589D01*
X0175361Y0158599D01*
X0175656Y0158802D01*
X0175973Y0158967D01*
X0176003Y0159002D01*
X0176044Y0159017D01*
X0176314Y0159255D01*
X0176610Y0159458D01*
X0176634Y0159495D01*
X0176674Y0159515D01*
X0176912Y0159783D01*
X0177180Y0160021D01*
X0177200Y0160062D01*
X0177239Y0160087D01*
X0177441Y0160382D01*
X0177679Y0160650D01*
X0177694Y0160694D01*
X0177730Y0160724D01*
X0177895Y0161042D01*
X0178097Y0161336D01*
X0178107Y0161381D01*
X0178137Y0161413D01*
X0178263Y0161750D01*
X0178429Y0162069D01*
X0178433Y0162113D01*
X0178459Y0162149D01*
X0178543Y0162497D01*
X0178668Y0162832D01*
X0178667Y0162879D01*
X0178689Y0162919D01*
X0178729Y0163275D01*
X0178813Y0163623D01*
X0178805Y0163673D01*
X0178810Y0163860D01*
X0178824Y0163893D01*
X0178824Y0164106D01*
X0178860Y0164425D01*
X0178828Y0164537D01*
X0178837Y0164859D01*
X0178824Y0164892D01*
X0178824Y0173819D01*
X0178851Y0173897D01*
X0178824Y0174334D01*
X0178824Y0174598D01*
X0178845Y0174697D01*
X0178780Y0175051D01*
X0178758Y0175410D01*
X0178738Y0175449D01*
X0178742Y0175494D01*
X0178635Y0175836D01*
X0178570Y0176188D01*
X0178544Y0176227D01*
X0178543Y0176274D01*
X0178394Y0176599D01*
X0178287Y0176940D01*
X0178257Y0176976D01*
X0178250Y0177020D01*
X0178062Y0177326D01*
X0177913Y0177653D01*
X0177881Y0177684D01*
X0177868Y0177727D01*
X0177645Y0178007D01*
X0177458Y0178313D01*
X0177421Y0178339D01*
X0177404Y0178381D01*
X0177148Y0178632D01*
X0177119Y0178668D01*
X0177369Y0178772D01*
X0180090Y0181492D01*
X0181562Y0185046D01*
X0181562Y0187425D01*
X0184740Y0187425D01*
X0184740Y0187047D01*
X0185223Y0185880D01*
X0186117Y0184987D01*
X0187283Y0184504D01*
X0202326Y0184504D01*
X0203493Y0184987D01*
X0204386Y0185880D01*
X0204869Y0187047D01*
X0204869Y0198153D01*
X0204386Y0199320D01*
X0203493Y0200213D01*
X0202326Y0200696D01*
X0187283Y0200696D01*
X0186117Y0200213D01*
X0185223Y0199320D01*
X0184740Y0198153D01*
X0184740Y0197775D01*
X0181562Y0197775D01*
X0181562Y0201886D01*
X0180090Y0205440D01*
X0177369Y0208161D01*
X0173815Y0209633D01*
X0170539Y0209633D01*
X0170539Y0210470D01*
X0169246Y0213590D01*
X0166858Y0215978D01*
X0163738Y0217271D01*
X0160360Y0217271D01*
X0157240Y0215978D01*
X0154852Y0213590D01*
X0153559Y0210470D01*
X0153559Y0196462D01*
X0154852Y0193342D01*
X0157240Y0190954D01*
X0160360Y0189661D01*
X0162220Y0189661D01*
X0162220Y0185046D01*
X0163693Y0181492D01*
X0164397Y0180788D01*
X0162602Y0180787D01*
X0162457Y0180829D01*
X0162089Y0180787D01*
X0161718Y0180787D01*
X0161691Y0180776D01*
X0161654Y0180782D01*
X0161306Y0180698D01*
X0160951Y0180658D01*
X0160910Y0180635D01*
X0160864Y0180637D01*
X0160529Y0180511D01*
X0160181Y0180428D01*
X0160144Y0180401D01*
X0160100Y0180397D01*
X0159781Y0180231D01*
X0159444Y0180105D01*
X0159412Y0180075D01*
X0159368Y0180066D01*
X0159073Y0179863D01*
X0158756Y0179698D01*
X0158726Y0179662D01*
X0158682Y0179647D01*
X0158413Y0179410D01*
X0158118Y0179207D01*
X0158093Y0179169D01*
X0158052Y0179149D01*
X0157815Y0178880D01*
X0157547Y0178643D01*
X0157527Y0178602D01*
X0157490Y0178578D01*
X0157286Y0178282D01*
X0157048Y0178013D01*
X0157034Y0177971D01*
X0156999Y0177942D01*
X0156834Y0177624D01*
X0156631Y0177329D01*
X0156621Y0177284D01*
X0156589Y0177249D01*
X0156464Y0176915D01*
X0156299Y0176598D01*
X0156295Y0176551D01*
X0156268Y0176515D01*
X0156184Y0176166D01*
X0156059Y0175829D01*
X0156060Y0175785D01*
X0156039Y0175745D01*
X0155998Y0175390D01*
X0155914Y0175041D01*
X0155922Y0174991D01*
X0155917Y0174804D01*
X0155903Y0174770D01*
X0155903Y0174557D01*
X0155867Y0174239D01*
X0155899Y0174128D01*
X0155891Y0173806D01*
X0155904Y0173771D01*
X0155909Y0164570D01*
X0156174Y0162526D02*
X0005200Y0162526D01*
X0005200Y0165724D02*
X0068594Y0165724D01*
X0067514Y0168923D02*
X0005200Y0168923D01*
X0005200Y0172121D02*
X0068115Y0172121D01*
X0071395Y0175320D02*
X0005200Y0175320D01*
X0005200Y0178518D02*
X0085850Y0178518D01*
X0086284Y0178338D02*
X0085182Y0178795D01*
X0084150Y0179391D01*
X0083204Y0180117D01*
X0082361Y0180960D01*
X0081635Y0181906D01*
X0081039Y0182938D01*
X0080582Y0184040D01*
X0080274Y0185192D01*
X0080118Y0186374D01*
X0080118Y0192901D01*
X0088649Y0192901D01*
X0089780Y0192901D01*
X0089780Y0177874D01*
X0089810Y0177874D01*
X0090993Y0178030D01*
X0092144Y0178338D01*
X0093246Y0178795D01*
X0094279Y0179391D01*
X0095224Y0180117D01*
X0096068Y0180960D01*
X0096793Y0181906D01*
X0097390Y0182938D01*
X0097846Y0184040D01*
X0098155Y0185192D01*
X0098310Y0186374D01*
X0098310Y0190266D01*
X0098538Y0190236D01*
X0099057Y0190236D01*
X0099575Y0190236D01*
X0100604Y0190372D01*
X0101606Y0190640D01*
X0102565Y0191037D01*
X0103463Y0191556D01*
X0104287Y0192188D01*
X0105020Y0192921D01*
X0105652Y0193744D01*
X0106171Y0194643D01*
X0106568Y0195602D01*
X0106836Y0196604D01*
X0106972Y0197632D01*
X0106972Y0203466D01*
X0099057Y0203466D01*
X0099057Y0203466D01*
X0106972Y0203466D01*
X0106972Y0209300D01*
X0106836Y0210329D01*
X0106568Y0211331D01*
X0106171Y0212289D01*
X0105652Y0213188D01*
X0105020Y0214011D01*
X0104287Y0214745D01*
X0103463Y0215376D01*
X0102565Y0215895D01*
X0101606Y0216292D01*
X0100604Y0216561D01*
X0099575Y0216696D01*
X0099057Y0216696D01*
X0099057Y0203466D01*
X0099057Y0190236D01*
X0099057Y0203466D01*
X0099057Y0203466D01*
X0099057Y0203466D01*
X0099057Y0216696D01*
X0098538Y0216696D01*
X0097509Y0216561D01*
X0096507Y0216292D01*
X0095548Y0215895D01*
X0094650Y0215376D01*
X0093827Y0214745D01*
X0093093Y0214011D01*
X0092462Y0213188D01*
X0091943Y0212289D01*
X0091546Y0211331D01*
X0091277Y0210329D01*
X0091142Y0209300D01*
X0091142Y0208863D01*
X0090993Y0208903D01*
X0089810Y0209058D01*
X0089780Y0209058D01*
X0089780Y0194032D01*
X0088649Y0194032D01*
X0088649Y0209058D01*
X0088618Y0209058D01*
X0087436Y0208903D01*
X0086284Y0208594D01*
X0085182Y0208138D01*
X0084150Y0207542D01*
X0083204Y0206816D01*
X0082361Y0205973D01*
X0081635Y0205027D01*
X0081039Y0203994D01*
X0080582Y0202892D01*
X0080274Y0201741D01*
X0080118Y0200558D01*
X0080118Y0194031D01*
X0088649Y0194031D01*
X0088649Y0192901D01*
X0088649Y0177874D01*
X0088618Y0177874D01*
X0087436Y0178030D01*
X0086284Y0178338D01*
X0088649Y0178518D02*
X0089780Y0178518D01*
X0092578Y0178518D02*
X0157448Y0178518D01*
X0155981Y0175320D02*
X0076700Y0175320D01*
X0079987Y0172121D02*
X0155905Y0172121D01*
X0155906Y0168923D02*
X0080591Y0168923D01*
X0081780Y0181717D02*
X0005200Y0181717D01*
X0005200Y0184915D02*
X0080348Y0184915D01*
X0080118Y0188114D02*
X0005200Y0188114D01*
X0005200Y0191312D02*
X0080118Y0191312D01*
X0080118Y0194511D02*
X0005200Y0194511D01*
X0005200Y0197709D02*
X0009941Y0197709D01*
X0006385Y0200908D02*
X0005200Y0200908D01*
X0015617Y0200908D02*
X0017929Y0200908D01*
X0017929Y0204106D02*
X0015617Y0204106D01*
X0015617Y0207305D02*
X0017929Y0207305D01*
X0017929Y0197709D02*
X0015617Y0197709D01*
X0023606Y0197709D02*
X0080118Y0197709D01*
X0080164Y0200908D02*
X0075419Y0200908D01*
X0075632Y0200996D02*
X0076057Y0201280D01*
X0076420Y0201643D01*
X0076704Y0202068D01*
X0076900Y0202542D01*
X0077000Y0203044D01*
X0077000Y0207600D01*
X0077000Y0212156D01*
X0076900Y0212658D01*
X0076704Y0213132D01*
X0076420Y0213557D01*
X0076057Y0213920D01*
X0075632Y0214204D01*
X0075158Y0214400D01*
X0074656Y0214500D01*
X0070100Y0214500D01*
X0070100Y0207600D01*
X0077000Y0207600D01*
X0070100Y0207600D01*
X0070100Y0207600D01*
X0070100Y0207600D01*
X0070100Y0200700D01*
X0074656Y0200700D01*
X0075158Y0200800D01*
X0075632Y0200996D01*
X0077000Y0204106D02*
X0081103Y0204106D01*
X0083841Y0207305D02*
X0077000Y0207305D01*
X0077000Y0210503D02*
X0091324Y0210503D01*
X0092856Y0213702D02*
X0076275Y0213702D01*
X0070100Y0213702D02*
X0070100Y0213702D01*
X0070100Y0214500D02*
X0065544Y0214500D01*
X0065042Y0214400D01*
X0064568Y0214204D01*
X0064143Y0213920D01*
X0063780Y0213557D01*
X0063496Y0213132D01*
X0063300Y0212658D01*
X0063200Y0212156D01*
X0063200Y0207600D01*
X0070100Y0207600D01*
X0070100Y0207600D01*
X0070100Y0207600D01*
X0070100Y0214500D01*
X0070100Y0210503D02*
X0070100Y0210503D01*
X0070100Y0207600D02*
X0063200Y0207600D01*
X0063200Y0203044D01*
X0063300Y0202542D01*
X0063496Y0202068D01*
X0063780Y0201643D01*
X0064143Y0201280D01*
X0064568Y0200996D01*
X0065042Y0200800D01*
X0065544Y0200700D01*
X0070100Y0200700D01*
X0070100Y0207600D01*
X0070100Y0207305D02*
X0070100Y0207305D01*
X0070100Y0204106D02*
X0070100Y0204106D01*
X0070100Y0200908D02*
X0070100Y0200908D01*
X0064781Y0200908D02*
X0056813Y0200908D01*
X0056513Y0200609D02*
X0057406Y0201502D01*
X0057890Y0202668D01*
X0057890Y0212532D01*
X0057406Y0213698D01*
X0056513Y0214591D01*
X0055346Y0215075D01*
X0045483Y0215075D01*
X0044317Y0214591D01*
X0043423Y0213698D01*
X0042940Y0212532D01*
X0042940Y0202668D01*
X0043423Y0201502D01*
X0044317Y0200609D01*
X0045483Y0200125D01*
X0055346Y0200125D01*
X0056513Y0200609D01*
X0057890Y0204106D02*
X0063200Y0204106D01*
X0063200Y0207305D02*
X0057890Y0207305D01*
X0057890Y0210503D02*
X0063200Y0210503D01*
X0063925Y0213702D02*
X0057403Y0213702D01*
X0043427Y0213702D02*
X0028963Y0213702D01*
X0029779Y0210503D02*
X0042940Y0210503D01*
X0042940Y0207305D02*
X0029780Y0207305D01*
X0028967Y0204106D02*
X0042940Y0204106D01*
X0044017Y0200908D02*
X0027161Y0200908D01*
X0027154Y0216900D02*
X0159465Y0216900D01*
X0164632Y0216900D02*
X0233952Y0216900D01*
X0237514Y0220099D02*
X0023591Y0220099D01*
X0088649Y0207305D02*
X0089780Y0207305D01*
X0089780Y0204106D02*
X0088649Y0204106D01*
X0088649Y0200908D02*
X0089780Y0200908D01*
X0089780Y0197709D02*
X0088649Y0197709D01*
X0088649Y0194511D02*
X0089780Y0194511D01*
X0089780Y0191312D02*
X0088649Y0191312D01*
X0088649Y0188114D02*
X0089780Y0188114D01*
X0089780Y0184915D02*
X0088649Y0184915D01*
X0088649Y0181717D02*
X0089780Y0181717D01*
X0096648Y0181717D02*
X0163600Y0181717D01*
X0162275Y0184915D02*
X0098080Y0184915D01*
X0098310Y0188114D02*
X0162220Y0188114D01*
X0156881Y0191312D02*
X0103041Y0191312D01*
X0099057Y0191312D02*
X0099057Y0191312D01*
X0099057Y0194511D02*
X0099057Y0194511D01*
X0099057Y0197709D02*
X0099057Y0197709D01*
X0099057Y0200908D02*
X0099057Y0200908D01*
X0099057Y0204106D02*
X0099057Y0204106D01*
X0099057Y0207305D02*
X0099057Y0207305D01*
X0099057Y0210503D02*
X0099057Y0210503D01*
X0099057Y0213702D02*
X0099057Y0213702D01*
X0105258Y0213702D02*
X0154963Y0213702D01*
X0153573Y0210503D02*
X0106789Y0210503D01*
X0106972Y0207305D02*
X0153559Y0207305D01*
X0153559Y0204106D02*
X0106972Y0204106D01*
X0106972Y0200908D02*
X0153559Y0200908D01*
X0153559Y0197709D02*
X0106972Y0197709D01*
X0106094Y0194511D02*
X0154367Y0194511D01*
X0170525Y0210503D02*
X0231327Y0210503D01*
X0232142Y0213702D02*
X0169134Y0213702D01*
X0178225Y0207305D02*
X0231326Y0207305D01*
X0232138Y0204106D02*
X0180642Y0204106D01*
X0181562Y0200908D02*
X0233944Y0200908D01*
X0237500Y0197709D02*
X0229885Y0197709D01*
X0229885Y0197777D02*
X0229785Y0198280D01*
X0229589Y0198753D01*
X0229305Y0199179D01*
X0228942Y0199541D01*
X0228517Y0199825D01*
X0228043Y0200021D01*
X0227541Y0200121D01*
X0221256Y0200121D01*
X0221256Y0193461D01*
X0219535Y0193461D01*
X0219535Y0200121D01*
X0213249Y0200121D01*
X0212747Y0200021D01*
X0212274Y0199825D01*
X0211848Y0199541D01*
X0211486Y0199179D01*
X0211201Y0198753D01*
X0211005Y0198280D01*
X0210906Y0197777D01*
X0210906Y0193461D01*
X0219535Y0193461D01*
X0219535Y0191739D01*
X0221256Y0191739D01*
X0221256Y0185079D01*
X0227541Y0185079D01*
X0228043Y0185179D01*
X0228517Y0185375D01*
X0228942Y0185659D01*
X0229305Y0186021D01*
X0229589Y0186447D01*
X0229785Y0186920D01*
X0229885Y0187423D01*
X0229885Y0191739D01*
X0221256Y0191739D01*
X0221256Y0193461D01*
X0229885Y0193461D01*
X0229885Y0197777D01*
X0229885Y0194511D02*
X0255906Y0194511D01*
X0255906Y0197709D02*
X0251165Y0197709D01*
X0254721Y0200908D02*
X0255906Y0200908D01*
X0245488Y0200908D02*
X0243176Y0200908D01*
X0243176Y0204106D02*
X0245488Y0204106D01*
X0245488Y0207305D02*
X0243176Y0207305D01*
X0243176Y0197709D02*
X0245488Y0197709D01*
X0255906Y0191312D02*
X0229885Y0191312D01*
X0229885Y0188114D02*
X0255906Y0188114D01*
X0255906Y0184915D02*
X0203319Y0184915D01*
X0204869Y0188114D02*
X0210906Y0188114D01*
X0210906Y0187423D02*
X0211005Y0186920D01*
X0211201Y0186447D01*
X0211486Y0186021D01*
X0211848Y0185659D01*
X0212274Y0185375D01*
X0212747Y0185179D01*
X0213249Y0185079D01*
X0219535Y0185079D01*
X0219535Y0191739D01*
X0210906Y0191739D01*
X0210906Y0187423D01*
X0210906Y0191312D02*
X0204869Y0191312D01*
X0204869Y0194511D02*
X0210906Y0194511D01*
X0210906Y0197709D02*
X0204869Y0197709D01*
X0219535Y0197709D02*
X0221256Y0197709D01*
X0221256Y0194511D02*
X0219535Y0194511D01*
X0219535Y0191312D02*
X0221256Y0191312D01*
X0221256Y0188114D02*
X0219535Y0188114D01*
X0193223Y0171594D02*
X0193307Y0171246D01*
X0193432Y0170911D01*
X0193430Y0170864D01*
X0193453Y0170824D01*
X0193493Y0170468D01*
X0193577Y0170119D01*
X0193570Y0170075D01*
X0193587Y0170032D01*
X0193584Y0169674D01*
X0193624Y0169318D01*
X0193612Y0169275D01*
X0193623Y0169232D01*
X0193576Y0168876D01*
X0193573Y0168516D01*
X0193556Y0168476D01*
X0193562Y0168432D01*
X0193472Y0168085D01*
X0193426Y0167729D01*
X0193403Y0167689D01*
X0193404Y0167643D01*
X0193273Y0167310D01*
X0193183Y0166964D01*
X0193155Y0166927D01*
X0193150Y0166881D01*
X0192979Y0166566D01*
X0192848Y0166232D01*
X0192816Y0166200D01*
X0192806Y0166156D01*
X0192598Y0165864D01*
X0192427Y0165549D01*
X0192392Y0165521D01*
X0192377Y0165479D01*
X0192134Y0165215D01*
X0191926Y0164922D01*
X0191887Y0164898D01*
X0191866Y0164857D01*
X0191594Y0164625D01*
X0191353Y0164361D01*
X0191311Y0164342D01*
X0191286Y0164304D01*
X0190987Y0164106D01*
X0190714Y0163873D01*
X0190671Y0163859D01*
X0190642Y0163825D01*
X0190321Y0163665D01*
X0190022Y0163468D01*
X0189978Y0163459D01*
X0189944Y0163429D01*
X0189606Y0163309D01*
X0189285Y0163149D01*
X0189240Y0163146D01*
X0189202Y0163119D01*
X0188853Y0163042D01*
X0188515Y0162922D01*
X0188469Y0162925D01*
X0188429Y0162903D01*
X0188072Y0162869D01*
X0187722Y0162791D01*
X0187678Y0162799D01*
X0187635Y0162783D01*
X0187277Y0162792D01*
X0186920Y0162758D01*
X0186873Y0162773D01*
X0186604Y0162803D01*
X0186488Y0162781D01*
X0186305Y0162818D01*
X0186120Y0162823D01*
X0186014Y0162870D01*
X0185742Y0162901D01*
X0185696Y0162898D01*
X0185355Y0163012D01*
X0185003Y0163084D01*
X0184966Y0163108D01*
X0184920Y0163111D01*
X0184598Y0163265D01*
X0184258Y0163378D01*
X0184224Y0163408D01*
X0184179Y0163416D01*
X0183876Y0163609D01*
X0183552Y0163764D01*
X0183522Y0163797D01*
X0183480Y0163810D01*
X0183203Y0164038D01*
X0182900Y0164231D01*
X0182874Y0164268D01*
X0182832Y0164287D01*
X0182586Y0164546D01*
X0182310Y0164774D01*
X0182288Y0164814D01*
X0182250Y0164837D01*
X0182036Y0165126D01*
X0181789Y0165387D01*
X0181773Y0165428D01*
X0181737Y0165456D01*
X0181561Y0165768D01*
X0181348Y0166056D01*
X0181337Y0166100D01*
X0181304Y0166133D01*
X0181167Y0166464D01*
X0180991Y0166775D01*
X0180985Y0166820D01*
X0180958Y0166855D01*
X0180862Y0167201D01*
X0180724Y0167533D01*
X0180724Y0167578D01*
X0180700Y0167618D01*
X0180648Y0167972D01*
X0180552Y0168316D01*
X0180558Y0168362D01*
X0180539Y0168403D01*
X0180530Y0168762D01*
X0180477Y0169117D01*
X0180488Y0169161D01*
X0180475Y0169204D01*
X0180509Y0169561D01*
X0180500Y0169919D01*
X0180516Y0169961D01*
X0180508Y0170005D01*
X0180585Y0170356D01*
X0180620Y0170713D01*
X0180641Y0170753D01*
X0180639Y0170799D01*
X0180758Y0171136D01*
X0180836Y0171485D01*
X0180862Y0171523D01*
X0180865Y0171568D01*
X0181025Y0171889D01*
X0181145Y0172228D01*
X0181175Y0172261D01*
X0181184Y0172306D01*
X0181382Y0172604D01*
X0181542Y0172925D01*
X0181576Y0172955D01*
X0181590Y0172997D01*
X0181823Y0173270D01*
X0182021Y0173570D01*
X0182058Y0173595D01*
X0182078Y0173636D01*
X0182341Y0173878D01*
X0182573Y0174150D01*
X0182615Y0174171D01*
X0182639Y0174209D01*
X0182931Y0174418D01*
X0183196Y0174660D01*
X0183238Y0174675D01*
X0183266Y0174710D01*
X0183581Y0174881D01*
X0183873Y0175090D01*
X0183917Y0175100D01*
X0183949Y0175131D01*
X0184283Y0175263D01*
X0184598Y0175434D01*
X0184643Y0175439D01*
X0184681Y0175467D01*
X0185027Y0175556D01*
X0185359Y0175687D01*
X0185406Y0175686D01*
X0185445Y0175709D01*
X0185801Y0175756D01*
X0186149Y0175846D01*
X0186192Y0175839D01*
X0186233Y0175857D01*
X0186592Y0175860D01*
X0186948Y0175907D01*
X0186991Y0175895D01*
X0187035Y0175908D01*
X0187391Y0175867D01*
X0187749Y0175870D01*
X0187791Y0175853D01*
X0187836Y0175860D01*
X0188184Y0175777D01*
X0188541Y0175736D01*
X0188581Y0175714D01*
X0188628Y0175715D01*
X0188963Y0175590D01*
X0189310Y0175507D01*
X0189347Y0175480D01*
X0189391Y0175476D01*
X0189710Y0175310D01*
X0190047Y0175184D01*
X0190079Y0175154D01*
X0190123Y0175145D01*
X0190418Y0174942D01*
X0190736Y0174777D01*
X0190766Y0174741D01*
X0190810Y0174726D01*
X0191078Y0174489D01*
X0191373Y0174286D01*
X0191398Y0174248D01*
X0191438Y0174228D01*
X0191676Y0173959D01*
X0191945Y0173721D01*
X0191964Y0173681D01*
X0192002Y0173656D01*
X0192205Y0173361D01*
X0192443Y0173093D01*
X0192458Y0173049D01*
X0192494Y0173019D01*
X0192659Y0172702D01*
X0192861Y0172407D01*
X0192871Y0172363D01*
X0192901Y0172331D01*
X0193027Y0171994D01*
X0193193Y0171674D01*
X0193196Y0171631D01*
X0193223Y0171594D01*
X0192979Y0172121D02*
X0255906Y0172121D01*
X0255906Y0175320D02*
X0189692Y0175320D01*
X0184387Y0175320D02*
X0178763Y0175320D01*
X0178824Y0172121D02*
X0181108Y0172121D01*
X0180506Y0168923D02*
X0178824Y0168923D01*
X0178824Y0165724D02*
X0181586Y0165724D01*
X0178553Y0162526D02*
X0255906Y0162526D01*
X0255906Y0165724D02*
X0192522Y0165724D01*
X0193583Y0168923D02*
X0255906Y0168923D01*
X0255906Y0159327D02*
X0176419Y0159327D01*
X0181537Y0149732D02*
X0255906Y0149732D01*
X0255906Y0152930D02*
X0005200Y0152930D01*
X0005200Y0156129D02*
X0255906Y0156129D01*
X0255906Y0178518D02*
X0177264Y0178518D01*
X0180183Y0181717D02*
X0255906Y0181717D01*
X0255906Y0127342D02*
X0227390Y0127342D01*
X0227910Y0124143D02*
X0255906Y0124143D01*
X0200376Y0072967D02*
X0200376Y0072967D01*
X0193077Y0053776D02*
X0216063Y0053776D01*
X0216063Y0050578D02*
X0190196Y0050578D01*
X0243176Y0021791D02*
X0245488Y0021791D01*
X0245488Y0018593D02*
X0243176Y0018593D01*
X0158308Y0159327D02*
X0005200Y0159327D01*
X0181508Y0184915D02*
X0186291Y0184915D01*
D28*
X0212600Y0182600D03*
X0222600Y0162600D03*
X0214824Y0147088D03*
X0202600Y0142600D03*
X0180100Y0132600D03*
X0163584Y0138013D03*
X0162600Y0125100D03*
X0180100Y0105100D03*
X0162600Y0100100D03*
X0162600Y0087600D03*
X0150002Y0074962D03*
X0160100Y0062600D03*
X0177600Y0077600D03*
X0192600Y0090100D03*
X0210100Y0100100D03*
X0227600Y0085100D03*
X0250100Y0067600D03*
X0250100Y0035100D03*
X0230100Y0032600D03*
X0212600Y0030100D03*
X0210100Y0045100D03*
X0212600Y0057600D03*
X0195100Y0070100D03*
X0182600Y0050100D03*
X0187600Y0030100D03*
X0172600Y0010100D03*
X0205100Y0007600D03*
X0227600Y0007600D03*
X0155100Y0042600D03*
X0125435Y0035257D03*
X0120100Y0057600D03*
X0110100Y0077600D03*
X0131754Y0077738D03*
X0097600Y0100100D03*
X0080100Y0110100D03*
X0070100Y0122600D03*
X0082600Y0135100D03*
X0097600Y0135100D03*
X0097600Y0125100D03*
X0067600Y0140100D03*
X0025100Y0142600D03*
X0010100Y0155100D03*
X0025100Y0172600D03*
X0010100Y0185100D03*
X0025100Y0192600D03*
X0065100Y0180100D03*
X0080100Y0180100D03*
X0075100Y0197600D03*
X0085100Y0215100D03*
X0065100Y0217600D03*
X0107600Y0217600D03*
X0130100Y0215100D03*
X0145100Y0217600D03*
X0135100Y0195100D03*
X0145100Y0182600D03*
X0125100Y0180100D03*
X0112600Y0195100D03*
X0102600Y0180100D03*
X0025100Y0110100D03*
X0010100Y0125100D03*
X0010100Y0092600D03*
X0025100Y0075100D03*
X0010100Y0057600D03*
X0032600Y0050100D03*
X0012600Y0035100D03*
X0035100Y0010100D03*
X0093328Y0059962D03*
X0083250Y0070277D03*
X0067600Y0082600D03*
X0080100Y0087600D03*
X0130100Y0010100D03*
X0250100Y0112600D03*
X0227600Y0125100D03*
X0250100Y0147600D03*
X0247600Y0187600D03*
X0225100Y0215100D03*
X0195100Y0120100D03*
D29*
X0228584Y0115395D02*
X0228584Y0110277D01*
X0228584Y0091084D01*
X0219588Y0082088D01*
X0201025Y0082088D01*
X0200376Y0081439D01*
X0184824Y0081439D02*
X0184470Y0081439D01*
X0183309Y0082600D01*
X0184824Y0073761D02*
X0184824Y0070376D01*
X0190100Y0065100D01*
X0200041Y0065100D01*
X0205159Y0065100D02*
X0215769Y0065100D01*
X0224431Y0061360D02*
X0225159Y0060631D01*
X0225159Y0052600D01*
X0225159Y0042600D01*
X0220100Y0042541D02*
X0220041Y0042600D01*
X0220100Y0042541D02*
X0220100Y0017600D01*
D30*
X0099057Y0022206D02*
X0096261Y0022049D01*
X0089214Y0032206D01*
X0085868Y0032600D01*
X0065395Y0032600D01*
X0171891Y0193466D02*
X0163939Y0203151D01*
X0162049Y0203466D01*
X0171891Y0193466D02*
X0174332Y0192600D01*
X0194805Y0192600D01*
M02*
