G75*
%MOIN*%
%OFA0B0*%
%FSLAX25Y25*%
%IPPOS*%
%LPD*%
%AMOC8*
5,1,8,0,0,1.08239X$1,22.5*
%
%ADD10C,0.00000*%
%ADD11C,0.00800*%
%ADD12C,0.00500*%
%ADD13C,0.00400*%
%ADD14C,0.00300*%
%ADD15C,0.00200*%
%ADD16C,0.00600*%
%ADD17R,0.00039X0.01772*%
%ADD18R,0.00039X0.02480*%
%ADD19R,0.00039X0.03031*%
%ADD20R,0.00039X0.03504*%
%ADD21R,0.00039X0.03976*%
%ADD22R,0.00039X0.04291*%
%ADD23R,0.00039X0.04685*%
%ADD24R,0.00039X0.05000*%
%ADD25R,0.00039X0.05315*%
%ADD26R,0.00039X0.05551*%
%ADD27R,0.00039X0.05866*%
%ADD28R,0.00039X0.06102*%
%ADD29R,0.00039X0.06339*%
%ADD30R,0.00039X0.06575*%
%ADD31R,0.00039X0.06811*%
%ADD32R,0.00039X0.06969*%
%ADD33R,0.00039X0.07205*%
%ADD34R,0.00039X0.07441*%
%ADD35R,0.00039X0.07598*%
%ADD36R,0.00039X0.07756*%
%ADD37R,0.00039X0.07992*%
%ADD38R,0.00039X0.08150*%
%ADD39R,0.00039X0.08307*%
%ADD40R,0.00039X0.08465*%
%ADD41R,0.00039X0.08701*%
%ADD42R,0.00039X0.08858*%
%ADD43R,0.00039X0.09016*%
%ADD44R,0.00039X0.09173*%
%ADD45R,0.00039X0.04134*%
%ADD46R,0.00039X0.03937*%
%ADD47R,0.00039X0.04094*%
%ADD48R,0.00039X0.03898*%
%ADD49R,0.00039X0.04055*%
%ADD50R,0.00039X0.03858*%
%ADD51R,0.00039X0.04016*%
%ADD52R,0.00039X0.03819*%
%ADD53R,0.00039X0.04173*%
%ADD54R,0.00039X0.04213*%
%ADD55R,0.00039X0.04252*%
%ADD56R,0.00039X0.04331*%
%ADD57R,0.00039X0.04409*%
%ADD58R,0.00039X0.04449*%
%ADD59R,0.00039X0.04488*%
%ADD60R,0.00039X0.04370*%
%ADD61R,0.00039X0.04528*%
%ADD62R,0.00039X0.04567*%
%ADD63R,0.00039X0.04606*%
%ADD64R,0.00039X0.04646*%
%ADD65R,0.00039X0.04724*%
%ADD66R,0.00039X0.04764*%
%ADD67R,0.00039X0.04803*%
%ADD68R,0.00039X0.04843*%
%ADD69R,0.00039X0.04882*%
%ADD70R,0.00039X0.04921*%
%ADD71R,0.00039X0.04961*%
%ADD72R,0.00039X0.05039*%
%ADD73R,0.00039X0.05079*%
%ADD74R,0.00039X0.05118*%
%ADD75R,0.00039X0.05157*%
%ADD76R,0.00039X0.05197*%
%ADD77R,0.00039X0.05236*%
%ADD78R,0.00039X0.05276*%
%ADD79R,0.00039X0.05354*%
%ADD80R,0.00039X0.05394*%
%ADD81R,0.00039X0.05433*%
%ADD82R,0.00039X0.05472*%
%ADD83R,0.00039X0.05512*%
%ADD84R,0.00039X0.05591*%
%ADD85R,0.00039X0.05630*%
%ADD86R,0.00039X0.05669*%
%ADD87R,0.00039X0.05709*%
%ADD88R,0.00039X0.05748*%
%ADD89R,0.00039X0.05787*%
%ADD90R,0.00039X0.05827*%
%ADD91R,0.00039X0.05906*%
%ADD92R,0.00039X0.05945*%
%ADD93R,0.00039X0.05984*%
%ADD94R,0.00039X0.06024*%
%ADD95R,0.00039X0.06063*%
%ADD96R,0.00039X0.06142*%
%ADD97R,0.00039X0.06181*%
%ADD98R,0.00039X0.06220*%
%ADD99R,0.00039X0.06260*%
%ADD100R,0.00039X0.06299*%
%ADD101R,0.00039X0.06378*%
%ADD102R,0.00039X0.06457*%
%ADD103R,0.00039X0.06496*%
%ADD104R,0.00039X0.06535*%
%ADD105R,0.00039X0.06614*%
%ADD106R,0.00039X0.06693*%
%ADD107R,0.00039X0.06732*%
%ADD108R,0.00039X0.06654*%
%ADD109R,0.00039X0.02638*%
%ADD110R,0.00039X0.00551*%
%ADD111R,0.00039X0.06850*%
%ADD112R,0.00039X0.02402*%
%ADD113R,0.00039X0.02795*%
%ADD114R,0.00039X0.06890*%
%ADD115R,0.00039X0.02244*%
%ADD116R,0.00039X0.02677*%
%ADD117R,0.00039X0.02087*%
%ADD118R,0.00039X0.02559*%
%ADD119R,0.00039X0.07008*%
%ADD120R,0.00039X0.02008*%
%ADD121R,0.00039X0.02441*%
%ADD122R,0.00039X0.07087*%
%ADD123R,0.00039X0.01850*%
%ADD124R,0.00039X0.02362*%
%ADD125R,0.00039X0.07126*%
%ADD126R,0.00039X0.01811*%
%ADD127R,0.00039X0.02323*%
%ADD128R,0.00039X0.00197*%
%ADD129R,0.00039X0.00591*%
%ADD130R,0.00039X0.02283*%
%ADD131R,0.00039X0.01693*%
%ADD132R,0.00039X0.00118*%
%ADD133R,0.00039X0.02047*%
%ADD134R,0.00039X0.01654*%
%ADD135R,0.00039X0.02205*%
%ADD136R,0.00039X0.01929*%
%ADD137R,0.00039X0.01614*%
%ADD138R,0.00039X0.02165*%
%ADD139R,0.00039X0.01535*%
%ADD140R,0.00039X0.01732*%
%ADD141R,0.00039X0.01496*%
%ADD142R,0.00039X0.00157*%
%ADD143R,0.00039X0.01417*%
%ADD144R,0.00039X0.00236*%
%ADD145R,0.00039X0.01378*%
%ADD146R,0.00039X0.00276*%
%ADD147R,0.00039X0.01575*%
%ADD148R,0.00039X0.01339*%
%ADD149R,0.00039X0.00315*%
%ADD150R,0.00039X0.01299*%
%ADD151R,0.00039X0.00394*%
%ADD152R,0.00039X0.01457*%
%ADD153R,0.00039X0.01220*%
%ADD154R,0.00039X0.00472*%
%ADD155R,0.00039X0.00512*%
%ADD156R,0.00039X0.01181*%
%ADD157R,0.00039X0.01102*%
%ADD158R,0.00039X0.00669*%
%ADD159R,0.00039X0.01260*%
%ADD160R,0.00039X0.00709*%
%ADD161R,0.00039X0.00827*%
%ADD162R,0.00039X0.01063*%
%ADD163R,0.00039X0.00945*%
%ADD164R,0.00039X0.01024*%
%ADD165R,0.00039X0.01142*%
%ADD166R,0.00039X0.00984*%
%ADD167R,0.00039X0.00906*%
%ADD168R,0.00039X0.00866*%
%ADD169R,0.00039X0.00787*%
%ADD170R,0.00039X0.00748*%
%ADD171R,0.00039X0.00630*%
%ADD172R,0.00039X0.00433*%
%ADD173R,0.00039X0.00354*%
%ADD174R,0.00039X0.00079*%
%ADD175R,0.00039X0.01890*%
%ADD176R,0.00039X0.01969*%
%ADD177R,0.00039X0.02126*%
%ADD178R,0.00039X0.02598*%
%ADD179R,0.00039X0.02520*%
%ADD180R,0.00039X0.06417*%
%ADD181R,0.00039X0.09409*%
%ADD182R,0.00039X0.09331*%
D10*
X0016773Y0002600D02*
X0244332Y0002600D01*
X0244674Y0002604D01*
X0245017Y0002617D01*
X0245359Y0002637D01*
X0245700Y0002666D01*
X0246040Y0002703D01*
X0246380Y0002749D01*
X0246718Y0002802D01*
X0247055Y0002864D01*
X0247390Y0002934D01*
X0247724Y0003012D01*
X0248055Y0003098D01*
X0248385Y0003192D01*
X0248712Y0003294D01*
X0249036Y0003403D01*
X0249358Y0003521D01*
X0249677Y0003646D01*
X0249992Y0003779D01*
X0250305Y0003920D01*
X0250613Y0004068D01*
X0250919Y0004223D01*
X0251220Y0004386D01*
X0251517Y0004556D01*
X0251810Y0004733D01*
X0252099Y0004918D01*
X0252383Y0005109D01*
X0252663Y0005307D01*
X0252937Y0005511D01*
X0253207Y0005723D01*
X0253471Y0005940D01*
X0253730Y0006164D01*
X0253984Y0006395D01*
X0254232Y0006631D01*
X0254474Y0006873D01*
X0254710Y0007121D01*
X0254941Y0007375D01*
X0255165Y0007634D01*
X0255382Y0007898D01*
X0255594Y0008168D01*
X0255798Y0008442D01*
X0255996Y0008722D01*
X0256187Y0009006D01*
X0256372Y0009295D01*
X0256549Y0009588D01*
X0256719Y0009885D01*
X0256882Y0010186D01*
X0257037Y0010492D01*
X0257185Y0010800D01*
X0257326Y0011113D01*
X0257459Y0011428D01*
X0257584Y0011747D01*
X0257702Y0012069D01*
X0257811Y0012393D01*
X0257913Y0012720D01*
X0258007Y0013050D01*
X0258093Y0013381D01*
X0258171Y0013715D01*
X0258241Y0014050D01*
X0258303Y0014387D01*
X0258356Y0014725D01*
X0258402Y0015065D01*
X0258439Y0015405D01*
X0258468Y0015746D01*
X0258488Y0016088D01*
X0258501Y0016431D01*
X0258505Y0016773D01*
X0258506Y0016773D02*
X0258506Y0208899D01*
X0258505Y0208899D02*
X0258501Y0209241D01*
X0258488Y0209584D01*
X0258468Y0209926D01*
X0258439Y0210267D01*
X0258402Y0210607D01*
X0258356Y0210947D01*
X0258303Y0211285D01*
X0258241Y0211622D01*
X0258171Y0211957D01*
X0258093Y0212291D01*
X0258007Y0212622D01*
X0257913Y0212952D01*
X0257811Y0213279D01*
X0257702Y0213603D01*
X0257584Y0213925D01*
X0257459Y0214244D01*
X0257326Y0214559D01*
X0257185Y0214872D01*
X0257037Y0215180D01*
X0256882Y0215486D01*
X0256719Y0215787D01*
X0256549Y0216084D01*
X0256372Y0216377D01*
X0256187Y0216666D01*
X0255996Y0216950D01*
X0255798Y0217230D01*
X0255594Y0217504D01*
X0255382Y0217774D01*
X0255165Y0218038D01*
X0254941Y0218297D01*
X0254710Y0218551D01*
X0254474Y0218799D01*
X0254232Y0219041D01*
X0253984Y0219277D01*
X0253730Y0219508D01*
X0253471Y0219732D01*
X0253207Y0219949D01*
X0252937Y0220161D01*
X0252663Y0220365D01*
X0252383Y0220563D01*
X0252099Y0220754D01*
X0251810Y0220939D01*
X0251517Y0221116D01*
X0251220Y0221286D01*
X0250919Y0221449D01*
X0250613Y0221604D01*
X0250305Y0221752D01*
X0249992Y0221893D01*
X0249677Y0222026D01*
X0249358Y0222151D01*
X0249036Y0222269D01*
X0248712Y0222378D01*
X0248385Y0222480D01*
X0248055Y0222574D01*
X0247724Y0222660D01*
X0247390Y0222738D01*
X0247055Y0222808D01*
X0246718Y0222870D01*
X0246380Y0222923D01*
X0246040Y0222969D01*
X0245700Y0223006D01*
X0245359Y0223035D01*
X0245017Y0223055D01*
X0244674Y0223068D01*
X0244332Y0223072D01*
X0016773Y0223072D01*
X0016431Y0223068D01*
X0016088Y0223055D01*
X0015746Y0223035D01*
X0015405Y0223006D01*
X0015065Y0222969D01*
X0014725Y0222923D01*
X0014387Y0222870D01*
X0014050Y0222808D01*
X0013715Y0222738D01*
X0013381Y0222660D01*
X0013050Y0222574D01*
X0012720Y0222480D01*
X0012393Y0222378D01*
X0012069Y0222269D01*
X0011747Y0222151D01*
X0011428Y0222026D01*
X0011113Y0221893D01*
X0010800Y0221752D01*
X0010492Y0221604D01*
X0010186Y0221449D01*
X0009885Y0221286D01*
X0009588Y0221116D01*
X0009295Y0220939D01*
X0009006Y0220754D01*
X0008722Y0220563D01*
X0008442Y0220365D01*
X0008168Y0220161D01*
X0007898Y0219949D01*
X0007634Y0219732D01*
X0007375Y0219508D01*
X0007121Y0219277D01*
X0006873Y0219041D01*
X0006631Y0218799D01*
X0006395Y0218551D01*
X0006164Y0218297D01*
X0005940Y0218038D01*
X0005723Y0217774D01*
X0005511Y0217504D01*
X0005307Y0217230D01*
X0005109Y0216950D01*
X0004918Y0216666D01*
X0004733Y0216377D01*
X0004556Y0216084D01*
X0004386Y0215787D01*
X0004223Y0215486D01*
X0004068Y0215180D01*
X0003920Y0214872D01*
X0003779Y0214559D01*
X0003646Y0214244D01*
X0003521Y0213925D01*
X0003403Y0213603D01*
X0003294Y0213279D01*
X0003192Y0212952D01*
X0003098Y0212622D01*
X0003012Y0212291D01*
X0002934Y0211957D01*
X0002864Y0211622D01*
X0002802Y0211285D01*
X0002749Y0210947D01*
X0002703Y0210607D01*
X0002666Y0210267D01*
X0002637Y0209926D01*
X0002617Y0209584D01*
X0002604Y0209241D01*
X0002600Y0208899D01*
X0002600Y0016773D01*
X0002604Y0016431D01*
X0002617Y0016088D01*
X0002637Y0015746D01*
X0002666Y0015405D01*
X0002703Y0015065D01*
X0002749Y0014725D01*
X0002802Y0014387D01*
X0002864Y0014050D01*
X0002934Y0013715D01*
X0003012Y0013381D01*
X0003098Y0013050D01*
X0003192Y0012720D01*
X0003294Y0012393D01*
X0003403Y0012069D01*
X0003521Y0011747D01*
X0003646Y0011428D01*
X0003779Y0011113D01*
X0003920Y0010800D01*
X0004068Y0010492D01*
X0004223Y0010186D01*
X0004386Y0009885D01*
X0004556Y0009588D01*
X0004733Y0009295D01*
X0004918Y0009006D01*
X0005109Y0008722D01*
X0005307Y0008442D01*
X0005511Y0008168D01*
X0005723Y0007898D01*
X0005940Y0007634D01*
X0006164Y0007375D01*
X0006395Y0007121D01*
X0006631Y0006873D01*
X0006873Y0006631D01*
X0007121Y0006395D01*
X0007375Y0006164D01*
X0007634Y0005940D01*
X0007898Y0005723D01*
X0008168Y0005511D01*
X0008442Y0005307D01*
X0008722Y0005109D01*
X0009006Y0004918D01*
X0009295Y0004733D01*
X0009588Y0004556D01*
X0009885Y0004386D01*
X0010186Y0004223D01*
X0010492Y0004068D01*
X0010800Y0003920D01*
X0011113Y0003779D01*
X0011428Y0003646D01*
X0011747Y0003521D01*
X0012069Y0003403D01*
X0012393Y0003294D01*
X0012720Y0003192D01*
X0013050Y0003098D01*
X0013381Y0003012D01*
X0013715Y0002934D01*
X0014050Y0002864D01*
X0014387Y0002802D01*
X0014725Y0002749D01*
X0015065Y0002703D01*
X0015405Y0002666D01*
X0015746Y0002637D01*
X0016088Y0002617D01*
X0016431Y0002604D01*
X0016773Y0002600D01*
X0088033Y0065631D02*
X0088033Y0088033D01*
X0088035Y0088099D01*
X0088040Y0088165D01*
X0088050Y0088231D01*
X0088063Y0088296D01*
X0088079Y0088360D01*
X0088099Y0088423D01*
X0088123Y0088485D01*
X0088150Y0088545D01*
X0088180Y0088604D01*
X0088214Y0088661D01*
X0088251Y0088716D01*
X0088291Y0088769D01*
X0088333Y0088820D01*
X0088379Y0088868D01*
X0088427Y0088914D01*
X0088478Y0088956D01*
X0088531Y0088996D01*
X0088586Y0089033D01*
X0088643Y0089067D01*
X0088702Y0089097D01*
X0088762Y0089124D01*
X0088824Y0089148D01*
X0088887Y0089168D01*
X0088951Y0089184D01*
X0089016Y0089197D01*
X0089082Y0089207D01*
X0089148Y0089212D01*
X0089214Y0089214D01*
X0145513Y0089214D01*
X0145579Y0089212D01*
X0145645Y0089207D01*
X0145711Y0089197D01*
X0145776Y0089184D01*
X0145840Y0089168D01*
X0145903Y0089148D01*
X0145965Y0089124D01*
X0146025Y0089097D01*
X0146084Y0089067D01*
X0146141Y0089033D01*
X0146196Y0088996D01*
X0146249Y0088956D01*
X0146300Y0088914D01*
X0146348Y0088868D01*
X0146394Y0088820D01*
X0146436Y0088769D01*
X0146476Y0088716D01*
X0146513Y0088661D01*
X0146547Y0088604D01*
X0146577Y0088545D01*
X0146604Y0088485D01*
X0146628Y0088423D01*
X0146648Y0088360D01*
X0146664Y0088296D01*
X0146677Y0088231D01*
X0146687Y0088165D01*
X0146692Y0088099D01*
X0146694Y0088033D01*
X0146694Y0065592D01*
X0146692Y0065526D01*
X0146687Y0065460D01*
X0146677Y0065394D01*
X0146664Y0065329D01*
X0146648Y0065265D01*
X0146628Y0065202D01*
X0146604Y0065140D01*
X0146577Y0065080D01*
X0146547Y0065021D01*
X0146513Y0064964D01*
X0146476Y0064909D01*
X0146436Y0064856D01*
X0146394Y0064805D01*
X0146348Y0064757D01*
X0146300Y0064711D01*
X0146249Y0064669D01*
X0146196Y0064629D01*
X0146141Y0064592D01*
X0146084Y0064558D01*
X0146025Y0064528D01*
X0145965Y0064501D01*
X0145903Y0064477D01*
X0145840Y0064457D01*
X0145776Y0064441D01*
X0145711Y0064428D01*
X0145645Y0064418D01*
X0145579Y0064413D01*
X0145513Y0064411D01*
X0089214Y0064411D01*
X0089148Y0064413D01*
X0089082Y0064418D01*
X0089016Y0064428D01*
X0088951Y0064441D01*
X0088887Y0064457D01*
X0088824Y0064477D01*
X0088762Y0064501D01*
X0088702Y0064528D01*
X0088643Y0064558D01*
X0088586Y0064592D01*
X0088531Y0064629D01*
X0088478Y0064669D01*
X0088427Y0064711D01*
X0088379Y0064757D01*
X0088333Y0064805D01*
X0088291Y0064856D01*
X0088251Y0064909D01*
X0088214Y0064964D01*
X0088180Y0065021D01*
X0088150Y0065080D01*
X0088123Y0065140D01*
X0088099Y0065202D01*
X0088079Y0065265D01*
X0088063Y0065329D01*
X0088050Y0065394D01*
X0088040Y0065460D01*
X0088035Y0065526D01*
X0088033Y0065592D01*
X0114411Y0096694D02*
X0146694Y0096694D01*
X0146694Y0128978D01*
X0114411Y0128978D01*
X0114411Y0096694D01*
X0086064Y0114805D02*
X0086066Y0114917D01*
X0086072Y0115028D01*
X0086082Y0115140D01*
X0086096Y0115251D01*
X0086113Y0115361D01*
X0086135Y0115471D01*
X0086161Y0115580D01*
X0086190Y0115688D01*
X0086223Y0115794D01*
X0086260Y0115900D01*
X0086301Y0116004D01*
X0086346Y0116107D01*
X0086394Y0116208D01*
X0086445Y0116307D01*
X0086500Y0116404D01*
X0086559Y0116499D01*
X0086620Y0116593D01*
X0086685Y0116684D01*
X0086754Y0116772D01*
X0086825Y0116858D01*
X0086899Y0116942D01*
X0086977Y0117022D01*
X0087057Y0117100D01*
X0087140Y0117176D01*
X0087225Y0117248D01*
X0087313Y0117317D01*
X0087403Y0117383D01*
X0087496Y0117445D01*
X0087591Y0117505D01*
X0087688Y0117561D01*
X0087786Y0117613D01*
X0087887Y0117662D01*
X0087989Y0117707D01*
X0088093Y0117749D01*
X0088198Y0117787D01*
X0088305Y0117821D01*
X0088412Y0117851D01*
X0088521Y0117878D01*
X0088630Y0117900D01*
X0088741Y0117919D01*
X0088851Y0117934D01*
X0088963Y0117945D01*
X0089074Y0117952D01*
X0089186Y0117955D01*
X0089298Y0117954D01*
X0089410Y0117949D01*
X0089521Y0117940D01*
X0089632Y0117927D01*
X0089743Y0117910D01*
X0089853Y0117890D01*
X0089962Y0117865D01*
X0090070Y0117837D01*
X0090177Y0117804D01*
X0090283Y0117768D01*
X0090387Y0117728D01*
X0090490Y0117685D01*
X0090592Y0117638D01*
X0090691Y0117587D01*
X0090789Y0117533D01*
X0090885Y0117475D01*
X0090979Y0117414D01*
X0091070Y0117350D01*
X0091159Y0117283D01*
X0091246Y0117212D01*
X0091330Y0117138D01*
X0091412Y0117062D01*
X0091490Y0116982D01*
X0091566Y0116900D01*
X0091639Y0116815D01*
X0091709Y0116728D01*
X0091775Y0116638D01*
X0091839Y0116546D01*
X0091899Y0116452D01*
X0091956Y0116356D01*
X0092009Y0116257D01*
X0092059Y0116157D01*
X0092105Y0116056D01*
X0092148Y0115952D01*
X0092187Y0115847D01*
X0092222Y0115741D01*
X0092253Y0115634D01*
X0092281Y0115525D01*
X0092304Y0115416D01*
X0092324Y0115306D01*
X0092340Y0115195D01*
X0092352Y0115084D01*
X0092360Y0114973D01*
X0092364Y0114861D01*
X0092364Y0114749D01*
X0092360Y0114637D01*
X0092352Y0114526D01*
X0092340Y0114415D01*
X0092324Y0114304D01*
X0092304Y0114194D01*
X0092281Y0114085D01*
X0092253Y0113976D01*
X0092222Y0113869D01*
X0092187Y0113763D01*
X0092148Y0113658D01*
X0092105Y0113554D01*
X0092059Y0113453D01*
X0092009Y0113353D01*
X0091956Y0113254D01*
X0091899Y0113158D01*
X0091839Y0113064D01*
X0091775Y0112972D01*
X0091709Y0112882D01*
X0091639Y0112795D01*
X0091566Y0112710D01*
X0091490Y0112628D01*
X0091412Y0112548D01*
X0091330Y0112472D01*
X0091246Y0112398D01*
X0091159Y0112327D01*
X0091070Y0112260D01*
X0090979Y0112196D01*
X0090885Y0112135D01*
X0090789Y0112077D01*
X0090691Y0112023D01*
X0090592Y0111972D01*
X0090490Y0111925D01*
X0090387Y0111882D01*
X0090283Y0111842D01*
X0090177Y0111806D01*
X0090070Y0111773D01*
X0089962Y0111745D01*
X0089853Y0111720D01*
X0089743Y0111700D01*
X0089632Y0111683D01*
X0089521Y0111670D01*
X0089410Y0111661D01*
X0089298Y0111656D01*
X0089186Y0111655D01*
X0089074Y0111658D01*
X0088963Y0111665D01*
X0088851Y0111676D01*
X0088741Y0111691D01*
X0088630Y0111710D01*
X0088521Y0111732D01*
X0088412Y0111759D01*
X0088305Y0111789D01*
X0088198Y0111823D01*
X0088093Y0111861D01*
X0087989Y0111903D01*
X0087887Y0111948D01*
X0087786Y0111997D01*
X0087688Y0112049D01*
X0087591Y0112105D01*
X0087496Y0112165D01*
X0087403Y0112227D01*
X0087313Y0112293D01*
X0087225Y0112362D01*
X0087140Y0112434D01*
X0087057Y0112510D01*
X0086977Y0112588D01*
X0086899Y0112668D01*
X0086825Y0112752D01*
X0086754Y0112838D01*
X0086685Y0112926D01*
X0086620Y0113017D01*
X0086559Y0113111D01*
X0086500Y0113206D01*
X0086445Y0113303D01*
X0086394Y0113402D01*
X0086346Y0113503D01*
X0086301Y0113606D01*
X0086260Y0113710D01*
X0086223Y0113816D01*
X0086190Y0113922D01*
X0086161Y0114030D01*
X0086135Y0114139D01*
X0086113Y0114249D01*
X0086096Y0114359D01*
X0086082Y0114470D01*
X0086072Y0114582D01*
X0086066Y0114693D01*
X0086064Y0114805D01*
X0168741Y0114805D02*
X0168743Y0114917D01*
X0168749Y0115028D01*
X0168759Y0115140D01*
X0168773Y0115251D01*
X0168790Y0115361D01*
X0168812Y0115471D01*
X0168838Y0115580D01*
X0168867Y0115688D01*
X0168900Y0115794D01*
X0168937Y0115900D01*
X0168978Y0116004D01*
X0169023Y0116107D01*
X0169071Y0116208D01*
X0169122Y0116307D01*
X0169177Y0116404D01*
X0169236Y0116499D01*
X0169297Y0116593D01*
X0169362Y0116684D01*
X0169431Y0116772D01*
X0169502Y0116858D01*
X0169576Y0116942D01*
X0169654Y0117022D01*
X0169734Y0117100D01*
X0169817Y0117176D01*
X0169902Y0117248D01*
X0169990Y0117317D01*
X0170080Y0117383D01*
X0170173Y0117445D01*
X0170268Y0117505D01*
X0170365Y0117561D01*
X0170463Y0117613D01*
X0170564Y0117662D01*
X0170666Y0117707D01*
X0170770Y0117749D01*
X0170875Y0117787D01*
X0170982Y0117821D01*
X0171089Y0117851D01*
X0171198Y0117878D01*
X0171307Y0117900D01*
X0171418Y0117919D01*
X0171528Y0117934D01*
X0171640Y0117945D01*
X0171751Y0117952D01*
X0171863Y0117955D01*
X0171975Y0117954D01*
X0172087Y0117949D01*
X0172198Y0117940D01*
X0172309Y0117927D01*
X0172420Y0117910D01*
X0172530Y0117890D01*
X0172639Y0117865D01*
X0172747Y0117837D01*
X0172854Y0117804D01*
X0172960Y0117768D01*
X0173064Y0117728D01*
X0173167Y0117685D01*
X0173269Y0117638D01*
X0173368Y0117587D01*
X0173466Y0117533D01*
X0173562Y0117475D01*
X0173656Y0117414D01*
X0173747Y0117350D01*
X0173836Y0117283D01*
X0173923Y0117212D01*
X0174007Y0117138D01*
X0174089Y0117062D01*
X0174167Y0116982D01*
X0174243Y0116900D01*
X0174316Y0116815D01*
X0174386Y0116728D01*
X0174452Y0116638D01*
X0174516Y0116546D01*
X0174576Y0116452D01*
X0174633Y0116356D01*
X0174686Y0116257D01*
X0174736Y0116157D01*
X0174782Y0116056D01*
X0174825Y0115952D01*
X0174864Y0115847D01*
X0174899Y0115741D01*
X0174930Y0115634D01*
X0174958Y0115525D01*
X0174981Y0115416D01*
X0175001Y0115306D01*
X0175017Y0115195D01*
X0175029Y0115084D01*
X0175037Y0114973D01*
X0175041Y0114861D01*
X0175041Y0114749D01*
X0175037Y0114637D01*
X0175029Y0114526D01*
X0175017Y0114415D01*
X0175001Y0114304D01*
X0174981Y0114194D01*
X0174958Y0114085D01*
X0174930Y0113976D01*
X0174899Y0113869D01*
X0174864Y0113763D01*
X0174825Y0113658D01*
X0174782Y0113554D01*
X0174736Y0113453D01*
X0174686Y0113353D01*
X0174633Y0113254D01*
X0174576Y0113158D01*
X0174516Y0113064D01*
X0174452Y0112972D01*
X0174386Y0112882D01*
X0174316Y0112795D01*
X0174243Y0112710D01*
X0174167Y0112628D01*
X0174089Y0112548D01*
X0174007Y0112472D01*
X0173923Y0112398D01*
X0173836Y0112327D01*
X0173747Y0112260D01*
X0173656Y0112196D01*
X0173562Y0112135D01*
X0173466Y0112077D01*
X0173368Y0112023D01*
X0173269Y0111972D01*
X0173167Y0111925D01*
X0173064Y0111882D01*
X0172960Y0111842D01*
X0172854Y0111806D01*
X0172747Y0111773D01*
X0172639Y0111745D01*
X0172530Y0111720D01*
X0172420Y0111700D01*
X0172309Y0111683D01*
X0172198Y0111670D01*
X0172087Y0111661D01*
X0171975Y0111656D01*
X0171863Y0111655D01*
X0171751Y0111658D01*
X0171640Y0111665D01*
X0171528Y0111676D01*
X0171418Y0111691D01*
X0171307Y0111710D01*
X0171198Y0111732D01*
X0171089Y0111759D01*
X0170982Y0111789D01*
X0170875Y0111823D01*
X0170770Y0111861D01*
X0170666Y0111903D01*
X0170564Y0111948D01*
X0170463Y0111997D01*
X0170365Y0112049D01*
X0170268Y0112105D01*
X0170173Y0112165D01*
X0170080Y0112227D01*
X0169990Y0112293D01*
X0169902Y0112362D01*
X0169817Y0112434D01*
X0169734Y0112510D01*
X0169654Y0112588D01*
X0169576Y0112668D01*
X0169502Y0112752D01*
X0169431Y0112838D01*
X0169362Y0112926D01*
X0169297Y0113017D01*
X0169236Y0113111D01*
X0169177Y0113206D01*
X0169122Y0113303D01*
X0169071Y0113402D01*
X0169023Y0113503D01*
X0168978Y0113606D01*
X0168937Y0113710D01*
X0168900Y0113816D01*
X0168867Y0113922D01*
X0168838Y0114030D01*
X0168812Y0114139D01*
X0168790Y0114249D01*
X0168773Y0114359D01*
X0168759Y0114470D01*
X0168749Y0114582D01*
X0168743Y0114693D01*
X0168741Y0114805D01*
X0168741Y0065592D02*
X0168743Y0065704D01*
X0168749Y0065815D01*
X0168759Y0065927D01*
X0168773Y0066038D01*
X0168790Y0066148D01*
X0168812Y0066258D01*
X0168838Y0066367D01*
X0168867Y0066475D01*
X0168900Y0066581D01*
X0168937Y0066687D01*
X0168978Y0066791D01*
X0169023Y0066894D01*
X0169071Y0066995D01*
X0169122Y0067094D01*
X0169177Y0067191D01*
X0169236Y0067286D01*
X0169297Y0067380D01*
X0169362Y0067471D01*
X0169431Y0067559D01*
X0169502Y0067645D01*
X0169576Y0067729D01*
X0169654Y0067809D01*
X0169734Y0067887D01*
X0169817Y0067963D01*
X0169902Y0068035D01*
X0169990Y0068104D01*
X0170080Y0068170D01*
X0170173Y0068232D01*
X0170268Y0068292D01*
X0170365Y0068348D01*
X0170463Y0068400D01*
X0170564Y0068449D01*
X0170666Y0068494D01*
X0170770Y0068536D01*
X0170875Y0068574D01*
X0170982Y0068608D01*
X0171089Y0068638D01*
X0171198Y0068665D01*
X0171307Y0068687D01*
X0171418Y0068706D01*
X0171528Y0068721D01*
X0171640Y0068732D01*
X0171751Y0068739D01*
X0171863Y0068742D01*
X0171975Y0068741D01*
X0172087Y0068736D01*
X0172198Y0068727D01*
X0172309Y0068714D01*
X0172420Y0068697D01*
X0172530Y0068677D01*
X0172639Y0068652D01*
X0172747Y0068624D01*
X0172854Y0068591D01*
X0172960Y0068555D01*
X0173064Y0068515D01*
X0173167Y0068472D01*
X0173269Y0068425D01*
X0173368Y0068374D01*
X0173466Y0068320D01*
X0173562Y0068262D01*
X0173656Y0068201D01*
X0173747Y0068137D01*
X0173836Y0068070D01*
X0173923Y0067999D01*
X0174007Y0067925D01*
X0174089Y0067849D01*
X0174167Y0067769D01*
X0174243Y0067687D01*
X0174316Y0067602D01*
X0174386Y0067515D01*
X0174452Y0067425D01*
X0174516Y0067333D01*
X0174576Y0067239D01*
X0174633Y0067143D01*
X0174686Y0067044D01*
X0174736Y0066944D01*
X0174782Y0066843D01*
X0174825Y0066739D01*
X0174864Y0066634D01*
X0174899Y0066528D01*
X0174930Y0066421D01*
X0174958Y0066312D01*
X0174981Y0066203D01*
X0175001Y0066093D01*
X0175017Y0065982D01*
X0175029Y0065871D01*
X0175037Y0065760D01*
X0175041Y0065648D01*
X0175041Y0065536D01*
X0175037Y0065424D01*
X0175029Y0065313D01*
X0175017Y0065202D01*
X0175001Y0065091D01*
X0174981Y0064981D01*
X0174958Y0064872D01*
X0174930Y0064763D01*
X0174899Y0064656D01*
X0174864Y0064550D01*
X0174825Y0064445D01*
X0174782Y0064341D01*
X0174736Y0064240D01*
X0174686Y0064140D01*
X0174633Y0064041D01*
X0174576Y0063945D01*
X0174516Y0063851D01*
X0174452Y0063759D01*
X0174386Y0063669D01*
X0174316Y0063582D01*
X0174243Y0063497D01*
X0174167Y0063415D01*
X0174089Y0063335D01*
X0174007Y0063259D01*
X0173923Y0063185D01*
X0173836Y0063114D01*
X0173747Y0063047D01*
X0173656Y0062983D01*
X0173562Y0062922D01*
X0173466Y0062864D01*
X0173368Y0062810D01*
X0173269Y0062759D01*
X0173167Y0062712D01*
X0173064Y0062669D01*
X0172960Y0062629D01*
X0172854Y0062593D01*
X0172747Y0062560D01*
X0172639Y0062532D01*
X0172530Y0062507D01*
X0172420Y0062487D01*
X0172309Y0062470D01*
X0172198Y0062457D01*
X0172087Y0062448D01*
X0171975Y0062443D01*
X0171863Y0062442D01*
X0171751Y0062445D01*
X0171640Y0062452D01*
X0171528Y0062463D01*
X0171418Y0062478D01*
X0171307Y0062497D01*
X0171198Y0062519D01*
X0171089Y0062546D01*
X0170982Y0062576D01*
X0170875Y0062610D01*
X0170770Y0062648D01*
X0170666Y0062690D01*
X0170564Y0062735D01*
X0170463Y0062784D01*
X0170365Y0062836D01*
X0170268Y0062892D01*
X0170173Y0062952D01*
X0170080Y0063014D01*
X0169990Y0063080D01*
X0169902Y0063149D01*
X0169817Y0063221D01*
X0169734Y0063297D01*
X0169654Y0063375D01*
X0169576Y0063455D01*
X0169502Y0063539D01*
X0169431Y0063625D01*
X0169362Y0063713D01*
X0169297Y0063804D01*
X0169236Y0063898D01*
X0169177Y0063993D01*
X0169122Y0064090D01*
X0169071Y0064189D01*
X0169023Y0064290D01*
X0168978Y0064393D01*
X0168937Y0064497D01*
X0168900Y0064603D01*
X0168867Y0064709D01*
X0168838Y0064817D01*
X0168812Y0064926D01*
X0168790Y0065036D01*
X0168773Y0065146D01*
X0168759Y0065257D01*
X0168749Y0065369D01*
X0168743Y0065480D01*
X0168741Y0065592D01*
D11*
X0215492Y0078535D02*
X0217027Y0077000D01*
X0223165Y0077000D01*
X0224700Y0078535D01*
X0224700Y0081604D01*
X0223165Y0083139D01*
X0217027Y0083139D01*
X0215492Y0081604D01*
X0215492Y0078535D01*
X0218561Y0086208D02*
X0218561Y0090812D01*
X0220096Y0092346D01*
X0223165Y0092346D01*
X0224700Y0090812D01*
X0224700Y0086208D01*
X0227769Y0086208D02*
X0218561Y0086208D01*
X0220096Y0095416D02*
X0218561Y0096950D01*
X0218561Y0100020D01*
X0220096Y0101554D01*
X0221631Y0101554D01*
X0221631Y0095416D01*
X0223165Y0095416D02*
X0220096Y0095416D01*
X0223165Y0095416D02*
X0224700Y0096950D01*
X0224700Y0100020D01*
X0224700Y0104624D02*
X0218561Y0104624D01*
X0218561Y0109228D01*
X0220096Y0110762D01*
X0224700Y0110762D01*
X0224700Y0113831D02*
X0224700Y0118435D01*
X0223165Y0119970D01*
X0221631Y0119970D01*
X0220096Y0118435D01*
X0220096Y0113831D01*
X0215492Y0113831D02*
X0215492Y0118435D01*
X0217027Y0119970D01*
X0218561Y0119970D01*
X0220096Y0118435D01*
X0224700Y0113831D02*
X0215492Y0113831D01*
X0215492Y0123039D02*
X0224700Y0123039D01*
X0224700Y0129178D01*
X0224700Y0132247D02*
X0221631Y0135316D01*
X0224700Y0138386D01*
X0215492Y0138386D01*
X0215492Y0132247D02*
X0224700Y0132247D01*
X0224135Y0176065D02*
X0194608Y0176065D01*
X0191065Y0179608D01*
X0191065Y0186694D01*
X0191065Y0198506D02*
X0191065Y0205592D01*
X0194608Y0209135D01*
X0224135Y0209135D01*
X0224135Y0198506D01*
X0224135Y0186694D02*
X0224135Y0176065D01*
X0221970Y0198112D02*
X0221832Y0198460D01*
X0221685Y0198804D01*
X0221530Y0199145D01*
X0221367Y0199482D01*
X0221195Y0199815D01*
X0221015Y0200144D01*
X0220828Y0200468D01*
X0220633Y0200788D01*
X0220429Y0201102D01*
X0220219Y0201412D01*
X0220001Y0201716D01*
X0219775Y0202015D01*
X0219542Y0202309D01*
X0219303Y0202597D01*
X0219056Y0202878D01*
X0218802Y0203154D01*
X0218542Y0203423D01*
X0218276Y0203687D01*
X0218003Y0203943D01*
X0217724Y0204193D01*
X0217439Y0204436D01*
X0217148Y0204672D01*
X0216851Y0204900D01*
X0216549Y0205122D01*
X0216242Y0205336D01*
X0215929Y0205542D01*
X0215612Y0205741D01*
X0215290Y0205932D01*
X0214963Y0206115D01*
X0214632Y0206291D01*
X0214297Y0206458D01*
X0213958Y0206616D01*
X0213615Y0206767D01*
X0213268Y0206909D01*
X0212919Y0207043D01*
X0212566Y0207168D01*
X0212210Y0207284D01*
X0211851Y0207392D01*
X0211490Y0207491D01*
X0211126Y0207582D01*
X0210761Y0207663D01*
X0210393Y0207735D01*
X0210024Y0207799D01*
X0209654Y0207853D01*
X0209282Y0207899D01*
X0208909Y0207935D01*
X0208536Y0207963D01*
X0208162Y0207981D01*
X0207787Y0207990D01*
X0207413Y0207990D01*
X0207038Y0207981D01*
X0206664Y0207963D01*
X0206291Y0207935D01*
X0205918Y0207899D01*
X0205546Y0207853D01*
X0205176Y0207799D01*
X0204807Y0207735D01*
X0204439Y0207663D01*
X0204074Y0207582D01*
X0203710Y0207491D01*
X0203349Y0207392D01*
X0202990Y0207284D01*
X0202634Y0207168D01*
X0202281Y0207043D01*
X0201932Y0206909D01*
X0201585Y0206767D01*
X0201242Y0206616D01*
X0200903Y0206458D01*
X0200568Y0206291D01*
X0200237Y0206115D01*
X0199910Y0205932D01*
X0199588Y0205741D01*
X0199271Y0205542D01*
X0198958Y0205336D01*
X0198651Y0205122D01*
X0198349Y0204900D01*
X0198052Y0204672D01*
X0197761Y0204436D01*
X0197476Y0204193D01*
X0197197Y0203943D01*
X0196924Y0203687D01*
X0196658Y0203423D01*
X0196398Y0203154D01*
X0196144Y0202878D01*
X0195897Y0202597D01*
X0195658Y0202309D01*
X0195425Y0202015D01*
X0195199Y0201716D01*
X0194981Y0201412D01*
X0194771Y0201102D01*
X0194567Y0200788D01*
X0194372Y0200468D01*
X0194185Y0200144D01*
X0194005Y0199815D01*
X0193833Y0199482D01*
X0193670Y0199145D01*
X0193515Y0198804D01*
X0193368Y0198460D01*
X0193230Y0198112D01*
X0180553Y0203368D02*
X0180553Y0223072D01*
X0080553Y0223368D01*
X0080553Y0203072D01*
X0010867Y0208899D02*
X0010869Y0209052D01*
X0010875Y0209206D01*
X0010885Y0209359D01*
X0010899Y0209511D01*
X0010917Y0209664D01*
X0010939Y0209815D01*
X0010964Y0209966D01*
X0010994Y0210117D01*
X0011028Y0210267D01*
X0011065Y0210415D01*
X0011106Y0210563D01*
X0011151Y0210709D01*
X0011200Y0210855D01*
X0011253Y0210999D01*
X0011309Y0211141D01*
X0011369Y0211282D01*
X0011433Y0211422D01*
X0011500Y0211560D01*
X0011571Y0211696D01*
X0011646Y0211830D01*
X0011723Y0211962D01*
X0011805Y0212092D01*
X0011889Y0212220D01*
X0011977Y0212346D01*
X0012068Y0212469D01*
X0012162Y0212590D01*
X0012260Y0212708D01*
X0012360Y0212824D01*
X0012464Y0212937D01*
X0012570Y0213048D01*
X0012679Y0213156D01*
X0012791Y0213261D01*
X0012905Y0213362D01*
X0013023Y0213461D01*
X0013142Y0213557D01*
X0013264Y0213650D01*
X0013389Y0213739D01*
X0013516Y0213826D01*
X0013645Y0213908D01*
X0013776Y0213988D01*
X0013909Y0214064D01*
X0014044Y0214137D01*
X0014181Y0214206D01*
X0014320Y0214271D01*
X0014460Y0214333D01*
X0014602Y0214391D01*
X0014745Y0214446D01*
X0014890Y0214497D01*
X0015036Y0214544D01*
X0015183Y0214587D01*
X0015331Y0214626D01*
X0015480Y0214662D01*
X0015630Y0214693D01*
X0015781Y0214721D01*
X0015932Y0214745D01*
X0016085Y0214765D01*
X0016237Y0214781D01*
X0016390Y0214793D01*
X0016543Y0214801D01*
X0016696Y0214805D01*
X0016850Y0214805D01*
X0017003Y0214801D01*
X0017156Y0214793D01*
X0017309Y0214781D01*
X0017461Y0214765D01*
X0017614Y0214745D01*
X0017765Y0214721D01*
X0017916Y0214693D01*
X0018066Y0214662D01*
X0018215Y0214626D01*
X0018363Y0214587D01*
X0018510Y0214544D01*
X0018656Y0214497D01*
X0018801Y0214446D01*
X0018944Y0214391D01*
X0019086Y0214333D01*
X0019226Y0214271D01*
X0019365Y0214206D01*
X0019502Y0214137D01*
X0019637Y0214064D01*
X0019770Y0213988D01*
X0019901Y0213908D01*
X0020030Y0213826D01*
X0020157Y0213739D01*
X0020282Y0213650D01*
X0020404Y0213557D01*
X0020523Y0213461D01*
X0020641Y0213362D01*
X0020755Y0213261D01*
X0020867Y0213156D01*
X0020976Y0213048D01*
X0021082Y0212937D01*
X0021186Y0212824D01*
X0021286Y0212708D01*
X0021384Y0212590D01*
X0021478Y0212469D01*
X0021569Y0212346D01*
X0021657Y0212220D01*
X0021741Y0212092D01*
X0021823Y0211962D01*
X0021900Y0211830D01*
X0021975Y0211696D01*
X0022046Y0211560D01*
X0022113Y0211422D01*
X0022177Y0211282D01*
X0022237Y0211141D01*
X0022293Y0210999D01*
X0022346Y0210855D01*
X0022395Y0210709D01*
X0022440Y0210563D01*
X0022481Y0210415D01*
X0022518Y0210267D01*
X0022552Y0210117D01*
X0022582Y0209966D01*
X0022607Y0209815D01*
X0022629Y0209664D01*
X0022647Y0209511D01*
X0022661Y0209359D01*
X0022671Y0209206D01*
X0022677Y0209052D01*
X0022679Y0208899D01*
X0022677Y0208746D01*
X0022671Y0208592D01*
X0022661Y0208439D01*
X0022647Y0208287D01*
X0022629Y0208134D01*
X0022607Y0207983D01*
X0022582Y0207832D01*
X0022552Y0207681D01*
X0022518Y0207531D01*
X0022481Y0207383D01*
X0022440Y0207235D01*
X0022395Y0207089D01*
X0022346Y0206943D01*
X0022293Y0206799D01*
X0022237Y0206657D01*
X0022177Y0206516D01*
X0022113Y0206376D01*
X0022046Y0206238D01*
X0021975Y0206102D01*
X0021900Y0205968D01*
X0021823Y0205836D01*
X0021741Y0205706D01*
X0021657Y0205578D01*
X0021569Y0205452D01*
X0021478Y0205329D01*
X0021384Y0205208D01*
X0021286Y0205090D01*
X0021186Y0204974D01*
X0021082Y0204861D01*
X0020976Y0204750D01*
X0020867Y0204642D01*
X0020755Y0204537D01*
X0020641Y0204436D01*
X0020523Y0204337D01*
X0020404Y0204241D01*
X0020282Y0204148D01*
X0020157Y0204059D01*
X0020030Y0203972D01*
X0019901Y0203890D01*
X0019770Y0203810D01*
X0019637Y0203734D01*
X0019502Y0203661D01*
X0019365Y0203592D01*
X0019226Y0203527D01*
X0019086Y0203465D01*
X0018944Y0203407D01*
X0018801Y0203352D01*
X0018656Y0203301D01*
X0018510Y0203254D01*
X0018363Y0203211D01*
X0018215Y0203172D01*
X0018066Y0203136D01*
X0017916Y0203105D01*
X0017765Y0203077D01*
X0017614Y0203053D01*
X0017461Y0203033D01*
X0017309Y0203017D01*
X0017156Y0203005D01*
X0017003Y0202997D01*
X0016850Y0202993D01*
X0016696Y0202993D01*
X0016543Y0202997D01*
X0016390Y0203005D01*
X0016237Y0203017D01*
X0016085Y0203033D01*
X0015932Y0203053D01*
X0015781Y0203077D01*
X0015630Y0203105D01*
X0015480Y0203136D01*
X0015331Y0203172D01*
X0015183Y0203211D01*
X0015036Y0203254D01*
X0014890Y0203301D01*
X0014745Y0203352D01*
X0014602Y0203407D01*
X0014460Y0203465D01*
X0014320Y0203527D01*
X0014181Y0203592D01*
X0014044Y0203661D01*
X0013909Y0203734D01*
X0013776Y0203810D01*
X0013645Y0203890D01*
X0013516Y0203972D01*
X0013389Y0204059D01*
X0013264Y0204148D01*
X0013142Y0204241D01*
X0013023Y0204337D01*
X0012905Y0204436D01*
X0012791Y0204537D01*
X0012679Y0204642D01*
X0012570Y0204750D01*
X0012464Y0204861D01*
X0012360Y0204974D01*
X0012260Y0205090D01*
X0012162Y0205208D01*
X0012068Y0205329D01*
X0011977Y0205452D01*
X0011889Y0205578D01*
X0011805Y0205706D01*
X0011723Y0205836D01*
X0011646Y0205968D01*
X0011571Y0206102D01*
X0011500Y0206238D01*
X0011433Y0206376D01*
X0011369Y0206516D01*
X0011309Y0206657D01*
X0011253Y0206799D01*
X0011200Y0206943D01*
X0011151Y0207089D01*
X0011106Y0207235D01*
X0011065Y0207383D01*
X0011028Y0207531D01*
X0010994Y0207681D01*
X0010964Y0207832D01*
X0010939Y0207983D01*
X0010917Y0208134D01*
X0010899Y0208287D01*
X0010885Y0208439D01*
X0010875Y0208592D01*
X0010869Y0208746D01*
X0010867Y0208899D01*
X0036065Y0049135D02*
X0065592Y0049135D01*
X0069135Y0045592D01*
X0069135Y0038506D01*
X0069135Y0026694D02*
X0069135Y0019608D01*
X0065592Y0016065D01*
X0036065Y0016065D01*
X0036065Y0026694D01*
X0036065Y0038506D02*
X0036065Y0049135D01*
X0038230Y0027088D02*
X0038368Y0026740D01*
X0038515Y0026396D01*
X0038670Y0026055D01*
X0038833Y0025718D01*
X0039005Y0025385D01*
X0039185Y0025056D01*
X0039372Y0024732D01*
X0039567Y0024412D01*
X0039771Y0024098D01*
X0039981Y0023788D01*
X0040199Y0023484D01*
X0040425Y0023185D01*
X0040658Y0022891D01*
X0040897Y0022603D01*
X0041144Y0022322D01*
X0041398Y0022046D01*
X0041658Y0021777D01*
X0041924Y0021513D01*
X0042197Y0021257D01*
X0042476Y0021007D01*
X0042761Y0020764D01*
X0043052Y0020528D01*
X0043349Y0020300D01*
X0043651Y0020078D01*
X0043958Y0019864D01*
X0044271Y0019658D01*
X0044588Y0019459D01*
X0044910Y0019268D01*
X0045237Y0019085D01*
X0045568Y0018909D01*
X0045903Y0018742D01*
X0046242Y0018584D01*
X0046585Y0018433D01*
X0046932Y0018291D01*
X0047281Y0018157D01*
X0047634Y0018032D01*
X0047990Y0017916D01*
X0048349Y0017808D01*
X0048710Y0017709D01*
X0049074Y0017618D01*
X0049439Y0017537D01*
X0049807Y0017465D01*
X0050176Y0017401D01*
X0050546Y0017347D01*
X0050918Y0017301D01*
X0051291Y0017265D01*
X0051664Y0017237D01*
X0052038Y0017219D01*
X0052413Y0017210D01*
X0052787Y0017210D01*
X0053162Y0017219D01*
X0053536Y0017237D01*
X0053909Y0017265D01*
X0054282Y0017301D01*
X0054654Y0017347D01*
X0055024Y0017401D01*
X0055393Y0017465D01*
X0055761Y0017537D01*
X0056126Y0017618D01*
X0056490Y0017709D01*
X0056851Y0017808D01*
X0057210Y0017916D01*
X0057566Y0018032D01*
X0057919Y0018157D01*
X0058268Y0018291D01*
X0058615Y0018433D01*
X0058958Y0018584D01*
X0059297Y0018742D01*
X0059632Y0018909D01*
X0059963Y0019085D01*
X0060290Y0019268D01*
X0060612Y0019459D01*
X0060929Y0019658D01*
X0061242Y0019864D01*
X0061549Y0020078D01*
X0061851Y0020300D01*
X0062148Y0020528D01*
X0062439Y0020764D01*
X0062724Y0021007D01*
X0063003Y0021257D01*
X0063276Y0021513D01*
X0063542Y0021777D01*
X0063802Y0022046D01*
X0064056Y0022322D01*
X0064303Y0022603D01*
X0064542Y0022891D01*
X0064775Y0023185D01*
X0065001Y0023484D01*
X0065219Y0023788D01*
X0065429Y0024098D01*
X0065633Y0024412D01*
X0065828Y0024732D01*
X0066015Y0025056D01*
X0066195Y0025385D01*
X0066367Y0025718D01*
X0066530Y0026055D01*
X0066685Y0026396D01*
X0066832Y0026740D01*
X0066970Y0027088D01*
X0080553Y0022305D02*
X0080553Y0002600D01*
X0180553Y0002305D01*
X0180553Y0022600D01*
X0238426Y0016773D02*
X0238428Y0016926D01*
X0238434Y0017080D01*
X0238444Y0017233D01*
X0238458Y0017385D01*
X0238476Y0017538D01*
X0238498Y0017689D01*
X0238523Y0017840D01*
X0238553Y0017991D01*
X0238587Y0018141D01*
X0238624Y0018289D01*
X0238665Y0018437D01*
X0238710Y0018583D01*
X0238759Y0018729D01*
X0238812Y0018873D01*
X0238868Y0019015D01*
X0238928Y0019156D01*
X0238992Y0019296D01*
X0239059Y0019434D01*
X0239130Y0019570D01*
X0239205Y0019704D01*
X0239282Y0019836D01*
X0239364Y0019966D01*
X0239448Y0020094D01*
X0239536Y0020220D01*
X0239627Y0020343D01*
X0239721Y0020464D01*
X0239819Y0020582D01*
X0239919Y0020698D01*
X0240023Y0020811D01*
X0240129Y0020922D01*
X0240238Y0021030D01*
X0240350Y0021135D01*
X0240464Y0021236D01*
X0240582Y0021335D01*
X0240701Y0021431D01*
X0240823Y0021524D01*
X0240948Y0021613D01*
X0241075Y0021700D01*
X0241204Y0021782D01*
X0241335Y0021862D01*
X0241468Y0021938D01*
X0241603Y0022011D01*
X0241740Y0022080D01*
X0241879Y0022145D01*
X0242019Y0022207D01*
X0242161Y0022265D01*
X0242304Y0022320D01*
X0242449Y0022371D01*
X0242595Y0022418D01*
X0242742Y0022461D01*
X0242890Y0022500D01*
X0243039Y0022536D01*
X0243189Y0022567D01*
X0243340Y0022595D01*
X0243491Y0022619D01*
X0243644Y0022639D01*
X0243796Y0022655D01*
X0243949Y0022667D01*
X0244102Y0022675D01*
X0244255Y0022679D01*
X0244409Y0022679D01*
X0244562Y0022675D01*
X0244715Y0022667D01*
X0244868Y0022655D01*
X0245020Y0022639D01*
X0245173Y0022619D01*
X0245324Y0022595D01*
X0245475Y0022567D01*
X0245625Y0022536D01*
X0245774Y0022500D01*
X0245922Y0022461D01*
X0246069Y0022418D01*
X0246215Y0022371D01*
X0246360Y0022320D01*
X0246503Y0022265D01*
X0246645Y0022207D01*
X0246785Y0022145D01*
X0246924Y0022080D01*
X0247061Y0022011D01*
X0247196Y0021938D01*
X0247329Y0021862D01*
X0247460Y0021782D01*
X0247589Y0021700D01*
X0247716Y0021613D01*
X0247841Y0021524D01*
X0247963Y0021431D01*
X0248082Y0021335D01*
X0248200Y0021236D01*
X0248314Y0021135D01*
X0248426Y0021030D01*
X0248535Y0020922D01*
X0248641Y0020811D01*
X0248745Y0020698D01*
X0248845Y0020582D01*
X0248943Y0020464D01*
X0249037Y0020343D01*
X0249128Y0020220D01*
X0249216Y0020094D01*
X0249300Y0019966D01*
X0249382Y0019836D01*
X0249459Y0019704D01*
X0249534Y0019570D01*
X0249605Y0019434D01*
X0249672Y0019296D01*
X0249736Y0019156D01*
X0249796Y0019015D01*
X0249852Y0018873D01*
X0249905Y0018729D01*
X0249954Y0018583D01*
X0249999Y0018437D01*
X0250040Y0018289D01*
X0250077Y0018141D01*
X0250111Y0017991D01*
X0250141Y0017840D01*
X0250166Y0017689D01*
X0250188Y0017538D01*
X0250206Y0017385D01*
X0250220Y0017233D01*
X0250230Y0017080D01*
X0250236Y0016926D01*
X0250238Y0016773D01*
X0250236Y0016620D01*
X0250230Y0016466D01*
X0250220Y0016313D01*
X0250206Y0016161D01*
X0250188Y0016008D01*
X0250166Y0015857D01*
X0250141Y0015706D01*
X0250111Y0015555D01*
X0250077Y0015405D01*
X0250040Y0015257D01*
X0249999Y0015109D01*
X0249954Y0014963D01*
X0249905Y0014817D01*
X0249852Y0014673D01*
X0249796Y0014531D01*
X0249736Y0014390D01*
X0249672Y0014250D01*
X0249605Y0014112D01*
X0249534Y0013976D01*
X0249459Y0013842D01*
X0249382Y0013710D01*
X0249300Y0013580D01*
X0249216Y0013452D01*
X0249128Y0013326D01*
X0249037Y0013203D01*
X0248943Y0013082D01*
X0248845Y0012964D01*
X0248745Y0012848D01*
X0248641Y0012735D01*
X0248535Y0012624D01*
X0248426Y0012516D01*
X0248314Y0012411D01*
X0248200Y0012310D01*
X0248082Y0012211D01*
X0247963Y0012115D01*
X0247841Y0012022D01*
X0247716Y0011933D01*
X0247589Y0011846D01*
X0247460Y0011764D01*
X0247329Y0011684D01*
X0247196Y0011608D01*
X0247061Y0011535D01*
X0246924Y0011466D01*
X0246785Y0011401D01*
X0246645Y0011339D01*
X0246503Y0011281D01*
X0246360Y0011226D01*
X0246215Y0011175D01*
X0246069Y0011128D01*
X0245922Y0011085D01*
X0245774Y0011046D01*
X0245625Y0011010D01*
X0245475Y0010979D01*
X0245324Y0010951D01*
X0245173Y0010927D01*
X0245020Y0010907D01*
X0244868Y0010891D01*
X0244715Y0010879D01*
X0244562Y0010871D01*
X0244409Y0010867D01*
X0244255Y0010867D01*
X0244102Y0010871D01*
X0243949Y0010879D01*
X0243796Y0010891D01*
X0243644Y0010907D01*
X0243491Y0010927D01*
X0243340Y0010951D01*
X0243189Y0010979D01*
X0243039Y0011010D01*
X0242890Y0011046D01*
X0242742Y0011085D01*
X0242595Y0011128D01*
X0242449Y0011175D01*
X0242304Y0011226D01*
X0242161Y0011281D01*
X0242019Y0011339D01*
X0241879Y0011401D01*
X0241740Y0011466D01*
X0241603Y0011535D01*
X0241468Y0011608D01*
X0241335Y0011684D01*
X0241204Y0011764D01*
X0241075Y0011846D01*
X0240948Y0011933D01*
X0240823Y0012022D01*
X0240701Y0012115D01*
X0240582Y0012211D01*
X0240464Y0012310D01*
X0240350Y0012411D01*
X0240238Y0012516D01*
X0240129Y0012624D01*
X0240023Y0012735D01*
X0239919Y0012848D01*
X0239819Y0012964D01*
X0239721Y0013082D01*
X0239627Y0013203D01*
X0239536Y0013326D01*
X0239448Y0013452D01*
X0239364Y0013580D01*
X0239282Y0013710D01*
X0239205Y0013842D01*
X0239130Y0013976D01*
X0239059Y0014112D01*
X0238992Y0014250D01*
X0238928Y0014390D01*
X0238868Y0014531D01*
X0238812Y0014673D01*
X0238759Y0014817D01*
X0238710Y0014963D01*
X0238665Y0015109D01*
X0238624Y0015257D01*
X0238587Y0015405D01*
X0238553Y0015555D01*
X0238523Y0015706D01*
X0238498Y0015857D01*
X0238476Y0016008D01*
X0238458Y0016161D01*
X0238444Y0016313D01*
X0238434Y0016466D01*
X0238428Y0016620D01*
X0238426Y0016773D01*
X0066970Y0038112D02*
X0066832Y0038460D01*
X0066685Y0038804D01*
X0066530Y0039145D01*
X0066367Y0039482D01*
X0066195Y0039815D01*
X0066015Y0040144D01*
X0065828Y0040468D01*
X0065633Y0040788D01*
X0065429Y0041102D01*
X0065219Y0041412D01*
X0065001Y0041716D01*
X0064775Y0042015D01*
X0064542Y0042309D01*
X0064303Y0042597D01*
X0064056Y0042878D01*
X0063802Y0043154D01*
X0063542Y0043423D01*
X0063276Y0043687D01*
X0063003Y0043943D01*
X0062724Y0044193D01*
X0062439Y0044436D01*
X0062148Y0044672D01*
X0061851Y0044900D01*
X0061549Y0045122D01*
X0061242Y0045336D01*
X0060929Y0045542D01*
X0060612Y0045741D01*
X0060290Y0045932D01*
X0059963Y0046115D01*
X0059632Y0046291D01*
X0059297Y0046458D01*
X0058958Y0046616D01*
X0058615Y0046767D01*
X0058268Y0046909D01*
X0057919Y0047043D01*
X0057566Y0047168D01*
X0057210Y0047284D01*
X0056851Y0047392D01*
X0056490Y0047491D01*
X0056126Y0047582D01*
X0055761Y0047663D01*
X0055393Y0047735D01*
X0055024Y0047799D01*
X0054654Y0047853D01*
X0054282Y0047899D01*
X0053909Y0047935D01*
X0053536Y0047963D01*
X0053162Y0047981D01*
X0052787Y0047990D01*
X0052413Y0047990D01*
X0052038Y0047981D01*
X0051664Y0047963D01*
X0051291Y0047935D01*
X0050918Y0047899D01*
X0050546Y0047853D01*
X0050176Y0047799D01*
X0049807Y0047735D01*
X0049439Y0047663D01*
X0049074Y0047582D01*
X0048710Y0047491D01*
X0048349Y0047392D01*
X0047990Y0047284D01*
X0047634Y0047168D01*
X0047281Y0047043D01*
X0046932Y0046909D01*
X0046585Y0046767D01*
X0046242Y0046616D01*
X0045903Y0046458D01*
X0045568Y0046291D01*
X0045237Y0046115D01*
X0044910Y0045932D01*
X0044588Y0045741D01*
X0044271Y0045542D01*
X0043958Y0045336D01*
X0043651Y0045122D01*
X0043349Y0044900D01*
X0043052Y0044672D01*
X0042761Y0044436D01*
X0042476Y0044193D01*
X0042197Y0043943D01*
X0041924Y0043687D01*
X0041658Y0043423D01*
X0041398Y0043154D01*
X0041144Y0042878D01*
X0040897Y0042597D01*
X0040658Y0042309D01*
X0040425Y0042015D01*
X0040199Y0041716D01*
X0039981Y0041412D01*
X0039771Y0041102D01*
X0039567Y0040788D01*
X0039372Y0040468D01*
X0039185Y0040144D01*
X0039005Y0039815D01*
X0038833Y0039482D01*
X0038670Y0039145D01*
X0038515Y0038804D01*
X0038368Y0038460D01*
X0038230Y0038112D01*
X0010867Y0016773D02*
X0010869Y0016926D01*
X0010875Y0017080D01*
X0010885Y0017233D01*
X0010899Y0017385D01*
X0010917Y0017538D01*
X0010939Y0017689D01*
X0010964Y0017840D01*
X0010994Y0017991D01*
X0011028Y0018141D01*
X0011065Y0018289D01*
X0011106Y0018437D01*
X0011151Y0018583D01*
X0011200Y0018729D01*
X0011253Y0018873D01*
X0011309Y0019015D01*
X0011369Y0019156D01*
X0011433Y0019296D01*
X0011500Y0019434D01*
X0011571Y0019570D01*
X0011646Y0019704D01*
X0011723Y0019836D01*
X0011805Y0019966D01*
X0011889Y0020094D01*
X0011977Y0020220D01*
X0012068Y0020343D01*
X0012162Y0020464D01*
X0012260Y0020582D01*
X0012360Y0020698D01*
X0012464Y0020811D01*
X0012570Y0020922D01*
X0012679Y0021030D01*
X0012791Y0021135D01*
X0012905Y0021236D01*
X0013023Y0021335D01*
X0013142Y0021431D01*
X0013264Y0021524D01*
X0013389Y0021613D01*
X0013516Y0021700D01*
X0013645Y0021782D01*
X0013776Y0021862D01*
X0013909Y0021938D01*
X0014044Y0022011D01*
X0014181Y0022080D01*
X0014320Y0022145D01*
X0014460Y0022207D01*
X0014602Y0022265D01*
X0014745Y0022320D01*
X0014890Y0022371D01*
X0015036Y0022418D01*
X0015183Y0022461D01*
X0015331Y0022500D01*
X0015480Y0022536D01*
X0015630Y0022567D01*
X0015781Y0022595D01*
X0015932Y0022619D01*
X0016085Y0022639D01*
X0016237Y0022655D01*
X0016390Y0022667D01*
X0016543Y0022675D01*
X0016696Y0022679D01*
X0016850Y0022679D01*
X0017003Y0022675D01*
X0017156Y0022667D01*
X0017309Y0022655D01*
X0017461Y0022639D01*
X0017614Y0022619D01*
X0017765Y0022595D01*
X0017916Y0022567D01*
X0018066Y0022536D01*
X0018215Y0022500D01*
X0018363Y0022461D01*
X0018510Y0022418D01*
X0018656Y0022371D01*
X0018801Y0022320D01*
X0018944Y0022265D01*
X0019086Y0022207D01*
X0019226Y0022145D01*
X0019365Y0022080D01*
X0019502Y0022011D01*
X0019637Y0021938D01*
X0019770Y0021862D01*
X0019901Y0021782D01*
X0020030Y0021700D01*
X0020157Y0021613D01*
X0020282Y0021524D01*
X0020404Y0021431D01*
X0020523Y0021335D01*
X0020641Y0021236D01*
X0020755Y0021135D01*
X0020867Y0021030D01*
X0020976Y0020922D01*
X0021082Y0020811D01*
X0021186Y0020698D01*
X0021286Y0020582D01*
X0021384Y0020464D01*
X0021478Y0020343D01*
X0021569Y0020220D01*
X0021657Y0020094D01*
X0021741Y0019966D01*
X0021823Y0019836D01*
X0021900Y0019704D01*
X0021975Y0019570D01*
X0022046Y0019434D01*
X0022113Y0019296D01*
X0022177Y0019156D01*
X0022237Y0019015D01*
X0022293Y0018873D01*
X0022346Y0018729D01*
X0022395Y0018583D01*
X0022440Y0018437D01*
X0022481Y0018289D01*
X0022518Y0018141D01*
X0022552Y0017991D01*
X0022582Y0017840D01*
X0022607Y0017689D01*
X0022629Y0017538D01*
X0022647Y0017385D01*
X0022661Y0017233D01*
X0022671Y0017080D01*
X0022677Y0016926D01*
X0022679Y0016773D01*
X0022677Y0016620D01*
X0022671Y0016466D01*
X0022661Y0016313D01*
X0022647Y0016161D01*
X0022629Y0016008D01*
X0022607Y0015857D01*
X0022582Y0015706D01*
X0022552Y0015555D01*
X0022518Y0015405D01*
X0022481Y0015257D01*
X0022440Y0015109D01*
X0022395Y0014963D01*
X0022346Y0014817D01*
X0022293Y0014673D01*
X0022237Y0014531D01*
X0022177Y0014390D01*
X0022113Y0014250D01*
X0022046Y0014112D01*
X0021975Y0013976D01*
X0021900Y0013842D01*
X0021823Y0013710D01*
X0021741Y0013580D01*
X0021657Y0013452D01*
X0021569Y0013326D01*
X0021478Y0013203D01*
X0021384Y0013082D01*
X0021286Y0012964D01*
X0021186Y0012848D01*
X0021082Y0012735D01*
X0020976Y0012624D01*
X0020867Y0012516D01*
X0020755Y0012411D01*
X0020641Y0012310D01*
X0020523Y0012211D01*
X0020404Y0012115D01*
X0020282Y0012022D01*
X0020157Y0011933D01*
X0020030Y0011846D01*
X0019901Y0011764D01*
X0019770Y0011684D01*
X0019637Y0011608D01*
X0019502Y0011535D01*
X0019365Y0011466D01*
X0019226Y0011401D01*
X0019086Y0011339D01*
X0018944Y0011281D01*
X0018801Y0011226D01*
X0018656Y0011175D01*
X0018510Y0011128D01*
X0018363Y0011085D01*
X0018215Y0011046D01*
X0018066Y0011010D01*
X0017916Y0010979D01*
X0017765Y0010951D01*
X0017614Y0010927D01*
X0017461Y0010907D01*
X0017309Y0010891D01*
X0017156Y0010879D01*
X0017003Y0010871D01*
X0016850Y0010867D01*
X0016696Y0010867D01*
X0016543Y0010871D01*
X0016390Y0010879D01*
X0016237Y0010891D01*
X0016085Y0010907D01*
X0015932Y0010927D01*
X0015781Y0010951D01*
X0015630Y0010979D01*
X0015480Y0011010D01*
X0015331Y0011046D01*
X0015183Y0011085D01*
X0015036Y0011128D01*
X0014890Y0011175D01*
X0014745Y0011226D01*
X0014602Y0011281D01*
X0014460Y0011339D01*
X0014320Y0011401D01*
X0014181Y0011466D01*
X0014044Y0011535D01*
X0013909Y0011608D01*
X0013776Y0011684D01*
X0013645Y0011764D01*
X0013516Y0011846D01*
X0013389Y0011933D01*
X0013264Y0012022D01*
X0013142Y0012115D01*
X0013023Y0012211D01*
X0012905Y0012310D01*
X0012791Y0012411D01*
X0012679Y0012516D01*
X0012570Y0012624D01*
X0012464Y0012735D01*
X0012360Y0012848D01*
X0012260Y0012964D01*
X0012162Y0013082D01*
X0012068Y0013203D01*
X0011977Y0013326D01*
X0011889Y0013452D01*
X0011805Y0013580D01*
X0011723Y0013710D01*
X0011646Y0013842D01*
X0011571Y0013976D01*
X0011500Y0014112D01*
X0011433Y0014250D01*
X0011369Y0014390D01*
X0011309Y0014531D01*
X0011253Y0014673D01*
X0011200Y0014817D01*
X0011151Y0014963D01*
X0011106Y0015109D01*
X0011065Y0015257D01*
X0011028Y0015405D01*
X0010994Y0015555D01*
X0010964Y0015706D01*
X0010939Y0015857D01*
X0010917Y0016008D01*
X0010899Y0016161D01*
X0010885Y0016313D01*
X0010875Y0016466D01*
X0010869Y0016620D01*
X0010867Y0016773D01*
X0193230Y0187088D02*
X0193368Y0186740D01*
X0193515Y0186396D01*
X0193670Y0186055D01*
X0193833Y0185718D01*
X0194005Y0185385D01*
X0194185Y0185056D01*
X0194372Y0184732D01*
X0194567Y0184412D01*
X0194771Y0184098D01*
X0194981Y0183788D01*
X0195199Y0183484D01*
X0195425Y0183185D01*
X0195658Y0182891D01*
X0195897Y0182603D01*
X0196144Y0182322D01*
X0196398Y0182046D01*
X0196658Y0181777D01*
X0196924Y0181513D01*
X0197197Y0181257D01*
X0197476Y0181007D01*
X0197761Y0180764D01*
X0198052Y0180528D01*
X0198349Y0180300D01*
X0198651Y0180078D01*
X0198958Y0179864D01*
X0199271Y0179658D01*
X0199588Y0179459D01*
X0199910Y0179268D01*
X0200237Y0179085D01*
X0200568Y0178909D01*
X0200903Y0178742D01*
X0201242Y0178584D01*
X0201585Y0178433D01*
X0201932Y0178291D01*
X0202281Y0178157D01*
X0202634Y0178032D01*
X0202990Y0177916D01*
X0203349Y0177808D01*
X0203710Y0177709D01*
X0204074Y0177618D01*
X0204439Y0177537D01*
X0204807Y0177465D01*
X0205176Y0177401D01*
X0205546Y0177347D01*
X0205918Y0177301D01*
X0206291Y0177265D01*
X0206664Y0177237D01*
X0207038Y0177219D01*
X0207413Y0177210D01*
X0207787Y0177210D01*
X0208162Y0177219D01*
X0208536Y0177237D01*
X0208909Y0177265D01*
X0209282Y0177301D01*
X0209654Y0177347D01*
X0210024Y0177401D01*
X0210393Y0177465D01*
X0210761Y0177537D01*
X0211126Y0177618D01*
X0211490Y0177709D01*
X0211851Y0177808D01*
X0212210Y0177916D01*
X0212566Y0178032D01*
X0212919Y0178157D01*
X0213268Y0178291D01*
X0213615Y0178433D01*
X0213958Y0178584D01*
X0214297Y0178742D01*
X0214632Y0178909D01*
X0214963Y0179085D01*
X0215290Y0179268D01*
X0215612Y0179459D01*
X0215929Y0179658D01*
X0216242Y0179864D01*
X0216549Y0180078D01*
X0216851Y0180300D01*
X0217148Y0180528D01*
X0217439Y0180764D01*
X0217724Y0181007D01*
X0218003Y0181257D01*
X0218276Y0181513D01*
X0218542Y0181777D01*
X0218802Y0182046D01*
X0219056Y0182322D01*
X0219303Y0182603D01*
X0219542Y0182891D01*
X0219775Y0183185D01*
X0220001Y0183484D01*
X0220219Y0183788D01*
X0220429Y0184098D01*
X0220633Y0184412D01*
X0220828Y0184732D01*
X0221015Y0185056D01*
X0221195Y0185385D01*
X0221367Y0185718D01*
X0221530Y0186055D01*
X0221685Y0186396D01*
X0221832Y0186740D01*
X0221970Y0187088D01*
X0238426Y0208899D02*
X0238428Y0209052D01*
X0238434Y0209206D01*
X0238444Y0209359D01*
X0238458Y0209511D01*
X0238476Y0209664D01*
X0238498Y0209815D01*
X0238523Y0209966D01*
X0238553Y0210117D01*
X0238587Y0210267D01*
X0238624Y0210415D01*
X0238665Y0210563D01*
X0238710Y0210709D01*
X0238759Y0210855D01*
X0238812Y0210999D01*
X0238868Y0211141D01*
X0238928Y0211282D01*
X0238992Y0211422D01*
X0239059Y0211560D01*
X0239130Y0211696D01*
X0239205Y0211830D01*
X0239282Y0211962D01*
X0239364Y0212092D01*
X0239448Y0212220D01*
X0239536Y0212346D01*
X0239627Y0212469D01*
X0239721Y0212590D01*
X0239819Y0212708D01*
X0239919Y0212824D01*
X0240023Y0212937D01*
X0240129Y0213048D01*
X0240238Y0213156D01*
X0240350Y0213261D01*
X0240464Y0213362D01*
X0240582Y0213461D01*
X0240701Y0213557D01*
X0240823Y0213650D01*
X0240948Y0213739D01*
X0241075Y0213826D01*
X0241204Y0213908D01*
X0241335Y0213988D01*
X0241468Y0214064D01*
X0241603Y0214137D01*
X0241740Y0214206D01*
X0241879Y0214271D01*
X0242019Y0214333D01*
X0242161Y0214391D01*
X0242304Y0214446D01*
X0242449Y0214497D01*
X0242595Y0214544D01*
X0242742Y0214587D01*
X0242890Y0214626D01*
X0243039Y0214662D01*
X0243189Y0214693D01*
X0243340Y0214721D01*
X0243491Y0214745D01*
X0243644Y0214765D01*
X0243796Y0214781D01*
X0243949Y0214793D01*
X0244102Y0214801D01*
X0244255Y0214805D01*
X0244409Y0214805D01*
X0244562Y0214801D01*
X0244715Y0214793D01*
X0244868Y0214781D01*
X0245020Y0214765D01*
X0245173Y0214745D01*
X0245324Y0214721D01*
X0245475Y0214693D01*
X0245625Y0214662D01*
X0245774Y0214626D01*
X0245922Y0214587D01*
X0246069Y0214544D01*
X0246215Y0214497D01*
X0246360Y0214446D01*
X0246503Y0214391D01*
X0246645Y0214333D01*
X0246785Y0214271D01*
X0246924Y0214206D01*
X0247061Y0214137D01*
X0247196Y0214064D01*
X0247329Y0213988D01*
X0247460Y0213908D01*
X0247589Y0213826D01*
X0247716Y0213739D01*
X0247841Y0213650D01*
X0247963Y0213557D01*
X0248082Y0213461D01*
X0248200Y0213362D01*
X0248314Y0213261D01*
X0248426Y0213156D01*
X0248535Y0213048D01*
X0248641Y0212937D01*
X0248745Y0212824D01*
X0248845Y0212708D01*
X0248943Y0212590D01*
X0249037Y0212469D01*
X0249128Y0212346D01*
X0249216Y0212220D01*
X0249300Y0212092D01*
X0249382Y0211962D01*
X0249459Y0211830D01*
X0249534Y0211696D01*
X0249605Y0211560D01*
X0249672Y0211422D01*
X0249736Y0211282D01*
X0249796Y0211141D01*
X0249852Y0210999D01*
X0249905Y0210855D01*
X0249954Y0210709D01*
X0249999Y0210563D01*
X0250040Y0210415D01*
X0250077Y0210267D01*
X0250111Y0210117D01*
X0250141Y0209966D01*
X0250166Y0209815D01*
X0250188Y0209664D01*
X0250206Y0209511D01*
X0250220Y0209359D01*
X0250230Y0209206D01*
X0250236Y0209052D01*
X0250238Y0208899D01*
X0250236Y0208746D01*
X0250230Y0208592D01*
X0250220Y0208439D01*
X0250206Y0208287D01*
X0250188Y0208134D01*
X0250166Y0207983D01*
X0250141Y0207832D01*
X0250111Y0207681D01*
X0250077Y0207531D01*
X0250040Y0207383D01*
X0249999Y0207235D01*
X0249954Y0207089D01*
X0249905Y0206943D01*
X0249852Y0206799D01*
X0249796Y0206657D01*
X0249736Y0206516D01*
X0249672Y0206376D01*
X0249605Y0206238D01*
X0249534Y0206102D01*
X0249459Y0205968D01*
X0249382Y0205836D01*
X0249300Y0205706D01*
X0249216Y0205578D01*
X0249128Y0205452D01*
X0249037Y0205329D01*
X0248943Y0205208D01*
X0248845Y0205090D01*
X0248745Y0204974D01*
X0248641Y0204861D01*
X0248535Y0204750D01*
X0248426Y0204642D01*
X0248314Y0204537D01*
X0248200Y0204436D01*
X0248082Y0204337D01*
X0247963Y0204241D01*
X0247841Y0204148D01*
X0247716Y0204059D01*
X0247589Y0203972D01*
X0247460Y0203890D01*
X0247329Y0203810D01*
X0247196Y0203734D01*
X0247061Y0203661D01*
X0246924Y0203592D01*
X0246785Y0203527D01*
X0246645Y0203465D01*
X0246503Y0203407D01*
X0246360Y0203352D01*
X0246215Y0203301D01*
X0246069Y0203254D01*
X0245922Y0203211D01*
X0245774Y0203172D01*
X0245625Y0203136D01*
X0245475Y0203105D01*
X0245324Y0203077D01*
X0245173Y0203053D01*
X0245020Y0203033D01*
X0244868Y0203017D01*
X0244715Y0203005D01*
X0244562Y0202997D01*
X0244409Y0202993D01*
X0244255Y0202993D01*
X0244102Y0202997D01*
X0243949Y0203005D01*
X0243796Y0203017D01*
X0243644Y0203033D01*
X0243491Y0203053D01*
X0243340Y0203077D01*
X0243189Y0203105D01*
X0243039Y0203136D01*
X0242890Y0203172D01*
X0242742Y0203211D01*
X0242595Y0203254D01*
X0242449Y0203301D01*
X0242304Y0203352D01*
X0242161Y0203407D01*
X0242019Y0203465D01*
X0241879Y0203527D01*
X0241740Y0203592D01*
X0241603Y0203661D01*
X0241468Y0203734D01*
X0241335Y0203810D01*
X0241204Y0203890D01*
X0241075Y0203972D01*
X0240948Y0204059D01*
X0240823Y0204148D01*
X0240701Y0204241D01*
X0240582Y0204337D01*
X0240464Y0204436D01*
X0240350Y0204537D01*
X0240238Y0204642D01*
X0240129Y0204750D01*
X0240023Y0204861D01*
X0239919Y0204974D01*
X0239819Y0205090D01*
X0239721Y0205208D01*
X0239627Y0205329D01*
X0239536Y0205452D01*
X0239448Y0205578D01*
X0239364Y0205706D01*
X0239282Y0205836D01*
X0239205Y0205968D01*
X0239130Y0206102D01*
X0239059Y0206238D01*
X0238992Y0206376D01*
X0238928Y0206516D01*
X0238868Y0206657D01*
X0238812Y0206799D01*
X0238759Y0206943D01*
X0238710Y0207089D01*
X0238665Y0207235D01*
X0238624Y0207383D01*
X0238587Y0207531D01*
X0238553Y0207681D01*
X0238523Y0207832D01*
X0238498Y0207983D01*
X0238476Y0208134D01*
X0238458Y0208287D01*
X0238444Y0208439D01*
X0238434Y0208592D01*
X0238428Y0208746D01*
X0238426Y0208899D01*
D12*
X0235850Y0143705D02*
X0229745Y0143705D01*
X0231780Y0143705D02*
X0231780Y0140652D01*
X0232797Y0139635D01*
X0234832Y0139635D01*
X0235850Y0140652D01*
X0235850Y0143705D01*
X0231780Y0137623D02*
X0231780Y0136605D01*
X0233815Y0134570D01*
X0233815Y0132563D02*
X0233815Y0129511D01*
X0234832Y0128493D01*
X0235850Y0129511D01*
X0235850Y0132563D01*
X0232797Y0132563D01*
X0231780Y0131546D01*
X0231780Y0129511D01*
X0232797Y0126486D02*
X0231780Y0125469D01*
X0231780Y0123434D01*
X0232797Y0122416D01*
X0234832Y0122416D01*
X0235850Y0123434D01*
X0235850Y0125469D01*
X0234832Y0126486D01*
X0232797Y0126486D01*
X0231780Y0120409D02*
X0232797Y0119391D01*
X0232797Y0116339D01*
X0229745Y0116339D02*
X0235850Y0116339D01*
X0235850Y0119391D01*
X0234832Y0120409D01*
X0233815Y0120409D01*
X0232797Y0119391D01*
X0231780Y0120409D02*
X0230762Y0120409D01*
X0229745Y0119391D01*
X0229745Y0116339D01*
X0231780Y0108250D02*
X0231780Y0107232D01*
X0233815Y0105197D01*
X0233815Y0103190D02*
X0233815Y0099120D01*
X0234832Y0099120D02*
X0232797Y0099120D01*
X0231780Y0100138D01*
X0231780Y0102173D01*
X0232797Y0103190D01*
X0233815Y0103190D01*
X0235850Y0102173D02*
X0235850Y0100138D01*
X0234832Y0099120D01*
X0231780Y0097113D02*
X0235850Y0095078D01*
X0231780Y0093043D01*
X0231780Y0090009D02*
X0235850Y0090009D01*
X0235850Y0088992D02*
X0235850Y0091027D01*
X0231780Y0090009D02*
X0231780Y0088992D01*
X0231780Y0086980D02*
X0231780Y0085962D01*
X0233815Y0083927D01*
X0235850Y0083927D02*
X0231780Y0083927D01*
X0230762Y0081920D02*
X0229745Y0080903D01*
X0229745Y0077850D01*
X0235850Y0077850D01*
X0235850Y0080903D01*
X0234832Y0081920D01*
X0230762Y0081920D01*
X0229745Y0090009D02*
X0228727Y0090009D01*
X0231780Y0105197D02*
X0235850Y0105197D01*
X0204608Y0106143D02*
X0204608Y0119529D01*
X0178545Y0119529D01*
X0178545Y0106143D01*
X0204608Y0106143D01*
X0205750Y0117561D02*
X0202600Y0120710D01*
X0202600Y0121104D01*
X0205356Y0121104D01*
X0205750Y0120710D01*
X0205750Y0117561D01*
X0205750Y0117756D02*
X0205554Y0117756D01*
X0205750Y0118255D02*
X0205056Y0118255D01*
X0204557Y0118753D02*
X0205750Y0118753D01*
X0205750Y0119252D02*
X0204059Y0119252D01*
X0203560Y0119750D02*
X0205750Y0119750D01*
X0205750Y0120249D02*
X0203062Y0120249D01*
X0202600Y0120747D02*
X0205713Y0120747D01*
X0231780Y0134570D02*
X0235850Y0134570D01*
X0184313Y0087600D02*
X0184315Y0087656D01*
X0184321Y0087711D01*
X0184331Y0087765D01*
X0184344Y0087819D01*
X0184362Y0087872D01*
X0184383Y0087923D01*
X0184407Y0087973D01*
X0184435Y0088021D01*
X0184467Y0088067D01*
X0184501Y0088111D01*
X0184539Y0088152D01*
X0184579Y0088190D01*
X0184622Y0088225D01*
X0184667Y0088257D01*
X0184715Y0088286D01*
X0184764Y0088312D01*
X0184815Y0088334D01*
X0184867Y0088352D01*
X0184921Y0088366D01*
X0184976Y0088377D01*
X0185031Y0088384D01*
X0185086Y0088387D01*
X0185142Y0088386D01*
X0185197Y0088381D01*
X0185252Y0088372D01*
X0185306Y0088360D01*
X0185359Y0088343D01*
X0185411Y0088323D01*
X0185461Y0088299D01*
X0185509Y0088272D01*
X0185556Y0088242D01*
X0185600Y0088208D01*
X0185642Y0088171D01*
X0185680Y0088131D01*
X0185717Y0088089D01*
X0185750Y0088044D01*
X0185779Y0087998D01*
X0185806Y0087949D01*
X0185828Y0087898D01*
X0185848Y0087846D01*
X0185863Y0087792D01*
X0185875Y0087738D01*
X0185883Y0087683D01*
X0185887Y0087628D01*
X0185887Y0087572D01*
X0185883Y0087517D01*
X0185875Y0087462D01*
X0185863Y0087408D01*
X0185848Y0087354D01*
X0185828Y0087302D01*
X0185806Y0087251D01*
X0185779Y0087202D01*
X0185750Y0087156D01*
X0185717Y0087111D01*
X0185680Y0087069D01*
X0185642Y0087029D01*
X0185600Y0086992D01*
X0185556Y0086958D01*
X0185509Y0086928D01*
X0185461Y0086901D01*
X0185411Y0086877D01*
X0185359Y0086857D01*
X0185306Y0086840D01*
X0185252Y0086828D01*
X0185197Y0086819D01*
X0185142Y0086814D01*
X0185086Y0086813D01*
X0185031Y0086816D01*
X0184976Y0086823D01*
X0184921Y0086834D01*
X0184867Y0086848D01*
X0184815Y0086866D01*
X0184764Y0086888D01*
X0184715Y0086914D01*
X0184667Y0086943D01*
X0184622Y0086975D01*
X0184579Y0087010D01*
X0184539Y0087048D01*
X0184501Y0087089D01*
X0184467Y0087133D01*
X0184435Y0087179D01*
X0184407Y0087227D01*
X0184383Y0087277D01*
X0184362Y0087328D01*
X0184344Y0087381D01*
X0184331Y0087435D01*
X0184321Y0087489D01*
X0184315Y0087544D01*
X0184313Y0087600D01*
X0185100Y0085100D02*
X0185100Y0083100D01*
X0185100Y0085100D02*
X0200100Y0085100D01*
X0200100Y0083100D01*
X0200100Y0072100D02*
X0200100Y0070100D01*
X0185100Y0070100D01*
X0185100Y0072100D01*
X0154175Y0022600D02*
X0106931Y0022600D01*
X0082561Y0106143D02*
X0056498Y0106143D01*
X0056498Y0119529D01*
X0082561Y0119529D01*
X0082561Y0106143D01*
X0083702Y0117561D02*
X0080553Y0120710D01*
X0080553Y0121104D01*
X0083309Y0121104D01*
X0083702Y0120710D01*
X0083702Y0117561D01*
X0083702Y0117756D02*
X0083507Y0117756D01*
X0083702Y0118255D02*
X0083008Y0118255D01*
X0082510Y0118753D02*
X0083702Y0118753D01*
X0083702Y0119252D02*
X0082011Y0119252D01*
X0081513Y0119750D02*
X0083702Y0119750D01*
X0083702Y0120249D02*
X0081014Y0120249D01*
X0080553Y0120747D02*
X0083665Y0120747D01*
X0079943Y0191458D02*
X0040572Y0191458D01*
X0040572Y0223348D01*
X0079943Y0223348D01*
X0079943Y0191458D01*
X0106931Y0203072D02*
X0154175Y0203072D01*
D13*
X0149472Y0206772D02*
X0148271Y0207973D01*
X0148871Y0207973D02*
X0147070Y0207973D01*
X0147070Y0206772D02*
X0147070Y0210376D01*
X0148871Y0210376D01*
X0149472Y0209775D01*
X0149472Y0208574D01*
X0148871Y0207973D01*
X0145789Y0206772D02*
X0145789Y0210376D01*
X0143386Y0210376D02*
X0143386Y0206772D01*
X0144587Y0207973D01*
X0145789Y0206772D01*
X0142105Y0208574D02*
X0141505Y0207973D01*
X0139703Y0207973D01*
X0139703Y0206772D02*
X0139703Y0210376D01*
X0141505Y0210376D01*
X0142105Y0209775D01*
X0142105Y0208574D01*
X0133871Y0199352D02*
X0132670Y0199352D01*
X0132070Y0198751D01*
X0130788Y0198751D02*
X0130188Y0199352D01*
X0128987Y0199352D01*
X0128386Y0198751D01*
X0128386Y0196349D01*
X0128987Y0195749D01*
X0130188Y0195749D01*
X0130788Y0196349D01*
X0132070Y0195749D02*
X0134472Y0198151D01*
X0134472Y0198751D01*
X0133871Y0199352D01*
X0134472Y0195749D02*
X0132070Y0195749D01*
X0127105Y0196349D02*
X0126505Y0195749D01*
X0125304Y0195749D01*
X0124703Y0196349D01*
X0125304Y0197550D02*
X0126505Y0197550D01*
X0127105Y0196950D01*
X0127105Y0196349D01*
X0125304Y0197550D02*
X0124703Y0198151D01*
X0124703Y0198751D01*
X0125304Y0199352D01*
X0126505Y0199352D01*
X0127105Y0198751D01*
X0123422Y0199352D02*
X0121020Y0199352D01*
X0121020Y0195749D01*
X0123422Y0195749D01*
X0122221Y0197550D02*
X0121020Y0197550D01*
X0118871Y0206772D02*
X0117070Y0206772D01*
X0117070Y0210376D01*
X0118871Y0210376D01*
X0119472Y0209775D01*
X0119472Y0207373D01*
X0118871Y0206772D01*
X0115789Y0206772D02*
X0115789Y0210376D01*
X0113386Y0210376D02*
X0115789Y0206772D01*
X0113386Y0206772D02*
X0113386Y0210376D01*
X0112105Y0209775D02*
X0111505Y0210376D01*
X0110304Y0210376D01*
X0109703Y0209775D01*
X0109703Y0207373D01*
X0110304Y0206772D01*
X0111505Y0206772D01*
X0112105Y0207373D01*
X0112105Y0208574D01*
X0110904Y0208574D01*
X0064226Y0222246D02*
X0061157Y0222246D01*
X0062691Y0222246D02*
X0062691Y0217643D01*
X0059622Y0217643D02*
X0059622Y0222246D01*
X0056553Y0222246D02*
X0059622Y0217643D01*
X0056553Y0217643D02*
X0056553Y0222246D01*
X0055018Y0221479D02*
X0054251Y0222246D01*
X0052716Y0222246D01*
X0051949Y0221479D01*
X0051949Y0218410D01*
X0052716Y0217643D01*
X0054251Y0217643D01*
X0055018Y0218410D01*
X0055018Y0221479D01*
X0050414Y0221479D02*
X0050414Y0219944D01*
X0049647Y0219177D01*
X0047345Y0219177D01*
X0047345Y0217643D02*
X0047345Y0222246D01*
X0049647Y0222246D01*
X0050414Y0221479D01*
X0048880Y0219177D02*
X0050414Y0217643D01*
X0045810Y0222246D02*
X0042741Y0222246D01*
X0042741Y0217643D01*
X0042741Y0219944D02*
X0044276Y0219944D01*
X0043770Y0189504D02*
X0043770Y0186035D01*
X0042035Y0184300D01*
X0040300Y0186035D01*
X0040300Y0189504D01*
X0045456Y0188637D02*
X0045456Y0185167D01*
X0046324Y0184300D01*
X0048059Y0184300D01*
X0048926Y0185167D01*
X0050613Y0185167D02*
X0051480Y0184300D01*
X0053215Y0184300D01*
X0054082Y0185167D01*
X0050613Y0185167D02*
X0050613Y0188637D01*
X0051480Y0189504D01*
X0053215Y0189504D01*
X0054082Y0188637D01*
X0048926Y0188637D02*
X0048059Y0189504D01*
X0046324Y0189504D01*
X0045456Y0188637D01*
X0063126Y0104372D02*
X0063126Y0100769D01*
X0065529Y0100769D01*
X0066810Y0100769D02*
X0069212Y0100769D01*
X0070493Y0100769D02*
X0072294Y0100769D01*
X0072895Y0101369D01*
X0072895Y0103771D01*
X0072294Y0104372D01*
X0070493Y0104372D01*
X0070493Y0100769D01*
X0068011Y0102570D02*
X0066810Y0102570D01*
X0066810Y0100769D02*
X0066810Y0104372D01*
X0069212Y0104372D01*
X0074176Y0103171D02*
X0075377Y0104372D01*
X0075377Y0100769D01*
X0074176Y0100769D02*
X0076578Y0100769D01*
X0123253Y0029927D02*
X0123253Y0026324D01*
X0125655Y0026324D01*
X0126936Y0026924D02*
X0127536Y0026324D01*
X0128737Y0026324D01*
X0129338Y0026924D01*
X0129338Y0027525D01*
X0128737Y0028125D01*
X0127536Y0028125D01*
X0126936Y0028726D01*
X0126936Y0029326D01*
X0127536Y0029927D01*
X0128737Y0029927D01*
X0129338Y0029326D01*
X0130619Y0029326D02*
X0130619Y0026924D01*
X0131220Y0026324D01*
X0132421Y0026324D01*
X0133021Y0026924D01*
X0134302Y0026324D02*
X0136704Y0026324D01*
X0135503Y0026324D02*
X0135503Y0029927D01*
X0134302Y0028726D01*
X0133021Y0029326D02*
X0132421Y0029927D01*
X0131220Y0029927D01*
X0130619Y0029326D01*
X0125655Y0029927D02*
X0123253Y0029927D01*
X0123253Y0028125D02*
X0124454Y0028125D01*
X0119921Y0018903D02*
X0120521Y0018303D01*
X0120521Y0017102D01*
X0119921Y0016501D01*
X0118119Y0016501D01*
X0118119Y0015300D02*
X0118119Y0018903D01*
X0119921Y0018903D01*
X0119320Y0016501D02*
X0120521Y0015300D01*
X0116838Y0015300D02*
X0116838Y0018903D01*
X0114436Y0018903D02*
X0114436Y0015300D01*
X0115637Y0016501D01*
X0116838Y0015300D01*
X0113155Y0017102D02*
X0112554Y0016501D01*
X0110753Y0016501D01*
X0110753Y0015300D02*
X0110753Y0018903D01*
X0112554Y0018903D01*
X0113155Y0018303D01*
X0113155Y0017102D01*
X0140753Y0018303D02*
X0140753Y0015901D01*
X0141353Y0015300D01*
X0142554Y0015300D01*
X0143155Y0015901D01*
X0143155Y0017102D01*
X0141954Y0017102D01*
X0143155Y0018303D02*
X0142554Y0018903D01*
X0141353Y0018903D01*
X0140753Y0018303D01*
X0144436Y0018903D02*
X0144436Y0015300D01*
X0146838Y0015300D02*
X0146838Y0018903D01*
X0148119Y0018903D02*
X0149921Y0018903D01*
X0150521Y0018303D01*
X0150521Y0015901D01*
X0149921Y0015300D01*
X0148119Y0015300D01*
X0148119Y0018903D01*
X0144436Y0018903D02*
X0146838Y0015300D01*
X0188401Y0065300D02*
X0189602Y0065300D01*
X0190202Y0065901D01*
X0190202Y0068903D01*
X0191483Y0067702D02*
X0192684Y0068903D01*
X0192684Y0065300D01*
X0191483Y0065300D02*
X0193885Y0065300D01*
X0188401Y0065300D02*
X0187800Y0065901D01*
X0187800Y0068903D01*
X0211573Y0065519D02*
X0212774Y0064318D01*
X0212173Y0063037D02*
X0214575Y0063037D01*
X0215176Y0062436D01*
X0215176Y0061235D01*
X0214575Y0060635D01*
X0212173Y0060635D01*
X0211573Y0061235D01*
X0211573Y0062436D01*
X0212173Y0063037D01*
X0213975Y0061836D02*
X0215176Y0063037D01*
X0215176Y0064318D02*
X0215176Y0066720D01*
X0215176Y0065519D02*
X0211573Y0065519D01*
X0240696Y0077800D02*
X0240696Y0080402D01*
X0241563Y0081270D01*
X0243298Y0081270D01*
X0244165Y0080402D01*
X0244165Y0077800D01*
X0244165Y0079535D02*
X0245900Y0081270D01*
X0245033Y0082956D02*
X0245900Y0083824D01*
X0245900Y0085559D01*
X0244165Y0086426D02*
X0244165Y0082956D01*
X0243298Y0082956D02*
X0242430Y0083824D01*
X0242430Y0085559D01*
X0243298Y0086426D01*
X0244165Y0086426D01*
X0242430Y0088113D02*
X0245900Y0089848D01*
X0242430Y0091582D01*
X0245033Y0093269D02*
X0245033Y0094137D01*
X0245900Y0094137D01*
X0245900Y0093269D01*
X0245033Y0093269D01*
X0245033Y0095847D02*
X0241563Y0095847D01*
X0240696Y0096715D01*
X0240696Y0098450D01*
X0241563Y0099317D01*
X0245033Y0095847D01*
X0245900Y0096715D01*
X0245900Y0098450D01*
X0245033Y0099317D01*
X0241563Y0099317D01*
X0245033Y0101004D02*
X0245033Y0101871D01*
X0245900Y0101871D01*
X0245900Y0101004D01*
X0245033Y0101004D01*
X0245900Y0103582D02*
X0245900Y0107052D01*
X0245900Y0105317D02*
X0240696Y0105317D01*
X0242430Y0103582D01*
X0243298Y0082956D02*
X0245033Y0082956D01*
X0245900Y0077800D02*
X0240696Y0077800D01*
X0198625Y0100769D02*
X0196223Y0100769D01*
X0198625Y0103171D01*
X0198625Y0103771D01*
X0198025Y0104372D01*
X0196824Y0104372D01*
X0196223Y0103771D01*
X0194942Y0103771D02*
X0194942Y0101369D01*
X0194342Y0100769D01*
X0192540Y0100769D01*
X0192540Y0104372D01*
X0194342Y0104372D01*
X0194942Y0103771D01*
X0191259Y0104372D02*
X0188857Y0104372D01*
X0188857Y0100769D01*
X0191259Y0100769D01*
X0190058Y0102570D02*
X0188857Y0102570D01*
X0187576Y0100769D02*
X0185174Y0100769D01*
X0185174Y0104372D01*
X0215752Y0010203D02*
X0216953Y0010203D01*
X0216352Y0010203D02*
X0216352Y0007201D01*
X0215752Y0006600D01*
X0215151Y0006600D01*
X0214551Y0007201D01*
X0218234Y0007801D02*
X0220035Y0007801D01*
X0220636Y0008402D01*
X0220636Y0009603D01*
X0220035Y0010203D01*
X0218234Y0010203D01*
X0218234Y0006600D01*
X0221917Y0006600D02*
X0224319Y0006600D01*
X0223118Y0006600D02*
X0223118Y0010203D01*
X0221917Y0009002D01*
D14*
X0225250Y0042750D02*
X0225250Y0046453D01*
X0227102Y0046453D01*
X0227719Y0045836D01*
X0227719Y0044602D01*
X0227102Y0043984D01*
X0225250Y0043984D01*
X0226484Y0043984D02*
X0227719Y0042750D01*
X0228933Y0043367D02*
X0229550Y0042750D01*
X0230785Y0042750D01*
X0231402Y0043367D01*
X0231402Y0043984D01*
X0230785Y0044602D01*
X0230168Y0044602D01*
X0230785Y0044602D02*
X0231402Y0045219D01*
X0231402Y0045836D01*
X0230785Y0046453D01*
X0229550Y0046453D01*
X0228933Y0045836D01*
X0229067Y0051250D02*
X0231536Y0053719D01*
X0231536Y0054336D01*
X0230918Y0054953D01*
X0229684Y0054953D01*
X0229067Y0054336D01*
X0227852Y0054336D02*
X0227852Y0053102D01*
X0227235Y0052484D01*
X0225384Y0052484D01*
X0225384Y0051250D02*
X0225384Y0054953D01*
X0227235Y0054953D01*
X0227852Y0054336D01*
X0226618Y0052484D02*
X0227852Y0051250D01*
X0229067Y0051250D02*
X0231536Y0051250D01*
X0185859Y0089761D02*
X0185859Y0090995D01*
X0185242Y0091612D01*
X0185859Y0092827D02*
X0185859Y0095295D01*
X0185859Y0094061D02*
X0182156Y0094061D01*
X0183391Y0092827D01*
X0182773Y0091612D02*
X0182156Y0090995D01*
X0182156Y0089761D01*
X0182773Y0089144D01*
X0185242Y0089144D01*
X0185859Y0089761D01*
X0182450Y0061402D02*
X0182450Y0058933D01*
X0182450Y0057719D02*
X0181216Y0056484D01*
X0181216Y0057102D02*
X0181216Y0055250D01*
X0182450Y0055250D02*
X0178747Y0055250D01*
X0178747Y0057102D01*
X0179364Y0057719D01*
X0180598Y0057719D01*
X0181216Y0057102D01*
X0179981Y0058933D02*
X0178747Y0060168D01*
X0182450Y0060168D01*
X0217891Y0170915D02*
X0219125Y0170915D01*
X0219742Y0171533D01*
X0220957Y0171533D02*
X0221574Y0170915D01*
X0222808Y0170915D01*
X0223425Y0171533D01*
X0223425Y0172150D01*
X0222808Y0172767D01*
X0222191Y0172767D01*
X0222808Y0172767D02*
X0223425Y0173384D01*
X0223425Y0174001D01*
X0222808Y0174619D01*
X0221574Y0174619D01*
X0220957Y0174001D01*
X0219742Y0174001D02*
X0219125Y0174619D01*
X0217891Y0174619D01*
X0217273Y0174001D01*
X0217273Y0171533D01*
X0217891Y0170915D01*
X0042012Y0053671D02*
X0041395Y0054288D01*
X0040161Y0054288D01*
X0039543Y0053671D01*
X0038329Y0053671D02*
X0037712Y0054288D01*
X0036477Y0054288D01*
X0035860Y0053671D01*
X0035860Y0051202D01*
X0036477Y0050585D01*
X0037712Y0050585D01*
X0038329Y0051202D01*
X0039543Y0050585D02*
X0042012Y0053053D01*
X0042012Y0053671D01*
X0042012Y0050585D02*
X0039543Y0050585D01*
D15*
X0016773Y0028273D02*
X0016773Y0027273D01*
X0016773Y0006273D02*
X0016773Y0005273D01*
X0016773Y0197399D02*
X0016773Y0198399D01*
X0016773Y0219399D02*
X0016773Y0220399D01*
X0244332Y0220399D02*
X0244332Y0219399D01*
X0244332Y0198399D02*
X0244332Y0197399D01*
X0244332Y0028273D02*
X0244332Y0027273D01*
X0244332Y0006273D02*
X0244332Y0005273D01*
D16*
X0232832Y0016773D02*
X0232835Y0017055D01*
X0232846Y0017337D01*
X0232863Y0017619D01*
X0232887Y0017900D01*
X0232918Y0018181D01*
X0232956Y0018460D01*
X0233001Y0018739D01*
X0233053Y0019017D01*
X0233111Y0019293D01*
X0233177Y0019567D01*
X0233249Y0019840D01*
X0233327Y0020111D01*
X0233412Y0020380D01*
X0233504Y0020647D01*
X0233603Y0020912D01*
X0233707Y0021174D01*
X0233819Y0021433D01*
X0233936Y0021690D01*
X0234060Y0021944D01*
X0234190Y0022194D01*
X0234326Y0022441D01*
X0234468Y0022685D01*
X0234616Y0022925D01*
X0234770Y0023162D01*
X0234930Y0023395D01*
X0235095Y0023624D01*
X0235266Y0023848D01*
X0235442Y0024069D01*
X0235624Y0024284D01*
X0235811Y0024496D01*
X0236003Y0024703D01*
X0236200Y0024905D01*
X0236402Y0025102D01*
X0236609Y0025294D01*
X0236821Y0025481D01*
X0237036Y0025663D01*
X0237257Y0025839D01*
X0237481Y0026010D01*
X0237710Y0026175D01*
X0237943Y0026335D01*
X0238180Y0026489D01*
X0238420Y0026637D01*
X0238664Y0026779D01*
X0238911Y0026915D01*
X0239161Y0027045D01*
X0239415Y0027169D01*
X0239672Y0027286D01*
X0239931Y0027398D01*
X0240193Y0027502D01*
X0240458Y0027601D01*
X0240725Y0027693D01*
X0240994Y0027778D01*
X0241265Y0027856D01*
X0241538Y0027928D01*
X0241812Y0027994D01*
X0242088Y0028052D01*
X0242366Y0028104D01*
X0242645Y0028149D01*
X0242924Y0028187D01*
X0243205Y0028218D01*
X0243486Y0028242D01*
X0243768Y0028259D01*
X0244050Y0028270D01*
X0244332Y0028273D01*
X0244614Y0028270D01*
X0244896Y0028259D01*
X0245178Y0028242D01*
X0245459Y0028218D01*
X0245740Y0028187D01*
X0246019Y0028149D01*
X0246298Y0028104D01*
X0246576Y0028052D01*
X0246852Y0027994D01*
X0247126Y0027928D01*
X0247399Y0027856D01*
X0247670Y0027778D01*
X0247939Y0027693D01*
X0248206Y0027601D01*
X0248471Y0027502D01*
X0248733Y0027398D01*
X0248992Y0027286D01*
X0249249Y0027169D01*
X0249503Y0027045D01*
X0249753Y0026915D01*
X0250000Y0026779D01*
X0250244Y0026637D01*
X0250484Y0026489D01*
X0250721Y0026335D01*
X0250954Y0026175D01*
X0251183Y0026010D01*
X0251407Y0025839D01*
X0251628Y0025663D01*
X0251843Y0025481D01*
X0252055Y0025294D01*
X0252262Y0025102D01*
X0252464Y0024905D01*
X0252661Y0024703D01*
X0252853Y0024496D01*
X0253040Y0024284D01*
X0253222Y0024069D01*
X0253398Y0023848D01*
X0253569Y0023624D01*
X0253734Y0023395D01*
X0253894Y0023162D01*
X0254048Y0022925D01*
X0254196Y0022685D01*
X0254338Y0022441D01*
X0254474Y0022194D01*
X0254604Y0021944D01*
X0254728Y0021690D01*
X0254845Y0021433D01*
X0254957Y0021174D01*
X0255061Y0020912D01*
X0255160Y0020647D01*
X0255252Y0020380D01*
X0255337Y0020111D01*
X0255415Y0019840D01*
X0255487Y0019567D01*
X0255553Y0019293D01*
X0255611Y0019017D01*
X0255663Y0018739D01*
X0255708Y0018460D01*
X0255746Y0018181D01*
X0255777Y0017900D01*
X0255801Y0017619D01*
X0255818Y0017337D01*
X0255829Y0017055D01*
X0255832Y0016773D01*
X0255829Y0016491D01*
X0255818Y0016209D01*
X0255801Y0015927D01*
X0255777Y0015646D01*
X0255746Y0015365D01*
X0255708Y0015086D01*
X0255663Y0014807D01*
X0255611Y0014529D01*
X0255553Y0014253D01*
X0255487Y0013979D01*
X0255415Y0013706D01*
X0255337Y0013435D01*
X0255252Y0013166D01*
X0255160Y0012899D01*
X0255061Y0012634D01*
X0254957Y0012372D01*
X0254845Y0012113D01*
X0254728Y0011856D01*
X0254604Y0011602D01*
X0254474Y0011352D01*
X0254338Y0011105D01*
X0254196Y0010861D01*
X0254048Y0010621D01*
X0253894Y0010384D01*
X0253734Y0010151D01*
X0253569Y0009922D01*
X0253398Y0009698D01*
X0253222Y0009477D01*
X0253040Y0009262D01*
X0252853Y0009050D01*
X0252661Y0008843D01*
X0252464Y0008641D01*
X0252262Y0008444D01*
X0252055Y0008252D01*
X0251843Y0008065D01*
X0251628Y0007883D01*
X0251407Y0007707D01*
X0251183Y0007536D01*
X0250954Y0007371D01*
X0250721Y0007211D01*
X0250484Y0007057D01*
X0250244Y0006909D01*
X0250000Y0006767D01*
X0249753Y0006631D01*
X0249503Y0006501D01*
X0249249Y0006377D01*
X0248992Y0006260D01*
X0248733Y0006148D01*
X0248471Y0006044D01*
X0248206Y0005945D01*
X0247939Y0005853D01*
X0247670Y0005768D01*
X0247399Y0005690D01*
X0247126Y0005618D01*
X0246852Y0005552D01*
X0246576Y0005494D01*
X0246298Y0005442D01*
X0246019Y0005397D01*
X0245740Y0005359D01*
X0245459Y0005328D01*
X0245178Y0005304D01*
X0244896Y0005287D01*
X0244614Y0005276D01*
X0244332Y0005273D01*
X0244050Y0005276D01*
X0243768Y0005287D01*
X0243486Y0005304D01*
X0243205Y0005328D01*
X0242924Y0005359D01*
X0242645Y0005397D01*
X0242366Y0005442D01*
X0242088Y0005494D01*
X0241812Y0005552D01*
X0241538Y0005618D01*
X0241265Y0005690D01*
X0240994Y0005768D01*
X0240725Y0005853D01*
X0240458Y0005945D01*
X0240193Y0006044D01*
X0239931Y0006148D01*
X0239672Y0006260D01*
X0239415Y0006377D01*
X0239161Y0006501D01*
X0238911Y0006631D01*
X0238664Y0006767D01*
X0238420Y0006909D01*
X0238180Y0007057D01*
X0237943Y0007211D01*
X0237710Y0007371D01*
X0237481Y0007536D01*
X0237257Y0007707D01*
X0237036Y0007883D01*
X0236821Y0008065D01*
X0236609Y0008252D01*
X0236402Y0008444D01*
X0236200Y0008641D01*
X0236003Y0008843D01*
X0235811Y0009050D01*
X0235624Y0009262D01*
X0235442Y0009477D01*
X0235266Y0009698D01*
X0235095Y0009922D01*
X0234930Y0010151D01*
X0234770Y0010384D01*
X0234616Y0010621D01*
X0234468Y0010861D01*
X0234326Y0011105D01*
X0234190Y0011352D01*
X0234060Y0011602D01*
X0233936Y0011856D01*
X0233819Y0012113D01*
X0233707Y0012372D01*
X0233603Y0012634D01*
X0233504Y0012899D01*
X0233412Y0013166D01*
X0233327Y0013435D01*
X0233249Y0013706D01*
X0233177Y0013979D01*
X0233111Y0014253D01*
X0233053Y0014529D01*
X0233001Y0014807D01*
X0232956Y0015086D01*
X0232918Y0015365D01*
X0232887Y0015646D01*
X0232863Y0015927D01*
X0232846Y0016209D01*
X0232835Y0016491D01*
X0232832Y0016773D01*
X0225100Y0015100D02*
X0222600Y0012600D01*
X0217600Y0012600D01*
X0215100Y0015100D01*
X0212600Y0012600D01*
X0207600Y0012600D01*
X0205100Y0015100D01*
X0205100Y0020100D01*
X0207600Y0022600D01*
X0212600Y0022600D01*
X0215100Y0020100D01*
X0217600Y0022600D01*
X0222600Y0022600D01*
X0225100Y0020100D01*
X0225100Y0015100D01*
X0215100Y0015100D02*
X0215100Y0020100D01*
X0205100Y0020100D02*
X0202600Y0022600D01*
X0197600Y0022600D01*
X0195100Y0020100D01*
X0192600Y0022600D01*
X0187600Y0022600D01*
X0185100Y0020100D01*
X0185100Y0015100D01*
X0187600Y0012600D01*
X0192600Y0012600D01*
X0195100Y0015100D01*
X0195100Y0020100D01*
X0195100Y0015100D02*
X0197600Y0012600D01*
X0202600Y0012600D01*
X0205100Y0015100D01*
X0005273Y0016773D02*
X0005276Y0017055D01*
X0005287Y0017337D01*
X0005304Y0017619D01*
X0005328Y0017900D01*
X0005359Y0018181D01*
X0005397Y0018460D01*
X0005442Y0018739D01*
X0005494Y0019017D01*
X0005552Y0019293D01*
X0005618Y0019567D01*
X0005690Y0019840D01*
X0005768Y0020111D01*
X0005853Y0020380D01*
X0005945Y0020647D01*
X0006044Y0020912D01*
X0006148Y0021174D01*
X0006260Y0021433D01*
X0006377Y0021690D01*
X0006501Y0021944D01*
X0006631Y0022194D01*
X0006767Y0022441D01*
X0006909Y0022685D01*
X0007057Y0022925D01*
X0007211Y0023162D01*
X0007371Y0023395D01*
X0007536Y0023624D01*
X0007707Y0023848D01*
X0007883Y0024069D01*
X0008065Y0024284D01*
X0008252Y0024496D01*
X0008444Y0024703D01*
X0008641Y0024905D01*
X0008843Y0025102D01*
X0009050Y0025294D01*
X0009262Y0025481D01*
X0009477Y0025663D01*
X0009698Y0025839D01*
X0009922Y0026010D01*
X0010151Y0026175D01*
X0010384Y0026335D01*
X0010621Y0026489D01*
X0010861Y0026637D01*
X0011105Y0026779D01*
X0011352Y0026915D01*
X0011602Y0027045D01*
X0011856Y0027169D01*
X0012113Y0027286D01*
X0012372Y0027398D01*
X0012634Y0027502D01*
X0012899Y0027601D01*
X0013166Y0027693D01*
X0013435Y0027778D01*
X0013706Y0027856D01*
X0013979Y0027928D01*
X0014253Y0027994D01*
X0014529Y0028052D01*
X0014807Y0028104D01*
X0015086Y0028149D01*
X0015365Y0028187D01*
X0015646Y0028218D01*
X0015927Y0028242D01*
X0016209Y0028259D01*
X0016491Y0028270D01*
X0016773Y0028273D01*
X0017055Y0028270D01*
X0017337Y0028259D01*
X0017619Y0028242D01*
X0017900Y0028218D01*
X0018181Y0028187D01*
X0018460Y0028149D01*
X0018739Y0028104D01*
X0019017Y0028052D01*
X0019293Y0027994D01*
X0019567Y0027928D01*
X0019840Y0027856D01*
X0020111Y0027778D01*
X0020380Y0027693D01*
X0020647Y0027601D01*
X0020912Y0027502D01*
X0021174Y0027398D01*
X0021433Y0027286D01*
X0021690Y0027169D01*
X0021944Y0027045D01*
X0022194Y0026915D01*
X0022441Y0026779D01*
X0022685Y0026637D01*
X0022925Y0026489D01*
X0023162Y0026335D01*
X0023395Y0026175D01*
X0023624Y0026010D01*
X0023848Y0025839D01*
X0024069Y0025663D01*
X0024284Y0025481D01*
X0024496Y0025294D01*
X0024703Y0025102D01*
X0024905Y0024905D01*
X0025102Y0024703D01*
X0025294Y0024496D01*
X0025481Y0024284D01*
X0025663Y0024069D01*
X0025839Y0023848D01*
X0026010Y0023624D01*
X0026175Y0023395D01*
X0026335Y0023162D01*
X0026489Y0022925D01*
X0026637Y0022685D01*
X0026779Y0022441D01*
X0026915Y0022194D01*
X0027045Y0021944D01*
X0027169Y0021690D01*
X0027286Y0021433D01*
X0027398Y0021174D01*
X0027502Y0020912D01*
X0027601Y0020647D01*
X0027693Y0020380D01*
X0027778Y0020111D01*
X0027856Y0019840D01*
X0027928Y0019567D01*
X0027994Y0019293D01*
X0028052Y0019017D01*
X0028104Y0018739D01*
X0028149Y0018460D01*
X0028187Y0018181D01*
X0028218Y0017900D01*
X0028242Y0017619D01*
X0028259Y0017337D01*
X0028270Y0017055D01*
X0028273Y0016773D01*
X0028270Y0016491D01*
X0028259Y0016209D01*
X0028242Y0015927D01*
X0028218Y0015646D01*
X0028187Y0015365D01*
X0028149Y0015086D01*
X0028104Y0014807D01*
X0028052Y0014529D01*
X0027994Y0014253D01*
X0027928Y0013979D01*
X0027856Y0013706D01*
X0027778Y0013435D01*
X0027693Y0013166D01*
X0027601Y0012899D01*
X0027502Y0012634D01*
X0027398Y0012372D01*
X0027286Y0012113D01*
X0027169Y0011856D01*
X0027045Y0011602D01*
X0026915Y0011352D01*
X0026779Y0011105D01*
X0026637Y0010861D01*
X0026489Y0010621D01*
X0026335Y0010384D01*
X0026175Y0010151D01*
X0026010Y0009922D01*
X0025839Y0009698D01*
X0025663Y0009477D01*
X0025481Y0009262D01*
X0025294Y0009050D01*
X0025102Y0008843D01*
X0024905Y0008641D01*
X0024703Y0008444D01*
X0024496Y0008252D01*
X0024284Y0008065D01*
X0024069Y0007883D01*
X0023848Y0007707D01*
X0023624Y0007536D01*
X0023395Y0007371D01*
X0023162Y0007211D01*
X0022925Y0007057D01*
X0022685Y0006909D01*
X0022441Y0006767D01*
X0022194Y0006631D01*
X0021944Y0006501D01*
X0021690Y0006377D01*
X0021433Y0006260D01*
X0021174Y0006148D01*
X0020912Y0006044D01*
X0020647Y0005945D01*
X0020380Y0005853D01*
X0020111Y0005768D01*
X0019840Y0005690D01*
X0019567Y0005618D01*
X0019293Y0005552D01*
X0019017Y0005494D01*
X0018739Y0005442D01*
X0018460Y0005397D01*
X0018181Y0005359D01*
X0017900Y0005328D01*
X0017619Y0005304D01*
X0017337Y0005287D01*
X0017055Y0005276D01*
X0016773Y0005273D01*
X0016491Y0005276D01*
X0016209Y0005287D01*
X0015927Y0005304D01*
X0015646Y0005328D01*
X0015365Y0005359D01*
X0015086Y0005397D01*
X0014807Y0005442D01*
X0014529Y0005494D01*
X0014253Y0005552D01*
X0013979Y0005618D01*
X0013706Y0005690D01*
X0013435Y0005768D01*
X0013166Y0005853D01*
X0012899Y0005945D01*
X0012634Y0006044D01*
X0012372Y0006148D01*
X0012113Y0006260D01*
X0011856Y0006377D01*
X0011602Y0006501D01*
X0011352Y0006631D01*
X0011105Y0006767D01*
X0010861Y0006909D01*
X0010621Y0007057D01*
X0010384Y0007211D01*
X0010151Y0007371D01*
X0009922Y0007536D01*
X0009698Y0007707D01*
X0009477Y0007883D01*
X0009262Y0008065D01*
X0009050Y0008252D01*
X0008843Y0008444D01*
X0008641Y0008641D01*
X0008444Y0008843D01*
X0008252Y0009050D01*
X0008065Y0009262D01*
X0007883Y0009477D01*
X0007707Y0009698D01*
X0007536Y0009922D01*
X0007371Y0010151D01*
X0007211Y0010384D01*
X0007057Y0010621D01*
X0006909Y0010861D01*
X0006767Y0011105D01*
X0006631Y0011352D01*
X0006501Y0011602D01*
X0006377Y0011856D01*
X0006260Y0012113D01*
X0006148Y0012372D01*
X0006044Y0012634D01*
X0005945Y0012899D01*
X0005853Y0013166D01*
X0005768Y0013435D01*
X0005690Y0013706D01*
X0005618Y0013979D01*
X0005552Y0014253D01*
X0005494Y0014529D01*
X0005442Y0014807D01*
X0005397Y0015086D01*
X0005359Y0015365D01*
X0005328Y0015646D01*
X0005304Y0015927D01*
X0005287Y0016209D01*
X0005276Y0016491D01*
X0005273Y0016773D01*
X0005273Y0208899D02*
X0005276Y0209181D01*
X0005287Y0209463D01*
X0005304Y0209745D01*
X0005328Y0210026D01*
X0005359Y0210307D01*
X0005397Y0210586D01*
X0005442Y0210865D01*
X0005494Y0211143D01*
X0005552Y0211419D01*
X0005618Y0211693D01*
X0005690Y0211966D01*
X0005768Y0212237D01*
X0005853Y0212506D01*
X0005945Y0212773D01*
X0006044Y0213038D01*
X0006148Y0213300D01*
X0006260Y0213559D01*
X0006377Y0213816D01*
X0006501Y0214070D01*
X0006631Y0214320D01*
X0006767Y0214567D01*
X0006909Y0214811D01*
X0007057Y0215051D01*
X0007211Y0215288D01*
X0007371Y0215521D01*
X0007536Y0215750D01*
X0007707Y0215974D01*
X0007883Y0216195D01*
X0008065Y0216410D01*
X0008252Y0216622D01*
X0008444Y0216829D01*
X0008641Y0217031D01*
X0008843Y0217228D01*
X0009050Y0217420D01*
X0009262Y0217607D01*
X0009477Y0217789D01*
X0009698Y0217965D01*
X0009922Y0218136D01*
X0010151Y0218301D01*
X0010384Y0218461D01*
X0010621Y0218615D01*
X0010861Y0218763D01*
X0011105Y0218905D01*
X0011352Y0219041D01*
X0011602Y0219171D01*
X0011856Y0219295D01*
X0012113Y0219412D01*
X0012372Y0219524D01*
X0012634Y0219628D01*
X0012899Y0219727D01*
X0013166Y0219819D01*
X0013435Y0219904D01*
X0013706Y0219982D01*
X0013979Y0220054D01*
X0014253Y0220120D01*
X0014529Y0220178D01*
X0014807Y0220230D01*
X0015086Y0220275D01*
X0015365Y0220313D01*
X0015646Y0220344D01*
X0015927Y0220368D01*
X0016209Y0220385D01*
X0016491Y0220396D01*
X0016773Y0220399D01*
X0017055Y0220396D01*
X0017337Y0220385D01*
X0017619Y0220368D01*
X0017900Y0220344D01*
X0018181Y0220313D01*
X0018460Y0220275D01*
X0018739Y0220230D01*
X0019017Y0220178D01*
X0019293Y0220120D01*
X0019567Y0220054D01*
X0019840Y0219982D01*
X0020111Y0219904D01*
X0020380Y0219819D01*
X0020647Y0219727D01*
X0020912Y0219628D01*
X0021174Y0219524D01*
X0021433Y0219412D01*
X0021690Y0219295D01*
X0021944Y0219171D01*
X0022194Y0219041D01*
X0022441Y0218905D01*
X0022685Y0218763D01*
X0022925Y0218615D01*
X0023162Y0218461D01*
X0023395Y0218301D01*
X0023624Y0218136D01*
X0023848Y0217965D01*
X0024069Y0217789D01*
X0024284Y0217607D01*
X0024496Y0217420D01*
X0024703Y0217228D01*
X0024905Y0217031D01*
X0025102Y0216829D01*
X0025294Y0216622D01*
X0025481Y0216410D01*
X0025663Y0216195D01*
X0025839Y0215974D01*
X0026010Y0215750D01*
X0026175Y0215521D01*
X0026335Y0215288D01*
X0026489Y0215051D01*
X0026637Y0214811D01*
X0026779Y0214567D01*
X0026915Y0214320D01*
X0027045Y0214070D01*
X0027169Y0213816D01*
X0027286Y0213559D01*
X0027398Y0213300D01*
X0027502Y0213038D01*
X0027601Y0212773D01*
X0027693Y0212506D01*
X0027778Y0212237D01*
X0027856Y0211966D01*
X0027928Y0211693D01*
X0027994Y0211419D01*
X0028052Y0211143D01*
X0028104Y0210865D01*
X0028149Y0210586D01*
X0028187Y0210307D01*
X0028218Y0210026D01*
X0028242Y0209745D01*
X0028259Y0209463D01*
X0028270Y0209181D01*
X0028273Y0208899D01*
X0028270Y0208617D01*
X0028259Y0208335D01*
X0028242Y0208053D01*
X0028218Y0207772D01*
X0028187Y0207491D01*
X0028149Y0207212D01*
X0028104Y0206933D01*
X0028052Y0206655D01*
X0027994Y0206379D01*
X0027928Y0206105D01*
X0027856Y0205832D01*
X0027778Y0205561D01*
X0027693Y0205292D01*
X0027601Y0205025D01*
X0027502Y0204760D01*
X0027398Y0204498D01*
X0027286Y0204239D01*
X0027169Y0203982D01*
X0027045Y0203728D01*
X0026915Y0203478D01*
X0026779Y0203231D01*
X0026637Y0202987D01*
X0026489Y0202747D01*
X0026335Y0202510D01*
X0026175Y0202277D01*
X0026010Y0202048D01*
X0025839Y0201824D01*
X0025663Y0201603D01*
X0025481Y0201388D01*
X0025294Y0201176D01*
X0025102Y0200969D01*
X0024905Y0200767D01*
X0024703Y0200570D01*
X0024496Y0200378D01*
X0024284Y0200191D01*
X0024069Y0200009D01*
X0023848Y0199833D01*
X0023624Y0199662D01*
X0023395Y0199497D01*
X0023162Y0199337D01*
X0022925Y0199183D01*
X0022685Y0199035D01*
X0022441Y0198893D01*
X0022194Y0198757D01*
X0021944Y0198627D01*
X0021690Y0198503D01*
X0021433Y0198386D01*
X0021174Y0198274D01*
X0020912Y0198170D01*
X0020647Y0198071D01*
X0020380Y0197979D01*
X0020111Y0197894D01*
X0019840Y0197816D01*
X0019567Y0197744D01*
X0019293Y0197678D01*
X0019017Y0197620D01*
X0018739Y0197568D01*
X0018460Y0197523D01*
X0018181Y0197485D01*
X0017900Y0197454D01*
X0017619Y0197430D01*
X0017337Y0197413D01*
X0017055Y0197402D01*
X0016773Y0197399D01*
X0016491Y0197402D01*
X0016209Y0197413D01*
X0015927Y0197430D01*
X0015646Y0197454D01*
X0015365Y0197485D01*
X0015086Y0197523D01*
X0014807Y0197568D01*
X0014529Y0197620D01*
X0014253Y0197678D01*
X0013979Y0197744D01*
X0013706Y0197816D01*
X0013435Y0197894D01*
X0013166Y0197979D01*
X0012899Y0198071D01*
X0012634Y0198170D01*
X0012372Y0198274D01*
X0012113Y0198386D01*
X0011856Y0198503D01*
X0011602Y0198627D01*
X0011352Y0198757D01*
X0011105Y0198893D01*
X0010861Y0199035D01*
X0010621Y0199183D01*
X0010384Y0199337D01*
X0010151Y0199497D01*
X0009922Y0199662D01*
X0009698Y0199833D01*
X0009477Y0200009D01*
X0009262Y0200191D01*
X0009050Y0200378D01*
X0008843Y0200570D01*
X0008641Y0200767D01*
X0008444Y0200969D01*
X0008252Y0201176D01*
X0008065Y0201388D01*
X0007883Y0201603D01*
X0007707Y0201824D01*
X0007536Y0202048D01*
X0007371Y0202277D01*
X0007211Y0202510D01*
X0007057Y0202747D01*
X0006909Y0202987D01*
X0006767Y0203231D01*
X0006631Y0203478D01*
X0006501Y0203728D01*
X0006377Y0203982D01*
X0006260Y0204239D01*
X0006148Y0204498D01*
X0006044Y0204760D01*
X0005945Y0205025D01*
X0005853Y0205292D01*
X0005768Y0205561D01*
X0005690Y0205832D01*
X0005618Y0206105D01*
X0005552Y0206379D01*
X0005494Y0206655D01*
X0005442Y0206933D01*
X0005397Y0207212D01*
X0005359Y0207491D01*
X0005328Y0207772D01*
X0005304Y0208053D01*
X0005287Y0208335D01*
X0005276Y0208617D01*
X0005273Y0208899D01*
X0232832Y0208899D02*
X0232835Y0209181D01*
X0232846Y0209463D01*
X0232863Y0209745D01*
X0232887Y0210026D01*
X0232918Y0210307D01*
X0232956Y0210586D01*
X0233001Y0210865D01*
X0233053Y0211143D01*
X0233111Y0211419D01*
X0233177Y0211693D01*
X0233249Y0211966D01*
X0233327Y0212237D01*
X0233412Y0212506D01*
X0233504Y0212773D01*
X0233603Y0213038D01*
X0233707Y0213300D01*
X0233819Y0213559D01*
X0233936Y0213816D01*
X0234060Y0214070D01*
X0234190Y0214320D01*
X0234326Y0214567D01*
X0234468Y0214811D01*
X0234616Y0215051D01*
X0234770Y0215288D01*
X0234930Y0215521D01*
X0235095Y0215750D01*
X0235266Y0215974D01*
X0235442Y0216195D01*
X0235624Y0216410D01*
X0235811Y0216622D01*
X0236003Y0216829D01*
X0236200Y0217031D01*
X0236402Y0217228D01*
X0236609Y0217420D01*
X0236821Y0217607D01*
X0237036Y0217789D01*
X0237257Y0217965D01*
X0237481Y0218136D01*
X0237710Y0218301D01*
X0237943Y0218461D01*
X0238180Y0218615D01*
X0238420Y0218763D01*
X0238664Y0218905D01*
X0238911Y0219041D01*
X0239161Y0219171D01*
X0239415Y0219295D01*
X0239672Y0219412D01*
X0239931Y0219524D01*
X0240193Y0219628D01*
X0240458Y0219727D01*
X0240725Y0219819D01*
X0240994Y0219904D01*
X0241265Y0219982D01*
X0241538Y0220054D01*
X0241812Y0220120D01*
X0242088Y0220178D01*
X0242366Y0220230D01*
X0242645Y0220275D01*
X0242924Y0220313D01*
X0243205Y0220344D01*
X0243486Y0220368D01*
X0243768Y0220385D01*
X0244050Y0220396D01*
X0244332Y0220399D01*
X0244614Y0220396D01*
X0244896Y0220385D01*
X0245178Y0220368D01*
X0245459Y0220344D01*
X0245740Y0220313D01*
X0246019Y0220275D01*
X0246298Y0220230D01*
X0246576Y0220178D01*
X0246852Y0220120D01*
X0247126Y0220054D01*
X0247399Y0219982D01*
X0247670Y0219904D01*
X0247939Y0219819D01*
X0248206Y0219727D01*
X0248471Y0219628D01*
X0248733Y0219524D01*
X0248992Y0219412D01*
X0249249Y0219295D01*
X0249503Y0219171D01*
X0249753Y0219041D01*
X0250000Y0218905D01*
X0250244Y0218763D01*
X0250484Y0218615D01*
X0250721Y0218461D01*
X0250954Y0218301D01*
X0251183Y0218136D01*
X0251407Y0217965D01*
X0251628Y0217789D01*
X0251843Y0217607D01*
X0252055Y0217420D01*
X0252262Y0217228D01*
X0252464Y0217031D01*
X0252661Y0216829D01*
X0252853Y0216622D01*
X0253040Y0216410D01*
X0253222Y0216195D01*
X0253398Y0215974D01*
X0253569Y0215750D01*
X0253734Y0215521D01*
X0253894Y0215288D01*
X0254048Y0215051D01*
X0254196Y0214811D01*
X0254338Y0214567D01*
X0254474Y0214320D01*
X0254604Y0214070D01*
X0254728Y0213816D01*
X0254845Y0213559D01*
X0254957Y0213300D01*
X0255061Y0213038D01*
X0255160Y0212773D01*
X0255252Y0212506D01*
X0255337Y0212237D01*
X0255415Y0211966D01*
X0255487Y0211693D01*
X0255553Y0211419D01*
X0255611Y0211143D01*
X0255663Y0210865D01*
X0255708Y0210586D01*
X0255746Y0210307D01*
X0255777Y0210026D01*
X0255801Y0209745D01*
X0255818Y0209463D01*
X0255829Y0209181D01*
X0255832Y0208899D01*
X0255829Y0208617D01*
X0255818Y0208335D01*
X0255801Y0208053D01*
X0255777Y0207772D01*
X0255746Y0207491D01*
X0255708Y0207212D01*
X0255663Y0206933D01*
X0255611Y0206655D01*
X0255553Y0206379D01*
X0255487Y0206105D01*
X0255415Y0205832D01*
X0255337Y0205561D01*
X0255252Y0205292D01*
X0255160Y0205025D01*
X0255061Y0204760D01*
X0254957Y0204498D01*
X0254845Y0204239D01*
X0254728Y0203982D01*
X0254604Y0203728D01*
X0254474Y0203478D01*
X0254338Y0203231D01*
X0254196Y0202987D01*
X0254048Y0202747D01*
X0253894Y0202510D01*
X0253734Y0202277D01*
X0253569Y0202048D01*
X0253398Y0201824D01*
X0253222Y0201603D01*
X0253040Y0201388D01*
X0252853Y0201176D01*
X0252661Y0200969D01*
X0252464Y0200767D01*
X0252262Y0200570D01*
X0252055Y0200378D01*
X0251843Y0200191D01*
X0251628Y0200009D01*
X0251407Y0199833D01*
X0251183Y0199662D01*
X0250954Y0199497D01*
X0250721Y0199337D01*
X0250484Y0199183D01*
X0250244Y0199035D01*
X0250000Y0198893D01*
X0249753Y0198757D01*
X0249503Y0198627D01*
X0249249Y0198503D01*
X0248992Y0198386D01*
X0248733Y0198274D01*
X0248471Y0198170D01*
X0248206Y0198071D01*
X0247939Y0197979D01*
X0247670Y0197894D01*
X0247399Y0197816D01*
X0247126Y0197744D01*
X0246852Y0197678D01*
X0246576Y0197620D01*
X0246298Y0197568D01*
X0246019Y0197523D01*
X0245740Y0197485D01*
X0245459Y0197454D01*
X0245178Y0197430D01*
X0244896Y0197413D01*
X0244614Y0197402D01*
X0244332Y0197399D01*
X0244050Y0197402D01*
X0243768Y0197413D01*
X0243486Y0197430D01*
X0243205Y0197454D01*
X0242924Y0197485D01*
X0242645Y0197523D01*
X0242366Y0197568D01*
X0242088Y0197620D01*
X0241812Y0197678D01*
X0241538Y0197744D01*
X0241265Y0197816D01*
X0240994Y0197894D01*
X0240725Y0197979D01*
X0240458Y0198071D01*
X0240193Y0198170D01*
X0239931Y0198274D01*
X0239672Y0198386D01*
X0239415Y0198503D01*
X0239161Y0198627D01*
X0238911Y0198757D01*
X0238664Y0198893D01*
X0238420Y0199035D01*
X0238180Y0199183D01*
X0237943Y0199337D01*
X0237710Y0199497D01*
X0237481Y0199662D01*
X0237257Y0199833D01*
X0237036Y0200009D01*
X0236821Y0200191D01*
X0236609Y0200378D01*
X0236402Y0200570D01*
X0236200Y0200767D01*
X0236003Y0200969D01*
X0235811Y0201176D01*
X0235624Y0201388D01*
X0235442Y0201603D01*
X0235266Y0201824D01*
X0235095Y0202048D01*
X0234930Y0202277D01*
X0234770Y0202510D01*
X0234616Y0202747D01*
X0234468Y0202987D01*
X0234326Y0203231D01*
X0234190Y0203478D01*
X0234060Y0203728D01*
X0233936Y0203982D01*
X0233819Y0204239D01*
X0233707Y0204498D01*
X0233603Y0204760D01*
X0233504Y0205025D01*
X0233412Y0205292D01*
X0233327Y0205561D01*
X0233249Y0205832D01*
X0233177Y0206105D01*
X0233111Y0206379D01*
X0233053Y0206655D01*
X0233001Y0206933D01*
X0232956Y0207212D01*
X0232918Y0207491D01*
X0232887Y0207772D01*
X0232863Y0208053D01*
X0232846Y0208335D01*
X0232835Y0208617D01*
X0232832Y0208899D01*
D17*
X0234769Y0175328D03*
X0241856Y0168439D03*
X0248903Y0167061D03*
X0234730Y0158832D03*
X0228903Y0167061D03*
D18*
X0228943Y0167061D03*
X0234533Y0174856D03*
X0248864Y0167061D03*
D19*
X0248824Y0167061D03*
X0243903Y0163517D03*
X0228982Y0167061D03*
D20*
X0229021Y0167061D03*
X0248785Y0167061D03*
D21*
X0248746Y0167061D03*
X0247565Y0170131D03*
X0247446Y0170328D03*
X0247761Y0164344D03*
X0247131Y0163281D03*
X0247092Y0163242D03*
X0247053Y0163202D03*
X0230478Y0163596D03*
X0230399Y0163714D03*
X0230360Y0163793D03*
X0229061Y0167061D03*
D22*
X0229100Y0167061D03*
X0230084Y0164423D03*
X0246462Y0162612D03*
X0246502Y0162651D03*
X0248706Y0167061D03*
X0247801Y0169580D03*
X0246777Y0171155D03*
X0246738Y0171194D03*
D23*
X0246187Y0171628D03*
X0246147Y0171667D03*
X0248667Y0167061D03*
X0245950Y0162257D03*
X0242407Y0166982D03*
X0231856Y0162257D03*
X0229139Y0167061D03*
X0231698Y0171706D03*
D24*
X0232131Y0171982D03*
X0232171Y0172021D03*
X0229179Y0167061D03*
X0232328Y0161982D03*
X0245557Y0162061D03*
X0245596Y0162061D03*
X0248628Y0167061D03*
X0245754Y0171903D03*
D25*
X0245399Y0172061D03*
X0248588Y0167061D03*
X0245202Y0161903D03*
X0232761Y0161785D03*
X0229218Y0167061D03*
X0232643Y0172257D03*
D26*
X0232958Y0172376D03*
X0229257Y0167061D03*
X0233076Y0161667D03*
X0244927Y0161824D03*
X0248549Y0167061D03*
X0245124Y0172179D03*
X0245084Y0172179D03*
D27*
X0248509Y0167061D03*
X0244612Y0161746D03*
X0233549Y0161509D03*
X0233509Y0161509D03*
X0229297Y0167061D03*
X0233391Y0172533D03*
X0233431Y0172533D03*
D28*
X0229336Y0167061D03*
X0233864Y0161431D03*
X0244376Y0161706D03*
X0248470Y0167061D03*
X0244533Y0172336D03*
D29*
X0248431Y0167061D03*
X0244179Y0161706D03*
X0234179Y0161391D03*
X0234139Y0161391D03*
X0229376Y0167061D03*
X0234061Y0172691D03*
X0234100Y0172691D03*
D30*
X0234415Y0172769D03*
X0229415Y0167061D03*
X0243982Y0161706D03*
X0248391Y0167061D03*
D31*
X0248352Y0167061D03*
X0243943Y0172336D03*
X0229454Y0167061D03*
D32*
X0229494Y0167061D03*
X0243824Y0172336D03*
X0248313Y0167061D03*
D33*
X0248273Y0167061D03*
X0229533Y0167061D03*
D34*
X0229572Y0167061D03*
X0248234Y0167061D03*
D35*
X0248194Y0167061D03*
X0229612Y0167061D03*
D36*
X0229651Y0167061D03*
X0248155Y0167061D03*
D37*
X0248116Y0167061D03*
X0229691Y0167061D03*
D38*
X0229730Y0167061D03*
X0248076Y0167061D03*
D39*
X0248037Y0167061D03*
X0229769Y0167061D03*
D40*
X0229809Y0167061D03*
X0247998Y0167061D03*
D41*
X0247958Y0167061D03*
X0229848Y0167061D03*
D42*
X0229887Y0167061D03*
X0247919Y0167061D03*
D43*
X0247880Y0167061D03*
X0229927Y0167061D03*
D44*
X0229966Y0167061D03*
X0247840Y0167061D03*
D45*
X0247761Y0169698D03*
X0247131Y0170761D03*
X0247092Y0170801D03*
X0247053Y0170840D03*
X0247801Y0164462D03*
X0246777Y0162887D03*
X0246738Y0162848D03*
X0230872Y0163124D03*
X0230163Y0164187D03*
X0230202Y0170013D03*
X0230596Y0170643D03*
X0230635Y0170683D03*
X0230675Y0170761D03*
X0230714Y0170801D03*
X0230754Y0170840D03*
D46*
X0247171Y0163340D03*
X0247210Y0163380D03*
X0247722Y0164246D03*
D47*
X0246817Y0162946D03*
X0247722Y0169797D03*
X0247210Y0170663D03*
X0247171Y0170702D03*
X0230557Y0170584D03*
X0230517Y0170545D03*
X0230439Y0170427D03*
X0230320Y0170230D03*
X0230242Y0170072D03*
X0230202Y0164088D03*
X0230793Y0163183D03*
X0230832Y0163143D03*
D48*
X0247250Y0163439D03*
X0247289Y0163478D03*
X0247683Y0164147D03*
D49*
X0246895Y0163006D03*
X0246856Y0162966D03*
X0247683Y0169895D03*
X0247368Y0170446D03*
X0247289Y0170565D03*
X0247250Y0170604D03*
X0230478Y0170486D03*
X0230399Y0170368D03*
X0230360Y0170289D03*
X0230281Y0170171D03*
X0230596Y0163439D03*
X0230675Y0163320D03*
X0230714Y0163281D03*
X0230754Y0163242D03*
D50*
X0247328Y0163537D03*
X0247368Y0163576D03*
X0247407Y0163655D03*
X0247486Y0163773D03*
X0247525Y0163852D03*
X0247604Y0163970D03*
X0247643Y0164049D03*
D51*
X0247013Y0163143D03*
X0246974Y0163104D03*
X0246935Y0163065D03*
X0247643Y0169994D03*
X0247604Y0170072D03*
X0247525Y0170191D03*
X0247486Y0170269D03*
X0247407Y0170387D03*
X0247328Y0170506D03*
X0230635Y0163380D03*
X0230557Y0163498D03*
X0230517Y0163537D03*
X0230439Y0163655D03*
X0230320Y0163852D03*
X0230281Y0163931D03*
X0230242Y0164009D03*
D52*
X0247446Y0163714D03*
X0247565Y0163911D03*
D53*
X0246698Y0162828D03*
X0246659Y0162789D03*
X0247013Y0170899D03*
X0246974Y0170939D03*
X0246935Y0170978D03*
X0230163Y0169915D03*
X0230124Y0164285D03*
X0230911Y0163065D03*
X0230950Y0163025D03*
X0230990Y0162986D03*
D54*
X0231029Y0162927D03*
X0230124Y0169817D03*
X0230793Y0170880D03*
X0230832Y0170919D03*
X0230872Y0170958D03*
X0246895Y0171037D03*
D55*
X0246856Y0171057D03*
X0246817Y0171096D03*
X0246620Y0162750D03*
X0246580Y0162710D03*
X0246541Y0162671D03*
X0231147Y0162828D03*
X0231108Y0162868D03*
X0231069Y0162907D03*
X0230911Y0171017D03*
X0230950Y0171057D03*
X0230990Y0171096D03*
D56*
X0231029Y0171135D03*
X0231069Y0171175D03*
X0231108Y0171214D03*
X0231147Y0171254D03*
X0230084Y0169679D03*
X0231187Y0162789D03*
X0231226Y0162750D03*
X0231265Y0162710D03*
X0246423Y0162592D03*
X0246698Y0171214D03*
X0246659Y0171254D03*
D57*
X0246620Y0171293D03*
X0246580Y0171332D03*
X0246541Y0171372D03*
X0242013Y0167120D03*
X0241974Y0167120D03*
X0246344Y0162513D03*
X0231226Y0171332D03*
X0231187Y0171293D03*
D58*
X0231265Y0171352D03*
X0231305Y0171391D03*
X0231344Y0171431D03*
X0231423Y0162572D03*
X0231462Y0162533D03*
X0242053Y0167100D03*
X0242092Y0167100D03*
X0246462Y0171431D03*
X0246502Y0171391D03*
X0246305Y0162494D03*
X0246265Y0162454D03*
D59*
X0246226Y0162435D03*
X0242131Y0167080D03*
X0246423Y0171450D03*
X0231383Y0171450D03*
X0231502Y0162513D03*
X0231541Y0162474D03*
D60*
X0231383Y0162612D03*
X0231344Y0162651D03*
X0231305Y0162691D03*
X0246383Y0162533D03*
D61*
X0246187Y0162415D03*
X0246147Y0162376D03*
X0242210Y0167061D03*
X0242171Y0167061D03*
X0246383Y0171509D03*
X0231423Y0171509D03*
X0231580Y0162454D03*
X0231620Y0162415D03*
D62*
X0231659Y0162395D03*
X0242250Y0167041D03*
X0246344Y0171529D03*
X0246108Y0162356D03*
X0231502Y0171569D03*
X0231462Y0171529D03*
D63*
X0231541Y0171588D03*
X0231580Y0171628D03*
X0242289Y0167021D03*
X0246305Y0171549D03*
X0246265Y0171588D03*
X0246069Y0162336D03*
X0246029Y0162297D03*
X0231738Y0162336D03*
X0231698Y0162376D03*
D64*
X0231777Y0162317D03*
X0231817Y0162277D03*
X0242328Y0167002D03*
X0242368Y0167002D03*
X0246226Y0171608D03*
X0245990Y0162277D03*
X0231659Y0171687D03*
X0231620Y0171647D03*
D65*
X0231738Y0171726D03*
X0231777Y0171765D03*
X0242446Y0166962D03*
X0242486Y0166923D03*
X0242525Y0166923D03*
X0245911Y0162238D03*
X0246108Y0171687D03*
X0231935Y0162198D03*
X0231895Y0162238D03*
D66*
X0231974Y0162179D03*
X0242565Y0166903D03*
X0242958Y0166509D03*
X0245872Y0162218D03*
X0245832Y0162179D03*
X0246069Y0171706D03*
X0246029Y0171746D03*
X0231817Y0171785D03*
D67*
X0231856Y0171805D03*
X0231895Y0171844D03*
X0242604Y0166883D03*
X0245793Y0162159D03*
X0245990Y0171765D03*
X0232053Y0162120D03*
X0232013Y0162159D03*
D68*
X0232092Y0162100D03*
X0242643Y0166864D03*
X0242919Y0166588D03*
X0245754Y0162139D03*
X0245950Y0171785D03*
X0231935Y0171864D03*
D69*
X0231974Y0171883D03*
X0232013Y0171923D03*
X0242683Y0166844D03*
X0242722Y0166805D03*
X0245714Y0162120D03*
X0245911Y0171805D03*
X0232131Y0162080D03*
D70*
X0232171Y0162061D03*
X0232210Y0162021D03*
X0232250Y0162021D03*
X0242761Y0166785D03*
X0242801Y0166746D03*
X0242840Y0166706D03*
X0242880Y0166667D03*
X0245675Y0162100D03*
X0245872Y0171824D03*
X0245832Y0171864D03*
X0232053Y0171943D03*
D71*
X0232092Y0171962D03*
X0232289Y0162002D03*
X0245635Y0162080D03*
X0245793Y0171883D03*
D72*
X0245714Y0171923D03*
X0245517Y0162041D03*
X0232368Y0161962D03*
X0232250Y0172041D03*
X0232210Y0172041D03*
D73*
X0232289Y0172061D03*
X0232328Y0172100D03*
X0232407Y0161943D03*
X0232446Y0161903D03*
X0245478Y0162021D03*
X0245675Y0171943D03*
D74*
X0245635Y0171962D03*
X0245439Y0162002D03*
X0232525Y0161883D03*
X0232486Y0161883D03*
X0232368Y0172120D03*
D75*
X0232407Y0172139D03*
X0232565Y0161864D03*
X0245399Y0161982D03*
X0245557Y0171982D03*
X0245596Y0171982D03*
D76*
X0245517Y0172002D03*
X0245360Y0161962D03*
X0232604Y0161844D03*
X0232446Y0172159D03*
D77*
X0232486Y0172179D03*
X0232525Y0172179D03*
X0232565Y0172218D03*
X0232643Y0161824D03*
X0245281Y0161943D03*
X0245320Y0161943D03*
X0245478Y0172021D03*
D78*
X0245439Y0172041D03*
X0245242Y0161923D03*
X0232722Y0161805D03*
X0232683Y0161805D03*
X0232604Y0172238D03*
D79*
X0232683Y0172277D03*
X0232722Y0172277D03*
X0245360Y0172080D03*
X0245163Y0161883D03*
X0232801Y0161765D03*
D80*
X0232840Y0161746D03*
X0232880Y0161746D03*
X0245084Y0161864D03*
X0245124Y0161864D03*
X0245281Y0172100D03*
X0245320Y0172100D03*
X0232761Y0172297D03*
D81*
X0232801Y0172317D03*
X0245242Y0172120D03*
X0245045Y0161844D03*
X0232919Y0161726D03*
D82*
X0232958Y0161706D03*
X0245006Y0161824D03*
X0245202Y0172139D03*
X0232880Y0172336D03*
X0232840Y0172336D03*
D83*
X0232919Y0172356D03*
X0245163Y0172159D03*
X0244966Y0161805D03*
X0233037Y0161687D03*
X0232998Y0161687D03*
D84*
X0233116Y0161647D03*
X0244887Y0161805D03*
X0245045Y0172198D03*
X0233037Y0172395D03*
X0232998Y0172395D03*
D85*
X0233076Y0172415D03*
X0245006Y0172218D03*
X0244848Y0161785D03*
X0233194Y0161628D03*
X0233155Y0161628D03*
D86*
X0233234Y0161608D03*
X0244769Y0161765D03*
X0244809Y0161765D03*
X0244966Y0172238D03*
X0233116Y0172435D03*
D87*
X0233155Y0172454D03*
X0233194Y0172454D03*
X0244927Y0172218D03*
X0233313Y0161588D03*
X0233273Y0161588D03*
D88*
X0233352Y0161569D03*
X0244730Y0161765D03*
X0244887Y0172238D03*
X0233234Y0172474D03*
D89*
X0233273Y0172494D03*
X0233313Y0172494D03*
X0244848Y0172257D03*
X0244691Y0161746D03*
X0233431Y0161549D03*
X0233391Y0161549D03*
D90*
X0233470Y0161529D03*
X0244651Y0161726D03*
X0244769Y0172277D03*
X0244809Y0172277D03*
X0233352Y0172513D03*
D91*
X0233470Y0172553D03*
X0244730Y0172277D03*
X0244572Y0161726D03*
X0233628Y0161490D03*
X0233588Y0161490D03*
D92*
X0244533Y0161706D03*
X0244691Y0172297D03*
X0233549Y0172572D03*
X0233509Y0172572D03*
D93*
X0233588Y0172592D03*
X0233628Y0172592D03*
X0244651Y0172317D03*
X0244494Y0161726D03*
X0233667Y0161490D03*
D94*
X0233706Y0161470D03*
X0233746Y0161470D03*
X0244454Y0161706D03*
X0244612Y0172297D03*
X0233667Y0172612D03*
D95*
X0233706Y0172631D03*
X0233746Y0172631D03*
X0244572Y0172317D03*
X0244415Y0161687D03*
X0233824Y0161450D03*
X0233785Y0161450D03*
D96*
X0233903Y0161411D03*
X0244336Y0161687D03*
X0244494Y0172317D03*
X0233824Y0172631D03*
X0233785Y0172631D03*
D97*
X0233864Y0172651D03*
X0244454Y0172336D03*
X0233943Y0161431D03*
D98*
X0233982Y0161411D03*
X0234021Y0161411D03*
X0244257Y0161687D03*
X0244297Y0161687D03*
X0244415Y0172356D03*
X0233943Y0172671D03*
X0233903Y0172671D03*
D99*
X0233982Y0172691D03*
X0234021Y0172691D03*
X0244376Y0172336D03*
X0234100Y0161391D03*
X0234061Y0161391D03*
D100*
X0244218Y0161687D03*
X0244336Y0172356D03*
D101*
X0244297Y0172356D03*
X0244257Y0172356D03*
X0234179Y0172710D03*
X0234139Y0172710D03*
X0234218Y0161372D03*
X0244139Y0161687D03*
D102*
X0244100Y0161687D03*
X0244061Y0161687D03*
X0234297Y0161372D03*
X0244218Y0172356D03*
D103*
X0244179Y0172336D03*
X0234297Y0172730D03*
X0234257Y0172730D03*
X0234336Y0161352D03*
D104*
X0244021Y0161687D03*
X0244139Y0172356D03*
X0234376Y0172750D03*
X0234336Y0172750D03*
D105*
X0234454Y0172750D03*
X0244061Y0172356D03*
X0244100Y0172356D03*
D106*
X0244021Y0172356D03*
D107*
X0243982Y0172336D03*
D108*
X0234494Y0172769D03*
X0243943Y0161706D03*
D109*
X0243903Y0159659D03*
D110*
X0243903Y0161490D03*
X0243864Y0161490D03*
X0243824Y0161490D03*
X0243785Y0161490D03*
X0243746Y0161490D03*
X0243706Y0161490D03*
X0243667Y0161490D03*
X0243628Y0161490D03*
X0243588Y0161490D03*
X0243549Y0161490D03*
X0243509Y0161490D03*
X0243470Y0161490D03*
X0243431Y0161490D03*
X0243391Y0161490D03*
X0243352Y0161490D03*
X0243313Y0161490D03*
X0243273Y0161490D03*
X0243234Y0161490D03*
X0243194Y0161490D03*
X0243155Y0161490D03*
X0242092Y0157828D03*
X0242013Y0157789D03*
X0241974Y0157789D03*
X0241935Y0157750D03*
X0236974Y0157474D03*
X0236935Y0157474D03*
X0236895Y0157513D03*
X0236856Y0157513D03*
X0236817Y0157513D03*
X0236738Y0157553D03*
X0235124Y0161490D03*
X0235084Y0161490D03*
X0235045Y0161490D03*
X0235006Y0161490D03*
X0234966Y0161490D03*
X0234927Y0161490D03*
X0234887Y0161490D03*
X0234848Y0161490D03*
X0234809Y0161490D03*
X0234769Y0161490D03*
X0234730Y0161490D03*
X0234691Y0161490D03*
X0234651Y0161490D03*
X0234612Y0161490D03*
X0234572Y0161490D03*
X0234533Y0161490D03*
X0234494Y0161490D03*
X0234454Y0161490D03*
X0234415Y0161490D03*
X0234376Y0161490D03*
X0235635Y0164718D03*
X0235675Y0164757D03*
X0239218Y0165860D03*
X0239257Y0165860D03*
X0239297Y0165860D03*
X0239336Y0165860D03*
X0236777Y0169049D03*
X0236738Y0169049D03*
X0236698Y0169049D03*
X0236659Y0169049D03*
X0236541Y0176529D03*
X0236502Y0176529D03*
X0236580Y0176569D03*
X0236620Y0176569D03*
X0236659Y0176569D03*
X0241777Y0176411D03*
X0241817Y0176411D03*
X0241856Y0176372D03*
D111*
X0243903Y0172356D03*
D112*
X0243864Y0159541D03*
X0234454Y0159265D03*
D113*
X0234376Y0159502D03*
X0243864Y0163675D03*
D114*
X0243864Y0172336D03*
D115*
X0243076Y0165092D03*
X0243628Y0164187D03*
X0243824Y0159423D03*
D116*
X0243824Y0163773D03*
D117*
X0243509Y0164383D03*
X0243470Y0164423D03*
X0243431Y0164502D03*
X0243155Y0164935D03*
X0243785Y0159344D03*
X0234572Y0159029D03*
D118*
X0243785Y0163872D03*
D119*
X0243785Y0172317D03*
D120*
X0243352Y0164620D03*
X0243746Y0159265D03*
X0234651Y0175131D03*
D121*
X0242998Y0165309D03*
X0243746Y0163970D03*
D122*
X0243746Y0172317D03*
D123*
X0243549Y0175053D03*
X0241895Y0168399D03*
X0241935Y0165880D03*
X0243706Y0159187D03*
X0234691Y0158872D03*
X0234533Y0163714D03*
D124*
X0243706Y0164049D03*
D125*
X0243706Y0172297D03*
D126*
X0234730Y0175269D03*
X0236029Y0161490D03*
X0236069Y0161490D03*
X0236108Y0161490D03*
X0236147Y0161490D03*
X0236187Y0161490D03*
X0236226Y0161490D03*
X0236265Y0161490D03*
X0236305Y0161490D03*
X0236344Y0161490D03*
X0236383Y0161490D03*
X0236423Y0161490D03*
X0236462Y0161490D03*
X0236502Y0161490D03*
X0236541Y0161490D03*
X0236580Y0161490D03*
X0236620Y0161490D03*
X0236659Y0161490D03*
X0236698Y0161490D03*
X0236738Y0161490D03*
X0236777Y0161490D03*
X0236817Y0161490D03*
X0236856Y0161490D03*
X0236895Y0161490D03*
X0236935Y0161490D03*
X0236974Y0161490D03*
X0237013Y0161490D03*
X0237053Y0161490D03*
X0237092Y0161490D03*
X0237131Y0161490D03*
X0237171Y0161490D03*
X0237210Y0161490D03*
X0237250Y0161490D03*
X0237289Y0161490D03*
X0237328Y0161490D03*
X0237368Y0161490D03*
X0237407Y0161490D03*
X0237446Y0161490D03*
X0237486Y0161490D03*
X0237525Y0161490D03*
X0237565Y0161490D03*
X0237604Y0161490D03*
X0237643Y0161490D03*
X0237683Y0161490D03*
X0237722Y0161490D03*
X0237761Y0161490D03*
X0237801Y0161490D03*
X0237840Y0161490D03*
X0237880Y0161490D03*
X0237919Y0161490D03*
X0237958Y0161490D03*
X0237998Y0161490D03*
X0238037Y0161490D03*
X0238076Y0161490D03*
X0238116Y0161490D03*
X0238155Y0161490D03*
X0238194Y0161490D03*
X0238234Y0161490D03*
X0238273Y0161490D03*
X0238313Y0161490D03*
X0238352Y0161490D03*
X0238391Y0161490D03*
X0238431Y0161490D03*
X0238470Y0161490D03*
X0238509Y0161490D03*
X0238549Y0161490D03*
X0238588Y0161490D03*
X0238628Y0161490D03*
X0238667Y0161490D03*
X0238706Y0161490D03*
X0238746Y0161490D03*
X0238785Y0161490D03*
X0238824Y0161490D03*
X0238864Y0161490D03*
X0238903Y0161490D03*
X0238943Y0161490D03*
X0238982Y0161490D03*
X0239021Y0161490D03*
X0239061Y0161490D03*
X0239100Y0161490D03*
X0239139Y0161490D03*
X0239179Y0161490D03*
X0239218Y0161490D03*
X0239257Y0161490D03*
X0239297Y0161490D03*
X0239336Y0161490D03*
X0239376Y0161490D03*
X0239415Y0161490D03*
X0239454Y0161490D03*
X0239494Y0161490D03*
X0239533Y0161490D03*
X0239572Y0161490D03*
X0239612Y0161490D03*
X0239651Y0161490D03*
X0239691Y0161490D03*
X0239730Y0161490D03*
X0239769Y0161490D03*
X0239809Y0161490D03*
X0239848Y0161490D03*
X0239887Y0161490D03*
X0239927Y0161490D03*
X0239966Y0161490D03*
X0240006Y0161490D03*
X0240045Y0161490D03*
X0240084Y0161490D03*
X0240124Y0161490D03*
X0240163Y0161490D03*
X0240202Y0161490D03*
X0240242Y0161490D03*
X0240281Y0161490D03*
X0240320Y0161490D03*
X0240360Y0161490D03*
X0240399Y0161490D03*
X0240439Y0161490D03*
X0240478Y0161490D03*
X0240517Y0161490D03*
X0240557Y0161490D03*
X0240596Y0161490D03*
X0240635Y0161490D03*
X0240675Y0161490D03*
X0240714Y0161490D03*
X0240754Y0161490D03*
X0240793Y0161490D03*
X0240832Y0161490D03*
X0240872Y0161490D03*
X0240911Y0161490D03*
X0240950Y0161490D03*
X0240990Y0161490D03*
X0241029Y0161490D03*
X0241069Y0161490D03*
X0241108Y0161490D03*
X0241147Y0161490D03*
X0241187Y0161490D03*
X0241226Y0161490D03*
X0241265Y0161490D03*
X0241305Y0161490D03*
X0241344Y0161490D03*
X0241383Y0161490D03*
X0241423Y0161490D03*
X0241462Y0161490D03*
X0241502Y0161490D03*
X0241541Y0161490D03*
X0241580Y0161490D03*
X0241620Y0161490D03*
X0241659Y0161490D03*
X0241698Y0161490D03*
X0241738Y0161490D03*
X0241777Y0161490D03*
X0241817Y0161490D03*
X0241856Y0161490D03*
X0241895Y0161490D03*
X0241935Y0161490D03*
X0241974Y0161490D03*
X0242013Y0161490D03*
X0243667Y0159128D03*
D127*
X0243667Y0164108D03*
D128*
X0243667Y0168793D03*
X0237486Y0165525D03*
X0237368Y0165486D03*
X0237250Y0165446D03*
X0237131Y0165407D03*
X0237013Y0165368D03*
X0236895Y0165328D03*
X0235714Y0169187D03*
X0235675Y0169187D03*
D129*
X0236817Y0169029D03*
X0236856Y0169029D03*
X0236895Y0169029D03*
X0239376Y0165880D03*
X0239415Y0165880D03*
X0239454Y0165880D03*
X0239494Y0165880D03*
X0235596Y0164698D03*
X0236659Y0157572D03*
X0236698Y0157572D03*
X0236777Y0157533D03*
X0242053Y0157809D03*
X0242131Y0157848D03*
X0242210Y0157887D03*
X0243194Y0168360D03*
X0243194Y0172612D03*
X0243155Y0172612D03*
X0243116Y0172612D03*
X0243076Y0172612D03*
X0243037Y0172612D03*
X0242998Y0172612D03*
X0242958Y0172612D03*
X0243234Y0172612D03*
X0243273Y0172612D03*
X0243313Y0172612D03*
X0243352Y0172612D03*
X0243391Y0172612D03*
X0243431Y0172612D03*
X0243470Y0172612D03*
X0243509Y0172612D03*
X0243549Y0172612D03*
X0243588Y0172612D03*
X0243628Y0172612D03*
X0243667Y0172612D03*
X0242013Y0176313D03*
X0241974Y0176313D03*
X0241935Y0176352D03*
X0241895Y0176352D03*
X0236462Y0176509D03*
X0236383Y0176470D03*
X0235281Y0172612D03*
X0235242Y0172612D03*
X0235202Y0172612D03*
X0235163Y0172612D03*
X0235124Y0172612D03*
X0235084Y0172612D03*
X0235045Y0172612D03*
X0235006Y0172612D03*
X0234966Y0172612D03*
X0234927Y0172612D03*
X0234887Y0172612D03*
X0234848Y0172612D03*
X0234809Y0172612D03*
X0234769Y0172612D03*
X0234730Y0172612D03*
X0234691Y0172612D03*
X0234651Y0172612D03*
X0234612Y0172612D03*
X0234572Y0172612D03*
X0234533Y0172612D03*
D130*
X0234572Y0174994D03*
X0243667Y0174757D03*
X0243037Y0165191D03*
X0234415Y0163458D03*
X0234494Y0159167D03*
D131*
X0235675Y0161470D03*
X0242486Y0161470D03*
X0242525Y0161470D03*
X0243628Y0159069D03*
X0241777Y0168478D03*
X0243470Y0175171D03*
X0234809Y0175368D03*
D132*
X0235478Y0169226D03*
X0235517Y0169226D03*
X0243509Y0168596D03*
X0243549Y0168635D03*
X0243588Y0168675D03*
X0243628Y0168714D03*
D133*
X0243194Y0164876D03*
X0243234Y0164797D03*
X0243273Y0164757D03*
X0243313Y0164679D03*
X0243391Y0164561D03*
X0243628Y0174876D03*
D134*
X0241738Y0168498D03*
X0241856Y0165820D03*
X0242565Y0161490D03*
X0242604Y0161490D03*
X0243588Y0159009D03*
X0235635Y0161490D03*
X0235596Y0161490D03*
X0234612Y0163852D03*
X0234809Y0158734D03*
X0234848Y0175427D03*
D135*
X0243588Y0164246D03*
D136*
X0241935Y0168360D03*
X0243588Y0174974D03*
X0234691Y0175210D03*
D137*
X0241659Y0168517D03*
X0241698Y0168517D03*
X0243431Y0175210D03*
X0242643Y0161470D03*
X0243549Y0158950D03*
X0235557Y0161470D03*
X0234848Y0158675D03*
D138*
X0234533Y0159108D03*
X0243549Y0164305D03*
X0243116Y0165013D03*
D139*
X0241777Y0165801D03*
X0241541Y0168557D03*
X0241502Y0168557D03*
X0241462Y0168557D03*
X0241423Y0168557D03*
X0242761Y0161470D03*
X0243509Y0158911D03*
X0235478Y0161470D03*
X0234887Y0158635D03*
X0234927Y0158596D03*
D140*
X0234769Y0158773D03*
X0235714Y0161490D03*
X0235754Y0161490D03*
X0235793Y0161490D03*
X0235832Y0161490D03*
X0235872Y0161490D03*
X0235911Y0161490D03*
X0235950Y0161490D03*
X0235990Y0161490D03*
X0234572Y0163773D03*
X0241895Y0165860D03*
X0241817Y0168458D03*
X0243509Y0175112D03*
X0242446Y0161490D03*
X0242407Y0161490D03*
X0242368Y0161490D03*
X0242328Y0161490D03*
X0242289Y0161490D03*
X0242250Y0161490D03*
X0242210Y0161490D03*
X0242171Y0161490D03*
X0242131Y0161490D03*
X0242092Y0161490D03*
X0242053Y0161490D03*
D141*
X0242801Y0161490D03*
X0243470Y0158852D03*
X0241738Y0165820D03*
X0241383Y0168576D03*
X0241344Y0168576D03*
X0241305Y0168576D03*
X0241265Y0168576D03*
X0241226Y0168576D03*
X0241187Y0168576D03*
X0241147Y0168576D03*
X0243352Y0175309D03*
X0234966Y0175545D03*
X0234691Y0163931D03*
X0235439Y0161490D03*
D142*
X0235557Y0169206D03*
X0235596Y0169206D03*
X0235635Y0169206D03*
X0243470Y0168576D03*
D143*
X0240557Y0168616D03*
X0240517Y0168616D03*
X0240478Y0168616D03*
X0240439Y0168616D03*
X0240399Y0168616D03*
X0240360Y0168616D03*
X0240320Y0168616D03*
X0240281Y0168616D03*
X0240242Y0168616D03*
X0240202Y0168616D03*
X0241659Y0165820D03*
X0242880Y0161490D03*
X0243431Y0158813D03*
X0235045Y0158498D03*
X0235006Y0158537D03*
X0235399Y0161490D03*
X0234730Y0164009D03*
X0235006Y0175584D03*
X0235045Y0175624D03*
D144*
X0235754Y0169206D03*
X0235793Y0169206D03*
X0237053Y0165387D03*
X0237092Y0165387D03*
X0237171Y0165427D03*
X0237210Y0165427D03*
X0237289Y0165466D03*
X0237328Y0165466D03*
X0237407Y0165506D03*
X0237446Y0165506D03*
X0237525Y0165545D03*
X0237565Y0165545D03*
X0237604Y0165545D03*
X0237643Y0165545D03*
X0237683Y0165584D03*
X0237722Y0165584D03*
X0237761Y0165584D03*
X0237840Y0165624D03*
X0237880Y0165624D03*
X0236974Y0165348D03*
X0236935Y0165348D03*
X0236856Y0165309D03*
X0236817Y0165309D03*
X0236777Y0165269D03*
X0236738Y0165269D03*
X0236659Y0165230D03*
X0236541Y0165191D03*
X0243431Y0168537D03*
D145*
X0242998Y0168124D03*
X0241620Y0165801D03*
X0240163Y0168635D03*
X0240124Y0168635D03*
X0240084Y0168635D03*
X0240045Y0168635D03*
X0240006Y0168635D03*
X0239966Y0168635D03*
X0239927Y0168635D03*
X0239927Y0173006D03*
X0239966Y0173006D03*
X0240006Y0173006D03*
X0240045Y0173006D03*
X0240084Y0173006D03*
X0240124Y0173006D03*
X0240163Y0173006D03*
X0240202Y0173006D03*
X0240242Y0173006D03*
X0240281Y0173006D03*
X0240320Y0173006D03*
X0240360Y0173006D03*
X0240399Y0173006D03*
X0240439Y0173006D03*
X0240478Y0173006D03*
X0240517Y0173006D03*
X0240557Y0173006D03*
X0240596Y0173006D03*
X0240635Y0173006D03*
X0240675Y0173006D03*
X0240714Y0173006D03*
X0240754Y0173006D03*
X0240793Y0173006D03*
X0240832Y0173006D03*
X0240872Y0173006D03*
X0240911Y0173006D03*
X0240950Y0173006D03*
X0240990Y0173006D03*
X0241029Y0173006D03*
X0241069Y0173006D03*
X0241108Y0173006D03*
X0241147Y0173006D03*
X0241187Y0173006D03*
X0241226Y0173006D03*
X0241265Y0173006D03*
X0241305Y0173006D03*
X0241344Y0173006D03*
X0241383Y0173006D03*
X0241423Y0173006D03*
X0241462Y0173006D03*
X0241502Y0173006D03*
X0241541Y0173006D03*
X0241580Y0173006D03*
X0241620Y0173006D03*
X0241659Y0173006D03*
X0241698Y0173006D03*
X0241738Y0173006D03*
X0241777Y0173006D03*
X0239887Y0173006D03*
X0239848Y0173006D03*
X0239809Y0173006D03*
X0239769Y0173006D03*
X0239730Y0173006D03*
X0239691Y0173006D03*
X0239651Y0173006D03*
X0239612Y0173006D03*
X0239572Y0173006D03*
X0239533Y0173006D03*
X0239494Y0173006D03*
X0239454Y0173006D03*
X0239415Y0173006D03*
X0239376Y0173006D03*
X0239336Y0173006D03*
X0239297Y0173006D03*
X0239257Y0173006D03*
X0239218Y0173006D03*
X0239179Y0173006D03*
X0239139Y0173006D03*
X0239100Y0173006D03*
X0239061Y0173006D03*
X0239021Y0173006D03*
X0238982Y0173006D03*
X0238943Y0173006D03*
X0238903Y0173006D03*
X0238864Y0173006D03*
X0238824Y0173006D03*
X0238785Y0173006D03*
X0238746Y0173006D03*
X0238706Y0173006D03*
X0238667Y0173006D03*
X0238628Y0173006D03*
X0238588Y0173006D03*
X0238549Y0173006D03*
X0238509Y0173006D03*
X0238470Y0173006D03*
X0238431Y0173006D03*
X0238391Y0173006D03*
X0238352Y0173006D03*
X0238313Y0173006D03*
X0238273Y0173006D03*
X0238234Y0173006D03*
X0238194Y0173006D03*
X0238155Y0173006D03*
X0238116Y0173006D03*
X0238076Y0173006D03*
X0238037Y0173006D03*
X0237998Y0173006D03*
X0237958Y0173006D03*
X0237919Y0173006D03*
X0237880Y0173006D03*
X0237840Y0173006D03*
X0237801Y0173006D03*
X0237761Y0173006D03*
X0237722Y0173006D03*
X0237683Y0173006D03*
X0237643Y0173006D03*
X0237604Y0173006D03*
X0237565Y0173006D03*
X0237525Y0173006D03*
X0237486Y0173006D03*
X0237446Y0173006D03*
X0237407Y0173006D03*
X0237368Y0173006D03*
X0237328Y0173006D03*
X0237289Y0173006D03*
X0237250Y0173006D03*
X0237210Y0173006D03*
X0237171Y0173006D03*
X0237131Y0173006D03*
X0237092Y0173006D03*
X0237053Y0173006D03*
X0237013Y0173006D03*
X0236974Y0173006D03*
X0236935Y0173006D03*
X0236895Y0173006D03*
X0236856Y0173006D03*
X0236817Y0173006D03*
X0236777Y0173006D03*
X0236738Y0173006D03*
X0236698Y0173006D03*
X0236659Y0173006D03*
X0236620Y0173006D03*
X0236580Y0173006D03*
X0236541Y0173006D03*
X0236502Y0173006D03*
X0236462Y0173006D03*
X0243234Y0175446D03*
X0243273Y0175407D03*
X0234769Y0164029D03*
X0243391Y0158754D03*
D146*
X0238155Y0165683D03*
X0238116Y0165683D03*
X0238076Y0165683D03*
X0238037Y0165643D03*
X0237998Y0165643D03*
X0237958Y0165643D03*
X0237919Y0165643D03*
X0237801Y0165604D03*
X0236698Y0165250D03*
X0236620Y0165210D03*
X0236580Y0165210D03*
X0236502Y0165171D03*
X0236423Y0165131D03*
X0236344Y0165092D03*
X0235911Y0169187D03*
X0235872Y0169187D03*
X0235832Y0169187D03*
X0243391Y0168517D03*
D147*
X0241620Y0168537D03*
X0241580Y0168537D03*
X0241817Y0165820D03*
X0242683Y0161490D03*
X0242722Y0161490D03*
X0235517Y0161490D03*
X0234651Y0163891D03*
X0234887Y0175466D03*
X0234927Y0175506D03*
X0243391Y0175269D03*
D148*
X0242289Y0172986D03*
X0242250Y0172986D03*
X0242210Y0172986D03*
X0242171Y0172986D03*
X0242131Y0172986D03*
X0242092Y0172986D03*
X0242053Y0172986D03*
X0242013Y0172986D03*
X0241974Y0172986D03*
X0241935Y0172986D03*
X0241895Y0172986D03*
X0241856Y0172986D03*
X0241817Y0172986D03*
X0239887Y0168655D03*
X0239848Y0168655D03*
X0239809Y0168655D03*
X0239769Y0168655D03*
X0239730Y0168655D03*
X0239691Y0168655D03*
X0241580Y0165820D03*
X0242919Y0161490D03*
X0243352Y0158734D03*
X0235124Y0158419D03*
X0235084Y0158458D03*
X0235360Y0161490D03*
X0236029Y0172986D03*
X0236069Y0172986D03*
X0236108Y0172986D03*
X0236147Y0172986D03*
X0236187Y0172986D03*
X0236226Y0172986D03*
X0236265Y0172986D03*
X0236305Y0172986D03*
X0236344Y0172986D03*
X0236383Y0172986D03*
X0236423Y0172986D03*
X0235084Y0175663D03*
X0235124Y0175702D03*
D149*
X0238352Y0176923D03*
X0238391Y0176923D03*
X0238431Y0176923D03*
X0238470Y0176923D03*
X0238509Y0176923D03*
X0238549Y0176923D03*
X0238588Y0176923D03*
X0238628Y0176923D03*
X0238667Y0176923D03*
X0238706Y0176923D03*
X0238746Y0176923D03*
X0238785Y0176923D03*
X0238824Y0176923D03*
X0238864Y0176923D03*
X0238903Y0176923D03*
X0238943Y0176923D03*
X0238982Y0176923D03*
X0239021Y0176923D03*
X0239061Y0176923D03*
X0239100Y0176923D03*
X0239139Y0176923D03*
X0239179Y0176923D03*
X0239218Y0176923D03*
X0239257Y0176923D03*
X0239297Y0176923D03*
X0239336Y0176923D03*
X0239376Y0176923D03*
X0239415Y0176923D03*
X0239454Y0176923D03*
X0239494Y0176923D03*
X0239533Y0176923D03*
X0239572Y0176923D03*
X0239612Y0176923D03*
X0239651Y0176923D03*
X0239691Y0176923D03*
X0239730Y0176923D03*
X0239769Y0176923D03*
X0239809Y0176883D03*
X0239848Y0176883D03*
X0239887Y0176883D03*
X0239927Y0176883D03*
X0239966Y0176883D03*
X0240006Y0176883D03*
X0240045Y0176883D03*
X0240084Y0176883D03*
X0240163Y0176844D03*
X0240202Y0176844D03*
X0240242Y0176844D03*
X0240281Y0176844D03*
X0240320Y0176844D03*
X0240439Y0176805D03*
X0240478Y0176805D03*
X0243352Y0168498D03*
X0238431Y0165742D03*
X0238391Y0165742D03*
X0238273Y0165702D03*
X0238234Y0165702D03*
X0238194Y0165702D03*
X0236462Y0165151D03*
X0236383Y0165112D03*
X0236305Y0165072D03*
X0236265Y0165072D03*
X0236226Y0165033D03*
X0236029Y0169167D03*
X0235990Y0169167D03*
X0235950Y0169167D03*
X0239809Y0157238D03*
X0239848Y0157238D03*
X0239887Y0157238D03*
X0239927Y0157238D03*
X0240163Y0157277D03*
X0240202Y0157277D03*
X0240439Y0157317D03*
D150*
X0243313Y0158675D03*
X0241541Y0165801D03*
X0241502Y0165801D03*
X0239651Y0168675D03*
X0239612Y0168675D03*
X0239572Y0168675D03*
X0239533Y0168675D03*
X0239494Y0168675D03*
X0239454Y0168675D03*
X0242328Y0172966D03*
X0242368Y0172966D03*
X0242407Y0172966D03*
X0243194Y0175486D03*
X0235990Y0172966D03*
X0235950Y0172966D03*
X0235911Y0172966D03*
X0235872Y0172966D03*
X0234809Y0164069D03*
X0235163Y0158399D03*
D151*
X0237880Y0157277D03*
X0237919Y0157277D03*
X0237958Y0157277D03*
X0237998Y0157277D03*
X0238116Y0157238D03*
X0238155Y0157238D03*
X0238194Y0157238D03*
X0238234Y0157238D03*
X0238273Y0157238D03*
X0238313Y0157238D03*
X0238352Y0157238D03*
X0240832Y0157395D03*
X0240872Y0157395D03*
X0240990Y0157435D03*
X0241029Y0157435D03*
X0241108Y0157474D03*
X0241147Y0157474D03*
X0241187Y0157474D03*
X0241265Y0157513D03*
X0241305Y0157513D03*
X0238706Y0165781D03*
X0238667Y0165781D03*
X0238628Y0165781D03*
X0236069Y0164954D03*
X0236029Y0164954D03*
X0235990Y0164915D03*
X0236187Y0169128D03*
X0236226Y0169128D03*
X0236265Y0169128D03*
X0243313Y0168458D03*
X0241147Y0176647D03*
X0241108Y0176647D03*
X0241069Y0176647D03*
X0241029Y0176687D03*
X0240990Y0176687D03*
X0240950Y0176687D03*
X0240872Y0176726D03*
X0240832Y0176726D03*
X0237801Y0176844D03*
X0237761Y0176844D03*
X0237722Y0176844D03*
X0237683Y0176844D03*
X0237604Y0176805D03*
X0237565Y0176805D03*
X0237525Y0176805D03*
X0237486Y0176805D03*
X0237368Y0176765D03*
X0237328Y0176765D03*
D152*
X0243313Y0175368D03*
X0241108Y0168596D03*
X0241069Y0168596D03*
X0241029Y0168596D03*
X0240990Y0168596D03*
X0240950Y0168596D03*
X0240911Y0168596D03*
X0240872Y0168596D03*
X0240832Y0168596D03*
X0240793Y0168596D03*
X0240754Y0168596D03*
X0240714Y0168596D03*
X0240675Y0168596D03*
X0240635Y0168596D03*
X0240596Y0168596D03*
X0241698Y0165801D03*
X0242840Y0161470D03*
X0234966Y0158557D03*
D153*
X0235242Y0158320D03*
X0243234Y0158596D03*
X0243273Y0158635D03*
X0241383Y0165840D03*
X0239218Y0168714D03*
X0239179Y0168714D03*
X0239139Y0168714D03*
X0239100Y0168714D03*
X0239061Y0168714D03*
X0235714Y0172927D03*
X0235675Y0172927D03*
X0235242Y0175801D03*
X0242525Y0172927D03*
X0242565Y0172927D03*
X0243116Y0175565D03*
D154*
X0241580Y0176490D03*
X0241502Y0176529D03*
X0241462Y0176529D03*
X0241383Y0176569D03*
X0237171Y0176726D03*
X0237053Y0176687D03*
X0237013Y0176687D03*
X0236974Y0176687D03*
X0236895Y0176647D03*
X0236856Y0176647D03*
X0236502Y0169088D03*
X0236462Y0169088D03*
X0236423Y0169088D03*
X0238903Y0165820D03*
X0238943Y0165820D03*
X0238982Y0165820D03*
X0239021Y0165820D03*
X0235832Y0164836D03*
X0235754Y0164797D03*
X0243273Y0168419D03*
X0241738Y0157671D03*
X0241698Y0157671D03*
X0241659Y0157631D03*
X0241620Y0157631D03*
X0241541Y0157592D03*
X0241502Y0157592D03*
X0237486Y0157356D03*
X0237446Y0157356D03*
X0237407Y0157356D03*
X0237328Y0157395D03*
X0237289Y0157395D03*
X0237250Y0157395D03*
X0237131Y0157435D03*
D155*
X0237092Y0157454D03*
X0237053Y0157454D03*
X0237013Y0157454D03*
X0237171Y0157415D03*
X0237210Y0157415D03*
X0241777Y0157691D03*
X0241817Y0157691D03*
X0241856Y0157730D03*
X0241895Y0157730D03*
X0239179Y0165840D03*
X0239139Y0165840D03*
X0239100Y0165840D03*
X0239061Y0165840D03*
X0235793Y0164817D03*
X0235714Y0164777D03*
X0236541Y0169069D03*
X0236580Y0169069D03*
X0236620Y0169069D03*
X0243234Y0168399D03*
X0241738Y0176431D03*
X0241698Y0176431D03*
X0241659Y0176470D03*
X0241620Y0176470D03*
X0241541Y0176509D03*
X0236935Y0176667D03*
X0236817Y0176628D03*
X0236777Y0176628D03*
X0236738Y0176588D03*
X0236698Y0176588D03*
D156*
X0235635Y0172907D03*
X0238903Y0168734D03*
X0238943Y0168734D03*
X0238982Y0168734D03*
X0239021Y0168734D03*
X0241344Y0165820D03*
X0242998Y0161490D03*
X0243194Y0158576D03*
X0235320Y0158261D03*
X0235281Y0158301D03*
X0235281Y0161490D03*
X0234887Y0164167D03*
X0242604Y0172907D03*
X0242643Y0172907D03*
X0243076Y0175584D03*
D157*
X0242998Y0175663D03*
X0242958Y0175702D03*
X0242722Y0172868D03*
X0243037Y0168183D03*
X0241187Y0165860D03*
X0241147Y0165860D03*
X0241108Y0165860D03*
X0238667Y0168773D03*
X0238628Y0168773D03*
X0238588Y0168773D03*
X0238549Y0168773D03*
X0235517Y0172868D03*
X0235360Y0175899D03*
X0234966Y0164246D03*
X0235242Y0161490D03*
X0235399Y0158222D03*
X0235439Y0158183D03*
X0243116Y0158498D03*
X0243155Y0158537D03*
X0243037Y0161490D03*
D158*
X0242407Y0158006D03*
X0242368Y0157966D03*
X0242328Y0157966D03*
X0242289Y0157927D03*
X0236462Y0157651D03*
X0236423Y0157651D03*
X0236383Y0157691D03*
X0236344Y0157691D03*
X0235439Y0164580D03*
X0235478Y0164620D03*
X0239730Y0165919D03*
X0239769Y0165919D03*
X0239809Y0165919D03*
X0239848Y0165919D03*
X0239887Y0165919D03*
X0237131Y0168990D03*
X0237092Y0168990D03*
X0237053Y0168990D03*
X0243155Y0168320D03*
X0242919Y0172651D03*
X0242250Y0176194D03*
X0242210Y0176194D03*
X0242171Y0176234D03*
X0236265Y0176431D03*
X0236187Y0176391D03*
X0236108Y0176352D03*
D159*
X0235202Y0175781D03*
X0235163Y0175742D03*
X0235754Y0172946D03*
X0235793Y0172946D03*
X0235832Y0172946D03*
X0239257Y0168694D03*
X0239297Y0168694D03*
X0239336Y0168694D03*
X0239376Y0168694D03*
X0239415Y0168694D03*
X0241423Y0165820D03*
X0241462Y0165820D03*
X0242958Y0161490D03*
X0235320Y0161490D03*
X0234848Y0164128D03*
X0235202Y0158340D03*
X0242446Y0172946D03*
X0242486Y0172946D03*
X0243155Y0175506D03*
D160*
X0242328Y0176135D03*
X0242289Y0176175D03*
X0236147Y0176372D03*
X0236069Y0176332D03*
X0237171Y0168970D03*
X0237210Y0168970D03*
X0237250Y0168970D03*
X0235399Y0164561D03*
X0242446Y0158025D03*
X0242525Y0158065D03*
X0243116Y0161490D03*
X0236305Y0157710D03*
X0236265Y0157710D03*
X0236226Y0157750D03*
D161*
X0235990Y0157848D03*
X0235950Y0157887D03*
X0235911Y0157887D03*
X0242683Y0158163D03*
X0242722Y0158202D03*
X0235242Y0164462D03*
X0235202Y0164423D03*
X0237565Y0168911D03*
X0237604Y0168911D03*
X0237643Y0168911D03*
X0240242Y0165919D03*
X0240281Y0165919D03*
X0240320Y0165919D03*
X0240360Y0165919D03*
X0240399Y0165919D03*
X0240439Y0165919D03*
X0243116Y0168281D03*
X0242880Y0172730D03*
X0242565Y0175998D03*
X0235872Y0176234D03*
X0235793Y0176194D03*
D162*
X0235439Y0175958D03*
X0235399Y0175919D03*
X0235478Y0172848D03*
X0238391Y0168793D03*
X0238431Y0168793D03*
X0238470Y0168793D03*
X0238509Y0168793D03*
X0240990Y0165880D03*
X0241029Y0165880D03*
X0241069Y0165880D03*
X0235006Y0164265D03*
X0235478Y0158163D03*
X0235517Y0158124D03*
X0243076Y0158478D03*
X0242761Y0172848D03*
X0242919Y0175722D03*
D163*
X0242801Y0175820D03*
X0242761Y0175860D03*
X0235635Y0176096D03*
X0235596Y0176057D03*
X0235399Y0172789D03*
X0237958Y0168852D03*
X0237998Y0168852D03*
X0238037Y0168852D03*
X0238076Y0168852D03*
X0240675Y0165899D03*
X0240714Y0165899D03*
X0240754Y0165899D03*
X0240793Y0165899D03*
X0243076Y0168222D03*
X0243076Y0161490D03*
X0242919Y0158340D03*
X0242880Y0158301D03*
X0235754Y0157986D03*
X0235675Y0158025D03*
X0235202Y0161490D03*
X0235124Y0164364D03*
D164*
X0238273Y0168813D03*
X0238313Y0168813D03*
X0238352Y0168813D03*
X0240950Y0165899D03*
X0243037Y0158419D03*
X0235557Y0158104D03*
X0235439Y0172828D03*
X0235478Y0175978D03*
X0235517Y0176017D03*
X0242880Y0175781D03*
D165*
X0243037Y0175643D03*
X0242683Y0172887D03*
X0238864Y0168754D03*
X0238824Y0168754D03*
X0238785Y0168754D03*
X0238746Y0168754D03*
X0238706Y0168754D03*
X0241226Y0165840D03*
X0241265Y0165840D03*
X0241305Y0165840D03*
X0234927Y0164187D03*
X0235360Y0158242D03*
X0235557Y0172887D03*
X0235596Y0172887D03*
X0235281Y0175840D03*
X0235320Y0175880D03*
D166*
X0235557Y0176037D03*
X0242801Y0172809D03*
X0242840Y0175801D03*
X0238234Y0168832D03*
X0238194Y0168832D03*
X0238155Y0168832D03*
X0238116Y0168832D03*
X0240832Y0165880D03*
X0240872Y0165880D03*
X0240911Y0165880D03*
X0235084Y0164344D03*
X0235045Y0164305D03*
X0235596Y0158084D03*
X0235635Y0158045D03*
X0242958Y0158360D03*
X0242998Y0158399D03*
D167*
X0242840Y0158281D03*
X0235793Y0157966D03*
X0235714Y0158006D03*
X0235163Y0164383D03*
X0237840Y0168872D03*
X0237880Y0168872D03*
X0237919Y0168872D03*
X0240557Y0165919D03*
X0240596Y0165919D03*
X0240635Y0165919D03*
X0242840Y0172769D03*
X0242722Y0175880D03*
X0242683Y0175919D03*
X0235675Y0176116D03*
D168*
X0235714Y0176135D03*
X0235754Y0176175D03*
X0235360Y0172750D03*
X0237683Y0168891D03*
X0237722Y0168891D03*
X0237761Y0168891D03*
X0237801Y0168891D03*
X0240478Y0165899D03*
X0240517Y0165899D03*
X0242801Y0158261D03*
X0242761Y0158222D03*
X0235872Y0157907D03*
X0235832Y0157946D03*
X0242643Y0175939D03*
X0242604Y0175978D03*
D169*
X0242525Y0176017D03*
X0242486Y0176057D03*
X0235911Y0176254D03*
X0235832Y0176214D03*
X0237446Y0168931D03*
X0237486Y0168931D03*
X0237525Y0168931D03*
X0240202Y0165939D03*
X0235281Y0164482D03*
X0235163Y0161490D03*
X0236029Y0157828D03*
X0236069Y0157828D03*
X0242604Y0158104D03*
X0242643Y0158143D03*
D170*
X0242565Y0158084D03*
X0242486Y0158045D03*
X0236187Y0157769D03*
X0236147Y0157769D03*
X0236108Y0157809D03*
X0235320Y0164502D03*
X0235360Y0164541D03*
X0239927Y0165919D03*
X0239966Y0165919D03*
X0240006Y0165919D03*
X0240045Y0165919D03*
X0240084Y0165919D03*
X0240124Y0165919D03*
X0240163Y0165919D03*
X0237407Y0168950D03*
X0237368Y0168950D03*
X0237328Y0168950D03*
X0237289Y0168950D03*
X0235320Y0172691D03*
X0235950Y0176273D03*
X0235990Y0176313D03*
X0236029Y0176313D03*
X0242368Y0176116D03*
X0242407Y0176076D03*
X0242446Y0176076D03*
D171*
X0242131Y0176254D03*
X0242092Y0176254D03*
X0242053Y0176293D03*
X0236423Y0176490D03*
X0236344Y0176450D03*
X0236305Y0176450D03*
X0236226Y0176411D03*
X0236935Y0169009D03*
X0236974Y0169009D03*
X0237013Y0169009D03*
X0239533Y0165899D03*
X0239572Y0165899D03*
X0239612Y0165899D03*
X0239651Y0165899D03*
X0239691Y0165899D03*
X0235557Y0164679D03*
X0235517Y0164639D03*
X0236502Y0157631D03*
X0236541Y0157631D03*
X0236580Y0157592D03*
X0236620Y0157592D03*
X0242171Y0157868D03*
X0242250Y0157907D03*
D172*
X0241580Y0157612D03*
X0241462Y0157572D03*
X0241423Y0157572D03*
X0241383Y0157533D03*
X0241344Y0157533D03*
X0241226Y0157494D03*
X0238076Y0157257D03*
X0238037Y0157257D03*
X0237840Y0157297D03*
X0237801Y0157297D03*
X0237761Y0157297D03*
X0237722Y0157297D03*
X0237683Y0157297D03*
X0237643Y0157336D03*
X0237604Y0157336D03*
X0237565Y0157336D03*
X0237525Y0157336D03*
X0237368Y0157376D03*
X0235872Y0164856D03*
X0235911Y0164895D03*
X0235950Y0164895D03*
X0238746Y0165801D03*
X0238785Y0165801D03*
X0238824Y0165801D03*
X0238864Y0165801D03*
X0236383Y0169108D03*
X0236344Y0169108D03*
X0236305Y0169108D03*
X0237092Y0176706D03*
X0237131Y0176706D03*
X0237210Y0176746D03*
X0237250Y0176746D03*
X0237289Y0176746D03*
X0237407Y0176785D03*
X0237446Y0176785D03*
X0241187Y0176628D03*
X0241226Y0176628D03*
X0241265Y0176588D03*
X0241305Y0176588D03*
X0241344Y0176588D03*
X0241423Y0176549D03*
D173*
X0240911Y0176706D03*
X0240793Y0176746D03*
X0240754Y0176746D03*
X0240714Y0176746D03*
X0240675Y0176746D03*
X0240635Y0176785D03*
X0240596Y0176785D03*
X0240557Y0176785D03*
X0240517Y0176785D03*
X0240399Y0176824D03*
X0240360Y0176824D03*
X0240124Y0176864D03*
X0238313Y0176903D03*
X0238273Y0176903D03*
X0238234Y0176903D03*
X0238194Y0176903D03*
X0238155Y0176903D03*
X0238116Y0176903D03*
X0238076Y0176903D03*
X0238037Y0176903D03*
X0237998Y0176864D03*
X0237958Y0176864D03*
X0237919Y0176864D03*
X0237880Y0176864D03*
X0237840Y0176864D03*
X0237643Y0176824D03*
X0236147Y0169147D03*
X0236108Y0169147D03*
X0236069Y0169147D03*
X0238313Y0165722D03*
X0238352Y0165722D03*
X0238470Y0165761D03*
X0238509Y0165761D03*
X0238549Y0165761D03*
X0238588Y0165761D03*
X0236187Y0165013D03*
X0236147Y0165013D03*
X0236108Y0164974D03*
X0238391Y0157218D03*
X0238431Y0157218D03*
X0238470Y0157218D03*
X0238509Y0157218D03*
X0238549Y0157218D03*
X0238588Y0157218D03*
X0238628Y0157218D03*
X0238667Y0157218D03*
X0238706Y0157218D03*
X0238746Y0157218D03*
X0238785Y0157218D03*
X0238824Y0157218D03*
X0238864Y0157218D03*
X0238903Y0157218D03*
X0238943Y0157218D03*
X0238982Y0157218D03*
X0239021Y0157218D03*
X0239061Y0157218D03*
X0239100Y0157218D03*
X0239139Y0157218D03*
X0239179Y0157218D03*
X0239218Y0157218D03*
X0239257Y0157218D03*
X0239297Y0157218D03*
X0239336Y0157218D03*
X0239376Y0157218D03*
X0239415Y0157218D03*
X0239454Y0157218D03*
X0239494Y0157218D03*
X0239533Y0157218D03*
X0239572Y0157218D03*
X0239612Y0157218D03*
X0239651Y0157218D03*
X0239691Y0157218D03*
X0239730Y0157218D03*
X0239769Y0157218D03*
X0239966Y0157257D03*
X0240006Y0157257D03*
X0240045Y0157257D03*
X0240084Y0157257D03*
X0240124Y0157257D03*
X0240242Y0157297D03*
X0240281Y0157297D03*
X0240320Y0157297D03*
X0240360Y0157297D03*
X0240399Y0157297D03*
X0240478Y0157336D03*
X0240517Y0157336D03*
X0240557Y0157336D03*
X0240596Y0157336D03*
X0240635Y0157336D03*
X0240675Y0157376D03*
X0240714Y0157376D03*
X0240754Y0157376D03*
X0240793Y0157376D03*
X0240911Y0157415D03*
X0240950Y0157415D03*
X0241069Y0157454D03*
D174*
X0235439Y0169206D03*
D175*
X0234651Y0158931D03*
D176*
X0234612Y0158970D03*
X0234494Y0163655D03*
D177*
X0234454Y0163576D03*
X0234612Y0175072D03*
D178*
X0234415Y0159364D03*
D179*
X0234376Y0163340D03*
D180*
X0234257Y0161352D03*
X0234218Y0172730D03*
D181*
X0230045Y0167061D03*
D182*
X0230006Y0167061D03*
M02*
