G75*
%MOIN*%
%OFA0B0*%
%FSLAX25Y25*%
%IPPOS*%
%LPD*%
%AMOC8*
5,1,8,0,0,1.08239X$1,22.5*
%
%ADD10C,0.00000*%
%ADD11C,0.00004*%
%ADD12C,0.12992*%
%ADD13C,0.10630*%
%ADD14C,0.21000*%
%ADD15C,0.06000*%
%ADD16R,0.08600X0.08600*%
%ADD17C,0.03200*%
%ADD18C,0.02000*%
%ADD19C,0.02400*%
D10*
X0016773Y0002600D02*
X0244332Y0002600D01*
X0244674Y0002604D01*
X0245017Y0002617D01*
X0245359Y0002637D01*
X0245700Y0002666D01*
X0246040Y0002703D01*
X0246380Y0002749D01*
X0246718Y0002802D01*
X0247055Y0002864D01*
X0247390Y0002934D01*
X0247724Y0003012D01*
X0248055Y0003098D01*
X0248385Y0003192D01*
X0248712Y0003294D01*
X0249036Y0003403D01*
X0249358Y0003521D01*
X0249677Y0003646D01*
X0249992Y0003779D01*
X0250305Y0003920D01*
X0250613Y0004068D01*
X0250919Y0004223D01*
X0251220Y0004386D01*
X0251517Y0004556D01*
X0251810Y0004733D01*
X0252099Y0004918D01*
X0252383Y0005109D01*
X0252663Y0005307D01*
X0252937Y0005511D01*
X0253207Y0005723D01*
X0253471Y0005940D01*
X0253730Y0006164D01*
X0253984Y0006395D01*
X0254232Y0006631D01*
X0254474Y0006873D01*
X0254710Y0007121D01*
X0254941Y0007375D01*
X0255165Y0007634D01*
X0255382Y0007898D01*
X0255594Y0008168D01*
X0255798Y0008442D01*
X0255996Y0008722D01*
X0256187Y0009006D01*
X0256372Y0009295D01*
X0256549Y0009588D01*
X0256719Y0009885D01*
X0256882Y0010186D01*
X0257037Y0010492D01*
X0257185Y0010800D01*
X0257326Y0011113D01*
X0257459Y0011428D01*
X0257584Y0011747D01*
X0257702Y0012069D01*
X0257811Y0012393D01*
X0257913Y0012720D01*
X0258007Y0013050D01*
X0258093Y0013381D01*
X0258171Y0013715D01*
X0258241Y0014050D01*
X0258303Y0014387D01*
X0258356Y0014725D01*
X0258402Y0015065D01*
X0258439Y0015405D01*
X0258468Y0015746D01*
X0258488Y0016088D01*
X0258501Y0016431D01*
X0258505Y0016773D01*
X0258506Y0016773D02*
X0258506Y0208899D01*
X0258505Y0208899D02*
X0258501Y0209241D01*
X0258488Y0209584D01*
X0258468Y0209926D01*
X0258439Y0210267D01*
X0258402Y0210607D01*
X0258356Y0210947D01*
X0258303Y0211285D01*
X0258241Y0211622D01*
X0258171Y0211957D01*
X0258093Y0212291D01*
X0258007Y0212622D01*
X0257913Y0212952D01*
X0257811Y0213279D01*
X0257702Y0213603D01*
X0257584Y0213925D01*
X0257459Y0214244D01*
X0257326Y0214559D01*
X0257185Y0214872D01*
X0257037Y0215180D01*
X0256882Y0215486D01*
X0256719Y0215787D01*
X0256549Y0216084D01*
X0256372Y0216377D01*
X0256187Y0216666D01*
X0255996Y0216950D01*
X0255798Y0217230D01*
X0255594Y0217504D01*
X0255382Y0217774D01*
X0255165Y0218038D01*
X0254941Y0218297D01*
X0254710Y0218551D01*
X0254474Y0218799D01*
X0254232Y0219041D01*
X0253984Y0219277D01*
X0253730Y0219508D01*
X0253471Y0219732D01*
X0253207Y0219949D01*
X0252937Y0220161D01*
X0252663Y0220365D01*
X0252383Y0220563D01*
X0252099Y0220754D01*
X0251810Y0220939D01*
X0251517Y0221116D01*
X0251220Y0221286D01*
X0250919Y0221449D01*
X0250613Y0221604D01*
X0250305Y0221752D01*
X0249992Y0221893D01*
X0249677Y0222026D01*
X0249358Y0222151D01*
X0249036Y0222269D01*
X0248712Y0222378D01*
X0248385Y0222480D01*
X0248055Y0222574D01*
X0247724Y0222660D01*
X0247390Y0222738D01*
X0247055Y0222808D01*
X0246718Y0222870D01*
X0246380Y0222923D01*
X0246040Y0222969D01*
X0245700Y0223006D01*
X0245359Y0223035D01*
X0245017Y0223055D01*
X0244674Y0223068D01*
X0244332Y0223072D01*
X0016773Y0223072D01*
X0016431Y0223068D01*
X0016088Y0223055D01*
X0015746Y0223035D01*
X0015405Y0223006D01*
X0015065Y0222969D01*
X0014725Y0222923D01*
X0014387Y0222870D01*
X0014050Y0222808D01*
X0013715Y0222738D01*
X0013381Y0222660D01*
X0013050Y0222574D01*
X0012720Y0222480D01*
X0012393Y0222378D01*
X0012069Y0222269D01*
X0011747Y0222151D01*
X0011428Y0222026D01*
X0011113Y0221893D01*
X0010800Y0221752D01*
X0010492Y0221604D01*
X0010186Y0221449D01*
X0009885Y0221286D01*
X0009588Y0221116D01*
X0009295Y0220939D01*
X0009006Y0220754D01*
X0008722Y0220563D01*
X0008442Y0220365D01*
X0008168Y0220161D01*
X0007898Y0219949D01*
X0007634Y0219732D01*
X0007375Y0219508D01*
X0007121Y0219277D01*
X0006873Y0219041D01*
X0006631Y0218799D01*
X0006395Y0218551D01*
X0006164Y0218297D01*
X0005940Y0218038D01*
X0005723Y0217774D01*
X0005511Y0217504D01*
X0005307Y0217230D01*
X0005109Y0216950D01*
X0004918Y0216666D01*
X0004733Y0216377D01*
X0004556Y0216084D01*
X0004386Y0215787D01*
X0004223Y0215486D01*
X0004068Y0215180D01*
X0003920Y0214872D01*
X0003779Y0214559D01*
X0003646Y0214244D01*
X0003521Y0213925D01*
X0003403Y0213603D01*
X0003294Y0213279D01*
X0003192Y0212952D01*
X0003098Y0212622D01*
X0003012Y0212291D01*
X0002934Y0211957D01*
X0002864Y0211622D01*
X0002802Y0211285D01*
X0002749Y0210947D01*
X0002703Y0210607D01*
X0002666Y0210267D01*
X0002637Y0209926D01*
X0002617Y0209584D01*
X0002604Y0209241D01*
X0002600Y0208899D01*
X0002600Y0016773D01*
X0002604Y0016431D01*
X0002617Y0016088D01*
X0002637Y0015746D01*
X0002666Y0015405D01*
X0002703Y0015065D01*
X0002749Y0014725D01*
X0002802Y0014387D01*
X0002864Y0014050D01*
X0002934Y0013715D01*
X0003012Y0013381D01*
X0003098Y0013050D01*
X0003192Y0012720D01*
X0003294Y0012393D01*
X0003403Y0012069D01*
X0003521Y0011747D01*
X0003646Y0011428D01*
X0003779Y0011113D01*
X0003920Y0010800D01*
X0004068Y0010492D01*
X0004223Y0010186D01*
X0004386Y0009885D01*
X0004556Y0009588D01*
X0004733Y0009295D01*
X0004918Y0009006D01*
X0005109Y0008722D01*
X0005307Y0008442D01*
X0005511Y0008168D01*
X0005723Y0007898D01*
X0005940Y0007634D01*
X0006164Y0007375D01*
X0006395Y0007121D01*
X0006631Y0006873D01*
X0006873Y0006631D01*
X0007121Y0006395D01*
X0007375Y0006164D01*
X0007634Y0005940D01*
X0007898Y0005723D01*
X0008168Y0005511D01*
X0008442Y0005307D01*
X0008722Y0005109D01*
X0009006Y0004918D01*
X0009295Y0004733D01*
X0009588Y0004556D01*
X0009885Y0004386D01*
X0010186Y0004223D01*
X0010492Y0004068D01*
X0010800Y0003920D01*
X0011113Y0003779D01*
X0011428Y0003646D01*
X0011747Y0003521D01*
X0012069Y0003403D01*
X0012393Y0003294D01*
X0012720Y0003192D01*
X0013050Y0003098D01*
X0013381Y0003012D01*
X0013715Y0002934D01*
X0014050Y0002864D01*
X0014387Y0002802D01*
X0014725Y0002749D01*
X0015065Y0002703D01*
X0015405Y0002666D01*
X0015746Y0002637D01*
X0016088Y0002617D01*
X0016431Y0002604D01*
X0016773Y0002600D01*
D11*
X0071225Y0053606D02*
X0071579Y0053281D01*
X0071970Y0053002D01*
X0072393Y0052772D01*
X0072840Y0052596D01*
X0073306Y0052476D01*
X0073782Y0052413D01*
X0074263Y0052409D01*
X0074741Y0052463D01*
X0075208Y0052575D01*
X0075658Y0052744D01*
X0076084Y0052965D01*
X0076481Y0053238D01*
X0076841Y0053556D01*
X0077159Y0053916D01*
X0077431Y0054313D01*
X0077654Y0054739D01*
X0077822Y0055189D01*
X0077934Y0055657D01*
X0077988Y0056134D01*
X0077984Y0056615D01*
X0077921Y0057091D01*
X0077801Y0057557D01*
X0077625Y0058004D01*
X0077396Y0058426D01*
X0077117Y0058818D01*
X0076792Y0059172D01*
X0076426Y0059484D01*
X0076025Y0059750D01*
X0075595Y0059964D01*
X0075142Y0060125D01*
X0074672Y0060229D01*
X0074194Y0060275D01*
X0073714Y0060262D01*
X0073509Y0060239D01*
X0073038Y0060143D01*
X0072582Y0059991D01*
X0072148Y0059783D01*
X0071743Y0059525D01*
X0071372Y0059220D01*
X0071041Y0058871D01*
X0070755Y0058484D01*
X0070518Y0058066D01*
X0070334Y0057622D01*
X0070206Y0057159D01*
X0070135Y0056683D01*
X0070122Y0056203D01*
X0070168Y0055724D01*
X0070272Y0055255D01*
X0070433Y0054802D01*
X0070647Y0054372D01*
X0070913Y0053971D01*
X0071225Y0053606D01*
X0104934Y0087218D02*
X0105294Y0086899D01*
X0105691Y0086627D01*
X0106117Y0086405D01*
X0106567Y0086237D01*
X0107035Y0086124D01*
X0107512Y0086070D01*
X0107718Y0086065D01*
X0153593Y0086070D01*
X0154071Y0086124D01*
X0154538Y0086237D01*
X0154989Y0086405D01*
X0155415Y0086627D01*
X0155811Y0086899D01*
X0156171Y0087218D01*
X0156490Y0087578D01*
X0156762Y0087974D01*
X0156984Y0088400D01*
X0157152Y0088851D01*
X0157265Y0089318D01*
X0157319Y0089796D01*
X0157324Y0090002D01*
X0157324Y0104967D01*
X0170129Y0104968D01*
X0170606Y0105022D01*
X0171074Y0105134D01*
X0171524Y0105303D01*
X0171950Y0105524D01*
X0172346Y0105797D01*
X0172707Y0106115D01*
X0173025Y0106476D01*
X0173298Y0106872D01*
X0173519Y0107298D01*
X0173688Y0107748D01*
X0173800Y0108216D01*
X0173854Y0108693D01*
X0173860Y0108899D01*
X0173860Y0116773D01*
X0173830Y0117253D01*
X0173743Y0117726D01*
X0173598Y0118184D01*
X0173399Y0118622D01*
X0173148Y0119031D01*
X0172848Y0119407D01*
X0172506Y0119744D01*
X0172124Y0120037D01*
X0171710Y0120281D01*
X0171269Y0120473D01*
X0170808Y0120609D01*
X0170334Y0120689D01*
X0169923Y0120710D01*
X0157324Y0120709D01*
X0157324Y0135671D01*
X0157295Y0136150D01*
X0157207Y0136623D01*
X0157063Y0137082D01*
X0156863Y0137519D01*
X0156612Y0137929D01*
X0156313Y0138305D01*
X0155970Y0138642D01*
X0155589Y0138935D01*
X0155175Y0139179D01*
X0154734Y0139370D01*
X0154273Y0139507D01*
X0153799Y0139586D01*
X0153387Y0139608D01*
X0107512Y0139602D01*
X0107035Y0139548D01*
X0106567Y0139436D01*
X0106117Y0139267D01*
X0105691Y0139046D01*
X0105294Y0138773D01*
X0104934Y0138455D01*
X0104616Y0138094D01*
X0104343Y0137698D01*
X0104122Y0137272D01*
X0103953Y0136822D01*
X0103841Y0136354D01*
X0103787Y0135877D01*
X0103781Y0135671D01*
X0103783Y0120706D01*
X0090977Y0120705D01*
X0090499Y0120650D01*
X0090031Y0120538D01*
X0089581Y0120370D01*
X0089155Y0120148D01*
X0088759Y0119876D01*
X0088399Y0119557D01*
X0088080Y0119197D01*
X0087808Y0118801D01*
X0087586Y0118374D01*
X0087418Y0117924D01*
X0087306Y0117457D01*
X0087251Y0116979D01*
X0087246Y0116773D01*
X0087251Y0108693D01*
X0087306Y0108216D01*
X0087418Y0107748D01*
X0087586Y0107298D01*
X0087808Y0106872D01*
X0088080Y0106476D01*
X0088399Y0106115D01*
X0088759Y0105797D01*
X0089155Y0105524D01*
X0089581Y0105303D01*
X0090031Y0105134D01*
X0090499Y0105022D01*
X0090977Y0104968D01*
X0091183Y0104962D01*
X0103785Y0104963D01*
X0103787Y0089796D01*
X0103841Y0089318D01*
X0103953Y0088851D01*
X0104122Y0088400D01*
X0104343Y0087974D01*
X0104616Y0087578D01*
X0104934Y0087218D01*
X0183326Y0057622D02*
X0183198Y0057159D01*
X0183127Y0056683D01*
X0183114Y0056203D01*
X0183160Y0055724D01*
X0183264Y0055255D01*
X0183425Y0054802D01*
X0183639Y0054372D01*
X0183905Y0053971D01*
X0184217Y0053606D01*
X0184571Y0053281D01*
X0184963Y0053002D01*
X0185385Y0052772D01*
X0185832Y0052596D01*
X0186298Y0052476D01*
X0186774Y0052413D01*
X0187255Y0052409D01*
X0187732Y0052463D01*
X0188200Y0052575D01*
X0188650Y0052744D01*
X0189076Y0052965D01*
X0189473Y0053238D01*
X0189833Y0053556D01*
X0190151Y0053916D01*
X0190424Y0054313D01*
X0190645Y0054739D01*
X0190814Y0055189D01*
X0190926Y0055657D01*
X0190980Y0056134D01*
X0190976Y0056615D01*
X0190913Y0057091D01*
X0190793Y0057557D01*
X0190617Y0058004D01*
X0190387Y0058426D01*
X0190108Y0058818D01*
X0189783Y0059172D01*
X0189418Y0059484D01*
X0189017Y0059750D01*
X0188587Y0059964D01*
X0188134Y0060125D01*
X0187665Y0060229D01*
X0187186Y0060275D01*
X0186706Y0060262D01*
X0186501Y0060239D01*
X0186030Y0060143D01*
X0185574Y0059991D01*
X0185140Y0059783D01*
X0184735Y0059525D01*
X0184364Y0059220D01*
X0184033Y0058871D01*
X0183747Y0058484D01*
X0183510Y0058066D01*
X0183326Y0057622D01*
X0172491Y0160480D02*
X0162443Y0160474D01*
X0162237Y0160480D01*
X0161759Y0160534D01*
X0161291Y0160646D01*
X0160841Y0160814D01*
X0160415Y0161036D01*
X0160019Y0161309D01*
X0159659Y0161627D01*
X0159340Y0161987D01*
X0159068Y0162383D01*
X0158846Y0162810D01*
X0158678Y0163260D01*
X0158565Y0163727D01*
X0158511Y0164205D01*
X0158506Y0174254D01*
X0158511Y0174459D01*
X0158565Y0174937D01*
X0158678Y0175404D01*
X0158846Y0175855D01*
X0159068Y0176281D01*
X0159340Y0176677D01*
X0159659Y0177037D01*
X0160019Y0177356D01*
X0160415Y0177628D01*
X0160841Y0177850D01*
X0161291Y0178019D01*
X0161759Y0178131D01*
X0162237Y0178185D01*
X0172285Y0178191D01*
X0172696Y0178169D01*
X0173170Y0178090D01*
X0173631Y0177953D01*
X0174072Y0177761D01*
X0174487Y0177517D01*
X0174868Y0177225D01*
X0175211Y0176888D01*
X0175510Y0176512D01*
X0175761Y0176102D01*
X0175961Y0175665D01*
X0176105Y0175206D01*
X0176193Y0174733D01*
X0176222Y0174254D01*
X0176222Y0164411D01*
X0176217Y0164205D01*
X0176162Y0163727D01*
X0176050Y0163260D01*
X0175881Y0162810D01*
X0175660Y0162383D01*
X0175387Y0161987D01*
X0175069Y0161627D01*
X0174709Y0161309D01*
X0174313Y0161036D01*
X0173886Y0160814D01*
X0173436Y0160646D01*
X0172969Y0160534D01*
X0172491Y0160480D01*
X0183747Y0167188D02*
X0184033Y0166802D01*
X0184364Y0166453D01*
X0184735Y0166147D01*
X0185140Y0165889D01*
X0185574Y0165682D01*
X0186030Y0165530D01*
X0186501Y0165433D01*
X0186706Y0165410D01*
X0187186Y0165398D01*
X0187665Y0165444D01*
X0188134Y0165548D01*
X0188587Y0165708D01*
X0189017Y0165923D01*
X0189418Y0166188D01*
X0189783Y0166500D01*
X0190108Y0166855D01*
X0190387Y0167246D01*
X0190617Y0167669D01*
X0190793Y0168116D01*
X0190913Y0168581D01*
X0190976Y0169057D01*
X0190980Y0169538D01*
X0190926Y0170016D01*
X0190814Y0170483D01*
X0190645Y0170933D01*
X0190424Y0171360D01*
X0190151Y0171756D01*
X0189833Y0172116D01*
X0189473Y0172435D01*
X0189076Y0172707D01*
X0188650Y0172929D01*
X0188200Y0173097D01*
X0187732Y0173209D01*
X0187255Y0173264D01*
X0186774Y0173259D01*
X0186298Y0173197D01*
X0185832Y0173077D01*
X0185385Y0172900D01*
X0184963Y0172671D01*
X0184571Y0172392D01*
X0184217Y0172067D01*
X0183905Y0171702D01*
X0183639Y0171301D01*
X0183425Y0170870D01*
X0183264Y0170417D01*
X0183160Y0169948D01*
X0183114Y0169470D01*
X0183127Y0168989D01*
X0183198Y0168514D01*
X0183326Y0168050D01*
X0183510Y0167606D01*
X0183747Y0167188D01*
X0077984Y0169057D02*
X0077988Y0169538D01*
X0077934Y0170016D01*
X0077822Y0170483D01*
X0077654Y0170933D01*
X0077431Y0171360D01*
X0077159Y0171756D01*
X0076841Y0172116D01*
X0076481Y0172435D01*
X0076084Y0172707D01*
X0075658Y0172929D01*
X0075208Y0173097D01*
X0074741Y0173209D01*
X0074263Y0173264D01*
X0073782Y0173259D01*
X0073306Y0173197D01*
X0072840Y0173077D01*
X0072393Y0172900D01*
X0071970Y0172671D01*
X0071579Y0172392D01*
X0071225Y0172067D01*
X0070913Y0171702D01*
X0070647Y0171301D01*
X0070433Y0170870D01*
X0070272Y0170417D01*
X0070168Y0169948D01*
X0070122Y0169470D01*
X0070135Y0168989D01*
X0070206Y0168514D01*
X0070334Y0168050D01*
X0070518Y0167606D01*
X0070755Y0167188D01*
X0071041Y0166802D01*
X0071372Y0166453D01*
X0071743Y0166147D01*
X0072148Y0165889D01*
X0072582Y0165682D01*
X0073038Y0165530D01*
X0073509Y0165433D01*
X0073714Y0165410D01*
X0074194Y0165398D01*
X0074672Y0165444D01*
X0075142Y0165548D01*
X0075595Y0165708D01*
X0076025Y0165923D01*
X0076426Y0166188D01*
X0076792Y0166500D01*
X0077117Y0166855D01*
X0077396Y0167246D01*
X0077625Y0167669D01*
X0077801Y0168116D01*
X0077921Y0168581D01*
X0077984Y0169057D01*
D12*
X0089214Y0186970D02*
X0089214Y0199962D01*
X0171891Y0199962D02*
X0171891Y0186970D01*
X0171891Y0038702D02*
X0171891Y0025710D01*
X0089214Y0025710D02*
X0089214Y0038702D01*
D13*
X0099057Y0027521D02*
X0099057Y0016891D01*
X0162049Y0016891D02*
X0162049Y0027521D01*
X0162049Y0198151D02*
X0162049Y0208781D01*
X0099057Y0208781D02*
X0099057Y0198151D01*
D14*
X0016773Y0208899D03*
X0016773Y0016773D03*
X0244332Y0016773D03*
X0244332Y0208899D03*
D15*
X0220100Y0020600D02*
X0220100Y0014600D01*
X0210100Y0014600D02*
X0210100Y0020600D01*
X0200100Y0020600D02*
X0200100Y0014600D01*
X0190100Y0014600D02*
X0190100Y0020600D01*
D16*
X0070100Y0207600D03*
X0050415Y0207600D03*
D17*
X0062113Y0207305D02*
X0063200Y0207305D01*
X0063200Y0207600D02*
X0063200Y0203044D01*
X0063300Y0202542D01*
X0063496Y0202068D01*
X0063780Y0201643D01*
X0064143Y0201280D01*
X0064568Y0200996D01*
X0065042Y0200800D01*
X0065544Y0200700D01*
X0070100Y0200700D01*
X0074656Y0200700D01*
X0075158Y0200800D01*
X0075632Y0200996D01*
X0076057Y0201280D01*
X0076420Y0201643D01*
X0076704Y0202068D01*
X0076900Y0202542D01*
X0077000Y0203044D01*
X0077000Y0207600D01*
X0077000Y0212156D01*
X0076900Y0212658D01*
X0076704Y0213132D01*
X0076420Y0213557D01*
X0076057Y0213920D01*
X0075632Y0214204D01*
X0075158Y0214400D01*
X0074656Y0214500D01*
X0070100Y0214500D01*
X0070100Y0207600D01*
X0077000Y0207600D01*
X0070100Y0207600D01*
X0070100Y0207600D01*
X0070100Y0207600D01*
X0070100Y0200700D01*
X0070100Y0207600D01*
X0070100Y0207600D01*
X0070100Y0207600D01*
X0063200Y0207600D01*
X0063200Y0212156D01*
X0063300Y0212658D01*
X0063496Y0213132D01*
X0063780Y0213557D01*
X0064143Y0213920D01*
X0064568Y0214204D01*
X0065042Y0214400D01*
X0065544Y0214500D01*
X0070100Y0214500D01*
X0070100Y0207600D01*
X0063200Y0207600D01*
X0063200Y0204106D02*
X0062113Y0204106D01*
X0062113Y0200908D02*
X0064781Y0200908D01*
X0062113Y0197709D02*
X0080118Y0197709D01*
X0080118Y0200558D02*
X0080118Y0194031D01*
X0088649Y0194031D01*
X0088649Y0192901D01*
X0089780Y0192901D01*
X0089780Y0177874D01*
X0089810Y0177874D01*
X0090993Y0178030D01*
X0092144Y0178338D01*
X0093246Y0178795D01*
X0094279Y0179391D01*
X0095224Y0180117D01*
X0096068Y0180960D01*
X0096793Y0181906D01*
X0097390Y0182938D01*
X0097846Y0184040D01*
X0098155Y0185192D01*
X0098310Y0186374D01*
X0098310Y0190266D01*
X0098538Y0190236D01*
X0099057Y0190236D01*
X0099575Y0190236D01*
X0100604Y0190372D01*
X0101606Y0190640D01*
X0102565Y0191037D01*
X0103463Y0191556D01*
X0104287Y0192188D01*
X0105020Y0192921D01*
X0105652Y0193744D01*
X0106171Y0194643D01*
X0106568Y0195602D01*
X0106836Y0196604D01*
X0106972Y0197632D01*
X0106972Y0203466D01*
X0099057Y0203466D01*
X0099057Y0203466D01*
X0106972Y0203466D01*
X0106972Y0209300D01*
X0106836Y0210329D01*
X0106568Y0211331D01*
X0106171Y0212289D01*
X0105652Y0213188D01*
X0105020Y0214011D01*
X0104287Y0214745D01*
X0103463Y0215376D01*
X0102565Y0215895D01*
X0101606Y0216292D01*
X0100604Y0216561D01*
X0099575Y0216696D01*
X0099057Y0216696D01*
X0099057Y0203466D01*
X0099057Y0190236D01*
X0099057Y0203466D01*
X0099057Y0203466D01*
X0099057Y0203466D01*
X0099057Y0216696D01*
X0098538Y0216696D01*
X0097509Y0216561D01*
X0096507Y0216292D01*
X0095548Y0215895D01*
X0094650Y0215376D01*
X0093827Y0214745D01*
X0093093Y0214011D01*
X0092462Y0213188D01*
X0091943Y0212289D01*
X0091546Y0211331D01*
X0091277Y0210329D01*
X0091142Y0209300D01*
X0091142Y0208863D01*
X0090993Y0208903D01*
X0089810Y0209058D01*
X0089780Y0209058D01*
X0089780Y0194032D01*
X0088649Y0194032D01*
X0088649Y0209058D01*
X0088618Y0209058D01*
X0087436Y0208903D01*
X0086284Y0208594D01*
X0085182Y0208138D01*
X0084150Y0207542D01*
X0083204Y0206816D01*
X0082361Y0205973D01*
X0081635Y0205027D01*
X0081039Y0203994D01*
X0080582Y0202892D01*
X0080274Y0201741D01*
X0080118Y0200558D01*
X0080164Y0200908D02*
X0075419Y0200908D01*
X0077000Y0204106D02*
X0081103Y0204106D01*
X0083841Y0207305D02*
X0077000Y0207305D01*
X0077000Y0210503D02*
X0091324Y0210503D01*
X0092856Y0213702D02*
X0076275Y0213702D01*
X0070100Y0213702D02*
X0070100Y0213702D01*
X0070100Y0210503D02*
X0070100Y0210503D01*
X0070100Y0207305D02*
X0070100Y0207305D01*
X0070100Y0204106D02*
X0070100Y0204106D01*
X0070100Y0200908D02*
X0070100Y0200908D01*
X0062113Y0194511D02*
X0080118Y0194511D01*
X0080118Y0192901D02*
X0080118Y0186374D01*
X0080274Y0185192D01*
X0080582Y0184040D01*
X0081039Y0182938D01*
X0081635Y0181906D01*
X0082361Y0180960D01*
X0083204Y0180117D01*
X0084150Y0179391D01*
X0085182Y0178795D01*
X0086284Y0178338D01*
X0087436Y0178030D01*
X0088618Y0177874D01*
X0088649Y0177874D01*
X0088649Y0192901D01*
X0080118Y0192901D01*
X0080118Y0191312D02*
X0062113Y0191312D01*
X0062113Y0188114D02*
X0080118Y0188114D01*
X0080348Y0184915D02*
X0062113Y0184915D01*
X0062113Y0181717D02*
X0081780Y0181717D01*
X0085850Y0178518D02*
X0062113Y0178518D01*
X0062113Y0176975D02*
X0062113Y0220472D01*
X0148225Y0220472D01*
X0148225Y0176975D01*
X0062113Y0176975D01*
X0088649Y0178518D02*
X0089780Y0178518D01*
X0092578Y0178518D02*
X0148225Y0178518D01*
X0148225Y0181717D02*
X0096648Y0181717D01*
X0098080Y0184915D02*
X0148225Y0184915D01*
X0148225Y0188114D02*
X0098310Y0188114D01*
X0099057Y0191312D02*
X0099057Y0191312D01*
X0099057Y0194511D02*
X0099057Y0194511D01*
X0099057Y0197709D02*
X0099057Y0197709D01*
X0099057Y0200908D02*
X0099057Y0200908D01*
X0099057Y0204106D02*
X0099057Y0204106D01*
X0099057Y0207305D02*
X0099057Y0207305D01*
X0099057Y0210503D02*
X0099057Y0210503D01*
X0099057Y0213702D02*
X0099057Y0213702D01*
X0105258Y0213702D02*
X0148225Y0213702D01*
X0148225Y0210503D02*
X0106789Y0210503D01*
X0106972Y0207305D02*
X0148225Y0207305D01*
X0148225Y0204106D02*
X0106972Y0204106D01*
X0106972Y0200908D02*
X0148225Y0200908D01*
X0148225Y0197709D02*
X0106972Y0197709D01*
X0106094Y0194511D02*
X0148225Y0194511D01*
X0148225Y0191312D02*
X0103041Y0191312D01*
X0089780Y0191312D02*
X0088649Y0191312D01*
X0088649Y0188114D02*
X0089780Y0188114D01*
X0089780Y0184915D02*
X0088649Y0184915D01*
X0088649Y0181717D02*
X0089780Y0181717D01*
X0089780Y0194511D02*
X0088649Y0194511D01*
X0088649Y0197709D02*
X0089780Y0197709D01*
X0089780Y0200908D02*
X0088649Y0200908D01*
X0088649Y0204106D02*
X0089780Y0204106D01*
X0089780Y0207305D02*
X0088649Y0207305D01*
X0063925Y0213702D02*
X0062113Y0213702D01*
X0062113Y0210503D02*
X0063200Y0210503D01*
X0062113Y0216900D02*
X0148225Y0216900D01*
X0148225Y0220099D02*
X0062113Y0220099D01*
X0028225Y0202535D02*
X0028225Y0064230D01*
X0028891Y0062622D01*
X0050725Y0040788D01*
X0050725Y0005200D01*
X0022911Y0005200D01*
X0023516Y0005523D01*
X0024586Y0006239D01*
X0025581Y0007055D01*
X0026491Y0007965D01*
X0027308Y0008960D01*
X0028023Y0010030D01*
X0028630Y0011165D01*
X0029122Y0012355D01*
X0029496Y0013586D01*
X0029747Y0014849D01*
X0029823Y0015617D01*
X0017929Y0015617D01*
X0017929Y0017929D01*
X0015617Y0017929D01*
X0015617Y0029823D01*
X0014849Y0029747D01*
X0013586Y0029496D01*
X0012355Y0029122D01*
X0011165Y0028630D01*
X0010030Y0028023D01*
X0008960Y0027308D01*
X0007965Y0026491D01*
X0007055Y0025581D01*
X0006239Y0024586D01*
X0005523Y0023516D01*
X0005200Y0022911D01*
X0005200Y0202761D01*
X0005523Y0202156D01*
X0006239Y0201086D01*
X0007055Y0200091D01*
X0007965Y0199181D01*
X0008960Y0198365D01*
X0010030Y0197649D01*
X0011165Y0197043D01*
X0012355Y0196550D01*
X0013586Y0196176D01*
X0014849Y0195925D01*
X0015617Y0195850D01*
X0015617Y0207743D01*
X0017929Y0207743D01*
X0017929Y0195850D01*
X0018698Y0195925D01*
X0019960Y0196176D01*
X0021192Y0196550D01*
X0022381Y0197043D01*
X0023516Y0197649D01*
X0024586Y0198365D01*
X0025581Y0199181D01*
X0026491Y0200091D01*
X0027308Y0201086D01*
X0028023Y0202156D01*
X0028225Y0202535D01*
X0028225Y0200908D02*
X0027161Y0200908D01*
X0028225Y0197709D02*
X0023606Y0197709D01*
X0028225Y0194511D02*
X0005200Y0194511D01*
X0005200Y0197709D02*
X0009941Y0197709D01*
X0006385Y0200908D02*
X0005200Y0200908D01*
X0015617Y0200908D02*
X0017929Y0200908D01*
X0017929Y0204106D02*
X0015617Y0204106D01*
X0015617Y0207305D02*
X0017929Y0207305D01*
X0017929Y0197709D02*
X0015617Y0197709D01*
X0005200Y0191312D02*
X0028225Y0191312D01*
X0028225Y0188114D02*
X0005200Y0188114D01*
X0005200Y0184915D02*
X0028225Y0184915D01*
X0028225Y0181717D02*
X0005200Y0181717D01*
X0005200Y0178518D02*
X0028225Y0178518D01*
X0028225Y0175320D02*
X0005200Y0175320D01*
X0005200Y0172121D02*
X0028225Y0172121D01*
X0028225Y0168923D02*
X0005200Y0168923D01*
X0005200Y0165724D02*
X0028225Y0165724D01*
X0028225Y0162526D02*
X0005200Y0162526D01*
X0005200Y0159327D02*
X0028225Y0159327D01*
X0028225Y0156129D02*
X0005200Y0156129D01*
X0005200Y0152930D02*
X0028225Y0152930D01*
X0028225Y0149732D02*
X0005200Y0149732D01*
X0005200Y0146533D02*
X0028225Y0146533D01*
X0028225Y0143334D02*
X0005200Y0143334D01*
X0005200Y0140136D02*
X0028225Y0140136D01*
X0028225Y0136937D02*
X0005200Y0136937D01*
X0005200Y0133739D02*
X0028225Y0133739D01*
X0028225Y0130540D02*
X0005200Y0130540D01*
X0005200Y0127342D02*
X0028225Y0127342D01*
X0028225Y0124143D02*
X0005200Y0124143D01*
X0005200Y0120945D02*
X0028225Y0120945D01*
X0028225Y0117746D02*
X0005200Y0117746D01*
X0005200Y0114548D02*
X0028225Y0114548D01*
X0028225Y0111349D02*
X0005200Y0111349D01*
X0005200Y0108151D02*
X0028225Y0108151D01*
X0028225Y0104952D02*
X0005200Y0104952D01*
X0005200Y0101754D02*
X0028225Y0101754D01*
X0028225Y0098555D02*
X0005200Y0098555D01*
X0005200Y0095357D02*
X0028225Y0095357D01*
X0028225Y0092158D02*
X0005200Y0092158D01*
X0005200Y0088960D02*
X0028225Y0088960D01*
X0028225Y0085761D02*
X0005200Y0085761D01*
X0005200Y0082563D02*
X0028225Y0082563D01*
X0028225Y0079364D02*
X0005200Y0079364D01*
X0005200Y0076166D02*
X0028225Y0076166D01*
X0028225Y0072967D02*
X0005200Y0072967D01*
X0005200Y0069769D02*
X0028225Y0069769D01*
X0028225Y0066570D02*
X0005200Y0066570D01*
X0005200Y0063372D02*
X0028581Y0063372D01*
X0031340Y0060173D02*
X0005200Y0060173D01*
X0005200Y0056975D02*
X0034538Y0056975D01*
X0037737Y0053776D02*
X0005200Y0053776D01*
X0005200Y0050578D02*
X0040935Y0050578D01*
X0044134Y0047379D02*
X0005200Y0047379D01*
X0005200Y0044181D02*
X0047332Y0044181D01*
X0050531Y0040982D02*
X0005200Y0040982D01*
X0005200Y0037784D02*
X0050725Y0037784D01*
X0050725Y0034585D02*
X0005200Y0034585D01*
X0005200Y0031387D02*
X0050725Y0031387D01*
X0050725Y0028188D02*
X0023207Y0028188D01*
X0023516Y0028023D02*
X0022381Y0028630D01*
X0021192Y0029122D01*
X0019960Y0029496D01*
X0018698Y0029747D01*
X0017929Y0029823D01*
X0017929Y0017929D01*
X0029823Y0017929D01*
X0029747Y0018698D01*
X0029496Y0019960D01*
X0029122Y0021192D01*
X0028630Y0022381D01*
X0028023Y0023516D01*
X0027308Y0024586D01*
X0026491Y0025581D01*
X0025581Y0026491D01*
X0024586Y0027308D01*
X0023516Y0028023D01*
X0026977Y0024990D02*
X0050725Y0024990D01*
X0050725Y0021791D02*
X0028874Y0021791D01*
X0029757Y0018593D02*
X0050725Y0018593D01*
X0050725Y0015394D02*
X0029801Y0015394D01*
X0029056Y0012196D02*
X0050725Y0012196D01*
X0050725Y0008997D02*
X0027333Y0008997D01*
X0023928Y0005799D02*
X0050725Y0005799D01*
X0017929Y0018593D02*
X0015617Y0018593D01*
X0015617Y0021791D02*
X0017929Y0021791D01*
X0017929Y0024990D02*
X0015617Y0024990D01*
X0015617Y0028188D02*
X0017929Y0028188D01*
X0010339Y0028188D02*
X0005200Y0028188D01*
X0005200Y0024990D02*
X0006569Y0024990D01*
X0066572Y0079364D02*
X0255906Y0079364D01*
X0255906Y0082563D02*
X0064613Y0082563D01*
X0064613Y0081287D02*
X0064613Y0144013D01*
X0205970Y0144013D01*
X0207578Y0144679D01*
X0208809Y0145909D01*
X0209475Y0147517D01*
X0209475Y0220472D01*
X0238195Y0220472D01*
X0237589Y0220149D01*
X0236519Y0219434D01*
X0235524Y0218617D01*
X0234614Y0217707D01*
X0233798Y0216712D01*
X0233082Y0215642D01*
X0232476Y0214507D01*
X0231983Y0213318D01*
X0231610Y0212086D01*
X0231358Y0210824D01*
X0231283Y0210055D01*
X0243176Y0210055D01*
X0243176Y0207743D01*
X0231283Y0207743D01*
X0231358Y0206975D01*
X0231610Y0205712D01*
X0231983Y0204481D01*
X0232476Y0203291D01*
X0233082Y0202156D01*
X0233798Y0201086D01*
X0234614Y0200091D01*
X0235524Y0199181D01*
X0236519Y0198365D01*
X0237589Y0197649D01*
X0238725Y0197043D01*
X0239914Y0196550D01*
X0241145Y0196176D01*
X0242408Y0195925D01*
X0243176Y0195850D01*
X0243176Y0207743D01*
X0245488Y0207743D01*
X0245488Y0195850D01*
X0246257Y0195925D01*
X0247519Y0196176D01*
X0248751Y0196550D01*
X0249940Y0197043D01*
X0251075Y0197649D01*
X0252145Y0198365D01*
X0253140Y0199181D01*
X0254050Y0200091D01*
X0254867Y0201086D01*
X0255582Y0202156D01*
X0255906Y0202761D01*
X0255906Y0022911D01*
X0255582Y0023516D01*
X0254867Y0024586D01*
X0254050Y0025581D01*
X0253140Y0026491D01*
X0252145Y0027308D01*
X0251075Y0028023D01*
X0249940Y0028630D01*
X0248751Y0029122D01*
X0247519Y0029496D01*
X0246257Y0029747D01*
X0245488Y0029823D01*
X0245488Y0017929D01*
X0243176Y0017929D01*
X0243176Y0015617D01*
X0231283Y0015617D01*
X0231358Y0014849D01*
X0231610Y0013586D01*
X0231983Y0012355D01*
X0232476Y0011165D01*
X0233082Y0010030D01*
X0233798Y0008960D01*
X0234614Y0007965D01*
X0235524Y0007055D01*
X0236519Y0006239D01*
X0237589Y0005523D01*
X0238195Y0005200D01*
X0119475Y0005200D01*
X0119475Y0053470D01*
X0118809Y0055078D01*
X0117578Y0056309D01*
X0115970Y0056975D01*
X0089388Y0056975D01*
X0064613Y0081287D01*
X0064613Y0085761D02*
X0102707Y0085761D01*
X0102765Y0085677D02*
X0102562Y0085973D01*
X0102324Y0086242D01*
X0102309Y0086285D01*
X0102273Y0086315D01*
X0102109Y0086632D01*
X0101906Y0086926D01*
X0101897Y0086971D01*
X0101866Y0087004D01*
X0101740Y0087341D01*
X0101574Y0087659D01*
X0101570Y0087704D01*
X0101544Y0087740D01*
X0101460Y0088088D01*
X0101335Y0088424D01*
X0101336Y0088470D01*
X0101314Y0088510D01*
X0101274Y0088866D01*
X0101190Y0089214D01*
X0101196Y0089251D01*
X0101185Y0089278D01*
X0101185Y0089648D01*
X0101143Y0090016D01*
X0101185Y0090161D01*
X0101183Y0102361D01*
X0091664Y0102360D01*
X0091630Y0102347D01*
X0091308Y0102356D01*
X0091197Y0102324D01*
X0090878Y0102360D01*
X0090665Y0102360D01*
X0090632Y0102374D01*
X0090445Y0102379D01*
X0090395Y0102371D01*
X0090047Y0102455D01*
X0089691Y0102495D01*
X0089650Y0102518D01*
X0089604Y0102516D01*
X0089269Y0102641D01*
X0088921Y0102725D01*
X0088884Y0102752D01*
X0088841Y0102755D01*
X0088521Y0102921D01*
X0088184Y0103048D01*
X0088152Y0103078D01*
X0088107Y0103087D01*
X0087813Y0103290D01*
X0087496Y0103454D01*
X0087466Y0103490D01*
X0087423Y0103505D01*
X0087154Y0103743D01*
X0086858Y0103946D01*
X0086834Y0103984D01*
X0086792Y0104004D01*
X0086555Y0104272D01*
X0086288Y0104509D01*
X0086267Y0104550D01*
X0086230Y0104575D01*
X0086026Y0104871D01*
X0085788Y0105140D01*
X0085774Y0105182D01*
X0085738Y0105212D01*
X0085573Y0105529D01*
X0085371Y0105823D01*
X0085361Y0105869D01*
X0085331Y0105901D01*
X0085205Y0106238D01*
X0085039Y0106557D01*
X0085035Y0106601D01*
X0085008Y0106638D01*
X0084925Y0106985D01*
X0084799Y0107320D01*
X0084801Y0107367D01*
X0084779Y0107407D01*
X0084738Y0107764D01*
X0084655Y0108112D01*
X0084660Y0108148D01*
X0084650Y0108174D01*
X0084649Y0108545D01*
X0084607Y0108913D01*
X0084649Y0109058D01*
X0084644Y0116291D01*
X0084631Y0116325D01*
X0084639Y0116647D01*
X0084607Y0116759D01*
X0084643Y0117076D01*
X0084643Y0117289D01*
X0084657Y0117323D01*
X0084663Y0117511D01*
X0084655Y0117560D01*
X0084738Y0117909D01*
X0084779Y0118265D01*
X0084801Y0118305D01*
X0084799Y0118352D01*
X0084925Y0118687D01*
X0085008Y0119035D01*
X0085035Y0119072D01*
X0085039Y0119115D01*
X0085205Y0119435D01*
X0085331Y0119772D01*
X0085361Y0119804D01*
X0085371Y0119849D01*
X0085573Y0120143D01*
X0085738Y0120460D01*
X0085774Y0120490D01*
X0085788Y0120533D01*
X0086026Y0120802D01*
X0086230Y0121098D01*
X0086267Y0121122D01*
X0086288Y0121164D01*
X0086555Y0121400D01*
X0086792Y0121668D01*
X0086834Y0121688D01*
X0086858Y0121726D01*
X0087154Y0121930D01*
X0087423Y0122168D01*
X0087466Y0122182D01*
X0087496Y0122218D01*
X0087813Y0122383D01*
X0088107Y0122585D01*
X0088152Y0122595D01*
X0088184Y0122625D01*
X0088521Y0122751D01*
X0088841Y0122917D01*
X0088884Y0122921D01*
X0088921Y0122948D01*
X0089269Y0123031D01*
X0089604Y0123156D01*
X0089650Y0123155D01*
X0089691Y0123177D01*
X0090047Y0123218D01*
X0090395Y0123301D01*
X0090432Y0123295D01*
X0090459Y0123307D01*
X0090829Y0123307D01*
X0091197Y0123349D01*
X0091343Y0123307D01*
X0101181Y0123308D01*
X0101179Y0135189D01*
X0101166Y0135223D01*
X0101175Y0135545D01*
X0101143Y0135657D01*
X0101179Y0135975D01*
X0101179Y0136188D01*
X0101193Y0136222D01*
X0101198Y0136409D01*
X0101190Y0136459D01*
X0101274Y0136807D01*
X0101314Y0137163D01*
X0101336Y0137203D01*
X0101335Y0137249D01*
X0101460Y0137584D01*
X0101544Y0137932D01*
X0101570Y0137969D01*
X0101574Y0138013D01*
X0101740Y0138332D01*
X0101866Y0138669D01*
X0101897Y0138701D01*
X0101906Y0138747D01*
X0102109Y0139041D01*
X0102273Y0139358D01*
X0102309Y0139388D01*
X0102324Y0139430D01*
X0102562Y0139699D01*
X0102765Y0139996D01*
X0102803Y0140020D01*
X0102823Y0140061D01*
X0103091Y0140298D01*
X0103328Y0140566D01*
X0103369Y0140586D01*
X0103393Y0140624D01*
X0103690Y0140827D01*
X0103959Y0141065D01*
X0104001Y0141080D01*
X0104031Y0141116D01*
X0104348Y0141280D01*
X0104642Y0141483D01*
X0104688Y0141492D01*
X0104720Y0141523D01*
X0105057Y0141649D01*
X0105376Y0141815D01*
X0105420Y0141819D01*
X0105457Y0141845D01*
X0105805Y0141929D01*
X0106140Y0142054D01*
X0106186Y0142053D01*
X0106226Y0142075D01*
X0106582Y0142115D01*
X0106930Y0142199D01*
X0106967Y0142193D01*
X0106994Y0142204D01*
X0107365Y0142204D01*
X0107732Y0142246D01*
X0107878Y0142204D01*
X0152940Y0142210D01*
X0153007Y0142233D01*
X0153456Y0142210D01*
X0153596Y0142210D01*
X0153717Y0142238D01*
X0153884Y0142210D01*
X0153905Y0142210D01*
X0153918Y0142204D01*
X0154082Y0142177D01*
X0154452Y0142157D01*
X0154478Y0142145D01*
X0154516Y0142149D01*
X0154859Y0142047D01*
X0155212Y0141988D01*
X0155251Y0141964D01*
X0155297Y0141963D01*
X0155626Y0141820D01*
X0155969Y0141718D01*
X0156005Y0141690D01*
X0156050Y0141683D01*
X0156359Y0141501D01*
X0156687Y0141359D01*
X0156719Y0141326D01*
X0156763Y0141314D01*
X0157047Y0141096D01*
X0157356Y0140913D01*
X0157383Y0140878D01*
X0157425Y0140861D01*
X0157680Y0140609D01*
X0157965Y0140391D01*
X0157987Y0140352D01*
X0158027Y0140330D01*
X0158250Y0140050D01*
X0158506Y0139798D01*
X0158524Y0139757D01*
X0158560Y0139730D01*
X0158747Y0139425D01*
X0158970Y0139144D01*
X0158983Y0139101D01*
X0159016Y0139070D01*
X0159165Y0138744D01*
X0159352Y0138438D01*
X0159359Y0138393D01*
X0159389Y0138357D01*
X0159497Y0138016D01*
X0159645Y0137691D01*
X0159647Y0137644D01*
X0159672Y0137605D01*
X0159737Y0137253D01*
X0159845Y0136911D01*
X0159841Y0136866D01*
X0159860Y0136827D01*
X0159882Y0136468D01*
X0159948Y0136114D01*
X0159926Y0136015D01*
X0159926Y0135751D01*
X0159953Y0135314D01*
X0159926Y0135236D01*
X0159926Y0123312D01*
X0169476Y0123312D01*
X0169543Y0123336D01*
X0169991Y0123312D01*
X0170131Y0123312D01*
X0170252Y0123340D01*
X0170420Y0123312D01*
X0170440Y0123312D01*
X0170454Y0123307D01*
X0170618Y0123279D01*
X0170988Y0123260D01*
X0171014Y0123247D01*
X0171051Y0123251D01*
X0171394Y0123150D01*
X0171747Y0123091D01*
X0171786Y0123066D01*
X0171832Y0123065D01*
X0172161Y0122922D01*
X0172505Y0122821D01*
X0172540Y0122792D01*
X0172585Y0122786D01*
X0172894Y0122604D01*
X0173222Y0122461D01*
X0173254Y0122428D01*
X0173297Y0122417D01*
X0173582Y0122198D01*
X0173891Y0122016D01*
X0173919Y0121980D01*
X0173962Y0121962D01*
X0174216Y0121712D01*
X0174500Y0121494D01*
X0174523Y0121454D01*
X0174562Y0121433D01*
X0174786Y0121151D01*
X0175042Y0120899D01*
X0175059Y0120859D01*
X0175096Y0120832D01*
X0175283Y0120527D01*
X0175506Y0120247D01*
X0175518Y0120203D01*
X0175551Y0120173D01*
X0175700Y0119846D01*
X0175888Y0119540D01*
X0175895Y0119495D01*
X0175925Y0119460D01*
X0176032Y0119119D01*
X0176180Y0118794D01*
X0176182Y0118747D01*
X0176207Y0118708D01*
X0176272Y0118355D01*
X0176380Y0118014D01*
X0176376Y0117969D01*
X0176396Y0117930D01*
X0176418Y0117571D01*
X0176483Y0117218D01*
X0176462Y0117118D01*
X0176462Y0116853D01*
X0176489Y0116416D01*
X0176462Y0116338D01*
X0176462Y0109381D01*
X0176475Y0109347D01*
X0176466Y0109025D01*
X0176498Y0108913D01*
X0176462Y0108594D01*
X0176462Y0108382D01*
X0176448Y0108348D01*
X0176443Y0108162D01*
X0176451Y0108112D01*
X0176367Y0107764D01*
X0176327Y0107407D01*
X0176304Y0107367D01*
X0176306Y0107320D01*
X0176181Y0106985D01*
X0176097Y0106638D01*
X0176070Y0106601D01*
X0176067Y0106557D01*
X0175901Y0106238D01*
X0175775Y0105901D01*
X0175744Y0105869D01*
X0175735Y0105823D01*
X0175532Y0105529D01*
X0175368Y0105212D01*
X0175332Y0105182D01*
X0175317Y0105140D01*
X0175079Y0104871D01*
X0174876Y0104575D01*
X0174838Y0104550D01*
X0174818Y0104509D01*
X0174550Y0104272D01*
X0174313Y0104004D01*
X0174272Y0103984D01*
X0174248Y0103946D01*
X0173951Y0103743D01*
X0173682Y0103505D01*
X0173640Y0103490D01*
X0173610Y0103454D01*
X0173293Y0103290D01*
X0172999Y0103087D01*
X0172954Y0103078D01*
X0172921Y0103048D01*
X0172584Y0102921D01*
X0172265Y0102755D01*
X0172221Y0102752D01*
X0172184Y0102725D01*
X0171837Y0102641D01*
X0171502Y0102516D01*
X0171455Y0102518D01*
X0171415Y0102495D01*
X0171059Y0102455D01*
X0170710Y0102371D01*
X0170673Y0102377D01*
X0170647Y0102366D01*
X0170276Y0102366D01*
X0169909Y0102324D01*
X0169763Y0102366D01*
X0159926Y0102365D01*
X0159926Y0090483D01*
X0159939Y0090449D01*
X0159931Y0090127D01*
X0159963Y0090016D01*
X0159926Y0089697D01*
X0159926Y0089484D01*
X0159913Y0089451D01*
X0159908Y0089264D01*
X0159915Y0089214D01*
X0159832Y0088866D01*
X0159791Y0088510D01*
X0159769Y0088470D01*
X0159771Y0088424D01*
X0159645Y0088088D01*
X0159562Y0087740D01*
X0159535Y0087704D01*
X0159531Y0087659D01*
X0159365Y0087341D01*
X0159239Y0087004D01*
X0159209Y0086971D01*
X0159199Y0086926D01*
X0158997Y0086632D01*
X0158832Y0086315D01*
X0158797Y0086285D01*
X0158782Y0086242D01*
X0158544Y0085973D01*
X0158340Y0085677D01*
X0158303Y0085653D01*
X0158282Y0085611D01*
X0158015Y0085374D01*
X0157778Y0085106D01*
X0157736Y0085086D01*
X0157712Y0085049D01*
X0157416Y0084845D01*
X0157147Y0084607D01*
X0157104Y0084592D01*
X0157074Y0084557D01*
X0156757Y0084392D01*
X0156463Y0084190D01*
X0156418Y0084180D01*
X0156385Y0084149D01*
X0156048Y0084024D01*
X0155730Y0083858D01*
X0155685Y0083854D01*
X0155649Y0083827D01*
X0155301Y0083744D01*
X0154965Y0083618D01*
X0154919Y0083620D01*
X0154879Y0083598D01*
X0154523Y0083557D01*
X0154175Y0083474D01*
X0154138Y0083479D01*
X0154111Y0083468D01*
X0153741Y0083468D01*
X0153373Y0083426D01*
X0153228Y0083468D01*
X0108200Y0083463D01*
X0108166Y0083450D01*
X0107844Y0083458D01*
X0107732Y0083426D01*
X0107413Y0083463D01*
X0107201Y0083463D01*
X0107167Y0083476D01*
X0106980Y0083481D01*
X0106930Y0083474D01*
X0106582Y0083557D01*
X0106226Y0083598D01*
X0106186Y0083620D01*
X0106140Y0083618D01*
X0105805Y0083744D01*
X0105457Y0083827D01*
X0105420Y0083854D01*
X0105376Y0083858D01*
X0105057Y0084024D01*
X0104720Y0084149D01*
X0104688Y0084180D01*
X0104642Y0084190D01*
X0104348Y0084392D01*
X0104031Y0084557D01*
X0104001Y0084592D01*
X0103959Y0084607D01*
X0103690Y0084845D01*
X0103393Y0085049D01*
X0103369Y0085086D01*
X0103328Y0085106D01*
X0103091Y0085374D01*
X0102823Y0085611D01*
X0102803Y0085653D01*
X0102765Y0085677D01*
X0101251Y0088960D02*
X0064613Y0088960D01*
X0064613Y0092158D02*
X0101184Y0092158D01*
X0101184Y0095357D02*
X0064613Y0095357D01*
X0064613Y0098555D02*
X0101184Y0098555D01*
X0101183Y0101754D02*
X0064613Y0101754D01*
X0064613Y0104952D02*
X0085954Y0104952D01*
X0084659Y0108151D02*
X0064613Y0108151D01*
X0064613Y0111349D02*
X0084647Y0111349D01*
X0084645Y0114548D02*
X0064613Y0114548D01*
X0064613Y0117746D02*
X0084699Y0117746D01*
X0086125Y0120945D02*
X0064613Y0120945D01*
X0064613Y0124143D02*
X0101181Y0124143D01*
X0101180Y0127342D02*
X0064613Y0127342D01*
X0064613Y0130540D02*
X0101180Y0130540D01*
X0101179Y0133739D02*
X0064613Y0133739D01*
X0064613Y0136937D02*
X0101289Y0136937D01*
X0102908Y0140136D02*
X0064613Y0140136D01*
X0064613Y0143334D02*
X0255906Y0143334D01*
X0255906Y0140136D02*
X0158181Y0140136D01*
X0159837Y0136937D02*
X0255906Y0136937D01*
X0255906Y0133739D02*
X0159926Y0133739D01*
X0159926Y0130540D02*
X0255906Y0130540D01*
X0255906Y0127342D02*
X0159926Y0127342D01*
X0159926Y0124143D02*
X0255906Y0124143D01*
X0255906Y0120945D02*
X0174996Y0120945D01*
X0176407Y0117746D02*
X0255906Y0117746D01*
X0255906Y0114548D02*
X0176462Y0114548D01*
X0176462Y0111349D02*
X0255906Y0111349D01*
X0255906Y0108151D02*
X0176445Y0108151D01*
X0175152Y0104952D02*
X0255906Y0104952D01*
X0255906Y0101754D02*
X0159926Y0101754D01*
X0159926Y0098555D02*
X0255906Y0098555D01*
X0255906Y0095357D02*
X0159926Y0095357D01*
X0159926Y0092158D02*
X0255906Y0092158D01*
X0255906Y0088960D02*
X0159854Y0088960D01*
X0158398Y0085761D02*
X0255906Y0085761D01*
X0255906Y0076166D02*
X0069831Y0076166D01*
X0073091Y0072967D02*
X0255906Y0072967D01*
X0255906Y0069769D02*
X0076350Y0069769D01*
X0079610Y0066570D02*
X0255906Y0066570D01*
X0255906Y0063372D02*
X0082869Y0063372D01*
X0086129Y0060173D02*
X0181713Y0060173D01*
X0181737Y0060216D02*
X0181561Y0059904D01*
X0181348Y0059616D01*
X0181337Y0059572D01*
X0181304Y0059540D01*
X0181167Y0059209D01*
X0180991Y0058897D01*
X0180985Y0058852D01*
X0180958Y0058817D01*
X0180862Y0058471D01*
X0180724Y0058139D01*
X0180724Y0058094D01*
X0180700Y0058054D01*
X0180648Y0057701D01*
X0180552Y0057356D01*
X0180558Y0057310D01*
X0180539Y0057269D01*
X0180530Y0056910D01*
X0180477Y0056555D01*
X0180488Y0056512D01*
X0180475Y0056469D01*
X0180509Y0056112D01*
X0180500Y0055754D01*
X0180516Y0055711D01*
X0180508Y0055667D01*
X0180585Y0055317D01*
X0180620Y0054960D01*
X0180641Y0054920D01*
X0180639Y0054874D01*
X0180758Y0054536D01*
X0180836Y0054187D01*
X0180862Y0054149D01*
X0180865Y0054104D01*
X0181025Y0053783D01*
X0181145Y0053445D01*
X0181175Y0053411D01*
X0181184Y0053367D01*
X0181382Y0053068D01*
X0181542Y0052747D01*
X0181576Y0052718D01*
X0181590Y0052675D01*
X0181823Y0052402D01*
X0182021Y0052103D01*
X0182058Y0052078D01*
X0182078Y0052036D01*
X0182341Y0051795D01*
X0182573Y0051523D01*
X0182615Y0051502D01*
X0182639Y0051463D01*
X0182931Y0051255D01*
X0183196Y0051012D01*
X0183238Y0050997D01*
X0183266Y0050962D01*
X0183581Y0050791D01*
X0183873Y0050583D01*
X0183917Y0050573D01*
X0183949Y0050541D01*
X0184283Y0050410D01*
X0184598Y0050239D01*
X0184643Y0050234D01*
X0184681Y0050206D01*
X0185027Y0050116D01*
X0185359Y0049985D01*
X0185406Y0049986D01*
X0185445Y0049963D01*
X0185801Y0049916D01*
X0186149Y0049827D01*
X0186192Y0049833D01*
X0186233Y0049816D01*
X0186592Y0049813D01*
X0186948Y0049766D01*
X0186991Y0049777D01*
X0187035Y0049765D01*
X0187391Y0049805D01*
X0187749Y0049802D01*
X0187791Y0049819D01*
X0187836Y0049812D01*
X0188185Y0049896D01*
X0188541Y0049936D01*
X0188581Y0049959D01*
X0188628Y0049957D01*
X0188963Y0050082D01*
X0189310Y0050166D01*
X0189347Y0050193D01*
X0189391Y0050196D01*
X0189710Y0050362D01*
X0190047Y0050488D01*
X0190079Y0050518D01*
X0190123Y0050528D01*
X0190418Y0050730D01*
X0190736Y0050895D01*
X0190766Y0050931D01*
X0190810Y0050946D01*
X0191078Y0051184D01*
X0191373Y0051386D01*
X0191398Y0051425D01*
X0191438Y0051444D01*
X0191676Y0051713D01*
X0191945Y0051951D01*
X0191964Y0051991D01*
X0192002Y0052016D01*
X0192205Y0052311D01*
X0192443Y0052579D01*
X0192458Y0052623D01*
X0192494Y0052653D01*
X0192659Y0052971D01*
X0192861Y0053266D01*
X0192871Y0053310D01*
X0192901Y0053342D01*
X0193027Y0053679D01*
X0193193Y0053998D01*
X0193196Y0054042D01*
X0193223Y0054079D01*
X0193307Y0054426D01*
X0193432Y0054761D01*
X0193430Y0054808D01*
X0193453Y0054848D01*
X0193493Y0055204D01*
X0193577Y0055553D01*
X0193570Y0055598D01*
X0193587Y0055640D01*
X0193584Y0055998D01*
X0193624Y0056354D01*
X0193612Y0056398D01*
X0193623Y0056441D01*
X0193576Y0056797D01*
X0193573Y0057156D01*
X0193556Y0057196D01*
X0193562Y0057240D01*
X0193472Y0057588D01*
X0193426Y0057943D01*
X0193403Y0057983D01*
X0193404Y0058030D01*
X0193273Y0058362D01*
X0193183Y0058708D01*
X0193155Y0058746D01*
X0193150Y0058791D01*
X0192979Y0059106D01*
X0192848Y0059440D01*
X0192816Y0059472D01*
X0192806Y0059516D01*
X0192598Y0059808D01*
X0192427Y0060123D01*
X0192392Y0060151D01*
X0192377Y0060193D01*
X0192134Y0060458D01*
X0191926Y0060750D01*
X0191887Y0060774D01*
X0191866Y0060816D01*
X0191594Y0061048D01*
X0191353Y0061311D01*
X0191311Y0061331D01*
X0191286Y0061368D01*
X0190987Y0061566D01*
X0190714Y0061799D01*
X0190671Y0061813D01*
X0190642Y0061847D01*
X0190321Y0062007D01*
X0190022Y0062205D01*
X0189978Y0062214D01*
X0189944Y0062244D01*
X0189606Y0062364D01*
X0189285Y0062524D01*
X0189240Y0062527D01*
X0189202Y0062553D01*
X0188853Y0062631D01*
X0188515Y0062750D01*
X0188469Y0062748D01*
X0188429Y0062769D01*
X0188072Y0062803D01*
X0187722Y0062881D01*
X0187678Y0062873D01*
X0187635Y0062889D01*
X0187277Y0062880D01*
X0186920Y0062914D01*
X0186873Y0062900D01*
X0186604Y0062869D01*
X0186488Y0062892D01*
X0186305Y0062855D01*
X0186120Y0062850D01*
X0186014Y0062802D01*
X0185742Y0062772D01*
X0185696Y0062775D01*
X0185355Y0062661D01*
X0185003Y0062589D01*
X0184966Y0062564D01*
X0184920Y0062562D01*
X0184598Y0062408D01*
X0184258Y0062294D01*
X0184224Y0062264D01*
X0184179Y0062256D01*
X0183876Y0062063D01*
X0183552Y0061909D01*
X0183522Y0061876D01*
X0183480Y0061863D01*
X0183203Y0061634D01*
X0182900Y0061442D01*
X0182874Y0061404D01*
X0182832Y0061385D01*
X0182586Y0061126D01*
X0182310Y0060899D01*
X0182288Y0060858D01*
X0182250Y0060835D01*
X0182036Y0060546D01*
X0181789Y0060285D01*
X0181773Y0060244D01*
X0181737Y0060216D01*
X0180532Y0056975D02*
X0115970Y0056975D01*
X0119348Y0053776D02*
X0181028Y0053776D01*
X0183895Y0050578D02*
X0119475Y0050578D01*
X0119475Y0047379D02*
X0169129Y0047379D01*
X0168961Y0047334D02*
X0167860Y0046878D01*
X0166827Y0046282D01*
X0165881Y0045556D01*
X0165038Y0044713D01*
X0164312Y0043767D01*
X0163716Y0042734D01*
X0163260Y0041632D01*
X0162951Y0040481D01*
X0162795Y0039299D01*
X0162795Y0035406D01*
X0162568Y0035436D01*
X0162049Y0035436D01*
X0162049Y0022206D01*
X0162049Y0008976D01*
X0162568Y0008976D01*
X0163596Y0009112D01*
X0164598Y0009380D01*
X0165557Y0009777D01*
X0166456Y0010296D01*
X0167279Y0010928D01*
X0168012Y0011661D01*
X0168644Y0012485D01*
X0169163Y0013383D01*
X0169560Y0014342D01*
X0169828Y0015344D01*
X0169964Y0016373D01*
X0169964Y0016810D01*
X0170113Y0016770D01*
X0171295Y0016614D01*
X0171326Y0016614D01*
X0171326Y0031641D01*
X0172457Y0031641D01*
X0172457Y0032772D01*
X0171326Y0032772D01*
X0171326Y0047798D01*
X0171295Y0047798D01*
X0170113Y0047643D01*
X0168961Y0047334D01*
X0171326Y0047379D02*
X0172457Y0047379D01*
X0172457Y0047798D02*
X0172457Y0032772D01*
X0180987Y0032772D01*
X0180987Y0039299D01*
X0180832Y0040481D01*
X0180523Y0041632D01*
X0180067Y0042734D01*
X0179471Y0043767D01*
X0178745Y0044713D01*
X0177902Y0045556D01*
X0176956Y0046282D01*
X0175923Y0046878D01*
X0174821Y0047334D01*
X0173670Y0047643D01*
X0172488Y0047798D01*
X0172457Y0047798D01*
X0174654Y0047379D02*
X0255906Y0047379D01*
X0255906Y0044181D02*
X0179153Y0044181D01*
X0180697Y0040982D02*
X0255906Y0040982D01*
X0255906Y0037784D02*
X0180987Y0037784D01*
X0180987Y0034585D02*
X0255906Y0034585D01*
X0255906Y0031387D02*
X0180987Y0031387D01*
X0180987Y0031641D02*
X0172457Y0031641D01*
X0172457Y0016614D01*
X0172488Y0016614D01*
X0173670Y0016770D01*
X0174821Y0017078D01*
X0175923Y0017535D01*
X0176956Y0018131D01*
X0177902Y0018857D01*
X0178745Y0019700D01*
X0179471Y0020646D01*
X0180067Y0021679D01*
X0180523Y0022780D01*
X0180832Y0023932D01*
X0180987Y0025114D01*
X0180987Y0031641D01*
X0180987Y0028188D02*
X0237898Y0028188D01*
X0237589Y0028023D02*
X0238725Y0028630D01*
X0239914Y0029122D01*
X0241145Y0029496D01*
X0242408Y0029747D01*
X0243176Y0029823D01*
X0243176Y0017929D01*
X0231283Y0017929D01*
X0231358Y0018698D01*
X0231610Y0019960D01*
X0231983Y0021192D01*
X0232476Y0022381D01*
X0233082Y0023516D01*
X0233798Y0024586D01*
X0234614Y0025581D01*
X0235524Y0026491D01*
X0236519Y0027308D01*
X0237589Y0028023D01*
X0234129Y0024990D02*
X0223347Y0024990D01*
X0223159Y0025178D02*
X0221174Y0026000D01*
X0219026Y0026000D01*
X0217041Y0025178D01*
X0215522Y0023659D01*
X0215100Y0022640D01*
X0214678Y0023659D01*
X0213159Y0025178D01*
X0211174Y0026000D01*
X0209026Y0026000D01*
X0207041Y0025178D01*
X0205522Y0023659D01*
X0205100Y0022640D01*
X0204678Y0023659D01*
X0203159Y0025178D01*
X0201174Y0026000D01*
X0199026Y0026000D01*
X0197041Y0025178D01*
X0195522Y0023659D01*
X0195100Y0022640D01*
X0194678Y0023659D01*
X0193159Y0025178D01*
X0191174Y0026000D01*
X0189026Y0026000D01*
X0187041Y0025178D01*
X0185522Y0023659D01*
X0184700Y0021674D01*
X0184700Y0013526D01*
X0185522Y0011541D01*
X0187041Y0010022D01*
X0189026Y0009200D01*
X0191174Y0009200D01*
X0193159Y0010022D01*
X0194678Y0011541D01*
X0195100Y0012560D01*
X0195522Y0011541D01*
X0197041Y0010022D01*
X0199026Y0009200D01*
X0201174Y0009200D01*
X0203159Y0010022D01*
X0204678Y0011541D01*
X0205100Y0012560D01*
X0205522Y0011541D01*
X0207041Y0010022D01*
X0209026Y0009200D01*
X0211174Y0009200D01*
X0213159Y0010022D01*
X0214678Y0011541D01*
X0215100Y0012560D01*
X0215522Y0011541D01*
X0217041Y0010022D01*
X0219026Y0009200D01*
X0221174Y0009200D01*
X0223159Y0010022D01*
X0224678Y0011541D01*
X0225500Y0013526D01*
X0225500Y0021674D01*
X0224678Y0023659D01*
X0223159Y0025178D01*
X0225452Y0021791D02*
X0232231Y0021791D01*
X0231348Y0018593D02*
X0225500Y0018593D01*
X0225500Y0015394D02*
X0231305Y0015394D01*
X0232049Y0012196D02*
X0224949Y0012196D01*
X0233773Y0008997D02*
X0162724Y0008997D01*
X0162049Y0008997D02*
X0162049Y0008997D01*
X0162049Y0008976D02*
X0162049Y0022206D01*
X0162049Y0022206D01*
X0154134Y0022206D01*
X0154134Y0016373D01*
X0154269Y0015344D01*
X0154538Y0014342D01*
X0154935Y0013383D01*
X0155454Y0012485D01*
X0156085Y0011661D01*
X0156819Y0010928D01*
X0157642Y0010296D01*
X0158541Y0009777D01*
X0159499Y0009380D01*
X0160501Y0009112D01*
X0161530Y0008976D01*
X0162049Y0008976D01*
X0161373Y0008997D02*
X0119475Y0008997D01*
X0119475Y0005799D02*
X0237178Y0005799D01*
X0243176Y0018593D02*
X0245488Y0018593D01*
X0245488Y0021791D02*
X0243176Y0021791D01*
X0243176Y0024990D02*
X0245488Y0024990D01*
X0245488Y0028188D02*
X0243176Y0028188D01*
X0250766Y0028188D02*
X0255906Y0028188D01*
X0255906Y0024990D02*
X0254536Y0024990D01*
X0255906Y0050578D02*
X0190196Y0050578D01*
X0193077Y0053776D02*
X0255906Y0053776D01*
X0255906Y0056975D02*
X0193575Y0056975D01*
X0192384Y0060173D02*
X0255906Y0060173D01*
X0216853Y0024990D02*
X0213347Y0024990D01*
X0206853Y0024990D02*
X0203347Y0024990D01*
X0196853Y0024990D02*
X0193347Y0024990D01*
X0186853Y0024990D02*
X0180971Y0024990D01*
X0180113Y0021791D02*
X0184748Y0021791D01*
X0184700Y0018593D02*
X0177557Y0018593D01*
X0172457Y0018593D02*
X0171326Y0018593D01*
X0171326Y0021791D02*
X0172457Y0021791D01*
X0172457Y0024990D02*
X0171326Y0024990D01*
X0171326Y0028188D02*
X0172457Y0028188D01*
X0172457Y0031387D02*
X0171326Y0031387D01*
X0171326Y0034585D02*
X0172457Y0034585D01*
X0172457Y0037784D02*
X0171326Y0037784D01*
X0171326Y0040982D02*
X0172457Y0040982D01*
X0172457Y0044181D02*
X0171326Y0044181D01*
X0164630Y0044181D02*
X0119475Y0044181D01*
X0119475Y0040982D02*
X0163085Y0040982D01*
X0162795Y0037784D02*
X0119475Y0037784D01*
X0119475Y0034585D02*
X0158454Y0034585D01*
X0158541Y0034635D02*
X0157642Y0034116D01*
X0156819Y0033485D01*
X0156085Y0032751D01*
X0155454Y0031928D01*
X0154935Y0031029D01*
X0154538Y0030071D01*
X0154269Y0029069D01*
X0154134Y0028040D01*
X0154134Y0022206D01*
X0162049Y0022206D01*
X0162049Y0022206D01*
X0162049Y0022206D01*
X0162049Y0035436D01*
X0161530Y0035436D01*
X0160501Y0035301D01*
X0159499Y0035032D01*
X0158541Y0034635D01*
X0162049Y0034585D02*
X0162049Y0034585D01*
X0162049Y0031387D02*
X0162049Y0031387D01*
X0162049Y0028188D02*
X0162049Y0028188D01*
X0162049Y0024990D02*
X0162049Y0024990D01*
X0162049Y0021791D02*
X0162049Y0021791D01*
X0162049Y0018593D02*
X0162049Y0018593D01*
X0162049Y0015394D02*
X0162049Y0015394D01*
X0162049Y0012196D02*
X0162049Y0012196D01*
X0168422Y0012196D02*
X0185251Y0012196D01*
X0184700Y0015394D02*
X0169835Y0015394D01*
X0155675Y0012196D02*
X0119475Y0012196D01*
X0119475Y0015394D02*
X0154263Y0015394D01*
X0154134Y0018593D02*
X0119475Y0018593D01*
X0119475Y0021791D02*
X0154134Y0021791D01*
X0154134Y0024990D02*
X0119475Y0024990D01*
X0119475Y0028188D02*
X0154153Y0028188D01*
X0155141Y0031387D02*
X0119475Y0031387D01*
X0194949Y0012196D02*
X0195251Y0012196D01*
X0204949Y0012196D02*
X0205251Y0012196D01*
X0214949Y0012196D02*
X0215251Y0012196D01*
X0209067Y0146533D02*
X0255906Y0146533D01*
X0255906Y0149732D02*
X0209475Y0149732D01*
X0209475Y0152930D02*
X0255906Y0152930D01*
X0255906Y0156129D02*
X0209475Y0156129D01*
X0209475Y0159327D02*
X0255906Y0159327D01*
X0255906Y0162526D02*
X0209475Y0162526D01*
X0209475Y0165724D02*
X0255906Y0165724D01*
X0255906Y0168923D02*
X0209475Y0168923D01*
X0209475Y0172121D02*
X0255906Y0172121D01*
X0255906Y0175320D02*
X0209475Y0175320D01*
X0209475Y0178518D02*
X0255906Y0178518D01*
X0255906Y0181717D02*
X0209475Y0181717D01*
X0209475Y0184915D02*
X0255906Y0184915D01*
X0255906Y0188114D02*
X0209475Y0188114D01*
X0209475Y0191312D02*
X0255906Y0191312D01*
X0255906Y0194511D02*
X0209475Y0194511D01*
X0209475Y0197709D02*
X0237500Y0197709D01*
X0233944Y0200908D02*
X0209475Y0200908D01*
X0209475Y0204106D02*
X0232138Y0204106D01*
X0231326Y0207305D02*
X0209475Y0207305D01*
X0209475Y0210503D02*
X0231327Y0210503D01*
X0232142Y0213702D02*
X0209475Y0213702D01*
X0209475Y0216900D02*
X0233952Y0216900D01*
X0237514Y0220099D02*
X0209475Y0220099D01*
X0243176Y0207305D02*
X0245488Y0207305D01*
X0245488Y0204106D02*
X0243176Y0204106D01*
X0243176Y0200908D02*
X0245488Y0200908D01*
X0245488Y0197709D02*
X0243176Y0197709D01*
X0251165Y0197709D02*
X0255906Y0197709D01*
X0255906Y0200908D02*
X0254721Y0200908D01*
D18*
X0247600Y0187600D03*
X0222600Y0162600D03*
X0214824Y0147088D03*
X0202600Y0142600D03*
X0180100Y0132600D03*
X0163584Y0138013D03*
X0162600Y0125100D03*
X0180100Y0105100D03*
X0162600Y0100100D03*
X0162600Y0087600D03*
X0150002Y0074962D03*
X0160100Y0062600D03*
X0177600Y0077600D03*
X0192600Y0090100D03*
X0210100Y0100100D03*
X0227600Y0085100D03*
X0250100Y0067600D03*
X0250100Y0035100D03*
X0230100Y0032600D03*
X0212600Y0030100D03*
X0210100Y0045100D03*
X0212600Y0057600D03*
X0195100Y0070100D03*
X0182600Y0050100D03*
X0187600Y0030100D03*
X0172600Y0010100D03*
X0205100Y0007600D03*
X0227600Y0007600D03*
X0155100Y0042600D03*
X0125435Y0035257D03*
X0120100Y0057600D03*
X0110100Y0077600D03*
X0131754Y0077738D03*
X0097600Y0100100D03*
X0080100Y0110100D03*
X0070100Y0122600D03*
X0082600Y0135100D03*
X0097600Y0135100D03*
X0097600Y0125100D03*
X0067600Y0140100D03*
X0025100Y0142600D03*
X0010100Y0155100D03*
X0025100Y0172600D03*
X0010100Y0185100D03*
X0025100Y0192600D03*
X0065100Y0180100D03*
X0080100Y0180100D03*
X0075100Y0197600D03*
X0085100Y0215100D03*
X0065100Y0217600D03*
X0107600Y0217600D03*
X0130100Y0215100D03*
X0145100Y0217600D03*
X0135100Y0195100D03*
X0145100Y0182600D03*
X0125100Y0180100D03*
X0112600Y0195100D03*
X0102600Y0180100D03*
X0025100Y0110100D03*
X0010100Y0125100D03*
X0010100Y0092600D03*
X0025100Y0075100D03*
X0010100Y0057600D03*
X0032600Y0050100D03*
X0012600Y0035100D03*
X0035100Y0010100D03*
X0093328Y0059962D03*
X0083250Y0070277D03*
X0067600Y0082600D03*
X0080100Y0087600D03*
X0130100Y0010100D03*
X0250100Y0112600D03*
X0227600Y0125100D03*
X0250100Y0147600D03*
X0212600Y0182600D03*
X0225100Y0215100D03*
X0195100Y0120100D03*
D19*
X0205100Y0148387D02*
X0060238Y0148387D01*
X0060238Y0079450D01*
X0087600Y0052600D01*
X0115100Y0052600D01*
X0115100Y0004800D01*
X0055100Y0004800D01*
X0055100Y0042600D01*
X0032600Y0065100D01*
X0032600Y0220872D01*
X0057738Y0220872D01*
X0057738Y0172600D01*
X0068784Y0172600D01*
X0068673Y0172470D01*
X0068661Y0172464D01*
X0068656Y0172450D01*
X0068646Y0172439D01*
X0068647Y0172426D01*
X0068528Y0172088D01*
X0068332Y0171793D01*
X0068321Y0171786D01*
X0068318Y0171771D01*
X0068308Y0171756D01*
X0068311Y0171740D01*
X0068234Y0171396D01*
X0068075Y0171076D01*
X0068064Y0171067D01*
X0068062Y0171051D01*
X0068055Y0171037D01*
X0068060Y0171024D01*
X0068025Y0170667D01*
X0067908Y0170335D01*
X0067897Y0170324D01*
X0067897Y0170306D01*
X0067892Y0170291D01*
X0067898Y0170280D01*
X0067907Y0169926D01*
X0067829Y0169575D01*
X0067822Y0169564D01*
X0067824Y0169550D01*
X0067821Y0169536D01*
X0067828Y0169524D01*
X0067881Y0169170D01*
X0067847Y0168817D01*
X0067840Y0168805D01*
X0067844Y0168790D01*
X0067843Y0168773D01*
X0067853Y0168761D01*
X0067947Y0168421D01*
X0067956Y0168064D01*
X0067951Y0168051D01*
X0067957Y0168036D01*
X0067957Y0168020D01*
X0067968Y0168009D01*
X0068104Y0167680D01*
X0068157Y0167331D01*
X0068153Y0167316D01*
X0068161Y0167300D01*
X0068164Y0167285D01*
X0068174Y0167277D01*
X0068349Y0166968D01*
X0068444Y0166625D01*
X0068442Y0166611D01*
X0068452Y0166599D01*
X0068456Y0166584D01*
X0068468Y0166577D01*
X0068680Y0166290D01*
X0068816Y0165962D01*
X0068815Y0165948D01*
X0068826Y0165938D01*
X0068832Y0165921D01*
X0068847Y0165915D01*
X0069090Y0165659D01*
X0069266Y0165348D01*
X0069268Y0165333D01*
X0069280Y0165323D01*
X0069288Y0165310D01*
X0069300Y0165306D01*
X0069577Y0165078D01*
X0069787Y0164794D01*
X0069790Y0164780D01*
X0069805Y0164771D01*
X0069814Y0164758D01*
X0069827Y0164756D01*
X0070126Y0164566D01*
X0070372Y0164306D01*
X0070376Y0164295D01*
X0070389Y0164289D01*
X0070401Y0164276D01*
X0070417Y0164275D01*
X0070737Y0164122D01*
X0071012Y0163896D01*
X0071019Y0163883D01*
X0071035Y0163877D01*
X0071046Y0163868D01*
X0071059Y0163869D01*
X0071399Y0163756D01*
X0071696Y0163566D01*
X0071704Y0163554D01*
X0071720Y0163551D01*
X0071734Y0163542D01*
X0071749Y0163545D01*
X0072094Y0163475D01*
X0072352Y0163352D01*
X0072355Y0163348D01*
X0072361Y0163347D01*
X0072456Y0163302D01*
X0072531Y0163328D01*
X0072669Y0163313D01*
X0072744Y0163233D01*
X0072981Y0163227D01*
X0073205Y0163152D01*
X0073336Y0163217D01*
X0073358Y0163217D01*
X0073384Y0163212D01*
X0073497Y0163118D01*
X0073731Y0163141D01*
X0073962Y0163094D01*
X0074056Y0163155D01*
X0074189Y0163140D01*
X0074258Y0163097D01*
X0074365Y0163120D01*
X0074372Y0163120D01*
X0074376Y0163123D01*
X0074648Y0163183D01*
X0075005Y0163174D01*
X0075018Y0163167D01*
X0075033Y0163173D01*
X0075048Y0163173D01*
X0075058Y0163182D01*
X0075395Y0163301D01*
X0075748Y0163335D01*
X0075761Y0163331D01*
X0075775Y0163338D01*
X0075791Y0163339D01*
X0075800Y0163350D01*
X0076118Y0163509D01*
X0076467Y0163586D01*
X0076480Y0163583D01*
X0076493Y0163592D01*
X0076508Y0163595D01*
X0076516Y0163607D01*
X0076814Y0163804D01*
X0077146Y0163922D01*
X0077160Y0163921D01*
X0077173Y0163931D01*
X0077190Y0163938D01*
X0077197Y0163952D01*
X0077464Y0164180D01*
X0077785Y0164340D01*
X0077800Y0164340D01*
X0077811Y0164353D01*
X0077824Y0164359D01*
X0077828Y0164371D01*
X0078071Y0164636D01*
X0078365Y0164831D01*
X0078380Y0164834D01*
X0078389Y0164847D01*
X0078402Y0164856D01*
X0078405Y0164869D01*
X0078610Y0165157D01*
X0078885Y0165391D01*
X0078896Y0165394D01*
X0078903Y0165406D01*
X0078914Y0165416D01*
X0078915Y0165430D01*
X0079087Y0165746D01*
X0079325Y0166006D01*
X0079339Y0166012D01*
X0079345Y0166027D01*
X0079356Y0166040D01*
X0079356Y0166056D01*
X0079485Y0166383D01*
X0079693Y0166675D01*
X0079705Y0166682D01*
X0079709Y0166698D01*
X0079718Y0166710D01*
X0079716Y0166723D01*
X0079806Y0167071D01*
X0079973Y0167379D01*
X0079985Y0167388D01*
X0079987Y0167405D01*
X0079995Y0167420D01*
X0079991Y0167435D01*
X0080037Y0167783D01*
X0080169Y0168118D01*
X0080179Y0168127D01*
X0080179Y0168143D01*
X0080184Y0168156D01*
X0080179Y0168168D01*
X0080182Y0168529D01*
X0080270Y0168869D01*
X0080279Y0168881D01*
X0080277Y0168898D01*
X0080281Y0168914D01*
X0080274Y0168926D01*
X0080234Y0169276D01*
X0080281Y0169632D01*
X0080288Y0169642D01*
X0080285Y0169656D01*
X0080287Y0169673D01*
X0080278Y0169685D01*
X0080194Y0170033D01*
X0080197Y0170386D01*
X0080204Y0170400D01*
X0080197Y0170416D01*
X0080198Y0170432D01*
X0080188Y0170442D01*
X0080064Y0170774D01*
X0080023Y0171128D01*
X0080028Y0171142D01*
X0080020Y0171156D01*
X0080019Y0171171D01*
X0080008Y0171179D01*
X0079843Y0171496D01*
X0079760Y0171842D01*
X0079763Y0171855D01*
X0079754Y0171868D01*
X0079750Y0171884D01*
X0079738Y0171892D01*
X0079537Y0172184D01*
X0079412Y0172520D01*
X0079412Y0172533D01*
X0079402Y0172544D01*
X0079397Y0172558D01*
X0079385Y0172564D01*
X0079353Y0172600D01*
X0152600Y0172600D01*
X0152600Y0220872D01*
X0205100Y0220872D01*
X0205100Y0148387D01*
X0205100Y0148909D02*
X0032600Y0148909D01*
X0032600Y0146511D02*
X0060238Y0146511D01*
X0060238Y0144112D02*
X0032600Y0144112D01*
X0032600Y0141714D02*
X0060238Y0141714D01*
X0060238Y0139315D02*
X0032600Y0139315D01*
X0032600Y0136917D02*
X0060238Y0136917D01*
X0060238Y0134518D02*
X0032600Y0134518D01*
X0032600Y0132120D02*
X0060238Y0132120D01*
X0060238Y0129721D02*
X0032600Y0129721D01*
X0032600Y0127323D02*
X0060238Y0127323D01*
X0060238Y0124924D02*
X0032600Y0124924D01*
X0032600Y0122526D02*
X0060238Y0122526D01*
X0060238Y0120127D02*
X0032600Y0120127D01*
X0032600Y0117729D02*
X0060238Y0117729D01*
X0060238Y0115330D02*
X0032600Y0115330D01*
X0032600Y0112932D02*
X0060238Y0112932D01*
X0060238Y0110533D02*
X0032600Y0110533D01*
X0032600Y0108134D02*
X0060238Y0108134D01*
X0060238Y0105736D02*
X0032600Y0105736D01*
X0032600Y0103337D02*
X0060238Y0103337D01*
X0060238Y0100939D02*
X0032600Y0100939D01*
X0032600Y0098540D02*
X0060238Y0098540D01*
X0060238Y0096142D02*
X0032600Y0096142D01*
X0032600Y0093743D02*
X0060238Y0093743D01*
X0060238Y0091345D02*
X0032600Y0091345D01*
X0032600Y0088946D02*
X0060238Y0088946D01*
X0060238Y0086548D02*
X0032600Y0086548D01*
X0032600Y0084149D02*
X0060238Y0084149D01*
X0060238Y0081751D02*
X0032600Y0081751D01*
X0032600Y0079352D02*
X0060338Y0079352D01*
X0062782Y0076954D02*
X0032600Y0076954D01*
X0032600Y0074555D02*
X0065226Y0074555D01*
X0067670Y0072157D02*
X0032600Y0072157D01*
X0032600Y0069758D02*
X0070115Y0069758D01*
X0072559Y0067360D02*
X0032600Y0067360D01*
X0032739Y0064961D02*
X0075003Y0064961D01*
X0075018Y0062505D02*
X0075005Y0062499D01*
X0074648Y0062489D01*
X0074376Y0062550D01*
X0074372Y0062553D01*
X0074365Y0062552D01*
X0074258Y0062576D01*
X0074189Y0062532D01*
X0074056Y0062517D01*
X0073962Y0062579D01*
X0073731Y0062532D01*
X0073497Y0062554D01*
X0073384Y0062461D01*
X0073358Y0062456D01*
X0073336Y0062455D01*
X0073205Y0062520D01*
X0072981Y0062446D01*
X0072744Y0062439D01*
X0072669Y0062360D01*
X0072531Y0062344D01*
X0072456Y0062371D01*
X0072361Y0062325D01*
X0072355Y0062324D01*
X0072352Y0062321D01*
X0072094Y0062198D01*
X0071749Y0062127D01*
X0071734Y0062131D01*
X0071720Y0062121D01*
X0071704Y0062118D01*
X0071696Y0062106D01*
X0071399Y0061917D01*
X0071059Y0061803D01*
X0071046Y0061805D01*
X0071035Y0061795D01*
X0071019Y0061790D01*
X0071012Y0061776D01*
X0070737Y0061550D01*
X0070417Y0061397D01*
X0070401Y0061397D01*
X0070389Y0061384D01*
X0070376Y0061378D01*
X0070372Y0061366D01*
X0070126Y0061106D01*
X0069827Y0060916D01*
X0069814Y0060914D01*
X0069805Y0060902D01*
X0069790Y0060892D01*
X0069787Y0060878D01*
X0069577Y0060594D01*
X0069300Y0060366D01*
X0069288Y0060363D01*
X0069280Y0060350D01*
X0069268Y0060339D01*
X0069266Y0060325D01*
X0069090Y0060014D01*
X0068847Y0059757D01*
X0068832Y0059751D01*
X0068826Y0059735D01*
X0068815Y0059724D01*
X0068816Y0059711D01*
X0068680Y0059382D01*
X0068468Y0059096D01*
X0068456Y0059089D01*
X0068452Y0059074D01*
X0068442Y0059061D01*
X0068444Y0059048D01*
X0068349Y0058704D01*
X0068174Y0058395D01*
X0068164Y0058387D01*
X0068161Y0058372D01*
X0068153Y0058357D01*
X0068157Y0058342D01*
X0068104Y0057992D01*
X0067968Y0057663D01*
X0067957Y0057653D01*
X0067957Y0057636D01*
X0067951Y0057622D01*
X0067956Y0057609D01*
X0067947Y0057252D01*
X0067853Y0056911D01*
X0067843Y0056900D01*
X0067844Y0056882D01*
X0067840Y0056867D01*
X0067847Y0056856D01*
X0067881Y0056503D01*
X0067828Y0056148D01*
X0067821Y0056137D01*
X0067824Y0056122D01*
X0067822Y0056108D01*
X0067829Y0056098D01*
X0067907Y0055747D01*
X0067898Y0055393D01*
X0067892Y0055381D01*
X0067897Y0055367D01*
X0042333Y0055367D01*
X0044731Y0052969D02*
X0068873Y0052969D01*
X0068905Y0052930D02*
X0069064Y0052612D01*
X0069065Y0052599D01*
X0069076Y0052588D01*
X0069084Y0052573D01*
X0069098Y0052568D01*
X0069359Y0052329D01*
X0069556Y0052032D01*
X0069558Y0052018D01*
X0069571Y0052008D01*
X0069580Y0051995D01*
X0069594Y0051992D01*
X0069884Y0051785D01*
X0070114Y0051516D01*
X0070118Y0051502D01*
X0070133Y0051494D01*
X0070143Y0051482D01*
X0070158Y0051480D01*
X0070469Y0051312D01*
X0070731Y0051071D01*
X0070737Y0051058D01*
X0070751Y0051052D01*
X0070764Y0051041D01*
X0070778Y0051042D01*
X0071109Y0050911D01*
X0071399Y0050704D01*
X0071407Y0050691D01*
X0071423Y0050687D01*
X0071434Y0050679D01*
X0071446Y0050681D01*
X0071794Y0050592D01*
X0072106Y0050422D01*
X0072114Y0050411D01*
X0072129Y0050409D01*
X0072143Y0050402D01*
X0072156Y0050406D01*
X0072509Y0050359D01*
X0072841Y0050228D01*
X0072850Y0050219D01*
X0072864Y0050219D01*
X0072881Y0050213D01*
X0072895Y0050219D01*
X0073250Y0050216D01*
X0073593Y0050127D01*
X0073605Y0050118D01*
X0073622Y0050120D01*
X0073638Y0050116D01*
X0073651Y0050123D01*
X0074003Y0050163D01*
X0074355Y0050117D01*
X0074368Y0050109D01*
X0074384Y0050113D01*
X0074399Y0050111D01*
X0074410Y0050119D01*
X0074756Y0050202D01*
X0075113Y0050199D01*
X0075126Y0050193D01*
X0075140Y0050199D01*
X0075155Y0050199D01*
X0075164Y0050207D01*
X0075499Y0050333D01*
X0075852Y0050373D01*
X0075864Y0050369D01*
X0075877Y0050376D01*
X0075895Y0050378D01*
X0075906Y0050391D01*
X0076218Y0050553D01*
X0076566Y0050637D01*
X0076580Y0050634D01*
X0076593Y0050643D01*
X0076609Y0050647D01*
X0076616Y0050659D01*
X0076911Y0050862D01*
X0077241Y0050985D01*
X0077257Y0050984D01*
X0077271Y0050996D01*
X0077284Y0051001D01*
X0077290Y0051013D01*
X0077555Y0051248D01*
X0077872Y0051413D01*
X0077885Y0051414D01*
X0077894Y0051425D01*
X0077909Y0051432D01*
X0077914Y0051446D01*
X0078149Y0051713D01*
X0078443Y0051915D01*
X0078457Y0051917D01*
X0078466Y0051931D01*
X0078480Y0051940D01*
X0078482Y0051953D01*
X0078684Y0052247D01*
X0078949Y0052482D01*
X0078963Y0052487D01*
X0078971Y0052501D01*
X0078983Y0052512D01*
X0078984Y0052526D01*
X0079147Y0052840D01*
X0079385Y0053108D01*
X0079397Y0053114D01*
X0079402Y0053128D01*
X0079412Y0053140D01*
X0079412Y0053153D01*
X0079537Y0053489D01*
X0079738Y0053781D01*
X0079750Y0053788D01*
X0079754Y0053804D01*
X0079763Y0053817D01*
X0079760Y0053831D01*
X0079843Y0054176D01*
X0080008Y0054493D01*
X0080019Y0054502D01*
X0080020Y0054516D01*
X0080028Y0054531D01*
X0080023Y0054545D01*
X0080064Y0054899D01*
X0080188Y0055230D01*
X0080198Y0055240D01*
X0080197Y0055256D01*
X0080204Y0055273D01*
X0080197Y0055287D01*
X0080194Y0055640D01*
X0080278Y0055987D01*
X0080287Y0055999D01*
X0080285Y0056016D01*
X0080288Y0056030D01*
X0080281Y0056041D01*
X0080234Y0056397D01*
X0080274Y0056746D01*
X0080281Y0056758D01*
X0080277Y0056774D01*
X0080279Y0056792D01*
X0080270Y0056804D01*
X0080182Y0057143D01*
X0080179Y0057504D01*
X0080184Y0057516D01*
X0080179Y0057530D01*
X0080179Y0057545D01*
X0080169Y0057555D01*
X0080037Y0057890D01*
X0079991Y0058237D01*
X0079995Y0058252D01*
X0079987Y0058268D01*
X0079985Y0058284D01*
X0079973Y0058293D01*
X0079806Y0058602D01*
X0079716Y0058950D01*
X0079718Y0058962D01*
X0079709Y0058974D01*
X0079705Y0058990D01*
X0079693Y0058997D01*
X0079485Y0059289D01*
X0079356Y0059617D01*
X0079356Y0059632D01*
X0079345Y0059645D01*
X0079339Y0059660D01*
X0079325Y0059666D01*
X0079087Y0059926D01*
X0078915Y0060243D01*
X0078914Y0060256D01*
X0078903Y0060266D01*
X0078896Y0060278D01*
X0078885Y0060281D01*
X0078610Y0060516D01*
X0078405Y0060804D01*
X0078402Y0060817D01*
X0078389Y0060825D01*
X0078380Y0060839D01*
X0078365Y0060841D01*
X0078071Y0061036D01*
X0077828Y0061301D01*
X0077824Y0061313D01*
X0077811Y0061319D01*
X0077800Y0061332D01*
X0077785Y0061333D01*
X0077464Y0061492D01*
X0077197Y0061720D01*
X0077190Y0061735D01*
X0077173Y0061741D01*
X0077160Y0061752D01*
X0077146Y0061750D01*
X0076814Y0061868D01*
X0076516Y0062066D01*
X0076508Y0062077D01*
X0076493Y0062081D01*
X0076480Y0062089D01*
X0076467Y0062087D01*
X0076118Y0062164D01*
X0075800Y0062322D01*
X0075791Y0062333D01*
X0075775Y0062335D01*
X0075761Y0062342D01*
X0075748Y0062337D01*
X0075395Y0062371D01*
X0075058Y0062491D01*
X0075048Y0062500D01*
X0075033Y0062500D01*
X0075018Y0062505D01*
X0074317Y0062563D02*
X0077447Y0062563D01*
X0078958Y0060164D02*
X0079892Y0060164D01*
X0080086Y0057766D02*
X0082336Y0057766D01*
X0080197Y0055367D02*
X0084780Y0055367D01*
X0087224Y0052969D02*
X0079261Y0052969D01*
X0076289Y0050570D02*
X0115100Y0050570D01*
X0115100Y0048172D02*
X0049528Y0048172D01*
X0047130Y0050570D02*
X0071833Y0050570D01*
X0068905Y0052930D02*
X0068673Y0053202D01*
X0068661Y0053208D01*
X0068656Y0053223D01*
X0068646Y0053234D01*
X0068647Y0053247D01*
X0068528Y0053584D01*
X0068332Y0053880D01*
X0068321Y0053887D01*
X0068318Y0053902D01*
X0068308Y0053917D01*
X0068311Y0053932D01*
X0068234Y0054276D01*
X0068075Y0054596D01*
X0068064Y0054605D01*
X0068062Y0054621D01*
X0068055Y0054636D01*
X0068060Y0054649D01*
X0068025Y0055005D01*
X0067908Y0055337D01*
X0067897Y0055349D01*
X0067897Y0055367D01*
X0068011Y0057766D02*
X0039934Y0057766D01*
X0037536Y0060164D02*
X0069175Y0060164D01*
X0073884Y0062563D02*
X0035137Y0062563D01*
X0051927Y0045773D02*
X0084144Y0045773D01*
X0084373Y0045948D02*
X0083468Y0045254D01*
X0082662Y0044448D01*
X0081968Y0043544D01*
X0081398Y0042557D01*
X0080962Y0041504D01*
X0080667Y0040403D01*
X0080518Y0039272D01*
X0080518Y0033172D01*
X0088249Y0033172D01*
X0088249Y0047346D01*
X0087514Y0047250D01*
X0086413Y0046955D01*
X0085360Y0046518D01*
X0084373Y0045948D01*
X0081870Y0043375D02*
X0054325Y0043375D01*
X0055100Y0040976D02*
X0080821Y0040976D01*
X0080518Y0038578D02*
X0055100Y0038578D01*
X0055100Y0036179D02*
X0080518Y0036179D01*
X0080518Y0033781D02*
X0055100Y0033781D01*
X0055100Y0031382D02*
X0088249Y0031382D01*
X0088249Y0031241D02*
X0080518Y0031241D01*
X0080518Y0025140D01*
X0080667Y0024010D01*
X0080962Y0022909D01*
X0081398Y0021856D01*
X0081968Y0020869D01*
X0082662Y0019964D01*
X0083468Y0019158D01*
X0084373Y0018464D01*
X0085360Y0017894D01*
X0086413Y0017458D01*
X0087514Y0017163D01*
X0088249Y0017066D01*
X0088249Y0031241D01*
X0090180Y0031241D01*
X0090180Y0017066D01*
X0090914Y0017163D01*
X0091542Y0017331D01*
X0091542Y0016399D01*
X0091670Y0015422D01*
X0091925Y0014471D01*
X0092302Y0013560D01*
X0092795Y0012707D01*
X0093395Y0011926D01*
X0094091Y0011229D01*
X0094873Y0010629D01*
X0095726Y0010137D01*
X0096636Y0009760D01*
X0097587Y0009505D01*
X0098564Y0009376D01*
X0098780Y0009376D01*
X0098780Y0021930D01*
X0099333Y0021930D01*
X0099333Y0022483D01*
X0098780Y0022483D01*
X0098780Y0035036D01*
X0098564Y0035036D01*
X0097910Y0034950D01*
X0097910Y0039272D01*
X0097761Y0040403D01*
X0097466Y0041504D01*
X0097030Y0042557D01*
X0096460Y0043544D01*
X0095766Y0044448D01*
X0094960Y0045254D01*
X0094056Y0045948D01*
X0093069Y0046518D01*
X0092015Y0046955D01*
X0090914Y0047250D01*
X0090180Y0047346D01*
X0090180Y0033172D01*
X0088249Y0033172D01*
X0088249Y0031241D01*
X0088249Y0028984D02*
X0090180Y0028984D01*
X0090180Y0026585D02*
X0088249Y0026585D01*
X0088249Y0024187D02*
X0090180Y0024187D01*
X0090180Y0021788D02*
X0088249Y0021788D01*
X0088249Y0019390D02*
X0090180Y0019390D01*
X0091542Y0016991D02*
X0055100Y0016991D01*
X0055100Y0014593D02*
X0091893Y0014593D01*
X0093189Y0012194D02*
X0055100Y0012194D01*
X0055100Y0009796D02*
X0096550Y0009796D01*
X0098780Y0009796D02*
X0099333Y0009796D01*
X0099333Y0009376D02*
X0099549Y0009376D01*
X0100526Y0009505D01*
X0101477Y0009760D01*
X0102388Y0010137D01*
X0103241Y0010629D01*
X0104022Y0011229D01*
X0104719Y0011926D01*
X0105319Y0012707D01*
X0105811Y0013560D01*
X0106188Y0014471D01*
X0106443Y0015422D01*
X0106572Y0016399D01*
X0106572Y0021930D01*
X0099333Y0021930D01*
X0099333Y0009376D01*
X0101563Y0009796D02*
X0115100Y0009796D01*
X0115100Y0012194D02*
X0104925Y0012194D01*
X0106221Y0014593D02*
X0115100Y0014593D01*
X0115100Y0016991D02*
X0106572Y0016991D01*
X0106572Y0019390D02*
X0115100Y0019390D01*
X0115100Y0021788D02*
X0106572Y0021788D01*
X0106572Y0022483D02*
X0106572Y0028014D01*
X0106443Y0028991D01*
X0106188Y0029942D01*
X0105811Y0030852D01*
X0105319Y0031705D01*
X0104719Y0032487D01*
X0104022Y0033183D01*
X0103241Y0033783D01*
X0102388Y0034276D01*
X0101477Y0034653D01*
X0100526Y0034908D01*
X0099549Y0035036D01*
X0099333Y0035036D01*
X0099333Y0022483D01*
X0106572Y0022483D01*
X0106572Y0024187D02*
X0115100Y0024187D01*
X0115100Y0026585D02*
X0106572Y0026585D01*
X0106444Y0028984D02*
X0115100Y0028984D01*
X0115100Y0031382D02*
X0105505Y0031382D01*
X0103244Y0033781D02*
X0115100Y0033781D01*
X0115100Y0036179D02*
X0097910Y0036179D01*
X0097910Y0038578D02*
X0115100Y0038578D01*
X0115100Y0040976D02*
X0097608Y0040976D01*
X0096558Y0043375D02*
X0115100Y0043375D01*
X0115100Y0045773D02*
X0094284Y0045773D01*
X0090180Y0045773D02*
X0088249Y0045773D01*
X0088249Y0043375D02*
X0090180Y0043375D01*
X0090180Y0040976D02*
X0088249Y0040976D01*
X0088249Y0038578D02*
X0090180Y0038578D01*
X0090180Y0036179D02*
X0088249Y0036179D01*
X0088249Y0033781D02*
X0090180Y0033781D01*
X0098780Y0033781D02*
X0099333Y0033781D01*
X0099333Y0031382D02*
X0098780Y0031382D01*
X0098780Y0028984D02*
X0099333Y0028984D01*
X0099333Y0026585D02*
X0098780Y0026585D01*
X0098780Y0024187D02*
X0099333Y0024187D01*
X0099333Y0021788D02*
X0098780Y0021788D01*
X0098780Y0019390D02*
X0099333Y0019390D01*
X0099333Y0016991D02*
X0098780Y0016991D01*
X0098780Y0014593D02*
X0099333Y0014593D01*
X0099333Y0012194D02*
X0098780Y0012194D01*
X0083237Y0019390D02*
X0055100Y0019390D01*
X0055100Y0021788D02*
X0081437Y0021788D01*
X0080644Y0024187D02*
X0055100Y0024187D01*
X0055100Y0026585D02*
X0080518Y0026585D01*
X0080518Y0028984D02*
X0055100Y0028984D01*
X0055100Y0007397D02*
X0115100Y0007397D01*
X0115100Y0004999D02*
X0055100Y0004999D01*
X0073986Y0062563D02*
X0074238Y0062563D01*
X0032600Y0151308D02*
X0205100Y0151308D01*
X0205100Y0153706D02*
X0032600Y0153706D01*
X0032600Y0156105D02*
X0205100Y0156105D01*
X0205100Y0158503D02*
X0174216Y0158503D01*
X0174132Y0158459D02*
X0174450Y0158625D01*
X0174795Y0158708D01*
X0174809Y0158705D01*
X0174823Y0158715D01*
X0174837Y0158718D01*
X0174843Y0158729D01*
X0175137Y0158931D01*
X0175472Y0159056D01*
X0175484Y0159055D01*
X0175494Y0159064D01*
X0175511Y0159070D01*
X0175517Y0159084D01*
X0175783Y0159319D01*
X0176099Y0159484D01*
X0176113Y0159485D01*
X0176124Y0159497D01*
X0176139Y0159505D01*
X0176143Y0159518D01*
X0176379Y0159785D01*
X0176670Y0159985D01*
X0176686Y0159988D01*
X0176696Y0160003D01*
X0176708Y0160011D01*
X0176710Y0160024D01*
X0176912Y0160317D01*
X0177180Y0160554D01*
X0177193Y0160559D01*
X0177200Y0160572D01*
X0177211Y0160582D01*
X0177212Y0160594D01*
X0177377Y0160912D01*
X0177612Y0161178D01*
X0177624Y0161184D01*
X0177629Y0161197D01*
X0177641Y0161211D01*
X0177640Y0161226D01*
X0177764Y0161557D01*
X0177966Y0161851D01*
X0177978Y0161859D01*
X0177982Y0161875D01*
X0177991Y0161888D01*
X0177989Y0161902D01*
X0178072Y0162250D01*
X0178234Y0162562D01*
X0178247Y0162572D01*
X0178249Y0162590D01*
X0178256Y0162603D01*
X0178252Y0162616D01*
X0178292Y0162968D01*
X0178391Y0163232D01*
X0178393Y0163234D01*
X0178393Y0163239D01*
X0178432Y0163342D01*
X0178398Y0163416D01*
X0178400Y0163475D01*
X0178424Y0163499D01*
X0178424Y0163716D01*
X0178516Y0164100D01*
X0178436Y0164231D01*
X0178507Y0164863D01*
X0178439Y0164948D01*
X0178448Y0165264D01*
X0178424Y0165289D01*
X0178424Y0173420D01*
X0178476Y0173479D01*
X0178437Y0174111D01*
X0178524Y0174236D01*
X0178424Y0174775D01*
X0178424Y0174891D01*
X0178479Y0174998D01*
X0178359Y0175380D01*
X0178337Y0175734D01*
X0178343Y0175749D01*
X0178335Y0175765D01*
X0178334Y0175779D01*
X0178325Y0175787D01*
X0178177Y0176112D01*
X0178112Y0176463D01*
X0178115Y0176475D01*
X0178108Y0176487D01*
X0178105Y0176503D01*
X0178093Y0176511D01*
X0177907Y0176814D01*
X0177799Y0177156D01*
X0177801Y0177169D01*
X0177792Y0177181D01*
X0177787Y0177196D01*
X0177774Y0177203D01*
X0177551Y0177483D01*
X0177405Y0177804D01*
X0177405Y0177819D01*
X0177392Y0177831D01*
X0177386Y0177846D01*
X0177372Y0177851D01*
X0177120Y0178099D01*
X0176934Y0178402D01*
X0176932Y0178416D01*
X0176919Y0178426D01*
X0176911Y0178440D01*
X0176896Y0178444D01*
X0176615Y0178660D01*
X0176394Y0178937D01*
X0176390Y0178951D01*
X0176376Y0178960D01*
X0176366Y0178973D01*
X0176351Y0178974D01*
X0176046Y0179154D01*
X0175935Y0179263D01*
X0176733Y0179724D01*
X0177637Y0180418D01*
X0178443Y0181224D01*
X0179137Y0182128D01*
X0179707Y0183116D01*
X0180144Y0184169D01*
X0180439Y0185270D01*
X0180587Y0186400D01*
X0180587Y0192501D01*
X0172857Y0192501D01*
X0172857Y0194431D01*
X0180587Y0194431D01*
X0180587Y0200532D01*
X0180439Y0201662D01*
X0180144Y0202763D01*
X0179707Y0203817D01*
X0179137Y0204804D01*
X0178443Y0205708D01*
X0177637Y0206514D01*
X0176733Y0207208D01*
X0175746Y0207778D01*
X0174693Y0208214D01*
X0173591Y0208509D01*
X0172857Y0208606D01*
X0172857Y0194432D01*
X0170926Y0194432D01*
X0170926Y0208606D01*
X0170191Y0208509D01*
X0169564Y0208341D01*
X0169564Y0209274D01*
X0169435Y0210250D01*
X0169180Y0211202D01*
X0168803Y0212112D01*
X0168311Y0212965D01*
X0167711Y0213747D01*
X0167014Y0214443D01*
X0166233Y0215043D01*
X0165380Y0215536D01*
X0164470Y0215912D01*
X0163518Y0216167D01*
X0162541Y0216296D01*
X0162325Y0216296D01*
X0162325Y0203743D01*
X0161772Y0203743D01*
X0161772Y0216296D01*
X0161556Y0216296D01*
X0160580Y0216167D01*
X0159628Y0215912D01*
X0158718Y0215536D01*
X0157865Y0215043D01*
X0157083Y0214443D01*
X0156387Y0213747D01*
X0155787Y0212965D01*
X0155294Y0212112D01*
X0154917Y0211202D01*
X0154662Y0210250D01*
X0154534Y0209274D01*
X0154534Y0203743D01*
X0161772Y0203743D01*
X0161772Y0203190D01*
X0154534Y0203190D01*
X0154534Y0197659D01*
X0154662Y0196682D01*
X0154917Y0195730D01*
X0155294Y0194820D01*
X0155787Y0193967D01*
X0156387Y0193186D01*
X0157083Y0192489D01*
X0157865Y0191889D01*
X0158718Y0191397D01*
X0159628Y0191020D01*
X0160580Y0190765D01*
X0161556Y0190636D01*
X0161772Y0190636D01*
X0161772Y0203190D01*
X0162325Y0203190D01*
X0162325Y0190636D01*
X0162541Y0190636D01*
X0163195Y0190722D01*
X0163195Y0186400D01*
X0163344Y0185270D01*
X0163639Y0184169D01*
X0164075Y0183116D01*
X0164645Y0182128D01*
X0165339Y0181224D01*
X0166145Y0180418D01*
X0166183Y0180389D01*
X0163005Y0180387D01*
X0162894Y0180476D01*
X0162263Y0180404D01*
X0162131Y0180485D01*
X0161723Y0180387D01*
X0161404Y0180387D01*
X0161373Y0180400D01*
X0161336Y0180386D01*
X0161323Y0180386D01*
X0161316Y0180379D01*
X0161000Y0180261D01*
X0160647Y0180221D01*
X0160635Y0180224D01*
X0160622Y0180218D01*
X0160604Y0180216D01*
X0160594Y0180203D01*
X0160281Y0180040D01*
X0159934Y0179957D01*
X0159920Y0179960D01*
X0159906Y0179950D01*
X0159890Y0179947D01*
X0159883Y0179934D01*
X0159588Y0179732D01*
X0159258Y0179608D01*
X0159242Y0179609D01*
X0159229Y0179597D01*
X0159215Y0179592D01*
X0159210Y0179581D01*
X0158944Y0179345D01*
X0158626Y0179180D01*
X0158613Y0179179D01*
X0158604Y0179168D01*
X0158590Y0179161D01*
X0158586Y0179148D01*
X0158349Y0178880D01*
X0158056Y0178679D01*
X0158043Y0178677D01*
X0158034Y0178664D01*
X0158020Y0178654D01*
X0158017Y0178639D01*
X0157817Y0178347D01*
X0157550Y0178111D01*
X0157536Y0178107D01*
X0157528Y0178092D01*
X0157516Y0178082D01*
X0157515Y0178068D01*
X0157351Y0177751D01*
X0157116Y0177486D01*
X0157102Y0177479D01*
X0157096Y0177463D01*
X0157086Y0177452D01*
X0157087Y0177440D01*
X0156962Y0177105D01*
X0156760Y0176812D01*
X0156749Y0176805D01*
X0156746Y0176791D01*
X0156737Y0176778D01*
X0156739Y0176763D01*
X0156656Y0176418D01*
X0156491Y0176100D01*
X0156481Y0176092D01*
X0156479Y0176077D01*
X0156471Y0176063D01*
X0156476Y0176049D01*
X0156435Y0175694D01*
X0156338Y0175434D01*
X0156334Y0175430D01*
X0156334Y0175423D01*
X0156296Y0175320D01*
X0156329Y0175246D01*
X0156328Y0175189D01*
X0156303Y0175164D01*
X0156303Y0174947D01*
X0156211Y0174564D01*
X0156292Y0174433D01*
X0156220Y0173802D01*
X0156288Y0173716D01*
X0156280Y0173401D01*
X0156304Y0173375D01*
X0156309Y0164974D01*
X0156220Y0164863D01*
X0156292Y0164231D01*
X0156211Y0164100D01*
X0156309Y0163692D01*
X0156310Y0163374D01*
X0156296Y0163344D01*
X0156310Y0163306D01*
X0156310Y0163292D01*
X0156318Y0163283D01*
X0156435Y0162970D01*
X0156476Y0162615D01*
X0156471Y0162602D01*
X0156479Y0162588D01*
X0156480Y0162572D01*
X0156491Y0162564D01*
X0156656Y0162247D01*
X0156739Y0161902D01*
X0156736Y0161888D01*
X0156746Y0161875D01*
X0156749Y0161859D01*
X0156762Y0161851D01*
X0156962Y0161560D01*
X0157088Y0161224D01*
X0157087Y0161211D01*
X0157097Y0161199D01*
X0157102Y0161185D01*
X0157115Y0161179D01*
X0157352Y0160911D01*
X0157515Y0160597D01*
X0157516Y0160583D01*
X0157528Y0160572D01*
X0157536Y0160557D01*
X0157550Y0160553D01*
X0157815Y0160318D01*
X0158017Y0160024D01*
X0158020Y0160010D01*
X0158033Y0160001D01*
X0158042Y0159988D01*
X0158056Y0159986D01*
X0158350Y0159784D01*
X0158585Y0159518D01*
X0158589Y0159505D01*
X0158604Y0159497D01*
X0158614Y0159485D01*
X0158629Y0159484D01*
X0158943Y0159320D01*
X0159211Y0159083D01*
X0159216Y0159071D01*
X0159231Y0159065D01*
X0159242Y0159055D01*
X0159255Y0159056D01*
X0159591Y0158931D01*
X0159883Y0158730D01*
X0159890Y0158718D01*
X0159906Y0158714D01*
X0159920Y0158705D01*
X0159934Y0158708D01*
X0160278Y0158625D01*
X0160595Y0158460D01*
X0160604Y0158449D01*
X0160619Y0158447D01*
X0160633Y0158440D01*
X0160647Y0158444D01*
X0161001Y0158404D01*
X0161263Y0158306D01*
X0161266Y0158303D01*
X0161272Y0158303D01*
X0161375Y0158264D01*
X0161449Y0158298D01*
X0161507Y0158296D01*
X0161532Y0158272D01*
X0161749Y0158272D01*
X0162131Y0158180D01*
X0162263Y0158260D01*
X0162894Y0158189D01*
X0162980Y0158257D01*
X0163295Y0158248D01*
X0163321Y0158273D01*
X0171722Y0158277D01*
X0171834Y0158189D01*
X0172464Y0158260D01*
X0172596Y0158180D01*
X0173004Y0158278D01*
X0173321Y0158278D01*
X0173351Y0158264D01*
X0173389Y0158278D01*
X0173404Y0158278D01*
X0173414Y0158287D01*
X0173725Y0158404D01*
X0174081Y0158444D01*
X0174094Y0158440D01*
X0174109Y0158447D01*
X0174124Y0158449D01*
X0174132Y0158459D01*
X0177371Y0160902D02*
X0205100Y0160902D01*
X0205100Y0163300D02*
X0188384Y0163300D01*
X0188387Y0163301D02*
X0188740Y0163335D01*
X0188753Y0163331D01*
X0188768Y0163338D01*
X0188784Y0163339D01*
X0188793Y0163350D01*
X0189110Y0163508D01*
X0189460Y0163586D01*
X0189472Y0163583D01*
X0189485Y0163592D01*
X0189501Y0163595D01*
X0189508Y0163607D01*
X0189806Y0163804D01*
X0190139Y0163922D01*
X0190154Y0163921D01*
X0190166Y0163932D01*
X0190182Y0163938D01*
X0190189Y0163951D01*
X0190458Y0164180D01*
X0190777Y0164340D01*
X0190792Y0164340D01*
X0190803Y0164353D01*
X0190816Y0164359D01*
X0190820Y0164372D01*
X0191062Y0164636D01*
X0191357Y0164831D01*
X0191371Y0164834D01*
X0191381Y0164847D01*
X0191394Y0164856D01*
X0191397Y0164870D01*
X0191602Y0165157D01*
X0191875Y0165390D01*
X0191887Y0165393D01*
X0191894Y0165406D01*
X0191907Y0165417D01*
X0191908Y0165432D01*
X0192078Y0165745D01*
X0192317Y0166006D01*
X0192331Y0166012D01*
X0192337Y0166028D01*
X0192348Y0166040D01*
X0192348Y0166055D01*
X0192478Y0166384D01*
X0192685Y0166675D01*
X0192698Y0166682D01*
X0192702Y0166699D01*
X0192710Y0166710D01*
X0192708Y0166722D01*
X0192797Y0167069D01*
X0192967Y0167382D01*
X0192978Y0167390D01*
X0192980Y0167405D01*
X0192987Y0167419D01*
X0192983Y0167432D01*
X0193030Y0167784D01*
X0193161Y0168117D01*
X0193170Y0168126D01*
X0193170Y0168140D01*
X0193176Y0168156D01*
X0193170Y0168171D01*
X0193173Y0168526D01*
X0193262Y0168869D01*
X0193271Y0168881D01*
X0193269Y0168898D01*
X0193273Y0168914D01*
X0193266Y0168927D01*
X0193226Y0169279D01*
X0193272Y0169630D01*
X0193280Y0169642D01*
X0193276Y0169659D01*
X0193278Y0169675D01*
X0193270Y0169686D01*
X0193187Y0170031D01*
X0193190Y0170389D01*
X0193196Y0170401D01*
X0193190Y0170416D01*
X0193190Y0170430D01*
X0193182Y0170439D01*
X0193056Y0170775D01*
X0193016Y0171127D01*
X0193020Y0171140D01*
X0193013Y0171153D01*
X0193011Y0171171D01*
X0192998Y0171181D01*
X0192836Y0171493D01*
X0192752Y0171842D01*
X0192755Y0171855D01*
X0192746Y0171868D01*
X0192742Y0171884D01*
X0192730Y0171892D01*
X0192527Y0172186D01*
X0192404Y0172517D01*
X0192405Y0172533D01*
X0192393Y0172546D01*
X0192388Y0172560D01*
X0192376Y0172565D01*
X0192141Y0172831D01*
X0191976Y0173148D01*
X0191975Y0173160D01*
X0191964Y0173170D01*
X0191957Y0173185D01*
X0191943Y0173189D01*
X0191676Y0173425D01*
X0191474Y0173719D01*
X0191472Y0173733D01*
X0191458Y0173742D01*
X0191449Y0173755D01*
X0191436Y0173758D01*
X0191142Y0173960D01*
X0190906Y0174226D01*
X0190901Y0174240D01*
X0190886Y0174248D01*
X0190877Y0174259D01*
X0190864Y0174259D01*
X0190548Y0174424D01*
X0190282Y0174659D01*
X0190276Y0174671D01*
X0190263Y0174676D01*
X0190249Y0174688D01*
X0190234Y0174687D01*
X0189903Y0174811D01*
X0189608Y0175013D01*
X0189601Y0175026D01*
X0189585Y0175029D01*
X0189572Y0175038D01*
X0189558Y0175036D01*
X0189210Y0175119D01*
X0188897Y0175282D01*
X0188887Y0175294D01*
X0188870Y0175296D01*
X0188856Y0175303D01*
X0188844Y0175299D01*
X0188492Y0175339D01*
X0188156Y0175465D01*
X0188147Y0175474D01*
X0188133Y0175474D01*
X0188118Y0175479D01*
X0188105Y0175473D01*
X0187747Y0175470D01*
X0187402Y0175553D01*
X0187391Y0175561D01*
X0187376Y0175559D01*
X0187359Y0175563D01*
X0187346Y0175556D01*
X0186995Y0175509D01*
X0186643Y0175550D01*
X0186631Y0175557D01*
X0186615Y0175553D01*
X0186597Y0175555D01*
X0186585Y0175545D01*
X0186243Y0175457D01*
X0185887Y0175454D01*
X0185873Y0175460D01*
X0185856Y0175453D01*
X0185842Y0175453D01*
X0185833Y0175444D01*
X0185501Y0175313D01*
X0185148Y0175267D01*
X0185135Y0175271D01*
X0185121Y0175263D01*
X0185106Y0175261D01*
X0185098Y0175251D01*
X0184786Y0175081D01*
X0184438Y0174991D01*
X0184426Y0174993D01*
X0184415Y0174985D01*
X0184399Y0174981D01*
X0184391Y0174968D01*
X0184101Y0174761D01*
X0183771Y0174631D01*
X0183757Y0174632D01*
X0183745Y0174620D01*
X0183729Y0174614D01*
X0183723Y0174600D01*
X0183462Y0174361D01*
X0183149Y0174191D01*
X0183134Y0174190D01*
X0183123Y0174177D01*
X0183110Y0174170D01*
X0183106Y0174158D01*
X0182874Y0173886D01*
X0182586Y0173680D01*
X0182572Y0173678D01*
X0182563Y0173664D01*
X0182550Y0173655D01*
X0182548Y0173641D01*
X0182352Y0173346D01*
X0182088Y0173104D01*
X0182076Y0173100D01*
X0182069Y0173086D01*
X0182057Y0173075D01*
X0182056Y0173060D01*
X0181897Y0172741D01*
X0181668Y0172472D01*
X0181654Y0172466D01*
X0181648Y0172450D01*
X0181638Y0172437D01*
X0181639Y0172423D01*
X0181521Y0172089D01*
X0181323Y0171792D01*
X0181312Y0171784D01*
X0181308Y0171768D01*
X0181300Y0171756D01*
X0181302Y0171743D01*
X0181225Y0171393D01*
X0181067Y0171076D01*
X0181056Y0171067D01*
X0181054Y0171051D01*
X0181047Y0171037D01*
X0181052Y0171024D01*
X0181018Y0170670D01*
X0180898Y0170333D01*
X0180889Y0170324D01*
X0180889Y0170309D01*
X0180884Y0170293D01*
X0180890Y0170280D01*
X0180900Y0169924D01*
X0180823Y0169578D01*
X0180814Y0169566D01*
X0180817Y0169550D01*
X0180813Y0169534D01*
X0180821Y0169521D01*
X0180873Y0169171D01*
X0180839Y0168816D01*
X0180832Y0168803D01*
X0180836Y0168787D01*
X0180835Y0168773D01*
X0180843Y0168763D01*
X0180939Y0168417D01*
X0180948Y0168064D01*
X0180943Y0168051D01*
X0180949Y0168036D01*
X0180949Y0168020D01*
X0180960Y0168009D01*
X0181095Y0167683D01*
X0181148Y0167328D01*
X0181145Y0167316D01*
X0181152Y0167303D01*
X0181154Y0167287D01*
X0181166Y0167278D01*
X0181342Y0166967D01*
X0181437Y0166626D01*
X0181434Y0166611D01*
X0181445Y0166597D01*
X0181449Y0166582D01*
X0181461Y0166575D01*
X0181672Y0166290D01*
X0181808Y0165962D01*
X0181808Y0165948D01*
X0181818Y0165938D01*
X0181825Y0165921D01*
X0181839Y0165915D01*
X0182082Y0165659D01*
X0182258Y0165348D01*
X0182260Y0165333D01*
X0182272Y0165323D01*
X0182280Y0165310D01*
X0182292Y0165306D01*
X0182569Y0165078D01*
X0182779Y0164794D01*
X0182782Y0164780D01*
X0182797Y0164771D01*
X0182806Y0164758D01*
X0182820Y0164756D01*
X0183118Y0164566D01*
X0183364Y0164306D01*
X0183369Y0164295D01*
X0183381Y0164289D01*
X0183393Y0164276D01*
X0183409Y0164275D01*
X0183730Y0164122D01*
X0184004Y0163896D01*
X0184011Y0163883D01*
X0184027Y0163877D01*
X0184039Y0163868D01*
X0184052Y0163869D01*
X0184391Y0163756D01*
X0184688Y0163566D01*
X0184696Y0163554D01*
X0184712Y0163551D01*
X0184727Y0163542D01*
X0184741Y0163545D01*
X0185086Y0163475D01*
X0185343Y0163352D01*
X0185346Y0163348D01*
X0185353Y0163348D01*
X0185449Y0163302D01*
X0185523Y0163328D01*
X0185660Y0163313D01*
X0185736Y0163233D01*
X0185974Y0163227D01*
X0186197Y0163152D01*
X0186328Y0163217D01*
X0186350Y0163217D01*
X0186376Y0163212D01*
X0186489Y0163118D01*
X0186723Y0163141D01*
X0186954Y0163094D01*
X0187048Y0163155D01*
X0187182Y0163140D01*
X0187250Y0163097D01*
X0187357Y0163120D01*
X0187364Y0163119D01*
X0187367Y0163123D01*
X0187640Y0163183D01*
X0187997Y0163174D01*
X0188010Y0163167D01*
X0188025Y0163173D01*
X0188040Y0163173D01*
X0188050Y0163182D01*
X0188387Y0163301D01*
X0185672Y0163300D02*
X0178416Y0163300D01*
X0178424Y0165699D02*
X0182044Y0165699D01*
X0180947Y0168097D02*
X0178424Y0168097D01*
X0178424Y0170496D02*
X0180956Y0170496D01*
X0181973Y0172894D02*
X0178424Y0172894D01*
X0178386Y0175293D02*
X0185347Y0175293D01*
X0188889Y0175293D02*
X0205100Y0175293D01*
X0205100Y0177691D02*
X0177456Y0177691D01*
X0177210Y0180090D02*
X0205100Y0180090D01*
X0205100Y0182488D02*
X0179345Y0182488D01*
X0180336Y0184887D02*
X0205100Y0184887D01*
X0205100Y0187285D02*
X0180587Y0187285D01*
X0180587Y0189684D02*
X0205100Y0189684D01*
X0205100Y0192082D02*
X0180587Y0192082D01*
X0180587Y0194481D02*
X0205100Y0194481D01*
X0205100Y0196879D02*
X0180587Y0196879D01*
X0180587Y0199278D02*
X0205100Y0199278D01*
X0205100Y0201676D02*
X0180435Y0201676D01*
X0179558Y0204075D02*
X0205100Y0204075D01*
X0205100Y0206473D02*
X0177678Y0206473D01*
X0172857Y0206473D02*
X0170926Y0206473D01*
X0170926Y0204075D02*
X0172857Y0204075D01*
X0172857Y0201676D02*
X0170926Y0201676D01*
X0170926Y0199278D02*
X0172857Y0199278D01*
X0172857Y0196879D02*
X0170926Y0196879D01*
X0170926Y0194481D02*
X0172857Y0194481D01*
X0162325Y0194481D02*
X0161772Y0194481D01*
X0161772Y0196879D02*
X0162325Y0196879D01*
X0162325Y0199278D02*
X0161772Y0199278D01*
X0161772Y0201676D02*
X0162325Y0201676D01*
X0162325Y0204075D02*
X0161772Y0204075D01*
X0161772Y0206473D02*
X0162325Y0206473D01*
X0162325Y0208872D02*
X0161772Y0208872D01*
X0161772Y0211270D02*
X0162325Y0211270D01*
X0162325Y0213669D02*
X0161772Y0213669D01*
X0161772Y0216068D02*
X0162325Y0216068D01*
X0163891Y0216068D02*
X0205100Y0216068D01*
X0205100Y0218466D02*
X0152600Y0218466D01*
X0152600Y0216068D02*
X0160207Y0216068D01*
X0156327Y0213669D02*
X0152600Y0213669D01*
X0152600Y0211270D02*
X0154946Y0211270D01*
X0154534Y0208872D02*
X0152600Y0208872D01*
X0152600Y0206473D02*
X0154534Y0206473D01*
X0154534Y0204075D02*
X0152600Y0204075D01*
X0152600Y0201676D02*
X0154534Y0201676D01*
X0154534Y0199278D02*
X0152600Y0199278D01*
X0152600Y0196879D02*
X0154636Y0196879D01*
X0155490Y0194481D02*
X0152600Y0194481D01*
X0152600Y0192082D02*
X0157613Y0192082D01*
X0161772Y0192082D02*
X0162325Y0192082D01*
X0163195Y0189684D02*
X0152600Y0189684D01*
X0152600Y0187285D02*
X0163195Y0187285D01*
X0163447Y0184887D02*
X0152600Y0184887D01*
X0152600Y0182488D02*
X0164438Y0182488D01*
X0160376Y0180090D02*
X0152600Y0180090D01*
X0152600Y0177691D02*
X0157298Y0177691D01*
X0156308Y0175293D02*
X0152600Y0175293D01*
X0152600Y0172894D02*
X0156304Y0172894D01*
X0156306Y0170496D02*
X0080168Y0170496D01*
X0080161Y0168097D02*
X0156307Y0168097D01*
X0156308Y0165699D02*
X0079061Y0165699D01*
X0075392Y0163300D02*
X0156310Y0163300D01*
X0157357Y0160902D02*
X0032600Y0160902D01*
X0032600Y0163300D02*
X0072680Y0163300D01*
X0069052Y0165699D02*
X0032600Y0165699D01*
X0032600Y0168097D02*
X0067955Y0168097D01*
X0067965Y0170496D02*
X0032600Y0170496D01*
X0032600Y0172894D02*
X0057738Y0172894D01*
X0057738Y0175293D02*
X0032600Y0175293D01*
X0032600Y0177691D02*
X0057738Y0177691D01*
X0057738Y0180090D02*
X0032600Y0180090D01*
X0032600Y0182488D02*
X0057738Y0182488D01*
X0057738Y0184887D02*
X0032600Y0184887D01*
X0032600Y0187285D02*
X0057738Y0187285D01*
X0057738Y0189684D02*
X0032600Y0189684D01*
X0032600Y0192082D02*
X0057738Y0192082D01*
X0057738Y0194481D02*
X0032600Y0194481D01*
X0032600Y0196879D02*
X0057738Y0196879D01*
X0057738Y0199278D02*
X0032600Y0199278D01*
X0032600Y0201676D02*
X0044627Y0201676D01*
X0044764Y0201540D02*
X0045266Y0201250D01*
X0045825Y0201100D01*
X0050415Y0201100D01*
X0055005Y0201100D01*
X0055564Y0201250D01*
X0056066Y0201540D01*
X0056475Y0201949D01*
X0056765Y0202451D01*
X0056915Y0203010D01*
X0056915Y0207600D01*
X0056915Y0212190D01*
X0056765Y0212749D01*
X0056475Y0213251D01*
X0056066Y0213660D01*
X0055564Y0213950D01*
X0055005Y0214100D01*
X0050415Y0214100D01*
X0050415Y0207600D01*
X0056915Y0207600D01*
X0050415Y0207600D01*
X0050415Y0207600D01*
X0050415Y0207600D01*
X0050415Y0201100D01*
X0050415Y0207600D01*
X0050415Y0207600D01*
X0050415Y0214100D01*
X0045825Y0214100D01*
X0045266Y0213950D01*
X0044764Y0213660D01*
X0044355Y0213251D01*
X0044065Y0212749D01*
X0043915Y0212190D01*
X0043915Y0207600D01*
X0050415Y0207600D01*
X0050415Y0207600D01*
X0043915Y0207600D01*
X0043915Y0203010D01*
X0044065Y0202451D01*
X0044355Y0201949D01*
X0044764Y0201540D01*
X0043915Y0204075D02*
X0032600Y0204075D01*
X0032600Y0206473D02*
X0043915Y0206473D01*
X0043915Y0208872D02*
X0032600Y0208872D01*
X0032600Y0211270D02*
X0043915Y0211270D01*
X0044779Y0213669D02*
X0032600Y0213669D01*
X0032600Y0216068D02*
X0057738Y0216068D01*
X0057738Y0218466D02*
X0032600Y0218466D01*
X0032600Y0220865D02*
X0057738Y0220865D01*
X0057738Y0213669D02*
X0056051Y0213669D01*
X0056915Y0211270D02*
X0057738Y0211270D01*
X0057738Y0208872D02*
X0056915Y0208872D01*
X0056915Y0206473D02*
X0057738Y0206473D01*
X0057738Y0204075D02*
X0056915Y0204075D01*
X0056203Y0201676D02*
X0057738Y0201676D01*
X0050415Y0201676D02*
X0050415Y0201676D01*
X0050415Y0204075D02*
X0050415Y0204075D01*
X0050415Y0206473D02*
X0050415Y0206473D01*
X0050415Y0208872D02*
X0050415Y0208872D01*
X0050415Y0211270D02*
X0050415Y0211270D01*
X0050415Y0213669D02*
X0050415Y0213669D01*
X0032600Y0158503D02*
X0160512Y0158503D01*
X0192053Y0165699D02*
X0205100Y0165699D01*
X0205100Y0168097D02*
X0193153Y0168097D01*
X0193160Y0170496D02*
X0205100Y0170496D01*
X0205100Y0172894D02*
X0192108Y0172894D01*
X0205100Y0208872D02*
X0169564Y0208872D01*
X0169152Y0211270D02*
X0205100Y0211270D01*
X0205100Y0213669D02*
X0167771Y0213669D01*
X0152600Y0220865D02*
X0205100Y0220865D01*
M02*
