G75*
%MOIN*%
%OFA0B0*%
%FSLAX25Y25*%
%IPPOS*%
%LPD*%
%AMOC8*
5,1,8,0,0,1.08239X$1,22.5*
%
%ADD10C,0.00000*%
%ADD11R,0.05512X0.03937*%
%ADD12R,0.05315X0.01772*%
%ADD13R,0.06693X0.07874*%
%ADD14R,0.04331X0.03937*%
%ADD15R,0.08661X0.07087*%
%ADD16R,0.03543X0.02756*%
%ADD17R,0.02756X0.03543*%
%ADD18R,0.13780X0.09843*%
D10*
X0016773Y0002600D02*
X0244332Y0002600D01*
X0244674Y0002604D01*
X0245017Y0002617D01*
X0245359Y0002637D01*
X0245700Y0002666D01*
X0246040Y0002703D01*
X0246380Y0002749D01*
X0246718Y0002802D01*
X0247055Y0002864D01*
X0247390Y0002934D01*
X0247724Y0003012D01*
X0248055Y0003098D01*
X0248385Y0003192D01*
X0248712Y0003294D01*
X0249036Y0003403D01*
X0249358Y0003521D01*
X0249677Y0003646D01*
X0249992Y0003779D01*
X0250305Y0003920D01*
X0250613Y0004068D01*
X0250919Y0004223D01*
X0251220Y0004386D01*
X0251517Y0004556D01*
X0251810Y0004733D01*
X0252099Y0004918D01*
X0252383Y0005109D01*
X0252663Y0005307D01*
X0252937Y0005511D01*
X0253207Y0005723D01*
X0253471Y0005940D01*
X0253730Y0006164D01*
X0253984Y0006395D01*
X0254232Y0006631D01*
X0254474Y0006873D01*
X0254710Y0007121D01*
X0254941Y0007375D01*
X0255165Y0007634D01*
X0255382Y0007898D01*
X0255594Y0008168D01*
X0255798Y0008442D01*
X0255996Y0008722D01*
X0256187Y0009006D01*
X0256372Y0009295D01*
X0256549Y0009588D01*
X0256719Y0009885D01*
X0256882Y0010186D01*
X0257037Y0010492D01*
X0257185Y0010800D01*
X0257326Y0011113D01*
X0257459Y0011428D01*
X0257584Y0011747D01*
X0257702Y0012069D01*
X0257811Y0012393D01*
X0257913Y0012720D01*
X0258007Y0013050D01*
X0258093Y0013381D01*
X0258171Y0013715D01*
X0258241Y0014050D01*
X0258303Y0014387D01*
X0258356Y0014725D01*
X0258402Y0015065D01*
X0258439Y0015405D01*
X0258468Y0015746D01*
X0258488Y0016088D01*
X0258501Y0016431D01*
X0258505Y0016773D01*
X0258506Y0016773D02*
X0258506Y0208899D01*
X0258505Y0208899D02*
X0258501Y0209241D01*
X0258488Y0209584D01*
X0258468Y0209926D01*
X0258439Y0210267D01*
X0258402Y0210607D01*
X0258356Y0210947D01*
X0258303Y0211285D01*
X0258241Y0211622D01*
X0258171Y0211957D01*
X0258093Y0212291D01*
X0258007Y0212622D01*
X0257913Y0212952D01*
X0257811Y0213279D01*
X0257702Y0213603D01*
X0257584Y0213925D01*
X0257459Y0214244D01*
X0257326Y0214559D01*
X0257185Y0214872D01*
X0257037Y0215180D01*
X0256882Y0215486D01*
X0256719Y0215787D01*
X0256549Y0216084D01*
X0256372Y0216377D01*
X0256187Y0216666D01*
X0255996Y0216950D01*
X0255798Y0217230D01*
X0255594Y0217504D01*
X0255382Y0217774D01*
X0255165Y0218038D01*
X0254941Y0218297D01*
X0254710Y0218551D01*
X0254474Y0218799D01*
X0254232Y0219041D01*
X0253984Y0219277D01*
X0253730Y0219508D01*
X0253471Y0219732D01*
X0253207Y0219949D01*
X0252937Y0220161D01*
X0252663Y0220365D01*
X0252383Y0220563D01*
X0252099Y0220754D01*
X0251810Y0220939D01*
X0251517Y0221116D01*
X0251220Y0221286D01*
X0250919Y0221449D01*
X0250613Y0221604D01*
X0250305Y0221752D01*
X0249992Y0221893D01*
X0249677Y0222026D01*
X0249358Y0222151D01*
X0249036Y0222269D01*
X0248712Y0222378D01*
X0248385Y0222480D01*
X0248055Y0222574D01*
X0247724Y0222660D01*
X0247390Y0222738D01*
X0247055Y0222808D01*
X0246718Y0222870D01*
X0246380Y0222923D01*
X0246040Y0222969D01*
X0245700Y0223006D01*
X0245359Y0223035D01*
X0245017Y0223055D01*
X0244674Y0223068D01*
X0244332Y0223072D01*
X0016773Y0223072D01*
X0016431Y0223068D01*
X0016088Y0223055D01*
X0015746Y0223035D01*
X0015405Y0223006D01*
X0015065Y0222969D01*
X0014725Y0222923D01*
X0014387Y0222870D01*
X0014050Y0222808D01*
X0013715Y0222738D01*
X0013381Y0222660D01*
X0013050Y0222574D01*
X0012720Y0222480D01*
X0012393Y0222378D01*
X0012069Y0222269D01*
X0011747Y0222151D01*
X0011428Y0222026D01*
X0011113Y0221893D01*
X0010800Y0221752D01*
X0010492Y0221604D01*
X0010186Y0221449D01*
X0009885Y0221286D01*
X0009588Y0221116D01*
X0009295Y0220939D01*
X0009006Y0220754D01*
X0008722Y0220563D01*
X0008442Y0220365D01*
X0008168Y0220161D01*
X0007898Y0219949D01*
X0007634Y0219732D01*
X0007375Y0219508D01*
X0007121Y0219277D01*
X0006873Y0219041D01*
X0006631Y0218799D01*
X0006395Y0218551D01*
X0006164Y0218297D01*
X0005940Y0218038D01*
X0005723Y0217774D01*
X0005511Y0217504D01*
X0005307Y0217230D01*
X0005109Y0216950D01*
X0004918Y0216666D01*
X0004733Y0216377D01*
X0004556Y0216084D01*
X0004386Y0215787D01*
X0004223Y0215486D01*
X0004068Y0215180D01*
X0003920Y0214872D01*
X0003779Y0214559D01*
X0003646Y0214244D01*
X0003521Y0213925D01*
X0003403Y0213603D01*
X0003294Y0213279D01*
X0003192Y0212952D01*
X0003098Y0212622D01*
X0003012Y0212291D01*
X0002934Y0211957D01*
X0002864Y0211622D01*
X0002802Y0211285D01*
X0002749Y0210947D01*
X0002703Y0210607D01*
X0002666Y0210267D01*
X0002637Y0209926D01*
X0002617Y0209584D01*
X0002604Y0209241D01*
X0002600Y0208899D01*
X0002600Y0016773D01*
X0002604Y0016431D01*
X0002617Y0016088D01*
X0002637Y0015746D01*
X0002666Y0015405D01*
X0002703Y0015065D01*
X0002749Y0014725D01*
X0002802Y0014387D01*
X0002864Y0014050D01*
X0002934Y0013715D01*
X0003012Y0013381D01*
X0003098Y0013050D01*
X0003192Y0012720D01*
X0003294Y0012393D01*
X0003403Y0012069D01*
X0003521Y0011747D01*
X0003646Y0011428D01*
X0003779Y0011113D01*
X0003920Y0010800D01*
X0004068Y0010492D01*
X0004223Y0010186D01*
X0004386Y0009885D01*
X0004556Y0009588D01*
X0004733Y0009295D01*
X0004918Y0009006D01*
X0005109Y0008722D01*
X0005307Y0008442D01*
X0005511Y0008168D01*
X0005723Y0007898D01*
X0005940Y0007634D01*
X0006164Y0007375D01*
X0006395Y0007121D01*
X0006631Y0006873D01*
X0006873Y0006631D01*
X0007121Y0006395D01*
X0007375Y0006164D01*
X0007634Y0005940D01*
X0007898Y0005723D01*
X0008168Y0005511D01*
X0008442Y0005307D01*
X0008722Y0005109D01*
X0009006Y0004918D01*
X0009295Y0004733D01*
X0009588Y0004556D01*
X0009885Y0004386D01*
X0010186Y0004223D01*
X0010492Y0004068D01*
X0010800Y0003920D01*
X0011113Y0003779D01*
X0011428Y0003646D01*
X0011747Y0003521D01*
X0012069Y0003403D01*
X0012393Y0003294D01*
X0012720Y0003192D01*
X0013050Y0003098D01*
X0013381Y0003012D01*
X0013715Y0002934D01*
X0014050Y0002864D01*
X0014387Y0002802D01*
X0014725Y0002749D01*
X0015065Y0002703D01*
X0015405Y0002666D01*
X0015746Y0002637D01*
X0016088Y0002617D01*
X0016431Y0002604D01*
X0016773Y0002600D01*
X0088033Y0065631D02*
X0088033Y0088033D01*
X0088035Y0088099D01*
X0088040Y0088165D01*
X0088050Y0088231D01*
X0088063Y0088296D01*
X0088079Y0088360D01*
X0088099Y0088423D01*
X0088123Y0088485D01*
X0088150Y0088545D01*
X0088180Y0088604D01*
X0088214Y0088661D01*
X0088251Y0088716D01*
X0088291Y0088769D01*
X0088333Y0088820D01*
X0088379Y0088868D01*
X0088427Y0088914D01*
X0088478Y0088956D01*
X0088531Y0088996D01*
X0088586Y0089033D01*
X0088643Y0089067D01*
X0088702Y0089097D01*
X0088762Y0089124D01*
X0088824Y0089148D01*
X0088887Y0089168D01*
X0088951Y0089184D01*
X0089016Y0089197D01*
X0089082Y0089207D01*
X0089148Y0089212D01*
X0089214Y0089214D01*
X0145513Y0089214D01*
X0145579Y0089212D01*
X0145645Y0089207D01*
X0145711Y0089197D01*
X0145776Y0089184D01*
X0145840Y0089168D01*
X0145903Y0089148D01*
X0145965Y0089124D01*
X0146025Y0089097D01*
X0146084Y0089067D01*
X0146141Y0089033D01*
X0146196Y0088996D01*
X0146249Y0088956D01*
X0146300Y0088914D01*
X0146348Y0088868D01*
X0146394Y0088820D01*
X0146436Y0088769D01*
X0146476Y0088716D01*
X0146513Y0088661D01*
X0146547Y0088604D01*
X0146577Y0088545D01*
X0146604Y0088485D01*
X0146628Y0088423D01*
X0146648Y0088360D01*
X0146664Y0088296D01*
X0146677Y0088231D01*
X0146687Y0088165D01*
X0146692Y0088099D01*
X0146694Y0088033D01*
X0146694Y0065592D01*
X0146692Y0065526D01*
X0146687Y0065460D01*
X0146677Y0065394D01*
X0146664Y0065329D01*
X0146648Y0065265D01*
X0146628Y0065202D01*
X0146604Y0065140D01*
X0146577Y0065080D01*
X0146547Y0065021D01*
X0146513Y0064964D01*
X0146476Y0064909D01*
X0146436Y0064856D01*
X0146394Y0064805D01*
X0146348Y0064757D01*
X0146300Y0064711D01*
X0146249Y0064669D01*
X0146196Y0064629D01*
X0146141Y0064592D01*
X0146084Y0064558D01*
X0146025Y0064528D01*
X0145965Y0064501D01*
X0145903Y0064477D01*
X0145840Y0064457D01*
X0145776Y0064441D01*
X0145711Y0064428D01*
X0145645Y0064418D01*
X0145579Y0064413D01*
X0145513Y0064411D01*
X0089214Y0064411D01*
X0089148Y0064413D01*
X0089082Y0064418D01*
X0089016Y0064428D01*
X0088951Y0064441D01*
X0088887Y0064457D01*
X0088824Y0064477D01*
X0088762Y0064501D01*
X0088702Y0064528D01*
X0088643Y0064558D01*
X0088586Y0064592D01*
X0088531Y0064629D01*
X0088478Y0064669D01*
X0088427Y0064711D01*
X0088379Y0064757D01*
X0088333Y0064805D01*
X0088291Y0064856D01*
X0088251Y0064909D01*
X0088214Y0064964D01*
X0088180Y0065021D01*
X0088150Y0065080D01*
X0088123Y0065140D01*
X0088099Y0065202D01*
X0088079Y0065265D01*
X0088063Y0065329D01*
X0088050Y0065394D01*
X0088040Y0065460D01*
X0088035Y0065526D01*
X0088033Y0065592D01*
X0114411Y0096694D02*
X0146694Y0096694D01*
X0146694Y0128978D01*
X0114411Y0128978D01*
X0114411Y0096694D01*
X0086064Y0114805D02*
X0086066Y0114917D01*
X0086072Y0115028D01*
X0086082Y0115140D01*
X0086096Y0115251D01*
X0086113Y0115361D01*
X0086135Y0115471D01*
X0086161Y0115580D01*
X0086190Y0115688D01*
X0086223Y0115794D01*
X0086260Y0115900D01*
X0086301Y0116004D01*
X0086346Y0116107D01*
X0086394Y0116208D01*
X0086445Y0116307D01*
X0086500Y0116404D01*
X0086559Y0116499D01*
X0086620Y0116593D01*
X0086685Y0116684D01*
X0086754Y0116772D01*
X0086825Y0116858D01*
X0086899Y0116942D01*
X0086977Y0117022D01*
X0087057Y0117100D01*
X0087140Y0117176D01*
X0087225Y0117248D01*
X0087313Y0117317D01*
X0087403Y0117383D01*
X0087496Y0117445D01*
X0087591Y0117505D01*
X0087688Y0117561D01*
X0087786Y0117613D01*
X0087887Y0117662D01*
X0087989Y0117707D01*
X0088093Y0117749D01*
X0088198Y0117787D01*
X0088305Y0117821D01*
X0088412Y0117851D01*
X0088521Y0117878D01*
X0088630Y0117900D01*
X0088741Y0117919D01*
X0088851Y0117934D01*
X0088963Y0117945D01*
X0089074Y0117952D01*
X0089186Y0117955D01*
X0089298Y0117954D01*
X0089410Y0117949D01*
X0089521Y0117940D01*
X0089632Y0117927D01*
X0089743Y0117910D01*
X0089853Y0117890D01*
X0089962Y0117865D01*
X0090070Y0117837D01*
X0090177Y0117804D01*
X0090283Y0117768D01*
X0090387Y0117728D01*
X0090490Y0117685D01*
X0090592Y0117638D01*
X0090691Y0117587D01*
X0090789Y0117533D01*
X0090885Y0117475D01*
X0090979Y0117414D01*
X0091070Y0117350D01*
X0091159Y0117283D01*
X0091246Y0117212D01*
X0091330Y0117138D01*
X0091412Y0117062D01*
X0091490Y0116982D01*
X0091566Y0116900D01*
X0091639Y0116815D01*
X0091709Y0116728D01*
X0091775Y0116638D01*
X0091839Y0116546D01*
X0091899Y0116452D01*
X0091956Y0116356D01*
X0092009Y0116257D01*
X0092059Y0116157D01*
X0092105Y0116056D01*
X0092148Y0115952D01*
X0092187Y0115847D01*
X0092222Y0115741D01*
X0092253Y0115634D01*
X0092281Y0115525D01*
X0092304Y0115416D01*
X0092324Y0115306D01*
X0092340Y0115195D01*
X0092352Y0115084D01*
X0092360Y0114973D01*
X0092364Y0114861D01*
X0092364Y0114749D01*
X0092360Y0114637D01*
X0092352Y0114526D01*
X0092340Y0114415D01*
X0092324Y0114304D01*
X0092304Y0114194D01*
X0092281Y0114085D01*
X0092253Y0113976D01*
X0092222Y0113869D01*
X0092187Y0113763D01*
X0092148Y0113658D01*
X0092105Y0113554D01*
X0092059Y0113453D01*
X0092009Y0113353D01*
X0091956Y0113254D01*
X0091899Y0113158D01*
X0091839Y0113064D01*
X0091775Y0112972D01*
X0091709Y0112882D01*
X0091639Y0112795D01*
X0091566Y0112710D01*
X0091490Y0112628D01*
X0091412Y0112548D01*
X0091330Y0112472D01*
X0091246Y0112398D01*
X0091159Y0112327D01*
X0091070Y0112260D01*
X0090979Y0112196D01*
X0090885Y0112135D01*
X0090789Y0112077D01*
X0090691Y0112023D01*
X0090592Y0111972D01*
X0090490Y0111925D01*
X0090387Y0111882D01*
X0090283Y0111842D01*
X0090177Y0111806D01*
X0090070Y0111773D01*
X0089962Y0111745D01*
X0089853Y0111720D01*
X0089743Y0111700D01*
X0089632Y0111683D01*
X0089521Y0111670D01*
X0089410Y0111661D01*
X0089298Y0111656D01*
X0089186Y0111655D01*
X0089074Y0111658D01*
X0088963Y0111665D01*
X0088851Y0111676D01*
X0088741Y0111691D01*
X0088630Y0111710D01*
X0088521Y0111732D01*
X0088412Y0111759D01*
X0088305Y0111789D01*
X0088198Y0111823D01*
X0088093Y0111861D01*
X0087989Y0111903D01*
X0087887Y0111948D01*
X0087786Y0111997D01*
X0087688Y0112049D01*
X0087591Y0112105D01*
X0087496Y0112165D01*
X0087403Y0112227D01*
X0087313Y0112293D01*
X0087225Y0112362D01*
X0087140Y0112434D01*
X0087057Y0112510D01*
X0086977Y0112588D01*
X0086899Y0112668D01*
X0086825Y0112752D01*
X0086754Y0112838D01*
X0086685Y0112926D01*
X0086620Y0113017D01*
X0086559Y0113111D01*
X0086500Y0113206D01*
X0086445Y0113303D01*
X0086394Y0113402D01*
X0086346Y0113503D01*
X0086301Y0113606D01*
X0086260Y0113710D01*
X0086223Y0113816D01*
X0086190Y0113922D01*
X0086161Y0114030D01*
X0086135Y0114139D01*
X0086113Y0114249D01*
X0086096Y0114359D01*
X0086082Y0114470D01*
X0086072Y0114582D01*
X0086066Y0114693D01*
X0086064Y0114805D01*
X0168741Y0114805D02*
X0168743Y0114917D01*
X0168749Y0115028D01*
X0168759Y0115140D01*
X0168773Y0115251D01*
X0168790Y0115361D01*
X0168812Y0115471D01*
X0168838Y0115580D01*
X0168867Y0115688D01*
X0168900Y0115794D01*
X0168937Y0115900D01*
X0168978Y0116004D01*
X0169023Y0116107D01*
X0169071Y0116208D01*
X0169122Y0116307D01*
X0169177Y0116404D01*
X0169236Y0116499D01*
X0169297Y0116593D01*
X0169362Y0116684D01*
X0169431Y0116772D01*
X0169502Y0116858D01*
X0169576Y0116942D01*
X0169654Y0117022D01*
X0169734Y0117100D01*
X0169817Y0117176D01*
X0169902Y0117248D01*
X0169990Y0117317D01*
X0170080Y0117383D01*
X0170173Y0117445D01*
X0170268Y0117505D01*
X0170365Y0117561D01*
X0170463Y0117613D01*
X0170564Y0117662D01*
X0170666Y0117707D01*
X0170770Y0117749D01*
X0170875Y0117787D01*
X0170982Y0117821D01*
X0171089Y0117851D01*
X0171198Y0117878D01*
X0171307Y0117900D01*
X0171418Y0117919D01*
X0171528Y0117934D01*
X0171640Y0117945D01*
X0171751Y0117952D01*
X0171863Y0117955D01*
X0171975Y0117954D01*
X0172087Y0117949D01*
X0172198Y0117940D01*
X0172309Y0117927D01*
X0172420Y0117910D01*
X0172530Y0117890D01*
X0172639Y0117865D01*
X0172747Y0117837D01*
X0172854Y0117804D01*
X0172960Y0117768D01*
X0173064Y0117728D01*
X0173167Y0117685D01*
X0173269Y0117638D01*
X0173368Y0117587D01*
X0173466Y0117533D01*
X0173562Y0117475D01*
X0173656Y0117414D01*
X0173747Y0117350D01*
X0173836Y0117283D01*
X0173923Y0117212D01*
X0174007Y0117138D01*
X0174089Y0117062D01*
X0174167Y0116982D01*
X0174243Y0116900D01*
X0174316Y0116815D01*
X0174386Y0116728D01*
X0174452Y0116638D01*
X0174516Y0116546D01*
X0174576Y0116452D01*
X0174633Y0116356D01*
X0174686Y0116257D01*
X0174736Y0116157D01*
X0174782Y0116056D01*
X0174825Y0115952D01*
X0174864Y0115847D01*
X0174899Y0115741D01*
X0174930Y0115634D01*
X0174958Y0115525D01*
X0174981Y0115416D01*
X0175001Y0115306D01*
X0175017Y0115195D01*
X0175029Y0115084D01*
X0175037Y0114973D01*
X0175041Y0114861D01*
X0175041Y0114749D01*
X0175037Y0114637D01*
X0175029Y0114526D01*
X0175017Y0114415D01*
X0175001Y0114304D01*
X0174981Y0114194D01*
X0174958Y0114085D01*
X0174930Y0113976D01*
X0174899Y0113869D01*
X0174864Y0113763D01*
X0174825Y0113658D01*
X0174782Y0113554D01*
X0174736Y0113453D01*
X0174686Y0113353D01*
X0174633Y0113254D01*
X0174576Y0113158D01*
X0174516Y0113064D01*
X0174452Y0112972D01*
X0174386Y0112882D01*
X0174316Y0112795D01*
X0174243Y0112710D01*
X0174167Y0112628D01*
X0174089Y0112548D01*
X0174007Y0112472D01*
X0173923Y0112398D01*
X0173836Y0112327D01*
X0173747Y0112260D01*
X0173656Y0112196D01*
X0173562Y0112135D01*
X0173466Y0112077D01*
X0173368Y0112023D01*
X0173269Y0111972D01*
X0173167Y0111925D01*
X0173064Y0111882D01*
X0172960Y0111842D01*
X0172854Y0111806D01*
X0172747Y0111773D01*
X0172639Y0111745D01*
X0172530Y0111720D01*
X0172420Y0111700D01*
X0172309Y0111683D01*
X0172198Y0111670D01*
X0172087Y0111661D01*
X0171975Y0111656D01*
X0171863Y0111655D01*
X0171751Y0111658D01*
X0171640Y0111665D01*
X0171528Y0111676D01*
X0171418Y0111691D01*
X0171307Y0111710D01*
X0171198Y0111732D01*
X0171089Y0111759D01*
X0170982Y0111789D01*
X0170875Y0111823D01*
X0170770Y0111861D01*
X0170666Y0111903D01*
X0170564Y0111948D01*
X0170463Y0111997D01*
X0170365Y0112049D01*
X0170268Y0112105D01*
X0170173Y0112165D01*
X0170080Y0112227D01*
X0169990Y0112293D01*
X0169902Y0112362D01*
X0169817Y0112434D01*
X0169734Y0112510D01*
X0169654Y0112588D01*
X0169576Y0112668D01*
X0169502Y0112752D01*
X0169431Y0112838D01*
X0169362Y0112926D01*
X0169297Y0113017D01*
X0169236Y0113111D01*
X0169177Y0113206D01*
X0169122Y0113303D01*
X0169071Y0113402D01*
X0169023Y0113503D01*
X0168978Y0113606D01*
X0168937Y0113710D01*
X0168900Y0113816D01*
X0168867Y0113922D01*
X0168838Y0114030D01*
X0168812Y0114139D01*
X0168790Y0114249D01*
X0168773Y0114359D01*
X0168759Y0114470D01*
X0168749Y0114582D01*
X0168743Y0114693D01*
X0168741Y0114805D01*
X0168741Y0065592D02*
X0168743Y0065704D01*
X0168749Y0065815D01*
X0168759Y0065927D01*
X0168773Y0066038D01*
X0168790Y0066148D01*
X0168812Y0066258D01*
X0168838Y0066367D01*
X0168867Y0066475D01*
X0168900Y0066581D01*
X0168937Y0066687D01*
X0168978Y0066791D01*
X0169023Y0066894D01*
X0169071Y0066995D01*
X0169122Y0067094D01*
X0169177Y0067191D01*
X0169236Y0067286D01*
X0169297Y0067380D01*
X0169362Y0067471D01*
X0169431Y0067559D01*
X0169502Y0067645D01*
X0169576Y0067729D01*
X0169654Y0067809D01*
X0169734Y0067887D01*
X0169817Y0067963D01*
X0169902Y0068035D01*
X0169990Y0068104D01*
X0170080Y0068170D01*
X0170173Y0068232D01*
X0170268Y0068292D01*
X0170365Y0068348D01*
X0170463Y0068400D01*
X0170564Y0068449D01*
X0170666Y0068494D01*
X0170770Y0068536D01*
X0170875Y0068574D01*
X0170982Y0068608D01*
X0171089Y0068638D01*
X0171198Y0068665D01*
X0171307Y0068687D01*
X0171418Y0068706D01*
X0171528Y0068721D01*
X0171640Y0068732D01*
X0171751Y0068739D01*
X0171863Y0068742D01*
X0171975Y0068741D01*
X0172087Y0068736D01*
X0172198Y0068727D01*
X0172309Y0068714D01*
X0172420Y0068697D01*
X0172530Y0068677D01*
X0172639Y0068652D01*
X0172747Y0068624D01*
X0172854Y0068591D01*
X0172960Y0068555D01*
X0173064Y0068515D01*
X0173167Y0068472D01*
X0173269Y0068425D01*
X0173368Y0068374D01*
X0173466Y0068320D01*
X0173562Y0068262D01*
X0173656Y0068201D01*
X0173747Y0068137D01*
X0173836Y0068070D01*
X0173923Y0067999D01*
X0174007Y0067925D01*
X0174089Y0067849D01*
X0174167Y0067769D01*
X0174243Y0067687D01*
X0174316Y0067602D01*
X0174386Y0067515D01*
X0174452Y0067425D01*
X0174516Y0067333D01*
X0174576Y0067239D01*
X0174633Y0067143D01*
X0174686Y0067044D01*
X0174736Y0066944D01*
X0174782Y0066843D01*
X0174825Y0066739D01*
X0174864Y0066634D01*
X0174899Y0066528D01*
X0174930Y0066421D01*
X0174958Y0066312D01*
X0174981Y0066203D01*
X0175001Y0066093D01*
X0175017Y0065982D01*
X0175029Y0065871D01*
X0175037Y0065760D01*
X0175041Y0065648D01*
X0175041Y0065536D01*
X0175037Y0065424D01*
X0175029Y0065313D01*
X0175017Y0065202D01*
X0175001Y0065091D01*
X0174981Y0064981D01*
X0174958Y0064872D01*
X0174930Y0064763D01*
X0174899Y0064656D01*
X0174864Y0064550D01*
X0174825Y0064445D01*
X0174782Y0064341D01*
X0174736Y0064240D01*
X0174686Y0064140D01*
X0174633Y0064041D01*
X0174576Y0063945D01*
X0174516Y0063851D01*
X0174452Y0063759D01*
X0174386Y0063669D01*
X0174316Y0063582D01*
X0174243Y0063497D01*
X0174167Y0063415D01*
X0174089Y0063335D01*
X0174007Y0063259D01*
X0173923Y0063185D01*
X0173836Y0063114D01*
X0173747Y0063047D01*
X0173656Y0062983D01*
X0173562Y0062922D01*
X0173466Y0062864D01*
X0173368Y0062810D01*
X0173269Y0062759D01*
X0173167Y0062712D01*
X0173064Y0062669D01*
X0172960Y0062629D01*
X0172854Y0062593D01*
X0172747Y0062560D01*
X0172639Y0062532D01*
X0172530Y0062507D01*
X0172420Y0062487D01*
X0172309Y0062470D01*
X0172198Y0062457D01*
X0172087Y0062448D01*
X0171975Y0062443D01*
X0171863Y0062442D01*
X0171751Y0062445D01*
X0171640Y0062452D01*
X0171528Y0062463D01*
X0171418Y0062478D01*
X0171307Y0062497D01*
X0171198Y0062519D01*
X0171089Y0062546D01*
X0170982Y0062576D01*
X0170875Y0062610D01*
X0170770Y0062648D01*
X0170666Y0062690D01*
X0170564Y0062735D01*
X0170463Y0062784D01*
X0170365Y0062836D01*
X0170268Y0062892D01*
X0170173Y0062952D01*
X0170080Y0063014D01*
X0169990Y0063080D01*
X0169902Y0063149D01*
X0169817Y0063221D01*
X0169734Y0063297D01*
X0169654Y0063375D01*
X0169576Y0063455D01*
X0169502Y0063539D01*
X0169431Y0063625D01*
X0169362Y0063713D01*
X0169297Y0063804D01*
X0169236Y0063898D01*
X0169177Y0063993D01*
X0169122Y0064090D01*
X0169071Y0064189D01*
X0169023Y0064290D01*
X0168978Y0064393D01*
X0168937Y0064497D01*
X0168900Y0064603D01*
X0168867Y0064709D01*
X0168838Y0064817D01*
X0168812Y0064926D01*
X0168790Y0065036D01*
X0168773Y0065146D01*
X0168759Y0065257D01*
X0168749Y0065369D01*
X0168743Y0065480D01*
X0168741Y0065592D01*
D11*
X0198269Y0057600D03*
X0206931Y0053860D03*
X0206931Y0061340D03*
D12*
X0200376Y0073761D03*
X0200376Y0076320D03*
X0200376Y0078880D03*
X0200376Y0081439D03*
X0184824Y0081439D03*
X0184824Y0078880D03*
X0184824Y0076320D03*
X0184824Y0073761D03*
D13*
X0192600Y0077600D03*
D14*
X0201025Y0110277D03*
X0201025Y0115395D03*
X0182128Y0115395D03*
X0182128Y0110277D03*
X0078978Y0110277D03*
X0078978Y0115395D03*
X0060080Y0115395D03*
X0060080Y0110277D03*
D15*
X0069529Y0112836D03*
X0191576Y0112836D03*
D16*
X0178486Y0092541D03*
X0178486Y0087423D03*
X0187600Y0060159D03*
X0187600Y0055041D03*
D17*
X0215041Y0052600D03*
X0220159Y0052600D03*
X0220159Y0042600D03*
X0215041Y0042600D03*
D18*
X0065395Y0032600D03*
X0039805Y0032600D03*
X0194805Y0192600D03*
X0220395Y0192600D03*
M02*
