%
M48
M72
T01C0.01200
T02C0.04000
T03C0.04724
T04C0.05906
T05C0.08661
T06C0.11024
%
T01
X35100Y10100
X12600Y35100
X32600Y50100
X10100Y57600
X25100Y75100
X10100Y92600
X25100Y110100
X10100Y125100
X25100Y142600
X10100Y155100
X25100Y172600
X10100Y185100
X25100Y192600
X65100Y180100
X80100Y180100
X75100Y197600
X85100Y215100
X65100Y217600
X107600Y217600
X130100Y215100
X145100Y217600
X135100Y195100
X145100Y182600
X125100Y180100
X112600Y195100
X102600Y180100
X67600Y140100
X82600Y135100
X70100Y122600
X80100Y110100
X97600Y100100
X80100Y87600
X67600Y82600
X83250Y70277
X93328Y59962
X110100Y77600
X131754Y77738
X150002Y74962
X162600Y87600
X162600Y100100
X180100Y105100
X192600Y90100
X177600Y77600
X195100Y70100
X212600Y57600
X210100Y45100
X212600Y30100
X230100Y32600
X250100Y35100
X227600Y7600
X205100Y7600
X187600Y30100
X182600Y50100
X160100Y62600
X155100Y42600
X125435Y35257
X120100Y57600
X130100Y10100
X172600Y10100
X250100Y67600
X227600Y85100
X210100Y100100
X195100Y120100
X180100Y132600
X163584Y138013
X162600Y125100
X202600Y142600
X214824Y147088
X222600Y162600
X212600Y182600
X247600Y187600
X225100Y215100
X250100Y147600
X227600Y125100
X250100Y112600
X97600Y125100
X97600Y135100
T02
X190100Y17600
X200100Y17600
X210100Y17600
X220100Y17600
T03
X70100Y207600
X50415Y207600
T04
X99057Y203466
X162049Y203466
X162049Y22206
X99057Y22206
T05
X89214Y32206
X171891Y32206
X171891Y193466
X89214Y193466
T06
X16773Y16773
X16773Y208899
X244332Y208899
X244332Y16773
M30
