G75*
%MOIN*%
%OFA0B0*%
%FSLAX25Y25*%
%IPPOS*%
%LPD*%
%AMOC8*
5,1,8,0,0,1.08239X$1,22.5*
%
%ADD10C,0.00000*%
%ADD11C,0.00004*%
%ADD12R,0.06312X0.04737*%
%ADD13R,0.06115X0.02572*%
%ADD14R,0.07493X0.08674*%
%ADD15R,0.05131X0.04737*%
%ADD16R,0.09461X0.07887*%
%ADD17R,0.03556X0.04343*%
%ADD18R,0.04343X0.03556*%
%ADD19C,0.13792*%
%ADD20C,0.11430*%
%ADD21R,0.14580X0.10643*%
%ADD22C,0.21800*%
%ADD23C,0.06800*%
%ADD24R,0.09400X0.09400*%
D10*
X0016773Y0002600D02*
X0244332Y0002600D01*
X0244674Y0002604D01*
X0245017Y0002617D01*
X0245359Y0002637D01*
X0245700Y0002666D01*
X0246040Y0002703D01*
X0246380Y0002749D01*
X0246718Y0002802D01*
X0247055Y0002864D01*
X0247390Y0002934D01*
X0247724Y0003012D01*
X0248055Y0003098D01*
X0248385Y0003192D01*
X0248712Y0003294D01*
X0249036Y0003403D01*
X0249358Y0003521D01*
X0249677Y0003646D01*
X0249992Y0003779D01*
X0250305Y0003920D01*
X0250613Y0004068D01*
X0250919Y0004223D01*
X0251220Y0004386D01*
X0251517Y0004556D01*
X0251810Y0004733D01*
X0252099Y0004918D01*
X0252383Y0005109D01*
X0252663Y0005307D01*
X0252937Y0005511D01*
X0253207Y0005723D01*
X0253471Y0005940D01*
X0253730Y0006164D01*
X0253984Y0006395D01*
X0254232Y0006631D01*
X0254474Y0006873D01*
X0254710Y0007121D01*
X0254941Y0007375D01*
X0255165Y0007634D01*
X0255382Y0007898D01*
X0255594Y0008168D01*
X0255798Y0008442D01*
X0255996Y0008722D01*
X0256187Y0009006D01*
X0256372Y0009295D01*
X0256549Y0009588D01*
X0256719Y0009885D01*
X0256882Y0010186D01*
X0257037Y0010492D01*
X0257185Y0010800D01*
X0257326Y0011113D01*
X0257459Y0011428D01*
X0257584Y0011747D01*
X0257702Y0012069D01*
X0257811Y0012393D01*
X0257913Y0012720D01*
X0258007Y0013050D01*
X0258093Y0013381D01*
X0258171Y0013715D01*
X0258241Y0014050D01*
X0258303Y0014387D01*
X0258356Y0014725D01*
X0258402Y0015065D01*
X0258439Y0015405D01*
X0258468Y0015746D01*
X0258488Y0016088D01*
X0258501Y0016431D01*
X0258505Y0016773D01*
X0258506Y0016773D02*
X0258506Y0208899D01*
X0258505Y0208899D02*
X0258501Y0209241D01*
X0258488Y0209584D01*
X0258468Y0209926D01*
X0258439Y0210267D01*
X0258402Y0210607D01*
X0258356Y0210947D01*
X0258303Y0211285D01*
X0258241Y0211622D01*
X0258171Y0211957D01*
X0258093Y0212291D01*
X0258007Y0212622D01*
X0257913Y0212952D01*
X0257811Y0213279D01*
X0257702Y0213603D01*
X0257584Y0213925D01*
X0257459Y0214244D01*
X0257326Y0214559D01*
X0257185Y0214872D01*
X0257037Y0215180D01*
X0256882Y0215486D01*
X0256719Y0215787D01*
X0256549Y0216084D01*
X0256372Y0216377D01*
X0256187Y0216666D01*
X0255996Y0216950D01*
X0255798Y0217230D01*
X0255594Y0217504D01*
X0255382Y0217774D01*
X0255165Y0218038D01*
X0254941Y0218297D01*
X0254710Y0218551D01*
X0254474Y0218799D01*
X0254232Y0219041D01*
X0253984Y0219277D01*
X0253730Y0219508D01*
X0253471Y0219732D01*
X0253207Y0219949D01*
X0252937Y0220161D01*
X0252663Y0220365D01*
X0252383Y0220563D01*
X0252099Y0220754D01*
X0251810Y0220939D01*
X0251517Y0221116D01*
X0251220Y0221286D01*
X0250919Y0221449D01*
X0250613Y0221604D01*
X0250305Y0221752D01*
X0249992Y0221893D01*
X0249677Y0222026D01*
X0249358Y0222151D01*
X0249036Y0222269D01*
X0248712Y0222378D01*
X0248385Y0222480D01*
X0248055Y0222574D01*
X0247724Y0222660D01*
X0247390Y0222738D01*
X0247055Y0222808D01*
X0246718Y0222870D01*
X0246380Y0222923D01*
X0246040Y0222969D01*
X0245700Y0223006D01*
X0245359Y0223035D01*
X0245017Y0223055D01*
X0244674Y0223068D01*
X0244332Y0223072D01*
X0016773Y0223072D01*
X0016431Y0223068D01*
X0016088Y0223055D01*
X0015746Y0223035D01*
X0015405Y0223006D01*
X0015065Y0222969D01*
X0014725Y0222923D01*
X0014387Y0222870D01*
X0014050Y0222808D01*
X0013715Y0222738D01*
X0013381Y0222660D01*
X0013050Y0222574D01*
X0012720Y0222480D01*
X0012393Y0222378D01*
X0012069Y0222269D01*
X0011747Y0222151D01*
X0011428Y0222026D01*
X0011113Y0221893D01*
X0010800Y0221752D01*
X0010492Y0221604D01*
X0010186Y0221449D01*
X0009885Y0221286D01*
X0009588Y0221116D01*
X0009295Y0220939D01*
X0009006Y0220754D01*
X0008722Y0220563D01*
X0008442Y0220365D01*
X0008168Y0220161D01*
X0007898Y0219949D01*
X0007634Y0219732D01*
X0007375Y0219508D01*
X0007121Y0219277D01*
X0006873Y0219041D01*
X0006631Y0218799D01*
X0006395Y0218551D01*
X0006164Y0218297D01*
X0005940Y0218038D01*
X0005723Y0217774D01*
X0005511Y0217504D01*
X0005307Y0217230D01*
X0005109Y0216950D01*
X0004918Y0216666D01*
X0004733Y0216377D01*
X0004556Y0216084D01*
X0004386Y0215787D01*
X0004223Y0215486D01*
X0004068Y0215180D01*
X0003920Y0214872D01*
X0003779Y0214559D01*
X0003646Y0214244D01*
X0003521Y0213925D01*
X0003403Y0213603D01*
X0003294Y0213279D01*
X0003192Y0212952D01*
X0003098Y0212622D01*
X0003012Y0212291D01*
X0002934Y0211957D01*
X0002864Y0211622D01*
X0002802Y0211285D01*
X0002749Y0210947D01*
X0002703Y0210607D01*
X0002666Y0210267D01*
X0002637Y0209926D01*
X0002617Y0209584D01*
X0002604Y0209241D01*
X0002600Y0208899D01*
X0002600Y0016773D01*
X0002604Y0016431D01*
X0002617Y0016088D01*
X0002637Y0015746D01*
X0002666Y0015405D01*
X0002703Y0015065D01*
X0002749Y0014725D01*
X0002802Y0014387D01*
X0002864Y0014050D01*
X0002934Y0013715D01*
X0003012Y0013381D01*
X0003098Y0013050D01*
X0003192Y0012720D01*
X0003294Y0012393D01*
X0003403Y0012069D01*
X0003521Y0011747D01*
X0003646Y0011428D01*
X0003779Y0011113D01*
X0003920Y0010800D01*
X0004068Y0010492D01*
X0004223Y0010186D01*
X0004386Y0009885D01*
X0004556Y0009588D01*
X0004733Y0009295D01*
X0004918Y0009006D01*
X0005109Y0008722D01*
X0005307Y0008442D01*
X0005511Y0008168D01*
X0005723Y0007898D01*
X0005940Y0007634D01*
X0006164Y0007375D01*
X0006395Y0007121D01*
X0006631Y0006873D01*
X0006873Y0006631D01*
X0007121Y0006395D01*
X0007375Y0006164D01*
X0007634Y0005940D01*
X0007898Y0005723D01*
X0008168Y0005511D01*
X0008442Y0005307D01*
X0008722Y0005109D01*
X0009006Y0004918D01*
X0009295Y0004733D01*
X0009588Y0004556D01*
X0009885Y0004386D01*
X0010186Y0004223D01*
X0010492Y0004068D01*
X0010800Y0003920D01*
X0011113Y0003779D01*
X0011428Y0003646D01*
X0011747Y0003521D01*
X0012069Y0003403D01*
X0012393Y0003294D01*
X0012720Y0003192D01*
X0013050Y0003098D01*
X0013381Y0003012D01*
X0013715Y0002934D01*
X0014050Y0002864D01*
X0014387Y0002802D01*
X0014725Y0002749D01*
X0015065Y0002703D01*
X0015405Y0002666D01*
X0015746Y0002637D01*
X0016088Y0002617D01*
X0016431Y0002604D01*
X0016773Y0002600D01*
D11*
X0071225Y0053606D02*
X0071579Y0053281D01*
X0071970Y0053002D01*
X0072393Y0052772D01*
X0072840Y0052596D01*
X0073306Y0052476D01*
X0073782Y0052413D01*
X0074263Y0052409D01*
X0074741Y0052463D01*
X0075208Y0052575D01*
X0075658Y0052744D01*
X0076084Y0052965D01*
X0076481Y0053238D01*
X0076841Y0053556D01*
X0077159Y0053916D01*
X0077431Y0054313D01*
X0077654Y0054739D01*
X0077822Y0055189D01*
X0077934Y0055657D01*
X0077988Y0056134D01*
X0077984Y0056615D01*
X0077921Y0057091D01*
X0077801Y0057557D01*
X0077625Y0058004D01*
X0077396Y0058426D01*
X0077117Y0058818D01*
X0076792Y0059172D01*
X0076426Y0059484D01*
X0076025Y0059750D01*
X0075595Y0059964D01*
X0075142Y0060125D01*
X0074672Y0060229D01*
X0074194Y0060275D01*
X0073714Y0060262D01*
X0073509Y0060239D01*
X0073038Y0060143D01*
X0072582Y0059991D01*
X0072148Y0059783D01*
X0071743Y0059525D01*
X0071372Y0059220D01*
X0071041Y0058871D01*
X0070755Y0058484D01*
X0070518Y0058066D01*
X0070334Y0057622D01*
X0070206Y0057159D01*
X0070135Y0056683D01*
X0070122Y0056203D01*
X0070168Y0055724D01*
X0070272Y0055255D01*
X0070433Y0054802D01*
X0070647Y0054372D01*
X0070913Y0053971D01*
X0071225Y0053606D01*
X0104934Y0087218D02*
X0105294Y0086899D01*
X0105691Y0086627D01*
X0106117Y0086405D01*
X0106567Y0086237D01*
X0107035Y0086124D01*
X0107512Y0086070D01*
X0107718Y0086065D01*
X0153593Y0086070D01*
X0154071Y0086124D01*
X0154538Y0086237D01*
X0154989Y0086405D01*
X0155415Y0086627D01*
X0155811Y0086899D01*
X0156171Y0087218D01*
X0156490Y0087578D01*
X0156762Y0087974D01*
X0156984Y0088400D01*
X0157152Y0088851D01*
X0157265Y0089318D01*
X0157319Y0089796D01*
X0157324Y0090002D01*
X0157324Y0104967D01*
X0170129Y0104968D01*
X0170606Y0105022D01*
X0171074Y0105134D01*
X0171524Y0105303D01*
X0171950Y0105524D01*
X0172346Y0105797D01*
X0172707Y0106115D01*
X0173025Y0106476D01*
X0173298Y0106872D01*
X0173519Y0107298D01*
X0173688Y0107748D01*
X0173800Y0108216D01*
X0173854Y0108693D01*
X0173860Y0108899D01*
X0173860Y0116773D01*
X0173830Y0117253D01*
X0173743Y0117726D01*
X0173598Y0118184D01*
X0173399Y0118622D01*
X0173148Y0119031D01*
X0172848Y0119407D01*
X0172506Y0119744D01*
X0172124Y0120037D01*
X0171710Y0120281D01*
X0171269Y0120473D01*
X0170808Y0120609D01*
X0170334Y0120689D01*
X0169923Y0120710D01*
X0157324Y0120709D01*
X0157324Y0135671D01*
X0157295Y0136150D01*
X0157207Y0136623D01*
X0157063Y0137082D01*
X0156863Y0137519D01*
X0156612Y0137929D01*
X0156313Y0138305D01*
X0155970Y0138642D01*
X0155589Y0138935D01*
X0155175Y0139179D01*
X0154734Y0139370D01*
X0154273Y0139507D01*
X0153799Y0139586D01*
X0153387Y0139608D01*
X0107512Y0139602D01*
X0107035Y0139548D01*
X0106567Y0139436D01*
X0106117Y0139267D01*
X0105691Y0139046D01*
X0105294Y0138773D01*
X0104934Y0138455D01*
X0104616Y0138094D01*
X0104343Y0137698D01*
X0104122Y0137272D01*
X0103953Y0136822D01*
X0103841Y0136354D01*
X0103787Y0135877D01*
X0103781Y0135671D01*
X0103783Y0120706D01*
X0090977Y0120705D01*
X0090499Y0120650D01*
X0090031Y0120538D01*
X0089581Y0120370D01*
X0089155Y0120148D01*
X0088759Y0119876D01*
X0088399Y0119557D01*
X0088080Y0119197D01*
X0087808Y0118801D01*
X0087586Y0118374D01*
X0087418Y0117924D01*
X0087306Y0117457D01*
X0087251Y0116979D01*
X0087246Y0116773D01*
X0087251Y0108693D01*
X0087306Y0108216D01*
X0087418Y0107748D01*
X0087586Y0107298D01*
X0087808Y0106872D01*
X0088080Y0106476D01*
X0088399Y0106115D01*
X0088759Y0105797D01*
X0089155Y0105524D01*
X0089581Y0105303D01*
X0090031Y0105134D01*
X0090499Y0105022D01*
X0090977Y0104968D01*
X0091183Y0104962D01*
X0103785Y0104963D01*
X0103787Y0089796D01*
X0103841Y0089318D01*
X0103953Y0088851D01*
X0104122Y0088400D01*
X0104343Y0087974D01*
X0104616Y0087578D01*
X0104934Y0087218D01*
X0183326Y0057622D02*
X0183198Y0057159D01*
X0183127Y0056683D01*
X0183114Y0056203D01*
X0183160Y0055724D01*
X0183264Y0055255D01*
X0183425Y0054802D01*
X0183639Y0054372D01*
X0183905Y0053971D01*
X0184217Y0053606D01*
X0184571Y0053281D01*
X0184963Y0053002D01*
X0185385Y0052772D01*
X0185832Y0052596D01*
X0186298Y0052476D01*
X0186774Y0052413D01*
X0187255Y0052409D01*
X0187732Y0052463D01*
X0188200Y0052575D01*
X0188650Y0052744D01*
X0189076Y0052965D01*
X0189473Y0053238D01*
X0189833Y0053556D01*
X0190151Y0053916D01*
X0190424Y0054313D01*
X0190645Y0054739D01*
X0190814Y0055189D01*
X0190926Y0055657D01*
X0190980Y0056134D01*
X0190976Y0056615D01*
X0190913Y0057091D01*
X0190793Y0057557D01*
X0190617Y0058004D01*
X0190387Y0058426D01*
X0190108Y0058818D01*
X0189783Y0059172D01*
X0189418Y0059484D01*
X0189017Y0059750D01*
X0188587Y0059964D01*
X0188134Y0060125D01*
X0187665Y0060229D01*
X0187186Y0060275D01*
X0186706Y0060262D01*
X0186501Y0060239D01*
X0186030Y0060143D01*
X0185574Y0059991D01*
X0185140Y0059783D01*
X0184735Y0059525D01*
X0184364Y0059220D01*
X0184033Y0058871D01*
X0183747Y0058484D01*
X0183510Y0058066D01*
X0183326Y0057622D01*
X0172491Y0160480D02*
X0162443Y0160474D01*
X0162237Y0160480D01*
X0161759Y0160534D01*
X0161291Y0160646D01*
X0160841Y0160814D01*
X0160415Y0161036D01*
X0160019Y0161309D01*
X0159659Y0161627D01*
X0159340Y0161987D01*
X0159068Y0162383D01*
X0158846Y0162810D01*
X0158678Y0163260D01*
X0158565Y0163727D01*
X0158511Y0164205D01*
X0158506Y0174254D01*
X0158511Y0174459D01*
X0158565Y0174937D01*
X0158678Y0175404D01*
X0158846Y0175855D01*
X0159068Y0176281D01*
X0159340Y0176677D01*
X0159659Y0177037D01*
X0160019Y0177356D01*
X0160415Y0177628D01*
X0160841Y0177850D01*
X0161291Y0178019D01*
X0161759Y0178131D01*
X0162237Y0178185D01*
X0172285Y0178191D01*
X0172696Y0178169D01*
X0173170Y0178090D01*
X0173631Y0177953D01*
X0174072Y0177761D01*
X0174487Y0177517D01*
X0174868Y0177225D01*
X0175211Y0176888D01*
X0175510Y0176512D01*
X0175761Y0176102D01*
X0175961Y0175665D01*
X0176105Y0175206D01*
X0176193Y0174733D01*
X0176222Y0174254D01*
X0176222Y0164411D01*
X0176217Y0164205D01*
X0176162Y0163727D01*
X0176050Y0163260D01*
X0175881Y0162810D01*
X0175660Y0162383D01*
X0175387Y0161987D01*
X0175069Y0161627D01*
X0174709Y0161309D01*
X0174313Y0161036D01*
X0173886Y0160814D01*
X0173436Y0160646D01*
X0172969Y0160534D01*
X0172491Y0160480D01*
X0183747Y0167188D02*
X0184033Y0166802D01*
X0184364Y0166453D01*
X0184735Y0166147D01*
X0185140Y0165889D01*
X0185574Y0165682D01*
X0186030Y0165530D01*
X0186501Y0165433D01*
X0186706Y0165410D01*
X0187186Y0165398D01*
X0187665Y0165444D01*
X0188134Y0165548D01*
X0188587Y0165708D01*
X0189017Y0165923D01*
X0189418Y0166188D01*
X0189783Y0166500D01*
X0190108Y0166855D01*
X0190387Y0167246D01*
X0190617Y0167669D01*
X0190793Y0168116D01*
X0190913Y0168581D01*
X0190976Y0169057D01*
X0190980Y0169538D01*
X0190926Y0170016D01*
X0190814Y0170483D01*
X0190645Y0170933D01*
X0190424Y0171360D01*
X0190151Y0171756D01*
X0189833Y0172116D01*
X0189473Y0172435D01*
X0189076Y0172707D01*
X0188650Y0172929D01*
X0188200Y0173097D01*
X0187732Y0173209D01*
X0187255Y0173264D01*
X0186774Y0173259D01*
X0186298Y0173197D01*
X0185832Y0173077D01*
X0185385Y0172900D01*
X0184963Y0172671D01*
X0184571Y0172392D01*
X0184217Y0172067D01*
X0183905Y0171702D01*
X0183639Y0171301D01*
X0183425Y0170870D01*
X0183264Y0170417D01*
X0183160Y0169948D01*
X0183114Y0169470D01*
X0183127Y0168989D01*
X0183198Y0168514D01*
X0183326Y0168050D01*
X0183510Y0167606D01*
X0183747Y0167188D01*
X0077984Y0169057D02*
X0077988Y0169538D01*
X0077934Y0170016D01*
X0077822Y0170483D01*
X0077654Y0170933D01*
X0077431Y0171360D01*
X0077159Y0171756D01*
X0076841Y0172116D01*
X0076481Y0172435D01*
X0076084Y0172707D01*
X0075658Y0172929D01*
X0075208Y0173097D01*
X0074741Y0173209D01*
X0074263Y0173264D01*
X0073782Y0173259D01*
X0073306Y0173197D01*
X0072840Y0173077D01*
X0072393Y0172900D01*
X0071970Y0172671D01*
X0071579Y0172392D01*
X0071225Y0172067D01*
X0070913Y0171702D01*
X0070647Y0171301D01*
X0070433Y0170870D01*
X0070272Y0170417D01*
X0070168Y0169948D01*
X0070122Y0169470D01*
X0070135Y0168989D01*
X0070206Y0168514D01*
X0070334Y0168050D01*
X0070518Y0167606D01*
X0070755Y0167188D01*
X0071041Y0166802D01*
X0071372Y0166453D01*
X0071743Y0166147D01*
X0072148Y0165889D01*
X0072582Y0165682D01*
X0073038Y0165530D01*
X0073509Y0165433D01*
X0073714Y0165410D01*
X0074194Y0165398D01*
X0074672Y0165444D01*
X0075142Y0165548D01*
X0075595Y0165708D01*
X0076025Y0165923D01*
X0076426Y0166188D01*
X0076792Y0166500D01*
X0077117Y0166855D01*
X0077396Y0167246D01*
X0077625Y0167669D01*
X0077801Y0168116D01*
X0077921Y0168581D01*
X0077984Y0169057D01*
D12*
X0215769Y0065100D03*
X0224431Y0061360D03*
X0224431Y0068840D03*
D13*
X0200376Y0073761D03*
X0200376Y0076320D03*
X0200376Y0078880D03*
X0200376Y0081439D03*
X0184824Y0081439D03*
X0184824Y0078880D03*
X0184824Y0076320D03*
X0184824Y0073761D03*
D14*
X0192600Y0077600D03*
D15*
X0209687Y0110277D03*
X0209687Y0115395D03*
X0228584Y0115395D03*
X0228584Y0110277D03*
X0051419Y0110277D03*
X0051419Y0115395D03*
X0032521Y0115395D03*
X0032521Y0110277D03*
D16*
X0041970Y0112836D03*
X0219135Y0112836D03*
D17*
X0205159Y0065100D03*
X0200041Y0065100D03*
X0220041Y0052600D03*
X0225159Y0052600D03*
X0225159Y0042600D03*
X0220041Y0042600D03*
D18*
X0169214Y0075159D03*
X0169214Y0080277D03*
D19*
X0171891Y0038702D02*
X0171891Y0025710D01*
X0089214Y0025710D02*
X0089214Y0038702D01*
X0089214Y0186970D02*
X0089214Y0199962D01*
X0171891Y0199962D02*
X0171891Y0186970D01*
D20*
X0162049Y0198151D02*
X0162049Y0208781D01*
X0099057Y0208781D02*
X0099057Y0198151D01*
X0099057Y0027521D02*
X0099057Y0016891D01*
X0162049Y0016891D02*
X0162049Y0027521D01*
D21*
X0065395Y0032600D03*
X0039805Y0032600D03*
X0194805Y0192600D03*
X0220395Y0192600D03*
D22*
X0244332Y0208899D03*
X0244332Y0016773D03*
X0016773Y0016773D03*
X0016773Y0208899D03*
D23*
X0190100Y0020600D02*
X0190100Y0014600D01*
X0200100Y0014600D02*
X0200100Y0020600D01*
X0210100Y0020600D02*
X0210100Y0014600D01*
X0220100Y0014600D02*
X0220100Y0020600D01*
D24*
X0070100Y0207600D03*
X0050415Y0207600D03*
M02*
