G75*
%MOIN*%
%OFA0B0*%
%FSLAX25Y25*%
%IPPOS*%
%LPD*%
%AMOC8*
5,1,8,0,0,1.08239X$1,22.5*
%
%ADD10C,0.00000*%
%ADD11C,0.12992*%
%ADD12C,0.10630*%
%ADD13C,0.21000*%
%ADD14C,0.06000*%
%ADD15R,0.08600X0.08600*%
%ADD16C,0.03200*%
%ADD17C,0.02000*%
D10*
X0016773Y0002600D02*
X0244332Y0002600D01*
X0244674Y0002604D01*
X0245017Y0002617D01*
X0245359Y0002637D01*
X0245700Y0002666D01*
X0246040Y0002703D01*
X0246380Y0002749D01*
X0246718Y0002802D01*
X0247055Y0002864D01*
X0247390Y0002934D01*
X0247724Y0003012D01*
X0248055Y0003098D01*
X0248385Y0003192D01*
X0248712Y0003294D01*
X0249036Y0003403D01*
X0249358Y0003521D01*
X0249677Y0003646D01*
X0249992Y0003779D01*
X0250305Y0003920D01*
X0250613Y0004068D01*
X0250919Y0004223D01*
X0251220Y0004386D01*
X0251517Y0004556D01*
X0251810Y0004733D01*
X0252099Y0004918D01*
X0252383Y0005109D01*
X0252663Y0005307D01*
X0252937Y0005511D01*
X0253207Y0005723D01*
X0253471Y0005940D01*
X0253730Y0006164D01*
X0253984Y0006395D01*
X0254232Y0006631D01*
X0254474Y0006873D01*
X0254710Y0007121D01*
X0254941Y0007375D01*
X0255165Y0007634D01*
X0255382Y0007898D01*
X0255594Y0008168D01*
X0255798Y0008442D01*
X0255996Y0008722D01*
X0256187Y0009006D01*
X0256372Y0009295D01*
X0256549Y0009588D01*
X0256719Y0009885D01*
X0256882Y0010186D01*
X0257037Y0010492D01*
X0257185Y0010800D01*
X0257326Y0011113D01*
X0257459Y0011428D01*
X0257584Y0011747D01*
X0257702Y0012069D01*
X0257811Y0012393D01*
X0257913Y0012720D01*
X0258007Y0013050D01*
X0258093Y0013381D01*
X0258171Y0013715D01*
X0258241Y0014050D01*
X0258303Y0014387D01*
X0258356Y0014725D01*
X0258402Y0015065D01*
X0258439Y0015405D01*
X0258468Y0015746D01*
X0258488Y0016088D01*
X0258501Y0016431D01*
X0258505Y0016773D01*
X0258506Y0016773D02*
X0258506Y0208899D01*
X0258505Y0208899D02*
X0258501Y0209241D01*
X0258488Y0209584D01*
X0258468Y0209926D01*
X0258439Y0210267D01*
X0258402Y0210607D01*
X0258356Y0210947D01*
X0258303Y0211285D01*
X0258241Y0211622D01*
X0258171Y0211957D01*
X0258093Y0212291D01*
X0258007Y0212622D01*
X0257913Y0212952D01*
X0257811Y0213279D01*
X0257702Y0213603D01*
X0257584Y0213925D01*
X0257459Y0214244D01*
X0257326Y0214559D01*
X0257185Y0214872D01*
X0257037Y0215180D01*
X0256882Y0215486D01*
X0256719Y0215787D01*
X0256549Y0216084D01*
X0256372Y0216377D01*
X0256187Y0216666D01*
X0255996Y0216950D01*
X0255798Y0217230D01*
X0255594Y0217504D01*
X0255382Y0217774D01*
X0255165Y0218038D01*
X0254941Y0218297D01*
X0254710Y0218551D01*
X0254474Y0218799D01*
X0254232Y0219041D01*
X0253984Y0219277D01*
X0253730Y0219508D01*
X0253471Y0219732D01*
X0253207Y0219949D01*
X0252937Y0220161D01*
X0252663Y0220365D01*
X0252383Y0220563D01*
X0252099Y0220754D01*
X0251810Y0220939D01*
X0251517Y0221116D01*
X0251220Y0221286D01*
X0250919Y0221449D01*
X0250613Y0221604D01*
X0250305Y0221752D01*
X0249992Y0221893D01*
X0249677Y0222026D01*
X0249358Y0222151D01*
X0249036Y0222269D01*
X0248712Y0222378D01*
X0248385Y0222480D01*
X0248055Y0222574D01*
X0247724Y0222660D01*
X0247390Y0222738D01*
X0247055Y0222808D01*
X0246718Y0222870D01*
X0246380Y0222923D01*
X0246040Y0222969D01*
X0245700Y0223006D01*
X0245359Y0223035D01*
X0245017Y0223055D01*
X0244674Y0223068D01*
X0244332Y0223072D01*
X0016773Y0223072D01*
X0016431Y0223068D01*
X0016088Y0223055D01*
X0015746Y0223035D01*
X0015405Y0223006D01*
X0015065Y0222969D01*
X0014725Y0222923D01*
X0014387Y0222870D01*
X0014050Y0222808D01*
X0013715Y0222738D01*
X0013381Y0222660D01*
X0013050Y0222574D01*
X0012720Y0222480D01*
X0012393Y0222378D01*
X0012069Y0222269D01*
X0011747Y0222151D01*
X0011428Y0222026D01*
X0011113Y0221893D01*
X0010800Y0221752D01*
X0010492Y0221604D01*
X0010186Y0221449D01*
X0009885Y0221286D01*
X0009588Y0221116D01*
X0009295Y0220939D01*
X0009006Y0220754D01*
X0008722Y0220563D01*
X0008442Y0220365D01*
X0008168Y0220161D01*
X0007898Y0219949D01*
X0007634Y0219732D01*
X0007375Y0219508D01*
X0007121Y0219277D01*
X0006873Y0219041D01*
X0006631Y0218799D01*
X0006395Y0218551D01*
X0006164Y0218297D01*
X0005940Y0218038D01*
X0005723Y0217774D01*
X0005511Y0217504D01*
X0005307Y0217230D01*
X0005109Y0216950D01*
X0004918Y0216666D01*
X0004733Y0216377D01*
X0004556Y0216084D01*
X0004386Y0215787D01*
X0004223Y0215486D01*
X0004068Y0215180D01*
X0003920Y0214872D01*
X0003779Y0214559D01*
X0003646Y0214244D01*
X0003521Y0213925D01*
X0003403Y0213603D01*
X0003294Y0213279D01*
X0003192Y0212952D01*
X0003098Y0212622D01*
X0003012Y0212291D01*
X0002934Y0211957D01*
X0002864Y0211622D01*
X0002802Y0211285D01*
X0002749Y0210947D01*
X0002703Y0210607D01*
X0002666Y0210267D01*
X0002637Y0209926D01*
X0002617Y0209584D01*
X0002604Y0209241D01*
X0002600Y0208899D01*
X0002600Y0016773D01*
X0002604Y0016431D01*
X0002617Y0016088D01*
X0002637Y0015746D01*
X0002666Y0015405D01*
X0002703Y0015065D01*
X0002749Y0014725D01*
X0002802Y0014387D01*
X0002864Y0014050D01*
X0002934Y0013715D01*
X0003012Y0013381D01*
X0003098Y0013050D01*
X0003192Y0012720D01*
X0003294Y0012393D01*
X0003403Y0012069D01*
X0003521Y0011747D01*
X0003646Y0011428D01*
X0003779Y0011113D01*
X0003920Y0010800D01*
X0004068Y0010492D01*
X0004223Y0010186D01*
X0004386Y0009885D01*
X0004556Y0009588D01*
X0004733Y0009295D01*
X0004918Y0009006D01*
X0005109Y0008722D01*
X0005307Y0008442D01*
X0005511Y0008168D01*
X0005723Y0007898D01*
X0005940Y0007634D01*
X0006164Y0007375D01*
X0006395Y0007121D01*
X0006631Y0006873D01*
X0006873Y0006631D01*
X0007121Y0006395D01*
X0007375Y0006164D01*
X0007634Y0005940D01*
X0007898Y0005723D01*
X0008168Y0005511D01*
X0008442Y0005307D01*
X0008722Y0005109D01*
X0009006Y0004918D01*
X0009295Y0004733D01*
X0009588Y0004556D01*
X0009885Y0004386D01*
X0010186Y0004223D01*
X0010492Y0004068D01*
X0010800Y0003920D01*
X0011113Y0003779D01*
X0011428Y0003646D01*
X0011747Y0003521D01*
X0012069Y0003403D01*
X0012393Y0003294D01*
X0012720Y0003192D01*
X0013050Y0003098D01*
X0013381Y0003012D01*
X0013715Y0002934D01*
X0014050Y0002864D01*
X0014387Y0002802D01*
X0014725Y0002749D01*
X0015065Y0002703D01*
X0015405Y0002666D01*
X0015746Y0002637D01*
X0016088Y0002617D01*
X0016431Y0002604D01*
X0016773Y0002600D01*
X0088033Y0065631D02*
X0088033Y0088033D01*
X0088035Y0088099D01*
X0088040Y0088165D01*
X0088050Y0088231D01*
X0088063Y0088296D01*
X0088079Y0088360D01*
X0088099Y0088423D01*
X0088123Y0088485D01*
X0088150Y0088545D01*
X0088180Y0088604D01*
X0088214Y0088661D01*
X0088251Y0088716D01*
X0088291Y0088769D01*
X0088333Y0088820D01*
X0088379Y0088868D01*
X0088427Y0088914D01*
X0088478Y0088956D01*
X0088531Y0088996D01*
X0088586Y0089033D01*
X0088643Y0089067D01*
X0088702Y0089097D01*
X0088762Y0089124D01*
X0088824Y0089148D01*
X0088887Y0089168D01*
X0088951Y0089184D01*
X0089016Y0089197D01*
X0089082Y0089207D01*
X0089148Y0089212D01*
X0089214Y0089214D01*
X0145513Y0089214D01*
X0145579Y0089212D01*
X0145645Y0089207D01*
X0145711Y0089197D01*
X0145776Y0089184D01*
X0145840Y0089168D01*
X0145903Y0089148D01*
X0145965Y0089124D01*
X0146025Y0089097D01*
X0146084Y0089067D01*
X0146141Y0089033D01*
X0146196Y0088996D01*
X0146249Y0088956D01*
X0146300Y0088914D01*
X0146348Y0088868D01*
X0146394Y0088820D01*
X0146436Y0088769D01*
X0146476Y0088716D01*
X0146513Y0088661D01*
X0146547Y0088604D01*
X0146577Y0088545D01*
X0146604Y0088485D01*
X0146628Y0088423D01*
X0146648Y0088360D01*
X0146664Y0088296D01*
X0146677Y0088231D01*
X0146687Y0088165D01*
X0146692Y0088099D01*
X0146694Y0088033D01*
X0146694Y0065592D01*
X0146692Y0065526D01*
X0146687Y0065460D01*
X0146677Y0065394D01*
X0146664Y0065329D01*
X0146648Y0065265D01*
X0146628Y0065202D01*
X0146604Y0065140D01*
X0146577Y0065080D01*
X0146547Y0065021D01*
X0146513Y0064964D01*
X0146476Y0064909D01*
X0146436Y0064856D01*
X0146394Y0064805D01*
X0146348Y0064757D01*
X0146300Y0064711D01*
X0146249Y0064669D01*
X0146196Y0064629D01*
X0146141Y0064592D01*
X0146084Y0064558D01*
X0146025Y0064528D01*
X0145965Y0064501D01*
X0145903Y0064477D01*
X0145840Y0064457D01*
X0145776Y0064441D01*
X0145711Y0064428D01*
X0145645Y0064418D01*
X0145579Y0064413D01*
X0145513Y0064411D01*
X0089214Y0064411D01*
X0089148Y0064413D01*
X0089082Y0064418D01*
X0089016Y0064428D01*
X0088951Y0064441D01*
X0088887Y0064457D01*
X0088824Y0064477D01*
X0088762Y0064501D01*
X0088702Y0064528D01*
X0088643Y0064558D01*
X0088586Y0064592D01*
X0088531Y0064629D01*
X0088478Y0064669D01*
X0088427Y0064711D01*
X0088379Y0064757D01*
X0088333Y0064805D01*
X0088291Y0064856D01*
X0088251Y0064909D01*
X0088214Y0064964D01*
X0088180Y0065021D01*
X0088150Y0065080D01*
X0088123Y0065140D01*
X0088099Y0065202D01*
X0088079Y0065265D01*
X0088063Y0065329D01*
X0088050Y0065394D01*
X0088040Y0065460D01*
X0088035Y0065526D01*
X0088033Y0065592D01*
X0114411Y0096694D02*
X0146694Y0096694D01*
X0146694Y0128978D01*
X0114411Y0128978D01*
X0114411Y0096694D01*
X0086064Y0114805D02*
X0086066Y0114917D01*
X0086072Y0115028D01*
X0086082Y0115140D01*
X0086096Y0115251D01*
X0086113Y0115361D01*
X0086135Y0115471D01*
X0086161Y0115580D01*
X0086190Y0115688D01*
X0086223Y0115794D01*
X0086260Y0115900D01*
X0086301Y0116004D01*
X0086346Y0116107D01*
X0086394Y0116208D01*
X0086445Y0116307D01*
X0086500Y0116404D01*
X0086559Y0116499D01*
X0086620Y0116593D01*
X0086685Y0116684D01*
X0086754Y0116772D01*
X0086825Y0116858D01*
X0086899Y0116942D01*
X0086977Y0117022D01*
X0087057Y0117100D01*
X0087140Y0117176D01*
X0087225Y0117248D01*
X0087313Y0117317D01*
X0087403Y0117383D01*
X0087496Y0117445D01*
X0087591Y0117505D01*
X0087688Y0117561D01*
X0087786Y0117613D01*
X0087887Y0117662D01*
X0087989Y0117707D01*
X0088093Y0117749D01*
X0088198Y0117787D01*
X0088305Y0117821D01*
X0088412Y0117851D01*
X0088521Y0117878D01*
X0088630Y0117900D01*
X0088741Y0117919D01*
X0088851Y0117934D01*
X0088963Y0117945D01*
X0089074Y0117952D01*
X0089186Y0117955D01*
X0089298Y0117954D01*
X0089410Y0117949D01*
X0089521Y0117940D01*
X0089632Y0117927D01*
X0089743Y0117910D01*
X0089853Y0117890D01*
X0089962Y0117865D01*
X0090070Y0117837D01*
X0090177Y0117804D01*
X0090283Y0117768D01*
X0090387Y0117728D01*
X0090490Y0117685D01*
X0090592Y0117638D01*
X0090691Y0117587D01*
X0090789Y0117533D01*
X0090885Y0117475D01*
X0090979Y0117414D01*
X0091070Y0117350D01*
X0091159Y0117283D01*
X0091246Y0117212D01*
X0091330Y0117138D01*
X0091412Y0117062D01*
X0091490Y0116982D01*
X0091566Y0116900D01*
X0091639Y0116815D01*
X0091709Y0116728D01*
X0091775Y0116638D01*
X0091839Y0116546D01*
X0091899Y0116452D01*
X0091956Y0116356D01*
X0092009Y0116257D01*
X0092059Y0116157D01*
X0092105Y0116056D01*
X0092148Y0115952D01*
X0092187Y0115847D01*
X0092222Y0115741D01*
X0092253Y0115634D01*
X0092281Y0115525D01*
X0092304Y0115416D01*
X0092324Y0115306D01*
X0092340Y0115195D01*
X0092352Y0115084D01*
X0092360Y0114973D01*
X0092364Y0114861D01*
X0092364Y0114749D01*
X0092360Y0114637D01*
X0092352Y0114526D01*
X0092340Y0114415D01*
X0092324Y0114304D01*
X0092304Y0114194D01*
X0092281Y0114085D01*
X0092253Y0113976D01*
X0092222Y0113869D01*
X0092187Y0113763D01*
X0092148Y0113658D01*
X0092105Y0113554D01*
X0092059Y0113453D01*
X0092009Y0113353D01*
X0091956Y0113254D01*
X0091899Y0113158D01*
X0091839Y0113064D01*
X0091775Y0112972D01*
X0091709Y0112882D01*
X0091639Y0112795D01*
X0091566Y0112710D01*
X0091490Y0112628D01*
X0091412Y0112548D01*
X0091330Y0112472D01*
X0091246Y0112398D01*
X0091159Y0112327D01*
X0091070Y0112260D01*
X0090979Y0112196D01*
X0090885Y0112135D01*
X0090789Y0112077D01*
X0090691Y0112023D01*
X0090592Y0111972D01*
X0090490Y0111925D01*
X0090387Y0111882D01*
X0090283Y0111842D01*
X0090177Y0111806D01*
X0090070Y0111773D01*
X0089962Y0111745D01*
X0089853Y0111720D01*
X0089743Y0111700D01*
X0089632Y0111683D01*
X0089521Y0111670D01*
X0089410Y0111661D01*
X0089298Y0111656D01*
X0089186Y0111655D01*
X0089074Y0111658D01*
X0088963Y0111665D01*
X0088851Y0111676D01*
X0088741Y0111691D01*
X0088630Y0111710D01*
X0088521Y0111732D01*
X0088412Y0111759D01*
X0088305Y0111789D01*
X0088198Y0111823D01*
X0088093Y0111861D01*
X0087989Y0111903D01*
X0087887Y0111948D01*
X0087786Y0111997D01*
X0087688Y0112049D01*
X0087591Y0112105D01*
X0087496Y0112165D01*
X0087403Y0112227D01*
X0087313Y0112293D01*
X0087225Y0112362D01*
X0087140Y0112434D01*
X0087057Y0112510D01*
X0086977Y0112588D01*
X0086899Y0112668D01*
X0086825Y0112752D01*
X0086754Y0112838D01*
X0086685Y0112926D01*
X0086620Y0113017D01*
X0086559Y0113111D01*
X0086500Y0113206D01*
X0086445Y0113303D01*
X0086394Y0113402D01*
X0086346Y0113503D01*
X0086301Y0113606D01*
X0086260Y0113710D01*
X0086223Y0113816D01*
X0086190Y0113922D01*
X0086161Y0114030D01*
X0086135Y0114139D01*
X0086113Y0114249D01*
X0086096Y0114359D01*
X0086082Y0114470D01*
X0086072Y0114582D01*
X0086066Y0114693D01*
X0086064Y0114805D01*
X0168741Y0114805D02*
X0168743Y0114917D01*
X0168749Y0115028D01*
X0168759Y0115140D01*
X0168773Y0115251D01*
X0168790Y0115361D01*
X0168812Y0115471D01*
X0168838Y0115580D01*
X0168867Y0115688D01*
X0168900Y0115794D01*
X0168937Y0115900D01*
X0168978Y0116004D01*
X0169023Y0116107D01*
X0169071Y0116208D01*
X0169122Y0116307D01*
X0169177Y0116404D01*
X0169236Y0116499D01*
X0169297Y0116593D01*
X0169362Y0116684D01*
X0169431Y0116772D01*
X0169502Y0116858D01*
X0169576Y0116942D01*
X0169654Y0117022D01*
X0169734Y0117100D01*
X0169817Y0117176D01*
X0169902Y0117248D01*
X0169990Y0117317D01*
X0170080Y0117383D01*
X0170173Y0117445D01*
X0170268Y0117505D01*
X0170365Y0117561D01*
X0170463Y0117613D01*
X0170564Y0117662D01*
X0170666Y0117707D01*
X0170770Y0117749D01*
X0170875Y0117787D01*
X0170982Y0117821D01*
X0171089Y0117851D01*
X0171198Y0117878D01*
X0171307Y0117900D01*
X0171418Y0117919D01*
X0171528Y0117934D01*
X0171640Y0117945D01*
X0171751Y0117952D01*
X0171863Y0117955D01*
X0171975Y0117954D01*
X0172087Y0117949D01*
X0172198Y0117940D01*
X0172309Y0117927D01*
X0172420Y0117910D01*
X0172530Y0117890D01*
X0172639Y0117865D01*
X0172747Y0117837D01*
X0172854Y0117804D01*
X0172960Y0117768D01*
X0173064Y0117728D01*
X0173167Y0117685D01*
X0173269Y0117638D01*
X0173368Y0117587D01*
X0173466Y0117533D01*
X0173562Y0117475D01*
X0173656Y0117414D01*
X0173747Y0117350D01*
X0173836Y0117283D01*
X0173923Y0117212D01*
X0174007Y0117138D01*
X0174089Y0117062D01*
X0174167Y0116982D01*
X0174243Y0116900D01*
X0174316Y0116815D01*
X0174386Y0116728D01*
X0174452Y0116638D01*
X0174516Y0116546D01*
X0174576Y0116452D01*
X0174633Y0116356D01*
X0174686Y0116257D01*
X0174736Y0116157D01*
X0174782Y0116056D01*
X0174825Y0115952D01*
X0174864Y0115847D01*
X0174899Y0115741D01*
X0174930Y0115634D01*
X0174958Y0115525D01*
X0174981Y0115416D01*
X0175001Y0115306D01*
X0175017Y0115195D01*
X0175029Y0115084D01*
X0175037Y0114973D01*
X0175041Y0114861D01*
X0175041Y0114749D01*
X0175037Y0114637D01*
X0175029Y0114526D01*
X0175017Y0114415D01*
X0175001Y0114304D01*
X0174981Y0114194D01*
X0174958Y0114085D01*
X0174930Y0113976D01*
X0174899Y0113869D01*
X0174864Y0113763D01*
X0174825Y0113658D01*
X0174782Y0113554D01*
X0174736Y0113453D01*
X0174686Y0113353D01*
X0174633Y0113254D01*
X0174576Y0113158D01*
X0174516Y0113064D01*
X0174452Y0112972D01*
X0174386Y0112882D01*
X0174316Y0112795D01*
X0174243Y0112710D01*
X0174167Y0112628D01*
X0174089Y0112548D01*
X0174007Y0112472D01*
X0173923Y0112398D01*
X0173836Y0112327D01*
X0173747Y0112260D01*
X0173656Y0112196D01*
X0173562Y0112135D01*
X0173466Y0112077D01*
X0173368Y0112023D01*
X0173269Y0111972D01*
X0173167Y0111925D01*
X0173064Y0111882D01*
X0172960Y0111842D01*
X0172854Y0111806D01*
X0172747Y0111773D01*
X0172639Y0111745D01*
X0172530Y0111720D01*
X0172420Y0111700D01*
X0172309Y0111683D01*
X0172198Y0111670D01*
X0172087Y0111661D01*
X0171975Y0111656D01*
X0171863Y0111655D01*
X0171751Y0111658D01*
X0171640Y0111665D01*
X0171528Y0111676D01*
X0171418Y0111691D01*
X0171307Y0111710D01*
X0171198Y0111732D01*
X0171089Y0111759D01*
X0170982Y0111789D01*
X0170875Y0111823D01*
X0170770Y0111861D01*
X0170666Y0111903D01*
X0170564Y0111948D01*
X0170463Y0111997D01*
X0170365Y0112049D01*
X0170268Y0112105D01*
X0170173Y0112165D01*
X0170080Y0112227D01*
X0169990Y0112293D01*
X0169902Y0112362D01*
X0169817Y0112434D01*
X0169734Y0112510D01*
X0169654Y0112588D01*
X0169576Y0112668D01*
X0169502Y0112752D01*
X0169431Y0112838D01*
X0169362Y0112926D01*
X0169297Y0113017D01*
X0169236Y0113111D01*
X0169177Y0113206D01*
X0169122Y0113303D01*
X0169071Y0113402D01*
X0169023Y0113503D01*
X0168978Y0113606D01*
X0168937Y0113710D01*
X0168900Y0113816D01*
X0168867Y0113922D01*
X0168838Y0114030D01*
X0168812Y0114139D01*
X0168790Y0114249D01*
X0168773Y0114359D01*
X0168759Y0114470D01*
X0168749Y0114582D01*
X0168743Y0114693D01*
X0168741Y0114805D01*
X0168741Y0065592D02*
X0168743Y0065704D01*
X0168749Y0065815D01*
X0168759Y0065927D01*
X0168773Y0066038D01*
X0168790Y0066148D01*
X0168812Y0066258D01*
X0168838Y0066367D01*
X0168867Y0066475D01*
X0168900Y0066581D01*
X0168937Y0066687D01*
X0168978Y0066791D01*
X0169023Y0066894D01*
X0169071Y0066995D01*
X0169122Y0067094D01*
X0169177Y0067191D01*
X0169236Y0067286D01*
X0169297Y0067380D01*
X0169362Y0067471D01*
X0169431Y0067559D01*
X0169502Y0067645D01*
X0169576Y0067729D01*
X0169654Y0067809D01*
X0169734Y0067887D01*
X0169817Y0067963D01*
X0169902Y0068035D01*
X0169990Y0068104D01*
X0170080Y0068170D01*
X0170173Y0068232D01*
X0170268Y0068292D01*
X0170365Y0068348D01*
X0170463Y0068400D01*
X0170564Y0068449D01*
X0170666Y0068494D01*
X0170770Y0068536D01*
X0170875Y0068574D01*
X0170982Y0068608D01*
X0171089Y0068638D01*
X0171198Y0068665D01*
X0171307Y0068687D01*
X0171418Y0068706D01*
X0171528Y0068721D01*
X0171640Y0068732D01*
X0171751Y0068739D01*
X0171863Y0068742D01*
X0171975Y0068741D01*
X0172087Y0068736D01*
X0172198Y0068727D01*
X0172309Y0068714D01*
X0172420Y0068697D01*
X0172530Y0068677D01*
X0172639Y0068652D01*
X0172747Y0068624D01*
X0172854Y0068591D01*
X0172960Y0068555D01*
X0173064Y0068515D01*
X0173167Y0068472D01*
X0173269Y0068425D01*
X0173368Y0068374D01*
X0173466Y0068320D01*
X0173562Y0068262D01*
X0173656Y0068201D01*
X0173747Y0068137D01*
X0173836Y0068070D01*
X0173923Y0067999D01*
X0174007Y0067925D01*
X0174089Y0067849D01*
X0174167Y0067769D01*
X0174243Y0067687D01*
X0174316Y0067602D01*
X0174386Y0067515D01*
X0174452Y0067425D01*
X0174516Y0067333D01*
X0174576Y0067239D01*
X0174633Y0067143D01*
X0174686Y0067044D01*
X0174736Y0066944D01*
X0174782Y0066843D01*
X0174825Y0066739D01*
X0174864Y0066634D01*
X0174899Y0066528D01*
X0174930Y0066421D01*
X0174958Y0066312D01*
X0174981Y0066203D01*
X0175001Y0066093D01*
X0175017Y0065982D01*
X0175029Y0065871D01*
X0175037Y0065760D01*
X0175041Y0065648D01*
X0175041Y0065536D01*
X0175037Y0065424D01*
X0175029Y0065313D01*
X0175017Y0065202D01*
X0175001Y0065091D01*
X0174981Y0064981D01*
X0174958Y0064872D01*
X0174930Y0064763D01*
X0174899Y0064656D01*
X0174864Y0064550D01*
X0174825Y0064445D01*
X0174782Y0064341D01*
X0174736Y0064240D01*
X0174686Y0064140D01*
X0174633Y0064041D01*
X0174576Y0063945D01*
X0174516Y0063851D01*
X0174452Y0063759D01*
X0174386Y0063669D01*
X0174316Y0063582D01*
X0174243Y0063497D01*
X0174167Y0063415D01*
X0174089Y0063335D01*
X0174007Y0063259D01*
X0173923Y0063185D01*
X0173836Y0063114D01*
X0173747Y0063047D01*
X0173656Y0062983D01*
X0173562Y0062922D01*
X0173466Y0062864D01*
X0173368Y0062810D01*
X0173269Y0062759D01*
X0173167Y0062712D01*
X0173064Y0062669D01*
X0172960Y0062629D01*
X0172854Y0062593D01*
X0172747Y0062560D01*
X0172639Y0062532D01*
X0172530Y0062507D01*
X0172420Y0062487D01*
X0172309Y0062470D01*
X0172198Y0062457D01*
X0172087Y0062448D01*
X0171975Y0062443D01*
X0171863Y0062442D01*
X0171751Y0062445D01*
X0171640Y0062452D01*
X0171528Y0062463D01*
X0171418Y0062478D01*
X0171307Y0062497D01*
X0171198Y0062519D01*
X0171089Y0062546D01*
X0170982Y0062576D01*
X0170875Y0062610D01*
X0170770Y0062648D01*
X0170666Y0062690D01*
X0170564Y0062735D01*
X0170463Y0062784D01*
X0170365Y0062836D01*
X0170268Y0062892D01*
X0170173Y0062952D01*
X0170080Y0063014D01*
X0169990Y0063080D01*
X0169902Y0063149D01*
X0169817Y0063221D01*
X0169734Y0063297D01*
X0169654Y0063375D01*
X0169576Y0063455D01*
X0169502Y0063539D01*
X0169431Y0063625D01*
X0169362Y0063713D01*
X0169297Y0063804D01*
X0169236Y0063898D01*
X0169177Y0063993D01*
X0169122Y0064090D01*
X0169071Y0064189D01*
X0169023Y0064290D01*
X0168978Y0064393D01*
X0168937Y0064497D01*
X0168900Y0064603D01*
X0168867Y0064709D01*
X0168838Y0064817D01*
X0168812Y0064926D01*
X0168790Y0065036D01*
X0168773Y0065146D01*
X0168759Y0065257D01*
X0168749Y0065369D01*
X0168743Y0065480D01*
X0168741Y0065592D01*
D11*
X0171891Y0038702D02*
X0171891Y0025710D01*
X0089214Y0025710D02*
X0089214Y0038702D01*
X0089214Y0186970D02*
X0089214Y0199962D01*
X0171891Y0199962D02*
X0171891Y0186970D01*
D12*
X0162049Y0198151D02*
X0162049Y0208781D01*
X0099057Y0208781D02*
X0099057Y0198151D01*
X0099057Y0027521D02*
X0099057Y0016891D01*
X0162049Y0016891D02*
X0162049Y0027521D01*
D13*
X0244332Y0016773D03*
X0244332Y0208899D03*
X0016773Y0208899D03*
X0016773Y0016773D03*
D14*
X0190100Y0014600D02*
X0190100Y0020600D01*
X0200100Y0020600D02*
X0200100Y0014600D01*
X0210100Y0014600D02*
X0210100Y0020600D01*
X0220100Y0020600D02*
X0220100Y0014600D01*
D15*
X0070100Y0207600D03*
X0050415Y0207600D03*
D16*
X0057890Y0202668D02*
X0057406Y0201502D01*
X0056513Y0200609D01*
X0055346Y0200125D01*
X0045483Y0200125D01*
X0044317Y0200609D01*
X0043423Y0201502D01*
X0042940Y0202668D01*
X0042940Y0212532D01*
X0043423Y0213698D01*
X0044317Y0214591D01*
X0045483Y0215075D01*
X0055346Y0215075D01*
X0056513Y0214591D01*
X0057406Y0213698D01*
X0057890Y0212532D01*
X0057890Y0202668D01*
X0057890Y0204106D02*
X0063200Y0204106D01*
X0063200Y0203044D02*
X0063300Y0202542D01*
X0063496Y0202068D01*
X0063780Y0201643D01*
X0064143Y0201280D01*
X0064568Y0200996D01*
X0065042Y0200800D01*
X0065544Y0200700D01*
X0070100Y0200700D01*
X0074656Y0200700D01*
X0075158Y0200800D01*
X0075632Y0200996D01*
X0076057Y0201280D01*
X0076420Y0201643D01*
X0076704Y0202068D01*
X0076900Y0202542D01*
X0077000Y0203044D01*
X0077000Y0207600D01*
X0077000Y0212156D01*
X0076900Y0212658D01*
X0076704Y0213132D01*
X0076420Y0213557D01*
X0076057Y0213920D01*
X0075632Y0214204D01*
X0075158Y0214400D01*
X0074656Y0214500D01*
X0070100Y0214500D01*
X0070100Y0207600D01*
X0077000Y0207600D01*
X0070100Y0207600D01*
X0070100Y0207600D01*
X0070100Y0207600D01*
X0070100Y0200700D01*
X0070100Y0207600D01*
X0070100Y0207600D01*
X0070100Y0207600D01*
X0063200Y0207600D01*
X0063200Y0212156D01*
X0063300Y0212658D01*
X0063496Y0213132D01*
X0063780Y0213557D01*
X0064143Y0213920D01*
X0064568Y0214204D01*
X0065042Y0214400D01*
X0065544Y0214500D01*
X0070100Y0214500D01*
X0070100Y0207600D01*
X0063200Y0207600D01*
X0063200Y0203044D01*
X0064781Y0200908D02*
X0056813Y0200908D01*
X0057890Y0207305D02*
X0063200Y0207305D01*
X0063200Y0210503D02*
X0057890Y0210503D01*
X0057403Y0213702D02*
X0063925Y0213702D01*
X0070100Y0213702D02*
X0070100Y0213702D01*
X0070100Y0210503D02*
X0070100Y0210503D01*
X0070100Y0207305D02*
X0070100Y0207305D01*
X0070100Y0204106D02*
X0070100Y0204106D01*
X0070100Y0200908D02*
X0070100Y0200908D01*
X0075419Y0200908D02*
X0080164Y0200908D01*
X0080118Y0200558D02*
X0080274Y0201741D01*
X0080582Y0202892D01*
X0081039Y0203994D01*
X0081635Y0205027D01*
X0082361Y0205973D01*
X0083204Y0206816D01*
X0084150Y0207542D01*
X0085182Y0208138D01*
X0086284Y0208594D01*
X0087436Y0208903D01*
X0088618Y0209058D01*
X0088649Y0209058D01*
X0088649Y0194032D01*
X0089780Y0194032D01*
X0089780Y0209058D01*
X0089810Y0209058D01*
X0090993Y0208903D01*
X0091142Y0208863D01*
X0091142Y0209300D01*
X0091277Y0210329D01*
X0091546Y0211331D01*
X0091943Y0212289D01*
X0092462Y0213188D01*
X0093093Y0214011D01*
X0093827Y0214745D01*
X0094650Y0215376D01*
X0095548Y0215895D01*
X0096507Y0216292D01*
X0097509Y0216561D01*
X0098538Y0216696D01*
X0099057Y0216696D01*
X0099057Y0203466D01*
X0099057Y0203466D01*
X0106972Y0203466D01*
X0106972Y0197632D01*
X0106836Y0196604D01*
X0106568Y0195602D01*
X0106171Y0194643D01*
X0105652Y0193744D01*
X0105020Y0192921D01*
X0104287Y0192188D01*
X0103463Y0191556D01*
X0102565Y0191037D01*
X0101606Y0190640D01*
X0100604Y0190372D01*
X0099575Y0190236D01*
X0099057Y0190236D01*
X0099057Y0203466D01*
X0106972Y0203466D01*
X0106972Y0209300D01*
X0106836Y0210329D01*
X0106568Y0211331D01*
X0106171Y0212289D01*
X0105652Y0213188D01*
X0105020Y0214011D01*
X0104287Y0214745D01*
X0103463Y0215376D01*
X0102565Y0215895D01*
X0101606Y0216292D01*
X0100604Y0216561D01*
X0099575Y0216696D01*
X0099057Y0216696D01*
X0099057Y0203466D01*
X0099057Y0203466D01*
X0099057Y0203466D01*
X0099057Y0190236D01*
X0098538Y0190236D01*
X0098310Y0190266D01*
X0098310Y0186374D01*
X0098155Y0185192D01*
X0097846Y0184040D01*
X0097390Y0182938D01*
X0096793Y0181906D01*
X0096068Y0180960D01*
X0095224Y0180117D01*
X0094279Y0179391D01*
X0093246Y0178795D01*
X0092144Y0178338D01*
X0090993Y0178030D01*
X0089810Y0177874D01*
X0089780Y0177874D01*
X0089780Y0192901D01*
X0088649Y0192901D01*
X0088649Y0177874D01*
X0088618Y0177874D01*
X0087436Y0178030D01*
X0086284Y0178338D01*
X0085182Y0178795D01*
X0084150Y0179391D01*
X0083204Y0180117D01*
X0082361Y0180960D01*
X0081635Y0181906D01*
X0081039Y0182938D01*
X0080582Y0184040D01*
X0080274Y0185192D01*
X0080118Y0186374D01*
X0080118Y0192901D01*
X0088649Y0192901D01*
X0088649Y0194031D01*
X0080118Y0194031D01*
X0080118Y0200558D01*
X0080118Y0197709D02*
X0023606Y0197709D01*
X0023516Y0197649D02*
X0024586Y0198365D01*
X0025581Y0199181D01*
X0026491Y0200091D01*
X0027308Y0201086D01*
X0028023Y0202156D01*
X0028630Y0203291D01*
X0029122Y0204481D01*
X0029496Y0205712D01*
X0029747Y0206975D01*
X0029823Y0207743D01*
X0017929Y0207743D01*
X0017929Y0195850D01*
X0018698Y0195925D01*
X0019960Y0196176D01*
X0021192Y0196550D01*
X0022381Y0197043D01*
X0023516Y0197649D01*
X0027161Y0200908D02*
X0044017Y0200908D01*
X0042940Y0204106D02*
X0028967Y0204106D01*
X0029780Y0207305D02*
X0042940Y0207305D01*
X0042940Y0210503D02*
X0029779Y0210503D01*
X0029747Y0210824D02*
X0029496Y0212086D01*
X0029122Y0213318D01*
X0028630Y0214507D01*
X0028023Y0215642D01*
X0027308Y0216712D01*
X0026491Y0217707D01*
X0025581Y0218617D01*
X0024586Y0219434D01*
X0023516Y0220149D01*
X0022911Y0220472D01*
X0238195Y0220472D01*
X0237589Y0220149D01*
X0236519Y0219434D01*
X0235524Y0218617D01*
X0234614Y0217707D01*
X0233798Y0216712D01*
X0233082Y0215642D01*
X0232476Y0214507D01*
X0231983Y0213318D01*
X0231610Y0212086D01*
X0231358Y0210824D01*
X0231283Y0210055D01*
X0243176Y0210055D01*
X0243176Y0207743D01*
X0231283Y0207743D01*
X0231358Y0206975D01*
X0231610Y0205712D01*
X0231983Y0204481D01*
X0232476Y0203291D01*
X0233082Y0202156D01*
X0233798Y0201086D01*
X0234614Y0200091D01*
X0235524Y0199181D01*
X0236519Y0198365D01*
X0237589Y0197649D01*
X0238725Y0197043D01*
X0239914Y0196550D01*
X0241145Y0196176D01*
X0242408Y0195925D01*
X0243176Y0195850D01*
X0243176Y0207743D01*
X0245488Y0207743D01*
X0245488Y0195850D01*
X0246257Y0195925D01*
X0247519Y0196176D01*
X0248751Y0196550D01*
X0249940Y0197043D01*
X0251075Y0197649D01*
X0252145Y0198365D01*
X0253140Y0199181D01*
X0254050Y0200091D01*
X0254867Y0201086D01*
X0255582Y0202156D01*
X0255906Y0202761D01*
X0255906Y0022911D01*
X0255582Y0023516D01*
X0254867Y0024586D01*
X0254050Y0025581D01*
X0253140Y0026491D01*
X0252145Y0027308D01*
X0251075Y0028023D01*
X0249940Y0028630D01*
X0248751Y0029122D01*
X0247519Y0029496D01*
X0246257Y0029747D01*
X0245488Y0029823D01*
X0245488Y0017929D01*
X0243176Y0017929D01*
X0243176Y0015617D01*
X0231283Y0015617D01*
X0231358Y0014849D01*
X0231610Y0013586D01*
X0231983Y0012355D01*
X0232476Y0011165D01*
X0233082Y0010030D01*
X0233798Y0008960D01*
X0234614Y0007965D01*
X0235524Y0007055D01*
X0236519Y0006239D01*
X0237589Y0005523D01*
X0238195Y0005200D01*
X0022911Y0005200D01*
X0023516Y0005523D01*
X0024586Y0006239D01*
X0025581Y0007055D01*
X0026491Y0007965D01*
X0027308Y0008960D01*
X0028023Y0010030D01*
X0028630Y0011165D01*
X0029122Y0012355D01*
X0029496Y0013586D01*
X0029747Y0014849D01*
X0029823Y0015617D01*
X0017929Y0015617D01*
X0017929Y0017929D01*
X0015617Y0017929D01*
X0015617Y0029823D01*
X0014849Y0029747D01*
X0013586Y0029496D01*
X0012355Y0029122D01*
X0011165Y0028630D01*
X0010030Y0028023D01*
X0008960Y0027308D01*
X0007965Y0026491D01*
X0007055Y0025581D01*
X0006239Y0024586D01*
X0005523Y0023516D01*
X0005200Y0022911D01*
X0005200Y0202761D01*
X0005523Y0202156D01*
X0006239Y0201086D01*
X0007055Y0200091D01*
X0007965Y0199181D01*
X0008960Y0198365D01*
X0010030Y0197649D01*
X0011165Y0197043D01*
X0012355Y0196550D01*
X0013586Y0196176D01*
X0014849Y0195925D01*
X0015617Y0195850D01*
X0015617Y0207743D01*
X0017929Y0207743D01*
X0017929Y0210055D01*
X0029823Y0210055D01*
X0029747Y0210824D01*
X0028963Y0213702D02*
X0043427Y0213702D01*
X0027154Y0216900D02*
X0159465Y0216900D01*
X0160360Y0217271D02*
X0157240Y0215978D01*
X0154852Y0213590D01*
X0153559Y0210470D01*
X0153559Y0196462D01*
X0154852Y0193342D01*
X0157240Y0190954D01*
X0160360Y0189661D01*
X0162220Y0189661D01*
X0162220Y0185046D01*
X0163693Y0181492D01*
X0166413Y0178772D01*
X0169968Y0177299D01*
X0173815Y0177299D01*
X0177369Y0178772D01*
X0180090Y0181492D01*
X0181562Y0185046D01*
X0181562Y0201886D01*
X0180090Y0205440D01*
X0177369Y0208161D01*
X0173815Y0209633D01*
X0170539Y0209633D01*
X0170539Y0210470D01*
X0169246Y0213590D01*
X0166858Y0215978D01*
X0163738Y0217271D01*
X0160360Y0217271D01*
X0164632Y0216900D02*
X0233952Y0216900D01*
X0237514Y0220099D02*
X0023591Y0220099D01*
X0017929Y0207305D02*
X0015617Y0207305D01*
X0015617Y0204106D02*
X0017929Y0204106D01*
X0017929Y0200908D02*
X0015617Y0200908D01*
X0015617Y0197709D02*
X0017929Y0197709D01*
X0009941Y0197709D02*
X0005200Y0197709D01*
X0005200Y0194511D02*
X0080118Y0194511D01*
X0080118Y0191312D02*
X0005200Y0191312D01*
X0005200Y0188114D02*
X0080118Y0188114D01*
X0080348Y0184915D02*
X0005200Y0184915D01*
X0005200Y0181717D02*
X0081780Y0181717D01*
X0085850Y0178518D02*
X0005200Y0178518D01*
X0005200Y0175320D02*
X0255906Y0175320D01*
X0255906Y0172121D02*
X0005200Y0172121D01*
X0005200Y0168923D02*
X0255906Y0168923D01*
X0255906Y0165724D02*
X0005200Y0165724D01*
X0005200Y0162526D02*
X0255906Y0162526D01*
X0255906Y0159327D02*
X0005200Y0159327D01*
X0005200Y0156129D02*
X0255906Y0156129D01*
X0255906Y0152930D02*
X0005200Y0152930D01*
X0005200Y0149732D02*
X0255906Y0149732D01*
X0255906Y0146533D02*
X0005200Y0146533D01*
X0005200Y0143334D02*
X0255906Y0143334D01*
X0255906Y0140136D02*
X0005200Y0140136D01*
X0005200Y0136937D02*
X0255906Y0136937D01*
X0255906Y0133739D02*
X0005200Y0133739D01*
X0005200Y0130540D02*
X0112297Y0130540D01*
X0112207Y0130451D02*
X0112938Y0131182D01*
X0113894Y0131578D01*
X0147212Y0131578D01*
X0148167Y0131182D01*
X0148899Y0130451D01*
X0149294Y0129495D01*
X0149294Y0096177D01*
X0148899Y0095222D01*
X0148167Y0094490D01*
X0147212Y0094094D01*
X0113894Y0094094D01*
X0112938Y0094490D01*
X0112207Y0095222D01*
X0111811Y0096177D01*
X0111811Y0097212D01*
X0111811Y0128461D01*
X0111811Y0129495D01*
X0112207Y0130451D01*
X0111811Y0127342D02*
X0005200Y0127342D01*
X0005200Y0124143D02*
X0111811Y0124143D01*
X0111811Y0120945D02*
X0005200Y0120945D01*
X0005200Y0117746D02*
X0084209Y0117746D01*
X0084340Y0118062D02*
X0083465Y0115948D01*
X0083465Y0113661D01*
X0084340Y0111548D01*
X0085957Y0109930D01*
X0088070Y0109055D01*
X0090358Y0109055D01*
X0092471Y0109930D01*
X0094088Y0111548D01*
X0094964Y0113661D01*
X0094964Y0115948D01*
X0094088Y0118062D01*
X0092471Y0119679D01*
X0090358Y0120554D01*
X0088070Y0120554D01*
X0085957Y0119679D01*
X0084340Y0118062D01*
X0083465Y0114548D02*
X0005200Y0114548D01*
X0005200Y0111349D02*
X0084538Y0111349D01*
X0093890Y0111349D02*
X0111811Y0111349D01*
X0111811Y0114548D02*
X0094964Y0114548D01*
X0094219Y0117746D02*
X0111811Y0117746D01*
X0111811Y0108151D02*
X0005200Y0108151D01*
X0005200Y0104952D02*
X0111811Y0104952D01*
X0111811Y0101754D02*
X0005200Y0101754D01*
X0005200Y0098555D02*
X0111811Y0098555D01*
X0112151Y0095357D02*
X0005200Y0095357D01*
X0005200Y0092158D02*
X0255906Y0092158D01*
X0255906Y0088960D02*
X0149294Y0088960D01*
X0149294Y0089046D02*
X0148281Y0090801D01*
X0146527Y0091814D01*
X0088201Y0091814D01*
X0086446Y0090801D01*
X0085433Y0089046D01*
X0085433Y0066109D01*
X0085433Y0064579D01*
X0086446Y0062824D01*
X0086446Y0062824D01*
X0086446Y0062824D01*
X0088201Y0061811D01*
X0146527Y0061811D01*
X0148281Y0062824D01*
X0148281Y0062824D01*
X0148281Y0062824D01*
X0149294Y0064579D01*
X0149294Y0089046D01*
X0148281Y0090801D02*
X0148281Y0090801D01*
X0148281Y0090801D01*
X0148955Y0095357D02*
X0255906Y0095357D01*
X0255906Y0098555D02*
X0149294Y0098555D01*
X0149294Y0101754D02*
X0255906Y0101754D01*
X0255906Y0104952D02*
X0149294Y0104952D01*
X0149294Y0108151D02*
X0255906Y0108151D01*
X0255906Y0111349D02*
X0176567Y0111349D01*
X0176766Y0111548D02*
X0177641Y0113661D01*
X0177641Y0115948D01*
X0176766Y0118062D01*
X0175148Y0119679D01*
X0173035Y0120554D01*
X0170748Y0120554D01*
X0168634Y0119679D01*
X0167017Y0118062D01*
X0166142Y0115948D01*
X0166142Y0113661D01*
X0167017Y0111548D01*
X0168634Y0109930D01*
X0170748Y0109055D01*
X0173035Y0109055D01*
X0175148Y0109930D01*
X0176766Y0111548D01*
X0177641Y0114548D02*
X0255906Y0114548D01*
X0255906Y0117746D02*
X0176896Y0117746D01*
X0167216Y0111349D02*
X0149294Y0111349D01*
X0149294Y0114548D02*
X0166142Y0114548D01*
X0166887Y0117746D02*
X0149294Y0117746D01*
X0149294Y0120945D02*
X0255906Y0120945D01*
X0255906Y0124143D02*
X0149294Y0124143D01*
X0149294Y0127342D02*
X0255906Y0127342D01*
X0255906Y0130540D02*
X0148809Y0130540D01*
X0149294Y0085761D02*
X0255906Y0085761D01*
X0255906Y0082563D02*
X0149294Y0082563D01*
X0149294Y0079364D02*
X0255906Y0079364D01*
X0255906Y0076166D02*
X0149294Y0076166D01*
X0149294Y0072967D02*
X0255906Y0072967D01*
X0255906Y0069769D02*
X0175846Y0069769D01*
X0175148Y0070466D02*
X0176766Y0068849D01*
X0177641Y0066736D01*
X0177641Y0064448D01*
X0176766Y0062335D01*
X0175148Y0060718D01*
X0173035Y0059843D01*
X0170748Y0059843D01*
X0168634Y0060718D01*
X0167017Y0062335D01*
X0166142Y0064448D01*
X0166142Y0066736D01*
X0167017Y0068849D01*
X0168634Y0070466D01*
X0170748Y0071342D01*
X0173035Y0071342D01*
X0175148Y0070466D01*
X0177641Y0066570D02*
X0255906Y0066570D01*
X0255906Y0063372D02*
X0177195Y0063372D01*
X0173833Y0060173D02*
X0255906Y0060173D01*
X0255906Y0056975D02*
X0005200Y0056975D01*
X0005200Y0060173D02*
X0169949Y0060173D01*
X0166588Y0063372D02*
X0148597Y0063372D01*
X0149294Y0066570D02*
X0166142Y0066570D01*
X0167937Y0069769D02*
X0149294Y0069769D01*
X0168961Y0047334D02*
X0170113Y0047643D01*
X0171295Y0047798D01*
X0171326Y0047798D01*
X0171326Y0032772D01*
X0172457Y0032772D01*
X0172457Y0047798D01*
X0172488Y0047798D01*
X0173670Y0047643D01*
X0174821Y0047334D01*
X0175923Y0046878D01*
X0176956Y0046282D01*
X0177902Y0045556D01*
X0178745Y0044713D01*
X0179471Y0043767D01*
X0180067Y0042734D01*
X0180523Y0041632D01*
X0180832Y0040481D01*
X0180987Y0039299D01*
X0180987Y0032772D01*
X0172457Y0032772D01*
X0172457Y0031641D01*
X0180987Y0031641D01*
X0180987Y0025114D01*
X0180832Y0023932D01*
X0180523Y0022780D01*
X0180067Y0021679D01*
X0179471Y0020646D01*
X0178745Y0019700D01*
X0177902Y0018857D01*
X0176956Y0018131D01*
X0175923Y0017535D01*
X0174821Y0017078D01*
X0173670Y0016770D01*
X0172488Y0016614D01*
X0172457Y0016614D01*
X0172457Y0031641D01*
X0171326Y0031641D01*
X0171326Y0016614D01*
X0171295Y0016614D01*
X0170113Y0016770D01*
X0169964Y0016810D01*
X0169964Y0016373D01*
X0169828Y0015344D01*
X0169560Y0014342D01*
X0169163Y0013383D01*
X0168644Y0012485D01*
X0168012Y0011661D01*
X0167279Y0010928D01*
X0166456Y0010296D01*
X0165557Y0009777D01*
X0164598Y0009380D01*
X0163596Y0009112D01*
X0162568Y0008976D01*
X0162049Y0008976D01*
X0162049Y0022206D01*
X0162049Y0022206D01*
X0162049Y0008976D01*
X0161530Y0008976D01*
X0160501Y0009112D01*
X0159499Y0009380D01*
X0158541Y0009777D01*
X0157642Y0010296D01*
X0156819Y0010928D01*
X0156085Y0011661D01*
X0155454Y0012485D01*
X0154935Y0013383D01*
X0154538Y0014342D01*
X0154269Y0015344D01*
X0154134Y0016373D01*
X0154134Y0022206D01*
X0162049Y0022206D01*
X0162049Y0022206D01*
X0162049Y0022206D01*
X0162049Y0035436D01*
X0162568Y0035436D01*
X0162795Y0035406D01*
X0162795Y0039299D01*
X0162951Y0040481D01*
X0163260Y0041632D01*
X0163716Y0042734D01*
X0164312Y0043767D01*
X0165038Y0044713D01*
X0165881Y0045556D01*
X0166827Y0046282D01*
X0167860Y0046878D01*
X0168961Y0047334D01*
X0169129Y0047379D02*
X0093538Y0047379D01*
X0094692Y0046901D02*
X0091138Y0048373D01*
X0087291Y0048373D01*
X0083736Y0046901D01*
X0081016Y0044180D01*
X0079543Y0040626D01*
X0079543Y0023787D01*
X0081016Y0020232D01*
X0083736Y0017512D01*
X0087291Y0016039D01*
X0090567Y0016039D01*
X0090567Y0015203D01*
X0091859Y0012082D01*
X0094248Y0009694D01*
X0097368Y0008402D01*
X0100745Y0008402D01*
X0103866Y0009694D01*
X0106254Y0012082D01*
X0107546Y0015203D01*
X0107546Y0029210D01*
X0106254Y0032330D01*
X0103866Y0034719D01*
X0100745Y0036011D01*
X0098885Y0036011D01*
X0098885Y0040626D01*
X0097413Y0044180D01*
X0094692Y0046901D01*
X0097413Y0044181D02*
X0164630Y0044181D01*
X0163085Y0040982D02*
X0098738Y0040982D01*
X0098885Y0037784D02*
X0162795Y0037784D01*
X0162049Y0035436D02*
X0161530Y0035436D01*
X0160501Y0035301D01*
X0159499Y0035032D01*
X0158541Y0034635D01*
X0157642Y0034116D01*
X0156819Y0033485D01*
X0156085Y0032751D01*
X0155454Y0031928D01*
X0154935Y0031029D01*
X0154538Y0030071D01*
X0154269Y0029069D01*
X0154134Y0028040D01*
X0154134Y0022206D01*
X0162049Y0022206D01*
X0162049Y0035436D01*
X0162049Y0034585D02*
X0162049Y0034585D01*
X0162049Y0031387D02*
X0162049Y0031387D01*
X0162049Y0028188D02*
X0162049Y0028188D01*
X0162049Y0024990D02*
X0162049Y0024990D01*
X0162049Y0021791D02*
X0162049Y0021791D01*
X0162049Y0018593D02*
X0162049Y0018593D01*
X0162049Y0015394D02*
X0162049Y0015394D01*
X0162049Y0012196D02*
X0162049Y0012196D01*
X0162049Y0008997D02*
X0162049Y0008997D01*
X0162724Y0008997D02*
X0233773Y0008997D01*
X0237178Y0005799D02*
X0023928Y0005799D01*
X0027333Y0008997D02*
X0095930Y0008997D01*
X0091812Y0012196D02*
X0029056Y0012196D01*
X0029801Y0015394D02*
X0090567Y0015394D01*
X0082655Y0018593D02*
X0029757Y0018593D01*
X0029747Y0018698D02*
X0029496Y0019960D01*
X0029122Y0021192D01*
X0028630Y0022381D01*
X0028023Y0023516D01*
X0027308Y0024586D01*
X0026491Y0025581D01*
X0025581Y0026491D01*
X0024586Y0027308D01*
X0023516Y0028023D01*
X0022381Y0028630D01*
X0021192Y0029122D01*
X0019960Y0029496D01*
X0018698Y0029747D01*
X0017929Y0029823D01*
X0017929Y0017929D01*
X0029823Y0017929D01*
X0029747Y0018698D01*
X0028874Y0021791D02*
X0080370Y0021791D01*
X0079543Y0024990D02*
X0026977Y0024990D01*
X0023207Y0028188D02*
X0079543Y0028188D01*
X0079543Y0031387D02*
X0005200Y0031387D01*
X0005200Y0028188D02*
X0010339Y0028188D01*
X0006569Y0024990D02*
X0005200Y0024990D01*
X0005200Y0034585D02*
X0079543Y0034585D01*
X0079543Y0037784D02*
X0005200Y0037784D01*
X0005200Y0040982D02*
X0079691Y0040982D01*
X0081016Y0044181D02*
X0005200Y0044181D01*
X0005200Y0047379D02*
X0084891Y0047379D01*
X0103999Y0034585D02*
X0158454Y0034585D01*
X0155141Y0031387D02*
X0106645Y0031387D01*
X0107546Y0028188D02*
X0154153Y0028188D01*
X0154134Y0024990D02*
X0107546Y0024990D01*
X0107546Y0021791D02*
X0154134Y0021791D01*
X0154134Y0018593D02*
X0107546Y0018593D01*
X0107546Y0015394D02*
X0154263Y0015394D01*
X0155675Y0012196D02*
X0106301Y0012196D01*
X0102183Y0008997D02*
X0161373Y0008997D01*
X0168422Y0012196D02*
X0185251Y0012196D01*
X0185522Y0011541D02*
X0184700Y0013526D01*
X0184700Y0021674D01*
X0185522Y0023659D01*
X0187041Y0025178D01*
X0189026Y0026000D01*
X0191174Y0026000D01*
X0193159Y0025178D01*
X0194678Y0023659D01*
X0195100Y0022640D01*
X0195522Y0023659D01*
X0197041Y0025178D01*
X0199026Y0026000D01*
X0201174Y0026000D01*
X0203159Y0025178D01*
X0204678Y0023659D01*
X0205100Y0022640D01*
X0205522Y0023659D01*
X0207041Y0025178D01*
X0209026Y0026000D01*
X0211174Y0026000D01*
X0213159Y0025178D01*
X0214678Y0023659D01*
X0215100Y0022640D01*
X0215522Y0023659D01*
X0217041Y0025178D01*
X0219026Y0026000D01*
X0221174Y0026000D01*
X0223159Y0025178D01*
X0224678Y0023659D01*
X0225500Y0021674D01*
X0225500Y0013526D01*
X0224678Y0011541D01*
X0223159Y0010022D01*
X0221174Y0009200D01*
X0219026Y0009200D01*
X0217041Y0010022D01*
X0215522Y0011541D01*
X0215100Y0012560D01*
X0214678Y0011541D01*
X0213159Y0010022D01*
X0211174Y0009200D01*
X0209026Y0009200D01*
X0207041Y0010022D01*
X0205522Y0011541D01*
X0205100Y0012560D01*
X0204678Y0011541D01*
X0203159Y0010022D01*
X0201174Y0009200D01*
X0199026Y0009200D01*
X0197041Y0010022D01*
X0195522Y0011541D01*
X0195100Y0012560D01*
X0194678Y0011541D01*
X0193159Y0010022D01*
X0191174Y0009200D01*
X0189026Y0009200D01*
X0187041Y0010022D01*
X0185522Y0011541D01*
X0184700Y0015394D02*
X0169835Y0015394D01*
X0171326Y0018593D02*
X0172457Y0018593D01*
X0172457Y0021791D02*
X0171326Y0021791D01*
X0171326Y0024990D02*
X0172457Y0024990D01*
X0172457Y0028188D02*
X0171326Y0028188D01*
X0171326Y0031387D02*
X0172457Y0031387D01*
X0172457Y0034585D02*
X0171326Y0034585D01*
X0171326Y0037784D02*
X0172457Y0037784D01*
X0172457Y0040982D02*
X0171326Y0040982D01*
X0171326Y0044181D02*
X0172457Y0044181D01*
X0172457Y0047379D02*
X0171326Y0047379D01*
X0174654Y0047379D02*
X0255906Y0047379D01*
X0255906Y0044181D02*
X0179153Y0044181D01*
X0180697Y0040982D02*
X0255906Y0040982D01*
X0255906Y0037784D02*
X0180987Y0037784D01*
X0180987Y0034585D02*
X0255906Y0034585D01*
X0255906Y0031387D02*
X0180987Y0031387D01*
X0180987Y0028188D02*
X0237898Y0028188D01*
X0237589Y0028023D02*
X0238725Y0028630D01*
X0239914Y0029122D01*
X0241145Y0029496D01*
X0242408Y0029747D01*
X0243176Y0029823D01*
X0243176Y0017929D01*
X0231283Y0017929D01*
X0231358Y0018698D01*
X0231610Y0019960D01*
X0231983Y0021192D01*
X0232476Y0022381D01*
X0233082Y0023516D01*
X0233798Y0024586D01*
X0234614Y0025581D01*
X0235524Y0026491D01*
X0236519Y0027308D01*
X0237589Y0028023D01*
X0234129Y0024990D02*
X0223347Y0024990D01*
X0225452Y0021791D02*
X0232231Y0021791D01*
X0231348Y0018593D02*
X0225500Y0018593D01*
X0225500Y0015394D02*
X0231305Y0015394D01*
X0232049Y0012196D02*
X0224949Y0012196D01*
X0215251Y0012196D02*
X0214949Y0012196D01*
X0205251Y0012196D02*
X0204949Y0012196D01*
X0195251Y0012196D02*
X0194949Y0012196D01*
X0184700Y0018593D02*
X0177557Y0018593D01*
X0180113Y0021791D02*
X0184748Y0021791D01*
X0186853Y0024990D02*
X0180971Y0024990D01*
X0193347Y0024990D02*
X0196853Y0024990D01*
X0203347Y0024990D02*
X0206853Y0024990D01*
X0213347Y0024990D02*
X0216853Y0024990D01*
X0243176Y0024990D02*
X0245488Y0024990D01*
X0245488Y0028188D02*
X0243176Y0028188D01*
X0243176Y0021791D02*
X0245488Y0021791D01*
X0245488Y0018593D02*
X0243176Y0018593D01*
X0250766Y0028188D02*
X0255906Y0028188D01*
X0255906Y0024990D02*
X0254536Y0024990D01*
X0255906Y0050578D02*
X0005200Y0050578D01*
X0005200Y0053776D02*
X0255906Y0053776D01*
X0255906Y0178518D02*
X0176758Y0178518D01*
X0180183Y0181717D02*
X0255906Y0181717D01*
X0255906Y0184915D02*
X0181508Y0184915D01*
X0181562Y0188114D02*
X0255906Y0188114D01*
X0255906Y0191312D02*
X0181562Y0191312D01*
X0181562Y0194511D02*
X0255906Y0194511D01*
X0255906Y0197709D02*
X0251165Y0197709D01*
X0254721Y0200908D02*
X0255906Y0200908D01*
X0245488Y0200908D02*
X0243176Y0200908D01*
X0243176Y0204106D02*
X0245488Y0204106D01*
X0245488Y0207305D02*
X0243176Y0207305D01*
X0243176Y0197709D02*
X0245488Y0197709D01*
X0237500Y0197709D02*
X0181562Y0197709D01*
X0181562Y0200908D02*
X0233944Y0200908D01*
X0232138Y0204106D02*
X0180642Y0204106D01*
X0178225Y0207305D02*
X0231326Y0207305D01*
X0231327Y0210503D02*
X0170525Y0210503D01*
X0169134Y0213702D02*
X0232142Y0213702D01*
X0167025Y0178518D02*
X0092578Y0178518D01*
X0089780Y0178518D02*
X0088649Y0178518D01*
X0088649Y0181717D02*
X0089780Y0181717D01*
X0089780Y0184915D02*
X0088649Y0184915D01*
X0088649Y0188114D02*
X0089780Y0188114D01*
X0089780Y0191312D02*
X0088649Y0191312D01*
X0088649Y0194511D02*
X0089780Y0194511D01*
X0089780Y0197709D02*
X0088649Y0197709D01*
X0088649Y0200908D02*
X0089780Y0200908D01*
X0089780Y0204106D02*
X0088649Y0204106D01*
X0088649Y0207305D02*
X0089780Y0207305D01*
X0091324Y0210503D02*
X0077000Y0210503D01*
X0076275Y0213702D02*
X0092856Y0213702D01*
X0099057Y0213702D02*
X0099057Y0213702D01*
X0099057Y0210503D02*
X0099057Y0210503D01*
X0099057Y0207305D02*
X0099057Y0207305D01*
X0099057Y0204106D02*
X0099057Y0204106D01*
X0099057Y0200908D02*
X0099057Y0200908D01*
X0099057Y0197709D02*
X0099057Y0197709D01*
X0099057Y0194511D02*
X0099057Y0194511D01*
X0099057Y0191312D02*
X0099057Y0191312D01*
X0098310Y0188114D02*
X0162220Y0188114D01*
X0162275Y0184915D02*
X0098080Y0184915D01*
X0096648Y0181717D02*
X0163600Y0181717D01*
X0156881Y0191312D02*
X0103041Y0191312D01*
X0106094Y0194511D02*
X0154367Y0194511D01*
X0153559Y0197709D02*
X0106972Y0197709D01*
X0106972Y0200908D02*
X0153559Y0200908D01*
X0153559Y0204106D02*
X0106972Y0204106D01*
X0106972Y0207305D02*
X0153559Y0207305D01*
X0153573Y0210503D02*
X0106789Y0210503D01*
X0105258Y0213702D02*
X0154963Y0213702D01*
X0083841Y0207305D02*
X0077000Y0207305D01*
X0077000Y0204106D02*
X0081103Y0204106D01*
X0006385Y0200908D02*
X0005200Y0200908D01*
X0086446Y0090801D02*
X0086446Y0090801D01*
X0086446Y0090801D01*
X0085433Y0088960D02*
X0005200Y0088960D01*
X0005200Y0085761D02*
X0085433Y0085761D01*
X0085433Y0082563D02*
X0005200Y0082563D01*
X0005200Y0079364D02*
X0085433Y0079364D01*
X0085433Y0076166D02*
X0005200Y0076166D01*
X0005200Y0072967D02*
X0085433Y0072967D01*
X0085433Y0069769D02*
X0005200Y0069769D01*
X0005200Y0066570D02*
X0085433Y0066570D01*
X0086130Y0063372D02*
X0005200Y0063372D01*
X0015617Y0028188D02*
X0017929Y0028188D01*
X0017929Y0024990D02*
X0015617Y0024990D01*
X0015617Y0021791D02*
X0017929Y0021791D01*
X0017929Y0018593D02*
X0015617Y0018593D01*
D17*
X0012600Y0035100D03*
X0032600Y0050100D03*
X0010100Y0057600D03*
X0025100Y0075100D03*
X0010100Y0092600D03*
X0025100Y0110100D03*
X0010100Y0125100D03*
X0025100Y0142600D03*
X0010100Y0155100D03*
X0025100Y0172600D03*
X0010100Y0185100D03*
X0025100Y0192600D03*
X0065100Y0180100D03*
X0080100Y0180100D03*
X0075100Y0197600D03*
X0085100Y0215100D03*
X0065100Y0217600D03*
X0107600Y0217600D03*
X0130100Y0215100D03*
X0145100Y0217600D03*
X0135100Y0195100D03*
X0145100Y0182600D03*
X0125100Y0180100D03*
X0112600Y0195100D03*
X0102600Y0180100D03*
X0092600Y0142600D03*
X0105002Y0137462D03*
X0111754Y0130238D03*
X0107600Y0115100D03*
X0092600Y0107600D03*
X0100100Y0095100D03*
X0080100Y0100100D03*
X0080100Y0087600D03*
X0067600Y0082600D03*
X0083250Y0070277D03*
X0093328Y0059962D03*
X0120100Y0057600D03*
X0122935Y0035257D03*
X0130100Y0010100D03*
X0155100Y0042600D03*
X0182600Y0050100D03*
X0195100Y0067600D03*
X0175100Y0080100D03*
X0192600Y0090100D03*
X0177600Y0102600D03*
X0167600Y0100100D03*
X0152600Y0092600D03*
X0152600Y0115100D03*
X0149824Y0129588D03*
X0156084Y0138013D03*
X0170100Y0140100D03*
X0167600Y0122600D03*
X0192600Y0137600D03*
X0222600Y0152600D03*
X0250100Y0147600D03*
X0227600Y0125100D03*
X0250100Y0112600D03*
X0227600Y0085100D03*
X0210100Y0100100D03*
X0250100Y0067600D03*
X0217600Y0062600D03*
X0202600Y0045100D03*
X0212600Y0030100D03*
X0230100Y0032600D03*
X0250100Y0035100D03*
X0227600Y0007600D03*
X0205100Y0007600D03*
X0187600Y0030100D03*
X0172600Y0010100D03*
X0155100Y0067600D03*
X0092600Y0122600D03*
X0080100Y0130100D03*
X0067600Y0140100D03*
X0212600Y0182600D03*
X0247600Y0187600D03*
X0225100Y0215100D03*
X0035100Y0010100D03*
M02*
