G75*
%MOIN*%
%OFA0B0*%
%FSLAX25Y25*%
%IPPOS*%
%LPD*%
%AMOC8*
5,1,8,0,0,1.08239X$1,22.5*
%
%ADD10C,0.00000*%
%ADD11C,0.00800*%
%ADD12C,0.00500*%
%ADD13C,0.00400*%
%ADD14C,0.00004*%
%ADD15C,0.00300*%
%ADD16C,0.00200*%
%ADD17C,0.00600*%
%ADD18R,0.01772X0.00039*%
%ADD19R,0.02480X0.00039*%
%ADD20R,0.03031X0.00039*%
%ADD21R,0.03504X0.00039*%
%ADD22R,0.03976X0.00039*%
%ADD23R,0.04291X0.00039*%
%ADD24R,0.04685X0.00039*%
%ADD25R,0.05000X0.00039*%
%ADD26R,0.05315X0.00039*%
%ADD27R,0.05551X0.00039*%
%ADD28R,0.05866X0.00039*%
%ADD29R,0.06102X0.00039*%
%ADD30R,0.06339X0.00039*%
%ADD31R,0.06575X0.00039*%
%ADD32R,0.06811X0.00039*%
%ADD33R,0.06969X0.00039*%
%ADD34R,0.07205X0.00039*%
%ADD35R,0.07441X0.00039*%
%ADD36R,0.07598X0.00039*%
%ADD37R,0.07756X0.00039*%
%ADD38R,0.07992X0.00039*%
%ADD39R,0.08150X0.00039*%
%ADD40R,0.08307X0.00039*%
%ADD41R,0.08465X0.00039*%
%ADD42R,0.08701X0.00039*%
%ADD43R,0.08858X0.00039*%
%ADD44R,0.09016X0.00039*%
%ADD45R,0.09173X0.00039*%
%ADD46R,0.04134X0.00039*%
%ADD47R,0.03937X0.00039*%
%ADD48R,0.04094X0.00039*%
%ADD49R,0.03898X0.00039*%
%ADD50R,0.04055X0.00039*%
%ADD51R,0.03858X0.00039*%
%ADD52R,0.04016X0.00039*%
%ADD53R,0.03819X0.00039*%
%ADD54R,0.04173X0.00039*%
%ADD55R,0.04213X0.00039*%
%ADD56R,0.04252X0.00039*%
%ADD57R,0.04331X0.00039*%
%ADD58R,0.04409X0.00039*%
%ADD59R,0.04449X0.00039*%
%ADD60R,0.04488X0.00039*%
%ADD61R,0.04370X0.00039*%
%ADD62R,0.04528X0.00039*%
%ADD63R,0.04567X0.00039*%
%ADD64R,0.04606X0.00039*%
%ADD65R,0.04646X0.00039*%
%ADD66R,0.04724X0.00039*%
%ADD67R,0.04764X0.00039*%
%ADD68R,0.04803X0.00039*%
%ADD69R,0.04843X0.00039*%
%ADD70R,0.04882X0.00039*%
%ADD71R,0.04921X0.00039*%
%ADD72R,0.04961X0.00039*%
%ADD73R,0.05039X0.00039*%
%ADD74R,0.05079X0.00039*%
%ADD75R,0.05118X0.00039*%
%ADD76R,0.05157X0.00039*%
%ADD77R,0.05197X0.00039*%
%ADD78R,0.05236X0.00039*%
%ADD79R,0.05276X0.00039*%
%ADD80R,0.05354X0.00039*%
%ADD81R,0.05394X0.00039*%
%ADD82R,0.05433X0.00039*%
%ADD83R,0.05472X0.00039*%
%ADD84R,0.05512X0.00039*%
%ADD85R,0.05591X0.00039*%
%ADD86R,0.05630X0.00039*%
%ADD87R,0.05669X0.00039*%
%ADD88R,0.05709X0.00039*%
%ADD89R,0.05748X0.00039*%
%ADD90R,0.05787X0.00039*%
%ADD91R,0.05827X0.00039*%
%ADD92R,0.05906X0.00039*%
%ADD93R,0.05945X0.00039*%
%ADD94R,0.05984X0.00039*%
%ADD95R,0.06024X0.00039*%
%ADD96R,0.06063X0.00039*%
%ADD97R,0.06142X0.00039*%
%ADD98R,0.06181X0.00039*%
%ADD99R,0.06220X0.00039*%
%ADD100R,0.06260X0.00039*%
%ADD101R,0.06299X0.00039*%
%ADD102R,0.06378X0.00039*%
%ADD103R,0.06457X0.00039*%
%ADD104R,0.06496X0.00039*%
%ADD105R,0.06535X0.00039*%
%ADD106R,0.06614X0.00039*%
%ADD107R,0.06693X0.00039*%
%ADD108R,0.06732X0.00039*%
%ADD109R,0.06654X0.00039*%
%ADD110R,0.02638X0.00039*%
%ADD111R,0.00551X0.00039*%
%ADD112R,0.06850X0.00039*%
%ADD113R,0.02402X0.00039*%
%ADD114R,0.02795X0.00039*%
%ADD115R,0.06890X0.00039*%
%ADD116R,0.02244X0.00039*%
%ADD117R,0.02677X0.00039*%
%ADD118R,0.02087X0.00039*%
%ADD119R,0.02559X0.00039*%
%ADD120R,0.07008X0.00039*%
%ADD121R,0.02008X0.00039*%
%ADD122R,0.02441X0.00039*%
%ADD123R,0.07087X0.00039*%
%ADD124R,0.01850X0.00039*%
%ADD125R,0.02362X0.00039*%
%ADD126R,0.07126X0.00039*%
%ADD127R,0.01811X0.00039*%
%ADD128R,0.02323X0.00039*%
%ADD129R,0.00197X0.00039*%
%ADD130R,0.00591X0.00039*%
%ADD131R,0.02283X0.00039*%
%ADD132R,0.01693X0.00039*%
%ADD133R,0.00118X0.00039*%
%ADD134R,0.02047X0.00039*%
%ADD135R,0.01654X0.00039*%
%ADD136R,0.02205X0.00039*%
%ADD137R,0.01929X0.00039*%
%ADD138R,0.01614X0.00039*%
%ADD139R,0.02165X0.00039*%
%ADD140R,0.01535X0.00039*%
%ADD141R,0.01732X0.00039*%
%ADD142R,0.01496X0.00039*%
%ADD143R,0.00157X0.00039*%
%ADD144R,0.01417X0.00039*%
%ADD145R,0.00236X0.00039*%
%ADD146R,0.01378X0.00039*%
%ADD147R,0.00276X0.00039*%
%ADD148R,0.01575X0.00039*%
%ADD149R,0.01339X0.00039*%
%ADD150R,0.00315X0.00039*%
%ADD151R,0.01299X0.00039*%
%ADD152R,0.00394X0.00039*%
%ADD153R,0.01457X0.00039*%
%ADD154R,0.01220X0.00039*%
%ADD155R,0.00472X0.00039*%
%ADD156R,0.00512X0.00039*%
%ADD157R,0.01181X0.00039*%
%ADD158R,0.01102X0.00039*%
%ADD159R,0.00669X0.00039*%
%ADD160R,0.01260X0.00039*%
%ADD161R,0.00709X0.00039*%
%ADD162R,0.00827X0.00039*%
%ADD163R,0.01063X0.00039*%
%ADD164R,0.00945X0.00039*%
%ADD165R,0.01024X0.00039*%
%ADD166R,0.01142X0.00039*%
%ADD167R,0.00984X0.00039*%
%ADD168R,0.00906X0.00039*%
%ADD169R,0.00866X0.00039*%
%ADD170R,0.00787X0.00039*%
%ADD171R,0.00748X0.00039*%
%ADD172R,0.00630X0.00039*%
%ADD173R,0.00433X0.00039*%
%ADD174R,0.00354X0.00039*%
%ADD175R,0.00079X0.00039*%
%ADD176R,0.01890X0.00039*%
%ADD177R,0.01969X0.00039*%
%ADD178R,0.02126X0.00039*%
%ADD179R,0.02598X0.00039*%
%ADD180R,0.02520X0.00039*%
%ADD181R,0.06417X0.00039*%
%ADD182R,0.09409X0.00039*%
%ADD183R,0.09331X0.00039*%
D10*
X0016773Y0002600D02*
X0244332Y0002600D01*
X0244674Y0002604D01*
X0245017Y0002617D01*
X0245359Y0002637D01*
X0245700Y0002666D01*
X0246040Y0002703D01*
X0246380Y0002749D01*
X0246718Y0002802D01*
X0247055Y0002864D01*
X0247390Y0002934D01*
X0247724Y0003012D01*
X0248055Y0003098D01*
X0248385Y0003192D01*
X0248712Y0003294D01*
X0249036Y0003403D01*
X0249358Y0003521D01*
X0249677Y0003646D01*
X0249992Y0003779D01*
X0250305Y0003920D01*
X0250613Y0004068D01*
X0250919Y0004223D01*
X0251220Y0004386D01*
X0251517Y0004556D01*
X0251810Y0004733D01*
X0252099Y0004918D01*
X0252383Y0005109D01*
X0252663Y0005307D01*
X0252937Y0005511D01*
X0253207Y0005723D01*
X0253471Y0005940D01*
X0253730Y0006164D01*
X0253984Y0006395D01*
X0254232Y0006631D01*
X0254474Y0006873D01*
X0254710Y0007121D01*
X0254941Y0007375D01*
X0255165Y0007634D01*
X0255382Y0007898D01*
X0255594Y0008168D01*
X0255798Y0008442D01*
X0255996Y0008722D01*
X0256187Y0009006D01*
X0256372Y0009295D01*
X0256549Y0009588D01*
X0256719Y0009885D01*
X0256882Y0010186D01*
X0257037Y0010492D01*
X0257185Y0010800D01*
X0257326Y0011113D01*
X0257459Y0011428D01*
X0257584Y0011747D01*
X0257702Y0012069D01*
X0257811Y0012393D01*
X0257913Y0012720D01*
X0258007Y0013050D01*
X0258093Y0013381D01*
X0258171Y0013715D01*
X0258241Y0014050D01*
X0258303Y0014387D01*
X0258356Y0014725D01*
X0258402Y0015065D01*
X0258439Y0015405D01*
X0258468Y0015746D01*
X0258488Y0016088D01*
X0258501Y0016431D01*
X0258505Y0016773D01*
X0258506Y0016773D02*
X0258506Y0208899D01*
X0258505Y0208899D02*
X0258501Y0209241D01*
X0258488Y0209584D01*
X0258468Y0209926D01*
X0258439Y0210267D01*
X0258402Y0210607D01*
X0258356Y0210947D01*
X0258303Y0211285D01*
X0258241Y0211622D01*
X0258171Y0211957D01*
X0258093Y0212291D01*
X0258007Y0212622D01*
X0257913Y0212952D01*
X0257811Y0213279D01*
X0257702Y0213603D01*
X0257584Y0213925D01*
X0257459Y0214244D01*
X0257326Y0214559D01*
X0257185Y0214872D01*
X0257037Y0215180D01*
X0256882Y0215486D01*
X0256719Y0215787D01*
X0256549Y0216084D01*
X0256372Y0216377D01*
X0256187Y0216666D01*
X0255996Y0216950D01*
X0255798Y0217230D01*
X0255594Y0217504D01*
X0255382Y0217774D01*
X0255165Y0218038D01*
X0254941Y0218297D01*
X0254710Y0218551D01*
X0254474Y0218799D01*
X0254232Y0219041D01*
X0253984Y0219277D01*
X0253730Y0219508D01*
X0253471Y0219732D01*
X0253207Y0219949D01*
X0252937Y0220161D01*
X0252663Y0220365D01*
X0252383Y0220563D01*
X0252099Y0220754D01*
X0251810Y0220939D01*
X0251517Y0221116D01*
X0251220Y0221286D01*
X0250919Y0221449D01*
X0250613Y0221604D01*
X0250305Y0221752D01*
X0249992Y0221893D01*
X0249677Y0222026D01*
X0249358Y0222151D01*
X0249036Y0222269D01*
X0248712Y0222378D01*
X0248385Y0222480D01*
X0248055Y0222574D01*
X0247724Y0222660D01*
X0247390Y0222738D01*
X0247055Y0222808D01*
X0246718Y0222870D01*
X0246380Y0222923D01*
X0246040Y0222969D01*
X0245700Y0223006D01*
X0245359Y0223035D01*
X0245017Y0223055D01*
X0244674Y0223068D01*
X0244332Y0223072D01*
X0016773Y0223072D01*
X0016431Y0223068D01*
X0016088Y0223055D01*
X0015746Y0223035D01*
X0015405Y0223006D01*
X0015065Y0222969D01*
X0014725Y0222923D01*
X0014387Y0222870D01*
X0014050Y0222808D01*
X0013715Y0222738D01*
X0013381Y0222660D01*
X0013050Y0222574D01*
X0012720Y0222480D01*
X0012393Y0222378D01*
X0012069Y0222269D01*
X0011747Y0222151D01*
X0011428Y0222026D01*
X0011113Y0221893D01*
X0010800Y0221752D01*
X0010492Y0221604D01*
X0010186Y0221449D01*
X0009885Y0221286D01*
X0009588Y0221116D01*
X0009295Y0220939D01*
X0009006Y0220754D01*
X0008722Y0220563D01*
X0008442Y0220365D01*
X0008168Y0220161D01*
X0007898Y0219949D01*
X0007634Y0219732D01*
X0007375Y0219508D01*
X0007121Y0219277D01*
X0006873Y0219041D01*
X0006631Y0218799D01*
X0006395Y0218551D01*
X0006164Y0218297D01*
X0005940Y0218038D01*
X0005723Y0217774D01*
X0005511Y0217504D01*
X0005307Y0217230D01*
X0005109Y0216950D01*
X0004918Y0216666D01*
X0004733Y0216377D01*
X0004556Y0216084D01*
X0004386Y0215787D01*
X0004223Y0215486D01*
X0004068Y0215180D01*
X0003920Y0214872D01*
X0003779Y0214559D01*
X0003646Y0214244D01*
X0003521Y0213925D01*
X0003403Y0213603D01*
X0003294Y0213279D01*
X0003192Y0212952D01*
X0003098Y0212622D01*
X0003012Y0212291D01*
X0002934Y0211957D01*
X0002864Y0211622D01*
X0002802Y0211285D01*
X0002749Y0210947D01*
X0002703Y0210607D01*
X0002666Y0210267D01*
X0002637Y0209926D01*
X0002617Y0209584D01*
X0002604Y0209241D01*
X0002600Y0208899D01*
X0002600Y0016773D01*
X0002604Y0016431D01*
X0002617Y0016088D01*
X0002637Y0015746D01*
X0002666Y0015405D01*
X0002703Y0015065D01*
X0002749Y0014725D01*
X0002802Y0014387D01*
X0002864Y0014050D01*
X0002934Y0013715D01*
X0003012Y0013381D01*
X0003098Y0013050D01*
X0003192Y0012720D01*
X0003294Y0012393D01*
X0003403Y0012069D01*
X0003521Y0011747D01*
X0003646Y0011428D01*
X0003779Y0011113D01*
X0003920Y0010800D01*
X0004068Y0010492D01*
X0004223Y0010186D01*
X0004386Y0009885D01*
X0004556Y0009588D01*
X0004733Y0009295D01*
X0004918Y0009006D01*
X0005109Y0008722D01*
X0005307Y0008442D01*
X0005511Y0008168D01*
X0005723Y0007898D01*
X0005940Y0007634D01*
X0006164Y0007375D01*
X0006395Y0007121D01*
X0006631Y0006873D01*
X0006873Y0006631D01*
X0007121Y0006395D01*
X0007375Y0006164D01*
X0007634Y0005940D01*
X0007898Y0005723D01*
X0008168Y0005511D01*
X0008442Y0005307D01*
X0008722Y0005109D01*
X0009006Y0004918D01*
X0009295Y0004733D01*
X0009588Y0004556D01*
X0009885Y0004386D01*
X0010186Y0004223D01*
X0010492Y0004068D01*
X0010800Y0003920D01*
X0011113Y0003779D01*
X0011428Y0003646D01*
X0011747Y0003521D01*
X0012069Y0003403D01*
X0012393Y0003294D01*
X0012720Y0003192D01*
X0013050Y0003098D01*
X0013381Y0003012D01*
X0013715Y0002934D01*
X0014050Y0002864D01*
X0014387Y0002802D01*
X0014725Y0002749D01*
X0015065Y0002703D01*
X0015405Y0002666D01*
X0015746Y0002637D01*
X0016088Y0002617D01*
X0016431Y0002604D01*
X0016773Y0002600D01*
D11*
X0010867Y0016773D02*
X0010869Y0016926D01*
X0010875Y0017080D01*
X0010885Y0017233D01*
X0010899Y0017385D01*
X0010917Y0017538D01*
X0010939Y0017689D01*
X0010964Y0017840D01*
X0010994Y0017991D01*
X0011028Y0018141D01*
X0011065Y0018289D01*
X0011106Y0018437D01*
X0011151Y0018583D01*
X0011200Y0018729D01*
X0011253Y0018873D01*
X0011309Y0019015D01*
X0011369Y0019156D01*
X0011433Y0019296D01*
X0011500Y0019434D01*
X0011571Y0019570D01*
X0011646Y0019704D01*
X0011723Y0019836D01*
X0011805Y0019966D01*
X0011889Y0020094D01*
X0011977Y0020220D01*
X0012068Y0020343D01*
X0012162Y0020464D01*
X0012260Y0020582D01*
X0012360Y0020698D01*
X0012464Y0020811D01*
X0012570Y0020922D01*
X0012679Y0021030D01*
X0012791Y0021135D01*
X0012905Y0021236D01*
X0013023Y0021335D01*
X0013142Y0021431D01*
X0013264Y0021524D01*
X0013389Y0021613D01*
X0013516Y0021700D01*
X0013645Y0021782D01*
X0013776Y0021862D01*
X0013909Y0021938D01*
X0014044Y0022011D01*
X0014181Y0022080D01*
X0014320Y0022145D01*
X0014460Y0022207D01*
X0014602Y0022265D01*
X0014745Y0022320D01*
X0014890Y0022371D01*
X0015036Y0022418D01*
X0015183Y0022461D01*
X0015331Y0022500D01*
X0015480Y0022536D01*
X0015630Y0022567D01*
X0015781Y0022595D01*
X0015932Y0022619D01*
X0016085Y0022639D01*
X0016237Y0022655D01*
X0016390Y0022667D01*
X0016543Y0022675D01*
X0016696Y0022679D01*
X0016850Y0022679D01*
X0017003Y0022675D01*
X0017156Y0022667D01*
X0017309Y0022655D01*
X0017461Y0022639D01*
X0017614Y0022619D01*
X0017765Y0022595D01*
X0017916Y0022567D01*
X0018066Y0022536D01*
X0018215Y0022500D01*
X0018363Y0022461D01*
X0018510Y0022418D01*
X0018656Y0022371D01*
X0018801Y0022320D01*
X0018944Y0022265D01*
X0019086Y0022207D01*
X0019226Y0022145D01*
X0019365Y0022080D01*
X0019502Y0022011D01*
X0019637Y0021938D01*
X0019770Y0021862D01*
X0019901Y0021782D01*
X0020030Y0021700D01*
X0020157Y0021613D01*
X0020282Y0021524D01*
X0020404Y0021431D01*
X0020523Y0021335D01*
X0020641Y0021236D01*
X0020755Y0021135D01*
X0020867Y0021030D01*
X0020976Y0020922D01*
X0021082Y0020811D01*
X0021186Y0020698D01*
X0021286Y0020582D01*
X0021384Y0020464D01*
X0021478Y0020343D01*
X0021569Y0020220D01*
X0021657Y0020094D01*
X0021741Y0019966D01*
X0021823Y0019836D01*
X0021900Y0019704D01*
X0021975Y0019570D01*
X0022046Y0019434D01*
X0022113Y0019296D01*
X0022177Y0019156D01*
X0022237Y0019015D01*
X0022293Y0018873D01*
X0022346Y0018729D01*
X0022395Y0018583D01*
X0022440Y0018437D01*
X0022481Y0018289D01*
X0022518Y0018141D01*
X0022552Y0017991D01*
X0022582Y0017840D01*
X0022607Y0017689D01*
X0022629Y0017538D01*
X0022647Y0017385D01*
X0022661Y0017233D01*
X0022671Y0017080D01*
X0022677Y0016926D01*
X0022679Y0016773D01*
X0022677Y0016620D01*
X0022671Y0016466D01*
X0022661Y0016313D01*
X0022647Y0016161D01*
X0022629Y0016008D01*
X0022607Y0015857D01*
X0022582Y0015706D01*
X0022552Y0015555D01*
X0022518Y0015405D01*
X0022481Y0015257D01*
X0022440Y0015109D01*
X0022395Y0014963D01*
X0022346Y0014817D01*
X0022293Y0014673D01*
X0022237Y0014531D01*
X0022177Y0014390D01*
X0022113Y0014250D01*
X0022046Y0014112D01*
X0021975Y0013976D01*
X0021900Y0013842D01*
X0021823Y0013710D01*
X0021741Y0013580D01*
X0021657Y0013452D01*
X0021569Y0013326D01*
X0021478Y0013203D01*
X0021384Y0013082D01*
X0021286Y0012964D01*
X0021186Y0012848D01*
X0021082Y0012735D01*
X0020976Y0012624D01*
X0020867Y0012516D01*
X0020755Y0012411D01*
X0020641Y0012310D01*
X0020523Y0012211D01*
X0020404Y0012115D01*
X0020282Y0012022D01*
X0020157Y0011933D01*
X0020030Y0011846D01*
X0019901Y0011764D01*
X0019770Y0011684D01*
X0019637Y0011608D01*
X0019502Y0011535D01*
X0019365Y0011466D01*
X0019226Y0011401D01*
X0019086Y0011339D01*
X0018944Y0011281D01*
X0018801Y0011226D01*
X0018656Y0011175D01*
X0018510Y0011128D01*
X0018363Y0011085D01*
X0018215Y0011046D01*
X0018066Y0011010D01*
X0017916Y0010979D01*
X0017765Y0010951D01*
X0017614Y0010927D01*
X0017461Y0010907D01*
X0017309Y0010891D01*
X0017156Y0010879D01*
X0017003Y0010871D01*
X0016850Y0010867D01*
X0016696Y0010867D01*
X0016543Y0010871D01*
X0016390Y0010879D01*
X0016237Y0010891D01*
X0016085Y0010907D01*
X0015932Y0010927D01*
X0015781Y0010951D01*
X0015630Y0010979D01*
X0015480Y0011010D01*
X0015331Y0011046D01*
X0015183Y0011085D01*
X0015036Y0011128D01*
X0014890Y0011175D01*
X0014745Y0011226D01*
X0014602Y0011281D01*
X0014460Y0011339D01*
X0014320Y0011401D01*
X0014181Y0011466D01*
X0014044Y0011535D01*
X0013909Y0011608D01*
X0013776Y0011684D01*
X0013645Y0011764D01*
X0013516Y0011846D01*
X0013389Y0011933D01*
X0013264Y0012022D01*
X0013142Y0012115D01*
X0013023Y0012211D01*
X0012905Y0012310D01*
X0012791Y0012411D01*
X0012679Y0012516D01*
X0012570Y0012624D01*
X0012464Y0012735D01*
X0012360Y0012848D01*
X0012260Y0012964D01*
X0012162Y0013082D01*
X0012068Y0013203D01*
X0011977Y0013326D01*
X0011889Y0013452D01*
X0011805Y0013580D01*
X0011723Y0013710D01*
X0011646Y0013842D01*
X0011571Y0013976D01*
X0011500Y0014112D01*
X0011433Y0014250D01*
X0011369Y0014390D01*
X0011309Y0014531D01*
X0011253Y0014673D01*
X0011200Y0014817D01*
X0011151Y0014963D01*
X0011106Y0015109D01*
X0011065Y0015257D01*
X0011028Y0015405D01*
X0010994Y0015555D01*
X0010964Y0015706D01*
X0010939Y0015857D01*
X0010917Y0016008D01*
X0010899Y0016161D01*
X0010885Y0016313D01*
X0010875Y0016466D01*
X0010869Y0016620D01*
X0010867Y0016773D01*
X0036065Y0016065D02*
X0036065Y0026694D01*
X0036065Y0016065D02*
X0065592Y0016065D01*
X0069135Y0019608D01*
X0069135Y0026694D01*
X0080553Y0022305D02*
X0080553Y0002600D01*
X0180553Y0002305D01*
X0180553Y0022600D01*
X0238426Y0016773D02*
X0238428Y0016926D01*
X0238434Y0017080D01*
X0238444Y0017233D01*
X0238458Y0017385D01*
X0238476Y0017538D01*
X0238498Y0017689D01*
X0238523Y0017840D01*
X0238553Y0017991D01*
X0238587Y0018141D01*
X0238624Y0018289D01*
X0238665Y0018437D01*
X0238710Y0018583D01*
X0238759Y0018729D01*
X0238812Y0018873D01*
X0238868Y0019015D01*
X0238928Y0019156D01*
X0238992Y0019296D01*
X0239059Y0019434D01*
X0239130Y0019570D01*
X0239205Y0019704D01*
X0239282Y0019836D01*
X0239364Y0019966D01*
X0239448Y0020094D01*
X0239536Y0020220D01*
X0239627Y0020343D01*
X0239721Y0020464D01*
X0239819Y0020582D01*
X0239919Y0020698D01*
X0240023Y0020811D01*
X0240129Y0020922D01*
X0240238Y0021030D01*
X0240350Y0021135D01*
X0240464Y0021236D01*
X0240582Y0021335D01*
X0240701Y0021431D01*
X0240823Y0021524D01*
X0240948Y0021613D01*
X0241075Y0021700D01*
X0241204Y0021782D01*
X0241335Y0021862D01*
X0241468Y0021938D01*
X0241603Y0022011D01*
X0241740Y0022080D01*
X0241879Y0022145D01*
X0242019Y0022207D01*
X0242161Y0022265D01*
X0242304Y0022320D01*
X0242449Y0022371D01*
X0242595Y0022418D01*
X0242742Y0022461D01*
X0242890Y0022500D01*
X0243039Y0022536D01*
X0243189Y0022567D01*
X0243340Y0022595D01*
X0243491Y0022619D01*
X0243644Y0022639D01*
X0243796Y0022655D01*
X0243949Y0022667D01*
X0244102Y0022675D01*
X0244255Y0022679D01*
X0244409Y0022679D01*
X0244562Y0022675D01*
X0244715Y0022667D01*
X0244868Y0022655D01*
X0245020Y0022639D01*
X0245173Y0022619D01*
X0245324Y0022595D01*
X0245475Y0022567D01*
X0245625Y0022536D01*
X0245774Y0022500D01*
X0245922Y0022461D01*
X0246069Y0022418D01*
X0246215Y0022371D01*
X0246360Y0022320D01*
X0246503Y0022265D01*
X0246645Y0022207D01*
X0246785Y0022145D01*
X0246924Y0022080D01*
X0247061Y0022011D01*
X0247196Y0021938D01*
X0247329Y0021862D01*
X0247460Y0021782D01*
X0247589Y0021700D01*
X0247716Y0021613D01*
X0247841Y0021524D01*
X0247963Y0021431D01*
X0248082Y0021335D01*
X0248200Y0021236D01*
X0248314Y0021135D01*
X0248426Y0021030D01*
X0248535Y0020922D01*
X0248641Y0020811D01*
X0248745Y0020698D01*
X0248845Y0020582D01*
X0248943Y0020464D01*
X0249037Y0020343D01*
X0249128Y0020220D01*
X0249216Y0020094D01*
X0249300Y0019966D01*
X0249382Y0019836D01*
X0249459Y0019704D01*
X0249534Y0019570D01*
X0249605Y0019434D01*
X0249672Y0019296D01*
X0249736Y0019156D01*
X0249796Y0019015D01*
X0249852Y0018873D01*
X0249905Y0018729D01*
X0249954Y0018583D01*
X0249999Y0018437D01*
X0250040Y0018289D01*
X0250077Y0018141D01*
X0250111Y0017991D01*
X0250141Y0017840D01*
X0250166Y0017689D01*
X0250188Y0017538D01*
X0250206Y0017385D01*
X0250220Y0017233D01*
X0250230Y0017080D01*
X0250236Y0016926D01*
X0250238Y0016773D01*
X0250236Y0016620D01*
X0250230Y0016466D01*
X0250220Y0016313D01*
X0250206Y0016161D01*
X0250188Y0016008D01*
X0250166Y0015857D01*
X0250141Y0015706D01*
X0250111Y0015555D01*
X0250077Y0015405D01*
X0250040Y0015257D01*
X0249999Y0015109D01*
X0249954Y0014963D01*
X0249905Y0014817D01*
X0249852Y0014673D01*
X0249796Y0014531D01*
X0249736Y0014390D01*
X0249672Y0014250D01*
X0249605Y0014112D01*
X0249534Y0013976D01*
X0249459Y0013842D01*
X0249382Y0013710D01*
X0249300Y0013580D01*
X0249216Y0013452D01*
X0249128Y0013326D01*
X0249037Y0013203D01*
X0248943Y0013082D01*
X0248845Y0012964D01*
X0248745Y0012848D01*
X0248641Y0012735D01*
X0248535Y0012624D01*
X0248426Y0012516D01*
X0248314Y0012411D01*
X0248200Y0012310D01*
X0248082Y0012211D01*
X0247963Y0012115D01*
X0247841Y0012022D01*
X0247716Y0011933D01*
X0247589Y0011846D01*
X0247460Y0011764D01*
X0247329Y0011684D01*
X0247196Y0011608D01*
X0247061Y0011535D01*
X0246924Y0011466D01*
X0246785Y0011401D01*
X0246645Y0011339D01*
X0246503Y0011281D01*
X0246360Y0011226D01*
X0246215Y0011175D01*
X0246069Y0011128D01*
X0245922Y0011085D01*
X0245774Y0011046D01*
X0245625Y0011010D01*
X0245475Y0010979D01*
X0245324Y0010951D01*
X0245173Y0010927D01*
X0245020Y0010907D01*
X0244868Y0010891D01*
X0244715Y0010879D01*
X0244562Y0010871D01*
X0244409Y0010867D01*
X0244255Y0010867D01*
X0244102Y0010871D01*
X0243949Y0010879D01*
X0243796Y0010891D01*
X0243644Y0010907D01*
X0243491Y0010927D01*
X0243340Y0010951D01*
X0243189Y0010979D01*
X0243039Y0011010D01*
X0242890Y0011046D01*
X0242742Y0011085D01*
X0242595Y0011128D01*
X0242449Y0011175D01*
X0242304Y0011226D01*
X0242161Y0011281D01*
X0242019Y0011339D01*
X0241879Y0011401D01*
X0241740Y0011466D01*
X0241603Y0011535D01*
X0241468Y0011608D01*
X0241335Y0011684D01*
X0241204Y0011764D01*
X0241075Y0011846D01*
X0240948Y0011933D01*
X0240823Y0012022D01*
X0240701Y0012115D01*
X0240582Y0012211D01*
X0240464Y0012310D01*
X0240350Y0012411D01*
X0240238Y0012516D01*
X0240129Y0012624D01*
X0240023Y0012735D01*
X0239919Y0012848D01*
X0239819Y0012964D01*
X0239721Y0013082D01*
X0239627Y0013203D01*
X0239536Y0013326D01*
X0239448Y0013452D01*
X0239364Y0013580D01*
X0239282Y0013710D01*
X0239205Y0013842D01*
X0239130Y0013976D01*
X0239059Y0014112D01*
X0238992Y0014250D01*
X0238928Y0014390D01*
X0238868Y0014531D01*
X0238812Y0014673D01*
X0238759Y0014817D01*
X0238710Y0014963D01*
X0238665Y0015109D01*
X0238624Y0015257D01*
X0238587Y0015405D01*
X0238553Y0015555D01*
X0238523Y0015706D01*
X0238498Y0015857D01*
X0238476Y0016008D01*
X0238458Y0016161D01*
X0238444Y0016313D01*
X0238434Y0016466D01*
X0238428Y0016620D01*
X0238426Y0016773D01*
X0234396Y0150500D02*
X0231327Y0150500D01*
X0229792Y0152035D01*
X0235931Y0158173D01*
X0235931Y0152035D01*
X0234396Y0150500D01*
X0229792Y0152035D02*
X0229792Y0158173D01*
X0231327Y0159708D01*
X0234396Y0159708D01*
X0235931Y0158173D01*
X0226723Y0159708D02*
X0223653Y0158173D01*
X0220584Y0155104D01*
X0225188Y0155104D01*
X0226723Y0153569D01*
X0226723Y0152035D01*
X0225188Y0150500D01*
X0222119Y0150500D01*
X0220584Y0152035D01*
X0220584Y0155104D01*
X0217515Y0156639D02*
X0215980Y0155104D01*
X0217515Y0153569D01*
X0217515Y0152035D01*
X0215980Y0150500D01*
X0212911Y0150500D01*
X0211376Y0152035D01*
X0208307Y0150500D02*
X0208307Y0155104D01*
X0206772Y0156639D01*
X0205238Y0155104D01*
X0205238Y0150500D01*
X0202168Y0150500D02*
X0202168Y0156639D01*
X0203703Y0156639D01*
X0205238Y0155104D01*
X0199099Y0155104D02*
X0199099Y0150500D01*
X0194495Y0150500D01*
X0192961Y0152035D01*
X0194495Y0153569D01*
X0199099Y0153569D01*
X0199099Y0155104D02*
X0197565Y0156639D01*
X0194495Y0156639D01*
X0189891Y0156639D02*
X0185287Y0156639D01*
X0183753Y0155104D01*
X0183753Y0152035D01*
X0185287Y0150500D01*
X0189891Y0150500D01*
X0180683Y0150500D02*
X0177614Y0150500D01*
X0179149Y0150500D02*
X0179149Y0156639D01*
X0177614Y0156639D01*
X0179149Y0159708D02*
X0179149Y0161243D01*
X0174545Y0158173D02*
X0174545Y0155104D01*
X0173010Y0153569D01*
X0168406Y0153569D01*
X0168406Y0150500D02*
X0168406Y0159708D01*
X0173010Y0159708D01*
X0174545Y0158173D01*
X0194608Y0176065D02*
X0191065Y0179608D01*
X0191065Y0186694D01*
X0194608Y0176065D02*
X0224135Y0176065D01*
X0224135Y0186694D01*
X0224135Y0198506D02*
X0224135Y0209135D01*
X0194608Y0209135D01*
X0191065Y0205592D01*
X0191065Y0198506D01*
X0180553Y0203368D02*
X0180553Y0223072D01*
X0080553Y0223368D01*
X0080553Y0203072D01*
X0010867Y0208899D02*
X0010869Y0209052D01*
X0010875Y0209206D01*
X0010885Y0209359D01*
X0010899Y0209511D01*
X0010917Y0209664D01*
X0010939Y0209815D01*
X0010964Y0209966D01*
X0010994Y0210117D01*
X0011028Y0210267D01*
X0011065Y0210415D01*
X0011106Y0210563D01*
X0011151Y0210709D01*
X0011200Y0210855D01*
X0011253Y0210999D01*
X0011309Y0211141D01*
X0011369Y0211282D01*
X0011433Y0211422D01*
X0011500Y0211560D01*
X0011571Y0211696D01*
X0011646Y0211830D01*
X0011723Y0211962D01*
X0011805Y0212092D01*
X0011889Y0212220D01*
X0011977Y0212346D01*
X0012068Y0212469D01*
X0012162Y0212590D01*
X0012260Y0212708D01*
X0012360Y0212824D01*
X0012464Y0212937D01*
X0012570Y0213048D01*
X0012679Y0213156D01*
X0012791Y0213261D01*
X0012905Y0213362D01*
X0013023Y0213461D01*
X0013142Y0213557D01*
X0013264Y0213650D01*
X0013389Y0213739D01*
X0013516Y0213826D01*
X0013645Y0213908D01*
X0013776Y0213988D01*
X0013909Y0214064D01*
X0014044Y0214137D01*
X0014181Y0214206D01*
X0014320Y0214271D01*
X0014460Y0214333D01*
X0014602Y0214391D01*
X0014745Y0214446D01*
X0014890Y0214497D01*
X0015036Y0214544D01*
X0015183Y0214587D01*
X0015331Y0214626D01*
X0015480Y0214662D01*
X0015630Y0214693D01*
X0015781Y0214721D01*
X0015932Y0214745D01*
X0016085Y0214765D01*
X0016237Y0214781D01*
X0016390Y0214793D01*
X0016543Y0214801D01*
X0016696Y0214805D01*
X0016850Y0214805D01*
X0017003Y0214801D01*
X0017156Y0214793D01*
X0017309Y0214781D01*
X0017461Y0214765D01*
X0017614Y0214745D01*
X0017765Y0214721D01*
X0017916Y0214693D01*
X0018066Y0214662D01*
X0018215Y0214626D01*
X0018363Y0214587D01*
X0018510Y0214544D01*
X0018656Y0214497D01*
X0018801Y0214446D01*
X0018944Y0214391D01*
X0019086Y0214333D01*
X0019226Y0214271D01*
X0019365Y0214206D01*
X0019502Y0214137D01*
X0019637Y0214064D01*
X0019770Y0213988D01*
X0019901Y0213908D01*
X0020030Y0213826D01*
X0020157Y0213739D01*
X0020282Y0213650D01*
X0020404Y0213557D01*
X0020523Y0213461D01*
X0020641Y0213362D01*
X0020755Y0213261D01*
X0020867Y0213156D01*
X0020976Y0213048D01*
X0021082Y0212937D01*
X0021186Y0212824D01*
X0021286Y0212708D01*
X0021384Y0212590D01*
X0021478Y0212469D01*
X0021569Y0212346D01*
X0021657Y0212220D01*
X0021741Y0212092D01*
X0021823Y0211962D01*
X0021900Y0211830D01*
X0021975Y0211696D01*
X0022046Y0211560D01*
X0022113Y0211422D01*
X0022177Y0211282D01*
X0022237Y0211141D01*
X0022293Y0210999D01*
X0022346Y0210855D01*
X0022395Y0210709D01*
X0022440Y0210563D01*
X0022481Y0210415D01*
X0022518Y0210267D01*
X0022552Y0210117D01*
X0022582Y0209966D01*
X0022607Y0209815D01*
X0022629Y0209664D01*
X0022647Y0209511D01*
X0022661Y0209359D01*
X0022671Y0209206D01*
X0022677Y0209052D01*
X0022679Y0208899D01*
X0022677Y0208746D01*
X0022671Y0208592D01*
X0022661Y0208439D01*
X0022647Y0208287D01*
X0022629Y0208134D01*
X0022607Y0207983D01*
X0022582Y0207832D01*
X0022552Y0207681D01*
X0022518Y0207531D01*
X0022481Y0207383D01*
X0022440Y0207235D01*
X0022395Y0207089D01*
X0022346Y0206943D01*
X0022293Y0206799D01*
X0022237Y0206657D01*
X0022177Y0206516D01*
X0022113Y0206376D01*
X0022046Y0206238D01*
X0021975Y0206102D01*
X0021900Y0205968D01*
X0021823Y0205836D01*
X0021741Y0205706D01*
X0021657Y0205578D01*
X0021569Y0205452D01*
X0021478Y0205329D01*
X0021384Y0205208D01*
X0021286Y0205090D01*
X0021186Y0204974D01*
X0021082Y0204861D01*
X0020976Y0204750D01*
X0020867Y0204642D01*
X0020755Y0204537D01*
X0020641Y0204436D01*
X0020523Y0204337D01*
X0020404Y0204241D01*
X0020282Y0204148D01*
X0020157Y0204059D01*
X0020030Y0203972D01*
X0019901Y0203890D01*
X0019770Y0203810D01*
X0019637Y0203734D01*
X0019502Y0203661D01*
X0019365Y0203592D01*
X0019226Y0203527D01*
X0019086Y0203465D01*
X0018944Y0203407D01*
X0018801Y0203352D01*
X0018656Y0203301D01*
X0018510Y0203254D01*
X0018363Y0203211D01*
X0018215Y0203172D01*
X0018066Y0203136D01*
X0017916Y0203105D01*
X0017765Y0203077D01*
X0017614Y0203053D01*
X0017461Y0203033D01*
X0017309Y0203017D01*
X0017156Y0203005D01*
X0017003Y0202997D01*
X0016850Y0202993D01*
X0016696Y0202993D01*
X0016543Y0202997D01*
X0016390Y0203005D01*
X0016237Y0203017D01*
X0016085Y0203033D01*
X0015932Y0203053D01*
X0015781Y0203077D01*
X0015630Y0203105D01*
X0015480Y0203136D01*
X0015331Y0203172D01*
X0015183Y0203211D01*
X0015036Y0203254D01*
X0014890Y0203301D01*
X0014745Y0203352D01*
X0014602Y0203407D01*
X0014460Y0203465D01*
X0014320Y0203527D01*
X0014181Y0203592D01*
X0014044Y0203661D01*
X0013909Y0203734D01*
X0013776Y0203810D01*
X0013645Y0203890D01*
X0013516Y0203972D01*
X0013389Y0204059D01*
X0013264Y0204148D01*
X0013142Y0204241D01*
X0013023Y0204337D01*
X0012905Y0204436D01*
X0012791Y0204537D01*
X0012679Y0204642D01*
X0012570Y0204750D01*
X0012464Y0204861D01*
X0012360Y0204974D01*
X0012260Y0205090D01*
X0012162Y0205208D01*
X0012068Y0205329D01*
X0011977Y0205452D01*
X0011889Y0205578D01*
X0011805Y0205706D01*
X0011723Y0205836D01*
X0011646Y0205968D01*
X0011571Y0206102D01*
X0011500Y0206238D01*
X0011433Y0206376D01*
X0011369Y0206516D01*
X0011309Y0206657D01*
X0011253Y0206799D01*
X0011200Y0206943D01*
X0011151Y0207089D01*
X0011106Y0207235D01*
X0011065Y0207383D01*
X0011028Y0207531D01*
X0010994Y0207681D01*
X0010964Y0207832D01*
X0010939Y0207983D01*
X0010917Y0208134D01*
X0010899Y0208287D01*
X0010885Y0208439D01*
X0010875Y0208592D01*
X0010869Y0208746D01*
X0010867Y0208899D01*
X0036065Y0049135D02*
X0065592Y0049135D01*
X0069135Y0045592D01*
X0069135Y0038506D01*
X0066970Y0038112D02*
X0066832Y0038460D01*
X0066685Y0038804D01*
X0066530Y0039145D01*
X0066367Y0039482D01*
X0066195Y0039815D01*
X0066015Y0040144D01*
X0065828Y0040468D01*
X0065633Y0040788D01*
X0065429Y0041102D01*
X0065219Y0041412D01*
X0065001Y0041716D01*
X0064775Y0042015D01*
X0064542Y0042309D01*
X0064303Y0042597D01*
X0064056Y0042878D01*
X0063802Y0043154D01*
X0063542Y0043423D01*
X0063276Y0043687D01*
X0063003Y0043943D01*
X0062724Y0044193D01*
X0062439Y0044436D01*
X0062148Y0044672D01*
X0061851Y0044900D01*
X0061549Y0045122D01*
X0061242Y0045336D01*
X0060929Y0045542D01*
X0060612Y0045741D01*
X0060290Y0045932D01*
X0059963Y0046115D01*
X0059632Y0046291D01*
X0059297Y0046458D01*
X0058958Y0046616D01*
X0058615Y0046767D01*
X0058268Y0046909D01*
X0057919Y0047043D01*
X0057566Y0047168D01*
X0057210Y0047284D01*
X0056851Y0047392D01*
X0056490Y0047491D01*
X0056126Y0047582D01*
X0055761Y0047663D01*
X0055393Y0047735D01*
X0055024Y0047799D01*
X0054654Y0047853D01*
X0054282Y0047899D01*
X0053909Y0047935D01*
X0053536Y0047963D01*
X0053162Y0047981D01*
X0052787Y0047990D01*
X0052413Y0047990D01*
X0052038Y0047981D01*
X0051664Y0047963D01*
X0051291Y0047935D01*
X0050918Y0047899D01*
X0050546Y0047853D01*
X0050176Y0047799D01*
X0049807Y0047735D01*
X0049439Y0047663D01*
X0049074Y0047582D01*
X0048710Y0047491D01*
X0048349Y0047392D01*
X0047990Y0047284D01*
X0047634Y0047168D01*
X0047281Y0047043D01*
X0046932Y0046909D01*
X0046585Y0046767D01*
X0046242Y0046616D01*
X0045903Y0046458D01*
X0045568Y0046291D01*
X0045237Y0046115D01*
X0044910Y0045932D01*
X0044588Y0045741D01*
X0044271Y0045542D01*
X0043958Y0045336D01*
X0043651Y0045122D01*
X0043349Y0044900D01*
X0043052Y0044672D01*
X0042761Y0044436D01*
X0042476Y0044193D01*
X0042197Y0043943D01*
X0041924Y0043687D01*
X0041658Y0043423D01*
X0041398Y0043154D01*
X0041144Y0042878D01*
X0040897Y0042597D01*
X0040658Y0042309D01*
X0040425Y0042015D01*
X0040199Y0041716D01*
X0039981Y0041412D01*
X0039771Y0041102D01*
X0039567Y0040788D01*
X0039372Y0040468D01*
X0039185Y0040144D01*
X0039005Y0039815D01*
X0038833Y0039482D01*
X0038670Y0039145D01*
X0038515Y0038804D01*
X0038368Y0038460D01*
X0038230Y0038112D01*
X0036065Y0038506D02*
X0036065Y0049135D01*
X0038230Y0027088D02*
X0038368Y0026740D01*
X0038515Y0026396D01*
X0038670Y0026055D01*
X0038833Y0025718D01*
X0039005Y0025385D01*
X0039185Y0025056D01*
X0039372Y0024732D01*
X0039567Y0024412D01*
X0039771Y0024098D01*
X0039981Y0023788D01*
X0040199Y0023484D01*
X0040425Y0023185D01*
X0040658Y0022891D01*
X0040897Y0022603D01*
X0041144Y0022322D01*
X0041398Y0022046D01*
X0041658Y0021777D01*
X0041924Y0021513D01*
X0042197Y0021257D01*
X0042476Y0021007D01*
X0042761Y0020764D01*
X0043052Y0020528D01*
X0043349Y0020300D01*
X0043651Y0020078D01*
X0043958Y0019864D01*
X0044271Y0019658D01*
X0044588Y0019459D01*
X0044910Y0019268D01*
X0045237Y0019085D01*
X0045568Y0018909D01*
X0045903Y0018742D01*
X0046242Y0018584D01*
X0046585Y0018433D01*
X0046932Y0018291D01*
X0047281Y0018157D01*
X0047634Y0018032D01*
X0047990Y0017916D01*
X0048349Y0017808D01*
X0048710Y0017709D01*
X0049074Y0017618D01*
X0049439Y0017537D01*
X0049807Y0017465D01*
X0050176Y0017401D01*
X0050546Y0017347D01*
X0050918Y0017301D01*
X0051291Y0017265D01*
X0051664Y0017237D01*
X0052038Y0017219D01*
X0052413Y0017210D01*
X0052787Y0017210D01*
X0053162Y0017219D01*
X0053536Y0017237D01*
X0053909Y0017265D01*
X0054282Y0017301D01*
X0054654Y0017347D01*
X0055024Y0017401D01*
X0055393Y0017465D01*
X0055761Y0017537D01*
X0056126Y0017618D01*
X0056490Y0017709D01*
X0056851Y0017808D01*
X0057210Y0017916D01*
X0057566Y0018032D01*
X0057919Y0018157D01*
X0058268Y0018291D01*
X0058615Y0018433D01*
X0058958Y0018584D01*
X0059297Y0018742D01*
X0059632Y0018909D01*
X0059963Y0019085D01*
X0060290Y0019268D01*
X0060612Y0019459D01*
X0060929Y0019658D01*
X0061242Y0019864D01*
X0061549Y0020078D01*
X0061851Y0020300D01*
X0062148Y0020528D01*
X0062439Y0020764D01*
X0062724Y0021007D01*
X0063003Y0021257D01*
X0063276Y0021513D01*
X0063542Y0021777D01*
X0063802Y0022046D01*
X0064056Y0022322D01*
X0064303Y0022603D01*
X0064542Y0022891D01*
X0064775Y0023185D01*
X0065001Y0023484D01*
X0065219Y0023788D01*
X0065429Y0024098D01*
X0065633Y0024412D01*
X0065828Y0024732D01*
X0066015Y0025056D01*
X0066195Y0025385D01*
X0066367Y0025718D01*
X0066530Y0026055D01*
X0066685Y0026396D01*
X0066832Y0026740D01*
X0066970Y0027088D01*
X0214446Y0155104D02*
X0215980Y0155104D01*
X0217515Y0156639D02*
X0217515Y0158173D01*
X0215980Y0159708D01*
X0212911Y0159708D01*
X0211376Y0158173D01*
X0221970Y0198112D02*
X0221832Y0198460D01*
X0221685Y0198804D01*
X0221530Y0199145D01*
X0221367Y0199482D01*
X0221195Y0199815D01*
X0221015Y0200144D01*
X0220828Y0200468D01*
X0220633Y0200788D01*
X0220429Y0201102D01*
X0220219Y0201412D01*
X0220001Y0201716D01*
X0219775Y0202015D01*
X0219542Y0202309D01*
X0219303Y0202597D01*
X0219056Y0202878D01*
X0218802Y0203154D01*
X0218542Y0203423D01*
X0218276Y0203687D01*
X0218003Y0203943D01*
X0217724Y0204193D01*
X0217439Y0204436D01*
X0217148Y0204672D01*
X0216851Y0204900D01*
X0216549Y0205122D01*
X0216242Y0205336D01*
X0215929Y0205542D01*
X0215612Y0205741D01*
X0215290Y0205932D01*
X0214963Y0206115D01*
X0214632Y0206291D01*
X0214297Y0206458D01*
X0213958Y0206616D01*
X0213615Y0206767D01*
X0213268Y0206909D01*
X0212919Y0207043D01*
X0212566Y0207168D01*
X0212210Y0207284D01*
X0211851Y0207392D01*
X0211490Y0207491D01*
X0211126Y0207582D01*
X0210761Y0207663D01*
X0210393Y0207735D01*
X0210024Y0207799D01*
X0209654Y0207853D01*
X0209282Y0207899D01*
X0208909Y0207935D01*
X0208536Y0207963D01*
X0208162Y0207981D01*
X0207787Y0207990D01*
X0207413Y0207990D01*
X0207038Y0207981D01*
X0206664Y0207963D01*
X0206291Y0207935D01*
X0205918Y0207899D01*
X0205546Y0207853D01*
X0205176Y0207799D01*
X0204807Y0207735D01*
X0204439Y0207663D01*
X0204074Y0207582D01*
X0203710Y0207491D01*
X0203349Y0207392D01*
X0202990Y0207284D01*
X0202634Y0207168D01*
X0202281Y0207043D01*
X0201932Y0206909D01*
X0201585Y0206767D01*
X0201242Y0206616D01*
X0200903Y0206458D01*
X0200568Y0206291D01*
X0200237Y0206115D01*
X0199910Y0205932D01*
X0199588Y0205741D01*
X0199271Y0205542D01*
X0198958Y0205336D01*
X0198651Y0205122D01*
X0198349Y0204900D01*
X0198052Y0204672D01*
X0197761Y0204436D01*
X0197476Y0204193D01*
X0197197Y0203943D01*
X0196924Y0203687D01*
X0196658Y0203423D01*
X0196398Y0203154D01*
X0196144Y0202878D01*
X0195897Y0202597D01*
X0195658Y0202309D01*
X0195425Y0202015D01*
X0195199Y0201716D01*
X0194981Y0201412D01*
X0194771Y0201102D01*
X0194567Y0200788D01*
X0194372Y0200468D01*
X0194185Y0200144D01*
X0194005Y0199815D01*
X0193833Y0199482D01*
X0193670Y0199145D01*
X0193515Y0198804D01*
X0193368Y0198460D01*
X0193230Y0198112D01*
X0193230Y0187088D02*
X0193368Y0186740D01*
X0193515Y0186396D01*
X0193670Y0186055D01*
X0193833Y0185718D01*
X0194005Y0185385D01*
X0194185Y0185056D01*
X0194372Y0184732D01*
X0194567Y0184412D01*
X0194771Y0184098D01*
X0194981Y0183788D01*
X0195199Y0183484D01*
X0195425Y0183185D01*
X0195658Y0182891D01*
X0195897Y0182603D01*
X0196144Y0182322D01*
X0196398Y0182046D01*
X0196658Y0181777D01*
X0196924Y0181513D01*
X0197197Y0181257D01*
X0197476Y0181007D01*
X0197761Y0180764D01*
X0198052Y0180528D01*
X0198349Y0180300D01*
X0198651Y0180078D01*
X0198958Y0179864D01*
X0199271Y0179658D01*
X0199588Y0179459D01*
X0199910Y0179268D01*
X0200237Y0179085D01*
X0200568Y0178909D01*
X0200903Y0178742D01*
X0201242Y0178584D01*
X0201585Y0178433D01*
X0201932Y0178291D01*
X0202281Y0178157D01*
X0202634Y0178032D01*
X0202990Y0177916D01*
X0203349Y0177808D01*
X0203710Y0177709D01*
X0204074Y0177618D01*
X0204439Y0177537D01*
X0204807Y0177465D01*
X0205176Y0177401D01*
X0205546Y0177347D01*
X0205918Y0177301D01*
X0206291Y0177265D01*
X0206664Y0177237D01*
X0207038Y0177219D01*
X0207413Y0177210D01*
X0207787Y0177210D01*
X0208162Y0177219D01*
X0208536Y0177237D01*
X0208909Y0177265D01*
X0209282Y0177301D01*
X0209654Y0177347D01*
X0210024Y0177401D01*
X0210393Y0177465D01*
X0210761Y0177537D01*
X0211126Y0177618D01*
X0211490Y0177709D01*
X0211851Y0177808D01*
X0212210Y0177916D01*
X0212566Y0178032D01*
X0212919Y0178157D01*
X0213268Y0178291D01*
X0213615Y0178433D01*
X0213958Y0178584D01*
X0214297Y0178742D01*
X0214632Y0178909D01*
X0214963Y0179085D01*
X0215290Y0179268D01*
X0215612Y0179459D01*
X0215929Y0179658D01*
X0216242Y0179864D01*
X0216549Y0180078D01*
X0216851Y0180300D01*
X0217148Y0180528D01*
X0217439Y0180764D01*
X0217724Y0181007D01*
X0218003Y0181257D01*
X0218276Y0181513D01*
X0218542Y0181777D01*
X0218802Y0182046D01*
X0219056Y0182322D01*
X0219303Y0182603D01*
X0219542Y0182891D01*
X0219775Y0183185D01*
X0220001Y0183484D01*
X0220219Y0183788D01*
X0220429Y0184098D01*
X0220633Y0184412D01*
X0220828Y0184732D01*
X0221015Y0185056D01*
X0221195Y0185385D01*
X0221367Y0185718D01*
X0221530Y0186055D01*
X0221685Y0186396D01*
X0221832Y0186740D01*
X0221970Y0187088D01*
X0238426Y0208899D02*
X0238428Y0209052D01*
X0238434Y0209206D01*
X0238444Y0209359D01*
X0238458Y0209511D01*
X0238476Y0209664D01*
X0238498Y0209815D01*
X0238523Y0209966D01*
X0238553Y0210117D01*
X0238587Y0210267D01*
X0238624Y0210415D01*
X0238665Y0210563D01*
X0238710Y0210709D01*
X0238759Y0210855D01*
X0238812Y0210999D01*
X0238868Y0211141D01*
X0238928Y0211282D01*
X0238992Y0211422D01*
X0239059Y0211560D01*
X0239130Y0211696D01*
X0239205Y0211830D01*
X0239282Y0211962D01*
X0239364Y0212092D01*
X0239448Y0212220D01*
X0239536Y0212346D01*
X0239627Y0212469D01*
X0239721Y0212590D01*
X0239819Y0212708D01*
X0239919Y0212824D01*
X0240023Y0212937D01*
X0240129Y0213048D01*
X0240238Y0213156D01*
X0240350Y0213261D01*
X0240464Y0213362D01*
X0240582Y0213461D01*
X0240701Y0213557D01*
X0240823Y0213650D01*
X0240948Y0213739D01*
X0241075Y0213826D01*
X0241204Y0213908D01*
X0241335Y0213988D01*
X0241468Y0214064D01*
X0241603Y0214137D01*
X0241740Y0214206D01*
X0241879Y0214271D01*
X0242019Y0214333D01*
X0242161Y0214391D01*
X0242304Y0214446D01*
X0242449Y0214497D01*
X0242595Y0214544D01*
X0242742Y0214587D01*
X0242890Y0214626D01*
X0243039Y0214662D01*
X0243189Y0214693D01*
X0243340Y0214721D01*
X0243491Y0214745D01*
X0243644Y0214765D01*
X0243796Y0214781D01*
X0243949Y0214793D01*
X0244102Y0214801D01*
X0244255Y0214805D01*
X0244409Y0214805D01*
X0244562Y0214801D01*
X0244715Y0214793D01*
X0244868Y0214781D01*
X0245020Y0214765D01*
X0245173Y0214745D01*
X0245324Y0214721D01*
X0245475Y0214693D01*
X0245625Y0214662D01*
X0245774Y0214626D01*
X0245922Y0214587D01*
X0246069Y0214544D01*
X0246215Y0214497D01*
X0246360Y0214446D01*
X0246503Y0214391D01*
X0246645Y0214333D01*
X0246785Y0214271D01*
X0246924Y0214206D01*
X0247061Y0214137D01*
X0247196Y0214064D01*
X0247329Y0213988D01*
X0247460Y0213908D01*
X0247589Y0213826D01*
X0247716Y0213739D01*
X0247841Y0213650D01*
X0247963Y0213557D01*
X0248082Y0213461D01*
X0248200Y0213362D01*
X0248314Y0213261D01*
X0248426Y0213156D01*
X0248535Y0213048D01*
X0248641Y0212937D01*
X0248745Y0212824D01*
X0248845Y0212708D01*
X0248943Y0212590D01*
X0249037Y0212469D01*
X0249128Y0212346D01*
X0249216Y0212220D01*
X0249300Y0212092D01*
X0249382Y0211962D01*
X0249459Y0211830D01*
X0249534Y0211696D01*
X0249605Y0211560D01*
X0249672Y0211422D01*
X0249736Y0211282D01*
X0249796Y0211141D01*
X0249852Y0210999D01*
X0249905Y0210855D01*
X0249954Y0210709D01*
X0249999Y0210563D01*
X0250040Y0210415D01*
X0250077Y0210267D01*
X0250111Y0210117D01*
X0250141Y0209966D01*
X0250166Y0209815D01*
X0250188Y0209664D01*
X0250206Y0209511D01*
X0250220Y0209359D01*
X0250230Y0209206D01*
X0250236Y0209052D01*
X0250238Y0208899D01*
X0250236Y0208746D01*
X0250230Y0208592D01*
X0250220Y0208439D01*
X0250206Y0208287D01*
X0250188Y0208134D01*
X0250166Y0207983D01*
X0250141Y0207832D01*
X0250111Y0207681D01*
X0250077Y0207531D01*
X0250040Y0207383D01*
X0249999Y0207235D01*
X0249954Y0207089D01*
X0249905Y0206943D01*
X0249852Y0206799D01*
X0249796Y0206657D01*
X0249736Y0206516D01*
X0249672Y0206376D01*
X0249605Y0206238D01*
X0249534Y0206102D01*
X0249459Y0205968D01*
X0249382Y0205836D01*
X0249300Y0205706D01*
X0249216Y0205578D01*
X0249128Y0205452D01*
X0249037Y0205329D01*
X0248943Y0205208D01*
X0248845Y0205090D01*
X0248745Y0204974D01*
X0248641Y0204861D01*
X0248535Y0204750D01*
X0248426Y0204642D01*
X0248314Y0204537D01*
X0248200Y0204436D01*
X0248082Y0204337D01*
X0247963Y0204241D01*
X0247841Y0204148D01*
X0247716Y0204059D01*
X0247589Y0203972D01*
X0247460Y0203890D01*
X0247329Y0203810D01*
X0247196Y0203734D01*
X0247061Y0203661D01*
X0246924Y0203592D01*
X0246785Y0203527D01*
X0246645Y0203465D01*
X0246503Y0203407D01*
X0246360Y0203352D01*
X0246215Y0203301D01*
X0246069Y0203254D01*
X0245922Y0203211D01*
X0245774Y0203172D01*
X0245625Y0203136D01*
X0245475Y0203105D01*
X0245324Y0203077D01*
X0245173Y0203053D01*
X0245020Y0203033D01*
X0244868Y0203017D01*
X0244715Y0203005D01*
X0244562Y0202997D01*
X0244409Y0202993D01*
X0244255Y0202993D01*
X0244102Y0202997D01*
X0243949Y0203005D01*
X0243796Y0203017D01*
X0243644Y0203033D01*
X0243491Y0203053D01*
X0243340Y0203077D01*
X0243189Y0203105D01*
X0243039Y0203136D01*
X0242890Y0203172D01*
X0242742Y0203211D01*
X0242595Y0203254D01*
X0242449Y0203301D01*
X0242304Y0203352D01*
X0242161Y0203407D01*
X0242019Y0203465D01*
X0241879Y0203527D01*
X0241740Y0203592D01*
X0241603Y0203661D01*
X0241468Y0203734D01*
X0241335Y0203810D01*
X0241204Y0203890D01*
X0241075Y0203972D01*
X0240948Y0204059D01*
X0240823Y0204148D01*
X0240701Y0204241D01*
X0240582Y0204337D01*
X0240464Y0204436D01*
X0240350Y0204537D01*
X0240238Y0204642D01*
X0240129Y0204750D01*
X0240023Y0204861D01*
X0239919Y0204974D01*
X0239819Y0205090D01*
X0239721Y0205208D01*
X0239627Y0205329D01*
X0239536Y0205452D01*
X0239448Y0205578D01*
X0239364Y0205706D01*
X0239282Y0205836D01*
X0239205Y0205968D01*
X0239130Y0206102D01*
X0239059Y0206238D01*
X0238992Y0206376D01*
X0238928Y0206516D01*
X0238868Y0206657D01*
X0238812Y0206799D01*
X0238759Y0206943D01*
X0238710Y0207089D01*
X0238665Y0207235D01*
X0238624Y0207383D01*
X0238587Y0207531D01*
X0238553Y0207681D01*
X0238523Y0207832D01*
X0238498Y0207983D01*
X0238476Y0208134D01*
X0238458Y0208287D01*
X0238444Y0208439D01*
X0238434Y0208592D01*
X0238428Y0208746D01*
X0238426Y0208899D01*
D12*
X0190009Y0148973D02*
X0190009Y0147955D01*
X0190009Y0145920D02*
X0190009Y0141850D01*
X0188992Y0141850D02*
X0191027Y0141850D01*
X0195078Y0141850D02*
X0197113Y0145920D01*
X0199120Y0144903D02*
X0199120Y0142868D01*
X0200138Y0141850D01*
X0202173Y0141850D01*
X0203190Y0143885D02*
X0199120Y0143885D01*
X0199120Y0144903D02*
X0200138Y0145920D01*
X0202173Y0145920D01*
X0203190Y0144903D01*
X0203190Y0143885D01*
X0205197Y0143885D02*
X0207232Y0145920D01*
X0208250Y0145920D01*
X0205197Y0145920D02*
X0205197Y0141850D01*
X0195078Y0141850D02*
X0193043Y0145920D01*
X0190009Y0145920D02*
X0188992Y0145920D01*
X0186980Y0145920D02*
X0185962Y0145920D01*
X0183927Y0143885D01*
X0183927Y0141850D02*
X0183927Y0145920D01*
X0181920Y0146938D02*
X0181920Y0142868D01*
X0180903Y0141850D01*
X0177850Y0141850D01*
X0177850Y0147955D01*
X0180903Y0147955D01*
X0181920Y0146938D01*
X0216339Y0147955D02*
X0216339Y0141850D01*
X0219391Y0141850D01*
X0220409Y0142868D01*
X0220409Y0143885D01*
X0219391Y0144903D01*
X0216339Y0144903D01*
X0216339Y0147955D02*
X0219391Y0147955D01*
X0220409Y0146938D01*
X0220409Y0145920D01*
X0219391Y0144903D01*
X0222416Y0144903D02*
X0222416Y0142868D01*
X0223434Y0141850D01*
X0225469Y0141850D01*
X0226486Y0142868D01*
X0226486Y0144903D01*
X0225469Y0145920D01*
X0223434Y0145920D01*
X0222416Y0144903D01*
X0228493Y0142868D02*
X0229511Y0141850D01*
X0232563Y0141850D01*
X0232563Y0144903D01*
X0231546Y0145920D01*
X0229511Y0145920D01*
X0229511Y0143885D02*
X0232563Y0143885D01*
X0234570Y0143885D02*
X0236605Y0145920D01*
X0237623Y0145920D01*
X0239635Y0144903D02*
X0240652Y0145920D01*
X0243705Y0145920D01*
X0243705Y0147955D02*
X0243705Y0141850D01*
X0240652Y0141850D01*
X0239635Y0142868D01*
X0239635Y0144903D01*
X0234570Y0145920D02*
X0234570Y0141850D01*
X0229511Y0143885D02*
X0228493Y0142868D01*
X0230159Y0121104D02*
X0230159Y0120710D01*
X0233309Y0117561D01*
X0233309Y0120710D01*
X0232915Y0121104D01*
X0230159Y0121104D01*
X0230159Y0120747D02*
X0233272Y0120747D01*
X0233309Y0120249D02*
X0230621Y0120249D01*
X0231119Y0119750D02*
X0233309Y0119750D01*
X0233309Y0119252D02*
X0231618Y0119252D01*
X0232167Y0119529D02*
X0232167Y0106143D01*
X0206104Y0106143D01*
X0206104Y0119529D01*
X0232167Y0119529D01*
X0232116Y0118753D02*
X0233309Y0118753D01*
X0233309Y0118255D02*
X0232615Y0118255D01*
X0233113Y0117756D02*
X0233309Y0117756D01*
X0200100Y0085100D02*
X0185100Y0085100D01*
X0185100Y0083100D01*
X0184313Y0087600D02*
X0184315Y0087656D01*
X0184321Y0087711D01*
X0184331Y0087765D01*
X0184344Y0087819D01*
X0184362Y0087872D01*
X0184383Y0087923D01*
X0184407Y0087973D01*
X0184435Y0088021D01*
X0184467Y0088067D01*
X0184501Y0088111D01*
X0184539Y0088152D01*
X0184579Y0088190D01*
X0184622Y0088225D01*
X0184667Y0088257D01*
X0184715Y0088286D01*
X0184764Y0088312D01*
X0184815Y0088334D01*
X0184867Y0088352D01*
X0184921Y0088366D01*
X0184976Y0088377D01*
X0185031Y0088384D01*
X0185086Y0088387D01*
X0185142Y0088386D01*
X0185197Y0088381D01*
X0185252Y0088372D01*
X0185306Y0088360D01*
X0185359Y0088343D01*
X0185411Y0088323D01*
X0185461Y0088299D01*
X0185509Y0088272D01*
X0185556Y0088242D01*
X0185600Y0088208D01*
X0185642Y0088171D01*
X0185680Y0088131D01*
X0185717Y0088089D01*
X0185750Y0088044D01*
X0185779Y0087998D01*
X0185806Y0087949D01*
X0185828Y0087898D01*
X0185848Y0087846D01*
X0185863Y0087792D01*
X0185875Y0087738D01*
X0185883Y0087683D01*
X0185887Y0087628D01*
X0185887Y0087572D01*
X0185883Y0087517D01*
X0185875Y0087462D01*
X0185863Y0087408D01*
X0185848Y0087354D01*
X0185828Y0087302D01*
X0185806Y0087251D01*
X0185779Y0087202D01*
X0185750Y0087156D01*
X0185717Y0087111D01*
X0185680Y0087069D01*
X0185642Y0087029D01*
X0185600Y0086992D01*
X0185556Y0086958D01*
X0185509Y0086928D01*
X0185461Y0086901D01*
X0185411Y0086877D01*
X0185359Y0086857D01*
X0185306Y0086840D01*
X0185252Y0086828D01*
X0185197Y0086819D01*
X0185142Y0086814D01*
X0185086Y0086813D01*
X0185031Y0086816D01*
X0184976Y0086823D01*
X0184921Y0086834D01*
X0184867Y0086848D01*
X0184815Y0086866D01*
X0184764Y0086888D01*
X0184715Y0086914D01*
X0184667Y0086943D01*
X0184622Y0086975D01*
X0184579Y0087010D01*
X0184539Y0087048D01*
X0184501Y0087089D01*
X0184467Y0087133D01*
X0184435Y0087179D01*
X0184407Y0087227D01*
X0184383Y0087277D01*
X0184362Y0087328D01*
X0184344Y0087381D01*
X0184331Y0087435D01*
X0184321Y0087489D01*
X0184315Y0087544D01*
X0184313Y0087600D01*
X0200100Y0085100D02*
X0200100Y0083100D01*
X0200100Y0072100D02*
X0200100Y0070100D01*
X0185100Y0070100D01*
X0185100Y0072100D01*
X0154175Y0022600D02*
X0106931Y0022600D01*
X0055002Y0106143D02*
X0028939Y0106143D01*
X0028939Y0119529D01*
X0055002Y0119529D01*
X0055002Y0106143D01*
X0056143Y0117561D02*
X0052994Y0120710D01*
X0052994Y0121104D01*
X0055750Y0121104D01*
X0056143Y0120710D01*
X0056143Y0117561D01*
X0056143Y0117756D02*
X0055948Y0117756D01*
X0056143Y0118255D02*
X0055449Y0118255D01*
X0054951Y0118753D02*
X0056143Y0118753D01*
X0056143Y0119252D02*
X0054452Y0119252D01*
X0053954Y0119750D02*
X0056143Y0119750D01*
X0056143Y0120249D02*
X0053455Y0120249D01*
X0052994Y0120747D02*
X0056106Y0120747D01*
X0040572Y0191458D02*
X0079943Y0191458D01*
X0079943Y0223348D01*
X0040572Y0223348D01*
X0040572Y0191458D01*
X0106931Y0203072D02*
X0154175Y0203072D01*
D13*
X0149472Y0206772D02*
X0148271Y0207973D01*
X0148871Y0207973D02*
X0147070Y0207973D01*
X0147070Y0206772D02*
X0147070Y0210376D01*
X0148871Y0210376D01*
X0149472Y0209775D01*
X0149472Y0208574D01*
X0148871Y0207973D01*
X0145789Y0206772D02*
X0145789Y0210376D01*
X0143386Y0210376D02*
X0143386Y0206772D01*
X0144587Y0207973D01*
X0145789Y0206772D01*
X0142105Y0208574D02*
X0141505Y0207973D01*
X0139703Y0207973D01*
X0139703Y0206772D02*
X0139703Y0210376D01*
X0141505Y0210376D01*
X0142105Y0209775D01*
X0142105Y0208574D01*
X0133871Y0199352D02*
X0132670Y0199352D01*
X0132070Y0198751D01*
X0130788Y0198751D02*
X0130188Y0199352D01*
X0128987Y0199352D01*
X0128386Y0198751D01*
X0128386Y0196349D01*
X0128987Y0195749D01*
X0130188Y0195749D01*
X0130788Y0196349D01*
X0132070Y0195749D02*
X0134472Y0198151D01*
X0134472Y0198751D01*
X0133871Y0199352D01*
X0134472Y0195749D02*
X0132070Y0195749D01*
X0127105Y0196349D02*
X0126505Y0195749D01*
X0125304Y0195749D01*
X0124703Y0196349D01*
X0125304Y0197550D02*
X0126505Y0197550D01*
X0127105Y0196950D01*
X0127105Y0196349D01*
X0125304Y0197550D02*
X0124703Y0198151D01*
X0124703Y0198751D01*
X0125304Y0199352D01*
X0126505Y0199352D01*
X0127105Y0198751D01*
X0123422Y0199352D02*
X0121020Y0199352D01*
X0121020Y0195749D01*
X0123422Y0195749D01*
X0122221Y0197550D02*
X0121020Y0197550D01*
X0118871Y0206772D02*
X0117070Y0206772D01*
X0117070Y0210376D01*
X0118871Y0210376D01*
X0119472Y0209775D01*
X0119472Y0207373D01*
X0118871Y0206772D01*
X0115789Y0206772D02*
X0115789Y0210376D01*
X0113386Y0210376D02*
X0115789Y0206772D01*
X0113386Y0206772D02*
X0113386Y0210376D01*
X0112105Y0209775D02*
X0111505Y0210376D01*
X0110304Y0210376D01*
X0109703Y0209775D01*
X0109703Y0207373D01*
X0110304Y0206772D01*
X0111505Y0206772D01*
X0112105Y0207373D01*
X0112105Y0208574D01*
X0110904Y0208574D01*
X0064226Y0222246D02*
X0061157Y0222246D01*
X0062691Y0222246D02*
X0062691Y0217643D01*
X0059622Y0217643D02*
X0059622Y0222246D01*
X0056553Y0222246D02*
X0059622Y0217643D01*
X0056553Y0217643D02*
X0056553Y0222246D01*
X0055018Y0221479D02*
X0054251Y0222246D01*
X0052716Y0222246D01*
X0051949Y0221479D01*
X0051949Y0218410D01*
X0052716Y0217643D01*
X0054251Y0217643D01*
X0055018Y0218410D01*
X0055018Y0221479D01*
X0050414Y0221479D02*
X0050414Y0219944D01*
X0049647Y0219177D01*
X0047345Y0219177D01*
X0047345Y0217643D02*
X0047345Y0222246D01*
X0049647Y0222246D01*
X0050414Y0221479D01*
X0048880Y0219177D02*
X0050414Y0217643D01*
X0045810Y0222246D02*
X0042741Y0222246D01*
X0042741Y0217643D01*
X0042741Y0219944D02*
X0044276Y0219944D01*
X0043770Y0189504D02*
X0043770Y0186035D01*
X0042035Y0184300D01*
X0040300Y0186035D01*
X0040300Y0189504D01*
X0045456Y0188637D02*
X0045456Y0185167D01*
X0046324Y0184300D01*
X0048059Y0184300D01*
X0048926Y0185167D01*
X0050613Y0185167D02*
X0051480Y0184300D01*
X0053215Y0184300D01*
X0054082Y0185167D01*
X0050613Y0185167D02*
X0050613Y0188637D01*
X0051480Y0189504D01*
X0053215Y0189504D01*
X0054082Y0188637D01*
X0048926Y0188637D02*
X0048059Y0189504D01*
X0046324Y0189504D01*
X0045456Y0188637D01*
X0044735Y0104372D02*
X0042934Y0104372D01*
X0042934Y0100769D01*
X0044735Y0100769D01*
X0045336Y0101369D01*
X0045336Y0103771D01*
X0044735Y0104372D01*
X0046617Y0103171D02*
X0047818Y0104372D01*
X0047818Y0100769D01*
X0046617Y0100769D02*
X0049019Y0100769D01*
X0041653Y0100769D02*
X0039251Y0100769D01*
X0039251Y0104372D01*
X0041653Y0104372D01*
X0040452Y0102570D02*
X0039251Y0102570D01*
X0037969Y0100769D02*
X0035567Y0100769D01*
X0035567Y0104372D01*
X0123253Y0029927D02*
X0123253Y0026324D01*
X0125655Y0026324D01*
X0126936Y0026924D02*
X0127536Y0026324D01*
X0128737Y0026324D01*
X0129338Y0026924D01*
X0129338Y0027525D01*
X0128737Y0028125D01*
X0127536Y0028125D01*
X0126936Y0028726D01*
X0126936Y0029326D01*
X0127536Y0029927D01*
X0128737Y0029927D01*
X0129338Y0029326D01*
X0130619Y0029326D02*
X0130619Y0026924D01*
X0131220Y0026324D01*
X0132421Y0026324D01*
X0133021Y0026924D01*
X0134302Y0026324D02*
X0136704Y0026324D01*
X0135503Y0026324D02*
X0135503Y0029927D01*
X0134302Y0028726D01*
X0133021Y0029326D02*
X0132421Y0029927D01*
X0131220Y0029927D01*
X0130619Y0029326D01*
X0125655Y0029927D02*
X0123253Y0029927D01*
X0123253Y0028125D02*
X0124454Y0028125D01*
X0119921Y0018903D02*
X0120521Y0018303D01*
X0120521Y0017102D01*
X0119921Y0016501D01*
X0118119Y0016501D01*
X0118119Y0015300D02*
X0118119Y0018903D01*
X0119921Y0018903D01*
X0119320Y0016501D02*
X0120521Y0015300D01*
X0116838Y0015300D02*
X0116838Y0018903D01*
X0114436Y0018903D02*
X0114436Y0015300D01*
X0115637Y0016501D01*
X0116838Y0015300D01*
X0113155Y0017102D02*
X0112554Y0016501D01*
X0110753Y0016501D01*
X0110753Y0015300D02*
X0110753Y0018903D01*
X0112554Y0018903D01*
X0113155Y0018303D01*
X0113155Y0017102D01*
X0140753Y0018303D02*
X0140753Y0015901D01*
X0141353Y0015300D01*
X0142554Y0015300D01*
X0143155Y0015901D01*
X0143155Y0017102D01*
X0141954Y0017102D01*
X0143155Y0018303D02*
X0142554Y0018903D01*
X0141353Y0018903D01*
X0140753Y0018303D01*
X0144436Y0018903D02*
X0144436Y0015300D01*
X0146838Y0015300D02*
X0146838Y0018903D01*
X0148119Y0018903D02*
X0149921Y0018903D01*
X0150521Y0018303D01*
X0150521Y0015901D01*
X0149921Y0015300D01*
X0148119Y0015300D01*
X0148119Y0018903D01*
X0144436Y0018903D02*
X0146838Y0015300D01*
X0214551Y0007201D02*
X0215151Y0006600D01*
X0215752Y0006600D01*
X0216352Y0007201D01*
X0216352Y0010203D01*
X0215752Y0010203D02*
X0216953Y0010203D01*
X0218234Y0010203D02*
X0220035Y0010203D01*
X0220636Y0009603D01*
X0220636Y0008402D01*
X0220035Y0007801D01*
X0218234Y0007801D01*
X0218234Y0006600D02*
X0218234Y0010203D01*
X0221917Y0009002D02*
X0223118Y0010203D01*
X0223118Y0006600D01*
X0221917Y0006600D02*
X0224319Y0006600D01*
X0232173Y0063135D02*
X0231573Y0063735D01*
X0231573Y0064936D01*
X0232173Y0065537D01*
X0234575Y0065537D01*
X0235176Y0064936D01*
X0235176Y0063735D01*
X0234575Y0063135D01*
X0232173Y0063135D01*
X0233975Y0064336D02*
X0235176Y0065537D01*
X0235176Y0066818D02*
X0235176Y0069220D01*
X0235176Y0068019D02*
X0231573Y0068019D01*
X0232774Y0066818D01*
X0208900Y0076034D02*
X0208900Y0077235D01*
X0208299Y0077836D01*
X0205297Y0077836D01*
X0206498Y0079117D02*
X0205297Y0080318D01*
X0208900Y0080318D01*
X0208900Y0079117D02*
X0208900Y0081519D01*
X0208900Y0076034D02*
X0208299Y0075434D01*
X0205297Y0075434D01*
X0212733Y0100769D02*
X0215135Y0100769D01*
X0216416Y0100769D02*
X0218818Y0100769D01*
X0220099Y0100769D02*
X0221901Y0100769D01*
X0222501Y0101369D01*
X0222501Y0103771D01*
X0221901Y0104372D01*
X0220099Y0104372D01*
X0220099Y0100769D01*
X0217617Y0102570D02*
X0216416Y0102570D01*
X0216416Y0100769D02*
X0216416Y0104372D01*
X0218818Y0104372D01*
X0223782Y0103771D02*
X0224383Y0104372D01*
X0225584Y0104372D01*
X0226184Y0103771D01*
X0226184Y0103171D01*
X0223782Y0100769D01*
X0226184Y0100769D01*
X0212733Y0100769D02*
X0212733Y0104372D01*
X0207052Y0134300D02*
X0203582Y0134300D01*
X0207052Y0137770D01*
X0207052Y0138637D01*
X0206184Y0139504D01*
X0204449Y0139504D01*
X0203582Y0138637D01*
X0199317Y0138637D02*
X0195847Y0135167D01*
X0196715Y0134300D01*
X0198450Y0134300D01*
X0199317Y0135167D01*
X0199317Y0138637D01*
X0198450Y0139504D01*
X0196715Y0139504D01*
X0195847Y0138637D01*
X0195847Y0135167D01*
X0194137Y0135167D02*
X0194137Y0134300D01*
X0193269Y0134300D01*
X0193269Y0135167D01*
X0194137Y0135167D01*
X0191582Y0137770D02*
X0189848Y0134300D01*
X0188113Y0137770D01*
X0186426Y0136902D02*
X0186426Y0136035D01*
X0182956Y0136035D01*
X0182956Y0136902D02*
X0183824Y0137770D01*
X0185559Y0137770D01*
X0186426Y0136902D01*
X0185559Y0134300D02*
X0183824Y0134300D01*
X0182956Y0135167D01*
X0182956Y0136902D01*
X0181270Y0136902D02*
X0181270Y0138637D01*
X0180402Y0139504D01*
X0177800Y0139504D01*
X0177800Y0134300D01*
X0177800Y0136035D02*
X0180402Y0136035D01*
X0181270Y0136902D01*
X0179535Y0136035D02*
X0181270Y0134300D01*
X0201004Y0134300D02*
X0201871Y0134300D01*
X0201871Y0135167D01*
X0201004Y0135167D01*
X0201004Y0134300D01*
D14*
X0173399Y0118622D02*
X0173148Y0119031D01*
X0172848Y0119407D01*
X0172506Y0119744D01*
X0172124Y0120037D01*
X0171710Y0120281D01*
X0171269Y0120473D01*
X0170808Y0120609D01*
X0170334Y0120689D01*
X0169923Y0120710D01*
X0157324Y0120709D01*
X0157324Y0135671D01*
X0157295Y0136150D01*
X0157207Y0136623D01*
X0157063Y0137082D01*
X0156863Y0137519D01*
X0156612Y0137929D01*
X0156313Y0138305D01*
X0155970Y0138642D01*
X0155589Y0138935D01*
X0155175Y0139179D01*
X0154734Y0139370D01*
X0154273Y0139507D01*
X0153799Y0139586D01*
X0153387Y0139608D01*
X0107512Y0139602D01*
X0107035Y0139548D01*
X0106567Y0139436D01*
X0106117Y0139267D01*
X0105691Y0139046D01*
X0105294Y0138773D01*
X0104934Y0138455D01*
X0104616Y0138094D01*
X0104343Y0137698D01*
X0104122Y0137272D01*
X0103953Y0136822D01*
X0103841Y0136354D01*
X0103787Y0135877D01*
X0103781Y0135671D01*
X0103783Y0120706D01*
X0090977Y0120705D01*
X0090499Y0120650D01*
X0090031Y0120538D01*
X0089581Y0120370D01*
X0089155Y0120148D01*
X0088759Y0119876D01*
X0088399Y0119557D01*
X0088080Y0119197D01*
X0087808Y0118801D01*
X0087586Y0118374D01*
X0087418Y0117924D01*
X0087306Y0117457D01*
X0087251Y0116979D01*
X0087246Y0116773D01*
X0087251Y0108693D01*
X0087306Y0108216D01*
X0087418Y0107748D01*
X0087586Y0107298D01*
X0087808Y0106872D01*
X0088080Y0106476D01*
X0088399Y0106115D01*
X0088759Y0105797D01*
X0089155Y0105524D01*
X0089581Y0105303D01*
X0090031Y0105134D01*
X0090499Y0105022D01*
X0090977Y0104968D01*
X0091183Y0104962D01*
X0103785Y0104963D01*
X0103787Y0089796D01*
X0103841Y0089318D01*
X0103953Y0088851D01*
X0104122Y0088400D01*
X0104343Y0087974D01*
X0104616Y0087578D01*
X0104934Y0087218D01*
X0105294Y0086899D01*
X0105691Y0086627D01*
X0106117Y0086405D01*
X0106567Y0086237D01*
X0107035Y0086124D01*
X0107512Y0086070D01*
X0107718Y0086065D01*
X0153593Y0086070D01*
X0154071Y0086124D01*
X0154538Y0086237D01*
X0154989Y0086405D01*
X0155415Y0086627D01*
X0155811Y0086899D01*
X0156171Y0087218D01*
X0156490Y0087578D01*
X0156762Y0087974D01*
X0156984Y0088400D01*
X0157152Y0088851D01*
X0157265Y0089318D01*
X0157319Y0089796D01*
X0157324Y0090002D01*
X0157324Y0104967D01*
X0170129Y0104968D01*
X0170606Y0105022D01*
X0171074Y0105134D01*
X0171524Y0105303D01*
X0171950Y0105524D01*
X0172346Y0105797D01*
X0172707Y0106115D01*
X0173025Y0106476D01*
X0173298Y0106872D01*
X0173519Y0107298D01*
X0173688Y0107748D01*
X0173800Y0108216D01*
X0173854Y0108693D01*
X0173860Y0108899D01*
X0173860Y0116773D01*
X0173830Y0117253D01*
X0173743Y0117726D01*
X0173598Y0118184D01*
X0173399Y0118622D01*
X0172491Y0160480D02*
X0162443Y0160474D01*
X0162237Y0160480D01*
X0161759Y0160534D01*
X0161291Y0160646D01*
X0160841Y0160814D01*
X0160415Y0161036D01*
X0160019Y0161309D01*
X0159659Y0161627D01*
X0159340Y0161987D01*
X0159068Y0162383D01*
X0158846Y0162810D01*
X0158678Y0163260D01*
X0158565Y0163727D01*
X0158511Y0164205D01*
X0158506Y0174254D01*
X0158511Y0174459D01*
X0158565Y0174937D01*
X0158678Y0175404D01*
X0158846Y0175855D01*
X0159068Y0176281D01*
X0159340Y0176677D01*
X0159659Y0177037D01*
X0160019Y0177356D01*
X0160415Y0177628D01*
X0160841Y0177850D01*
X0161291Y0178019D01*
X0161759Y0178131D01*
X0162237Y0178185D01*
X0172285Y0178191D01*
X0172696Y0178169D01*
X0173170Y0178090D01*
X0173631Y0177953D01*
X0174072Y0177761D01*
X0174487Y0177517D01*
X0174868Y0177225D01*
X0175211Y0176888D01*
X0175510Y0176512D01*
X0175761Y0176102D01*
X0175961Y0175665D01*
X0176105Y0175206D01*
X0176193Y0174733D01*
X0176222Y0174254D01*
X0176222Y0164411D01*
X0176217Y0164205D01*
X0176162Y0163727D01*
X0176050Y0163260D01*
X0175881Y0162810D01*
X0175660Y0162383D01*
X0175387Y0161987D01*
X0175069Y0161627D01*
X0174709Y0161309D01*
X0174313Y0161036D01*
X0173886Y0160814D01*
X0173436Y0160646D01*
X0172969Y0160534D01*
X0172491Y0160480D01*
X0183747Y0167188D02*
X0184033Y0166802D01*
X0184364Y0166453D01*
X0184735Y0166147D01*
X0185140Y0165889D01*
X0185574Y0165682D01*
X0186030Y0165530D01*
X0186501Y0165433D01*
X0186706Y0165410D01*
X0187186Y0165398D01*
X0187665Y0165444D01*
X0188134Y0165548D01*
X0188587Y0165708D01*
X0189017Y0165923D01*
X0189418Y0166188D01*
X0189783Y0166500D01*
X0190108Y0166855D01*
X0190387Y0167246D01*
X0190617Y0167669D01*
X0190793Y0168116D01*
X0190913Y0168581D01*
X0190976Y0169057D01*
X0190980Y0169538D01*
X0190926Y0170016D01*
X0190814Y0170483D01*
X0190645Y0170933D01*
X0190424Y0171360D01*
X0190151Y0171756D01*
X0189833Y0172116D01*
X0189473Y0172435D01*
X0189076Y0172707D01*
X0188650Y0172929D01*
X0188200Y0173097D01*
X0187732Y0173209D01*
X0187255Y0173264D01*
X0186774Y0173259D01*
X0186298Y0173197D01*
X0185832Y0173077D01*
X0185385Y0172900D01*
X0184963Y0172671D01*
X0184571Y0172392D01*
X0184217Y0172067D01*
X0183905Y0171702D01*
X0183639Y0171301D01*
X0183425Y0170870D01*
X0183264Y0170417D01*
X0183160Y0169948D01*
X0183114Y0169470D01*
X0183127Y0168989D01*
X0183198Y0168514D01*
X0183326Y0168050D01*
X0183510Y0167606D01*
X0183747Y0167188D01*
X0077984Y0169057D02*
X0077988Y0169538D01*
X0077934Y0170016D01*
X0077822Y0170483D01*
X0077654Y0170933D01*
X0077431Y0171360D01*
X0077159Y0171756D01*
X0076841Y0172116D01*
X0076481Y0172435D01*
X0076084Y0172707D01*
X0075658Y0172929D01*
X0075208Y0173097D01*
X0074741Y0173209D01*
X0074263Y0173264D01*
X0073782Y0173259D01*
X0073306Y0173197D01*
X0072840Y0173077D01*
X0072393Y0172900D01*
X0071970Y0172671D01*
X0071579Y0172392D01*
X0071225Y0172067D01*
X0070913Y0171702D01*
X0070647Y0171301D01*
X0070433Y0170870D01*
X0070272Y0170417D01*
X0070168Y0169948D01*
X0070122Y0169470D01*
X0070135Y0168989D01*
X0070206Y0168514D01*
X0070334Y0168050D01*
X0070518Y0167606D01*
X0070755Y0167188D01*
X0071041Y0166802D01*
X0071372Y0166453D01*
X0071743Y0166147D01*
X0072148Y0165889D01*
X0072582Y0165682D01*
X0073038Y0165530D01*
X0073509Y0165433D01*
X0073714Y0165410D01*
X0074194Y0165398D01*
X0074672Y0165444D01*
X0075142Y0165548D01*
X0075595Y0165708D01*
X0076025Y0165923D01*
X0076426Y0166188D01*
X0076792Y0166500D01*
X0077117Y0166855D01*
X0077396Y0167246D01*
X0077625Y0167669D01*
X0077801Y0168116D01*
X0077921Y0168581D01*
X0077984Y0169057D01*
X0074194Y0060275D02*
X0073714Y0060262D01*
X0073509Y0060239D01*
X0073038Y0060143D01*
X0072582Y0059991D01*
X0072148Y0059783D01*
X0071743Y0059525D01*
X0071372Y0059220D01*
X0071041Y0058871D01*
X0070755Y0058484D01*
X0070518Y0058066D01*
X0070334Y0057622D01*
X0070206Y0057159D01*
X0070135Y0056683D01*
X0070122Y0056203D01*
X0070168Y0055724D01*
X0070272Y0055255D01*
X0070433Y0054802D01*
X0070647Y0054372D01*
X0070913Y0053971D01*
X0071225Y0053606D01*
X0071579Y0053281D01*
X0071970Y0053002D01*
X0072393Y0052772D01*
X0072840Y0052596D01*
X0073306Y0052476D01*
X0073782Y0052413D01*
X0074263Y0052409D01*
X0074741Y0052463D01*
X0075208Y0052575D01*
X0075658Y0052744D01*
X0076084Y0052965D01*
X0076481Y0053238D01*
X0076841Y0053556D01*
X0077159Y0053916D01*
X0077431Y0054313D01*
X0077654Y0054739D01*
X0077822Y0055189D01*
X0077934Y0055657D01*
X0077988Y0056134D01*
X0077984Y0056615D01*
X0077921Y0057091D01*
X0077801Y0057557D01*
X0077625Y0058004D01*
X0077396Y0058426D01*
X0077117Y0058818D01*
X0076792Y0059172D01*
X0076426Y0059484D01*
X0076025Y0059750D01*
X0075595Y0059964D01*
X0075142Y0060125D01*
X0074672Y0060229D01*
X0074194Y0060275D01*
X0183127Y0056683D02*
X0183114Y0056203D01*
X0183160Y0055724D01*
X0183264Y0055255D01*
X0183425Y0054802D01*
X0183639Y0054372D01*
X0183905Y0053971D01*
X0184217Y0053606D01*
X0184571Y0053281D01*
X0184963Y0053002D01*
X0185385Y0052772D01*
X0185832Y0052596D01*
X0186298Y0052476D01*
X0186774Y0052413D01*
X0187255Y0052409D01*
X0187732Y0052463D01*
X0188200Y0052575D01*
X0188650Y0052744D01*
X0189076Y0052965D01*
X0189473Y0053238D01*
X0189833Y0053556D01*
X0190151Y0053916D01*
X0190424Y0054313D01*
X0190645Y0054739D01*
X0190814Y0055189D01*
X0190926Y0055657D01*
X0190980Y0056134D01*
X0190976Y0056615D01*
X0190913Y0057091D01*
X0190793Y0057557D01*
X0190617Y0058004D01*
X0190387Y0058426D01*
X0190108Y0058818D01*
X0189783Y0059172D01*
X0189418Y0059484D01*
X0189017Y0059750D01*
X0188587Y0059964D01*
X0188134Y0060125D01*
X0187665Y0060229D01*
X0187186Y0060275D01*
X0186706Y0060262D01*
X0186501Y0060239D01*
X0186030Y0060143D01*
X0185574Y0059991D01*
X0185140Y0059783D01*
X0184735Y0059525D01*
X0184364Y0059220D01*
X0184033Y0058871D01*
X0183747Y0058484D01*
X0183510Y0058066D01*
X0183326Y0057622D01*
X0183198Y0057159D01*
X0183127Y0056683D01*
D15*
X0197884Y0056250D02*
X0197884Y0059953D01*
X0199735Y0059953D01*
X0200352Y0059336D01*
X0200352Y0058102D01*
X0199735Y0057484D01*
X0197884Y0057484D01*
X0199118Y0057484D02*
X0200352Y0056250D01*
X0201567Y0056250D02*
X0204036Y0056250D01*
X0202801Y0056250D02*
X0202801Y0059953D01*
X0201567Y0058719D01*
X0207750Y0053953D02*
X0209602Y0053953D01*
X0210219Y0053336D01*
X0210219Y0052102D01*
X0209602Y0051484D01*
X0207750Y0051484D01*
X0207750Y0050250D02*
X0207750Y0053953D01*
X0208984Y0051484D02*
X0210219Y0050250D01*
X0211433Y0050250D02*
X0213902Y0052719D01*
X0213902Y0053336D01*
X0213285Y0053953D01*
X0212050Y0053953D01*
X0211433Y0053336D01*
X0211433Y0050250D02*
X0213902Y0050250D01*
X0213418Y0044953D02*
X0214036Y0044336D01*
X0214036Y0043719D01*
X0213418Y0043102D01*
X0214036Y0042484D01*
X0214036Y0041867D01*
X0213418Y0041250D01*
X0212184Y0041250D01*
X0211567Y0041867D01*
X0210352Y0041250D02*
X0209118Y0042484D01*
X0209735Y0042484D02*
X0207884Y0042484D01*
X0207884Y0041250D02*
X0207884Y0044953D01*
X0209735Y0044953D01*
X0210352Y0044336D01*
X0210352Y0043102D01*
X0209735Y0042484D01*
X0211567Y0044336D02*
X0212184Y0044953D01*
X0213418Y0044953D01*
X0213418Y0043102D02*
X0212801Y0043102D01*
X0165541Y0072107D02*
X0165541Y0073342D01*
X0164923Y0073959D01*
X0165541Y0075173D02*
X0165541Y0077642D01*
X0165541Y0076408D02*
X0161837Y0076408D01*
X0163072Y0075173D01*
X0162455Y0073959D02*
X0161837Y0073342D01*
X0161837Y0072107D01*
X0162455Y0071490D01*
X0164923Y0071490D01*
X0165541Y0072107D01*
X0217891Y0170915D02*
X0219125Y0170915D01*
X0219742Y0171533D01*
X0220957Y0171533D02*
X0221574Y0170915D01*
X0222808Y0170915D01*
X0223425Y0171533D01*
X0223425Y0172150D01*
X0222808Y0172767D01*
X0222191Y0172767D01*
X0222808Y0172767D02*
X0223425Y0173384D01*
X0223425Y0174001D01*
X0222808Y0174619D01*
X0221574Y0174619D01*
X0220957Y0174001D01*
X0219742Y0174001D02*
X0219125Y0174619D01*
X0217891Y0174619D01*
X0217273Y0174001D01*
X0217273Y0171533D01*
X0217891Y0170915D01*
X0042012Y0053671D02*
X0041395Y0054288D01*
X0040161Y0054288D01*
X0039543Y0053671D01*
X0038329Y0053671D02*
X0037712Y0054288D01*
X0036477Y0054288D01*
X0035860Y0053671D01*
X0035860Y0051202D01*
X0036477Y0050585D01*
X0037712Y0050585D01*
X0038329Y0051202D01*
X0039543Y0050585D02*
X0042012Y0053053D01*
X0042012Y0053671D01*
X0042012Y0050585D02*
X0039543Y0050585D01*
D16*
X0016773Y0028273D02*
X0016773Y0027273D01*
X0016773Y0006273D02*
X0016773Y0005273D01*
X0016773Y0197399D02*
X0016773Y0198399D01*
X0016773Y0219399D02*
X0016773Y0220399D01*
X0244332Y0220399D02*
X0244332Y0219399D01*
X0244332Y0198399D02*
X0244332Y0197399D01*
X0244332Y0028273D02*
X0244332Y0027273D01*
X0244332Y0006273D02*
X0244332Y0005273D01*
D17*
X0232832Y0016773D02*
X0232835Y0017055D01*
X0232846Y0017337D01*
X0232863Y0017619D01*
X0232887Y0017900D01*
X0232918Y0018181D01*
X0232956Y0018460D01*
X0233001Y0018739D01*
X0233053Y0019017D01*
X0233111Y0019293D01*
X0233177Y0019567D01*
X0233249Y0019840D01*
X0233327Y0020111D01*
X0233412Y0020380D01*
X0233504Y0020647D01*
X0233603Y0020912D01*
X0233707Y0021174D01*
X0233819Y0021433D01*
X0233936Y0021690D01*
X0234060Y0021944D01*
X0234190Y0022194D01*
X0234326Y0022441D01*
X0234468Y0022685D01*
X0234616Y0022925D01*
X0234770Y0023162D01*
X0234930Y0023395D01*
X0235095Y0023624D01*
X0235266Y0023848D01*
X0235442Y0024069D01*
X0235624Y0024284D01*
X0235811Y0024496D01*
X0236003Y0024703D01*
X0236200Y0024905D01*
X0236402Y0025102D01*
X0236609Y0025294D01*
X0236821Y0025481D01*
X0237036Y0025663D01*
X0237257Y0025839D01*
X0237481Y0026010D01*
X0237710Y0026175D01*
X0237943Y0026335D01*
X0238180Y0026489D01*
X0238420Y0026637D01*
X0238664Y0026779D01*
X0238911Y0026915D01*
X0239161Y0027045D01*
X0239415Y0027169D01*
X0239672Y0027286D01*
X0239931Y0027398D01*
X0240193Y0027502D01*
X0240458Y0027601D01*
X0240725Y0027693D01*
X0240994Y0027778D01*
X0241265Y0027856D01*
X0241538Y0027928D01*
X0241812Y0027994D01*
X0242088Y0028052D01*
X0242366Y0028104D01*
X0242645Y0028149D01*
X0242924Y0028187D01*
X0243205Y0028218D01*
X0243486Y0028242D01*
X0243768Y0028259D01*
X0244050Y0028270D01*
X0244332Y0028273D01*
X0244614Y0028270D01*
X0244896Y0028259D01*
X0245178Y0028242D01*
X0245459Y0028218D01*
X0245740Y0028187D01*
X0246019Y0028149D01*
X0246298Y0028104D01*
X0246576Y0028052D01*
X0246852Y0027994D01*
X0247126Y0027928D01*
X0247399Y0027856D01*
X0247670Y0027778D01*
X0247939Y0027693D01*
X0248206Y0027601D01*
X0248471Y0027502D01*
X0248733Y0027398D01*
X0248992Y0027286D01*
X0249249Y0027169D01*
X0249503Y0027045D01*
X0249753Y0026915D01*
X0250000Y0026779D01*
X0250244Y0026637D01*
X0250484Y0026489D01*
X0250721Y0026335D01*
X0250954Y0026175D01*
X0251183Y0026010D01*
X0251407Y0025839D01*
X0251628Y0025663D01*
X0251843Y0025481D01*
X0252055Y0025294D01*
X0252262Y0025102D01*
X0252464Y0024905D01*
X0252661Y0024703D01*
X0252853Y0024496D01*
X0253040Y0024284D01*
X0253222Y0024069D01*
X0253398Y0023848D01*
X0253569Y0023624D01*
X0253734Y0023395D01*
X0253894Y0023162D01*
X0254048Y0022925D01*
X0254196Y0022685D01*
X0254338Y0022441D01*
X0254474Y0022194D01*
X0254604Y0021944D01*
X0254728Y0021690D01*
X0254845Y0021433D01*
X0254957Y0021174D01*
X0255061Y0020912D01*
X0255160Y0020647D01*
X0255252Y0020380D01*
X0255337Y0020111D01*
X0255415Y0019840D01*
X0255487Y0019567D01*
X0255553Y0019293D01*
X0255611Y0019017D01*
X0255663Y0018739D01*
X0255708Y0018460D01*
X0255746Y0018181D01*
X0255777Y0017900D01*
X0255801Y0017619D01*
X0255818Y0017337D01*
X0255829Y0017055D01*
X0255832Y0016773D01*
X0255829Y0016491D01*
X0255818Y0016209D01*
X0255801Y0015927D01*
X0255777Y0015646D01*
X0255746Y0015365D01*
X0255708Y0015086D01*
X0255663Y0014807D01*
X0255611Y0014529D01*
X0255553Y0014253D01*
X0255487Y0013979D01*
X0255415Y0013706D01*
X0255337Y0013435D01*
X0255252Y0013166D01*
X0255160Y0012899D01*
X0255061Y0012634D01*
X0254957Y0012372D01*
X0254845Y0012113D01*
X0254728Y0011856D01*
X0254604Y0011602D01*
X0254474Y0011352D01*
X0254338Y0011105D01*
X0254196Y0010861D01*
X0254048Y0010621D01*
X0253894Y0010384D01*
X0253734Y0010151D01*
X0253569Y0009922D01*
X0253398Y0009698D01*
X0253222Y0009477D01*
X0253040Y0009262D01*
X0252853Y0009050D01*
X0252661Y0008843D01*
X0252464Y0008641D01*
X0252262Y0008444D01*
X0252055Y0008252D01*
X0251843Y0008065D01*
X0251628Y0007883D01*
X0251407Y0007707D01*
X0251183Y0007536D01*
X0250954Y0007371D01*
X0250721Y0007211D01*
X0250484Y0007057D01*
X0250244Y0006909D01*
X0250000Y0006767D01*
X0249753Y0006631D01*
X0249503Y0006501D01*
X0249249Y0006377D01*
X0248992Y0006260D01*
X0248733Y0006148D01*
X0248471Y0006044D01*
X0248206Y0005945D01*
X0247939Y0005853D01*
X0247670Y0005768D01*
X0247399Y0005690D01*
X0247126Y0005618D01*
X0246852Y0005552D01*
X0246576Y0005494D01*
X0246298Y0005442D01*
X0246019Y0005397D01*
X0245740Y0005359D01*
X0245459Y0005328D01*
X0245178Y0005304D01*
X0244896Y0005287D01*
X0244614Y0005276D01*
X0244332Y0005273D01*
X0244050Y0005276D01*
X0243768Y0005287D01*
X0243486Y0005304D01*
X0243205Y0005328D01*
X0242924Y0005359D01*
X0242645Y0005397D01*
X0242366Y0005442D01*
X0242088Y0005494D01*
X0241812Y0005552D01*
X0241538Y0005618D01*
X0241265Y0005690D01*
X0240994Y0005768D01*
X0240725Y0005853D01*
X0240458Y0005945D01*
X0240193Y0006044D01*
X0239931Y0006148D01*
X0239672Y0006260D01*
X0239415Y0006377D01*
X0239161Y0006501D01*
X0238911Y0006631D01*
X0238664Y0006767D01*
X0238420Y0006909D01*
X0238180Y0007057D01*
X0237943Y0007211D01*
X0237710Y0007371D01*
X0237481Y0007536D01*
X0237257Y0007707D01*
X0237036Y0007883D01*
X0236821Y0008065D01*
X0236609Y0008252D01*
X0236402Y0008444D01*
X0236200Y0008641D01*
X0236003Y0008843D01*
X0235811Y0009050D01*
X0235624Y0009262D01*
X0235442Y0009477D01*
X0235266Y0009698D01*
X0235095Y0009922D01*
X0234930Y0010151D01*
X0234770Y0010384D01*
X0234616Y0010621D01*
X0234468Y0010861D01*
X0234326Y0011105D01*
X0234190Y0011352D01*
X0234060Y0011602D01*
X0233936Y0011856D01*
X0233819Y0012113D01*
X0233707Y0012372D01*
X0233603Y0012634D01*
X0233504Y0012899D01*
X0233412Y0013166D01*
X0233327Y0013435D01*
X0233249Y0013706D01*
X0233177Y0013979D01*
X0233111Y0014253D01*
X0233053Y0014529D01*
X0233001Y0014807D01*
X0232956Y0015086D01*
X0232918Y0015365D01*
X0232887Y0015646D01*
X0232863Y0015927D01*
X0232846Y0016209D01*
X0232835Y0016491D01*
X0232832Y0016773D01*
X0225100Y0015100D02*
X0222600Y0012600D01*
X0217600Y0012600D01*
X0215100Y0015100D01*
X0212600Y0012600D01*
X0207600Y0012600D01*
X0205100Y0015100D01*
X0205100Y0020100D01*
X0207600Y0022600D01*
X0212600Y0022600D01*
X0215100Y0020100D01*
X0217600Y0022600D01*
X0222600Y0022600D01*
X0225100Y0020100D01*
X0225100Y0015100D01*
X0215100Y0015100D02*
X0215100Y0020100D01*
X0205100Y0020100D02*
X0202600Y0022600D01*
X0197600Y0022600D01*
X0195100Y0020100D01*
X0192600Y0022600D01*
X0187600Y0022600D01*
X0185100Y0020100D01*
X0185100Y0015100D01*
X0187600Y0012600D01*
X0192600Y0012600D01*
X0195100Y0015100D01*
X0195100Y0020100D01*
X0195100Y0015100D02*
X0197600Y0012600D01*
X0202600Y0012600D01*
X0205100Y0015100D01*
X0005273Y0016773D02*
X0005276Y0017055D01*
X0005287Y0017337D01*
X0005304Y0017619D01*
X0005328Y0017900D01*
X0005359Y0018181D01*
X0005397Y0018460D01*
X0005442Y0018739D01*
X0005494Y0019017D01*
X0005552Y0019293D01*
X0005618Y0019567D01*
X0005690Y0019840D01*
X0005768Y0020111D01*
X0005853Y0020380D01*
X0005945Y0020647D01*
X0006044Y0020912D01*
X0006148Y0021174D01*
X0006260Y0021433D01*
X0006377Y0021690D01*
X0006501Y0021944D01*
X0006631Y0022194D01*
X0006767Y0022441D01*
X0006909Y0022685D01*
X0007057Y0022925D01*
X0007211Y0023162D01*
X0007371Y0023395D01*
X0007536Y0023624D01*
X0007707Y0023848D01*
X0007883Y0024069D01*
X0008065Y0024284D01*
X0008252Y0024496D01*
X0008444Y0024703D01*
X0008641Y0024905D01*
X0008843Y0025102D01*
X0009050Y0025294D01*
X0009262Y0025481D01*
X0009477Y0025663D01*
X0009698Y0025839D01*
X0009922Y0026010D01*
X0010151Y0026175D01*
X0010384Y0026335D01*
X0010621Y0026489D01*
X0010861Y0026637D01*
X0011105Y0026779D01*
X0011352Y0026915D01*
X0011602Y0027045D01*
X0011856Y0027169D01*
X0012113Y0027286D01*
X0012372Y0027398D01*
X0012634Y0027502D01*
X0012899Y0027601D01*
X0013166Y0027693D01*
X0013435Y0027778D01*
X0013706Y0027856D01*
X0013979Y0027928D01*
X0014253Y0027994D01*
X0014529Y0028052D01*
X0014807Y0028104D01*
X0015086Y0028149D01*
X0015365Y0028187D01*
X0015646Y0028218D01*
X0015927Y0028242D01*
X0016209Y0028259D01*
X0016491Y0028270D01*
X0016773Y0028273D01*
X0017055Y0028270D01*
X0017337Y0028259D01*
X0017619Y0028242D01*
X0017900Y0028218D01*
X0018181Y0028187D01*
X0018460Y0028149D01*
X0018739Y0028104D01*
X0019017Y0028052D01*
X0019293Y0027994D01*
X0019567Y0027928D01*
X0019840Y0027856D01*
X0020111Y0027778D01*
X0020380Y0027693D01*
X0020647Y0027601D01*
X0020912Y0027502D01*
X0021174Y0027398D01*
X0021433Y0027286D01*
X0021690Y0027169D01*
X0021944Y0027045D01*
X0022194Y0026915D01*
X0022441Y0026779D01*
X0022685Y0026637D01*
X0022925Y0026489D01*
X0023162Y0026335D01*
X0023395Y0026175D01*
X0023624Y0026010D01*
X0023848Y0025839D01*
X0024069Y0025663D01*
X0024284Y0025481D01*
X0024496Y0025294D01*
X0024703Y0025102D01*
X0024905Y0024905D01*
X0025102Y0024703D01*
X0025294Y0024496D01*
X0025481Y0024284D01*
X0025663Y0024069D01*
X0025839Y0023848D01*
X0026010Y0023624D01*
X0026175Y0023395D01*
X0026335Y0023162D01*
X0026489Y0022925D01*
X0026637Y0022685D01*
X0026779Y0022441D01*
X0026915Y0022194D01*
X0027045Y0021944D01*
X0027169Y0021690D01*
X0027286Y0021433D01*
X0027398Y0021174D01*
X0027502Y0020912D01*
X0027601Y0020647D01*
X0027693Y0020380D01*
X0027778Y0020111D01*
X0027856Y0019840D01*
X0027928Y0019567D01*
X0027994Y0019293D01*
X0028052Y0019017D01*
X0028104Y0018739D01*
X0028149Y0018460D01*
X0028187Y0018181D01*
X0028218Y0017900D01*
X0028242Y0017619D01*
X0028259Y0017337D01*
X0028270Y0017055D01*
X0028273Y0016773D01*
X0028270Y0016491D01*
X0028259Y0016209D01*
X0028242Y0015927D01*
X0028218Y0015646D01*
X0028187Y0015365D01*
X0028149Y0015086D01*
X0028104Y0014807D01*
X0028052Y0014529D01*
X0027994Y0014253D01*
X0027928Y0013979D01*
X0027856Y0013706D01*
X0027778Y0013435D01*
X0027693Y0013166D01*
X0027601Y0012899D01*
X0027502Y0012634D01*
X0027398Y0012372D01*
X0027286Y0012113D01*
X0027169Y0011856D01*
X0027045Y0011602D01*
X0026915Y0011352D01*
X0026779Y0011105D01*
X0026637Y0010861D01*
X0026489Y0010621D01*
X0026335Y0010384D01*
X0026175Y0010151D01*
X0026010Y0009922D01*
X0025839Y0009698D01*
X0025663Y0009477D01*
X0025481Y0009262D01*
X0025294Y0009050D01*
X0025102Y0008843D01*
X0024905Y0008641D01*
X0024703Y0008444D01*
X0024496Y0008252D01*
X0024284Y0008065D01*
X0024069Y0007883D01*
X0023848Y0007707D01*
X0023624Y0007536D01*
X0023395Y0007371D01*
X0023162Y0007211D01*
X0022925Y0007057D01*
X0022685Y0006909D01*
X0022441Y0006767D01*
X0022194Y0006631D01*
X0021944Y0006501D01*
X0021690Y0006377D01*
X0021433Y0006260D01*
X0021174Y0006148D01*
X0020912Y0006044D01*
X0020647Y0005945D01*
X0020380Y0005853D01*
X0020111Y0005768D01*
X0019840Y0005690D01*
X0019567Y0005618D01*
X0019293Y0005552D01*
X0019017Y0005494D01*
X0018739Y0005442D01*
X0018460Y0005397D01*
X0018181Y0005359D01*
X0017900Y0005328D01*
X0017619Y0005304D01*
X0017337Y0005287D01*
X0017055Y0005276D01*
X0016773Y0005273D01*
X0016491Y0005276D01*
X0016209Y0005287D01*
X0015927Y0005304D01*
X0015646Y0005328D01*
X0015365Y0005359D01*
X0015086Y0005397D01*
X0014807Y0005442D01*
X0014529Y0005494D01*
X0014253Y0005552D01*
X0013979Y0005618D01*
X0013706Y0005690D01*
X0013435Y0005768D01*
X0013166Y0005853D01*
X0012899Y0005945D01*
X0012634Y0006044D01*
X0012372Y0006148D01*
X0012113Y0006260D01*
X0011856Y0006377D01*
X0011602Y0006501D01*
X0011352Y0006631D01*
X0011105Y0006767D01*
X0010861Y0006909D01*
X0010621Y0007057D01*
X0010384Y0007211D01*
X0010151Y0007371D01*
X0009922Y0007536D01*
X0009698Y0007707D01*
X0009477Y0007883D01*
X0009262Y0008065D01*
X0009050Y0008252D01*
X0008843Y0008444D01*
X0008641Y0008641D01*
X0008444Y0008843D01*
X0008252Y0009050D01*
X0008065Y0009262D01*
X0007883Y0009477D01*
X0007707Y0009698D01*
X0007536Y0009922D01*
X0007371Y0010151D01*
X0007211Y0010384D01*
X0007057Y0010621D01*
X0006909Y0010861D01*
X0006767Y0011105D01*
X0006631Y0011352D01*
X0006501Y0011602D01*
X0006377Y0011856D01*
X0006260Y0012113D01*
X0006148Y0012372D01*
X0006044Y0012634D01*
X0005945Y0012899D01*
X0005853Y0013166D01*
X0005768Y0013435D01*
X0005690Y0013706D01*
X0005618Y0013979D01*
X0005552Y0014253D01*
X0005494Y0014529D01*
X0005442Y0014807D01*
X0005397Y0015086D01*
X0005359Y0015365D01*
X0005328Y0015646D01*
X0005304Y0015927D01*
X0005287Y0016209D01*
X0005276Y0016491D01*
X0005273Y0016773D01*
X0005273Y0208899D02*
X0005276Y0209181D01*
X0005287Y0209463D01*
X0005304Y0209745D01*
X0005328Y0210026D01*
X0005359Y0210307D01*
X0005397Y0210586D01*
X0005442Y0210865D01*
X0005494Y0211143D01*
X0005552Y0211419D01*
X0005618Y0211693D01*
X0005690Y0211966D01*
X0005768Y0212237D01*
X0005853Y0212506D01*
X0005945Y0212773D01*
X0006044Y0213038D01*
X0006148Y0213300D01*
X0006260Y0213559D01*
X0006377Y0213816D01*
X0006501Y0214070D01*
X0006631Y0214320D01*
X0006767Y0214567D01*
X0006909Y0214811D01*
X0007057Y0215051D01*
X0007211Y0215288D01*
X0007371Y0215521D01*
X0007536Y0215750D01*
X0007707Y0215974D01*
X0007883Y0216195D01*
X0008065Y0216410D01*
X0008252Y0216622D01*
X0008444Y0216829D01*
X0008641Y0217031D01*
X0008843Y0217228D01*
X0009050Y0217420D01*
X0009262Y0217607D01*
X0009477Y0217789D01*
X0009698Y0217965D01*
X0009922Y0218136D01*
X0010151Y0218301D01*
X0010384Y0218461D01*
X0010621Y0218615D01*
X0010861Y0218763D01*
X0011105Y0218905D01*
X0011352Y0219041D01*
X0011602Y0219171D01*
X0011856Y0219295D01*
X0012113Y0219412D01*
X0012372Y0219524D01*
X0012634Y0219628D01*
X0012899Y0219727D01*
X0013166Y0219819D01*
X0013435Y0219904D01*
X0013706Y0219982D01*
X0013979Y0220054D01*
X0014253Y0220120D01*
X0014529Y0220178D01*
X0014807Y0220230D01*
X0015086Y0220275D01*
X0015365Y0220313D01*
X0015646Y0220344D01*
X0015927Y0220368D01*
X0016209Y0220385D01*
X0016491Y0220396D01*
X0016773Y0220399D01*
X0017055Y0220396D01*
X0017337Y0220385D01*
X0017619Y0220368D01*
X0017900Y0220344D01*
X0018181Y0220313D01*
X0018460Y0220275D01*
X0018739Y0220230D01*
X0019017Y0220178D01*
X0019293Y0220120D01*
X0019567Y0220054D01*
X0019840Y0219982D01*
X0020111Y0219904D01*
X0020380Y0219819D01*
X0020647Y0219727D01*
X0020912Y0219628D01*
X0021174Y0219524D01*
X0021433Y0219412D01*
X0021690Y0219295D01*
X0021944Y0219171D01*
X0022194Y0219041D01*
X0022441Y0218905D01*
X0022685Y0218763D01*
X0022925Y0218615D01*
X0023162Y0218461D01*
X0023395Y0218301D01*
X0023624Y0218136D01*
X0023848Y0217965D01*
X0024069Y0217789D01*
X0024284Y0217607D01*
X0024496Y0217420D01*
X0024703Y0217228D01*
X0024905Y0217031D01*
X0025102Y0216829D01*
X0025294Y0216622D01*
X0025481Y0216410D01*
X0025663Y0216195D01*
X0025839Y0215974D01*
X0026010Y0215750D01*
X0026175Y0215521D01*
X0026335Y0215288D01*
X0026489Y0215051D01*
X0026637Y0214811D01*
X0026779Y0214567D01*
X0026915Y0214320D01*
X0027045Y0214070D01*
X0027169Y0213816D01*
X0027286Y0213559D01*
X0027398Y0213300D01*
X0027502Y0213038D01*
X0027601Y0212773D01*
X0027693Y0212506D01*
X0027778Y0212237D01*
X0027856Y0211966D01*
X0027928Y0211693D01*
X0027994Y0211419D01*
X0028052Y0211143D01*
X0028104Y0210865D01*
X0028149Y0210586D01*
X0028187Y0210307D01*
X0028218Y0210026D01*
X0028242Y0209745D01*
X0028259Y0209463D01*
X0028270Y0209181D01*
X0028273Y0208899D01*
X0028270Y0208617D01*
X0028259Y0208335D01*
X0028242Y0208053D01*
X0028218Y0207772D01*
X0028187Y0207491D01*
X0028149Y0207212D01*
X0028104Y0206933D01*
X0028052Y0206655D01*
X0027994Y0206379D01*
X0027928Y0206105D01*
X0027856Y0205832D01*
X0027778Y0205561D01*
X0027693Y0205292D01*
X0027601Y0205025D01*
X0027502Y0204760D01*
X0027398Y0204498D01*
X0027286Y0204239D01*
X0027169Y0203982D01*
X0027045Y0203728D01*
X0026915Y0203478D01*
X0026779Y0203231D01*
X0026637Y0202987D01*
X0026489Y0202747D01*
X0026335Y0202510D01*
X0026175Y0202277D01*
X0026010Y0202048D01*
X0025839Y0201824D01*
X0025663Y0201603D01*
X0025481Y0201388D01*
X0025294Y0201176D01*
X0025102Y0200969D01*
X0024905Y0200767D01*
X0024703Y0200570D01*
X0024496Y0200378D01*
X0024284Y0200191D01*
X0024069Y0200009D01*
X0023848Y0199833D01*
X0023624Y0199662D01*
X0023395Y0199497D01*
X0023162Y0199337D01*
X0022925Y0199183D01*
X0022685Y0199035D01*
X0022441Y0198893D01*
X0022194Y0198757D01*
X0021944Y0198627D01*
X0021690Y0198503D01*
X0021433Y0198386D01*
X0021174Y0198274D01*
X0020912Y0198170D01*
X0020647Y0198071D01*
X0020380Y0197979D01*
X0020111Y0197894D01*
X0019840Y0197816D01*
X0019567Y0197744D01*
X0019293Y0197678D01*
X0019017Y0197620D01*
X0018739Y0197568D01*
X0018460Y0197523D01*
X0018181Y0197485D01*
X0017900Y0197454D01*
X0017619Y0197430D01*
X0017337Y0197413D01*
X0017055Y0197402D01*
X0016773Y0197399D01*
X0016491Y0197402D01*
X0016209Y0197413D01*
X0015927Y0197430D01*
X0015646Y0197454D01*
X0015365Y0197485D01*
X0015086Y0197523D01*
X0014807Y0197568D01*
X0014529Y0197620D01*
X0014253Y0197678D01*
X0013979Y0197744D01*
X0013706Y0197816D01*
X0013435Y0197894D01*
X0013166Y0197979D01*
X0012899Y0198071D01*
X0012634Y0198170D01*
X0012372Y0198274D01*
X0012113Y0198386D01*
X0011856Y0198503D01*
X0011602Y0198627D01*
X0011352Y0198757D01*
X0011105Y0198893D01*
X0010861Y0199035D01*
X0010621Y0199183D01*
X0010384Y0199337D01*
X0010151Y0199497D01*
X0009922Y0199662D01*
X0009698Y0199833D01*
X0009477Y0200009D01*
X0009262Y0200191D01*
X0009050Y0200378D01*
X0008843Y0200570D01*
X0008641Y0200767D01*
X0008444Y0200969D01*
X0008252Y0201176D01*
X0008065Y0201388D01*
X0007883Y0201603D01*
X0007707Y0201824D01*
X0007536Y0202048D01*
X0007371Y0202277D01*
X0007211Y0202510D01*
X0007057Y0202747D01*
X0006909Y0202987D01*
X0006767Y0203231D01*
X0006631Y0203478D01*
X0006501Y0203728D01*
X0006377Y0203982D01*
X0006260Y0204239D01*
X0006148Y0204498D01*
X0006044Y0204760D01*
X0005945Y0205025D01*
X0005853Y0205292D01*
X0005768Y0205561D01*
X0005690Y0205832D01*
X0005618Y0206105D01*
X0005552Y0206379D01*
X0005494Y0206655D01*
X0005442Y0206933D01*
X0005397Y0207212D01*
X0005359Y0207491D01*
X0005328Y0207772D01*
X0005304Y0208053D01*
X0005287Y0208335D01*
X0005276Y0208617D01*
X0005273Y0208899D01*
X0232832Y0208899D02*
X0232835Y0209181D01*
X0232846Y0209463D01*
X0232863Y0209745D01*
X0232887Y0210026D01*
X0232918Y0210307D01*
X0232956Y0210586D01*
X0233001Y0210865D01*
X0233053Y0211143D01*
X0233111Y0211419D01*
X0233177Y0211693D01*
X0233249Y0211966D01*
X0233327Y0212237D01*
X0233412Y0212506D01*
X0233504Y0212773D01*
X0233603Y0213038D01*
X0233707Y0213300D01*
X0233819Y0213559D01*
X0233936Y0213816D01*
X0234060Y0214070D01*
X0234190Y0214320D01*
X0234326Y0214567D01*
X0234468Y0214811D01*
X0234616Y0215051D01*
X0234770Y0215288D01*
X0234930Y0215521D01*
X0235095Y0215750D01*
X0235266Y0215974D01*
X0235442Y0216195D01*
X0235624Y0216410D01*
X0235811Y0216622D01*
X0236003Y0216829D01*
X0236200Y0217031D01*
X0236402Y0217228D01*
X0236609Y0217420D01*
X0236821Y0217607D01*
X0237036Y0217789D01*
X0237257Y0217965D01*
X0237481Y0218136D01*
X0237710Y0218301D01*
X0237943Y0218461D01*
X0238180Y0218615D01*
X0238420Y0218763D01*
X0238664Y0218905D01*
X0238911Y0219041D01*
X0239161Y0219171D01*
X0239415Y0219295D01*
X0239672Y0219412D01*
X0239931Y0219524D01*
X0240193Y0219628D01*
X0240458Y0219727D01*
X0240725Y0219819D01*
X0240994Y0219904D01*
X0241265Y0219982D01*
X0241538Y0220054D01*
X0241812Y0220120D01*
X0242088Y0220178D01*
X0242366Y0220230D01*
X0242645Y0220275D01*
X0242924Y0220313D01*
X0243205Y0220344D01*
X0243486Y0220368D01*
X0243768Y0220385D01*
X0244050Y0220396D01*
X0244332Y0220399D01*
X0244614Y0220396D01*
X0244896Y0220385D01*
X0245178Y0220368D01*
X0245459Y0220344D01*
X0245740Y0220313D01*
X0246019Y0220275D01*
X0246298Y0220230D01*
X0246576Y0220178D01*
X0246852Y0220120D01*
X0247126Y0220054D01*
X0247399Y0219982D01*
X0247670Y0219904D01*
X0247939Y0219819D01*
X0248206Y0219727D01*
X0248471Y0219628D01*
X0248733Y0219524D01*
X0248992Y0219412D01*
X0249249Y0219295D01*
X0249503Y0219171D01*
X0249753Y0219041D01*
X0250000Y0218905D01*
X0250244Y0218763D01*
X0250484Y0218615D01*
X0250721Y0218461D01*
X0250954Y0218301D01*
X0251183Y0218136D01*
X0251407Y0217965D01*
X0251628Y0217789D01*
X0251843Y0217607D01*
X0252055Y0217420D01*
X0252262Y0217228D01*
X0252464Y0217031D01*
X0252661Y0216829D01*
X0252853Y0216622D01*
X0253040Y0216410D01*
X0253222Y0216195D01*
X0253398Y0215974D01*
X0253569Y0215750D01*
X0253734Y0215521D01*
X0253894Y0215288D01*
X0254048Y0215051D01*
X0254196Y0214811D01*
X0254338Y0214567D01*
X0254474Y0214320D01*
X0254604Y0214070D01*
X0254728Y0213816D01*
X0254845Y0213559D01*
X0254957Y0213300D01*
X0255061Y0213038D01*
X0255160Y0212773D01*
X0255252Y0212506D01*
X0255337Y0212237D01*
X0255415Y0211966D01*
X0255487Y0211693D01*
X0255553Y0211419D01*
X0255611Y0211143D01*
X0255663Y0210865D01*
X0255708Y0210586D01*
X0255746Y0210307D01*
X0255777Y0210026D01*
X0255801Y0209745D01*
X0255818Y0209463D01*
X0255829Y0209181D01*
X0255832Y0208899D01*
X0255829Y0208617D01*
X0255818Y0208335D01*
X0255801Y0208053D01*
X0255777Y0207772D01*
X0255746Y0207491D01*
X0255708Y0207212D01*
X0255663Y0206933D01*
X0255611Y0206655D01*
X0255553Y0206379D01*
X0255487Y0206105D01*
X0255415Y0205832D01*
X0255337Y0205561D01*
X0255252Y0205292D01*
X0255160Y0205025D01*
X0255061Y0204760D01*
X0254957Y0204498D01*
X0254845Y0204239D01*
X0254728Y0203982D01*
X0254604Y0203728D01*
X0254474Y0203478D01*
X0254338Y0203231D01*
X0254196Y0202987D01*
X0254048Y0202747D01*
X0253894Y0202510D01*
X0253734Y0202277D01*
X0253569Y0202048D01*
X0253398Y0201824D01*
X0253222Y0201603D01*
X0253040Y0201388D01*
X0252853Y0201176D01*
X0252661Y0200969D01*
X0252464Y0200767D01*
X0252262Y0200570D01*
X0252055Y0200378D01*
X0251843Y0200191D01*
X0251628Y0200009D01*
X0251407Y0199833D01*
X0251183Y0199662D01*
X0250954Y0199497D01*
X0250721Y0199337D01*
X0250484Y0199183D01*
X0250244Y0199035D01*
X0250000Y0198893D01*
X0249753Y0198757D01*
X0249503Y0198627D01*
X0249249Y0198503D01*
X0248992Y0198386D01*
X0248733Y0198274D01*
X0248471Y0198170D01*
X0248206Y0198071D01*
X0247939Y0197979D01*
X0247670Y0197894D01*
X0247399Y0197816D01*
X0247126Y0197744D01*
X0246852Y0197678D01*
X0246576Y0197620D01*
X0246298Y0197568D01*
X0246019Y0197523D01*
X0245740Y0197485D01*
X0245459Y0197454D01*
X0245178Y0197430D01*
X0244896Y0197413D01*
X0244614Y0197402D01*
X0244332Y0197399D01*
X0244050Y0197402D01*
X0243768Y0197413D01*
X0243486Y0197430D01*
X0243205Y0197454D01*
X0242924Y0197485D01*
X0242645Y0197523D01*
X0242366Y0197568D01*
X0242088Y0197620D01*
X0241812Y0197678D01*
X0241538Y0197744D01*
X0241265Y0197816D01*
X0240994Y0197894D01*
X0240725Y0197979D01*
X0240458Y0198071D01*
X0240193Y0198170D01*
X0239931Y0198274D01*
X0239672Y0198386D01*
X0239415Y0198503D01*
X0239161Y0198627D01*
X0238911Y0198757D01*
X0238664Y0198893D01*
X0238420Y0199035D01*
X0238180Y0199183D01*
X0237943Y0199337D01*
X0237710Y0199497D01*
X0237481Y0199662D01*
X0237257Y0199833D01*
X0237036Y0200009D01*
X0236821Y0200191D01*
X0236609Y0200378D01*
X0236402Y0200570D01*
X0236200Y0200767D01*
X0236003Y0200969D01*
X0235811Y0201176D01*
X0235624Y0201388D01*
X0235442Y0201603D01*
X0235266Y0201824D01*
X0235095Y0202048D01*
X0234930Y0202277D01*
X0234770Y0202510D01*
X0234616Y0202747D01*
X0234468Y0202987D01*
X0234326Y0203231D01*
X0234190Y0203478D01*
X0234060Y0203728D01*
X0233936Y0203982D01*
X0233819Y0204239D01*
X0233707Y0204498D01*
X0233603Y0204760D01*
X0233504Y0205025D01*
X0233412Y0205292D01*
X0233327Y0205561D01*
X0233249Y0205832D01*
X0233177Y0206105D01*
X0233111Y0206379D01*
X0233053Y0206655D01*
X0233001Y0206933D01*
X0232956Y0207212D01*
X0232918Y0207491D01*
X0232887Y0207772D01*
X0232863Y0208053D01*
X0232846Y0208335D01*
X0232835Y0208617D01*
X0232832Y0208899D01*
D18*
X0244561Y0141297D03*
X0236332Y0135470D03*
X0245939Y0128344D03*
X0244561Y0121297D03*
X0252828Y0135431D03*
D19*
X0252356Y0135667D03*
X0244561Y0141257D03*
X0244561Y0121336D03*
D20*
X0244561Y0121376D03*
X0241017Y0126297D03*
X0244561Y0141218D03*
D21*
X0244561Y0141179D03*
X0244561Y0121415D03*
D22*
X0244561Y0121454D03*
X0241844Y0122439D03*
X0240781Y0123069D03*
X0240742Y0123108D03*
X0240702Y0123147D03*
X0247631Y0122635D03*
X0247828Y0122754D03*
X0241096Y0139722D03*
X0241214Y0139801D03*
X0241293Y0139840D03*
X0244561Y0141139D03*
D23*
X0244561Y0141100D03*
X0241923Y0140116D03*
X0240112Y0123738D03*
X0240151Y0123698D03*
X0244561Y0121494D03*
X0247080Y0122399D03*
X0248655Y0123423D03*
X0248694Y0123462D03*
D24*
X0249128Y0124013D03*
X0249167Y0124053D03*
X0244561Y0121533D03*
X0239757Y0124250D03*
X0244482Y0127793D03*
X0239757Y0138344D03*
X0244561Y0141061D03*
X0249206Y0138502D03*
D25*
X0249482Y0138069D03*
X0249521Y0138029D03*
X0244561Y0141021D03*
X0239482Y0137872D03*
X0239561Y0124643D03*
X0239561Y0124604D03*
X0244561Y0121572D03*
X0249403Y0124446D03*
D26*
X0249561Y0124801D03*
X0244561Y0121612D03*
X0239403Y0124998D03*
X0239285Y0137439D03*
X0244561Y0140982D03*
X0249757Y0137557D03*
D27*
X0249876Y0137242D03*
X0244561Y0140943D03*
X0239167Y0137124D03*
X0239324Y0125273D03*
X0244561Y0121651D03*
X0249679Y0125076D03*
X0249679Y0125116D03*
D28*
X0244561Y0121691D03*
X0239246Y0125588D03*
X0239009Y0136651D03*
X0239009Y0136691D03*
X0244561Y0140903D03*
X0250033Y0136809D03*
X0250033Y0136769D03*
D29*
X0244561Y0140864D03*
X0238931Y0136336D03*
X0239206Y0125824D03*
X0244561Y0121730D03*
X0249836Y0125667D03*
D30*
X0244561Y0121769D03*
X0239206Y0126021D03*
X0238891Y0136021D03*
X0238891Y0136061D03*
X0244561Y0140824D03*
X0250191Y0136139D03*
X0250191Y0136100D03*
D31*
X0250269Y0135785D03*
X0244561Y0140785D03*
X0239206Y0126218D03*
X0244561Y0121809D03*
D32*
X0244561Y0121848D03*
X0249836Y0126257D03*
X0244561Y0140746D03*
D33*
X0244561Y0140706D03*
X0249836Y0126376D03*
X0244561Y0121887D03*
D34*
X0244561Y0121927D03*
X0244561Y0140667D03*
D35*
X0244561Y0140628D03*
X0244561Y0121966D03*
D36*
X0244561Y0122006D03*
X0244561Y0140588D03*
D37*
X0244561Y0140549D03*
X0244561Y0122045D03*
D38*
X0244561Y0122084D03*
X0244561Y0140509D03*
D39*
X0244561Y0140470D03*
X0244561Y0122124D03*
D40*
X0244561Y0122163D03*
X0244561Y0140431D03*
D41*
X0244561Y0140391D03*
X0244561Y0122202D03*
D42*
X0244561Y0122242D03*
X0244561Y0140352D03*
D43*
X0244561Y0140313D03*
X0244561Y0122281D03*
D44*
X0244561Y0122320D03*
X0244561Y0140273D03*
D45*
X0244561Y0140234D03*
X0244561Y0122360D03*
D46*
X0241962Y0122399D03*
X0240387Y0123423D03*
X0240348Y0123462D03*
X0247198Y0122439D03*
X0248261Y0123069D03*
X0248301Y0123108D03*
X0248340Y0123147D03*
X0248340Y0139446D03*
X0248301Y0139486D03*
X0248261Y0139525D03*
X0248183Y0139565D03*
X0248143Y0139604D03*
X0247513Y0139998D03*
X0241687Y0140037D03*
X0240624Y0139328D03*
D47*
X0240840Y0123029D03*
X0240880Y0122990D03*
X0241746Y0122478D03*
D48*
X0240446Y0123383D03*
X0247297Y0122478D03*
X0248163Y0122990D03*
X0248202Y0123029D03*
X0248084Y0139643D03*
X0248045Y0139683D03*
X0247927Y0139761D03*
X0247730Y0139880D03*
X0247572Y0139958D03*
X0241588Y0139998D03*
X0240683Y0139407D03*
X0240643Y0139368D03*
D49*
X0240939Y0122950D03*
X0240978Y0122911D03*
X0241647Y0122517D03*
D50*
X0240506Y0123305D03*
X0240466Y0123344D03*
X0247395Y0122517D03*
X0247946Y0122832D03*
X0248065Y0122911D03*
X0248104Y0122950D03*
X0247986Y0139722D03*
X0247868Y0139801D03*
X0247789Y0139840D03*
X0247671Y0139919D03*
X0240939Y0139604D03*
X0240820Y0139525D03*
X0240781Y0139486D03*
X0240742Y0139446D03*
D51*
X0241037Y0122872D03*
X0241076Y0122832D03*
X0241155Y0122793D03*
X0241273Y0122714D03*
X0241352Y0122675D03*
X0241470Y0122596D03*
X0241549Y0122557D03*
D52*
X0240643Y0123187D03*
X0240604Y0123226D03*
X0240565Y0123265D03*
X0247494Y0122557D03*
X0247572Y0122596D03*
X0247691Y0122675D03*
X0247769Y0122714D03*
X0247887Y0122793D03*
X0248006Y0122872D03*
X0240880Y0139565D03*
X0240998Y0139643D03*
X0241037Y0139683D03*
X0241155Y0139761D03*
X0241352Y0139880D03*
X0241431Y0139919D03*
X0241509Y0139958D03*
D53*
X0241214Y0122754D03*
X0241411Y0122635D03*
D54*
X0240328Y0123502D03*
X0240289Y0123541D03*
X0248399Y0123187D03*
X0248439Y0123226D03*
X0248478Y0123265D03*
X0240486Y0139210D03*
X0240525Y0139250D03*
X0240565Y0139289D03*
X0241785Y0140076D03*
X0247415Y0140037D03*
D55*
X0247317Y0140076D03*
X0248380Y0139407D03*
X0248419Y0139368D03*
X0248458Y0139328D03*
X0240427Y0139171D03*
X0248537Y0123305D03*
D56*
X0248557Y0123344D03*
X0248596Y0123383D03*
X0240250Y0123580D03*
X0240210Y0123620D03*
X0240171Y0123659D03*
X0240328Y0139053D03*
X0240368Y0139092D03*
X0240407Y0139131D03*
X0248517Y0139289D03*
X0248557Y0139250D03*
X0248596Y0139210D03*
D57*
X0248635Y0139171D03*
X0248675Y0139131D03*
X0248714Y0139092D03*
X0248754Y0139053D03*
X0247179Y0140116D03*
X0240289Y0139013D03*
X0240250Y0138974D03*
X0240210Y0138935D03*
X0240092Y0123777D03*
X0248714Y0123502D03*
X0248754Y0123541D03*
D58*
X0248793Y0123580D03*
X0248832Y0123620D03*
X0248872Y0123659D03*
X0244620Y0128187D03*
X0244620Y0128226D03*
X0240013Y0123856D03*
X0248832Y0138974D03*
X0248793Y0139013D03*
D59*
X0248852Y0138935D03*
X0248891Y0138895D03*
X0248931Y0138856D03*
X0240072Y0138777D03*
X0240033Y0138738D03*
X0244600Y0128147D03*
X0244600Y0128108D03*
X0248931Y0123738D03*
X0248891Y0123698D03*
X0239994Y0123895D03*
X0239954Y0123935D03*
D60*
X0239935Y0123974D03*
X0244580Y0128069D03*
X0248950Y0123777D03*
X0248950Y0138817D03*
X0240013Y0138698D03*
X0239974Y0138659D03*
D61*
X0240112Y0138817D03*
X0240151Y0138856D03*
X0240191Y0138895D03*
X0240033Y0123817D03*
D62*
X0239915Y0124013D03*
X0239876Y0124053D03*
X0244561Y0127990D03*
X0244561Y0128029D03*
X0249009Y0123817D03*
X0249009Y0138777D03*
X0239954Y0138620D03*
X0239915Y0138580D03*
D63*
X0239895Y0138541D03*
X0249029Y0138738D03*
X0249069Y0138698D03*
X0244541Y0127950D03*
X0239856Y0124092D03*
X0249029Y0123856D03*
D64*
X0249049Y0123895D03*
X0249088Y0123935D03*
X0244521Y0127911D03*
X0239836Y0124131D03*
X0239797Y0124171D03*
X0239836Y0138462D03*
X0239876Y0138502D03*
X0249088Y0138659D03*
X0249128Y0138620D03*
D65*
X0249147Y0138580D03*
X0249187Y0138541D03*
X0239817Y0138423D03*
X0239777Y0138383D03*
X0244502Y0127872D03*
X0244502Y0127832D03*
X0239777Y0124210D03*
X0249108Y0123974D03*
D66*
X0249187Y0124092D03*
X0244423Y0127675D03*
X0244423Y0127714D03*
X0244462Y0127754D03*
X0239738Y0124289D03*
X0239698Y0138265D03*
X0239738Y0138305D03*
X0249226Y0138462D03*
X0249265Y0138423D03*
D67*
X0249285Y0138383D03*
X0239679Y0138226D03*
X0244403Y0127635D03*
X0244009Y0127242D03*
X0239718Y0124328D03*
X0239679Y0124368D03*
X0249206Y0124131D03*
X0249246Y0124171D03*
D68*
X0249265Y0124210D03*
X0244383Y0127596D03*
X0239659Y0124407D03*
X0239620Y0138147D03*
X0239659Y0138187D03*
X0249305Y0138344D03*
X0249344Y0138305D03*
D69*
X0249364Y0138265D03*
X0239600Y0138108D03*
X0244364Y0127557D03*
X0244088Y0127281D03*
X0239639Y0124446D03*
X0249285Y0124250D03*
D70*
X0249305Y0124289D03*
X0244344Y0127517D03*
X0244305Y0127478D03*
X0239620Y0124486D03*
X0239580Y0138069D03*
X0249383Y0138226D03*
X0249423Y0138187D03*
D71*
X0249443Y0138147D03*
X0239561Y0138029D03*
X0239521Y0137990D03*
X0239521Y0137950D03*
X0244285Y0127439D03*
X0244246Y0127399D03*
X0244206Y0127360D03*
X0244167Y0127320D03*
X0239600Y0124525D03*
X0249324Y0124328D03*
X0249364Y0124368D03*
D72*
X0249383Y0124407D03*
X0239580Y0124565D03*
X0239502Y0137911D03*
X0249462Y0138108D03*
D73*
X0249541Y0137990D03*
X0249541Y0137950D03*
X0239462Y0137832D03*
X0239541Y0124683D03*
X0249423Y0124486D03*
D74*
X0249443Y0124525D03*
X0239521Y0124722D03*
X0239403Y0137754D03*
X0239443Y0137793D03*
X0249561Y0137911D03*
X0249600Y0137872D03*
D75*
X0249620Y0137832D03*
X0239383Y0137714D03*
X0239383Y0137675D03*
X0239502Y0124761D03*
X0249462Y0124565D03*
D76*
X0249482Y0124604D03*
X0249482Y0124643D03*
X0239482Y0124801D03*
X0239364Y0137635D03*
X0249639Y0137793D03*
D77*
X0249659Y0137754D03*
X0239344Y0137596D03*
X0239462Y0124840D03*
X0249502Y0124683D03*
D78*
X0249521Y0124722D03*
X0239443Y0124880D03*
X0239443Y0124919D03*
X0239324Y0137557D03*
X0249679Y0137675D03*
X0249679Y0137714D03*
X0249718Y0137635D03*
D79*
X0249738Y0137596D03*
X0239305Y0137517D03*
X0239305Y0137478D03*
X0239423Y0124958D03*
X0249541Y0124761D03*
D80*
X0249580Y0124840D03*
X0239383Y0125037D03*
X0239265Y0137399D03*
X0249777Y0137478D03*
X0249777Y0137517D03*
D81*
X0249797Y0137439D03*
X0239246Y0137360D03*
X0239246Y0137320D03*
X0239364Y0125116D03*
X0239364Y0125076D03*
X0249600Y0124919D03*
X0249600Y0124880D03*
D82*
X0249620Y0124958D03*
X0239344Y0125155D03*
X0239226Y0137281D03*
X0249817Y0137399D03*
D83*
X0249836Y0137360D03*
X0249836Y0137320D03*
X0239206Y0137242D03*
X0239324Y0125194D03*
X0249639Y0124998D03*
D84*
X0249659Y0125037D03*
X0239305Y0125234D03*
X0239187Y0137163D03*
X0239187Y0137202D03*
X0249856Y0137281D03*
D85*
X0249895Y0137202D03*
X0249895Y0137163D03*
X0239147Y0137084D03*
X0239305Y0125313D03*
X0249698Y0125155D03*
D86*
X0249718Y0125194D03*
X0239285Y0125352D03*
X0239128Y0137006D03*
X0239128Y0137045D03*
X0249915Y0137124D03*
D87*
X0249935Y0137084D03*
X0239108Y0136966D03*
X0239265Y0125431D03*
X0239265Y0125391D03*
X0249738Y0125234D03*
D88*
X0249718Y0125273D03*
X0249954Y0137006D03*
X0249954Y0137045D03*
X0239088Y0136927D03*
X0239088Y0136887D03*
D89*
X0239069Y0136848D03*
X0249974Y0136966D03*
X0249738Y0125313D03*
X0239265Y0125470D03*
D90*
X0239246Y0125509D03*
X0249757Y0125352D03*
X0249994Y0136887D03*
X0249994Y0136927D03*
X0239049Y0136809D03*
X0239049Y0136769D03*
D91*
X0239029Y0136730D03*
X0250013Y0136848D03*
X0249777Y0125431D03*
X0249777Y0125391D03*
X0239226Y0125549D03*
D92*
X0239226Y0125628D03*
X0249777Y0125470D03*
X0250053Y0136730D03*
X0238990Y0136612D03*
X0238990Y0136572D03*
D93*
X0250072Y0136651D03*
X0250072Y0136691D03*
X0249797Y0125509D03*
X0239206Y0125667D03*
D94*
X0239226Y0125706D03*
X0249817Y0125549D03*
X0250092Y0136572D03*
X0250092Y0136612D03*
X0238990Y0136533D03*
D95*
X0238970Y0136494D03*
X0238970Y0136454D03*
X0250112Y0136533D03*
X0249797Y0125588D03*
X0239206Y0125746D03*
D96*
X0239187Y0125785D03*
X0249817Y0125628D03*
X0250131Y0136454D03*
X0250131Y0136494D03*
X0238950Y0136415D03*
X0238950Y0136376D03*
D97*
X0238911Y0136297D03*
X0250131Y0136376D03*
X0250131Y0136415D03*
X0249817Y0125706D03*
X0239187Y0125864D03*
D98*
X0249836Y0125746D03*
X0250151Y0136336D03*
X0238931Y0136257D03*
D99*
X0238911Y0136218D03*
X0238911Y0136179D03*
X0250171Y0136257D03*
X0250171Y0136297D03*
X0249856Y0125785D03*
X0239187Y0125903D03*
X0239187Y0125943D03*
D100*
X0249836Y0125824D03*
X0250191Y0136179D03*
X0250191Y0136218D03*
X0238891Y0136139D03*
X0238891Y0136100D03*
D101*
X0239187Y0125982D03*
X0249856Y0125864D03*
D102*
X0249856Y0125903D03*
X0249856Y0125943D03*
X0239187Y0126061D03*
X0238872Y0135982D03*
X0250210Y0136021D03*
X0250210Y0136061D03*
D103*
X0238872Y0135903D03*
X0239187Y0126139D03*
X0239187Y0126100D03*
X0249856Y0125982D03*
D104*
X0249836Y0126021D03*
X0250230Y0135903D03*
X0250230Y0135943D03*
X0238852Y0135864D03*
D105*
X0250250Y0135864D03*
X0250250Y0135824D03*
X0249856Y0126061D03*
X0239187Y0126179D03*
D106*
X0249856Y0126139D03*
X0249856Y0126100D03*
X0250250Y0135746D03*
D107*
X0249856Y0126179D03*
D108*
X0249836Y0126218D03*
D109*
X0239206Y0126257D03*
X0250269Y0135706D03*
D110*
X0237159Y0126297D03*
D111*
X0238990Y0126297D03*
X0238990Y0126336D03*
X0238990Y0126376D03*
X0238990Y0126415D03*
X0238990Y0126454D03*
X0238990Y0126494D03*
X0238990Y0126533D03*
X0238990Y0126572D03*
X0238990Y0126612D03*
X0238990Y0126651D03*
X0238990Y0126691D03*
X0238990Y0126730D03*
X0238990Y0126769D03*
X0238990Y0126809D03*
X0238990Y0126848D03*
X0238990Y0126887D03*
X0238990Y0126927D03*
X0238990Y0126966D03*
X0238990Y0127006D03*
X0238990Y0127045D03*
X0235328Y0128108D03*
X0235289Y0128187D03*
X0235289Y0128226D03*
X0235250Y0128265D03*
X0234974Y0133226D03*
X0234974Y0133265D03*
X0235013Y0133305D03*
X0235013Y0133344D03*
X0235013Y0133383D03*
X0235053Y0133462D03*
X0238990Y0135076D03*
X0238990Y0135116D03*
X0238990Y0135155D03*
X0238990Y0135194D03*
X0238990Y0135234D03*
X0238990Y0135273D03*
X0238990Y0135313D03*
X0238990Y0135352D03*
X0238990Y0135391D03*
X0238990Y0135431D03*
X0238990Y0135470D03*
X0238990Y0135509D03*
X0238990Y0135549D03*
X0238990Y0135588D03*
X0238990Y0135628D03*
X0238990Y0135667D03*
X0238990Y0135706D03*
X0238990Y0135746D03*
X0238990Y0135785D03*
X0238990Y0135824D03*
X0242218Y0134565D03*
X0242257Y0134525D03*
X0243360Y0130982D03*
X0243360Y0130943D03*
X0243360Y0130903D03*
X0243360Y0130864D03*
X0246549Y0133423D03*
X0246549Y0133462D03*
X0246549Y0133502D03*
X0246549Y0133541D03*
X0254029Y0133659D03*
X0254029Y0133698D03*
X0254069Y0133620D03*
X0254069Y0133580D03*
X0254069Y0133541D03*
X0253911Y0128423D03*
X0253911Y0128383D03*
X0253872Y0128344D03*
D112*
X0249856Y0126297D03*
D113*
X0237041Y0126336D03*
X0236765Y0135746D03*
D114*
X0237002Y0135824D03*
X0241175Y0126336D03*
D115*
X0249836Y0126336D03*
D116*
X0242592Y0127124D03*
X0241687Y0126572D03*
X0236923Y0126376D03*
D117*
X0241273Y0126376D03*
D118*
X0241883Y0126691D03*
X0241923Y0126730D03*
X0242002Y0126769D03*
X0242435Y0127045D03*
X0236844Y0126415D03*
X0236529Y0135628D03*
D119*
X0241372Y0126415D03*
D120*
X0249817Y0126415D03*
D121*
X0242120Y0126848D03*
X0236765Y0126454D03*
X0252631Y0135549D03*
D122*
X0242809Y0127202D03*
X0241470Y0126454D03*
D123*
X0249817Y0126454D03*
D124*
X0252553Y0126651D03*
X0245899Y0128305D03*
X0243380Y0128265D03*
X0236687Y0126494D03*
X0236372Y0135509D03*
X0241214Y0135667D03*
D125*
X0241549Y0126494D03*
D126*
X0249797Y0126494D03*
D127*
X0252769Y0135470D03*
X0238990Y0134171D03*
X0238990Y0134131D03*
X0238990Y0134092D03*
X0238990Y0134053D03*
X0238990Y0134013D03*
X0238990Y0133974D03*
X0238990Y0133935D03*
X0238990Y0133895D03*
X0238990Y0133856D03*
X0238990Y0133817D03*
X0238990Y0133777D03*
X0238990Y0133738D03*
X0238990Y0133698D03*
X0238990Y0133659D03*
X0238990Y0133620D03*
X0238990Y0133580D03*
X0238990Y0133541D03*
X0238990Y0133502D03*
X0238990Y0133462D03*
X0238990Y0133423D03*
X0238990Y0133383D03*
X0238990Y0133344D03*
X0238990Y0133305D03*
X0238990Y0133265D03*
X0238990Y0133226D03*
X0238990Y0133187D03*
X0238990Y0133147D03*
X0238990Y0133108D03*
X0238990Y0133069D03*
X0238990Y0133029D03*
X0238990Y0132990D03*
X0238990Y0132950D03*
X0238990Y0132911D03*
X0238990Y0132872D03*
X0238990Y0132832D03*
X0238990Y0132793D03*
X0238990Y0132754D03*
X0238990Y0132714D03*
X0238990Y0132675D03*
X0238990Y0132635D03*
X0238990Y0132596D03*
X0238990Y0132557D03*
X0238990Y0132517D03*
X0238990Y0132478D03*
X0238990Y0132439D03*
X0238990Y0132399D03*
X0238990Y0132360D03*
X0238990Y0132320D03*
X0238990Y0132281D03*
X0238990Y0132242D03*
X0238990Y0132202D03*
X0238990Y0132163D03*
X0238990Y0132124D03*
X0238990Y0132084D03*
X0238990Y0132045D03*
X0238990Y0132006D03*
X0238990Y0131966D03*
X0238990Y0131927D03*
X0238990Y0131887D03*
X0238990Y0131848D03*
X0238990Y0131809D03*
X0238990Y0131769D03*
X0238990Y0131730D03*
X0238990Y0131691D03*
X0238990Y0131651D03*
X0238990Y0131612D03*
X0238990Y0131572D03*
X0238990Y0131533D03*
X0238990Y0131494D03*
X0238990Y0131454D03*
X0238990Y0131415D03*
X0238990Y0131376D03*
X0238990Y0131336D03*
X0238990Y0131297D03*
X0238990Y0131257D03*
X0238990Y0131218D03*
X0238990Y0131179D03*
X0238990Y0131139D03*
X0238990Y0131100D03*
X0238990Y0131061D03*
X0238990Y0131021D03*
X0238990Y0130982D03*
X0238990Y0130943D03*
X0238990Y0130903D03*
X0238990Y0130864D03*
X0238990Y0130824D03*
X0238990Y0130785D03*
X0238990Y0130746D03*
X0238990Y0130706D03*
X0238990Y0130667D03*
X0238990Y0130628D03*
X0238990Y0130588D03*
X0238990Y0130549D03*
X0238990Y0130509D03*
X0238990Y0130470D03*
X0238990Y0130431D03*
X0238990Y0130391D03*
X0238990Y0130352D03*
X0238990Y0130313D03*
X0238990Y0130273D03*
X0238990Y0130234D03*
X0238990Y0130194D03*
X0238990Y0130155D03*
X0238990Y0130116D03*
X0238990Y0130076D03*
X0238990Y0130037D03*
X0238990Y0129998D03*
X0238990Y0129958D03*
X0238990Y0129919D03*
X0238990Y0129880D03*
X0238990Y0129840D03*
X0238990Y0129801D03*
X0238990Y0129761D03*
X0238990Y0129722D03*
X0238990Y0129683D03*
X0238990Y0129643D03*
X0238990Y0129604D03*
X0238990Y0129565D03*
X0238990Y0129525D03*
X0238990Y0129486D03*
X0238990Y0129446D03*
X0238990Y0129407D03*
X0238990Y0129368D03*
X0238990Y0129328D03*
X0238990Y0129289D03*
X0238990Y0129250D03*
X0238990Y0129210D03*
X0238990Y0129171D03*
X0238990Y0129131D03*
X0238990Y0129092D03*
X0238990Y0129053D03*
X0238990Y0129013D03*
X0238990Y0128974D03*
X0238990Y0128935D03*
X0238990Y0128895D03*
X0238990Y0128856D03*
X0238990Y0128817D03*
X0238990Y0128777D03*
X0238990Y0128738D03*
X0238990Y0128698D03*
X0238990Y0128659D03*
X0238990Y0128620D03*
X0238990Y0128580D03*
X0238990Y0128541D03*
X0238990Y0128502D03*
X0238990Y0128462D03*
X0238990Y0128423D03*
X0238990Y0128383D03*
X0238990Y0128344D03*
X0238990Y0128305D03*
X0238990Y0128265D03*
X0238990Y0128226D03*
X0238990Y0128187D03*
X0236628Y0126533D03*
D128*
X0241608Y0126533D03*
D129*
X0246293Y0126533D03*
X0243025Y0132714D03*
X0242986Y0132832D03*
X0242946Y0132950D03*
X0242907Y0133069D03*
X0242868Y0133187D03*
X0242828Y0133305D03*
X0246687Y0134486D03*
X0246687Y0134525D03*
D130*
X0246529Y0133383D03*
X0246529Y0133344D03*
X0246529Y0133305D03*
X0250112Y0134919D03*
X0250112Y0134958D03*
X0250112Y0134998D03*
X0250112Y0135037D03*
X0250112Y0135076D03*
X0250112Y0135116D03*
X0250112Y0135155D03*
X0250112Y0135194D03*
X0250112Y0135234D03*
X0250112Y0135273D03*
X0250112Y0135313D03*
X0250112Y0135352D03*
X0250112Y0135391D03*
X0250112Y0135431D03*
X0250112Y0135470D03*
X0250112Y0135509D03*
X0250112Y0135549D03*
X0250112Y0135588D03*
X0250112Y0135628D03*
X0250112Y0135667D03*
X0253970Y0133817D03*
X0254009Y0133738D03*
X0253852Y0128305D03*
X0253852Y0128265D03*
X0253813Y0128226D03*
X0253813Y0128187D03*
X0250112Y0127242D03*
X0250112Y0127202D03*
X0250112Y0127163D03*
X0250112Y0127124D03*
X0250112Y0127084D03*
X0250112Y0127045D03*
X0250112Y0127006D03*
X0250112Y0126966D03*
X0250112Y0126927D03*
X0250112Y0126887D03*
X0250112Y0126848D03*
X0250112Y0126809D03*
X0250112Y0126769D03*
X0250112Y0126730D03*
X0250112Y0126691D03*
X0250112Y0126651D03*
X0250112Y0126612D03*
X0250112Y0126572D03*
X0250112Y0126533D03*
X0245860Y0127006D03*
X0243380Y0130706D03*
X0243380Y0130746D03*
X0243380Y0130785D03*
X0243380Y0130824D03*
X0242198Y0134604D03*
X0235072Y0133541D03*
X0235072Y0133502D03*
X0235033Y0133423D03*
X0235309Y0128147D03*
X0235348Y0128069D03*
X0235387Y0127990D03*
D131*
X0242691Y0127163D03*
X0240958Y0135785D03*
X0236667Y0135706D03*
X0252494Y0135628D03*
X0252257Y0126533D03*
D132*
X0252671Y0126730D03*
X0245978Y0128423D03*
X0238970Y0127714D03*
X0238970Y0127675D03*
X0236569Y0126572D03*
X0238970Y0134525D03*
X0252868Y0135391D03*
D133*
X0246726Y0134722D03*
X0246726Y0134683D03*
X0246096Y0126691D03*
X0246135Y0126651D03*
X0246175Y0126612D03*
X0246214Y0126572D03*
D134*
X0242376Y0127006D03*
X0242297Y0126966D03*
X0242257Y0126927D03*
X0242179Y0126887D03*
X0242061Y0126809D03*
X0252376Y0126572D03*
D135*
X0245998Y0128462D03*
X0243320Y0128344D03*
X0238990Y0127635D03*
X0238990Y0127596D03*
X0236509Y0126612D03*
X0238990Y0134565D03*
X0238990Y0134604D03*
X0241352Y0135588D03*
X0236234Y0135391D03*
X0252927Y0135352D03*
D136*
X0241746Y0126612D03*
D137*
X0245860Y0128265D03*
X0252474Y0126612D03*
X0252710Y0135509D03*
D138*
X0252710Y0126769D03*
X0246017Y0128502D03*
X0246017Y0128541D03*
X0238970Y0127557D03*
X0236450Y0126651D03*
X0238970Y0134643D03*
X0236175Y0135352D03*
D139*
X0236608Y0135667D03*
X0241805Y0126651D03*
X0242513Y0127084D03*
D140*
X0243301Y0128423D03*
X0246057Y0128659D03*
X0246057Y0128698D03*
X0246057Y0128738D03*
X0246057Y0128777D03*
X0238970Y0127439D03*
X0236411Y0126691D03*
X0238970Y0134722D03*
X0236135Y0135313D03*
X0236096Y0135273D03*
D141*
X0236273Y0135431D03*
X0238990Y0134486D03*
X0238990Y0134446D03*
X0238990Y0134407D03*
X0238990Y0134368D03*
X0238990Y0134328D03*
X0238990Y0134289D03*
X0238990Y0134250D03*
X0238990Y0134210D03*
X0241273Y0135628D03*
X0243360Y0128305D03*
X0245958Y0128383D03*
X0252612Y0126691D03*
X0238990Y0127754D03*
X0238990Y0127793D03*
X0238990Y0127832D03*
X0238990Y0127872D03*
X0238990Y0127911D03*
X0238990Y0127950D03*
X0238990Y0127990D03*
X0238990Y0128029D03*
X0238990Y0128069D03*
X0238990Y0128108D03*
X0238990Y0128147D03*
D142*
X0238990Y0127399D03*
X0236352Y0126730D03*
X0243320Y0128462D03*
X0246076Y0128817D03*
X0246076Y0128856D03*
X0246076Y0128895D03*
X0246076Y0128935D03*
X0246076Y0128974D03*
X0246076Y0129013D03*
X0246076Y0129053D03*
X0252809Y0126848D03*
X0253045Y0135234D03*
X0241431Y0135509D03*
X0238990Y0134761D03*
D143*
X0246706Y0134643D03*
X0246706Y0134604D03*
X0246706Y0134565D03*
X0246076Y0126730D03*
D144*
X0246116Y0129643D03*
X0246116Y0129683D03*
X0246116Y0129722D03*
X0246116Y0129761D03*
X0246116Y0129801D03*
X0246116Y0129840D03*
X0246116Y0129880D03*
X0246116Y0129919D03*
X0246116Y0129958D03*
X0246116Y0129998D03*
X0243320Y0128541D03*
X0238990Y0127320D03*
X0236313Y0126769D03*
X0235998Y0135155D03*
X0236037Y0135194D03*
X0238990Y0134801D03*
X0241509Y0135470D03*
X0253084Y0135194D03*
X0253124Y0135155D03*
D145*
X0246706Y0134446D03*
X0246706Y0134407D03*
X0242887Y0133147D03*
X0242887Y0133108D03*
X0242927Y0133029D03*
X0242927Y0132990D03*
X0242966Y0132911D03*
X0242966Y0132872D03*
X0243006Y0132793D03*
X0243006Y0132754D03*
X0243045Y0132675D03*
X0243045Y0132635D03*
X0243045Y0132596D03*
X0243045Y0132557D03*
X0243084Y0132517D03*
X0243084Y0132478D03*
X0243084Y0132439D03*
X0243124Y0132360D03*
X0243124Y0132320D03*
X0242848Y0133226D03*
X0242848Y0133265D03*
X0242809Y0133344D03*
X0242809Y0133383D03*
X0242769Y0133423D03*
X0242769Y0133462D03*
X0242730Y0133541D03*
X0242691Y0133659D03*
X0246037Y0126769D03*
D146*
X0245624Y0127202D03*
X0243301Y0128580D03*
X0246135Y0130037D03*
X0246135Y0130076D03*
X0246135Y0130116D03*
X0246135Y0130155D03*
X0246135Y0130194D03*
X0246135Y0130234D03*
X0246135Y0130273D03*
X0250506Y0130273D03*
X0250506Y0130234D03*
X0250506Y0130194D03*
X0250506Y0130155D03*
X0250506Y0130116D03*
X0250506Y0130076D03*
X0250506Y0130037D03*
X0250506Y0129998D03*
X0250506Y0129958D03*
X0250506Y0129919D03*
X0250506Y0129880D03*
X0250506Y0129840D03*
X0250506Y0129801D03*
X0250506Y0129761D03*
X0250506Y0129722D03*
X0250506Y0129683D03*
X0250506Y0129643D03*
X0250506Y0129604D03*
X0250506Y0129565D03*
X0250506Y0129525D03*
X0250506Y0129486D03*
X0250506Y0129446D03*
X0250506Y0129407D03*
X0250506Y0129368D03*
X0250506Y0129328D03*
X0250506Y0129289D03*
X0250506Y0129250D03*
X0250506Y0129210D03*
X0250506Y0129171D03*
X0250506Y0129131D03*
X0250506Y0129092D03*
X0250506Y0129053D03*
X0250506Y0129013D03*
X0250506Y0128974D03*
X0250506Y0128935D03*
X0250506Y0128895D03*
X0250506Y0128856D03*
X0250506Y0128817D03*
X0250506Y0128777D03*
X0250506Y0128738D03*
X0250506Y0128698D03*
X0250506Y0128659D03*
X0250506Y0128620D03*
X0250506Y0128580D03*
X0250506Y0128541D03*
X0250506Y0128502D03*
X0250506Y0128462D03*
X0250506Y0128423D03*
X0250506Y0130313D03*
X0250506Y0130352D03*
X0250506Y0130391D03*
X0250506Y0130431D03*
X0250506Y0130470D03*
X0250506Y0130509D03*
X0250506Y0130549D03*
X0250506Y0130588D03*
X0250506Y0130628D03*
X0250506Y0130667D03*
X0250506Y0130706D03*
X0250506Y0130746D03*
X0250506Y0130785D03*
X0250506Y0130824D03*
X0250506Y0130864D03*
X0250506Y0130903D03*
X0250506Y0130943D03*
X0250506Y0130982D03*
X0250506Y0131021D03*
X0250506Y0131061D03*
X0250506Y0131100D03*
X0250506Y0131139D03*
X0250506Y0131179D03*
X0250506Y0131218D03*
X0250506Y0131257D03*
X0250506Y0131297D03*
X0250506Y0131336D03*
X0250506Y0131376D03*
X0250506Y0131415D03*
X0250506Y0131454D03*
X0250506Y0131494D03*
X0250506Y0131533D03*
X0250506Y0131572D03*
X0250506Y0131612D03*
X0250506Y0131651D03*
X0250506Y0131691D03*
X0250506Y0131730D03*
X0250506Y0131769D03*
X0250506Y0131809D03*
X0250506Y0131848D03*
X0250506Y0131887D03*
X0250506Y0131927D03*
X0250506Y0131966D03*
X0250506Y0132006D03*
X0250506Y0132045D03*
X0250506Y0132084D03*
X0250506Y0132124D03*
X0250506Y0132163D03*
X0250506Y0132202D03*
X0250506Y0132242D03*
X0250506Y0132281D03*
X0250506Y0132320D03*
X0250506Y0132360D03*
X0250506Y0132399D03*
X0250506Y0132439D03*
X0250506Y0132478D03*
X0250506Y0132517D03*
X0250506Y0132557D03*
X0250506Y0132596D03*
X0250506Y0132635D03*
X0250506Y0132675D03*
X0250506Y0132714D03*
X0250506Y0132754D03*
X0250506Y0132793D03*
X0250506Y0132832D03*
X0250506Y0132872D03*
X0250506Y0132911D03*
X0250506Y0132950D03*
X0250506Y0132990D03*
X0250506Y0133029D03*
X0250506Y0133069D03*
X0250506Y0133108D03*
X0250506Y0133147D03*
X0250506Y0133187D03*
X0250506Y0133226D03*
X0250506Y0133265D03*
X0250506Y0133305D03*
X0250506Y0133344D03*
X0250506Y0133383D03*
X0250506Y0133423D03*
X0250506Y0133462D03*
X0250506Y0133502D03*
X0250506Y0133541D03*
X0250506Y0133580D03*
X0250506Y0133620D03*
X0250506Y0133659D03*
X0250506Y0133698D03*
X0250506Y0133738D03*
X0252946Y0126966D03*
X0252907Y0126927D03*
X0241529Y0135431D03*
X0236254Y0126809D03*
D147*
X0243183Y0132045D03*
X0243183Y0132084D03*
X0243183Y0132124D03*
X0243143Y0132163D03*
X0243143Y0132202D03*
X0243143Y0132242D03*
X0243143Y0132281D03*
X0243104Y0132399D03*
X0242750Y0133502D03*
X0242710Y0133580D03*
X0242710Y0133620D03*
X0242671Y0133698D03*
X0242631Y0133777D03*
X0242592Y0133856D03*
X0246687Y0134289D03*
X0246687Y0134328D03*
X0246687Y0134368D03*
X0246017Y0126809D03*
D148*
X0246037Y0128580D03*
X0246037Y0128620D03*
X0243320Y0128383D03*
X0238990Y0127517D03*
X0238990Y0127478D03*
X0238990Y0134683D03*
X0241391Y0135549D03*
X0252966Y0135313D03*
X0253006Y0135273D03*
X0252769Y0126809D03*
D149*
X0250486Y0127911D03*
X0250486Y0127950D03*
X0250486Y0127990D03*
X0250486Y0128029D03*
X0250486Y0128069D03*
X0250486Y0128108D03*
X0250486Y0128147D03*
X0250486Y0128187D03*
X0250486Y0128226D03*
X0250486Y0128265D03*
X0250486Y0128305D03*
X0250486Y0128344D03*
X0250486Y0128383D03*
X0246155Y0130313D03*
X0246155Y0130352D03*
X0246155Y0130391D03*
X0246155Y0130431D03*
X0246155Y0130470D03*
X0246155Y0130509D03*
X0243320Y0128620D03*
X0238990Y0127281D03*
X0236234Y0126848D03*
X0235919Y0135076D03*
X0235958Y0135116D03*
X0238990Y0134840D03*
X0250486Y0134171D03*
X0250486Y0134131D03*
X0250486Y0134092D03*
X0250486Y0134053D03*
X0250486Y0134013D03*
X0250486Y0133974D03*
X0250486Y0133935D03*
X0250486Y0133895D03*
X0250486Y0133856D03*
X0250486Y0133817D03*
X0250486Y0133777D03*
X0253163Y0135116D03*
X0253202Y0135076D03*
D150*
X0254423Y0131848D03*
X0254423Y0131809D03*
X0254423Y0131769D03*
X0254423Y0131730D03*
X0254423Y0131691D03*
X0254423Y0131651D03*
X0254423Y0131612D03*
X0254423Y0131572D03*
X0254423Y0131533D03*
X0254423Y0131494D03*
X0254423Y0131454D03*
X0254423Y0131415D03*
X0254423Y0131376D03*
X0254423Y0131336D03*
X0254423Y0131297D03*
X0254423Y0131257D03*
X0254423Y0131218D03*
X0254423Y0131179D03*
X0254423Y0131139D03*
X0254423Y0131100D03*
X0254423Y0131061D03*
X0254423Y0131021D03*
X0254423Y0130982D03*
X0254423Y0130943D03*
X0254423Y0130903D03*
X0254423Y0130864D03*
X0254423Y0130824D03*
X0254423Y0130785D03*
X0254423Y0130746D03*
X0254423Y0130706D03*
X0254423Y0130667D03*
X0254423Y0130628D03*
X0254423Y0130588D03*
X0254423Y0130549D03*
X0254423Y0130509D03*
X0254423Y0130470D03*
X0254423Y0130431D03*
X0254383Y0130391D03*
X0254383Y0130352D03*
X0254383Y0130313D03*
X0254383Y0130273D03*
X0254383Y0130234D03*
X0254383Y0130194D03*
X0254383Y0130155D03*
X0254383Y0130116D03*
X0254344Y0130037D03*
X0254344Y0129998D03*
X0254344Y0129958D03*
X0254344Y0129919D03*
X0254344Y0129880D03*
X0254305Y0129761D03*
X0254305Y0129722D03*
X0245998Y0126848D03*
X0243242Y0131769D03*
X0243242Y0131809D03*
X0243202Y0131927D03*
X0243202Y0131966D03*
X0243202Y0132006D03*
X0242651Y0133738D03*
X0242612Y0133817D03*
X0242572Y0133895D03*
X0242572Y0133935D03*
X0242533Y0133974D03*
X0246667Y0134171D03*
X0246667Y0134210D03*
X0246667Y0134250D03*
X0234738Y0130391D03*
X0234738Y0130352D03*
X0234738Y0130313D03*
X0234738Y0130273D03*
X0234777Y0130037D03*
X0234777Y0129998D03*
X0234817Y0129761D03*
D151*
X0236175Y0126887D03*
X0243301Y0128659D03*
X0243301Y0128698D03*
X0246175Y0130549D03*
X0246175Y0130588D03*
X0246175Y0130628D03*
X0246175Y0130667D03*
X0246175Y0130706D03*
X0246175Y0130746D03*
X0250466Y0127872D03*
X0250466Y0127832D03*
X0250466Y0127793D03*
X0252986Y0127006D03*
X0250466Y0134210D03*
X0250466Y0134250D03*
X0250466Y0134289D03*
X0250466Y0134328D03*
X0241569Y0135391D03*
X0235899Y0135037D03*
D152*
X0234777Y0132320D03*
X0234777Y0132281D03*
X0234777Y0132242D03*
X0234777Y0132202D03*
X0234738Y0132084D03*
X0234738Y0132045D03*
X0234738Y0132006D03*
X0234738Y0131966D03*
X0234738Y0131927D03*
X0234738Y0131887D03*
X0234738Y0131848D03*
X0234895Y0129368D03*
X0234895Y0129328D03*
X0234935Y0129210D03*
X0234935Y0129171D03*
X0234974Y0129092D03*
X0234974Y0129053D03*
X0234974Y0129013D03*
X0235013Y0128935D03*
X0235013Y0128895D03*
X0242454Y0134131D03*
X0242454Y0134171D03*
X0242415Y0134210D03*
X0243281Y0131572D03*
X0243281Y0131533D03*
X0243281Y0131494D03*
X0246628Y0133935D03*
X0246628Y0133974D03*
X0246628Y0134013D03*
X0245958Y0126887D03*
X0254147Y0129053D03*
X0254147Y0129092D03*
X0254147Y0129131D03*
X0254187Y0129171D03*
X0254187Y0129210D03*
X0254187Y0129250D03*
X0254226Y0129328D03*
X0254226Y0129368D03*
X0254344Y0132399D03*
X0254344Y0132439D03*
X0254344Y0132478D03*
X0254344Y0132517D03*
X0254305Y0132596D03*
X0254305Y0132635D03*
X0254305Y0132675D03*
X0254305Y0132714D03*
X0254265Y0132832D03*
X0254265Y0132872D03*
D153*
X0252868Y0126887D03*
X0246096Y0129092D03*
X0246096Y0129131D03*
X0246096Y0129171D03*
X0246096Y0129210D03*
X0246096Y0129250D03*
X0246096Y0129289D03*
X0246096Y0129328D03*
X0246096Y0129368D03*
X0246096Y0129407D03*
X0246096Y0129446D03*
X0246096Y0129486D03*
X0246096Y0129525D03*
X0246096Y0129565D03*
X0246096Y0129604D03*
X0243301Y0128502D03*
X0238970Y0127360D03*
X0236057Y0135234D03*
D154*
X0235820Y0134958D03*
X0236096Y0126966D03*
X0236135Y0126927D03*
X0243340Y0128817D03*
X0246214Y0130982D03*
X0246214Y0131021D03*
X0246214Y0131061D03*
X0246214Y0131100D03*
X0246214Y0131139D03*
X0250427Y0134486D03*
X0250427Y0134525D03*
X0253301Y0134958D03*
X0250427Y0127675D03*
X0250427Y0127635D03*
X0253065Y0127084D03*
D155*
X0253990Y0128620D03*
X0254029Y0128698D03*
X0254029Y0128738D03*
X0254069Y0128817D03*
X0254226Y0133029D03*
X0254187Y0133147D03*
X0254187Y0133187D03*
X0254187Y0133226D03*
X0254147Y0133305D03*
X0254147Y0133344D03*
X0246588Y0133698D03*
X0246588Y0133738D03*
X0246588Y0133777D03*
X0243320Y0131297D03*
X0243320Y0131257D03*
X0243320Y0131218D03*
X0243320Y0131179D03*
X0242336Y0134368D03*
X0242297Y0134446D03*
X0235092Y0128698D03*
X0235092Y0128659D03*
X0235131Y0128580D03*
X0235131Y0128541D03*
X0235171Y0128502D03*
X0235171Y0128462D03*
X0234856Y0132714D03*
X0234856Y0132754D03*
X0234856Y0132793D03*
X0234895Y0132872D03*
X0234895Y0132911D03*
X0234895Y0132950D03*
X0234935Y0133069D03*
X0245919Y0126927D03*
D156*
X0245899Y0126966D03*
X0243340Y0131021D03*
X0243340Y0131061D03*
X0243340Y0131100D03*
X0243340Y0131139D03*
X0242317Y0134407D03*
X0242277Y0134486D03*
X0246569Y0133659D03*
X0246569Y0133620D03*
X0246569Y0133580D03*
X0254088Y0133502D03*
X0254088Y0133462D03*
X0254128Y0133423D03*
X0254128Y0133383D03*
X0254167Y0133265D03*
X0254009Y0128659D03*
X0253970Y0128580D03*
X0253970Y0128541D03*
X0253931Y0128502D03*
X0253931Y0128462D03*
X0235230Y0128344D03*
X0235230Y0128305D03*
X0235191Y0128383D03*
X0235191Y0128423D03*
X0234915Y0132990D03*
X0234915Y0133029D03*
X0234954Y0133108D03*
X0234954Y0133147D03*
X0234954Y0133187D03*
D157*
X0235761Y0134880D03*
X0235801Y0134919D03*
X0238990Y0134919D03*
X0241667Y0135313D03*
X0246234Y0131297D03*
X0246234Y0131257D03*
X0246234Y0131218D03*
X0246234Y0131179D03*
X0243320Y0128856D03*
X0238990Y0127202D03*
X0236076Y0127006D03*
X0250407Y0127557D03*
X0250407Y0127596D03*
X0253084Y0127124D03*
X0250407Y0134565D03*
D158*
X0250368Y0134683D03*
X0246273Y0131651D03*
X0246273Y0131612D03*
X0246273Y0131572D03*
X0246273Y0131533D03*
X0243360Y0129092D03*
X0243360Y0129053D03*
X0243360Y0129013D03*
X0245683Y0127163D03*
X0250368Y0127478D03*
X0253163Y0127202D03*
X0253202Y0127242D03*
X0253399Y0134840D03*
X0241746Y0135234D03*
X0238990Y0134958D03*
X0235722Y0134801D03*
X0235683Y0134761D03*
X0235998Y0127084D03*
X0236037Y0127045D03*
X0238990Y0127163D03*
D159*
X0235506Y0127793D03*
X0235466Y0127832D03*
X0235466Y0127872D03*
X0235427Y0127911D03*
X0235151Y0133738D03*
X0235151Y0133777D03*
X0235191Y0133817D03*
X0235191Y0133856D03*
X0242080Y0134761D03*
X0242120Y0134722D03*
X0243419Y0130470D03*
X0243419Y0130431D03*
X0243419Y0130391D03*
X0243419Y0130352D03*
X0243419Y0130313D03*
X0245820Y0127045D03*
X0250151Y0127281D03*
X0253694Y0127950D03*
X0253694Y0127990D03*
X0253734Y0128029D03*
X0253931Y0133935D03*
X0253891Y0134013D03*
X0253852Y0134092D03*
X0246490Y0133147D03*
X0246490Y0133108D03*
X0246490Y0133069D03*
D160*
X0246194Y0130943D03*
X0246194Y0130903D03*
X0246194Y0130864D03*
X0246194Y0130824D03*
X0246194Y0130785D03*
X0243320Y0128777D03*
X0243320Y0128738D03*
X0238990Y0127242D03*
X0238990Y0134880D03*
X0241628Y0135352D03*
X0235840Y0134998D03*
X0250446Y0134446D03*
X0250446Y0134407D03*
X0250446Y0134368D03*
X0253242Y0135037D03*
X0253281Y0134998D03*
X0250446Y0127754D03*
X0250446Y0127714D03*
X0253006Y0127045D03*
D161*
X0253635Y0127872D03*
X0253675Y0127911D03*
X0253872Y0134053D03*
X0253832Y0134131D03*
X0246470Y0133029D03*
X0246470Y0132990D03*
X0246470Y0132950D03*
X0242061Y0134801D03*
X0235250Y0133974D03*
X0235210Y0133935D03*
X0235210Y0133895D03*
X0235525Y0127754D03*
X0235565Y0127675D03*
X0238990Y0127084D03*
D162*
X0235702Y0127478D03*
X0235663Y0127517D03*
X0235348Y0134210D03*
X0235387Y0134250D03*
X0235387Y0134289D03*
X0241923Y0134998D03*
X0241962Y0134958D03*
X0246411Y0132635D03*
X0246411Y0132596D03*
X0246411Y0132557D03*
X0243419Y0129958D03*
X0243419Y0129919D03*
X0243419Y0129880D03*
X0243419Y0129840D03*
X0243419Y0129801D03*
X0243419Y0129761D03*
X0245781Y0127084D03*
X0250230Y0127320D03*
X0253498Y0127635D03*
X0253734Y0134328D03*
X0253694Y0134407D03*
D163*
X0253458Y0134761D03*
X0253419Y0134801D03*
X0250348Y0134722D03*
X0246293Y0131809D03*
X0246293Y0131769D03*
X0246293Y0131730D03*
X0246293Y0131691D03*
X0243380Y0129210D03*
X0243380Y0129171D03*
X0243380Y0129131D03*
X0241765Y0135194D03*
X0235663Y0134722D03*
X0235624Y0134683D03*
X0235978Y0127124D03*
X0250348Y0127439D03*
X0253222Y0127281D03*
D164*
X0253320Y0127399D03*
X0253360Y0127439D03*
X0253596Y0134565D03*
X0253557Y0134604D03*
X0250289Y0134801D03*
X0246352Y0132242D03*
X0246352Y0132202D03*
X0246352Y0132163D03*
X0246352Y0132124D03*
X0243399Y0129525D03*
X0243399Y0129486D03*
X0243399Y0129446D03*
X0243399Y0129407D03*
X0245722Y0127124D03*
X0238990Y0127124D03*
X0235840Y0127281D03*
X0235801Y0127320D03*
X0235486Y0134446D03*
X0235525Y0134525D03*
X0238990Y0134998D03*
X0241864Y0135076D03*
D165*
X0246313Y0131927D03*
X0246313Y0131887D03*
X0246313Y0131848D03*
X0243399Y0129250D03*
X0250328Y0134761D03*
X0253478Y0134722D03*
X0253517Y0134683D03*
X0253281Y0127320D03*
X0235919Y0127163D03*
X0235604Y0134643D03*
D166*
X0235742Y0134840D03*
X0241687Y0135273D03*
X0246254Y0131494D03*
X0246254Y0131454D03*
X0246254Y0131415D03*
X0246254Y0131376D03*
X0246254Y0131336D03*
X0243340Y0128974D03*
X0243340Y0128935D03*
X0243340Y0128895D03*
X0250387Y0127517D03*
X0253143Y0127163D03*
X0253380Y0134880D03*
X0253340Y0134919D03*
X0250387Y0134643D03*
X0250387Y0134604D03*
D167*
X0246332Y0132084D03*
X0246332Y0132045D03*
X0246332Y0132006D03*
X0246332Y0131966D03*
X0243380Y0129368D03*
X0243380Y0129328D03*
X0243380Y0129289D03*
X0241844Y0135116D03*
X0241805Y0135155D03*
X0235584Y0134604D03*
X0235545Y0134565D03*
X0235860Y0127242D03*
X0235899Y0127202D03*
X0250309Y0127399D03*
X0253301Y0127360D03*
X0253537Y0134643D03*
D168*
X0253616Y0134525D03*
X0253419Y0127517D03*
X0253380Y0127478D03*
X0250269Y0127360D03*
X0246372Y0132281D03*
X0246372Y0132320D03*
X0246372Y0132360D03*
X0243419Y0129643D03*
X0243419Y0129604D03*
X0243419Y0129565D03*
X0241883Y0135037D03*
X0235506Y0134486D03*
X0235466Y0134407D03*
X0235781Y0127360D03*
D169*
X0235761Y0127399D03*
X0235722Y0127439D03*
X0235407Y0134328D03*
X0235446Y0134368D03*
X0243399Y0129722D03*
X0243399Y0129683D03*
X0246391Y0132399D03*
X0246391Y0132439D03*
X0246391Y0132478D03*
X0246391Y0132517D03*
X0250250Y0134840D03*
X0253635Y0134486D03*
X0253675Y0134446D03*
X0253478Y0127596D03*
X0253439Y0127557D03*
D170*
X0253517Y0127675D03*
X0253557Y0127714D03*
X0253754Y0134289D03*
X0253714Y0134368D03*
X0246431Y0132754D03*
X0246431Y0132714D03*
X0246431Y0132675D03*
X0243439Y0129998D03*
X0241982Y0134919D03*
X0238990Y0135037D03*
X0235328Y0134171D03*
X0235328Y0134131D03*
X0235604Y0127596D03*
X0235643Y0127557D03*
D171*
X0235584Y0127635D03*
X0235545Y0127714D03*
X0235269Y0134013D03*
X0235269Y0134053D03*
X0235309Y0134092D03*
X0242002Y0134880D03*
X0242041Y0134840D03*
X0243419Y0130273D03*
X0243419Y0130234D03*
X0243419Y0130194D03*
X0243419Y0130155D03*
X0243419Y0130116D03*
X0243419Y0130076D03*
X0243419Y0130037D03*
X0246450Y0132793D03*
X0246450Y0132832D03*
X0246450Y0132872D03*
X0246450Y0132911D03*
X0250191Y0134880D03*
X0253773Y0134250D03*
X0253813Y0134210D03*
X0253813Y0134171D03*
X0253616Y0127832D03*
X0253576Y0127793D03*
X0253576Y0127754D03*
D172*
X0253754Y0128069D03*
X0253754Y0128108D03*
X0253793Y0128147D03*
X0253990Y0133777D03*
X0253950Y0133856D03*
X0253950Y0133895D03*
X0253911Y0133974D03*
X0246509Y0133265D03*
X0246509Y0133226D03*
X0246509Y0133187D03*
X0243399Y0130667D03*
X0243399Y0130628D03*
X0243399Y0130588D03*
X0243399Y0130549D03*
X0243399Y0130509D03*
X0242179Y0134643D03*
X0242139Y0134683D03*
X0235131Y0133698D03*
X0235131Y0133659D03*
X0235092Y0133620D03*
X0235092Y0133580D03*
X0235368Y0128029D03*
X0235407Y0127950D03*
D173*
X0235112Y0128620D03*
X0235072Y0128738D03*
X0235072Y0128777D03*
X0235033Y0128817D03*
X0235033Y0128856D03*
X0234994Y0128974D03*
X0234757Y0132124D03*
X0234757Y0132163D03*
X0234797Y0132360D03*
X0234797Y0132399D03*
X0234797Y0132439D03*
X0234797Y0132478D03*
X0234797Y0132517D03*
X0234836Y0132557D03*
X0234836Y0132596D03*
X0234836Y0132635D03*
X0234836Y0132675D03*
X0234876Y0132832D03*
X0242356Y0134328D03*
X0242395Y0134289D03*
X0242395Y0134250D03*
X0243301Y0131454D03*
X0243301Y0131415D03*
X0243301Y0131376D03*
X0243301Y0131336D03*
X0246608Y0133817D03*
X0246608Y0133856D03*
X0246608Y0133895D03*
X0254206Y0133108D03*
X0254206Y0133069D03*
X0254246Y0132990D03*
X0254246Y0132950D03*
X0254246Y0132911D03*
X0254285Y0132793D03*
X0254285Y0132754D03*
X0254128Y0129013D03*
X0254128Y0128974D03*
X0254088Y0128935D03*
X0254088Y0128895D03*
X0254088Y0128856D03*
X0254049Y0128777D03*
D174*
X0254206Y0129289D03*
X0254246Y0129407D03*
X0254246Y0129446D03*
X0254246Y0129486D03*
X0254246Y0129525D03*
X0254285Y0129565D03*
X0254285Y0129604D03*
X0254285Y0129643D03*
X0254285Y0129683D03*
X0254324Y0129801D03*
X0254324Y0129840D03*
X0254364Y0130076D03*
X0254403Y0131887D03*
X0254403Y0131927D03*
X0254403Y0131966D03*
X0254403Y0132006D03*
X0254403Y0132045D03*
X0254403Y0132084D03*
X0254403Y0132124D03*
X0254403Y0132163D03*
X0254364Y0132202D03*
X0254364Y0132242D03*
X0254364Y0132281D03*
X0254364Y0132320D03*
X0254364Y0132360D03*
X0254324Y0132557D03*
X0246647Y0134053D03*
X0246647Y0134092D03*
X0246647Y0134131D03*
X0243222Y0131887D03*
X0243222Y0131848D03*
X0243261Y0131730D03*
X0243261Y0131691D03*
X0243261Y0131651D03*
X0243261Y0131612D03*
X0242513Y0134013D03*
X0242513Y0134053D03*
X0242474Y0134092D03*
X0234718Y0131809D03*
X0234718Y0131769D03*
X0234718Y0131730D03*
X0234718Y0131691D03*
X0234718Y0131651D03*
X0234718Y0131612D03*
X0234718Y0131572D03*
X0234718Y0131533D03*
X0234718Y0131494D03*
X0234718Y0131454D03*
X0234718Y0131415D03*
X0234718Y0131376D03*
X0234718Y0131336D03*
X0234718Y0131297D03*
X0234718Y0131257D03*
X0234718Y0131218D03*
X0234718Y0131179D03*
X0234718Y0131139D03*
X0234718Y0131100D03*
X0234718Y0131061D03*
X0234718Y0131021D03*
X0234718Y0130982D03*
X0234718Y0130943D03*
X0234718Y0130903D03*
X0234718Y0130864D03*
X0234718Y0130824D03*
X0234718Y0130785D03*
X0234718Y0130746D03*
X0234718Y0130706D03*
X0234718Y0130667D03*
X0234718Y0130628D03*
X0234718Y0130588D03*
X0234718Y0130549D03*
X0234718Y0130509D03*
X0234718Y0130470D03*
X0234718Y0130431D03*
X0234757Y0130234D03*
X0234757Y0130194D03*
X0234757Y0130155D03*
X0234757Y0130116D03*
X0234757Y0130076D03*
X0234797Y0129958D03*
X0234797Y0129919D03*
X0234797Y0129880D03*
X0234797Y0129840D03*
X0234797Y0129801D03*
X0234836Y0129722D03*
X0234836Y0129683D03*
X0234836Y0129643D03*
X0234836Y0129604D03*
X0234836Y0129565D03*
X0234876Y0129525D03*
X0234876Y0129486D03*
X0234876Y0129446D03*
X0234876Y0129407D03*
X0234915Y0129289D03*
X0234915Y0129250D03*
X0234954Y0129131D03*
D175*
X0246706Y0134761D03*
D176*
X0236431Y0135549D03*
D177*
X0236470Y0135588D03*
X0241155Y0135706D03*
D178*
X0241076Y0135746D03*
X0252572Y0135588D03*
D179*
X0236864Y0135785D03*
D180*
X0240840Y0135824D03*
D181*
X0238852Y0135943D03*
X0250230Y0135982D03*
D182*
X0244561Y0140155D03*
D183*
X0244561Y0140194D03*
M02*
