G75*
%MOIN*%
%OFA0B0*%
%FSLAX25Y25*%
%IPPOS*%
%LPD*%
%AMOC8*
5,1,8,0,0,1.08239X$1,22.5*
%
%ADD10C,0.00800*%
%ADD11C,0.00500*%
%ADD12C,0.00400*%
%ADD13C,0.00600*%
%ADD14C,0.00200*%
%ADD15R,0.01181X0.00591*%
%ADD16R,0.01181X0.01181*%
%ADD17C,0.00300*%
%ADD18R,0.01772X0.00039*%
%ADD19R,0.02480X0.00039*%
%ADD20R,0.03031X0.00039*%
%ADD21R,0.03504X0.00039*%
%ADD22R,0.03976X0.00039*%
%ADD23R,0.04291X0.00039*%
%ADD24R,0.04685X0.00039*%
%ADD25R,0.05000X0.00039*%
%ADD26R,0.05315X0.00039*%
%ADD27R,0.05551X0.00039*%
%ADD28R,0.05866X0.00039*%
%ADD29R,0.06102X0.00039*%
%ADD30R,0.06339X0.00039*%
%ADD31R,0.06575X0.00039*%
%ADD32R,0.06811X0.00039*%
%ADD33R,0.06969X0.00039*%
%ADD34R,0.07205X0.00039*%
%ADD35R,0.07441X0.00039*%
%ADD36R,0.07598X0.00039*%
%ADD37R,0.07756X0.00039*%
%ADD38R,0.07992X0.00039*%
%ADD39R,0.08150X0.00039*%
%ADD40R,0.08307X0.00039*%
%ADD41R,0.08465X0.00039*%
%ADD42R,0.08701X0.00039*%
%ADD43R,0.08858X0.00039*%
%ADD44R,0.09016X0.00039*%
%ADD45R,0.09173X0.00039*%
%ADD46R,0.04134X0.00039*%
%ADD47R,0.03937X0.00039*%
%ADD48R,0.04094X0.00039*%
%ADD49R,0.03898X0.00039*%
%ADD50R,0.04055X0.00039*%
%ADD51R,0.03858X0.00039*%
%ADD52R,0.04016X0.00039*%
%ADD53R,0.03819X0.00039*%
%ADD54R,0.04173X0.00039*%
%ADD55R,0.04213X0.00039*%
%ADD56R,0.04252X0.00039*%
%ADD57R,0.04331X0.00039*%
%ADD58R,0.04409X0.00039*%
%ADD59R,0.04449X0.00039*%
%ADD60R,0.04488X0.00039*%
%ADD61R,0.04370X0.00039*%
%ADD62R,0.04528X0.00039*%
%ADD63R,0.04567X0.00039*%
%ADD64R,0.04606X0.00039*%
%ADD65R,0.04646X0.00039*%
%ADD66R,0.04724X0.00039*%
%ADD67R,0.04764X0.00039*%
%ADD68R,0.04803X0.00039*%
%ADD69R,0.04843X0.00039*%
%ADD70R,0.04882X0.00039*%
%ADD71R,0.04921X0.00039*%
%ADD72R,0.04961X0.00039*%
%ADD73R,0.05039X0.00039*%
%ADD74R,0.05079X0.00039*%
%ADD75R,0.05118X0.00039*%
%ADD76R,0.05157X0.00039*%
%ADD77R,0.05197X0.00039*%
%ADD78R,0.05236X0.00039*%
%ADD79R,0.05276X0.00039*%
%ADD80R,0.05354X0.00039*%
%ADD81R,0.05394X0.00039*%
%ADD82R,0.05433X0.00039*%
%ADD83R,0.05472X0.00039*%
%ADD84R,0.05512X0.00039*%
%ADD85R,0.05591X0.00039*%
%ADD86R,0.05630X0.00039*%
%ADD87R,0.05669X0.00039*%
%ADD88R,0.05709X0.00039*%
%ADD89R,0.05748X0.00039*%
%ADD90R,0.05787X0.00039*%
%ADD91R,0.05827X0.00039*%
%ADD92R,0.05906X0.00039*%
%ADD93R,0.05945X0.00039*%
%ADD94R,0.05984X0.00039*%
%ADD95R,0.06024X0.00039*%
%ADD96R,0.06063X0.00039*%
%ADD97R,0.06142X0.00039*%
%ADD98R,0.06181X0.00039*%
%ADD99R,0.06220X0.00039*%
%ADD100R,0.06260X0.00039*%
%ADD101R,0.06299X0.00039*%
%ADD102R,0.06378X0.00039*%
%ADD103R,0.06457X0.00039*%
%ADD104R,0.06496X0.00039*%
%ADD105R,0.06535X0.00039*%
%ADD106R,0.06614X0.00039*%
%ADD107R,0.06693X0.00039*%
%ADD108R,0.06732X0.00039*%
%ADD109R,0.06654X0.00039*%
%ADD110R,0.02638X0.00039*%
%ADD111R,0.00551X0.00039*%
%ADD112R,0.06850X0.00039*%
%ADD113R,0.02402X0.00039*%
%ADD114R,0.02795X0.00039*%
%ADD115R,0.06890X0.00039*%
%ADD116R,0.02244X0.00039*%
%ADD117R,0.02677X0.00039*%
%ADD118R,0.02087X0.00039*%
%ADD119R,0.02559X0.00039*%
%ADD120R,0.07008X0.00039*%
%ADD121R,0.02008X0.00039*%
%ADD122R,0.02441X0.00039*%
%ADD123R,0.07087X0.00039*%
%ADD124R,0.01850X0.00039*%
%ADD125R,0.02362X0.00039*%
%ADD126R,0.07126X0.00039*%
%ADD127R,0.01811X0.00039*%
%ADD128R,0.02323X0.00039*%
%ADD129R,0.00197X0.00039*%
%ADD130R,0.00591X0.00039*%
%ADD131R,0.02283X0.00039*%
%ADD132R,0.01693X0.00039*%
%ADD133R,0.00118X0.00039*%
%ADD134R,0.02047X0.00039*%
%ADD135R,0.01654X0.00039*%
%ADD136R,0.02205X0.00039*%
%ADD137R,0.01929X0.00039*%
%ADD138R,0.01614X0.00039*%
%ADD139R,0.02165X0.00039*%
%ADD140R,0.01535X0.00039*%
%ADD141R,0.01732X0.00039*%
%ADD142R,0.01496X0.00039*%
%ADD143R,0.00157X0.00039*%
%ADD144R,0.01417X0.00039*%
%ADD145R,0.00236X0.00039*%
%ADD146R,0.01378X0.00039*%
%ADD147R,0.00276X0.00039*%
%ADD148R,0.01575X0.00039*%
%ADD149R,0.01339X0.00039*%
%ADD150R,0.00315X0.00039*%
%ADD151R,0.01299X0.00039*%
%ADD152R,0.00394X0.00039*%
%ADD153R,0.01457X0.00039*%
%ADD154R,0.01220X0.00039*%
%ADD155R,0.00472X0.00039*%
%ADD156R,0.00512X0.00039*%
%ADD157R,0.01181X0.00039*%
%ADD158R,0.01102X0.00039*%
%ADD159R,0.00669X0.00039*%
%ADD160R,0.01260X0.00039*%
%ADD161R,0.00709X0.00039*%
%ADD162R,0.00827X0.00039*%
%ADD163R,0.01063X0.00039*%
%ADD164R,0.00945X0.00039*%
%ADD165R,0.01024X0.00039*%
%ADD166R,0.01142X0.00039*%
%ADD167R,0.00984X0.00039*%
%ADD168R,0.00906X0.00039*%
%ADD169R,0.00866X0.00039*%
%ADD170R,0.00787X0.00039*%
%ADD171R,0.00748X0.00039*%
%ADD172R,0.00630X0.00039*%
%ADD173R,0.00433X0.00039*%
%ADD174R,0.00354X0.00039*%
%ADD175R,0.00079X0.00039*%
%ADD176R,0.01890X0.00039*%
%ADD177R,0.01969X0.00039*%
%ADD178R,0.02126X0.00039*%
%ADD179R,0.02598X0.00039*%
%ADD180R,0.02520X0.00039*%
%ADD181R,0.06417X0.00039*%
%ADD182R,0.09409X0.00039*%
%ADD183R,0.09331X0.00039*%
D10*
X0009767Y0015673D02*
X0009769Y0015826D01*
X0009775Y0015980D01*
X0009785Y0016133D01*
X0009799Y0016285D01*
X0009817Y0016438D01*
X0009839Y0016589D01*
X0009864Y0016740D01*
X0009894Y0016891D01*
X0009928Y0017041D01*
X0009965Y0017189D01*
X0010006Y0017337D01*
X0010051Y0017483D01*
X0010100Y0017629D01*
X0010153Y0017773D01*
X0010209Y0017915D01*
X0010269Y0018056D01*
X0010333Y0018196D01*
X0010400Y0018334D01*
X0010471Y0018470D01*
X0010546Y0018604D01*
X0010623Y0018736D01*
X0010705Y0018866D01*
X0010789Y0018994D01*
X0010877Y0019120D01*
X0010968Y0019243D01*
X0011062Y0019364D01*
X0011160Y0019482D01*
X0011260Y0019598D01*
X0011364Y0019711D01*
X0011470Y0019822D01*
X0011579Y0019930D01*
X0011691Y0020035D01*
X0011805Y0020136D01*
X0011923Y0020235D01*
X0012042Y0020331D01*
X0012164Y0020424D01*
X0012289Y0020513D01*
X0012416Y0020600D01*
X0012545Y0020682D01*
X0012676Y0020762D01*
X0012809Y0020838D01*
X0012944Y0020911D01*
X0013081Y0020980D01*
X0013220Y0021045D01*
X0013360Y0021107D01*
X0013502Y0021165D01*
X0013645Y0021220D01*
X0013790Y0021271D01*
X0013936Y0021318D01*
X0014083Y0021361D01*
X0014231Y0021400D01*
X0014380Y0021436D01*
X0014530Y0021467D01*
X0014681Y0021495D01*
X0014832Y0021519D01*
X0014985Y0021539D01*
X0015137Y0021555D01*
X0015290Y0021567D01*
X0015443Y0021575D01*
X0015596Y0021579D01*
X0015750Y0021579D01*
X0015903Y0021575D01*
X0016056Y0021567D01*
X0016209Y0021555D01*
X0016361Y0021539D01*
X0016514Y0021519D01*
X0016665Y0021495D01*
X0016816Y0021467D01*
X0016966Y0021436D01*
X0017115Y0021400D01*
X0017263Y0021361D01*
X0017410Y0021318D01*
X0017556Y0021271D01*
X0017701Y0021220D01*
X0017844Y0021165D01*
X0017986Y0021107D01*
X0018126Y0021045D01*
X0018265Y0020980D01*
X0018402Y0020911D01*
X0018537Y0020838D01*
X0018670Y0020762D01*
X0018801Y0020682D01*
X0018930Y0020600D01*
X0019057Y0020513D01*
X0019182Y0020424D01*
X0019304Y0020331D01*
X0019423Y0020235D01*
X0019541Y0020136D01*
X0019655Y0020035D01*
X0019767Y0019930D01*
X0019876Y0019822D01*
X0019982Y0019711D01*
X0020086Y0019598D01*
X0020186Y0019482D01*
X0020284Y0019364D01*
X0020378Y0019243D01*
X0020469Y0019120D01*
X0020557Y0018994D01*
X0020641Y0018866D01*
X0020723Y0018736D01*
X0020800Y0018604D01*
X0020875Y0018470D01*
X0020946Y0018334D01*
X0021013Y0018196D01*
X0021077Y0018056D01*
X0021137Y0017915D01*
X0021193Y0017773D01*
X0021246Y0017629D01*
X0021295Y0017483D01*
X0021340Y0017337D01*
X0021381Y0017189D01*
X0021418Y0017041D01*
X0021452Y0016891D01*
X0021482Y0016740D01*
X0021507Y0016589D01*
X0021529Y0016438D01*
X0021547Y0016285D01*
X0021561Y0016133D01*
X0021571Y0015980D01*
X0021577Y0015826D01*
X0021579Y0015673D01*
X0021577Y0015520D01*
X0021571Y0015366D01*
X0021561Y0015213D01*
X0021547Y0015061D01*
X0021529Y0014908D01*
X0021507Y0014757D01*
X0021482Y0014606D01*
X0021452Y0014455D01*
X0021418Y0014305D01*
X0021381Y0014157D01*
X0021340Y0014009D01*
X0021295Y0013863D01*
X0021246Y0013717D01*
X0021193Y0013573D01*
X0021137Y0013431D01*
X0021077Y0013290D01*
X0021013Y0013150D01*
X0020946Y0013012D01*
X0020875Y0012876D01*
X0020800Y0012742D01*
X0020723Y0012610D01*
X0020641Y0012480D01*
X0020557Y0012352D01*
X0020469Y0012226D01*
X0020378Y0012103D01*
X0020284Y0011982D01*
X0020186Y0011864D01*
X0020086Y0011748D01*
X0019982Y0011635D01*
X0019876Y0011524D01*
X0019767Y0011416D01*
X0019655Y0011311D01*
X0019541Y0011210D01*
X0019423Y0011111D01*
X0019304Y0011015D01*
X0019182Y0010922D01*
X0019057Y0010833D01*
X0018930Y0010746D01*
X0018801Y0010664D01*
X0018670Y0010584D01*
X0018537Y0010508D01*
X0018402Y0010435D01*
X0018265Y0010366D01*
X0018126Y0010301D01*
X0017986Y0010239D01*
X0017844Y0010181D01*
X0017701Y0010126D01*
X0017556Y0010075D01*
X0017410Y0010028D01*
X0017263Y0009985D01*
X0017115Y0009946D01*
X0016966Y0009910D01*
X0016816Y0009879D01*
X0016665Y0009851D01*
X0016514Y0009827D01*
X0016361Y0009807D01*
X0016209Y0009791D01*
X0016056Y0009779D01*
X0015903Y0009771D01*
X0015750Y0009767D01*
X0015596Y0009767D01*
X0015443Y0009771D01*
X0015290Y0009779D01*
X0015137Y0009791D01*
X0014985Y0009807D01*
X0014832Y0009827D01*
X0014681Y0009851D01*
X0014530Y0009879D01*
X0014380Y0009910D01*
X0014231Y0009946D01*
X0014083Y0009985D01*
X0013936Y0010028D01*
X0013790Y0010075D01*
X0013645Y0010126D01*
X0013502Y0010181D01*
X0013360Y0010239D01*
X0013220Y0010301D01*
X0013081Y0010366D01*
X0012944Y0010435D01*
X0012809Y0010508D01*
X0012676Y0010584D01*
X0012545Y0010664D01*
X0012416Y0010746D01*
X0012289Y0010833D01*
X0012164Y0010922D01*
X0012042Y0011015D01*
X0011923Y0011111D01*
X0011805Y0011210D01*
X0011691Y0011311D01*
X0011579Y0011416D01*
X0011470Y0011524D01*
X0011364Y0011635D01*
X0011260Y0011748D01*
X0011160Y0011864D01*
X0011062Y0011982D01*
X0010968Y0012103D01*
X0010877Y0012226D01*
X0010789Y0012352D01*
X0010705Y0012480D01*
X0010623Y0012610D01*
X0010546Y0012742D01*
X0010471Y0012876D01*
X0010400Y0013012D01*
X0010333Y0013150D01*
X0010269Y0013290D01*
X0010209Y0013431D01*
X0010153Y0013573D01*
X0010100Y0013717D01*
X0010051Y0013863D01*
X0010006Y0014009D01*
X0009965Y0014157D01*
X0009928Y0014305D01*
X0009894Y0014455D01*
X0009864Y0014606D01*
X0009839Y0014757D01*
X0009817Y0014908D01*
X0009799Y0015061D01*
X0009785Y0015213D01*
X0009775Y0015366D01*
X0009769Y0015520D01*
X0009767Y0015673D01*
X0055885Y0127035D02*
X0055885Y0131169D01*
X0055885Y0127035D02*
X0069271Y0127035D01*
X0072815Y0130579D01*
X0072815Y0131366D01*
X0070846Y0139240D02*
X0070753Y0139397D01*
X0070656Y0139552D01*
X0070556Y0139705D01*
X0070451Y0139855D01*
X0070343Y0140002D01*
X0070232Y0140147D01*
X0070117Y0140289D01*
X0069998Y0140428D01*
X0069876Y0140565D01*
X0069751Y0140698D01*
X0069623Y0140828D01*
X0069491Y0140955D01*
X0069357Y0141079D01*
X0069219Y0141199D01*
X0069079Y0141316D01*
X0068936Y0141430D01*
X0068790Y0141540D01*
X0068641Y0141646D01*
X0068490Y0141749D01*
X0068337Y0141848D01*
X0068181Y0141943D01*
X0068022Y0142035D01*
X0067862Y0142122D01*
X0067700Y0142206D01*
X0067535Y0142286D01*
X0067369Y0142361D01*
X0067201Y0142433D01*
X0067031Y0142500D01*
X0066859Y0142564D01*
X0066686Y0142623D01*
X0066512Y0142677D01*
X0066336Y0142728D01*
X0066160Y0142774D01*
X0065982Y0142816D01*
X0065803Y0142854D01*
X0065623Y0142887D01*
X0065443Y0142916D01*
X0065262Y0142940D01*
X0065080Y0142960D01*
X0064898Y0142976D01*
X0064715Y0142987D01*
X0064533Y0142994D01*
X0064350Y0142996D01*
X0064167Y0142994D01*
X0063985Y0142987D01*
X0063802Y0142976D01*
X0063620Y0142960D01*
X0063438Y0142940D01*
X0063257Y0142916D01*
X0063077Y0142887D01*
X0062897Y0142854D01*
X0062718Y0142816D01*
X0062540Y0142774D01*
X0062364Y0142728D01*
X0062188Y0142677D01*
X0062014Y0142623D01*
X0061841Y0142564D01*
X0061669Y0142500D01*
X0061499Y0142433D01*
X0061331Y0142361D01*
X0061165Y0142286D01*
X0061000Y0142206D01*
X0060838Y0142122D01*
X0060678Y0142035D01*
X0060519Y0141943D01*
X0060363Y0141848D01*
X0060210Y0141749D01*
X0060059Y0141646D01*
X0059910Y0141540D01*
X0059764Y0141430D01*
X0059621Y0141316D01*
X0059481Y0141199D01*
X0059343Y0141079D01*
X0059209Y0140955D01*
X0059077Y0140828D01*
X0058949Y0140698D01*
X0058824Y0140565D01*
X0058702Y0140428D01*
X0058583Y0140289D01*
X0058468Y0140147D01*
X0058357Y0140002D01*
X0058249Y0139855D01*
X0058144Y0139705D01*
X0058044Y0139552D01*
X0057947Y0139397D01*
X0057854Y0139240D01*
X0055885Y0139831D02*
X0055885Y0143965D01*
X0069271Y0143965D01*
X0072815Y0140421D01*
X0072815Y0139831D01*
X0069221Y0145035D02*
X0072765Y0148579D01*
X0072765Y0149366D01*
X0069221Y0145035D02*
X0055835Y0145035D01*
X0055835Y0149169D01*
X0057804Y0157240D02*
X0057897Y0157397D01*
X0057994Y0157552D01*
X0058094Y0157705D01*
X0058199Y0157855D01*
X0058307Y0158002D01*
X0058418Y0158147D01*
X0058533Y0158289D01*
X0058652Y0158428D01*
X0058774Y0158565D01*
X0058899Y0158698D01*
X0059027Y0158828D01*
X0059159Y0158955D01*
X0059293Y0159079D01*
X0059431Y0159199D01*
X0059571Y0159316D01*
X0059714Y0159430D01*
X0059860Y0159540D01*
X0060009Y0159646D01*
X0060160Y0159749D01*
X0060313Y0159848D01*
X0060469Y0159943D01*
X0060628Y0160035D01*
X0060788Y0160122D01*
X0060950Y0160206D01*
X0061115Y0160286D01*
X0061281Y0160361D01*
X0061449Y0160433D01*
X0061619Y0160500D01*
X0061791Y0160564D01*
X0061964Y0160623D01*
X0062138Y0160677D01*
X0062314Y0160728D01*
X0062490Y0160774D01*
X0062668Y0160816D01*
X0062847Y0160854D01*
X0063027Y0160887D01*
X0063207Y0160916D01*
X0063388Y0160940D01*
X0063570Y0160960D01*
X0063752Y0160976D01*
X0063935Y0160987D01*
X0064117Y0160994D01*
X0064300Y0160996D01*
X0064483Y0160994D01*
X0064665Y0160987D01*
X0064848Y0160976D01*
X0065030Y0160960D01*
X0065212Y0160940D01*
X0065393Y0160916D01*
X0065573Y0160887D01*
X0065753Y0160854D01*
X0065932Y0160816D01*
X0066110Y0160774D01*
X0066286Y0160728D01*
X0066462Y0160677D01*
X0066636Y0160623D01*
X0066809Y0160564D01*
X0066981Y0160500D01*
X0067151Y0160433D01*
X0067319Y0160361D01*
X0067485Y0160286D01*
X0067650Y0160206D01*
X0067812Y0160122D01*
X0067972Y0160035D01*
X0068131Y0159943D01*
X0068287Y0159848D01*
X0068440Y0159749D01*
X0068591Y0159646D01*
X0068740Y0159540D01*
X0068886Y0159430D01*
X0069029Y0159316D01*
X0069169Y0159199D01*
X0069307Y0159079D01*
X0069441Y0158955D01*
X0069573Y0158828D01*
X0069701Y0158698D01*
X0069826Y0158565D01*
X0069948Y0158428D01*
X0070067Y0158289D01*
X0070182Y0158147D01*
X0070293Y0158002D01*
X0070401Y0157855D01*
X0070506Y0157705D01*
X0070606Y0157552D01*
X0070703Y0157397D01*
X0070796Y0157240D01*
X0072765Y0157831D02*
X0072765Y0158421D01*
X0069221Y0161965D01*
X0055835Y0161965D01*
X0055835Y0157831D01*
X0057804Y0149760D02*
X0057897Y0149603D01*
X0057994Y0149448D01*
X0058094Y0149295D01*
X0058199Y0149145D01*
X0058307Y0148998D01*
X0058418Y0148853D01*
X0058533Y0148711D01*
X0058652Y0148572D01*
X0058774Y0148435D01*
X0058899Y0148302D01*
X0059027Y0148172D01*
X0059159Y0148045D01*
X0059293Y0147921D01*
X0059431Y0147801D01*
X0059571Y0147684D01*
X0059714Y0147570D01*
X0059860Y0147460D01*
X0060009Y0147354D01*
X0060160Y0147251D01*
X0060313Y0147152D01*
X0060469Y0147057D01*
X0060628Y0146965D01*
X0060788Y0146878D01*
X0060950Y0146794D01*
X0061115Y0146714D01*
X0061281Y0146639D01*
X0061449Y0146567D01*
X0061619Y0146500D01*
X0061791Y0146436D01*
X0061964Y0146377D01*
X0062138Y0146323D01*
X0062314Y0146272D01*
X0062490Y0146226D01*
X0062668Y0146184D01*
X0062847Y0146146D01*
X0063027Y0146113D01*
X0063207Y0146084D01*
X0063388Y0146060D01*
X0063570Y0146040D01*
X0063752Y0146024D01*
X0063935Y0146013D01*
X0064117Y0146006D01*
X0064300Y0146004D01*
X0064483Y0146006D01*
X0064665Y0146013D01*
X0064848Y0146024D01*
X0065030Y0146040D01*
X0065212Y0146060D01*
X0065393Y0146084D01*
X0065573Y0146113D01*
X0065753Y0146146D01*
X0065932Y0146184D01*
X0066110Y0146226D01*
X0066286Y0146272D01*
X0066462Y0146323D01*
X0066636Y0146377D01*
X0066809Y0146436D01*
X0066981Y0146500D01*
X0067151Y0146567D01*
X0067319Y0146639D01*
X0067485Y0146714D01*
X0067650Y0146794D01*
X0067812Y0146878D01*
X0067972Y0146965D01*
X0068131Y0147057D01*
X0068287Y0147152D01*
X0068440Y0147251D01*
X0068591Y0147354D01*
X0068740Y0147460D01*
X0068886Y0147570D01*
X0069029Y0147684D01*
X0069169Y0147801D01*
X0069307Y0147921D01*
X0069441Y0148045D01*
X0069573Y0148172D01*
X0069701Y0148302D01*
X0069826Y0148435D01*
X0069948Y0148572D01*
X0070067Y0148711D01*
X0070182Y0148853D01*
X0070293Y0148998D01*
X0070401Y0149145D01*
X0070506Y0149295D01*
X0070606Y0149448D01*
X0070703Y0149603D01*
X0070796Y0149760D01*
X0070846Y0131760D02*
X0070753Y0131603D01*
X0070656Y0131448D01*
X0070556Y0131295D01*
X0070451Y0131145D01*
X0070343Y0130998D01*
X0070232Y0130853D01*
X0070117Y0130711D01*
X0069998Y0130572D01*
X0069876Y0130435D01*
X0069751Y0130302D01*
X0069623Y0130172D01*
X0069491Y0130045D01*
X0069357Y0129921D01*
X0069219Y0129801D01*
X0069079Y0129684D01*
X0068936Y0129570D01*
X0068790Y0129460D01*
X0068641Y0129354D01*
X0068490Y0129251D01*
X0068337Y0129152D01*
X0068181Y0129057D01*
X0068022Y0128965D01*
X0067862Y0128878D01*
X0067700Y0128794D01*
X0067535Y0128714D01*
X0067369Y0128639D01*
X0067201Y0128567D01*
X0067031Y0128500D01*
X0066859Y0128436D01*
X0066686Y0128377D01*
X0066512Y0128323D01*
X0066336Y0128272D01*
X0066160Y0128226D01*
X0065982Y0128184D01*
X0065803Y0128146D01*
X0065623Y0128113D01*
X0065443Y0128084D01*
X0065262Y0128060D01*
X0065080Y0128040D01*
X0064898Y0128024D01*
X0064715Y0128013D01*
X0064533Y0128006D01*
X0064350Y0128004D01*
X0064167Y0128006D01*
X0063985Y0128013D01*
X0063802Y0128024D01*
X0063620Y0128040D01*
X0063438Y0128060D01*
X0063257Y0128084D01*
X0063077Y0128113D01*
X0062897Y0128146D01*
X0062718Y0128184D01*
X0062540Y0128226D01*
X0062364Y0128272D01*
X0062188Y0128323D01*
X0062014Y0128377D01*
X0061841Y0128436D01*
X0061669Y0128500D01*
X0061499Y0128567D01*
X0061331Y0128639D01*
X0061165Y0128714D01*
X0061000Y0128794D01*
X0060838Y0128878D01*
X0060678Y0128965D01*
X0060519Y0129057D01*
X0060363Y0129152D01*
X0060210Y0129251D01*
X0060059Y0129354D01*
X0059910Y0129460D01*
X0059764Y0129570D01*
X0059621Y0129684D01*
X0059481Y0129801D01*
X0059343Y0129921D01*
X0059209Y0130045D01*
X0059077Y0130172D01*
X0058949Y0130302D01*
X0058824Y0130435D01*
X0058702Y0130572D01*
X0058583Y0130711D01*
X0058468Y0130853D01*
X0058357Y0130998D01*
X0058249Y0131145D01*
X0058144Y0131295D01*
X0058044Y0131448D01*
X0057947Y0131603D01*
X0057854Y0131760D01*
X0017248Y0184177D02*
X0017250Y0184330D01*
X0017256Y0184484D01*
X0017266Y0184637D01*
X0017280Y0184789D01*
X0017298Y0184942D01*
X0017320Y0185093D01*
X0017345Y0185244D01*
X0017375Y0185395D01*
X0017409Y0185545D01*
X0017446Y0185693D01*
X0017487Y0185841D01*
X0017532Y0185987D01*
X0017581Y0186133D01*
X0017634Y0186277D01*
X0017690Y0186419D01*
X0017750Y0186560D01*
X0017814Y0186700D01*
X0017881Y0186838D01*
X0017952Y0186974D01*
X0018027Y0187108D01*
X0018104Y0187240D01*
X0018186Y0187370D01*
X0018270Y0187498D01*
X0018358Y0187624D01*
X0018449Y0187747D01*
X0018543Y0187868D01*
X0018641Y0187986D01*
X0018741Y0188102D01*
X0018845Y0188215D01*
X0018951Y0188326D01*
X0019060Y0188434D01*
X0019172Y0188539D01*
X0019286Y0188640D01*
X0019404Y0188739D01*
X0019523Y0188835D01*
X0019645Y0188928D01*
X0019770Y0189017D01*
X0019897Y0189104D01*
X0020026Y0189186D01*
X0020157Y0189266D01*
X0020290Y0189342D01*
X0020425Y0189415D01*
X0020562Y0189484D01*
X0020701Y0189549D01*
X0020841Y0189611D01*
X0020983Y0189669D01*
X0021126Y0189724D01*
X0021271Y0189775D01*
X0021417Y0189822D01*
X0021564Y0189865D01*
X0021712Y0189904D01*
X0021861Y0189940D01*
X0022011Y0189971D01*
X0022162Y0189999D01*
X0022313Y0190023D01*
X0022466Y0190043D01*
X0022618Y0190059D01*
X0022771Y0190071D01*
X0022924Y0190079D01*
X0023077Y0190083D01*
X0023231Y0190083D01*
X0023384Y0190079D01*
X0023537Y0190071D01*
X0023690Y0190059D01*
X0023842Y0190043D01*
X0023995Y0190023D01*
X0024146Y0189999D01*
X0024297Y0189971D01*
X0024447Y0189940D01*
X0024596Y0189904D01*
X0024744Y0189865D01*
X0024891Y0189822D01*
X0025037Y0189775D01*
X0025182Y0189724D01*
X0025325Y0189669D01*
X0025467Y0189611D01*
X0025607Y0189549D01*
X0025746Y0189484D01*
X0025883Y0189415D01*
X0026018Y0189342D01*
X0026151Y0189266D01*
X0026282Y0189186D01*
X0026411Y0189104D01*
X0026538Y0189017D01*
X0026663Y0188928D01*
X0026785Y0188835D01*
X0026904Y0188739D01*
X0027022Y0188640D01*
X0027136Y0188539D01*
X0027248Y0188434D01*
X0027357Y0188326D01*
X0027463Y0188215D01*
X0027567Y0188102D01*
X0027667Y0187986D01*
X0027765Y0187868D01*
X0027859Y0187747D01*
X0027950Y0187624D01*
X0028038Y0187498D01*
X0028122Y0187370D01*
X0028204Y0187240D01*
X0028281Y0187108D01*
X0028356Y0186974D01*
X0028427Y0186838D01*
X0028494Y0186700D01*
X0028558Y0186560D01*
X0028618Y0186419D01*
X0028674Y0186277D01*
X0028727Y0186133D01*
X0028776Y0185987D01*
X0028821Y0185841D01*
X0028862Y0185693D01*
X0028899Y0185545D01*
X0028933Y0185395D01*
X0028963Y0185244D01*
X0028988Y0185093D01*
X0029010Y0184942D01*
X0029028Y0184789D01*
X0029042Y0184637D01*
X0029052Y0184484D01*
X0029058Y0184330D01*
X0029060Y0184177D01*
X0029058Y0184024D01*
X0029052Y0183870D01*
X0029042Y0183717D01*
X0029028Y0183565D01*
X0029010Y0183412D01*
X0028988Y0183261D01*
X0028963Y0183110D01*
X0028933Y0182959D01*
X0028899Y0182809D01*
X0028862Y0182661D01*
X0028821Y0182513D01*
X0028776Y0182367D01*
X0028727Y0182221D01*
X0028674Y0182077D01*
X0028618Y0181935D01*
X0028558Y0181794D01*
X0028494Y0181654D01*
X0028427Y0181516D01*
X0028356Y0181380D01*
X0028281Y0181246D01*
X0028204Y0181114D01*
X0028122Y0180984D01*
X0028038Y0180856D01*
X0027950Y0180730D01*
X0027859Y0180607D01*
X0027765Y0180486D01*
X0027667Y0180368D01*
X0027567Y0180252D01*
X0027463Y0180139D01*
X0027357Y0180028D01*
X0027248Y0179920D01*
X0027136Y0179815D01*
X0027022Y0179714D01*
X0026904Y0179615D01*
X0026785Y0179519D01*
X0026663Y0179426D01*
X0026538Y0179337D01*
X0026411Y0179250D01*
X0026282Y0179168D01*
X0026151Y0179088D01*
X0026018Y0179012D01*
X0025883Y0178939D01*
X0025746Y0178870D01*
X0025607Y0178805D01*
X0025467Y0178743D01*
X0025325Y0178685D01*
X0025182Y0178630D01*
X0025037Y0178579D01*
X0024891Y0178532D01*
X0024744Y0178489D01*
X0024596Y0178450D01*
X0024447Y0178414D01*
X0024297Y0178383D01*
X0024146Y0178355D01*
X0023995Y0178331D01*
X0023842Y0178311D01*
X0023690Y0178295D01*
X0023537Y0178283D01*
X0023384Y0178275D01*
X0023231Y0178271D01*
X0023077Y0178271D01*
X0022924Y0178275D01*
X0022771Y0178283D01*
X0022618Y0178295D01*
X0022466Y0178311D01*
X0022313Y0178331D01*
X0022162Y0178355D01*
X0022011Y0178383D01*
X0021861Y0178414D01*
X0021712Y0178450D01*
X0021564Y0178489D01*
X0021417Y0178532D01*
X0021271Y0178579D01*
X0021126Y0178630D01*
X0020983Y0178685D01*
X0020841Y0178743D01*
X0020701Y0178805D01*
X0020562Y0178870D01*
X0020425Y0178939D01*
X0020290Y0179012D01*
X0020157Y0179088D01*
X0020026Y0179168D01*
X0019897Y0179250D01*
X0019770Y0179337D01*
X0019645Y0179426D01*
X0019523Y0179519D01*
X0019404Y0179615D01*
X0019286Y0179714D01*
X0019172Y0179815D01*
X0019060Y0179920D01*
X0018951Y0180028D01*
X0018845Y0180139D01*
X0018741Y0180252D01*
X0018641Y0180368D01*
X0018543Y0180486D01*
X0018449Y0180607D01*
X0018358Y0180730D01*
X0018270Y0180856D01*
X0018186Y0180984D01*
X0018104Y0181114D01*
X0018027Y0181246D01*
X0017952Y0181380D01*
X0017881Y0181516D01*
X0017814Y0181654D01*
X0017750Y0181794D01*
X0017690Y0181935D01*
X0017634Y0182077D01*
X0017581Y0182221D01*
X0017532Y0182367D01*
X0017487Y0182513D01*
X0017446Y0182661D01*
X0017409Y0182809D01*
X0017375Y0182959D01*
X0017345Y0183110D01*
X0017320Y0183261D01*
X0017298Y0183412D01*
X0017280Y0183565D01*
X0017266Y0183717D01*
X0017256Y0183870D01*
X0017250Y0184024D01*
X0017248Y0184177D01*
X0186900Y0185573D02*
X0186900Y0179435D01*
X0188435Y0177900D01*
X0191504Y0177900D01*
X0193039Y0179435D01*
X0193039Y0185573D01*
X0191504Y0187108D01*
X0188435Y0187108D01*
X0186900Y0185573D01*
X0196108Y0184039D02*
X0200712Y0184039D01*
X0202246Y0182504D01*
X0202246Y0179435D01*
X0200712Y0177900D01*
X0196108Y0177900D01*
X0196108Y0174831D02*
X0196108Y0184039D01*
X0205316Y0182504D02*
X0205316Y0179435D01*
X0206850Y0177900D01*
X0209920Y0177900D01*
X0211454Y0180969D02*
X0205316Y0180969D01*
X0205316Y0182504D02*
X0206850Y0184039D01*
X0209920Y0184039D01*
X0211454Y0182504D01*
X0211454Y0180969D01*
X0214524Y0177900D02*
X0214524Y0184039D01*
X0219128Y0184039D01*
X0220662Y0182504D01*
X0220662Y0177900D01*
X0223731Y0177900D02*
X0228335Y0177900D01*
X0229870Y0179435D01*
X0229870Y0180969D01*
X0228335Y0182504D01*
X0223731Y0182504D01*
X0228335Y0182504D02*
X0229870Y0184039D01*
X0229870Y0185573D01*
X0228335Y0187108D01*
X0223731Y0187108D01*
X0223731Y0177900D01*
X0232939Y0177900D02*
X0239078Y0177900D01*
X0242147Y0177900D02*
X0245216Y0180969D01*
X0248286Y0177900D01*
X0248286Y0187108D01*
X0242147Y0187108D02*
X0242147Y0177900D01*
X0232939Y0177900D02*
X0232939Y0187108D01*
X0256421Y0184177D02*
X0256423Y0184330D01*
X0256429Y0184484D01*
X0256439Y0184637D01*
X0256453Y0184789D01*
X0256471Y0184942D01*
X0256493Y0185093D01*
X0256518Y0185244D01*
X0256548Y0185395D01*
X0256582Y0185545D01*
X0256619Y0185693D01*
X0256660Y0185841D01*
X0256705Y0185987D01*
X0256754Y0186133D01*
X0256807Y0186277D01*
X0256863Y0186419D01*
X0256923Y0186560D01*
X0256987Y0186700D01*
X0257054Y0186838D01*
X0257125Y0186974D01*
X0257200Y0187108D01*
X0257277Y0187240D01*
X0257359Y0187370D01*
X0257443Y0187498D01*
X0257531Y0187624D01*
X0257622Y0187747D01*
X0257716Y0187868D01*
X0257814Y0187986D01*
X0257914Y0188102D01*
X0258018Y0188215D01*
X0258124Y0188326D01*
X0258233Y0188434D01*
X0258345Y0188539D01*
X0258459Y0188640D01*
X0258577Y0188739D01*
X0258696Y0188835D01*
X0258818Y0188928D01*
X0258943Y0189017D01*
X0259070Y0189104D01*
X0259199Y0189186D01*
X0259330Y0189266D01*
X0259463Y0189342D01*
X0259598Y0189415D01*
X0259735Y0189484D01*
X0259874Y0189549D01*
X0260014Y0189611D01*
X0260156Y0189669D01*
X0260299Y0189724D01*
X0260444Y0189775D01*
X0260590Y0189822D01*
X0260737Y0189865D01*
X0260885Y0189904D01*
X0261034Y0189940D01*
X0261184Y0189971D01*
X0261335Y0189999D01*
X0261486Y0190023D01*
X0261639Y0190043D01*
X0261791Y0190059D01*
X0261944Y0190071D01*
X0262097Y0190079D01*
X0262250Y0190083D01*
X0262404Y0190083D01*
X0262557Y0190079D01*
X0262710Y0190071D01*
X0262863Y0190059D01*
X0263015Y0190043D01*
X0263168Y0190023D01*
X0263319Y0189999D01*
X0263470Y0189971D01*
X0263620Y0189940D01*
X0263769Y0189904D01*
X0263917Y0189865D01*
X0264064Y0189822D01*
X0264210Y0189775D01*
X0264355Y0189724D01*
X0264498Y0189669D01*
X0264640Y0189611D01*
X0264780Y0189549D01*
X0264919Y0189484D01*
X0265056Y0189415D01*
X0265191Y0189342D01*
X0265324Y0189266D01*
X0265455Y0189186D01*
X0265584Y0189104D01*
X0265711Y0189017D01*
X0265836Y0188928D01*
X0265958Y0188835D01*
X0266077Y0188739D01*
X0266195Y0188640D01*
X0266309Y0188539D01*
X0266421Y0188434D01*
X0266530Y0188326D01*
X0266636Y0188215D01*
X0266740Y0188102D01*
X0266840Y0187986D01*
X0266938Y0187868D01*
X0267032Y0187747D01*
X0267123Y0187624D01*
X0267211Y0187498D01*
X0267295Y0187370D01*
X0267377Y0187240D01*
X0267454Y0187108D01*
X0267529Y0186974D01*
X0267600Y0186838D01*
X0267667Y0186700D01*
X0267731Y0186560D01*
X0267791Y0186419D01*
X0267847Y0186277D01*
X0267900Y0186133D01*
X0267949Y0185987D01*
X0267994Y0185841D01*
X0268035Y0185693D01*
X0268072Y0185545D01*
X0268106Y0185395D01*
X0268136Y0185244D01*
X0268161Y0185093D01*
X0268183Y0184942D01*
X0268201Y0184789D01*
X0268215Y0184637D01*
X0268225Y0184484D01*
X0268231Y0184330D01*
X0268233Y0184177D01*
X0268231Y0184024D01*
X0268225Y0183870D01*
X0268215Y0183717D01*
X0268201Y0183565D01*
X0268183Y0183412D01*
X0268161Y0183261D01*
X0268136Y0183110D01*
X0268106Y0182959D01*
X0268072Y0182809D01*
X0268035Y0182661D01*
X0267994Y0182513D01*
X0267949Y0182367D01*
X0267900Y0182221D01*
X0267847Y0182077D01*
X0267791Y0181935D01*
X0267731Y0181794D01*
X0267667Y0181654D01*
X0267600Y0181516D01*
X0267529Y0181380D01*
X0267454Y0181246D01*
X0267377Y0181114D01*
X0267295Y0180984D01*
X0267211Y0180856D01*
X0267123Y0180730D01*
X0267032Y0180607D01*
X0266938Y0180486D01*
X0266840Y0180368D01*
X0266740Y0180252D01*
X0266636Y0180139D01*
X0266530Y0180028D01*
X0266421Y0179920D01*
X0266309Y0179815D01*
X0266195Y0179714D01*
X0266077Y0179615D01*
X0265958Y0179519D01*
X0265836Y0179426D01*
X0265711Y0179337D01*
X0265584Y0179250D01*
X0265455Y0179168D01*
X0265324Y0179088D01*
X0265191Y0179012D01*
X0265056Y0178939D01*
X0264919Y0178870D01*
X0264780Y0178805D01*
X0264640Y0178743D01*
X0264498Y0178685D01*
X0264355Y0178630D01*
X0264210Y0178579D01*
X0264064Y0178532D01*
X0263917Y0178489D01*
X0263769Y0178450D01*
X0263620Y0178414D01*
X0263470Y0178383D01*
X0263319Y0178355D01*
X0263168Y0178331D01*
X0263015Y0178311D01*
X0262863Y0178295D01*
X0262710Y0178283D01*
X0262557Y0178275D01*
X0262404Y0178271D01*
X0262250Y0178271D01*
X0262097Y0178275D01*
X0261944Y0178283D01*
X0261791Y0178295D01*
X0261639Y0178311D01*
X0261486Y0178331D01*
X0261335Y0178355D01*
X0261184Y0178383D01*
X0261034Y0178414D01*
X0260885Y0178450D01*
X0260737Y0178489D01*
X0260590Y0178532D01*
X0260444Y0178579D01*
X0260299Y0178630D01*
X0260156Y0178685D01*
X0260014Y0178743D01*
X0259874Y0178805D01*
X0259735Y0178870D01*
X0259598Y0178939D01*
X0259463Y0179012D01*
X0259330Y0179088D01*
X0259199Y0179168D01*
X0259070Y0179250D01*
X0258943Y0179337D01*
X0258818Y0179426D01*
X0258696Y0179519D01*
X0258577Y0179615D01*
X0258459Y0179714D01*
X0258345Y0179815D01*
X0258233Y0179920D01*
X0258124Y0180028D01*
X0258018Y0180139D01*
X0257914Y0180252D01*
X0257814Y0180368D01*
X0257716Y0180486D01*
X0257622Y0180607D01*
X0257531Y0180730D01*
X0257443Y0180856D01*
X0257359Y0180984D01*
X0257277Y0181114D01*
X0257200Y0181246D01*
X0257125Y0181380D01*
X0257054Y0181516D01*
X0256987Y0181654D01*
X0256923Y0181794D01*
X0256863Y0181935D01*
X0256807Y0182077D01*
X0256754Y0182221D01*
X0256705Y0182367D01*
X0256660Y0182513D01*
X0256619Y0182661D01*
X0256582Y0182809D01*
X0256548Y0182959D01*
X0256518Y0183110D01*
X0256493Y0183261D01*
X0256471Y0183412D01*
X0256453Y0183565D01*
X0256439Y0183717D01*
X0256429Y0183870D01*
X0256423Y0184024D01*
X0256421Y0184177D01*
X0264885Y0015673D02*
X0264887Y0015826D01*
X0264893Y0015980D01*
X0264903Y0016133D01*
X0264917Y0016285D01*
X0264935Y0016438D01*
X0264957Y0016589D01*
X0264982Y0016740D01*
X0265012Y0016891D01*
X0265046Y0017041D01*
X0265083Y0017189D01*
X0265124Y0017337D01*
X0265169Y0017483D01*
X0265218Y0017629D01*
X0265271Y0017773D01*
X0265327Y0017915D01*
X0265387Y0018056D01*
X0265451Y0018196D01*
X0265518Y0018334D01*
X0265589Y0018470D01*
X0265664Y0018604D01*
X0265741Y0018736D01*
X0265823Y0018866D01*
X0265907Y0018994D01*
X0265995Y0019120D01*
X0266086Y0019243D01*
X0266180Y0019364D01*
X0266278Y0019482D01*
X0266378Y0019598D01*
X0266482Y0019711D01*
X0266588Y0019822D01*
X0266697Y0019930D01*
X0266809Y0020035D01*
X0266923Y0020136D01*
X0267041Y0020235D01*
X0267160Y0020331D01*
X0267282Y0020424D01*
X0267407Y0020513D01*
X0267534Y0020600D01*
X0267663Y0020682D01*
X0267794Y0020762D01*
X0267927Y0020838D01*
X0268062Y0020911D01*
X0268199Y0020980D01*
X0268338Y0021045D01*
X0268478Y0021107D01*
X0268620Y0021165D01*
X0268763Y0021220D01*
X0268908Y0021271D01*
X0269054Y0021318D01*
X0269201Y0021361D01*
X0269349Y0021400D01*
X0269498Y0021436D01*
X0269648Y0021467D01*
X0269799Y0021495D01*
X0269950Y0021519D01*
X0270103Y0021539D01*
X0270255Y0021555D01*
X0270408Y0021567D01*
X0270561Y0021575D01*
X0270714Y0021579D01*
X0270868Y0021579D01*
X0271021Y0021575D01*
X0271174Y0021567D01*
X0271327Y0021555D01*
X0271479Y0021539D01*
X0271632Y0021519D01*
X0271783Y0021495D01*
X0271934Y0021467D01*
X0272084Y0021436D01*
X0272233Y0021400D01*
X0272381Y0021361D01*
X0272528Y0021318D01*
X0272674Y0021271D01*
X0272819Y0021220D01*
X0272962Y0021165D01*
X0273104Y0021107D01*
X0273244Y0021045D01*
X0273383Y0020980D01*
X0273520Y0020911D01*
X0273655Y0020838D01*
X0273788Y0020762D01*
X0273919Y0020682D01*
X0274048Y0020600D01*
X0274175Y0020513D01*
X0274300Y0020424D01*
X0274422Y0020331D01*
X0274541Y0020235D01*
X0274659Y0020136D01*
X0274773Y0020035D01*
X0274885Y0019930D01*
X0274994Y0019822D01*
X0275100Y0019711D01*
X0275204Y0019598D01*
X0275304Y0019482D01*
X0275402Y0019364D01*
X0275496Y0019243D01*
X0275587Y0019120D01*
X0275675Y0018994D01*
X0275759Y0018866D01*
X0275841Y0018736D01*
X0275918Y0018604D01*
X0275993Y0018470D01*
X0276064Y0018334D01*
X0276131Y0018196D01*
X0276195Y0018056D01*
X0276255Y0017915D01*
X0276311Y0017773D01*
X0276364Y0017629D01*
X0276413Y0017483D01*
X0276458Y0017337D01*
X0276499Y0017189D01*
X0276536Y0017041D01*
X0276570Y0016891D01*
X0276600Y0016740D01*
X0276625Y0016589D01*
X0276647Y0016438D01*
X0276665Y0016285D01*
X0276679Y0016133D01*
X0276689Y0015980D01*
X0276695Y0015826D01*
X0276697Y0015673D01*
X0276695Y0015520D01*
X0276689Y0015366D01*
X0276679Y0015213D01*
X0276665Y0015061D01*
X0276647Y0014908D01*
X0276625Y0014757D01*
X0276600Y0014606D01*
X0276570Y0014455D01*
X0276536Y0014305D01*
X0276499Y0014157D01*
X0276458Y0014009D01*
X0276413Y0013863D01*
X0276364Y0013717D01*
X0276311Y0013573D01*
X0276255Y0013431D01*
X0276195Y0013290D01*
X0276131Y0013150D01*
X0276064Y0013012D01*
X0275993Y0012876D01*
X0275918Y0012742D01*
X0275841Y0012610D01*
X0275759Y0012480D01*
X0275675Y0012352D01*
X0275587Y0012226D01*
X0275496Y0012103D01*
X0275402Y0011982D01*
X0275304Y0011864D01*
X0275204Y0011748D01*
X0275100Y0011635D01*
X0274994Y0011524D01*
X0274885Y0011416D01*
X0274773Y0011311D01*
X0274659Y0011210D01*
X0274541Y0011111D01*
X0274422Y0011015D01*
X0274300Y0010922D01*
X0274175Y0010833D01*
X0274048Y0010746D01*
X0273919Y0010664D01*
X0273788Y0010584D01*
X0273655Y0010508D01*
X0273520Y0010435D01*
X0273383Y0010366D01*
X0273244Y0010301D01*
X0273104Y0010239D01*
X0272962Y0010181D01*
X0272819Y0010126D01*
X0272674Y0010075D01*
X0272528Y0010028D01*
X0272381Y0009985D01*
X0272233Y0009946D01*
X0272084Y0009910D01*
X0271934Y0009879D01*
X0271783Y0009851D01*
X0271632Y0009827D01*
X0271479Y0009807D01*
X0271327Y0009791D01*
X0271174Y0009779D01*
X0271021Y0009771D01*
X0270868Y0009767D01*
X0270714Y0009767D01*
X0270561Y0009771D01*
X0270408Y0009779D01*
X0270255Y0009791D01*
X0270103Y0009807D01*
X0269950Y0009827D01*
X0269799Y0009851D01*
X0269648Y0009879D01*
X0269498Y0009910D01*
X0269349Y0009946D01*
X0269201Y0009985D01*
X0269054Y0010028D01*
X0268908Y0010075D01*
X0268763Y0010126D01*
X0268620Y0010181D01*
X0268478Y0010239D01*
X0268338Y0010301D01*
X0268199Y0010366D01*
X0268062Y0010435D01*
X0267927Y0010508D01*
X0267794Y0010584D01*
X0267663Y0010664D01*
X0267534Y0010746D01*
X0267407Y0010833D01*
X0267282Y0010922D01*
X0267160Y0011015D01*
X0267041Y0011111D01*
X0266923Y0011210D01*
X0266809Y0011311D01*
X0266697Y0011416D01*
X0266588Y0011524D01*
X0266482Y0011635D01*
X0266378Y0011748D01*
X0266278Y0011864D01*
X0266180Y0011982D01*
X0266086Y0012103D01*
X0265995Y0012226D01*
X0265907Y0012352D01*
X0265823Y0012480D01*
X0265741Y0012610D01*
X0265664Y0012742D01*
X0265589Y0012876D01*
X0265518Y0013012D01*
X0265451Y0013150D01*
X0265387Y0013290D01*
X0265327Y0013431D01*
X0265271Y0013573D01*
X0265218Y0013717D01*
X0265169Y0013863D01*
X0265124Y0014009D01*
X0265083Y0014157D01*
X0265046Y0014305D01*
X0265012Y0014455D01*
X0264982Y0014606D01*
X0264957Y0014757D01*
X0264935Y0014908D01*
X0264917Y0015061D01*
X0264903Y0015213D01*
X0264893Y0015366D01*
X0264887Y0015520D01*
X0264885Y0015673D01*
D11*
X0173256Y0141358D02*
X0117744Y0141358D01*
X0090374Y0164563D02*
X0086437Y0160626D01*
X0078563Y0160626D01*
X0074626Y0164563D01*
X0074626Y0172437D01*
X0078563Y0176374D01*
X0086437Y0176374D01*
X0090374Y0172437D01*
X0090374Y0164563D01*
X0093531Y0176839D02*
X0093531Y0178807D01*
X0083689Y0178807D01*
X0083689Y0196524D01*
X0107311Y0196524D01*
X0107311Y0178807D01*
X0097469Y0178807D01*
X0097469Y0176839D01*
X0093531Y0176839D01*
X0117744Y0198051D02*
X0173256Y0198051D01*
X0200922Y0173873D02*
X0200922Y0172855D01*
X0200922Y0170820D02*
X0199904Y0170820D01*
X0200922Y0170820D02*
X0200922Y0166750D01*
X0201939Y0166750D02*
X0199904Y0166750D01*
X0197897Y0166750D02*
X0194845Y0166750D01*
X0193827Y0167768D01*
X0194845Y0168785D01*
X0197897Y0168785D01*
X0197897Y0169803D02*
X0197897Y0166750D01*
X0197897Y0169803D02*
X0196880Y0170820D01*
X0194845Y0170820D01*
X0191820Y0172855D02*
X0191820Y0166750D01*
X0187750Y0166750D02*
X0187750Y0172855D01*
X0189785Y0170820D01*
X0191820Y0172855D01*
X0203956Y0170820D02*
X0203956Y0166750D01*
X0208026Y0166750D02*
X0208026Y0169803D01*
X0207008Y0170820D01*
X0203956Y0170820D01*
X0210033Y0171838D02*
X0210033Y0167768D01*
X0211051Y0166750D01*
X0213086Y0166750D01*
X0214103Y0167768D01*
X0216110Y0167768D02*
X0216110Y0169803D01*
X0217128Y0170820D01*
X0219163Y0170820D01*
X0220180Y0169803D01*
X0220180Y0167768D01*
X0219163Y0166750D01*
X0217128Y0166750D01*
X0216110Y0167768D01*
X0214103Y0171838D02*
X0213086Y0172855D01*
X0211051Y0172855D01*
X0210033Y0171838D01*
X0222187Y0170820D02*
X0222187Y0166750D01*
X0226258Y0166750D02*
X0226258Y0169803D01*
X0225240Y0170820D01*
X0222187Y0170820D01*
X0228265Y0170820D02*
X0230300Y0170820D01*
X0229282Y0171838D02*
X0229282Y0167768D01*
X0230300Y0166750D01*
X0232316Y0166750D02*
X0232316Y0170820D01*
X0232316Y0168785D02*
X0234351Y0170820D01*
X0235369Y0170820D01*
X0237380Y0169803D02*
X0237380Y0167768D01*
X0238398Y0166750D01*
X0240433Y0166750D01*
X0241451Y0167768D01*
X0241451Y0169803D01*
X0240433Y0170820D01*
X0238398Y0170820D01*
X0237380Y0169803D01*
X0243458Y0172855D02*
X0244475Y0172855D01*
X0244475Y0166750D01*
X0243458Y0166750D02*
X0245493Y0166750D01*
X0247509Y0166750D02*
X0249544Y0166750D01*
X0248527Y0166750D02*
X0248527Y0172855D01*
X0247509Y0172855D01*
X0251560Y0169803D02*
X0252578Y0170820D01*
X0254613Y0170820D01*
X0255631Y0169803D01*
X0255631Y0168785D01*
X0251560Y0168785D01*
X0251560Y0167768D02*
X0251560Y0169803D01*
X0251560Y0167768D02*
X0252578Y0166750D01*
X0254613Y0166750D01*
X0257638Y0166750D02*
X0257638Y0170820D01*
X0257638Y0168785D02*
X0259673Y0170820D01*
X0260690Y0170820D01*
D12*
X0216952Y0161037D02*
X0216084Y0161904D01*
X0214349Y0161904D01*
X0213482Y0161037D01*
X0216952Y0161037D02*
X0216952Y0160170D01*
X0213482Y0156700D01*
X0216952Y0156700D01*
X0211771Y0156700D02*
X0210904Y0156700D01*
X0210904Y0157567D01*
X0211771Y0157567D01*
X0211771Y0156700D01*
X0209217Y0157567D02*
X0208350Y0156700D01*
X0206615Y0156700D01*
X0205747Y0157567D01*
X0209217Y0161037D01*
X0209217Y0157567D01*
X0205747Y0157567D02*
X0205747Y0161037D01*
X0206615Y0161904D01*
X0208350Y0161904D01*
X0209217Y0161037D01*
X0204037Y0157567D02*
X0204037Y0156700D01*
X0203169Y0156700D01*
X0203169Y0157567D01*
X0204037Y0157567D01*
X0201482Y0160170D02*
X0199748Y0156700D01*
X0198013Y0160170D01*
X0196326Y0159302D02*
X0196326Y0158435D01*
X0192856Y0158435D01*
X0192856Y0159302D02*
X0193724Y0160170D01*
X0195459Y0160170D01*
X0196326Y0159302D01*
X0195459Y0156700D02*
X0193724Y0156700D01*
X0192856Y0157567D01*
X0192856Y0159302D01*
X0191170Y0159302D02*
X0191170Y0161037D01*
X0190302Y0161904D01*
X0187700Y0161904D01*
X0187700Y0156700D01*
X0187700Y0158435D02*
X0190302Y0158435D01*
X0191170Y0159302D01*
X0189435Y0158435D02*
X0191170Y0156700D01*
X0110165Y0186002D02*
X0107096Y0186002D01*
X0108631Y0187537D02*
X0108631Y0184467D01*
X0081165Y0186002D02*
X0078096Y0186002D01*
X0241700Y0028803D02*
X0241700Y0025801D01*
X0242301Y0025200D01*
X0243502Y0025200D01*
X0244102Y0025801D01*
X0244102Y0028803D01*
X0245383Y0027002D02*
X0247785Y0027002D01*
X0247185Y0028803D02*
X0247185Y0025200D01*
X0245383Y0027002D02*
X0247185Y0028803D01*
X0197884Y0012203D02*
X0197884Y0008600D01*
X0196683Y0008600D02*
X0199085Y0008600D01*
X0196683Y0011002D02*
X0197884Y0012203D01*
X0195402Y0012203D02*
X0195402Y0009201D01*
X0194802Y0008600D01*
X0193601Y0008600D01*
X0193000Y0009201D01*
X0193000Y0012203D01*
X0090585Y0011603D02*
X0089985Y0012203D01*
X0088784Y0012203D01*
X0088183Y0011603D01*
X0086902Y0012203D02*
X0086902Y0009201D01*
X0086302Y0008600D01*
X0085101Y0008600D01*
X0084500Y0009201D01*
X0084500Y0012203D01*
X0088183Y0008600D02*
X0090585Y0011002D01*
X0090585Y0011603D01*
X0090585Y0008600D02*
X0088183Y0008600D01*
D13*
X0089961Y0035800D02*
X0089961Y0042205D01*
X0087826Y0040070D01*
X0085691Y0042205D01*
X0085691Y0035800D01*
X0083516Y0035800D02*
X0083516Y0040070D01*
X0081381Y0042205D01*
X0079245Y0040070D01*
X0079245Y0035800D01*
X0077070Y0036868D02*
X0076003Y0035800D01*
X0073868Y0035800D01*
X0072800Y0036868D01*
X0072800Y0041138D01*
X0073868Y0042205D01*
X0076003Y0042205D01*
X0077070Y0041138D01*
X0079245Y0039003D02*
X0083516Y0039003D01*
X0092136Y0040070D02*
X0094272Y0042205D01*
X0094272Y0035800D01*
X0096407Y0035800D02*
X0092136Y0035800D01*
X0123200Y0026200D02*
X0129900Y0026200D01*
X0129900Y0004400D01*
X0044100Y0004400D01*
X0044100Y0026200D01*
X0050800Y0026200D01*
X0004173Y0015673D02*
X0004176Y0015955D01*
X0004187Y0016237D01*
X0004204Y0016519D01*
X0004228Y0016800D01*
X0004259Y0017081D01*
X0004297Y0017360D01*
X0004342Y0017639D01*
X0004394Y0017917D01*
X0004452Y0018193D01*
X0004518Y0018467D01*
X0004590Y0018740D01*
X0004668Y0019011D01*
X0004753Y0019280D01*
X0004845Y0019547D01*
X0004944Y0019812D01*
X0005048Y0020074D01*
X0005160Y0020333D01*
X0005277Y0020590D01*
X0005401Y0020844D01*
X0005531Y0021094D01*
X0005667Y0021341D01*
X0005809Y0021585D01*
X0005957Y0021825D01*
X0006111Y0022062D01*
X0006271Y0022295D01*
X0006436Y0022524D01*
X0006607Y0022748D01*
X0006783Y0022969D01*
X0006965Y0023184D01*
X0007152Y0023396D01*
X0007344Y0023603D01*
X0007541Y0023805D01*
X0007743Y0024002D01*
X0007950Y0024194D01*
X0008162Y0024381D01*
X0008377Y0024563D01*
X0008598Y0024739D01*
X0008822Y0024910D01*
X0009051Y0025075D01*
X0009284Y0025235D01*
X0009521Y0025389D01*
X0009761Y0025537D01*
X0010005Y0025679D01*
X0010252Y0025815D01*
X0010502Y0025945D01*
X0010756Y0026069D01*
X0011013Y0026186D01*
X0011272Y0026298D01*
X0011534Y0026402D01*
X0011799Y0026501D01*
X0012066Y0026593D01*
X0012335Y0026678D01*
X0012606Y0026756D01*
X0012879Y0026828D01*
X0013153Y0026894D01*
X0013429Y0026952D01*
X0013707Y0027004D01*
X0013986Y0027049D01*
X0014265Y0027087D01*
X0014546Y0027118D01*
X0014827Y0027142D01*
X0015109Y0027159D01*
X0015391Y0027170D01*
X0015673Y0027173D01*
X0015955Y0027170D01*
X0016237Y0027159D01*
X0016519Y0027142D01*
X0016800Y0027118D01*
X0017081Y0027087D01*
X0017360Y0027049D01*
X0017639Y0027004D01*
X0017917Y0026952D01*
X0018193Y0026894D01*
X0018467Y0026828D01*
X0018740Y0026756D01*
X0019011Y0026678D01*
X0019280Y0026593D01*
X0019547Y0026501D01*
X0019812Y0026402D01*
X0020074Y0026298D01*
X0020333Y0026186D01*
X0020590Y0026069D01*
X0020844Y0025945D01*
X0021094Y0025815D01*
X0021341Y0025679D01*
X0021585Y0025537D01*
X0021825Y0025389D01*
X0022062Y0025235D01*
X0022295Y0025075D01*
X0022524Y0024910D01*
X0022748Y0024739D01*
X0022969Y0024563D01*
X0023184Y0024381D01*
X0023396Y0024194D01*
X0023603Y0024002D01*
X0023805Y0023805D01*
X0024002Y0023603D01*
X0024194Y0023396D01*
X0024381Y0023184D01*
X0024563Y0022969D01*
X0024739Y0022748D01*
X0024910Y0022524D01*
X0025075Y0022295D01*
X0025235Y0022062D01*
X0025389Y0021825D01*
X0025537Y0021585D01*
X0025679Y0021341D01*
X0025815Y0021094D01*
X0025945Y0020844D01*
X0026069Y0020590D01*
X0026186Y0020333D01*
X0026298Y0020074D01*
X0026402Y0019812D01*
X0026501Y0019547D01*
X0026593Y0019280D01*
X0026678Y0019011D01*
X0026756Y0018740D01*
X0026828Y0018467D01*
X0026894Y0018193D01*
X0026952Y0017917D01*
X0027004Y0017639D01*
X0027049Y0017360D01*
X0027087Y0017081D01*
X0027118Y0016800D01*
X0027142Y0016519D01*
X0027159Y0016237D01*
X0027170Y0015955D01*
X0027173Y0015673D01*
X0027170Y0015391D01*
X0027159Y0015109D01*
X0027142Y0014827D01*
X0027118Y0014546D01*
X0027087Y0014265D01*
X0027049Y0013986D01*
X0027004Y0013707D01*
X0026952Y0013429D01*
X0026894Y0013153D01*
X0026828Y0012879D01*
X0026756Y0012606D01*
X0026678Y0012335D01*
X0026593Y0012066D01*
X0026501Y0011799D01*
X0026402Y0011534D01*
X0026298Y0011272D01*
X0026186Y0011013D01*
X0026069Y0010756D01*
X0025945Y0010502D01*
X0025815Y0010252D01*
X0025679Y0010005D01*
X0025537Y0009761D01*
X0025389Y0009521D01*
X0025235Y0009284D01*
X0025075Y0009051D01*
X0024910Y0008822D01*
X0024739Y0008598D01*
X0024563Y0008377D01*
X0024381Y0008162D01*
X0024194Y0007950D01*
X0024002Y0007743D01*
X0023805Y0007541D01*
X0023603Y0007344D01*
X0023396Y0007152D01*
X0023184Y0006965D01*
X0022969Y0006783D01*
X0022748Y0006607D01*
X0022524Y0006436D01*
X0022295Y0006271D01*
X0022062Y0006111D01*
X0021825Y0005957D01*
X0021585Y0005809D01*
X0021341Y0005667D01*
X0021094Y0005531D01*
X0020844Y0005401D01*
X0020590Y0005277D01*
X0020333Y0005160D01*
X0020074Y0005048D01*
X0019812Y0004944D01*
X0019547Y0004845D01*
X0019280Y0004753D01*
X0019011Y0004668D01*
X0018740Y0004590D01*
X0018467Y0004518D01*
X0018193Y0004452D01*
X0017917Y0004394D01*
X0017639Y0004342D01*
X0017360Y0004297D01*
X0017081Y0004259D01*
X0016800Y0004228D01*
X0016519Y0004204D01*
X0016237Y0004187D01*
X0015955Y0004176D01*
X0015673Y0004173D01*
X0015391Y0004176D01*
X0015109Y0004187D01*
X0014827Y0004204D01*
X0014546Y0004228D01*
X0014265Y0004259D01*
X0013986Y0004297D01*
X0013707Y0004342D01*
X0013429Y0004394D01*
X0013153Y0004452D01*
X0012879Y0004518D01*
X0012606Y0004590D01*
X0012335Y0004668D01*
X0012066Y0004753D01*
X0011799Y0004845D01*
X0011534Y0004944D01*
X0011272Y0005048D01*
X0011013Y0005160D01*
X0010756Y0005277D01*
X0010502Y0005401D01*
X0010252Y0005531D01*
X0010005Y0005667D01*
X0009761Y0005809D01*
X0009521Y0005957D01*
X0009284Y0006111D01*
X0009051Y0006271D01*
X0008822Y0006436D01*
X0008598Y0006607D01*
X0008377Y0006783D01*
X0008162Y0006965D01*
X0007950Y0007152D01*
X0007743Y0007344D01*
X0007541Y0007541D01*
X0007344Y0007743D01*
X0007152Y0007950D01*
X0006965Y0008162D01*
X0006783Y0008377D01*
X0006607Y0008598D01*
X0006436Y0008822D01*
X0006271Y0009051D01*
X0006111Y0009284D01*
X0005957Y0009521D01*
X0005809Y0009761D01*
X0005667Y0010005D01*
X0005531Y0010252D01*
X0005401Y0010502D01*
X0005277Y0010756D01*
X0005160Y0011013D01*
X0005048Y0011272D01*
X0004944Y0011534D01*
X0004845Y0011799D01*
X0004753Y0012066D01*
X0004668Y0012335D01*
X0004590Y0012606D01*
X0004518Y0012879D01*
X0004452Y0013153D01*
X0004394Y0013429D01*
X0004342Y0013707D01*
X0004297Y0013986D01*
X0004259Y0014265D01*
X0004228Y0014546D01*
X0004204Y0014827D01*
X0004187Y0015109D01*
X0004176Y0015391D01*
X0004173Y0015673D01*
X0122500Y0102000D02*
X0125000Y0099500D01*
X0140000Y0099500D01*
X0142500Y0102000D01*
X0142500Y0107000D01*
X0140000Y0109500D01*
X0125000Y0109500D01*
X0122500Y0107000D01*
X0122500Y0102000D01*
X0125000Y0109500D02*
X0122500Y0112000D01*
X0122500Y0117000D01*
X0125000Y0119500D01*
X0140000Y0119500D01*
X0142500Y0117000D01*
X0142500Y0112000D01*
X0140000Y0109500D01*
X0140000Y0119500D02*
X0142500Y0122000D01*
X0142500Y0127000D01*
X0140000Y0129500D01*
X0125000Y0129500D01*
X0122500Y0127000D01*
X0122500Y0122000D01*
X0125000Y0119500D01*
X0011654Y0184177D02*
X0011657Y0184459D01*
X0011668Y0184741D01*
X0011685Y0185023D01*
X0011709Y0185304D01*
X0011740Y0185585D01*
X0011778Y0185864D01*
X0011823Y0186143D01*
X0011875Y0186421D01*
X0011933Y0186697D01*
X0011999Y0186971D01*
X0012071Y0187244D01*
X0012149Y0187515D01*
X0012234Y0187784D01*
X0012326Y0188051D01*
X0012425Y0188316D01*
X0012529Y0188578D01*
X0012641Y0188837D01*
X0012758Y0189094D01*
X0012882Y0189348D01*
X0013012Y0189598D01*
X0013148Y0189845D01*
X0013290Y0190089D01*
X0013438Y0190329D01*
X0013592Y0190566D01*
X0013752Y0190799D01*
X0013917Y0191028D01*
X0014088Y0191252D01*
X0014264Y0191473D01*
X0014446Y0191688D01*
X0014633Y0191900D01*
X0014825Y0192107D01*
X0015022Y0192309D01*
X0015224Y0192506D01*
X0015431Y0192698D01*
X0015643Y0192885D01*
X0015858Y0193067D01*
X0016079Y0193243D01*
X0016303Y0193414D01*
X0016532Y0193579D01*
X0016765Y0193739D01*
X0017002Y0193893D01*
X0017242Y0194041D01*
X0017486Y0194183D01*
X0017733Y0194319D01*
X0017983Y0194449D01*
X0018237Y0194573D01*
X0018494Y0194690D01*
X0018753Y0194802D01*
X0019015Y0194906D01*
X0019280Y0195005D01*
X0019547Y0195097D01*
X0019816Y0195182D01*
X0020087Y0195260D01*
X0020360Y0195332D01*
X0020634Y0195398D01*
X0020910Y0195456D01*
X0021188Y0195508D01*
X0021467Y0195553D01*
X0021746Y0195591D01*
X0022027Y0195622D01*
X0022308Y0195646D01*
X0022590Y0195663D01*
X0022872Y0195674D01*
X0023154Y0195677D01*
X0023436Y0195674D01*
X0023718Y0195663D01*
X0024000Y0195646D01*
X0024281Y0195622D01*
X0024562Y0195591D01*
X0024841Y0195553D01*
X0025120Y0195508D01*
X0025398Y0195456D01*
X0025674Y0195398D01*
X0025948Y0195332D01*
X0026221Y0195260D01*
X0026492Y0195182D01*
X0026761Y0195097D01*
X0027028Y0195005D01*
X0027293Y0194906D01*
X0027555Y0194802D01*
X0027814Y0194690D01*
X0028071Y0194573D01*
X0028325Y0194449D01*
X0028575Y0194319D01*
X0028822Y0194183D01*
X0029066Y0194041D01*
X0029306Y0193893D01*
X0029543Y0193739D01*
X0029776Y0193579D01*
X0030005Y0193414D01*
X0030229Y0193243D01*
X0030450Y0193067D01*
X0030665Y0192885D01*
X0030877Y0192698D01*
X0031084Y0192506D01*
X0031286Y0192309D01*
X0031483Y0192107D01*
X0031675Y0191900D01*
X0031862Y0191688D01*
X0032044Y0191473D01*
X0032220Y0191252D01*
X0032391Y0191028D01*
X0032556Y0190799D01*
X0032716Y0190566D01*
X0032870Y0190329D01*
X0033018Y0190089D01*
X0033160Y0189845D01*
X0033296Y0189598D01*
X0033426Y0189348D01*
X0033550Y0189094D01*
X0033667Y0188837D01*
X0033779Y0188578D01*
X0033883Y0188316D01*
X0033982Y0188051D01*
X0034074Y0187784D01*
X0034159Y0187515D01*
X0034237Y0187244D01*
X0034309Y0186971D01*
X0034375Y0186697D01*
X0034433Y0186421D01*
X0034485Y0186143D01*
X0034530Y0185864D01*
X0034568Y0185585D01*
X0034599Y0185304D01*
X0034623Y0185023D01*
X0034640Y0184741D01*
X0034651Y0184459D01*
X0034654Y0184177D01*
X0034651Y0183895D01*
X0034640Y0183613D01*
X0034623Y0183331D01*
X0034599Y0183050D01*
X0034568Y0182769D01*
X0034530Y0182490D01*
X0034485Y0182211D01*
X0034433Y0181933D01*
X0034375Y0181657D01*
X0034309Y0181383D01*
X0034237Y0181110D01*
X0034159Y0180839D01*
X0034074Y0180570D01*
X0033982Y0180303D01*
X0033883Y0180038D01*
X0033779Y0179776D01*
X0033667Y0179517D01*
X0033550Y0179260D01*
X0033426Y0179006D01*
X0033296Y0178756D01*
X0033160Y0178509D01*
X0033018Y0178265D01*
X0032870Y0178025D01*
X0032716Y0177788D01*
X0032556Y0177555D01*
X0032391Y0177326D01*
X0032220Y0177102D01*
X0032044Y0176881D01*
X0031862Y0176666D01*
X0031675Y0176454D01*
X0031483Y0176247D01*
X0031286Y0176045D01*
X0031084Y0175848D01*
X0030877Y0175656D01*
X0030665Y0175469D01*
X0030450Y0175287D01*
X0030229Y0175111D01*
X0030005Y0174940D01*
X0029776Y0174775D01*
X0029543Y0174615D01*
X0029306Y0174461D01*
X0029066Y0174313D01*
X0028822Y0174171D01*
X0028575Y0174035D01*
X0028325Y0173905D01*
X0028071Y0173781D01*
X0027814Y0173664D01*
X0027555Y0173552D01*
X0027293Y0173448D01*
X0027028Y0173349D01*
X0026761Y0173257D01*
X0026492Y0173172D01*
X0026221Y0173094D01*
X0025948Y0173022D01*
X0025674Y0172956D01*
X0025398Y0172898D01*
X0025120Y0172846D01*
X0024841Y0172801D01*
X0024562Y0172763D01*
X0024281Y0172732D01*
X0024000Y0172708D01*
X0023718Y0172691D01*
X0023436Y0172680D01*
X0023154Y0172677D01*
X0022872Y0172680D01*
X0022590Y0172691D01*
X0022308Y0172708D01*
X0022027Y0172732D01*
X0021746Y0172763D01*
X0021467Y0172801D01*
X0021188Y0172846D01*
X0020910Y0172898D01*
X0020634Y0172956D01*
X0020360Y0173022D01*
X0020087Y0173094D01*
X0019816Y0173172D01*
X0019547Y0173257D01*
X0019280Y0173349D01*
X0019015Y0173448D01*
X0018753Y0173552D01*
X0018494Y0173664D01*
X0018237Y0173781D01*
X0017983Y0173905D01*
X0017733Y0174035D01*
X0017486Y0174171D01*
X0017242Y0174313D01*
X0017002Y0174461D01*
X0016765Y0174615D01*
X0016532Y0174775D01*
X0016303Y0174940D01*
X0016079Y0175111D01*
X0015858Y0175287D01*
X0015643Y0175469D01*
X0015431Y0175656D01*
X0015224Y0175848D01*
X0015022Y0176045D01*
X0014825Y0176247D01*
X0014633Y0176454D01*
X0014446Y0176666D01*
X0014264Y0176881D01*
X0014088Y0177102D01*
X0013917Y0177326D01*
X0013752Y0177555D01*
X0013592Y0177788D01*
X0013438Y0178025D01*
X0013290Y0178265D01*
X0013148Y0178509D01*
X0013012Y0178756D01*
X0012882Y0179006D01*
X0012758Y0179260D01*
X0012641Y0179517D01*
X0012529Y0179776D01*
X0012425Y0180038D01*
X0012326Y0180303D01*
X0012234Y0180570D01*
X0012149Y0180839D01*
X0012071Y0181110D01*
X0011999Y0181383D01*
X0011933Y0181657D01*
X0011875Y0181933D01*
X0011823Y0182211D01*
X0011778Y0182490D01*
X0011740Y0182769D01*
X0011709Y0183050D01*
X0011685Y0183331D01*
X0011668Y0183613D01*
X0011657Y0183895D01*
X0011654Y0184177D01*
X0012600Y0146850D02*
X0009200Y0146850D01*
X0009200Y0144750D01*
X0009200Y0140350D02*
X0009200Y0138250D01*
X0010700Y0138250D01*
X0012600Y0138250D01*
X0012200Y0139351D02*
X0012135Y0139368D01*
X0012069Y0139382D01*
X0012002Y0139392D01*
X0011935Y0139398D01*
X0011868Y0139400D01*
X0011800Y0139398D01*
X0011733Y0139393D01*
X0011667Y0139383D01*
X0011601Y0139370D01*
X0011535Y0139353D01*
X0011471Y0139332D01*
X0011409Y0139307D01*
X0011348Y0139279D01*
X0011288Y0139248D01*
X0011230Y0139213D01*
X0011175Y0139174D01*
X0011122Y0139133D01*
X0011071Y0139089D01*
X0011023Y0139041D01*
X0010978Y0138992D01*
X0010936Y0138939D01*
X0010897Y0138884D01*
X0010861Y0138827D01*
X0010828Y0138768D01*
X0010799Y0138708D01*
X0010774Y0138645D01*
X0010752Y0138582D01*
X0010734Y0138517D01*
X0010719Y0138451D01*
X0010709Y0138384D01*
X0010702Y0138317D01*
X0010699Y0138250D01*
X0014600Y0142150D02*
X0014600Y0142950D01*
X0177800Y0040138D02*
X0177800Y0035868D01*
X0178868Y0034800D01*
X0181003Y0034800D01*
X0182070Y0035868D01*
X0184245Y0034800D02*
X0184245Y0039070D01*
X0186381Y0041205D01*
X0188516Y0039070D01*
X0188516Y0034800D01*
X0190691Y0034800D02*
X0190691Y0041205D01*
X0192826Y0039070D01*
X0194961Y0041205D01*
X0194961Y0034800D01*
X0197136Y0035868D02*
X0201407Y0040138D01*
X0201407Y0035868D01*
X0200339Y0034800D01*
X0198204Y0034800D01*
X0197136Y0035868D01*
X0197136Y0040138D01*
X0198204Y0041205D01*
X0200339Y0041205D01*
X0201407Y0040138D01*
X0188516Y0038003D02*
X0184245Y0038003D01*
X0182070Y0040138D02*
X0181003Y0041205D01*
X0178868Y0041205D01*
X0177800Y0040138D01*
X0156300Y0026200D02*
X0149600Y0026200D01*
X0149600Y0004400D01*
X0235400Y0004400D01*
X0235400Y0026200D01*
X0228700Y0026200D01*
X0232500Y0032000D02*
X0232500Y0047000D01*
X0235000Y0049500D01*
X0240000Y0049500D01*
X0242500Y0047000D01*
X0242500Y0032000D01*
X0245000Y0029500D01*
X0250000Y0029500D01*
X0252500Y0032000D01*
X0255000Y0029500D01*
X0260000Y0029500D01*
X0262500Y0032000D01*
X0262500Y0047000D01*
X0260000Y0049500D01*
X0255000Y0049500D01*
X0252500Y0047000D01*
X0252500Y0032000D01*
X0242500Y0032000D02*
X0240000Y0029500D01*
X0235000Y0029500D01*
X0232500Y0032000D01*
X0242500Y0047000D02*
X0245000Y0049500D01*
X0250000Y0049500D01*
X0252500Y0047000D01*
X0259291Y0015673D02*
X0259294Y0015955D01*
X0259305Y0016237D01*
X0259322Y0016519D01*
X0259346Y0016800D01*
X0259377Y0017081D01*
X0259415Y0017360D01*
X0259460Y0017639D01*
X0259512Y0017917D01*
X0259570Y0018193D01*
X0259636Y0018467D01*
X0259708Y0018740D01*
X0259786Y0019011D01*
X0259871Y0019280D01*
X0259963Y0019547D01*
X0260062Y0019812D01*
X0260166Y0020074D01*
X0260278Y0020333D01*
X0260395Y0020590D01*
X0260519Y0020844D01*
X0260649Y0021094D01*
X0260785Y0021341D01*
X0260927Y0021585D01*
X0261075Y0021825D01*
X0261229Y0022062D01*
X0261389Y0022295D01*
X0261554Y0022524D01*
X0261725Y0022748D01*
X0261901Y0022969D01*
X0262083Y0023184D01*
X0262270Y0023396D01*
X0262462Y0023603D01*
X0262659Y0023805D01*
X0262861Y0024002D01*
X0263068Y0024194D01*
X0263280Y0024381D01*
X0263495Y0024563D01*
X0263716Y0024739D01*
X0263940Y0024910D01*
X0264169Y0025075D01*
X0264402Y0025235D01*
X0264639Y0025389D01*
X0264879Y0025537D01*
X0265123Y0025679D01*
X0265370Y0025815D01*
X0265620Y0025945D01*
X0265874Y0026069D01*
X0266131Y0026186D01*
X0266390Y0026298D01*
X0266652Y0026402D01*
X0266917Y0026501D01*
X0267184Y0026593D01*
X0267453Y0026678D01*
X0267724Y0026756D01*
X0267997Y0026828D01*
X0268271Y0026894D01*
X0268547Y0026952D01*
X0268825Y0027004D01*
X0269104Y0027049D01*
X0269383Y0027087D01*
X0269664Y0027118D01*
X0269945Y0027142D01*
X0270227Y0027159D01*
X0270509Y0027170D01*
X0270791Y0027173D01*
X0271073Y0027170D01*
X0271355Y0027159D01*
X0271637Y0027142D01*
X0271918Y0027118D01*
X0272199Y0027087D01*
X0272478Y0027049D01*
X0272757Y0027004D01*
X0273035Y0026952D01*
X0273311Y0026894D01*
X0273585Y0026828D01*
X0273858Y0026756D01*
X0274129Y0026678D01*
X0274398Y0026593D01*
X0274665Y0026501D01*
X0274930Y0026402D01*
X0275192Y0026298D01*
X0275451Y0026186D01*
X0275708Y0026069D01*
X0275962Y0025945D01*
X0276212Y0025815D01*
X0276459Y0025679D01*
X0276703Y0025537D01*
X0276943Y0025389D01*
X0277180Y0025235D01*
X0277413Y0025075D01*
X0277642Y0024910D01*
X0277866Y0024739D01*
X0278087Y0024563D01*
X0278302Y0024381D01*
X0278514Y0024194D01*
X0278721Y0024002D01*
X0278923Y0023805D01*
X0279120Y0023603D01*
X0279312Y0023396D01*
X0279499Y0023184D01*
X0279681Y0022969D01*
X0279857Y0022748D01*
X0280028Y0022524D01*
X0280193Y0022295D01*
X0280353Y0022062D01*
X0280507Y0021825D01*
X0280655Y0021585D01*
X0280797Y0021341D01*
X0280933Y0021094D01*
X0281063Y0020844D01*
X0281187Y0020590D01*
X0281304Y0020333D01*
X0281416Y0020074D01*
X0281520Y0019812D01*
X0281619Y0019547D01*
X0281711Y0019280D01*
X0281796Y0019011D01*
X0281874Y0018740D01*
X0281946Y0018467D01*
X0282012Y0018193D01*
X0282070Y0017917D01*
X0282122Y0017639D01*
X0282167Y0017360D01*
X0282205Y0017081D01*
X0282236Y0016800D01*
X0282260Y0016519D01*
X0282277Y0016237D01*
X0282288Y0015955D01*
X0282291Y0015673D01*
X0282288Y0015391D01*
X0282277Y0015109D01*
X0282260Y0014827D01*
X0282236Y0014546D01*
X0282205Y0014265D01*
X0282167Y0013986D01*
X0282122Y0013707D01*
X0282070Y0013429D01*
X0282012Y0013153D01*
X0281946Y0012879D01*
X0281874Y0012606D01*
X0281796Y0012335D01*
X0281711Y0012066D01*
X0281619Y0011799D01*
X0281520Y0011534D01*
X0281416Y0011272D01*
X0281304Y0011013D01*
X0281187Y0010756D01*
X0281063Y0010502D01*
X0280933Y0010252D01*
X0280797Y0010005D01*
X0280655Y0009761D01*
X0280507Y0009521D01*
X0280353Y0009284D01*
X0280193Y0009051D01*
X0280028Y0008822D01*
X0279857Y0008598D01*
X0279681Y0008377D01*
X0279499Y0008162D01*
X0279312Y0007950D01*
X0279120Y0007743D01*
X0278923Y0007541D01*
X0278721Y0007344D01*
X0278514Y0007152D01*
X0278302Y0006965D01*
X0278087Y0006783D01*
X0277866Y0006607D01*
X0277642Y0006436D01*
X0277413Y0006271D01*
X0277180Y0006111D01*
X0276943Y0005957D01*
X0276703Y0005809D01*
X0276459Y0005667D01*
X0276212Y0005531D01*
X0275962Y0005401D01*
X0275708Y0005277D01*
X0275451Y0005160D01*
X0275192Y0005048D01*
X0274930Y0004944D01*
X0274665Y0004845D01*
X0274398Y0004753D01*
X0274129Y0004668D01*
X0273858Y0004590D01*
X0273585Y0004518D01*
X0273311Y0004452D01*
X0273035Y0004394D01*
X0272757Y0004342D01*
X0272478Y0004297D01*
X0272199Y0004259D01*
X0271918Y0004228D01*
X0271637Y0004204D01*
X0271355Y0004187D01*
X0271073Y0004176D01*
X0270791Y0004173D01*
X0270509Y0004176D01*
X0270227Y0004187D01*
X0269945Y0004204D01*
X0269664Y0004228D01*
X0269383Y0004259D01*
X0269104Y0004297D01*
X0268825Y0004342D01*
X0268547Y0004394D01*
X0268271Y0004452D01*
X0267997Y0004518D01*
X0267724Y0004590D01*
X0267453Y0004668D01*
X0267184Y0004753D01*
X0266917Y0004845D01*
X0266652Y0004944D01*
X0266390Y0005048D01*
X0266131Y0005160D01*
X0265874Y0005277D01*
X0265620Y0005401D01*
X0265370Y0005531D01*
X0265123Y0005667D01*
X0264879Y0005809D01*
X0264639Y0005957D01*
X0264402Y0006111D01*
X0264169Y0006271D01*
X0263940Y0006436D01*
X0263716Y0006607D01*
X0263495Y0006783D01*
X0263280Y0006965D01*
X0263068Y0007152D01*
X0262861Y0007344D01*
X0262659Y0007541D01*
X0262462Y0007743D01*
X0262270Y0007950D01*
X0262083Y0008162D01*
X0261901Y0008377D01*
X0261725Y0008598D01*
X0261554Y0008822D01*
X0261389Y0009051D01*
X0261229Y0009284D01*
X0261075Y0009521D01*
X0260927Y0009761D01*
X0260785Y0010005D01*
X0260649Y0010252D01*
X0260519Y0010502D01*
X0260395Y0010756D01*
X0260278Y0011013D01*
X0260166Y0011272D01*
X0260062Y0011534D01*
X0259963Y0011799D01*
X0259871Y0012066D01*
X0259786Y0012335D01*
X0259708Y0012606D01*
X0259636Y0012879D01*
X0259570Y0013153D01*
X0259512Y0013429D01*
X0259460Y0013707D01*
X0259415Y0013986D01*
X0259377Y0014265D01*
X0259346Y0014546D01*
X0259322Y0014827D01*
X0259305Y0015109D01*
X0259294Y0015391D01*
X0259291Y0015673D01*
X0250827Y0184177D02*
X0250830Y0184459D01*
X0250841Y0184741D01*
X0250858Y0185023D01*
X0250882Y0185304D01*
X0250913Y0185585D01*
X0250951Y0185864D01*
X0250996Y0186143D01*
X0251048Y0186421D01*
X0251106Y0186697D01*
X0251172Y0186971D01*
X0251244Y0187244D01*
X0251322Y0187515D01*
X0251407Y0187784D01*
X0251499Y0188051D01*
X0251598Y0188316D01*
X0251702Y0188578D01*
X0251814Y0188837D01*
X0251931Y0189094D01*
X0252055Y0189348D01*
X0252185Y0189598D01*
X0252321Y0189845D01*
X0252463Y0190089D01*
X0252611Y0190329D01*
X0252765Y0190566D01*
X0252925Y0190799D01*
X0253090Y0191028D01*
X0253261Y0191252D01*
X0253437Y0191473D01*
X0253619Y0191688D01*
X0253806Y0191900D01*
X0253998Y0192107D01*
X0254195Y0192309D01*
X0254397Y0192506D01*
X0254604Y0192698D01*
X0254816Y0192885D01*
X0255031Y0193067D01*
X0255252Y0193243D01*
X0255476Y0193414D01*
X0255705Y0193579D01*
X0255938Y0193739D01*
X0256175Y0193893D01*
X0256415Y0194041D01*
X0256659Y0194183D01*
X0256906Y0194319D01*
X0257156Y0194449D01*
X0257410Y0194573D01*
X0257667Y0194690D01*
X0257926Y0194802D01*
X0258188Y0194906D01*
X0258453Y0195005D01*
X0258720Y0195097D01*
X0258989Y0195182D01*
X0259260Y0195260D01*
X0259533Y0195332D01*
X0259807Y0195398D01*
X0260083Y0195456D01*
X0260361Y0195508D01*
X0260640Y0195553D01*
X0260919Y0195591D01*
X0261200Y0195622D01*
X0261481Y0195646D01*
X0261763Y0195663D01*
X0262045Y0195674D01*
X0262327Y0195677D01*
X0262609Y0195674D01*
X0262891Y0195663D01*
X0263173Y0195646D01*
X0263454Y0195622D01*
X0263735Y0195591D01*
X0264014Y0195553D01*
X0264293Y0195508D01*
X0264571Y0195456D01*
X0264847Y0195398D01*
X0265121Y0195332D01*
X0265394Y0195260D01*
X0265665Y0195182D01*
X0265934Y0195097D01*
X0266201Y0195005D01*
X0266466Y0194906D01*
X0266728Y0194802D01*
X0266987Y0194690D01*
X0267244Y0194573D01*
X0267498Y0194449D01*
X0267748Y0194319D01*
X0267995Y0194183D01*
X0268239Y0194041D01*
X0268479Y0193893D01*
X0268716Y0193739D01*
X0268949Y0193579D01*
X0269178Y0193414D01*
X0269402Y0193243D01*
X0269623Y0193067D01*
X0269838Y0192885D01*
X0270050Y0192698D01*
X0270257Y0192506D01*
X0270459Y0192309D01*
X0270656Y0192107D01*
X0270848Y0191900D01*
X0271035Y0191688D01*
X0271217Y0191473D01*
X0271393Y0191252D01*
X0271564Y0191028D01*
X0271729Y0190799D01*
X0271889Y0190566D01*
X0272043Y0190329D01*
X0272191Y0190089D01*
X0272333Y0189845D01*
X0272469Y0189598D01*
X0272599Y0189348D01*
X0272723Y0189094D01*
X0272840Y0188837D01*
X0272952Y0188578D01*
X0273056Y0188316D01*
X0273155Y0188051D01*
X0273247Y0187784D01*
X0273332Y0187515D01*
X0273410Y0187244D01*
X0273482Y0186971D01*
X0273548Y0186697D01*
X0273606Y0186421D01*
X0273658Y0186143D01*
X0273703Y0185864D01*
X0273741Y0185585D01*
X0273772Y0185304D01*
X0273796Y0185023D01*
X0273813Y0184741D01*
X0273824Y0184459D01*
X0273827Y0184177D01*
X0273824Y0183895D01*
X0273813Y0183613D01*
X0273796Y0183331D01*
X0273772Y0183050D01*
X0273741Y0182769D01*
X0273703Y0182490D01*
X0273658Y0182211D01*
X0273606Y0181933D01*
X0273548Y0181657D01*
X0273482Y0181383D01*
X0273410Y0181110D01*
X0273332Y0180839D01*
X0273247Y0180570D01*
X0273155Y0180303D01*
X0273056Y0180038D01*
X0272952Y0179776D01*
X0272840Y0179517D01*
X0272723Y0179260D01*
X0272599Y0179006D01*
X0272469Y0178756D01*
X0272333Y0178509D01*
X0272191Y0178265D01*
X0272043Y0178025D01*
X0271889Y0177788D01*
X0271729Y0177555D01*
X0271564Y0177326D01*
X0271393Y0177102D01*
X0271217Y0176881D01*
X0271035Y0176666D01*
X0270848Y0176454D01*
X0270656Y0176247D01*
X0270459Y0176045D01*
X0270257Y0175848D01*
X0270050Y0175656D01*
X0269838Y0175469D01*
X0269623Y0175287D01*
X0269402Y0175111D01*
X0269178Y0174940D01*
X0268949Y0174775D01*
X0268716Y0174615D01*
X0268479Y0174461D01*
X0268239Y0174313D01*
X0267995Y0174171D01*
X0267748Y0174035D01*
X0267498Y0173905D01*
X0267244Y0173781D01*
X0266987Y0173664D01*
X0266728Y0173552D01*
X0266466Y0173448D01*
X0266201Y0173349D01*
X0265934Y0173257D01*
X0265665Y0173172D01*
X0265394Y0173094D01*
X0265121Y0173022D01*
X0264847Y0172956D01*
X0264571Y0172898D01*
X0264293Y0172846D01*
X0264014Y0172801D01*
X0263735Y0172763D01*
X0263454Y0172732D01*
X0263173Y0172708D01*
X0262891Y0172691D01*
X0262609Y0172680D01*
X0262327Y0172677D01*
X0262045Y0172680D01*
X0261763Y0172691D01*
X0261481Y0172708D01*
X0261200Y0172732D01*
X0260919Y0172763D01*
X0260640Y0172801D01*
X0260361Y0172846D01*
X0260083Y0172898D01*
X0259807Y0172956D01*
X0259533Y0173022D01*
X0259260Y0173094D01*
X0258989Y0173172D01*
X0258720Y0173257D01*
X0258453Y0173349D01*
X0258188Y0173448D01*
X0257926Y0173552D01*
X0257667Y0173664D01*
X0257410Y0173781D01*
X0257156Y0173905D01*
X0256906Y0174035D01*
X0256659Y0174171D01*
X0256415Y0174313D01*
X0256175Y0174461D01*
X0255938Y0174615D01*
X0255705Y0174775D01*
X0255476Y0174940D01*
X0255252Y0175111D01*
X0255031Y0175287D01*
X0254816Y0175469D01*
X0254604Y0175656D01*
X0254397Y0175848D01*
X0254195Y0176045D01*
X0253998Y0176247D01*
X0253806Y0176454D01*
X0253619Y0176666D01*
X0253437Y0176881D01*
X0253261Y0177102D01*
X0253090Y0177326D01*
X0252925Y0177555D01*
X0252765Y0177788D01*
X0252611Y0178025D01*
X0252463Y0178265D01*
X0252321Y0178509D01*
X0252185Y0178756D01*
X0252055Y0179006D01*
X0251931Y0179260D01*
X0251814Y0179517D01*
X0251702Y0179776D01*
X0251598Y0180038D01*
X0251499Y0180303D01*
X0251407Y0180570D01*
X0251322Y0180839D01*
X0251244Y0181110D01*
X0251172Y0181383D01*
X0251106Y0181657D01*
X0251048Y0181933D01*
X0250996Y0182211D01*
X0250951Y0182490D01*
X0250913Y0182769D01*
X0250882Y0183050D01*
X0250858Y0183331D01*
X0250841Y0183613D01*
X0250830Y0183895D01*
X0250827Y0184177D01*
D14*
X0015673Y0005173D02*
X0015673Y0004173D01*
X0015673Y0026173D02*
X0015673Y0027173D01*
X0022965Y0053970D02*
X0022598Y0054337D01*
X0022598Y0055071D01*
X0022965Y0055438D01*
X0023332Y0056180D02*
X0022598Y0056914D01*
X0024800Y0056914D01*
X0024800Y0056180D02*
X0024800Y0057648D01*
X0023699Y0058390D02*
X0022598Y0059491D01*
X0024800Y0059491D01*
X0023699Y0059858D02*
X0023699Y0058390D01*
X0024433Y0055438D02*
X0024800Y0055071D01*
X0024800Y0054337D01*
X0024433Y0053970D01*
X0022965Y0053970D01*
X0030598Y0054337D02*
X0030965Y0053970D01*
X0032433Y0053970D01*
X0032800Y0054337D01*
X0032800Y0055071D01*
X0032433Y0055438D01*
X0032800Y0056180D02*
X0032800Y0057648D01*
X0032800Y0056914D02*
X0030598Y0056914D01*
X0031332Y0056180D01*
X0030965Y0055438D02*
X0030598Y0055071D01*
X0030598Y0054337D01*
X0030965Y0058390D02*
X0030598Y0058757D01*
X0030598Y0059491D01*
X0030965Y0059858D01*
X0031332Y0059858D01*
X0031699Y0059491D01*
X0032066Y0059858D01*
X0032433Y0059858D01*
X0032800Y0059491D01*
X0032800Y0058757D01*
X0032433Y0058390D01*
X0031699Y0059124D02*
X0031699Y0059491D01*
X0038598Y0059491D02*
X0038598Y0058757D01*
X0038965Y0058390D01*
X0038598Y0059491D02*
X0038965Y0059858D01*
X0039332Y0059858D01*
X0040800Y0058390D01*
X0040800Y0059858D01*
X0040800Y0057648D02*
X0040800Y0056180D01*
X0040800Y0056914D02*
X0038598Y0056914D01*
X0039332Y0056180D01*
X0038965Y0055438D02*
X0038598Y0055071D01*
X0038598Y0054337D01*
X0038965Y0053970D01*
X0040433Y0053970D01*
X0040800Y0054337D01*
X0040800Y0055071D01*
X0040433Y0055438D01*
X0132100Y0023302D02*
X0132100Y0021100D01*
X0132100Y0021834D02*
X0133201Y0021834D01*
X0133568Y0022201D01*
X0133568Y0022935D01*
X0133201Y0023302D01*
X0132100Y0023302D01*
X0132834Y0021834D02*
X0133568Y0021100D01*
X0134310Y0021100D02*
X0135778Y0021100D01*
X0135044Y0021100D02*
X0135044Y0023302D01*
X0134310Y0022568D01*
X0136520Y0022201D02*
X0136520Y0021467D01*
X0136887Y0021100D01*
X0137621Y0021100D01*
X0137988Y0021467D01*
X0137988Y0021834D01*
X0137621Y0022201D01*
X0136520Y0022201D01*
X0137254Y0022935D01*
X0137988Y0023302D01*
X0137988Y0009302D02*
X0136520Y0009302D01*
X0137988Y0009302D02*
X0137988Y0008935D01*
X0136520Y0007467D01*
X0136520Y0007100D01*
X0135778Y0007100D02*
X0134310Y0007100D01*
X0135044Y0007100D02*
X0135044Y0009302D01*
X0134310Y0008568D01*
X0133568Y0008935D02*
X0133568Y0008201D01*
X0133201Y0007834D01*
X0132100Y0007834D01*
X0132834Y0007834D02*
X0133568Y0007100D01*
X0132100Y0007100D02*
X0132100Y0009302D01*
X0133201Y0009302D01*
X0133568Y0008935D01*
X0236500Y0009352D02*
X0236500Y0007150D01*
X0236500Y0007884D02*
X0237601Y0007884D01*
X0237968Y0008251D01*
X0237968Y0008985D01*
X0237601Y0009352D01*
X0236500Y0009352D01*
X0237234Y0007884D02*
X0237968Y0007150D01*
X0238710Y0007150D02*
X0240178Y0007150D01*
X0239444Y0007150D02*
X0239444Y0009352D01*
X0238710Y0008618D01*
X0240920Y0008985D02*
X0241287Y0009352D01*
X0242021Y0009352D01*
X0242388Y0008985D01*
X0242388Y0008618D01*
X0242021Y0008251D01*
X0242388Y0007884D01*
X0242388Y0007517D01*
X0242021Y0007150D01*
X0241287Y0007150D01*
X0240920Y0007517D01*
X0241654Y0008251D02*
X0242021Y0008251D01*
X0242021Y0021050D02*
X0242021Y0023252D01*
X0240920Y0022151D01*
X0242388Y0022151D01*
X0240178Y0021050D02*
X0238710Y0021050D01*
X0239444Y0021050D02*
X0239444Y0023252D01*
X0238710Y0022518D01*
X0237968Y0022885D02*
X0237968Y0022151D01*
X0237601Y0021784D01*
X0236500Y0021784D01*
X0237234Y0021784D02*
X0237968Y0021050D01*
X0236500Y0021050D02*
X0236500Y0023252D01*
X0237601Y0023252D01*
X0237968Y0022885D01*
X0270791Y0026173D02*
X0270791Y0027173D01*
X0270791Y0005173D02*
X0270791Y0004173D01*
X0145787Y0134433D02*
X0144319Y0134433D01*
X0145053Y0134433D02*
X0145053Y0136635D01*
X0144319Y0135901D01*
X0143577Y0136635D02*
X0142109Y0135167D01*
X0142476Y0135534D02*
X0143577Y0134433D01*
X0142109Y0134433D02*
X0142109Y0136635D01*
X0119751Y0134100D02*
X0118283Y0134100D01*
X0119017Y0134100D02*
X0119017Y0136302D01*
X0118283Y0135568D01*
X0117541Y0135935D02*
X0117174Y0136302D01*
X0116440Y0136302D01*
X0116073Y0135935D01*
X0116073Y0134467D01*
X0116440Y0134100D01*
X0117174Y0134100D01*
X0117541Y0134467D01*
X0115334Y0134100D02*
X0114600Y0134100D01*
X0114967Y0134100D02*
X0114967Y0136302D01*
X0114600Y0136302D02*
X0115334Y0136302D01*
X0109500Y0153380D02*
X0107298Y0153380D01*
X0107298Y0154848D01*
X0108032Y0155590D02*
X0107298Y0156324D01*
X0109500Y0156324D01*
X0109500Y0155590D02*
X0109500Y0157058D01*
X0108399Y0154114D02*
X0108399Y0153380D01*
X0087988Y0150302D02*
X0087254Y0149935D01*
X0086520Y0149201D01*
X0087621Y0149201D01*
X0087988Y0148834D01*
X0087988Y0148467D01*
X0087621Y0148100D01*
X0086887Y0148100D01*
X0086520Y0148467D01*
X0086520Y0149201D01*
X0085778Y0148100D02*
X0084310Y0148100D01*
X0085044Y0148100D02*
X0085044Y0150302D01*
X0084310Y0149568D01*
X0083568Y0149935D02*
X0083201Y0150302D01*
X0082467Y0150302D01*
X0082100Y0149935D01*
X0082100Y0148467D01*
X0082467Y0148100D01*
X0083201Y0148100D01*
X0083568Y0148467D01*
X0055338Y0141600D02*
X0053870Y0141600D01*
X0054604Y0141600D02*
X0054604Y0143802D01*
X0053870Y0143068D01*
X0053128Y0141600D02*
X0051660Y0141600D01*
X0052394Y0141600D02*
X0052394Y0143802D01*
X0051660Y0143068D01*
X0050918Y0143435D02*
X0050551Y0143802D01*
X0049817Y0143802D01*
X0049450Y0143435D01*
X0049450Y0141967D01*
X0049817Y0141600D01*
X0050551Y0141600D01*
X0050918Y0141967D01*
X0050610Y0159600D02*
X0052078Y0159600D01*
X0051344Y0159600D02*
X0051344Y0161802D01*
X0050610Y0161068D01*
X0049868Y0161435D02*
X0049501Y0161802D01*
X0048767Y0161802D01*
X0048400Y0161435D01*
X0048400Y0159967D01*
X0048767Y0159600D01*
X0049501Y0159600D01*
X0049868Y0159967D01*
X0052820Y0159967D02*
X0053187Y0159600D01*
X0053921Y0159600D01*
X0054288Y0159967D01*
X0054288Y0160701D01*
X0053921Y0161068D01*
X0053554Y0161068D01*
X0052820Y0160701D01*
X0052820Y0161802D01*
X0054288Y0161802D01*
X0058698Y0175100D02*
X0058698Y0176201D01*
X0059065Y0176568D01*
X0059799Y0176568D01*
X0060166Y0176201D01*
X0060166Y0175100D01*
X0060166Y0175834D02*
X0060900Y0176568D01*
X0060900Y0177310D02*
X0060900Y0178778D01*
X0060900Y0178044D02*
X0058698Y0178044D01*
X0059432Y0177310D01*
X0058698Y0175100D02*
X0060900Y0175100D01*
X0054533Y0181100D02*
X0053065Y0181100D01*
X0052698Y0181467D01*
X0052698Y0182201D01*
X0053065Y0182568D01*
X0053432Y0183310D02*
X0052698Y0184044D01*
X0054900Y0184044D01*
X0054900Y0183310D02*
X0054900Y0184778D01*
X0054533Y0182568D02*
X0054900Y0182201D01*
X0054900Y0181467D01*
X0054533Y0181100D01*
X0067698Y0189467D02*
X0068065Y0189100D01*
X0069533Y0189100D01*
X0069900Y0189467D01*
X0069900Y0190201D01*
X0069533Y0190568D01*
X0069900Y0191310D02*
X0069900Y0192778D01*
X0069900Y0192044D02*
X0067698Y0192044D01*
X0068432Y0191310D01*
X0068065Y0190568D02*
X0067698Y0190201D01*
X0067698Y0189467D01*
X0067698Y0193520D02*
X0067698Y0194988D01*
X0068065Y0194988D01*
X0069533Y0193520D01*
X0069900Y0193520D01*
X0077698Y0194044D02*
X0078432Y0193310D01*
X0078065Y0192568D02*
X0078799Y0192568D01*
X0079166Y0192201D01*
X0079166Y0191100D01*
X0079166Y0191834D02*
X0079900Y0192568D01*
X0079900Y0193310D02*
X0079900Y0194778D01*
X0079900Y0194044D02*
X0077698Y0194044D01*
X0078065Y0195520D02*
X0078432Y0195520D01*
X0078799Y0195887D01*
X0078799Y0196621D01*
X0079166Y0196988D01*
X0079533Y0196988D01*
X0079900Y0196621D01*
X0079900Y0195887D01*
X0079533Y0195520D01*
X0079166Y0195520D01*
X0078799Y0195887D01*
X0078799Y0196621D02*
X0078432Y0196988D01*
X0078065Y0196988D01*
X0077698Y0196621D01*
X0077698Y0195887D01*
X0078065Y0195520D01*
X0078065Y0192568D02*
X0077698Y0192201D01*
X0077698Y0191100D01*
X0079900Y0191100D01*
X0107470Y0173402D02*
X0107470Y0171200D01*
X0107470Y0172301D02*
X0108204Y0172301D01*
X0107470Y0173402D02*
X0108938Y0173402D01*
X0109680Y0173402D02*
X0110781Y0173402D01*
X0111148Y0173035D01*
X0111148Y0172668D01*
X0110781Y0172301D01*
X0109680Y0172301D01*
X0109680Y0171200D02*
X0109680Y0173402D01*
X0110781Y0172301D02*
X0111148Y0171934D01*
X0111148Y0171567D01*
X0110781Y0171200D01*
X0109680Y0171200D01*
X0111890Y0171200D02*
X0113358Y0171200D01*
X0112624Y0171200D02*
X0112624Y0173402D01*
X0111890Y0172668D01*
X0111786Y0190820D02*
X0111786Y0193022D01*
X0113254Y0190820D01*
X0113254Y0193022D01*
X0113996Y0192288D02*
X0114730Y0193022D01*
X0114730Y0190820D01*
X0113996Y0190820D02*
X0115464Y0190820D01*
X0111044Y0191187D02*
X0110677Y0190820D01*
X0109943Y0190820D01*
X0109576Y0191187D01*
X0109576Y0192655D01*
X0109943Y0193022D01*
X0110677Y0193022D01*
X0111044Y0192655D01*
X0027358Y0150902D02*
X0025890Y0150902D01*
X0025890Y0149801D01*
X0026624Y0150168D01*
X0026991Y0150168D01*
X0027358Y0149801D01*
X0027358Y0149067D01*
X0026991Y0148700D01*
X0026257Y0148700D01*
X0025890Y0149067D01*
X0025148Y0148700D02*
X0023680Y0148700D01*
X0024414Y0148700D02*
X0024414Y0150902D01*
X0023680Y0150168D01*
X0022938Y0150535D02*
X0022938Y0149801D01*
X0022571Y0149434D01*
X0021470Y0149434D01*
X0021470Y0148700D02*
X0021470Y0150902D01*
X0022571Y0150902D01*
X0022938Y0150535D01*
X0022204Y0149434D02*
X0022938Y0148700D01*
X0023083Y0143278D02*
X0022716Y0143278D01*
X0022349Y0142911D01*
X0022349Y0142544D01*
X0022349Y0142911D02*
X0021982Y0143278D01*
X0021615Y0143278D01*
X0021248Y0142911D01*
X0021248Y0142177D01*
X0021615Y0141810D01*
X0021248Y0141068D02*
X0023083Y0141068D01*
X0023450Y0140701D01*
X0023450Y0139967D01*
X0023083Y0139600D01*
X0021248Y0139600D01*
X0023083Y0141810D02*
X0023450Y0142177D01*
X0023450Y0142911D01*
X0023083Y0143278D01*
X0016358Y0148700D02*
X0014890Y0148700D01*
X0016358Y0150168D01*
X0016358Y0150535D01*
X0015991Y0150902D01*
X0015257Y0150902D01*
X0014890Y0150535D01*
X0014148Y0150535D02*
X0014148Y0149067D01*
X0013781Y0148700D01*
X0012680Y0148700D01*
X0012680Y0150902D01*
X0013781Y0150902D01*
X0014148Y0150535D01*
X0011938Y0150902D02*
X0010470Y0150902D01*
X0010470Y0148700D01*
X0011938Y0148700D01*
X0011204Y0149801D02*
X0010470Y0149801D01*
X0009728Y0148700D02*
X0008260Y0148700D01*
X0008260Y0150902D01*
X0008260Y0162700D02*
X0009728Y0162700D01*
X0010470Y0162700D02*
X0011938Y0162700D01*
X0012680Y0162700D02*
X0013781Y0162700D01*
X0014148Y0163067D01*
X0014148Y0164535D01*
X0013781Y0164902D01*
X0012680Y0164902D01*
X0012680Y0162700D01*
X0011204Y0163801D02*
X0010470Y0163801D01*
X0010470Y0164902D02*
X0010470Y0162700D01*
X0010470Y0164902D02*
X0011938Y0164902D01*
X0014890Y0164168D02*
X0015624Y0164902D01*
X0015624Y0162700D01*
X0014890Y0162700D02*
X0016358Y0162700D01*
X0021680Y0162700D02*
X0021680Y0164902D01*
X0022781Y0164902D01*
X0023148Y0164535D01*
X0023148Y0163801D01*
X0022781Y0163434D01*
X0021680Y0163434D01*
X0022414Y0163434D02*
X0023148Y0162700D01*
X0023890Y0163067D02*
X0024257Y0162700D01*
X0024991Y0162700D01*
X0025358Y0163067D01*
X0025358Y0163434D01*
X0024991Y0163801D01*
X0023890Y0163801D01*
X0023890Y0163067D01*
X0023890Y0163801D02*
X0024624Y0164535D01*
X0025358Y0164902D01*
X0023154Y0172677D02*
X0023154Y0173677D01*
X0008260Y0164902D02*
X0008260Y0162700D01*
X0023154Y0194677D02*
X0023154Y0195677D01*
X0262327Y0195677D02*
X0262327Y0194677D01*
X0262327Y0173677D02*
X0262327Y0172677D01*
D15*
X0009909Y0160976D03*
X0009909Y0158024D03*
X0009909Y0154976D03*
X0009909Y0152024D03*
D16*
X0009909Y0153500D03*
X0009909Y0159500D03*
D17*
X0015714Y0137816D02*
X0018850Y0134680D01*
X0017282Y0134680D02*
X0017282Y0137816D01*
X0018850Y0137816D02*
X0015714Y0134680D01*
X0015714Y0136248D02*
X0018850Y0136248D01*
D18*
X0254232Y0161870D03*
X0262461Y0167697D03*
X0270728Y0161831D03*
X0263839Y0154744D03*
X0262461Y0147697D03*
D19*
X0262461Y0147736D03*
X0270256Y0162067D03*
X0262461Y0167657D03*
D20*
X0262461Y0167618D03*
X0258917Y0152697D03*
X0262461Y0147776D03*
D21*
X0262461Y0147815D03*
X0262461Y0167579D03*
D22*
X0262461Y0167539D03*
X0259193Y0166240D03*
X0259114Y0166201D03*
X0258996Y0166122D03*
X0258602Y0149547D03*
X0258642Y0149508D03*
X0258681Y0149469D03*
X0259744Y0148839D03*
X0262461Y0147854D03*
X0265531Y0149035D03*
X0265728Y0149154D03*
D23*
X0264980Y0148799D03*
X0266555Y0149823D03*
X0266594Y0149862D03*
X0262461Y0147894D03*
X0258051Y0150098D03*
X0258012Y0150138D03*
X0259823Y0166516D03*
X0262461Y0167500D03*
D24*
X0262461Y0167461D03*
X0267106Y0164902D03*
X0257657Y0164744D03*
X0262382Y0154193D03*
X0257657Y0150650D03*
X0262461Y0147933D03*
X0267028Y0150413D03*
X0267067Y0150453D03*
D25*
X0267303Y0150846D03*
X0262461Y0147972D03*
X0257461Y0151004D03*
X0257461Y0151043D03*
X0257382Y0164272D03*
X0262461Y0167421D03*
X0267382Y0164469D03*
X0267421Y0164429D03*
D26*
X0267657Y0163957D03*
X0262461Y0167382D03*
X0257185Y0163839D03*
X0257303Y0151398D03*
X0262461Y0148012D03*
X0267461Y0151201D03*
D27*
X0267579Y0151476D03*
X0267579Y0151516D03*
X0262461Y0148051D03*
X0257224Y0151673D03*
X0257067Y0163524D03*
X0262461Y0167343D03*
X0267776Y0163642D03*
D28*
X0267933Y0163209D03*
X0267933Y0163169D03*
X0262461Y0167303D03*
X0256909Y0163091D03*
X0256909Y0163051D03*
X0257146Y0151988D03*
X0262461Y0148091D03*
D29*
X0262461Y0148130D03*
X0267736Y0152067D03*
X0257106Y0152224D03*
X0256831Y0162736D03*
X0262461Y0167264D03*
D30*
X0262461Y0167224D03*
X0268091Y0162539D03*
X0268091Y0162500D03*
X0256791Y0162461D03*
X0256791Y0162421D03*
X0257106Y0152421D03*
X0262461Y0148169D03*
D31*
X0262461Y0148209D03*
X0257106Y0152618D03*
X0268169Y0162185D03*
X0262461Y0167185D03*
D32*
X0262461Y0167146D03*
X0267736Y0152657D03*
X0262461Y0148248D03*
D33*
X0262461Y0148287D03*
X0267736Y0152776D03*
X0262461Y0167106D03*
D34*
X0262461Y0167067D03*
X0262461Y0148327D03*
D35*
X0262461Y0148366D03*
X0262461Y0167028D03*
D36*
X0262461Y0166988D03*
X0262461Y0148406D03*
D37*
X0262461Y0148445D03*
X0262461Y0166949D03*
D38*
X0262461Y0166909D03*
X0262461Y0148484D03*
D39*
X0262461Y0148524D03*
X0262461Y0166870D03*
D40*
X0262461Y0166831D03*
X0262461Y0148563D03*
D41*
X0262461Y0148602D03*
X0262461Y0166791D03*
D42*
X0262461Y0166752D03*
X0262461Y0148642D03*
D43*
X0262461Y0148681D03*
X0262461Y0166713D03*
D44*
X0262461Y0166673D03*
X0262461Y0148720D03*
D45*
X0262461Y0148760D03*
X0262461Y0166634D03*
D46*
X0259587Y0166437D03*
X0258524Y0165728D03*
X0265413Y0166398D03*
X0266043Y0166004D03*
X0266083Y0165965D03*
X0266161Y0165925D03*
X0266201Y0165886D03*
X0266240Y0165846D03*
X0266240Y0149547D03*
X0266201Y0149508D03*
X0266161Y0149469D03*
X0265098Y0148839D03*
X0259862Y0148799D03*
X0258287Y0149823D03*
X0258248Y0149862D03*
D47*
X0258740Y0149429D03*
X0258780Y0149390D03*
X0259646Y0148878D03*
D48*
X0258346Y0149783D03*
X0265197Y0148878D03*
X0266063Y0149390D03*
X0266102Y0149429D03*
X0258543Y0165768D03*
X0258583Y0165807D03*
X0259488Y0166398D03*
X0265472Y0166358D03*
X0265630Y0166280D03*
X0265827Y0166161D03*
X0265945Y0166083D03*
X0265984Y0166043D03*
D49*
X0258839Y0149350D03*
X0258878Y0149311D03*
X0259547Y0148917D03*
D50*
X0258406Y0149705D03*
X0258366Y0149744D03*
X0265295Y0148917D03*
X0265846Y0149232D03*
X0265965Y0149311D03*
X0266004Y0149350D03*
X0258642Y0165846D03*
X0258681Y0165886D03*
X0258720Y0165925D03*
X0258839Y0166004D03*
X0265571Y0166319D03*
X0265689Y0166240D03*
X0265768Y0166201D03*
X0265886Y0166122D03*
D51*
X0258937Y0149272D03*
X0258976Y0149232D03*
X0259055Y0149193D03*
X0259173Y0149114D03*
X0259252Y0149075D03*
X0259370Y0148996D03*
X0259449Y0148957D03*
D52*
X0258543Y0149587D03*
X0258504Y0149626D03*
X0258465Y0149665D03*
X0265394Y0148957D03*
X0265472Y0148996D03*
X0265591Y0149075D03*
X0265669Y0149114D03*
X0265787Y0149193D03*
X0265906Y0149272D03*
X0258780Y0165965D03*
X0258898Y0166043D03*
X0258937Y0166083D03*
X0259055Y0166161D03*
X0259252Y0166280D03*
X0259331Y0166319D03*
X0259409Y0166358D03*
D53*
X0259114Y0149154D03*
X0259311Y0149035D03*
D54*
X0258228Y0149902D03*
X0258189Y0149941D03*
X0266299Y0149587D03*
X0266339Y0149626D03*
X0266378Y0149665D03*
X0258386Y0165610D03*
X0258425Y0165650D03*
X0258465Y0165689D03*
X0259685Y0166476D03*
X0265315Y0166437D03*
D55*
X0265217Y0166476D03*
X0266280Y0165807D03*
X0266319Y0165768D03*
X0266358Y0165728D03*
X0258327Y0165571D03*
X0266437Y0149705D03*
D56*
X0266457Y0149744D03*
X0266496Y0149783D03*
X0258150Y0149980D03*
X0258110Y0150020D03*
X0258071Y0150059D03*
X0258228Y0165453D03*
X0258268Y0165492D03*
X0258307Y0165531D03*
X0266417Y0165689D03*
X0266457Y0165650D03*
X0266496Y0165610D03*
D57*
X0266535Y0165571D03*
X0266575Y0165531D03*
X0266614Y0165492D03*
X0266654Y0165453D03*
X0265079Y0166516D03*
X0258189Y0165413D03*
X0258150Y0165374D03*
X0258110Y0165335D03*
X0257992Y0150177D03*
X0266614Y0149902D03*
X0266654Y0149941D03*
D58*
X0266693Y0149980D03*
X0266732Y0150020D03*
X0266772Y0150059D03*
X0262520Y0154587D03*
X0262520Y0154626D03*
X0257913Y0150256D03*
X0266732Y0165374D03*
X0266693Y0165413D03*
D59*
X0266752Y0165335D03*
X0266791Y0165295D03*
X0266831Y0165256D03*
X0257972Y0165177D03*
X0257933Y0165138D03*
X0262500Y0154547D03*
X0262500Y0154508D03*
X0266831Y0150138D03*
X0266791Y0150098D03*
X0257894Y0150295D03*
X0257854Y0150335D03*
D60*
X0257835Y0150374D03*
X0262480Y0154469D03*
X0266850Y0150177D03*
X0266850Y0165217D03*
X0257913Y0165098D03*
X0257874Y0165059D03*
D61*
X0258012Y0165217D03*
X0258051Y0165256D03*
X0258091Y0165295D03*
X0257933Y0150217D03*
D62*
X0257815Y0150413D03*
X0257776Y0150453D03*
X0262461Y0154390D03*
X0262461Y0154429D03*
X0266909Y0150217D03*
X0266909Y0165177D03*
X0257854Y0165020D03*
X0257815Y0164980D03*
D63*
X0257795Y0164941D03*
X0266929Y0165138D03*
X0266969Y0165098D03*
X0262441Y0154350D03*
X0257756Y0150492D03*
X0266929Y0150256D03*
D64*
X0266949Y0150295D03*
X0266988Y0150335D03*
X0262421Y0154311D03*
X0257736Y0150531D03*
X0257697Y0150571D03*
X0257736Y0164862D03*
X0257776Y0164902D03*
X0266988Y0165059D03*
X0267028Y0165020D03*
D65*
X0267047Y0164980D03*
X0267087Y0164941D03*
X0257717Y0164823D03*
X0257677Y0164783D03*
X0262402Y0154272D03*
X0262402Y0154232D03*
X0257677Y0150610D03*
X0267008Y0150374D03*
D66*
X0267087Y0150492D03*
X0262323Y0154075D03*
X0262323Y0154114D03*
X0262362Y0154154D03*
X0257638Y0150689D03*
X0257598Y0164665D03*
X0257638Y0164705D03*
X0267126Y0164862D03*
X0267165Y0164823D03*
D67*
X0267185Y0164783D03*
X0257579Y0164626D03*
X0262303Y0154035D03*
X0261909Y0153642D03*
X0257618Y0150728D03*
X0257579Y0150768D03*
X0267106Y0150531D03*
X0267146Y0150571D03*
D68*
X0267165Y0150610D03*
X0262283Y0153996D03*
X0257559Y0150807D03*
X0257520Y0164547D03*
X0257559Y0164587D03*
X0267205Y0164744D03*
X0267244Y0164705D03*
D69*
X0267264Y0164665D03*
X0257500Y0164508D03*
X0262264Y0153957D03*
X0261988Y0153681D03*
X0257539Y0150846D03*
X0267185Y0150650D03*
D70*
X0267205Y0150689D03*
X0262244Y0153917D03*
X0262205Y0153878D03*
X0257520Y0150886D03*
X0257480Y0164469D03*
X0267283Y0164626D03*
X0267323Y0164587D03*
D71*
X0267343Y0164547D03*
X0257461Y0164429D03*
X0257421Y0164390D03*
X0257421Y0164350D03*
X0262185Y0153839D03*
X0262146Y0153799D03*
X0262106Y0153760D03*
X0262067Y0153720D03*
X0257500Y0150925D03*
X0267224Y0150728D03*
X0267264Y0150768D03*
D72*
X0267283Y0150807D03*
X0257480Y0150965D03*
X0257402Y0164311D03*
X0267362Y0164508D03*
D73*
X0267441Y0164390D03*
X0267441Y0164350D03*
X0257362Y0164232D03*
X0257441Y0151083D03*
X0267323Y0150886D03*
D74*
X0267343Y0150925D03*
X0257421Y0151122D03*
X0257303Y0164154D03*
X0257343Y0164193D03*
X0267461Y0164311D03*
X0267500Y0164272D03*
D75*
X0267520Y0164232D03*
X0257283Y0164114D03*
X0257283Y0164075D03*
X0257402Y0151161D03*
X0267362Y0150965D03*
D76*
X0267382Y0151004D03*
X0267382Y0151043D03*
X0257382Y0151201D03*
X0257264Y0164035D03*
X0267539Y0164193D03*
D77*
X0267559Y0164154D03*
X0257244Y0163996D03*
X0257362Y0151240D03*
X0267402Y0151083D03*
D78*
X0267421Y0151122D03*
X0257343Y0151280D03*
X0257343Y0151319D03*
X0257224Y0163957D03*
X0267579Y0164075D03*
X0267579Y0164114D03*
X0267618Y0164035D03*
D79*
X0267638Y0163996D03*
X0257205Y0163917D03*
X0257205Y0163878D03*
X0257323Y0151358D03*
X0267441Y0151161D03*
D80*
X0267480Y0151240D03*
X0257283Y0151437D03*
X0257165Y0163799D03*
X0267677Y0163878D03*
X0267677Y0163917D03*
D81*
X0267697Y0163839D03*
X0257146Y0163760D03*
X0257146Y0163720D03*
X0257264Y0151516D03*
X0257264Y0151476D03*
X0267500Y0151319D03*
X0267500Y0151280D03*
D82*
X0267520Y0151358D03*
X0257244Y0151555D03*
X0257126Y0163681D03*
X0267717Y0163799D03*
D83*
X0267736Y0163760D03*
X0267736Y0163720D03*
X0257106Y0163642D03*
X0257224Y0151594D03*
X0267539Y0151398D03*
D84*
X0267559Y0151437D03*
X0257205Y0151634D03*
X0257087Y0163563D03*
X0257087Y0163602D03*
X0267756Y0163681D03*
D85*
X0267795Y0163602D03*
X0267795Y0163563D03*
X0257047Y0163484D03*
X0257205Y0151713D03*
X0267598Y0151555D03*
D86*
X0267618Y0151594D03*
X0257185Y0151752D03*
X0257028Y0163406D03*
X0257028Y0163445D03*
X0267815Y0163524D03*
D87*
X0267835Y0163484D03*
X0257008Y0163366D03*
X0257165Y0151831D03*
X0257165Y0151791D03*
X0267638Y0151634D03*
D88*
X0267618Y0151673D03*
X0267854Y0163406D03*
X0267854Y0163445D03*
X0256988Y0163327D03*
X0256988Y0163287D03*
D89*
X0256969Y0163248D03*
X0267874Y0163366D03*
X0267638Y0151713D03*
X0257165Y0151870D03*
D90*
X0257146Y0151909D03*
X0267657Y0151752D03*
X0267894Y0163287D03*
X0267894Y0163327D03*
X0256949Y0163209D03*
X0256949Y0163169D03*
D91*
X0256929Y0163130D03*
X0267913Y0163248D03*
X0257126Y0151949D03*
X0267677Y0151831D03*
X0267677Y0151791D03*
D92*
X0267677Y0151870D03*
X0257126Y0152028D03*
X0256890Y0162972D03*
X0256890Y0163012D03*
X0267953Y0163130D03*
D93*
X0267972Y0163091D03*
X0267972Y0163051D03*
X0267697Y0151909D03*
X0257106Y0152067D03*
D94*
X0257126Y0152106D03*
X0267717Y0151949D03*
X0267992Y0162972D03*
X0267992Y0163012D03*
X0256890Y0162933D03*
D95*
X0256870Y0162894D03*
X0256870Y0162854D03*
X0268012Y0162933D03*
X0267697Y0151988D03*
X0257106Y0152146D03*
D96*
X0257087Y0152185D03*
X0267717Y0152028D03*
X0268031Y0162854D03*
X0268031Y0162894D03*
X0256850Y0162815D03*
X0256850Y0162776D03*
D97*
X0256811Y0162697D03*
X0268031Y0162776D03*
X0268031Y0162815D03*
X0267717Y0152106D03*
X0257087Y0152264D03*
D98*
X0267736Y0152146D03*
X0268051Y0162736D03*
X0256831Y0162657D03*
D99*
X0256811Y0162618D03*
X0256811Y0162579D03*
X0268071Y0162657D03*
X0268071Y0162697D03*
X0267756Y0152185D03*
X0257087Y0152303D03*
X0257087Y0152343D03*
D100*
X0267736Y0152224D03*
X0268091Y0162579D03*
X0268091Y0162618D03*
X0256791Y0162539D03*
X0256791Y0162500D03*
D101*
X0257087Y0152382D03*
X0267756Y0152264D03*
D102*
X0267756Y0152303D03*
X0267756Y0152343D03*
X0257087Y0152461D03*
X0256772Y0162382D03*
X0268110Y0162421D03*
X0268110Y0162461D03*
D103*
X0256772Y0162303D03*
X0257087Y0152539D03*
X0257087Y0152500D03*
X0267756Y0152382D03*
D104*
X0267736Y0152421D03*
X0268130Y0162303D03*
X0268130Y0162343D03*
X0256752Y0162264D03*
D105*
X0268150Y0162264D03*
X0268150Y0162224D03*
X0267756Y0152461D03*
X0257087Y0152579D03*
D106*
X0267756Y0152539D03*
X0267756Y0152500D03*
X0268150Y0162146D03*
D107*
X0267756Y0152579D03*
D108*
X0267736Y0152618D03*
D109*
X0257106Y0152657D03*
X0268169Y0162106D03*
D110*
X0255059Y0152697D03*
D111*
X0256890Y0152697D03*
X0256890Y0152736D03*
X0256890Y0152776D03*
X0256890Y0152815D03*
X0256890Y0152854D03*
X0256890Y0152894D03*
X0256890Y0152933D03*
X0256890Y0152972D03*
X0256890Y0153012D03*
X0256890Y0153051D03*
X0256890Y0153091D03*
X0256890Y0153130D03*
X0256890Y0153169D03*
X0256890Y0153209D03*
X0256890Y0153248D03*
X0256890Y0153287D03*
X0256890Y0153327D03*
X0256890Y0153366D03*
X0256890Y0153406D03*
X0256890Y0153445D03*
X0253228Y0154508D03*
X0253189Y0154587D03*
X0253189Y0154626D03*
X0253150Y0154665D03*
X0252874Y0159626D03*
X0252874Y0159665D03*
X0252913Y0159705D03*
X0252913Y0159744D03*
X0252913Y0159783D03*
X0252953Y0159862D03*
X0256890Y0161476D03*
X0256890Y0161516D03*
X0256890Y0161555D03*
X0256890Y0161594D03*
X0256890Y0161634D03*
X0256890Y0161673D03*
X0256890Y0161713D03*
X0256890Y0161752D03*
X0256890Y0161791D03*
X0256890Y0161831D03*
X0256890Y0161870D03*
X0256890Y0161909D03*
X0256890Y0161949D03*
X0256890Y0161988D03*
X0256890Y0162028D03*
X0256890Y0162067D03*
X0256890Y0162106D03*
X0256890Y0162146D03*
X0256890Y0162185D03*
X0256890Y0162224D03*
X0260118Y0160965D03*
X0260157Y0160925D03*
X0261260Y0157382D03*
X0261260Y0157343D03*
X0261260Y0157303D03*
X0261260Y0157264D03*
X0264449Y0159823D03*
X0264449Y0159862D03*
X0264449Y0159902D03*
X0264449Y0159941D03*
X0271929Y0160059D03*
X0271929Y0160098D03*
X0271969Y0160020D03*
X0271969Y0159980D03*
X0271969Y0159941D03*
X0271811Y0154823D03*
X0271811Y0154783D03*
X0271772Y0154744D03*
D112*
X0267756Y0152697D03*
D113*
X0254941Y0152736D03*
X0254665Y0162146D03*
D114*
X0254902Y0162224D03*
X0259075Y0152736D03*
D115*
X0267736Y0152736D03*
D116*
X0260492Y0153524D03*
X0259587Y0152972D03*
X0254823Y0152776D03*
D117*
X0259173Y0152776D03*
D118*
X0259783Y0153091D03*
X0259823Y0153130D03*
X0259902Y0153169D03*
X0260335Y0153445D03*
X0254744Y0152815D03*
X0254429Y0162028D03*
D119*
X0259272Y0152815D03*
D120*
X0267717Y0152815D03*
D121*
X0260020Y0153248D03*
X0254665Y0152854D03*
X0270531Y0161949D03*
D122*
X0260709Y0153602D03*
X0259370Y0152854D03*
D123*
X0267717Y0152854D03*
D124*
X0270453Y0153051D03*
X0263799Y0154705D03*
X0261280Y0154665D03*
X0254587Y0152894D03*
X0254272Y0161909D03*
X0259114Y0162067D03*
D125*
X0259449Y0152894D03*
D126*
X0267697Y0152894D03*
D127*
X0270669Y0161870D03*
X0256890Y0160571D03*
X0256890Y0160531D03*
X0256890Y0160492D03*
X0256890Y0160453D03*
X0256890Y0160413D03*
X0256890Y0160374D03*
X0256890Y0160335D03*
X0256890Y0160295D03*
X0256890Y0160256D03*
X0256890Y0160217D03*
X0256890Y0160177D03*
X0256890Y0160138D03*
X0256890Y0160098D03*
X0256890Y0160059D03*
X0256890Y0160020D03*
X0256890Y0159980D03*
X0256890Y0159941D03*
X0256890Y0159902D03*
X0256890Y0159862D03*
X0256890Y0159823D03*
X0256890Y0159783D03*
X0256890Y0159744D03*
X0256890Y0159705D03*
X0256890Y0159665D03*
X0256890Y0159626D03*
X0256890Y0159587D03*
X0256890Y0159547D03*
X0256890Y0159508D03*
X0256890Y0159469D03*
X0256890Y0159429D03*
X0256890Y0159390D03*
X0256890Y0159350D03*
X0256890Y0159311D03*
X0256890Y0159272D03*
X0256890Y0159232D03*
X0256890Y0159193D03*
X0256890Y0159154D03*
X0256890Y0159114D03*
X0256890Y0159075D03*
X0256890Y0159035D03*
X0256890Y0158996D03*
X0256890Y0158957D03*
X0256890Y0158917D03*
X0256890Y0158878D03*
X0256890Y0158839D03*
X0256890Y0158799D03*
X0256890Y0158760D03*
X0256890Y0158720D03*
X0256890Y0158681D03*
X0256890Y0158642D03*
X0256890Y0158602D03*
X0256890Y0158563D03*
X0256890Y0158524D03*
X0256890Y0158484D03*
X0256890Y0158445D03*
X0256890Y0158406D03*
X0256890Y0158366D03*
X0256890Y0158327D03*
X0256890Y0158287D03*
X0256890Y0158248D03*
X0256890Y0158209D03*
X0256890Y0158169D03*
X0256890Y0158130D03*
X0256890Y0158091D03*
X0256890Y0158051D03*
X0256890Y0158012D03*
X0256890Y0157972D03*
X0256890Y0157933D03*
X0256890Y0157894D03*
X0256890Y0157854D03*
X0256890Y0157815D03*
X0256890Y0157776D03*
X0256890Y0157736D03*
X0256890Y0157697D03*
X0256890Y0157657D03*
X0256890Y0157618D03*
X0256890Y0157579D03*
X0256890Y0157539D03*
X0256890Y0157500D03*
X0256890Y0157461D03*
X0256890Y0157421D03*
X0256890Y0157382D03*
X0256890Y0157343D03*
X0256890Y0157303D03*
X0256890Y0157264D03*
X0256890Y0157224D03*
X0256890Y0157185D03*
X0256890Y0157146D03*
X0256890Y0157106D03*
X0256890Y0157067D03*
X0256890Y0157028D03*
X0256890Y0156988D03*
X0256890Y0156949D03*
X0256890Y0156909D03*
X0256890Y0156870D03*
X0256890Y0156831D03*
X0256890Y0156791D03*
X0256890Y0156752D03*
X0256890Y0156713D03*
X0256890Y0156673D03*
X0256890Y0156634D03*
X0256890Y0156594D03*
X0256890Y0156555D03*
X0256890Y0156516D03*
X0256890Y0156476D03*
X0256890Y0156437D03*
X0256890Y0156398D03*
X0256890Y0156358D03*
X0256890Y0156319D03*
X0256890Y0156280D03*
X0256890Y0156240D03*
X0256890Y0156201D03*
X0256890Y0156161D03*
X0256890Y0156122D03*
X0256890Y0156083D03*
X0256890Y0156043D03*
X0256890Y0156004D03*
X0256890Y0155965D03*
X0256890Y0155925D03*
X0256890Y0155886D03*
X0256890Y0155846D03*
X0256890Y0155807D03*
X0256890Y0155768D03*
X0256890Y0155728D03*
X0256890Y0155689D03*
X0256890Y0155650D03*
X0256890Y0155610D03*
X0256890Y0155571D03*
X0256890Y0155531D03*
X0256890Y0155492D03*
X0256890Y0155453D03*
X0256890Y0155413D03*
X0256890Y0155374D03*
X0256890Y0155335D03*
X0256890Y0155295D03*
X0256890Y0155256D03*
X0256890Y0155217D03*
X0256890Y0155177D03*
X0256890Y0155138D03*
X0256890Y0155098D03*
X0256890Y0155059D03*
X0256890Y0155020D03*
X0256890Y0154980D03*
X0256890Y0154941D03*
X0256890Y0154902D03*
X0256890Y0154862D03*
X0256890Y0154823D03*
X0256890Y0154783D03*
X0256890Y0154744D03*
X0256890Y0154705D03*
X0256890Y0154665D03*
X0256890Y0154626D03*
X0256890Y0154587D03*
X0254528Y0152933D03*
D128*
X0259508Y0152933D03*
D129*
X0264193Y0152933D03*
X0260925Y0159114D03*
X0260886Y0159232D03*
X0260846Y0159350D03*
X0260807Y0159469D03*
X0260768Y0159587D03*
X0260728Y0159705D03*
X0264587Y0160886D03*
X0264587Y0160925D03*
D130*
X0264429Y0159783D03*
X0264429Y0159744D03*
X0264429Y0159705D03*
X0268012Y0161319D03*
X0268012Y0161358D03*
X0268012Y0161398D03*
X0268012Y0161437D03*
X0268012Y0161476D03*
X0268012Y0161516D03*
X0268012Y0161555D03*
X0268012Y0161594D03*
X0268012Y0161634D03*
X0268012Y0161673D03*
X0268012Y0161713D03*
X0268012Y0161752D03*
X0268012Y0161791D03*
X0268012Y0161831D03*
X0268012Y0161870D03*
X0268012Y0161909D03*
X0268012Y0161949D03*
X0268012Y0161988D03*
X0268012Y0162028D03*
X0268012Y0162067D03*
X0271870Y0160217D03*
X0271909Y0160138D03*
X0271752Y0154705D03*
X0271752Y0154665D03*
X0271713Y0154626D03*
X0271713Y0154587D03*
X0268012Y0153642D03*
X0268012Y0153602D03*
X0268012Y0153563D03*
X0268012Y0153524D03*
X0268012Y0153484D03*
X0268012Y0153445D03*
X0268012Y0153406D03*
X0268012Y0153366D03*
X0268012Y0153327D03*
X0268012Y0153287D03*
X0268012Y0153248D03*
X0268012Y0153209D03*
X0268012Y0153169D03*
X0268012Y0153130D03*
X0268012Y0153091D03*
X0268012Y0153051D03*
X0268012Y0153012D03*
X0268012Y0152972D03*
X0268012Y0152933D03*
X0263760Y0153406D03*
X0261280Y0157106D03*
X0261280Y0157146D03*
X0261280Y0157185D03*
X0261280Y0157224D03*
X0260098Y0161004D03*
X0252972Y0159941D03*
X0252972Y0159902D03*
X0252933Y0159823D03*
X0253209Y0154547D03*
X0253248Y0154469D03*
X0253287Y0154390D03*
D131*
X0260591Y0153563D03*
X0270157Y0152933D03*
X0270394Y0162028D03*
X0258858Y0162185D03*
X0254567Y0162106D03*
D132*
X0256870Y0160925D03*
X0256870Y0154114D03*
X0256870Y0154075D03*
X0254469Y0152972D03*
X0263878Y0154823D03*
X0270571Y0153130D03*
X0270768Y0161791D03*
D133*
X0264626Y0161122D03*
X0264626Y0161083D03*
X0263996Y0153091D03*
X0264035Y0153051D03*
X0264075Y0153012D03*
X0264114Y0152972D03*
D134*
X0260276Y0153406D03*
X0260197Y0153366D03*
X0260157Y0153327D03*
X0260079Y0153287D03*
X0259961Y0153209D03*
X0270276Y0152972D03*
D135*
X0263898Y0154862D03*
X0261220Y0154744D03*
X0256890Y0154035D03*
X0256890Y0153996D03*
X0254409Y0153012D03*
X0256890Y0160965D03*
X0256890Y0161004D03*
X0259252Y0161988D03*
X0254134Y0161791D03*
X0270827Y0161752D03*
D136*
X0259646Y0153012D03*
D137*
X0263760Y0154665D03*
X0270374Y0153012D03*
X0270610Y0161909D03*
D138*
X0263917Y0154941D03*
X0263917Y0154902D03*
X0270610Y0153169D03*
X0256870Y0153957D03*
X0254350Y0153051D03*
X0256870Y0161043D03*
X0254075Y0161752D03*
D139*
X0254508Y0162067D03*
X0259705Y0153051D03*
X0260413Y0153484D03*
D140*
X0261201Y0154823D03*
X0263957Y0155059D03*
X0263957Y0155098D03*
X0263957Y0155138D03*
X0263957Y0155177D03*
X0256870Y0153839D03*
X0254311Y0153091D03*
X0256870Y0161122D03*
X0254035Y0161713D03*
X0253996Y0161673D03*
D141*
X0254173Y0161831D03*
X0256890Y0160886D03*
X0256890Y0160846D03*
X0256890Y0160807D03*
X0256890Y0160768D03*
X0256890Y0160728D03*
X0256890Y0160689D03*
X0256890Y0160650D03*
X0256890Y0160610D03*
X0259173Y0162028D03*
X0261260Y0154705D03*
X0263858Y0154783D03*
X0270512Y0153091D03*
X0256890Y0154154D03*
X0256890Y0154193D03*
X0256890Y0154232D03*
X0256890Y0154272D03*
X0256890Y0154311D03*
X0256890Y0154350D03*
X0256890Y0154390D03*
X0256890Y0154429D03*
X0256890Y0154469D03*
X0256890Y0154508D03*
X0256890Y0154547D03*
D142*
X0256890Y0153799D03*
X0254252Y0153130D03*
X0261220Y0154862D03*
X0263976Y0155217D03*
X0263976Y0155256D03*
X0263976Y0155295D03*
X0263976Y0155335D03*
X0263976Y0155374D03*
X0263976Y0155413D03*
X0263976Y0155453D03*
X0270709Y0153248D03*
X0270945Y0161634D03*
X0259331Y0161909D03*
X0256890Y0161161D03*
D143*
X0264606Y0161043D03*
X0264606Y0161004D03*
X0264606Y0160965D03*
X0263976Y0153130D03*
D144*
X0261220Y0154941D03*
X0264016Y0156043D03*
X0264016Y0156083D03*
X0264016Y0156122D03*
X0264016Y0156161D03*
X0264016Y0156201D03*
X0264016Y0156240D03*
X0264016Y0156280D03*
X0264016Y0156319D03*
X0264016Y0156358D03*
X0264016Y0156398D03*
X0259409Y0161870D03*
X0256890Y0161201D03*
X0253937Y0161594D03*
X0253898Y0161555D03*
X0256890Y0153720D03*
X0254213Y0153169D03*
X0270984Y0161594D03*
X0271024Y0161555D03*
D145*
X0264606Y0160846D03*
X0264606Y0160807D03*
X0260787Y0159547D03*
X0260787Y0159508D03*
X0260827Y0159429D03*
X0260827Y0159390D03*
X0260866Y0159311D03*
X0260866Y0159272D03*
X0260906Y0159193D03*
X0260906Y0159154D03*
X0260945Y0159075D03*
X0260945Y0159035D03*
X0260945Y0158996D03*
X0260945Y0158957D03*
X0260984Y0158917D03*
X0260984Y0158878D03*
X0260984Y0158839D03*
X0261024Y0158760D03*
X0261024Y0158720D03*
X0260748Y0159626D03*
X0260748Y0159665D03*
X0260709Y0159744D03*
X0260709Y0159783D03*
X0260669Y0159823D03*
X0260669Y0159862D03*
X0260630Y0159941D03*
X0260591Y0160059D03*
X0263937Y0153169D03*
D146*
X0263524Y0153602D03*
X0261201Y0154980D03*
X0264035Y0156437D03*
X0264035Y0156476D03*
X0264035Y0156516D03*
X0264035Y0156555D03*
X0264035Y0156594D03*
X0264035Y0156634D03*
X0264035Y0156673D03*
X0268406Y0156673D03*
X0268406Y0156634D03*
X0268406Y0156594D03*
X0268406Y0156555D03*
X0268406Y0156516D03*
X0268406Y0156476D03*
X0268406Y0156437D03*
X0268406Y0156398D03*
X0268406Y0156358D03*
X0268406Y0156319D03*
X0268406Y0156280D03*
X0268406Y0156240D03*
X0268406Y0156201D03*
X0268406Y0156161D03*
X0268406Y0156122D03*
X0268406Y0156083D03*
X0268406Y0156043D03*
X0268406Y0156004D03*
X0268406Y0155965D03*
X0268406Y0155925D03*
X0268406Y0155886D03*
X0268406Y0155846D03*
X0268406Y0155807D03*
X0268406Y0155768D03*
X0268406Y0155728D03*
X0268406Y0155689D03*
X0268406Y0155650D03*
X0268406Y0155610D03*
X0268406Y0155571D03*
X0268406Y0155531D03*
X0268406Y0155492D03*
X0268406Y0155453D03*
X0268406Y0155413D03*
X0268406Y0155374D03*
X0268406Y0155335D03*
X0268406Y0155295D03*
X0268406Y0155256D03*
X0268406Y0155217D03*
X0268406Y0155177D03*
X0268406Y0155138D03*
X0268406Y0155098D03*
X0268406Y0155059D03*
X0268406Y0155020D03*
X0268406Y0154980D03*
X0268406Y0154941D03*
X0268406Y0154902D03*
X0268406Y0154862D03*
X0268406Y0154823D03*
X0268406Y0156713D03*
X0268406Y0156752D03*
X0268406Y0156791D03*
X0268406Y0156831D03*
X0268406Y0156870D03*
X0268406Y0156909D03*
X0268406Y0156949D03*
X0268406Y0156988D03*
X0268406Y0157028D03*
X0268406Y0157067D03*
X0268406Y0157106D03*
X0268406Y0157146D03*
X0268406Y0157185D03*
X0268406Y0157224D03*
X0268406Y0157264D03*
X0268406Y0157303D03*
X0268406Y0157343D03*
X0268406Y0157382D03*
X0268406Y0157421D03*
X0268406Y0157461D03*
X0268406Y0157500D03*
X0268406Y0157539D03*
X0268406Y0157579D03*
X0268406Y0157618D03*
X0268406Y0157657D03*
X0268406Y0157697D03*
X0268406Y0157736D03*
X0268406Y0157776D03*
X0268406Y0157815D03*
X0268406Y0157854D03*
X0268406Y0157894D03*
X0268406Y0157933D03*
X0268406Y0157972D03*
X0268406Y0158012D03*
X0268406Y0158051D03*
X0268406Y0158091D03*
X0268406Y0158130D03*
X0268406Y0158169D03*
X0268406Y0158209D03*
X0268406Y0158248D03*
X0268406Y0158287D03*
X0268406Y0158327D03*
X0268406Y0158366D03*
X0268406Y0158406D03*
X0268406Y0158445D03*
X0268406Y0158484D03*
X0268406Y0158524D03*
X0268406Y0158563D03*
X0268406Y0158602D03*
X0268406Y0158642D03*
X0268406Y0158681D03*
X0268406Y0158720D03*
X0268406Y0158760D03*
X0268406Y0158799D03*
X0268406Y0158839D03*
X0268406Y0158878D03*
X0268406Y0158917D03*
X0268406Y0158957D03*
X0268406Y0158996D03*
X0268406Y0159035D03*
X0268406Y0159075D03*
X0268406Y0159114D03*
X0268406Y0159154D03*
X0268406Y0159193D03*
X0268406Y0159232D03*
X0268406Y0159272D03*
X0268406Y0159311D03*
X0268406Y0159350D03*
X0268406Y0159390D03*
X0268406Y0159429D03*
X0268406Y0159469D03*
X0268406Y0159508D03*
X0268406Y0159547D03*
X0268406Y0159587D03*
X0268406Y0159626D03*
X0268406Y0159665D03*
X0268406Y0159705D03*
X0268406Y0159744D03*
X0268406Y0159783D03*
X0268406Y0159823D03*
X0268406Y0159862D03*
X0268406Y0159902D03*
X0268406Y0159941D03*
X0268406Y0159980D03*
X0268406Y0160020D03*
X0268406Y0160059D03*
X0268406Y0160098D03*
X0268406Y0160138D03*
X0259429Y0161831D03*
X0254154Y0153209D03*
X0270807Y0153327D03*
X0270846Y0153366D03*
D147*
X0263917Y0153209D03*
X0261083Y0158445D03*
X0261083Y0158484D03*
X0261083Y0158524D03*
X0261043Y0158563D03*
X0261043Y0158602D03*
X0261043Y0158642D03*
X0261043Y0158681D03*
X0261004Y0158799D03*
X0260650Y0159902D03*
X0260610Y0159980D03*
X0260610Y0160020D03*
X0260571Y0160098D03*
X0260531Y0160177D03*
X0260492Y0160256D03*
X0264587Y0160689D03*
X0264587Y0160728D03*
X0264587Y0160768D03*
D148*
X0259291Y0161949D03*
X0256890Y0161083D03*
X0256890Y0153917D03*
X0256890Y0153878D03*
X0261220Y0154783D03*
X0263937Y0154980D03*
X0263937Y0155020D03*
X0270669Y0153209D03*
X0270906Y0161673D03*
X0270866Y0161713D03*
D149*
X0271063Y0161516D03*
X0271102Y0161476D03*
X0268386Y0160571D03*
X0268386Y0160531D03*
X0268386Y0160492D03*
X0268386Y0160453D03*
X0268386Y0160413D03*
X0268386Y0160374D03*
X0268386Y0160335D03*
X0268386Y0160295D03*
X0268386Y0160256D03*
X0268386Y0160217D03*
X0268386Y0160177D03*
X0264055Y0156909D03*
X0264055Y0156870D03*
X0264055Y0156831D03*
X0264055Y0156791D03*
X0264055Y0156752D03*
X0264055Y0156713D03*
X0261220Y0155020D03*
X0256890Y0153681D03*
X0254134Y0153248D03*
X0253819Y0161476D03*
X0253858Y0161516D03*
X0256890Y0161240D03*
X0268386Y0154783D03*
X0268386Y0154744D03*
X0268386Y0154705D03*
X0268386Y0154665D03*
X0268386Y0154626D03*
X0268386Y0154587D03*
X0268386Y0154547D03*
X0268386Y0154508D03*
X0268386Y0154469D03*
X0268386Y0154429D03*
X0268386Y0154390D03*
X0268386Y0154350D03*
X0268386Y0154311D03*
D150*
X0263898Y0153248D03*
X0261142Y0158169D03*
X0261142Y0158209D03*
X0261102Y0158327D03*
X0261102Y0158366D03*
X0261102Y0158406D03*
X0260551Y0160138D03*
X0260512Y0160217D03*
X0260472Y0160295D03*
X0260472Y0160335D03*
X0260433Y0160374D03*
X0264567Y0160571D03*
X0264567Y0160610D03*
X0264567Y0160650D03*
X0272323Y0158248D03*
X0272323Y0158209D03*
X0272323Y0158169D03*
X0272323Y0158130D03*
X0272323Y0158091D03*
X0272323Y0158051D03*
X0272323Y0158012D03*
X0272323Y0157972D03*
X0272323Y0157933D03*
X0272323Y0157894D03*
X0272323Y0157854D03*
X0272323Y0157815D03*
X0272323Y0157776D03*
X0272323Y0157736D03*
X0272323Y0157697D03*
X0272323Y0157657D03*
X0272323Y0157618D03*
X0272323Y0157579D03*
X0272323Y0157539D03*
X0272323Y0157500D03*
X0272323Y0157461D03*
X0272323Y0157421D03*
X0272323Y0157382D03*
X0272323Y0157343D03*
X0272323Y0157303D03*
X0272323Y0157264D03*
X0272323Y0157224D03*
X0272323Y0157185D03*
X0272323Y0157146D03*
X0272323Y0157106D03*
X0272323Y0157067D03*
X0272323Y0157028D03*
X0272323Y0156988D03*
X0272323Y0156949D03*
X0272323Y0156909D03*
X0272323Y0156870D03*
X0272323Y0156831D03*
X0272283Y0156791D03*
X0272283Y0156752D03*
X0272283Y0156713D03*
X0272283Y0156673D03*
X0272283Y0156634D03*
X0272283Y0156594D03*
X0272283Y0156555D03*
X0272283Y0156516D03*
X0272244Y0156437D03*
X0272244Y0156398D03*
X0272244Y0156358D03*
X0272244Y0156319D03*
X0272244Y0156280D03*
X0272205Y0156161D03*
X0272205Y0156122D03*
X0252717Y0156161D03*
X0252677Y0156398D03*
X0252677Y0156437D03*
X0252638Y0156673D03*
X0252638Y0156713D03*
X0252638Y0156752D03*
X0252638Y0156791D03*
D151*
X0254075Y0153287D03*
X0261201Y0155059D03*
X0261201Y0155098D03*
X0264075Y0156949D03*
X0264075Y0156988D03*
X0264075Y0157028D03*
X0264075Y0157067D03*
X0264075Y0157106D03*
X0264075Y0157146D03*
X0268366Y0154272D03*
X0268366Y0154232D03*
X0268366Y0154193D03*
X0270886Y0153406D03*
X0268366Y0160610D03*
X0268366Y0160650D03*
X0268366Y0160689D03*
X0268366Y0160728D03*
X0259469Y0161791D03*
X0253799Y0161437D03*
D152*
X0252677Y0158720D03*
X0252677Y0158681D03*
X0252677Y0158642D03*
X0252677Y0158602D03*
X0252638Y0158484D03*
X0252638Y0158445D03*
X0252638Y0158406D03*
X0252638Y0158366D03*
X0252638Y0158327D03*
X0252638Y0158287D03*
X0252638Y0158248D03*
X0252795Y0155768D03*
X0252795Y0155728D03*
X0252835Y0155610D03*
X0252835Y0155571D03*
X0252874Y0155492D03*
X0252874Y0155453D03*
X0252874Y0155413D03*
X0252913Y0155335D03*
X0252913Y0155295D03*
X0261181Y0157894D03*
X0261181Y0157933D03*
X0261181Y0157972D03*
X0260354Y0160531D03*
X0260354Y0160571D03*
X0260315Y0160610D03*
X0264528Y0160413D03*
X0264528Y0160374D03*
X0264528Y0160335D03*
X0272165Y0159272D03*
X0272165Y0159232D03*
X0272205Y0159114D03*
X0272205Y0159075D03*
X0272205Y0159035D03*
X0272205Y0158996D03*
X0272244Y0158917D03*
X0272244Y0158878D03*
X0272244Y0158839D03*
X0272244Y0158799D03*
X0272126Y0155768D03*
X0272126Y0155728D03*
X0272087Y0155650D03*
X0272087Y0155610D03*
X0272087Y0155571D03*
X0272047Y0155531D03*
X0272047Y0155492D03*
X0272047Y0155453D03*
X0263858Y0153287D03*
D153*
X0263996Y0155492D03*
X0263996Y0155531D03*
X0263996Y0155571D03*
X0263996Y0155610D03*
X0263996Y0155650D03*
X0263996Y0155689D03*
X0263996Y0155728D03*
X0263996Y0155768D03*
X0263996Y0155807D03*
X0263996Y0155846D03*
X0263996Y0155886D03*
X0263996Y0155925D03*
X0263996Y0155965D03*
X0263996Y0156004D03*
X0261201Y0154902D03*
X0256870Y0153760D03*
X0253957Y0161634D03*
X0270768Y0153287D03*
D154*
X0270965Y0153484D03*
X0268327Y0154035D03*
X0268327Y0154075D03*
X0264114Y0157382D03*
X0264114Y0157421D03*
X0264114Y0157461D03*
X0264114Y0157500D03*
X0264114Y0157539D03*
X0261240Y0155217D03*
X0254035Y0153327D03*
X0253996Y0153366D03*
X0253720Y0161358D03*
X0268327Y0160925D03*
X0268327Y0160886D03*
X0271201Y0161358D03*
D155*
X0272047Y0159744D03*
X0272047Y0159705D03*
X0272087Y0159626D03*
X0272087Y0159587D03*
X0272087Y0159547D03*
X0272126Y0159429D03*
X0271969Y0155217D03*
X0271929Y0155138D03*
X0271929Y0155098D03*
X0271890Y0155020D03*
X0263819Y0153327D03*
X0261220Y0157579D03*
X0261220Y0157618D03*
X0261220Y0157657D03*
X0261220Y0157697D03*
X0260236Y0160768D03*
X0260197Y0160846D03*
X0264488Y0160177D03*
X0264488Y0160138D03*
X0264488Y0160098D03*
X0252835Y0159469D03*
X0252795Y0159350D03*
X0252795Y0159311D03*
X0252795Y0159272D03*
X0252756Y0159193D03*
X0252756Y0159154D03*
X0252756Y0159114D03*
X0252992Y0155098D03*
X0252992Y0155059D03*
X0253031Y0154980D03*
X0253031Y0154941D03*
X0253071Y0154902D03*
X0253071Y0154862D03*
D156*
X0253091Y0154823D03*
X0253091Y0154783D03*
X0253130Y0154744D03*
X0253130Y0154705D03*
X0252815Y0159390D03*
X0252815Y0159429D03*
X0252854Y0159508D03*
X0252854Y0159547D03*
X0252854Y0159587D03*
X0260177Y0160886D03*
X0260217Y0160807D03*
X0261240Y0157539D03*
X0261240Y0157500D03*
X0261240Y0157461D03*
X0261240Y0157421D03*
X0264469Y0159980D03*
X0264469Y0160020D03*
X0264469Y0160059D03*
X0271988Y0159902D03*
X0271988Y0159862D03*
X0272028Y0159823D03*
X0272028Y0159783D03*
X0272067Y0159665D03*
X0271909Y0155059D03*
X0271870Y0154980D03*
X0271870Y0154941D03*
X0271831Y0154902D03*
X0271831Y0154862D03*
X0263799Y0153366D03*
D157*
X0261220Y0155256D03*
X0264134Y0157579D03*
X0264134Y0157618D03*
X0264134Y0157657D03*
X0264134Y0157697D03*
X0268307Y0153996D03*
X0268307Y0153957D03*
X0270984Y0153524D03*
X0268307Y0160965D03*
X0259567Y0161713D03*
X0256890Y0161319D03*
X0253701Y0161319D03*
X0253661Y0161280D03*
X0253976Y0153406D03*
X0256890Y0153602D03*
D158*
X0256890Y0153563D03*
X0253937Y0153445D03*
X0253898Y0153484D03*
X0261260Y0155413D03*
X0261260Y0155453D03*
X0261260Y0155492D03*
X0263583Y0153563D03*
X0268268Y0153878D03*
X0271063Y0153602D03*
X0271102Y0153642D03*
X0264173Y0157933D03*
X0264173Y0157972D03*
X0264173Y0158012D03*
X0264173Y0158051D03*
X0268268Y0161083D03*
X0271299Y0161240D03*
X0259646Y0161634D03*
X0256890Y0161358D03*
X0253622Y0161201D03*
X0253583Y0161161D03*
D159*
X0253091Y0160256D03*
X0253091Y0160217D03*
X0253051Y0160177D03*
X0253051Y0160138D03*
X0259980Y0161161D03*
X0260020Y0161122D03*
X0261319Y0156870D03*
X0261319Y0156831D03*
X0261319Y0156791D03*
X0261319Y0156752D03*
X0261319Y0156713D03*
X0264390Y0159469D03*
X0264390Y0159508D03*
X0264390Y0159547D03*
X0271752Y0160492D03*
X0271791Y0160413D03*
X0271831Y0160335D03*
X0271634Y0154429D03*
X0271594Y0154390D03*
X0271594Y0154350D03*
X0268051Y0153681D03*
X0263720Y0153445D03*
X0253406Y0154193D03*
X0253366Y0154232D03*
X0253366Y0154272D03*
X0253327Y0154311D03*
D160*
X0256890Y0153642D03*
X0261220Y0155138D03*
X0261220Y0155177D03*
X0264094Y0157185D03*
X0264094Y0157224D03*
X0264094Y0157264D03*
X0264094Y0157303D03*
X0264094Y0157343D03*
X0268346Y0154154D03*
X0268346Y0154114D03*
X0270906Y0153445D03*
X0268346Y0160768D03*
X0268346Y0160807D03*
X0268346Y0160846D03*
X0271142Y0161437D03*
X0271181Y0161398D03*
X0259528Y0161752D03*
X0256890Y0161280D03*
X0253740Y0161398D03*
D161*
X0253150Y0160374D03*
X0253110Y0160335D03*
X0253110Y0160295D03*
X0259961Y0161201D03*
X0264370Y0159429D03*
X0264370Y0159390D03*
X0264370Y0159350D03*
X0271732Y0160531D03*
X0271772Y0160453D03*
X0271575Y0154311D03*
X0271535Y0154272D03*
X0256890Y0153484D03*
X0253465Y0154075D03*
X0253425Y0154154D03*
D162*
X0253563Y0153917D03*
X0253602Y0153878D03*
X0261319Y0156161D03*
X0261319Y0156201D03*
X0261319Y0156240D03*
X0261319Y0156280D03*
X0261319Y0156319D03*
X0261319Y0156358D03*
X0264311Y0158957D03*
X0264311Y0158996D03*
X0264311Y0159035D03*
X0259862Y0161358D03*
X0259823Y0161398D03*
X0253287Y0160689D03*
X0253287Y0160650D03*
X0253248Y0160610D03*
X0263681Y0153484D03*
X0268130Y0153720D03*
X0271398Y0154035D03*
X0271634Y0160728D03*
X0271594Y0160807D03*
D163*
X0271358Y0161161D03*
X0271319Y0161201D03*
X0268248Y0161122D03*
X0264193Y0158209D03*
X0264193Y0158169D03*
X0264193Y0158130D03*
X0264193Y0158091D03*
X0261280Y0155610D03*
X0261280Y0155571D03*
X0261280Y0155531D03*
X0268248Y0153839D03*
X0271122Y0153681D03*
X0259665Y0161594D03*
X0253563Y0161122D03*
X0253524Y0161083D03*
X0253878Y0153524D03*
D164*
X0253740Y0153681D03*
X0253701Y0153720D03*
X0256890Y0153524D03*
X0261299Y0155807D03*
X0261299Y0155846D03*
X0261299Y0155886D03*
X0261299Y0155925D03*
X0264252Y0158524D03*
X0264252Y0158563D03*
X0264252Y0158602D03*
X0264252Y0158642D03*
X0268189Y0161201D03*
X0271457Y0161004D03*
X0271496Y0160965D03*
X0271260Y0153839D03*
X0271220Y0153799D03*
X0263622Y0153524D03*
X0259764Y0161476D03*
X0256890Y0161398D03*
X0253425Y0160925D03*
X0253386Y0160846D03*
D165*
X0253504Y0161043D03*
X0261299Y0155650D03*
X0264213Y0158248D03*
X0264213Y0158287D03*
X0264213Y0158327D03*
X0268228Y0161161D03*
X0271378Y0161122D03*
X0271417Y0161083D03*
X0271181Y0153720D03*
X0253819Y0153563D03*
D166*
X0261240Y0155295D03*
X0261240Y0155335D03*
X0261240Y0155374D03*
X0264154Y0157736D03*
X0264154Y0157776D03*
X0264154Y0157815D03*
X0264154Y0157854D03*
X0264154Y0157894D03*
X0268287Y0161004D03*
X0268287Y0161043D03*
X0271240Y0161319D03*
X0271280Y0161280D03*
X0268287Y0153917D03*
X0271043Y0153563D03*
X0259587Y0161673D03*
X0253642Y0161240D03*
D167*
X0253484Y0161004D03*
X0253445Y0160965D03*
X0259705Y0161555D03*
X0259744Y0161516D03*
X0264232Y0158484D03*
X0264232Y0158445D03*
X0264232Y0158406D03*
X0264232Y0158366D03*
X0261280Y0155768D03*
X0261280Y0155728D03*
X0261280Y0155689D03*
X0268209Y0153799D03*
X0271201Y0153760D03*
X0271437Y0161043D03*
X0253799Y0153602D03*
X0253760Y0153642D03*
D168*
X0253681Y0153760D03*
X0261319Y0155965D03*
X0261319Y0156004D03*
X0261319Y0156043D03*
X0264272Y0158681D03*
X0264272Y0158720D03*
X0264272Y0158760D03*
X0259783Y0161437D03*
X0253406Y0160886D03*
X0253366Y0160807D03*
X0268169Y0153760D03*
X0271280Y0153878D03*
X0271319Y0153917D03*
X0271516Y0160925D03*
D169*
X0271535Y0160886D03*
X0271575Y0160846D03*
X0268150Y0161240D03*
X0264291Y0158917D03*
X0264291Y0158878D03*
X0264291Y0158839D03*
X0264291Y0158799D03*
X0261299Y0156122D03*
X0261299Y0156083D03*
X0253661Y0153799D03*
X0253622Y0153839D03*
X0253307Y0160728D03*
X0253346Y0160768D03*
X0271339Y0153957D03*
X0271378Y0153996D03*
D170*
X0271417Y0154075D03*
X0271457Y0154114D03*
X0264331Y0159075D03*
X0264331Y0159114D03*
X0264331Y0159154D03*
X0261339Y0156398D03*
X0259882Y0161319D03*
X0256890Y0161437D03*
X0253228Y0160571D03*
X0253228Y0160531D03*
X0253504Y0153996D03*
X0253543Y0153957D03*
X0271614Y0160768D03*
X0271654Y0160689D03*
D171*
X0271673Y0160650D03*
X0271713Y0160610D03*
X0271713Y0160571D03*
X0268091Y0161280D03*
X0264350Y0159311D03*
X0264350Y0159272D03*
X0264350Y0159232D03*
X0264350Y0159193D03*
X0261319Y0156673D03*
X0261319Y0156634D03*
X0261319Y0156594D03*
X0261319Y0156555D03*
X0261319Y0156516D03*
X0261319Y0156476D03*
X0261319Y0156437D03*
X0259941Y0161240D03*
X0259902Y0161280D03*
X0253209Y0160492D03*
X0253169Y0160453D03*
X0253169Y0160413D03*
X0253445Y0154114D03*
X0253484Y0154035D03*
X0271476Y0154154D03*
X0271476Y0154193D03*
X0271516Y0154232D03*
D172*
X0271654Y0154469D03*
X0271654Y0154508D03*
X0271693Y0154547D03*
X0264409Y0159587D03*
X0264409Y0159626D03*
X0264409Y0159665D03*
X0261299Y0157067D03*
X0261299Y0157028D03*
X0261299Y0156988D03*
X0261299Y0156949D03*
X0261299Y0156909D03*
X0260079Y0161043D03*
X0260039Y0161083D03*
X0253031Y0160098D03*
X0253031Y0160059D03*
X0252992Y0160020D03*
X0252992Y0159980D03*
X0253268Y0154429D03*
X0253307Y0154350D03*
X0271811Y0160374D03*
X0271850Y0160295D03*
X0271850Y0160256D03*
X0271890Y0160177D03*
D173*
X0272106Y0159508D03*
X0272106Y0159469D03*
X0272146Y0159390D03*
X0272146Y0159350D03*
X0272146Y0159311D03*
X0272185Y0159193D03*
X0272185Y0159154D03*
X0272028Y0155413D03*
X0272028Y0155374D03*
X0271988Y0155335D03*
X0271988Y0155295D03*
X0271988Y0155256D03*
X0271949Y0155177D03*
X0264508Y0160217D03*
X0264508Y0160256D03*
X0264508Y0160295D03*
X0261201Y0157854D03*
X0261201Y0157815D03*
X0261201Y0157776D03*
X0261201Y0157736D03*
X0260295Y0160650D03*
X0260295Y0160689D03*
X0260256Y0160728D03*
X0252776Y0159232D03*
X0252736Y0159075D03*
X0252736Y0159035D03*
X0252736Y0158996D03*
X0252736Y0158957D03*
X0252697Y0158917D03*
X0252697Y0158878D03*
X0252697Y0158839D03*
X0252697Y0158799D03*
X0252697Y0158760D03*
X0252657Y0158563D03*
X0252657Y0158524D03*
X0252894Y0155374D03*
X0252933Y0155256D03*
X0252933Y0155217D03*
X0252972Y0155177D03*
X0252972Y0155138D03*
X0253012Y0155020D03*
D174*
X0252854Y0155531D03*
X0252815Y0155650D03*
X0252815Y0155689D03*
X0252776Y0155807D03*
X0252776Y0155846D03*
X0252776Y0155886D03*
X0252776Y0155925D03*
X0252736Y0155965D03*
X0252736Y0156004D03*
X0252736Y0156043D03*
X0252736Y0156083D03*
X0252736Y0156122D03*
X0252697Y0156201D03*
X0252697Y0156240D03*
X0252697Y0156280D03*
X0252697Y0156319D03*
X0252697Y0156358D03*
X0252657Y0156476D03*
X0252657Y0156516D03*
X0252657Y0156555D03*
X0252657Y0156594D03*
X0252657Y0156634D03*
X0252618Y0156831D03*
X0252618Y0156870D03*
X0252618Y0156909D03*
X0252618Y0156949D03*
X0252618Y0156988D03*
X0252618Y0157028D03*
X0252618Y0157067D03*
X0252618Y0157106D03*
X0252618Y0157146D03*
X0252618Y0157185D03*
X0252618Y0157224D03*
X0252618Y0157264D03*
X0252618Y0157303D03*
X0252618Y0157343D03*
X0252618Y0157382D03*
X0252618Y0157421D03*
X0252618Y0157461D03*
X0252618Y0157500D03*
X0252618Y0157539D03*
X0252618Y0157579D03*
X0252618Y0157618D03*
X0252618Y0157657D03*
X0252618Y0157697D03*
X0252618Y0157736D03*
X0252618Y0157776D03*
X0252618Y0157815D03*
X0252618Y0157854D03*
X0252618Y0157894D03*
X0252618Y0157933D03*
X0252618Y0157972D03*
X0252618Y0158012D03*
X0252618Y0158051D03*
X0252618Y0158091D03*
X0252618Y0158130D03*
X0252618Y0158169D03*
X0252618Y0158209D03*
X0260374Y0160492D03*
X0260413Y0160453D03*
X0260413Y0160413D03*
X0261122Y0158287D03*
X0261122Y0158248D03*
X0261161Y0158130D03*
X0261161Y0158091D03*
X0261161Y0158051D03*
X0261161Y0158012D03*
X0264547Y0160453D03*
X0264547Y0160492D03*
X0264547Y0160531D03*
X0272146Y0155925D03*
X0272146Y0155886D03*
X0272146Y0155846D03*
X0272146Y0155807D03*
X0272106Y0155689D03*
X0272185Y0155965D03*
X0272185Y0156004D03*
X0272185Y0156043D03*
X0272185Y0156083D03*
X0272224Y0156201D03*
X0272224Y0156240D03*
X0272264Y0156476D03*
X0272303Y0158287D03*
X0272303Y0158327D03*
X0272303Y0158366D03*
X0272303Y0158406D03*
X0272303Y0158445D03*
X0272303Y0158484D03*
X0272303Y0158524D03*
X0272303Y0158563D03*
X0272264Y0158602D03*
X0272264Y0158642D03*
X0272264Y0158681D03*
X0272264Y0158720D03*
X0272264Y0158760D03*
X0272224Y0158957D03*
D175*
X0264606Y0161161D03*
D176*
X0254331Y0161949D03*
D177*
X0254370Y0161988D03*
X0259055Y0162106D03*
D178*
X0258976Y0162146D03*
X0270472Y0161988D03*
D179*
X0254764Y0162185D03*
D180*
X0258740Y0162224D03*
D181*
X0256752Y0162343D03*
X0268130Y0162382D03*
D182*
X0262461Y0166555D03*
D183*
X0262461Y0166594D03*
M02*
