G75*
%MOIN*%
%OFA0B0*%
%FSLAX25Y25*%
%IPPOS*%
%LPD*%
%AMOC8*
5,1,8,0,0,1.08239X$1,22.5*
%
%ADD10R,0.02178X0.08674*%
%ADD11R,0.18517X0.18910*%
%ADD12C,0.05131*%
%ADD13C,0.03162*%
%ADD14R,0.01784X0.04737*%
%ADD15R,0.10643X0.07493*%
%ADD16R,0.05200X0.02200*%
%ADD17R,0.06706X0.14580*%
%ADD18C,0.06000*%
%ADD19C,0.06800*%
%ADD20C,0.05600*%
%ADD21C,0.06400*%
%ADD22R,0.03556X0.04343*%
%ADD23R,0.06706X0.05918*%
%ADD24R,0.04737X0.05131*%
%ADD25OC8,0.06000*%
%ADD26OC8,0.06800*%
%ADD27R,0.04343X0.03556*%
%ADD28C,0.21000*%
%ADD29C,0.21800*%
%ADD30C,0.12992*%
%ADD31C,0.13792*%
%ADD32C,0.05433*%
%ADD33C,0.06233*%
%ADD34C,0.02756*%
%ADD35C,0.03556*%
%ADD36C,0.02362*%
D10*
X0019512Y0062358D03*
X0021874Y0062358D03*
X0024236Y0062358D03*
X0026598Y0062358D03*
X0028961Y0062358D03*
X0031323Y0062358D03*
X0033685Y0062358D03*
X0036047Y0062358D03*
X0038409Y0062358D03*
X0040772Y0062358D03*
X0043134Y0062358D03*
X0045496Y0062358D03*
X0047858Y0062358D03*
X0050220Y0062358D03*
X0052583Y0062358D03*
X0054945Y0062358D03*
X0057307Y0062358D03*
X0059669Y0062358D03*
X0062031Y0062358D03*
X0064394Y0062358D03*
X0066756Y0062358D03*
X0069118Y0062358D03*
X0071480Y0062358D03*
X0073843Y0062358D03*
X0076205Y0062358D03*
X0078567Y0062358D03*
X0080929Y0062358D03*
X0083291Y0062358D03*
X0085654Y0062358D03*
X0088016Y0062358D03*
X0090378Y0062358D03*
X0092740Y0062358D03*
X0095102Y0062358D03*
X0097465Y0062358D03*
X0099827Y0062358D03*
X0102189Y0062358D03*
X0104551Y0062358D03*
X0106913Y0062358D03*
X0109276Y0062358D03*
X0111638Y0062358D03*
X0114000Y0062358D03*
X0116362Y0062358D03*
X0118724Y0062358D03*
X0121087Y0062358D03*
X0123449Y0062358D03*
X0125811Y0062358D03*
X0128173Y0062358D03*
X0130535Y0062358D03*
X0132898Y0062358D03*
X0135260Y0062358D03*
X0137622Y0062358D03*
X0139984Y0062358D03*
X0142346Y0062358D03*
X0144709Y0062358D03*
X0147071Y0062358D03*
X0149433Y0062358D03*
X0151795Y0062358D03*
X0154157Y0062358D03*
X0156520Y0062358D03*
X0158882Y0062358D03*
X0161244Y0062358D03*
X0163606Y0062358D03*
X0165969Y0062358D03*
X0168331Y0062358D03*
X0170693Y0062358D03*
X0173055Y0062358D03*
X0175417Y0062358D03*
X0177780Y0062358D03*
X0180142Y0062358D03*
X0182504Y0062358D03*
X0184866Y0062358D03*
X0187228Y0062358D03*
X0189591Y0062358D03*
X0191953Y0062358D03*
X0194315Y0062358D03*
X0196677Y0062358D03*
X0199039Y0062358D03*
X0201402Y0062358D03*
X0203764Y0062358D03*
X0206126Y0062358D03*
X0222661Y0062358D03*
X0225024Y0062358D03*
X0227386Y0062358D03*
X0229748Y0062358D03*
X0232110Y0062358D03*
X0234472Y0062358D03*
X0236835Y0062358D03*
X0239197Y0062358D03*
X0241559Y0062358D03*
X0243921Y0062358D03*
X0246283Y0062358D03*
X0248646Y0062358D03*
X0251008Y0062358D03*
X0253370Y0062358D03*
X0255732Y0062358D03*
X0258094Y0062358D03*
X0260457Y0062358D03*
X0262819Y0062358D03*
X0265181Y0062358D03*
X0267543Y0062358D03*
X0266362Y0094642D03*
X0264000Y0094642D03*
X0261638Y0094642D03*
X0259276Y0094642D03*
X0256913Y0094642D03*
X0254551Y0094642D03*
X0252189Y0094642D03*
X0249827Y0094642D03*
X0247465Y0094642D03*
X0245102Y0094642D03*
X0242740Y0094642D03*
X0240378Y0094642D03*
X0238016Y0094642D03*
X0235654Y0094642D03*
X0233291Y0094642D03*
X0230929Y0094642D03*
X0228567Y0094642D03*
X0226205Y0094642D03*
X0223843Y0094642D03*
X0221480Y0094642D03*
X0204945Y0094642D03*
X0202583Y0094642D03*
X0200220Y0094642D03*
X0197858Y0094642D03*
X0195496Y0094642D03*
X0193134Y0094642D03*
X0190772Y0094642D03*
X0188409Y0094642D03*
X0186047Y0094642D03*
X0183685Y0094642D03*
X0181323Y0094642D03*
X0178961Y0094642D03*
X0176598Y0094642D03*
X0174236Y0094642D03*
X0171874Y0094642D03*
X0169512Y0094642D03*
X0167150Y0094642D03*
X0164787Y0094642D03*
X0162425Y0094642D03*
X0160063Y0094642D03*
X0157701Y0094642D03*
X0155339Y0094642D03*
X0152976Y0094642D03*
X0150614Y0094642D03*
X0148252Y0094642D03*
X0145890Y0094642D03*
X0143528Y0094642D03*
X0141165Y0094642D03*
X0138803Y0094642D03*
X0136441Y0094642D03*
X0134079Y0094642D03*
X0131717Y0094642D03*
X0129354Y0094642D03*
X0126992Y0094642D03*
X0124630Y0094642D03*
X0122268Y0094642D03*
X0119906Y0094642D03*
X0117543Y0094642D03*
X0115181Y0094642D03*
X0112819Y0094642D03*
X0110457Y0094642D03*
X0108094Y0094642D03*
X0105732Y0094642D03*
X0103370Y0094642D03*
X0101008Y0094642D03*
X0098646Y0094642D03*
X0096283Y0094642D03*
X0093921Y0094642D03*
X0091559Y0094642D03*
X0089197Y0094642D03*
X0086835Y0094642D03*
X0084472Y0094642D03*
X0082110Y0094642D03*
X0079748Y0094642D03*
X0077386Y0094642D03*
X0075024Y0094642D03*
X0072661Y0094642D03*
X0070299Y0094642D03*
X0067937Y0094642D03*
X0065575Y0094642D03*
X0063213Y0094642D03*
X0060850Y0094642D03*
X0058488Y0094642D03*
X0056126Y0094642D03*
X0053764Y0094642D03*
X0051402Y0094642D03*
X0049039Y0094642D03*
X0046677Y0094642D03*
X0044315Y0094642D03*
X0041953Y0094642D03*
X0039591Y0094642D03*
X0037228Y0094642D03*
X0034866Y0094642D03*
X0032504Y0094642D03*
X0030142Y0094642D03*
X0027780Y0094642D03*
X0025417Y0094642D03*
X0023055Y0094642D03*
X0020693Y0094642D03*
X0018331Y0094642D03*
D11*
X0014787Y0125744D03*
X0271087Y0125744D03*
D12*
X0274433Y0078500D03*
D13*
X0011441Y0078500D03*
D14*
X0057071Y0154807D03*
X0058843Y0154807D03*
X0060614Y0154807D03*
X0062386Y0154807D03*
X0064157Y0154807D03*
X0065929Y0154807D03*
X0065929Y0168193D03*
X0064157Y0168193D03*
X0062386Y0168193D03*
X0060614Y0168193D03*
X0058843Y0168193D03*
X0057071Y0168193D03*
D15*
X0061500Y0161500D03*
D16*
X0027300Y0155059D03*
X0027300Y0152500D03*
X0027300Y0149941D03*
X0019700Y0149941D03*
X0019700Y0155059D03*
D17*
X0039496Y0181500D03*
X0051504Y0181500D03*
X0068496Y0141500D03*
X0080504Y0141500D03*
D18*
X0088500Y0136500D02*
X0088500Y0130500D01*
X0098500Y0130500D02*
X0098500Y0136500D01*
X0108500Y0136500D02*
X0108500Y0130500D01*
D19*
X0108500Y0136500D01*
X0098500Y0136500D02*
X0098500Y0130500D01*
X0088500Y0130500D02*
X0088500Y0136500D01*
D20*
X0091563Y0185500D03*
X0099437Y0185500D03*
D21*
X0099437Y0185500D03*
X0091563Y0185500D03*
D22*
X0064059Y0187500D03*
X0058941Y0187500D03*
X0058941Y0181500D03*
X0064059Y0181500D03*
X0064059Y0175500D03*
X0058941Y0175500D03*
X0026059Y0163500D03*
X0020941Y0163500D03*
X0018941Y0144500D03*
X0024059Y0144500D03*
X0055941Y0142500D03*
X0055941Y0147500D03*
X0061059Y0147500D03*
X0061059Y0142500D03*
X0061059Y0137500D03*
X0055941Y0137500D03*
D23*
X0041500Y0125240D03*
X0041500Y0117760D03*
X0051500Y0117240D03*
X0051500Y0109760D03*
X0061500Y0109760D03*
X0061500Y0117240D03*
X0031500Y0117760D03*
X0031500Y0125240D03*
X0040500Y0156760D03*
X0048500Y0156760D03*
X0048500Y0164240D03*
X0040500Y0164240D03*
X0072500Y0165240D03*
X0080500Y0165240D03*
X0080500Y0157760D03*
X0072500Y0157760D03*
D24*
X0012500Y0159846D03*
X0012500Y0153154D03*
D25*
X0074500Y0119500D03*
X0084500Y0119500D03*
X0094500Y0119500D03*
X0104500Y0119500D03*
X0104500Y0109500D03*
X0094500Y0109500D03*
X0084500Y0109500D03*
X0074500Y0109500D03*
X0127500Y0104500D03*
X0137500Y0104500D03*
X0137500Y0114500D03*
X0127500Y0114500D03*
X0127500Y0124500D03*
X0137500Y0124500D03*
X0237500Y0044500D03*
X0247500Y0044500D03*
X0257500Y0044500D03*
X0257500Y0034500D03*
X0247500Y0034500D03*
X0237500Y0034500D03*
D26*
X0237500Y0034500D03*
X0247500Y0034500D03*
X0257500Y0034500D03*
X0257500Y0044500D03*
X0247500Y0044500D03*
X0237500Y0044500D03*
X0137500Y0104500D03*
X0127500Y0104500D03*
X0127500Y0114500D03*
X0137500Y0114500D03*
X0137500Y0124500D03*
X0127500Y0124500D03*
X0104500Y0119500D03*
X0094500Y0119500D03*
X0084500Y0119500D03*
X0074500Y0119500D03*
X0074500Y0109500D03*
X0084500Y0109500D03*
X0094500Y0109500D03*
X0104500Y0109500D03*
D27*
X0154200Y0111059D03*
X0158800Y0111059D03*
X0158800Y0105941D03*
X0154200Y0105941D03*
D28*
X0262327Y0184177D03*
X0023154Y0184177D03*
X0015673Y0015673D03*
X0270791Y0015673D03*
D29*
X0015673Y0015673D03*
X0023154Y0184177D03*
X0262327Y0184177D03*
X0270791Y0015673D03*
D30*
X0171366Y0157500D03*
X0119634Y0157500D03*
D31*
X0119634Y0157500D03*
X0171366Y0157500D03*
D32*
X0159280Y0146870D03*
X0149437Y0146870D03*
X0141563Y0146870D03*
X0131720Y0146870D03*
D33*
X0131720Y0146870D03*
X0141563Y0146870D03*
X0149437Y0146870D03*
X0159280Y0146870D03*
D34*
X0080500Y0130500D03*
X0074500Y0144500D03*
X0061500Y0122500D03*
X0031500Y0133500D03*
X0033500Y0155500D03*
X0033500Y0163500D03*
X0048500Y0169500D03*
X0068500Y0176500D03*
X0071500Y0172500D03*
X0068500Y0182500D03*
X0016500Y0086500D03*
X0027780Y0084500D03*
X0037228Y0084500D03*
X0110500Y0017500D03*
X0106500Y0012500D03*
X0127500Y0012500D03*
X0127500Y0017500D03*
X0139500Y0007500D03*
X0212500Y0012500D03*
X0216500Y0017500D03*
X0232500Y0017500D03*
X0232500Y0012500D03*
X0244500Y0007500D03*
X0222500Y0068500D03*
X0206500Y0068500D03*
X0197850Y0070750D03*
X0206500Y0088500D03*
X0219500Y0088500D03*
D35*
X0219500Y0088500D03*
X0206500Y0088500D03*
X0197850Y0070750D03*
X0206500Y0068500D03*
X0222500Y0068500D03*
X0216500Y0017500D03*
X0212500Y0012500D03*
X0232500Y0012500D03*
X0232500Y0017500D03*
X0244500Y0007500D03*
X0139500Y0007500D03*
X0127500Y0012500D03*
X0127500Y0017500D03*
X0110500Y0017500D03*
X0106500Y0012500D03*
X0037228Y0084500D03*
X0027780Y0084500D03*
X0016500Y0086500D03*
X0061500Y0122500D03*
X0080500Y0130500D03*
X0074500Y0144500D03*
X0048500Y0169500D03*
X0033500Y0163500D03*
X0033500Y0155500D03*
X0031500Y0133500D03*
X0071500Y0172500D03*
X0068500Y0176500D03*
X0068500Y0182500D03*
D36*
X0061500Y0192500D03*
X0045500Y0192500D03*
X0034500Y0194500D03*
X0010500Y0192500D03*
X0006500Y0172500D03*
X0010500Y0165500D03*
X0023500Y0168500D03*
X0034500Y0169500D03*
X0045500Y0174500D03*
X0044500Y0150500D03*
X0037500Y0151500D03*
X0029500Y0145500D03*
X0041450Y0131400D03*
X0026450Y0129400D03*
X0021450Y0113400D03*
X0011450Y0113400D03*
X0016450Y0101400D03*
X0013450Y0092400D03*
X0011450Y0084400D03*
X0016450Y0077400D03*
X0011450Y0073400D03*
X0017450Y0069400D03*
X0012850Y0058750D03*
X0027850Y0054750D03*
X0043850Y0054750D03*
X0057850Y0053750D03*
X0048850Y0042750D03*
X0063727Y0033500D03*
X0067073Y0033500D03*
X0075527Y0033500D03*
X0078873Y0033500D03*
X0087327Y0033500D03*
X0090673Y0033500D03*
X0094850Y0037750D03*
X0098800Y0033300D03*
X0102800Y0033300D03*
X0106700Y0033300D03*
X0110700Y0033300D03*
X0115850Y0032750D03*
X0102850Y0018750D03*
X0100850Y0011750D03*
X0086850Y0014750D03*
X0073850Y0014750D03*
X0059850Y0011750D03*
X0050850Y0011750D03*
X0042850Y0018750D03*
X0030850Y0023750D03*
X0024850Y0029750D03*
X0032850Y0040750D03*
X0041850Y0029750D03*
X0053850Y0030750D03*
X0059850Y0018750D03*
X0037850Y0006750D03*
X0027850Y0006750D03*
X0006850Y0027750D03*
X0006850Y0035750D03*
X0013850Y0041750D03*
X0047450Y0069400D03*
X0053450Y0071400D03*
X0047450Y0078400D03*
X0056924Y0084500D03*
X0060076Y0084500D03*
X0052450Y0087400D03*
X0041450Y0087400D03*
X0024450Y0087400D03*
X0033450Y0101400D03*
X0043450Y0109400D03*
X0056450Y0105400D03*
X0065450Y0102400D03*
X0067450Y0114400D03*
X0067450Y0122400D03*
X0056450Y0122400D03*
X0056450Y0129400D03*
X0050450Y0143400D03*
X0092450Y0140400D03*
X0092500Y0152500D03*
X0092500Y0157500D03*
X0102500Y0157500D03*
X0102500Y0152500D03*
X0117500Y0147500D03*
X0114500Y0134500D03*
X0099450Y0122400D03*
X0112450Y0118400D03*
X0119500Y0121500D03*
X0119500Y0110500D03*
X0112450Y0111400D03*
X0116700Y0103300D03*
X0117500Y0086500D03*
X0120850Y0086750D03*
X0125500Y0086500D03*
X0129500Y0086500D03*
X0113500Y0086500D03*
X0108450Y0087400D03*
X0094423Y0087500D03*
X0091077Y0087500D03*
X0073450Y0086400D03*
X0066450Y0086400D03*
X0072450Y0075400D03*
X0064450Y0070400D03*
X0086450Y0069400D03*
X0098327Y0069500D03*
X0101673Y0069500D03*
X0105327Y0069500D03*
X0108673Y0069500D03*
X0115450Y0070400D03*
X0122450Y0072400D03*
X0148200Y0087500D03*
X0162800Y0088250D03*
X0175850Y0086750D03*
X0169850Y0077750D03*
X0157850Y0068750D03*
X0184850Y0068800D03*
X0188850Y0054750D03*
X0195850Y0048750D03*
X0204300Y0044800D03*
X0208300Y0044800D03*
X0212200Y0044800D03*
X0216200Y0044800D03*
X0219850Y0055750D03*
X0230850Y0046750D03*
X0228850Y0034750D03*
X0250850Y0026750D03*
X0259850Y0027750D03*
X0279850Y0028750D03*
X0265850Y0047750D03*
X0279850Y0050750D03*
X0278850Y0070750D03*
X0266850Y0070750D03*
X0247850Y0076750D03*
X0239850Y0086750D03*
X0227850Y0070750D03*
X0212850Y0082750D03*
X0191850Y0083750D03*
X0171850Y0103750D03*
X0159500Y0118500D03*
X0171850Y0122750D03*
X0159500Y0134500D03*
X0147500Y0126500D03*
X0133500Y0133500D03*
X0144500Y0140500D03*
X0130500Y0159500D03*
X0115500Y0167500D03*
X0091500Y0180500D03*
X0083500Y0180500D03*
X0089500Y0193500D03*
X0112500Y0191500D03*
X0127850Y0189750D03*
X0145850Y0174750D03*
X0164850Y0189750D03*
X0188850Y0190750D03*
X0220850Y0190750D03*
X0246850Y0192750D03*
X0274850Y0192750D03*
X0258850Y0169750D03*
X0277850Y0163750D03*
X0247850Y0149750D03*
X0258850Y0137750D03*
X0277850Y0139750D03*
X0258850Y0113750D03*
X0244850Y0104750D03*
X0221850Y0104750D03*
X0198850Y0104750D03*
X0233850Y0124750D03*
X0216850Y0139750D03*
X0195850Y0130750D03*
X0171850Y0145750D03*
X0159500Y0159500D03*
X0182850Y0164750D03*
X0206850Y0164750D03*
X0232850Y0166750D03*
X0275850Y0104750D03*
X0278850Y0087750D03*
X0265850Y0086750D03*
X0204850Y0054750D03*
X0180850Y0046750D03*
X0160850Y0031750D03*
X0150850Y0024750D03*
X0140850Y0031750D03*
X0165850Y0017750D03*
X0165850Y0011750D03*
X0155850Y0011750D03*
X0145850Y0011750D03*
X0179850Y0014750D03*
X0192850Y0014750D03*
X0206850Y0011750D03*
X0207850Y0018750D03*
X0249850Y0006750D03*
X0257850Y0006750D03*
X0145500Y0102500D03*
X0085450Y0102400D03*
X0084850Y0053750D03*
M02*
