G75*
%MOIN*%
%OFA0B0*%
%FSLAX25Y25*%
%IPPOS*%
%LPD*%
%AMOC8*
5,1,8,0,0,1.08239X$1,22.5*
%
%ADD10C,0.05131*%
%ADD11C,0.03162*%
%ADD12R,0.03200X0.08700*%
%ADD13R,0.03600X0.17300*%
%ADD14R,0.13792X0.06902*%
%ADD15C,0.06000*%
%ADD16C,0.06800*%
%ADD17C,0.05600*%
%ADD18C,0.06400*%
%ADD19R,0.04343X0.03556*%
%ADD20R,0.03556X0.04343*%
%ADD21R,0.03950X0.03950*%
%ADD22R,0.11036X0.07099*%
%ADD23OC8,0.06000*%
%ADD24OC8,0.06800*%
%ADD25R,0.07887X0.07099*%
%ADD26R,0.05200X0.02600*%
%ADD27C,0.21000*%
%ADD28C,0.21800*%
%ADD29C,0.12992*%
%ADD30C,0.13792*%
%ADD31C,0.05433*%
%ADD32C,0.06233*%
%ADD33R,0.05918X0.06706*%
%ADD34R,0.14580X0.06706*%
%ADD35C,0.02756*%
%ADD36C,0.03556*%
%ADD37C,0.02362*%
D10*
X0274433Y0078500D03*
D11*
X0011441Y0078500D03*
D12*
X0059500Y0026200D03*
X0063400Y0026200D03*
X0067300Y0026200D03*
X0071300Y0026200D03*
X0075200Y0026200D03*
X0079200Y0026200D03*
X0083100Y0026200D03*
X0087000Y0026200D03*
X0091000Y0026200D03*
X0094900Y0026200D03*
X0098800Y0026200D03*
X0102800Y0026200D03*
X0106700Y0026200D03*
X0110700Y0026200D03*
X0114600Y0026200D03*
X0165000Y0026200D03*
X0168900Y0026200D03*
X0172800Y0026200D03*
X0176800Y0026200D03*
X0180700Y0026200D03*
X0184700Y0026200D03*
X0188600Y0026200D03*
X0192500Y0026200D03*
X0196500Y0026200D03*
X0200400Y0026200D03*
X0204300Y0026200D03*
X0208300Y0026200D03*
X0212200Y0026200D03*
X0216200Y0026200D03*
X0220100Y0026200D03*
D13*
X0224000Y0017800D03*
X0161100Y0017800D03*
X0118500Y0017800D03*
X0055600Y0017800D03*
D14*
X0099200Y0146598D03*
X0099200Y0163802D03*
D15*
X0098500Y0136500D02*
X0098500Y0130500D01*
X0108500Y0130500D02*
X0108500Y0136500D01*
X0088500Y0136500D02*
X0088500Y0130500D01*
D16*
X0088500Y0136500D01*
X0098500Y0136500D02*
X0098500Y0130500D01*
X0108500Y0130500D02*
X0108500Y0136500D01*
D17*
X0099437Y0185500D03*
X0091563Y0185500D03*
D18*
X0091563Y0185500D03*
X0099437Y0185500D03*
D19*
X0079500Y0182941D03*
X0073500Y0185941D03*
X0073500Y0191059D03*
X0079500Y0188059D03*
X0064500Y0182059D03*
X0058500Y0181941D03*
X0058500Y0187059D03*
X0064500Y0176941D03*
D20*
X0082941Y0153500D03*
X0088059Y0153500D03*
X0027059Y0153500D03*
X0021941Y0153500D03*
X0021941Y0159500D03*
X0027059Y0159500D03*
X0135941Y0017500D03*
X0135941Y0012500D03*
X0141059Y0012500D03*
X0141059Y0017500D03*
X0240941Y0017500D03*
X0246059Y0017500D03*
X0246059Y0012500D03*
X0240941Y0012500D03*
D21*
X0013453Y0153500D03*
X0007547Y0153500D03*
X0007547Y0159500D03*
X0013453Y0159500D03*
D22*
X0057213Y0153500D03*
X0071387Y0153500D03*
X0071437Y0135500D03*
X0057263Y0135500D03*
D23*
X0074500Y0119500D03*
X0084500Y0119500D03*
X0094500Y0119500D03*
X0104500Y0119500D03*
X0104500Y0109500D03*
X0094500Y0109500D03*
X0084500Y0109500D03*
X0074500Y0109500D03*
X0127500Y0104500D03*
X0137500Y0104500D03*
X0137500Y0114500D03*
X0127500Y0114500D03*
X0127500Y0124500D03*
X0137500Y0124500D03*
X0237500Y0044500D03*
X0247500Y0044500D03*
X0257500Y0044500D03*
X0257500Y0034500D03*
X0247500Y0034500D03*
X0237500Y0034500D03*
D24*
X0237500Y0034500D03*
X0247500Y0034500D03*
X0257500Y0034500D03*
X0257500Y0044500D03*
X0247500Y0044500D03*
X0237500Y0044500D03*
X0137500Y0104500D03*
X0127500Y0104500D03*
X0127500Y0114500D03*
X0137500Y0114500D03*
X0137500Y0124500D03*
X0127500Y0124500D03*
X0104500Y0119500D03*
X0094500Y0119500D03*
X0084500Y0119500D03*
X0074500Y0119500D03*
X0074500Y0109500D03*
X0084500Y0109500D03*
X0094500Y0109500D03*
X0104500Y0109500D03*
D25*
X0040500Y0077012D03*
X0032500Y0077012D03*
X0024500Y0077012D03*
X0024500Y0065988D03*
X0032500Y0065988D03*
X0040500Y0065988D03*
D26*
X0015700Y0139950D03*
X0015700Y0145150D03*
X0008100Y0142550D03*
D27*
X0023154Y0184177D03*
X0262327Y0184177D03*
X0270791Y0015673D03*
X0015673Y0015673D03*
D28*
X0015673Y0015673D03*
X0023154Y0184177D03*
X0262327Y0184177D03*
X0270791Y0015673D03*
D29*
X0171366Y0157500D03*
X0119634Y0157500D03*
D30*
X0119634Y0157500D03*
X0171366Y0157500D03*
D31*
X0159280Y0146870D03*
X0149437Y0146870D03*
X0141563Y0146870D03*
X0131720Y0146870D03*
D32*
X0131720Y0146870D03*
X0141563Y0146870D03*
X0149437Y0146870D03*
X0159280Y0146870D03*
D33*
X0103240Y0172500D03*
X0095760Y0172500D03*
D34*
X0082500Y0174504D03*
X0082500Y0162496D03*
D35*
X0071500Y0172500D03*
X0068500Y0176500D03*
X0068500Y0182500D03*
X0048500Y0169500D03*
X0033500Y0163500D03*
X0033500Y0155500D03*
X0031500Y0133500D03*
X0061500Y0122500D03*
X0080500Y0130500D03*
X0074500Y0144500D03*
X0016500Y0086500D03*
X0027780Y0084500D03*
X0037228Y0084500D03*
X0110500Y0017500D03*
X0106500Y0012500D03*
X0127500Y0012500D03*
X0127500Y0017500D03*
X0139500Y0007500D03*
X0212500Y0012500D03*
X0216500Y0017500D03*
X0232500Y0017500D03*
X0232500Y0012500D03*
X0244500Y0007500D03*
X0222500Y0068500D03*
X0206500Y0068500D03*
X0197850Y0070750D03*
X0206500Y0088500D03*
X0219500Y0088500D03*
D36*
X0219500Y0088500D03*
X0206500Y0088500D03*
X0197850Y0070750D03*
X0206500Y0068500D03*
X0222500Y0068500D03*
X0216500Y0017500D03*
X0212500Y0012500D03*
X0232500Y0012500D03*
X0232500Y0017500D03*
X0244500Y0007500D03*
X0139500Y0007500D03*
X0127500Y0012500D03*
X0127500Y0017500D03*
X0110500Y0017500D03*
X0106500Y0012500D03*
X0037228Y0084500D03*
X0027780Y0084500D03*
X0016500Y0086500D03*
X0061500Y0122500D03*
X0080500Y0130500D03*
X0074500Y0144500D03*
X0048500Y0169500D03*
X0033500Y0163500D03*
X0033500Y0155500D03*
X0031500Y0133500D03*
X0071500Y0172500D03*
X0068500Y0176500D03*
X0068500Y0182500D03*
D37*
X0061500Y0192500D03*
X0045500Y0192500D03*
X0034500Y0194500D03*
X0010500Y0192500D03*
X0006500Y0172500D03*
X0010500Y0165500D03*
X0023500Y0168500D03*
X0034500Y0169500D03*
X0045500Y0174500D03*
X0044500Y0150500D03*
X0037500Y0151500D03*
X0029500Y0145500D03*
X0041450Y0131400D03*
X0026450Y0129400D03*
X0021450Y0113400D03*
X0011450Y0113400D03*
X0016450Y0101400D03*
X0013450Y0092400D03*
X0011450Y0084400D03*
X0016450Y0077400D03*
X0011450Y0073400D03*
X0017450Y0069400D03*
X0012850Y0058750D03*
X0027850Y0054750D03*
X0043850Y0054750D03*
X0057850Y0053750D03*
X0048850Y0042750D03*
X0063727Y0033500D03*
X0067073Y0033500D03*
X0075527Y0033500D03*
X0078873Y0033500D03*
X0087327Y0033500D03*
X0090673Y0033500D03*
X0094850Y0037750D03*
X0098800Y0033300D03*
X0102800Y0033300D03*
X0106700Y0033300D03*
X0110700Y0033300D03*
X0115850Y0032750D03*
X0102850Y0018750D03*
X0100850Y0011750D03*
X0086850Y0014750D03*
X0073850Y0014750D03*
X0059850Y0011750D03*
X0050850Y0011750D03*
X0042850Y0018750D03*
X0030850Y0023750D03*
X0024850Y0029750D03*
X0032850Y0040750D03*
X0041850Y0029750D03*
X0053850Y0030750D03*
X0059850Y0018750D03*
X0037850Y0006750D03*
X0027850Y0006750D03*
X0006850Y0027750D03*
X0006850Y0035750D03*
X0013850Y0041750D03*
X0047450Y0069400D03*
X0053450Y0071400D03*
X0047450Y0078400D03*
X0056924Y0084500D03*
X0060076Y0084500D03*
X0052450Y0087400D03*
X0041450Y0087400D03*
X0024450Y0087400D03*
X0033450Y0101400D03*
X0043450Y0109400D03*
X0056450Y0105400D03*
X0065450Y0102400D03*
X0067450Y0114400D03*
X0067450Y0122400D03*
X0056450Y0122400D03*
X0056450Y0129400D03*
X0050450Y0143400D03*
X0092450Y0140400D03*
X0092500Y0152500D03*
X0092500Y0157500D03*
X0102500Y0157500D03*
X0102500Y0152500D03*
X0117500Y0147500D03*
X0114500Y0134500D03*
X0099450Y0122400D03*
X0112450Y0118400D03*
X0119500Y0121500D03*
X0119500Y0110500D03*
X0112450Y0111400D03*
X0116700Y0103300D03*
X0117500Y0086500D03*
X0120850Y0086750D03*
X0125500Y0086500D03*
X0129500Y0086500D03*
X0113500Y0086500D03*
X0108450Y0087400D03*
X0094423Y0087500D03*
X0091077Y0087500D03*
X0073450Y0086400D03*
X0066450Y0086400D03*
X0072450Y0075400D03*
X0064450Y0070400D03*
X0086450Y0069400D03*
X0098327Y0069500D03*
X0101673Y0069500D03*
X0105327Y0069500D03*
X0108673Y0069500D03*
X0115450Y0070400D03*
X0122450Y0072400D03*
X0148200Y0087500D03*
X0162800Y0088250D03*
X0175850Y0086750D03*
X0169850Y0077750D03*
X0157850Y0068750D03*
X0184850Y0068800D03*
X0188850Y0054750D03*
X0195850Y0048750D03*
X0204300Y0044800D03*
X0208300Y0044800D03*
X0212200Y0044800D03*
X0216200Y0044800D03*
X0219850Y0055750D03*
X0230850Y0046750D03*
X0228850Y0034750D03*
X0250850Y0026750D03*
X0259850Y0027750D03*
X0279850Y0028750D03*
X0265850Y0047750D03*
X0279850Y0050750D03*
X0278850Y0070750D03*
X0266850Y0070750D03*
X0247850Y0076750D03*
X0239850Y0086750D03*
X0227850Y0070750D03*
X0212850Y0082750D03*
X0191850Y0083750D03*
X0171850Y0103750D03*
X0159500Y0118500D03*
X0171850Y0122750D03*
X0159500Y0134500D03*
X0147500Y0126500D03*
X0133500Y0133500D03*
X0144500Y0140500D03*
X0130500Y0159500D03*
X0115500Y0167500D03*
X0091500Y0180500D03*
X0083500Y0180500D03*
X0089500Y0193500D03*
X0112500Y0191500D03*
X0127850Y0189750D03*
X0145850Y0174750D03*
X0164850Y0189750D03*
X0188850Y0190750D03*
X0220850Y0190750D03*
X0246850Y0192750D03*
X0274850Y0192750D03*
X0258850Y0169750D03*
X0277850Y0163750D03*
X0247850Y0149750D03*
X0258850Y0137750D03*
X0277850Y0139750D03*
X0258850Y0113750D03*
X0244850Y0104750D03*
X0221850Y0104750D03*
X0198850Y0104750D03*
X0233850Y0124750D03*
X0216850Y0139750D03*
X0195850Y0130750D03*
X0171850Y0145750D03*
X0159500Y0159500D03*
X0182850Y0164750D03*
X0206850Y0164750D03*
X0232850Y0166750D03*
X0275850Y0104750D03*
X0278850Y0087750D03*
X0265850Y0086750D03*
X0204850Y0054750D03*
X0180850Y0046750D03*
X0160850Y0031750D03*
X0150850Y0024750D03*
X0140850Y0031750D03*
X0165850Y0017750D03*
X0165850Y0011750D03*
X0155850Y0011750D03*
X0145850Y0011750D03*
X0179850Y0014750D03*
X0192850Y0014750D03*
X0206850Y0011750D03*
X0207850Y0018750D03*
X0249850Y0006750D03*
X0257850Y0006750D03*
X0145500Y0102500D03*
X0085450Y0102400D03*
X0084850Y0053750D03*
M02*
