G75*
%MOIN*%
%OFA0B0*%
%FSLAX25Y25*%
%IPPOS*%
%LPD*%
%AMOC8*
5,1,8,0,0,1.08239X$1,22.5*
%
%ADD10C,0.00000*%
D10*
X0015673Y0001500D02*
X0270791Y0001500D01*
X0271133Y0001504D01*
X0271476Y0001517D01*
X0271818Y0001537D01*
X0272159Y0001566D01*
X0272499Y0001603D01*
X0272839Y0001649D01*
X0273177Y0001702D01*
X0273514Y0001764D01*
X0273849Y0001834D01*
X0274183Y0001912D01*
X0274514Y0001998D01*
X0274844Y0002092D01*
X0275171Y0002194D01*
X0275495Y0002303D01*
X0275817Y0002421D01*
X0276136Y0002546D01*
X0276451Y0002679D01*
X0276764Y0002820D01*
X0277072Y0002968D01*
X0277378Y0003123D01*
X0277679Y0003286D01*
X0277976Y0003456D01*
X0278269Y0003633D01*
X0278558Y0003818D01*
X0278842Y0004009D01*
X0279122Y0004207D01*
X0279396Y0004411D01*
X0279666Y0004623D01*
X0279930Y0004840D01*
X0280189Y0005064D01*
X0280443Y0005295D01*
X0280691Y0005531D01*
X0280933Y0005773D01*
X0281169Y0006021D01*
X0281400Y0006275D01*
X0281624Y0006534D01*
X0281841Y0006798D01*
X0282053Y0007068D01*
X0282257Y0007342D01*
X0282455Y0007622D01*
X0282646Y0007906D01*
X0282831Y0008195D01*
X0283008Y0008488D01*
X0283178Y0008785D01*
X0283341Y0009086D01*
X0283496Y0009392D01*
X0283644Y0009700D01*
X0283785Y0010013D01*
X0283918Y0010328D01*
X0284043Y0010647D01*
X0284161Y0010969D01*
X0284270Y0011293D01*
X0284372Y0011620D01*
X0284466Y0011950D01*
X0284552Y0012281D01*
X0284630Y0012615D01*
X0284700Y0012950D01*
X0284762Y0013287D01*
X0284815Y0013625D01*
X0284861Y0013965D01*
X0284898Y0014305D01*
X0284927Y0014646D01*
X0284947Y0014988D01*
X0284960Y0015331D01*
X0284964Y0015673D01*
X0284965Y0015673D02*
X0284965Y0184177D01*
X0284964Y0184177D02*
X0284960Y0184519D01*
X0284947Y0184862D01*
X0284927Y0185204D01*
X0284898Y0185545D01*
X0284861Y0185885D01*
X0284815Y0186225D01*
X0284762Y0186563D01*
X0284700Y0186900D01*
X0284630Y0187235D01*
X0284552Y0187569D01*
X0284466Y0187900D01*
X0284372Y0188230D01*
X0284270Y0188557D01*
X0284161Y0188881D01*
X0284043Y0189203D01*
X0283918Y0189522D01*
X0283785Y0189837D01*
X0283644Y0190150D01*
X0283496Y0190458D01*
X0283341Y0190764D01*
X0283178Y0191065D01*
X0283008Y0191362D01*
X0282831Y0191655D01*
X0282646Y0191944D01*
X0282455Y0192228D01*
X0282257Y0192508D01*
X0282053Y0192782D01*
X0281841Y0193052D01*
X0281624Y0193316D01*
X0281400Y0193575D01*
X0281169Y0193829D01*
X0280933Y0194077D01*
X0280691Y0194319D01*
X0280443Y0194555D01*
X0280189Y0194786D01*
X0279930Y0195010D01*
X0279666Y0195227D01*
X0279396Y0195439D01*
X0279122Y0195643D01*
X0278842Y0195841D01*
X0278558Y0196032D01*
X0278269Y0196217D01*
X0277976Y0196394D01*
X0277679Y0196564D01*
X0277378Y0196727D01*
X0277072Y0196882D01*
X0276764Y0197030D01*
X0276451Y0197171D01*
X0276136Y0197304D01*
X0275817Y0197429D01*
X0275495Y0197547D01*
X0275171Y0197656D01*
X0274844Y0197758D01*
X0274514Y0197852D01*
X0274183Y0197938D01*
X0273849Y0198016D01*
X0273514Y0198086D01*
X0273177Y0198148D01*
X0272839Y0198201D01*
X0272499Y0198247D01*
X0272159Y0198284D01*
X0271818Y0198313D01*
X0271476Y0198333D01*
X0271133Y0198346D01*
X0270791Y0198350D01*
X0015673Y0198350D01*
X0015331Y0198346D01*
X0014988Y0198333D01*
X0014646Y0198313D01*
X0014305Y0198284D01*
X0013965Y0198247D01*
X0013625Y0198201D01*
X0013287Y0198148D01*
X0012950Y0198086D01*
X0012615Y0198016D01*
X0012281Y0197938D01*
X0011950Y0197852D01*
X0011620Y0197758D01*
X0011293Y0197656D01*
X0010969Y0197547D01*
X0010647Y0197429D01*
X0010328Y0197304D01*
X0010013Y0197171D01*
X0009700Y0197030D01*
X0009392Y0196882D01*
X0009086Y0196727D01*
X0008785Y0196564D01*
X0008488Y0196394D01*
X0008195Y0196217D01*
X0007906Y0196032D01*
X0007622Y0195841D01*
X0007342Y0195643D01*
X0007068Y0195439D01*
X0006798Y0195227D01*
X0006534Y0195010D01*
X0006275Y0194786D01*
X0006021Y0194555D01*
X0005773Y0194319D01*
X0005531Y0194077D01*
X0005295Y0193829D01*
X0005064Y0193575D01*
X0004840Y0193316D01*
X0004623Y0193052D01*
X0004411Y0192782D01*
X0004207Y0192508D01*
X0004009Y0192228D01*
X0003818Y0191944D01*
X0003633Y0191655D01*
X0003456Y0191362D01*
X0003286Y0191065D01*
X0003123Y0190764D01*
X0002968Y0190458D01*
X0002820Y0190150D01*
X0002679Y0189837D01*
X0002546Y0189522D01*
X0002421Y0189203D01*
X0002303Y0188881D01*
X0002194Y0188557D01*
X0002092Y0188230D01*
X0001998Y0187900D01*
X0001912Y0187569D01*
X0001834Y0187235D01*
X0001764Y0186900D01*
X0001702Y0186563D01*
X0001649Y0186225D01*
X0001603Y0185885D01*
X0001566Y0185545D01*
X0001537Y0185204D01*
X0001517Y0184862D01*
X0001504Y0184519D01*
X0001500Y0184177D01*
X0001500Y0015673D01*
X0001504Y0015331D01*
X0001517Y0014988D01*
X0001537Y0014646D01*
X0001566Y0014305D01*
X0001603Y0013965D01*
X0001649Y0013625D01*
X0001702Y0013287D01*
X0001764Y0012950D01*
X0001834Y0012615D01*
X0001912Y0012281D01*
X0001998Y0011950D01*
X0002092Y0011620D01*
X0002194Y0011293D01*
X0002303Y0010969D01*
X0002421Y0010647D01*
X0002546Y0010328D01*
X0002679Y0010013D01*
X0002820Y0009700D01*
X0002968Y0009392D01*
X0003123Y0009086D01*
X0003286Y0008785D01*
X0003456Y0008488D01*
X0003633Y0008195D01*
X0003818Y0007906D01*
X0004009Y0007622D01*
X0004207Y0007342D01*
X0004411Y0007068D01*
X0004623Y0006798D01*
X0004840Y0006534D01*
X0005064Y0006275D01*
X0005295Y0006021D01*
X0005531Y0005773D01*
X0005773Y0005531D01*
X0006021Y0005295D01*
X0006275Y0005064D01*
X0006534Y0004840D01*
X0006798Y0004623D01*
X0007068Y0004411D01*
X0007342Y0004207D01*
X0007622Y0004009D01*
X0007906Y0003818D01*
X0008195Y0003633D01*
X0008488Y0003456D01*
X0008785Y0003286D01*
X0009086Y0003123D01*
X0009392Y0002968D01*
X0009700Y0002820D01*
X0010013Y0002679D01*
X0010328Y0002546D01*
X0010647Y0002421D01*
X0010969Y0002303D01*
X0011293Y0002194D01*
X0011620Y0002092D01*
X0011950Y0001998D01*
X0012281Y0001912D01*
X0012615Y0001834D01*
X0012950Y0001764D01*
X0013287Y0001702D01*
X0013625Y0001649D01*
X0013965Y0001603D01*
X0014305Y0001566D01*
X0014646Y0001537D01*
X0014988Y0001517D01*
X0015331Y0001504D01*
X0015673Y0001500D01*
X0010260Y0078500D02*
X0010262Y0078569D01*
X0010268Y0078637D01*
X0010278Y0078705D01*
X0010292Y0078772D01*
X0010310Y0078839D01*
X0010331Y0078904D01*
X0010357Y0078968D01*
X0010386Y0079030D01*
X0010418Y0079090D01*
X0010454Y0079149D01*
X0010494Y0079205D01*
X0010536Y0079259D01*
X0010582Y0079310D01*
X0010631Y0079359D01*
X0010682Y0079405D01*
X0010736Y0079447D01*
X0010792Y0079487D01*
X0010850Y0079523D01*
X0010911Y0079555D01*
X0010973Y0079584D01*
X0011037Y0079610D01*
X0011102Y0079631D01*
X0011169Y0079649D01*
X0011236Y0079663D01*
X0011304Y0079673D01*
X0011372Y0079679D01*
X0011441Y0079681D01*
X0011510Y0079679D01*
X0011578Y0079673D01*
X0011646Y0079663D01*
X0011713Y0079649D01*
X0011780Y0079631D01*
X0011845Y0079610D01*
X0011909Y0079584D01*
X0011971Y0079555D01*
X0012031Y0079523D01*
X0012090Y0079487D01*
X0012146Y0079447D01*
X0012200Y0079405D01*
X0012251Y0079359D01*
X0012300Y0079310D01*
X0012346Y0079259D01*
X0012388Y0079205D01*
X0012428Y0079149D01*
X0012464Y0079090D01*
X0012496Y0079030D01*
X0012525Y0078968D01*
X0012551Y0078904D01*
X0012572Y0078839D01*
X0012590Y0078772D01*
X0012604Y0078705D01*
X0012614Y0078637D01*
X0012620Y0078569D01*
X0012622Y0078500D01*
X0012620Y0078431D01*
X0012614Y0078363D01*
X0012604Y0078295D01*
X0012590Y0078228D01*
X0012572Y0078161D01*
X0012551Y0078096D01*
X0012525Y0078032D01*
X0012496Y0077970D01*
X0012464Y0077909D01*
X0012428Y0077851D01*
X0012388Y0077795D01*
X0012346Y0077741D01*
X0012300Y0077690D01*
X0012251Y0077641D01*
X0012200Y0077595D01*
X0012146Y0077553D01*
X0012090Y0077513D01*
X0012032Y0077477D01*
X0011971Y0077445D01*
X0011909Y0077416D01*
X0011845Y0077390D01*
X0011780Y0077369D01*
X0011713Y0077351D01*
X0011646Y0077337D01*
X0011578Y0077327D01*
X0011510Y0077321D01*
X0011441Y0077319D01*
X0011372Y0077321D01*
X0011304Y0077327D01*
X0011236Y0077337D01*
X0011169Y0077351D01*
X0011102Y0077369D01*
X0011037Y0077390D01*
X0010973Y0077416D01*
X0010911Y0077445D01*
X0010850Y0077477D01*
X0010792Y0077513D01*
X0010736Y0077553D01*
X0010682Y0077595D01*
X0010631Y0077641D01*
X0010582Y0077690D01*
X0010536Y0077741D01*
X0010494Y0077795D01*
X0010454Y0077851D01*
X0010418Y0077909D01*
X0010386Y0077970D01*
X0010357Y0078032D01*
X0010331Y0078096D01*
X0010310Y0078161D01*
X0010292Y0078228D01*
X0010278Y0078295D01*
X0010268Y0078363D01*
X0010262Y0078431D01*
X0010260Y0078500D01*
X0272268Y0078500D02*
X0272270Y0078593D01*
X0272276Y0078685D01*
X0272286Y0078777D01*
X0272300Y0078868D01*
X0272317Y0078959D01*
X0272339Y0079049D01*
X0272364Y0079138D01*
X0272393Y0079226D01*
X0272426Y0079312D01*
X0272463Y0079397D01*
X0272503Y0079481D01*
X0272547Y0079562D01*
X0272594Y0079642D01*
X0272644Y0079720D01*
X0272698Y0079795D01*
X0272755Y0079868D01*
X0272815Y0079938D01*
X0272878Y0080006D01*
X0272944Y0080071D01*
X0273012Y0080133D01*
X0273083Y0080193D01*
X0273157Y0080249D01*
X0273233Y0080302D01*
X0273311Y0080351D01*
X0273391Y0080398D01*
X0273473Y0080440D01*
X0273557Y0080480D01*
X0273642Y0080515D01*
X0273729Y0080547D01*
X0273817Y0080576D01*
X0273906Y0080600D01*
X0273996Y0080621D01*
X0274087Y0080637D01*
X0274179Y0080650D01*
X0274271Y0080659D01*
X0274364Y0080664D01*
X0274456Y0080665D01*
X0274549Y0080662D01*
X0274641Y0080655D01*
X0274733Y0080644D01*
X0274824Y0080629D01*
X0274915Y0080611D01*
X0275005Y0080588D01*
X0275093Y0080562D01*
X0275181Y0080532D01*
X0275267Y0080498D01*
X0275351Y0080461D01*
X0275434Y0080419D01*
X0275515Y0080375D01*
X0275595Y0080327D01*
X0275672Y0080276D01*
X0275746Y0080221D01*
X0275819Y0080163D01*
X0275889Y0080103D01*
X0275956Y0080039D01*
X0276020Y0079973D01*
X0276082Y0079903D01*
X0276140Y0079832D01*
X0276195Y0079758D01*
X0276247Y0079681D01*
X0276296Y0079602D01*
X0276342Y0079522D01*
X0276384Y0079439D01*
X0276422Y0079355D01*
X0276457Y0079269D01*
X0276488Y0079182D01*
X0276515Y0079094D01*
X0276538Y0079004D01*
X0276558Y0078914D01*
X0276574Y0078823D01*
X0276586Y0078731D01*
X0276594Y0078639D01*
X0276598Y0078546D01*
X0276598Y0078454D01*
X0276594Y0078361D01*
X0276586Y0078269D01*
X0276574Y0078177D01*
X0276558Y0078086D01*
X0276538Y0077996D01*
X0276515Y0077906D01*
X0276488Y0077818D01*
X0276457Y0077731D01*
X0276422Y0077645D01*
X0276384Y0077561D01*
X0276342Y0077478D01*
X0276296Y0077398D01*
X0276247Y0077319D01*
X0276195Y0077242D01*
X0276140Y0077168D01*
X0276082Y0077097D01*
X0276020Y0077027D01*
X0275956Y0076961D01*
X0275889Y0076897D01*
X0275819Y0076837D01*
X0275746Y0076779D01*
X0275672Y0076724D01*
X0275595Y0076673D01*
X0275516Y0076625D01*
X0275434Y0076581D01*
X0275351Y0076539D01*
X0275267Y0076502D01*
X0275181Y0076468D01*
X0275093Y0076438D01*
X0275005Y0076412D01*
X0274915Y0076389D01*
X0274824Y0076371D01*
X0274733Y0076356D01*
X0274641Y0076345D01*
X0274549Y0076338D01*
X0274456Y0076335D01*
X0274364Y0076336D01*
X0274271Y0076341D01*
X0274179Y0076350D01*
X0274087Y0076363D01*
X0273996Y0076379D01*
X0273906Y0076400D01*
X0273817Y0076424D01*
X0273729Y0076453D01*
X0273642Y0076485D01*
X0273557Y0076520D01*
X0273473Y0076560D01*
X0273391Y0076602D01*
X0273311Y0076649D01*
X0273233Y0076698D01*
X0273157Y0076751D01*
X0273083Y0076807D01*
X0273012Y0076867D01*
X0272944Y0076929D01*
X0272878Y0076994D01*
X0272815Y0077062D01*
X0272755Y0077132D01*
X0272698Y0077205D01*
X0272644Y0077280D01*
X0272594Y0077358D01*
X0272547Y0077438D01*
X0272503Y0077519D01*
X0272463Y0077603D01*
X0272426Y0077688D01*
X0272393Y0077774D01*
X0272364Y0077862D01*
X0272339Y0077951D01*
X0272317Y0078041D01*
X0272300Y0078132D01*
X0272286Y0078223D01*
X0272276Y0078315D01*
X0272270Y0078407D01*
X0272268Y0078500D01*
M02*
