G75*
%MOIN*%
%OFA0B0*%
%FSLAX25Y25*%
%IPPOS*%
%LPD*%
%AMOC8*
5,1,8,0,0,1.08239X$1,22.5*
%
%ADD10C,0.00800*%
%ADD11C,0.00600*%
%ADD12C,0.00400*%
%ADD13C,0.00500*%
%ADD14C,0.00300*%
%ADD15C,0.00200*%
D10*
X0003370Y0059209D02*
X0003370Y0085390D01*
X0282504Y0085390D01*
X0282504Y0059209D01*
X0271480Y0059209D01*
X0271480Y0063539D01*
X0278764Y0085783D02*
X0278764Y0112161D01*
X0283291Y0117476D01*
X0283291Y0142870D01*
X0216953Y0093657D02*
X0216953Y0085783D01*
X0214197Y0085783D02*
X0214197Y0093657D01*
X0214198Y0093657D02*
X0214205Y0093731D01*
X0214216Y0093804D01*
X0214231Y0093876D01*
X0214250Y0093948D01*
X0214273Y0094018D01*
X0214299Y0094087D01*
X0214329Y0094155D01*
X0214363Y0094221D01*
X0214400Y0094285D01*
X0214441Y0094347D01*
X0214484Y0094406D01*
X0214531Y0094463D01*
X0214581Y0094518D01*
X0214634Y0094570D01*
X0214689Y0094619D01*
X0214747Y0094665D01*
X0214808Y0094707D01*
X0214870Y0094747D01*
X0214935Y0094783D01*
X0215001Y0094815D01*
X0215069Y0094844D01*
X0215139Y0094869D01*
X0215210Y0094891D01*
X0215281Y0094908D01*
X0215354Y0094922D01*
X0215427Y0094932D01*
X0215501Y0094938D01*
X0215575Y0094940D01*
X0215649Y0094938D01*
X0215723Y0094932D01*
X0215796Y0094922D01*
X0215869Y0094908D01*
X0215940Y0094891D01*
X0216011Y0094869D01*
X0216081Y0094844D01*
X0216149Y0094815D01*
X0216215Y0094783D01*
X0216280Y0094747D01*
X0216342Y0094707D01*
X0216403Y0094665D01*
X0216461Y0094619D01*
X0216516Y0094570D01*
X0216569Y0094518D01*
X0216619Y0094463D01*
X0216666Y0094406D01*
X0216709Y0094347D01*
X0216750Y0094285D01*
X0216787Y0094221D01*
X0216821Y0094155D01*
X0216851Y0094087D01*
X0216877Y0094018D01*
X0216900Y0093948D01*
X0216919Y0093876D01*
X0216934Y0093804D01*
X0216945Y0093731D01*
X0216952Y0093657D01*
X0014394Y0063539D02*
X0014394Y0059209D01*
X0003370Y0059209D01*
X0007110Y0085783D02*
X0007110Y0112161D01*
X0002583Y0117476D01*
X0002583Y0142870D01*
D11*
X0020800Y0151900D02*
X0020800Y0153100D01*
X0022600Y0156800D02*
X0024400Y0156800D01*
X0023800Y0155700D02*
X0023741Y0155685D01*
X0023682Y0155673D01*
X0023621Y0155664D01*
X0023561Y0155659D01*
X0023500Y0155657D01*
X0023439Y0155659D01*
X0023379Y0155664D01*
X0023318Y0155673D01*
X0023259Y0155685D01*
X0023200Y0155700D01*
X0022600Y0148200D02*
X0024400Y0148200D01*
X0069500Y0122000D02*
X0069500Y0107000D01*
X0072000Y0104500D01*
X0077000Y0104500D01*
X0079500Y0107000D01*
X0079500Y0122000D01*
X0077000Y0124500D01*
X0072000Y0124500D01*
X0069500Y0122000D01*
X0079500Y0122000D02*
X0082000Y0124500D01*
X0087000Y0124500D01*
X0089500Y0122000D01*
X0089500Y0107000D01*
X0087000Y0104500D01*
X0082000Y0104500D01*
X0079500Y0107000D01*
X0089500Y0107000D02*
X0092000Y0104500D01*
X0097000Y0104500D01*
X0099500Y0107000D01*
X0099500Y0122000D01*
X0097000Y0124500D01*
X0092000Y0124500D01*
X0089500Y0122000D01*
X0099500Y0122000D02*
X0102000Y0124500D01*
X0107000Y0124500D01*
X0109500Y0122000D01*
X0109500Y0107000D01*
X0107000Y0104500D01*
X0102000Y0104500D01*
X0099500Y0107000D01*
X0220217Y0081185D02*
X0220217Y0076915D01*
X0221284Y0075847D01*
X0224487Y0075847D01*
X0224487Y0082253D01*
X0221284Y0082253D01*
X0220217Y0081185D01*
X0226662Y0082253D02*
X0230933Y0082253D01*
X0228797Y0082253D02*
X0228797Y0075847D01*
X0233108Y0076915D02*
X0233108Y0077982D01*
X0234175Y0079050D01*
X0236310Y0079050D01*
X0237378Y0080118D01*
X0237378Y0081185D01*
X0236310Y0082253D01*
X0234175Y0082253D01*
X0233108Y0081185D01*
X0233108Y0076915D02*
X0234175Y0075847D01*
X0236310Y0075847D01*
X0237378Y0076915D01*
X0245999Y0075847D02*
X0250269Y0075847D01*
X0245999Y0080118D01*
X0245999Y0081185D01*
X0247066Y0082253D01*
X0249201Y0082253D01*
X0250269Y0081185D01*
X0252444Y0081185D02*
X0252444Y0079050D01*
X0253512Y0077982D01*
X0256715Y0077982D01*
X0254579Y0077982D02*
X0252444Y0075847D01*
X0256715Y0075847D02*
X0256715Y0082253D01*
X0253512Y0082253D01*
X0252444Y0081185D01*
X0258890Y0081185D02*
X0258890Y0076915D01*
X0259957Y0075847D01*
X0263160Y0075847D01*
X0263160Y0082253D01*
X0259957Y0082253D01*
X0258890Y0081185D01*
X0265335Y0081185D02*
X0265335Y0076915D01*
X0266403Y0075847D01*
X0269606Y0075847D01*
X0269606Y0082253D01*
X0266403Y0082253D01*
X0265335Y0081185D01*
D12*
X0268232Y0069445D02*
X0269709Y0066492D01*
X0271185Y0069445D01*
X0268232Y0069445D01*
X0268331Y0069247D02*
X0271086Y0069247D01*
X0270887Y0068848D02*
X0268531Y0068848D01*
X0268730Y0068450D02*
X0270688Y0068450D01*
X0270488Y0068051D02*
X0268929Y0068051D01*
X0269128Y0067653D02*
X0270289Y0067653D01*
X0270090Y0067254D02*
X0269328Y0067254D01*
X0269527Y0066856D02*
X0269891Y0066856D01*
X0055591Y0159779D02*
X0053923Y0159779D01*
X0053590Y0160112D01*
X0053590Y0160780D01*
X0053923Y0161113D01*
X0055591Y0161113D01*
X0055591Y0161989D02*
X0054591Y0161989D01*
X0054924Y0162656D01*
X0054924Y0162989D01*
X0054591Y0163323D01*
X0053923Y0163323D01*
X0053590Y0162989D01*
X0053590Y0162322D01*
X0053923Y0161989D01*
X0055591Y0161989D02*
X0055591Y0163323D01*
D13*
X0001500Y0163500D02*
X0001500Y0056000D01*
X0284000Y0056000D01*
X0284000Y0163500D01*
X0276500Y0163500D01*
X0276500Y0198500D01*
X0009000Y0198500D01*
X0009000Y0163500D01*
X0001500Y0163500D01*
X0037626Y0177563D02*
X0041563Y0173626D01*
X0049437Y0173626D01*
X0053374Y0177563D01*
X0053374Y0185437D01*
X0049437Y0189374D01*
X0041563Y0189374D01*
X0037626Y0185437D01*
X0037626Y0177563D01*
X0066626Y0145437D02*
X0070563Y0149374D01*
X0078437Y0149374D01*
X0082374Y0145437D01*
X0082374Y0137563D01*
X0078437Y0133626D01*
X0070563Y0133626D01*
X0066626Y0137563D01*
X0066626Y0145437D01*
D14*
X0030450Y0156834D02*
X0027314Y0159970D01*
X0027314Y0158402D02*
X0030450Y0158402D01*
X0030450Y0159970D02*
X0027314Y0156834D01*
X0028882Y0156834D02*
X0028882Y0159970D01*
D15*
X0024533Y0166100D02*
X0023799Y0166100D01*
X0023432Y0166467D01*
X0022690Y0166467D02*
X0022690Y0166834D01*
X0022323Y0167201D01*
X0021589Y0167201D01*
X0021222Y0166834D01*
X0021222Y0166467D01*
X0021589Y0166100D01*
X0022323Y0166100D01*
X0022690Y0166467D01*
X0022323Y0167201D02*
X0022690Y0167568D01*
X0022690Y0167935D01*
X0022323Y0168302D01*
X0021589Y0168302D01*
X0021222Y0167935D01*
X0021222Y0167568D01*
X0021589Y0167201D01*
X0023432Y0167935D02*
X0023799Y0168302D01*
X0024533Y0168302D01*
X0024900Y0167935D01*
X0024900Y0166467D01*
X0024533Y0166100D01*
X0013302Y0166044D02*
X0012568Y0165310D01*
X0012935Y0164568D02*
X0013302Y0164201D01*
X0013302Y0163467D01*
X0012935Y0163100D01*
X0011467Y0163100D01*
X0011100Y0163467D01*
X0011100Y0164201D01*
X0011467Y0164568D01*
X0011100Y0165310D02*
X0011100Y0166778D01*
X0011100Y0166044D02*
X0013302Y0166044D01*
X0012935Y0167520D02*
X0013302Y0167887D01*
X0013302Y0168621D01*
X0012935Y0168988D01*
X0011467Y0167520D01*
X0011100Y0167887D01*
X0011100Y0168621D01*
X0011467Y0168988D01*
X0012935Y0168988D01*
X0012935Y0167520D02*
X0011467Y0167520D01*
X0031600Y0151811D02*
X0031967Y0152178D01*
X0032334Y0152178D01*
X0032701Y0151811D01*
X0032701Y0150710D01*
X0031967Y0150710D01*
X0031600Y0151077D01*
X0031600Y0151811D01*
X0032701Y0150710D02*
X0033435Y0151444D01*
X0033802Y0152178D01*
X0033802Y0149968D02*
X0031967Y0149968D01*
X0031600Y0149601D01*
X0031600Y0148867D01*
X0031967Y0148500D01*
X0033802Y0148500D01*
X0023320Y0140535D02*
X0023320Y0139067D01*
X0022953Y0138700D01*
X0022219Y0138700D01*
X0021852Y0139067D01*
X0021110Y0139067D02*
X0020743Y0138700D01*
X0020009Y0138700D01*
X0019642Y0139067D01*
X0019642Y0140535D01*
X0020009Y0140902D01*
X0020743Y0140902D01*
X0021110Y0140535D01*
X0021110Y0140168D01*
X0020743Y0139801D01*
X0019642Y0139801D01*
X0021852Y0140535D02*
X0022219Y0140902D01*
X0022953Y0140902D01*
X0023320Y0140535D01*
X0037435Y0122778D02*
X0035967Y0121310D01*
X0035600Y0121310D01*
X0035600Y0120568D02*
X0036334Y0119834D01*
X0036334Y0120201D02*
X0036334Y0119100D01*
X0035600Y0119100D02*
X0037802Y0119100D01*
X0037802Y0120201D01*
X0037435Y0120568D01*
X0036701Y0120568D01*
X0036334Y0120201D01*
X0037802Y0121310D02*
X0037802Y0122778D01*
X0037435Y0122778D01*
X0045600Y0122411D02*
X0045600Y0121677D01*
X0045967Y0121310D01*
X0046334Y0121310D01*
X0046701Y0121677D01*
X0046701Y0122411D01*
X0046334Y0122778D01*
X0045967Y0122778D01*
X0045600Y0122411D01*
X0046701Y0122411D02*
X0047068Y0122778D01*
X0047435Y0122778D01*
X0047802Y0122411D01*
X0047802Y0121677D01*
X0047435Y0121310D01*
X0047068Y0121310D01*
X0046701Y0121677D01*
X0046701Y0120568D02*
X0046334Y0120201D01*
X0046334Y0119100D01*
X0046334Y0119834D02*
X0045600Y0120568D01*
X0046701Y0120568D02*
X0047435Y0120568D01*
X0047802Y0120201D01*
X0047802Y0119100D01*
X0045600Y0119100D01*
X0055600Y0115621D02*
X0055600Y0114887D01*
X0055967Y0114520D01*
X0057435Y0115988D01*
X0055967Y0115988D01*
X0055600Y0115621D01*
X0055967Y0114520D02*
X0057435Y0114520D01*
X0057802Y0114887D01*
X0057802Y0115621D01*
X0057435Y0115988D01*
X0055600Y0113778D02*
X0055600Y0112310D01*
X0055600Y0113044D02*
X0057802Y0113044D01*
X0057068Y0112310D01*
X0057435Y0111568D02*
X0056701Y0111568D01*
X0056334Y0111201D01*
X0056334Y0110100D01*
X0056334Y0110834D02*
X0055600Y0111568D01*
X0055600Y0110100D02*
X0057802Y0110100D01*
X0057802Y0111201D01*
X0057435Y0111568D01*
X0065600Y0111100D02*
X0067802Y0111100D01*
X0067802Y0112201D01*
X0067435Y0112568D01*
X0066701Y0112568D01*
X0066334Y0112201D01*
X0066334Y0111100D01*
X0066334Y0111834D02*
X0065600Y0112568D01*
X0065967Y0113310D02*
X0065600Y0113677D01*
X0065600Y0114411D01*
X0065967Y0114778D01*
X0067435Y0114778D01*
X0067802Y0114411D01*
X0067802Y0113677D01*
X0067435Y0113310D01*
X0067068Y0113310D01*
X0066701Y0113677D01*
X0066701Y0114778D01*
X0052900Y0136100D02*
X0052900Y0138302D01*
X0051799Y0138302D01*
X0051432Y0137935D01*
X0051432Y0137201D01*
X0051799Y0136834D01*
X0052900Y0136834D01*
X0052166Y0136834D02*
X0051432Y0136100D01*
X0050690Y0136467D02*
X0050323Y0136100D01*
X0049589Y0136100D01*
X0049222Y0136467D01*
X0049222Y0137201D01*
X0049589Y0137568D01*
X0049956Y0137568D01*
X0050690Y0137201D01*
X0050690Y0138302D01*
X0049222Y0138302D01*
X0050009Y0140700D02*
X0050009Y0142902D01*
X0051110Y0141801D01*
X0049642Y0141801D01*
X0051852Y0142535D02*
X0052219Y0142902D01*
X0052953Y0142902D01*
X0053320Y0142535D01*
X0053320Y0141067D01*
X0052953Y0140700D01*
X0052219Y0140700D01*
X0051852Y0141067D01*
X0051852Y0145700D02*
X0052586Y0146434D01*
X0052219Y0146434D02*
X0053320Y0146434D01*
X0053320Y0145700D02*
X0053320Y0147902D01*
X0052219Y0147902D01*
X0051852Y0147535D01*
X0051852Y0146801D01*
X0052219Y0146434D01*
X0051110Y0145700D02*
X0049642Y0147168D01*
X0049642Y0147535D01*
X0050009Y0147902D01*
X0050743Y0147902D01*
X0051110Y0147535D01*
X0051110Y0145700D02*
X0049642Y0145700D01*
X0074600Y0150967D02*
X0074600Y0151701D01*
X0074967Y0152068D01*
X0074967Y0152810D02*
X0074600Y0153177D01*
X0074600Y0153911D01*
X0074967Y0154278D01*
X0075334Y0154278D01*
X0075701Y0153911D01*
X0075701Y0153544D01*
X0075701Y0153911D02*
X0076068Y0154278D01*
X0076435Y0154278D01*
X0076802Y0153911D01*
X0076802Y0153177D01*
X0076435Y0152810D01*
X0076435Y0152068D02*
X0076802Y0151701D01*
X0076802Y0150967D01*
X0076435Y0150600D01*
X0074967Y0150600D01*
X0074600Y0150967D01*
X0081600Y0150967D02*
X0081600Y0151701D01*
X0081967Y0152068D01*
X0081967Y0152810D02*
X0081600Y0152810D01*
X0081967Y0152810D02*
X0083435Y0154278D01*
X0083802Y0154278D01*
X0083802Y0152810D01*
X0083435Y0152068D02*
X0083802Y0151701D01*
X0083802Y0150967D01*
X0083435Y0150600D01*
X0081967Y0150600D01*
X0081600Y0150967D01*
X0070900Y0174100D02*
X0070900Y0176302D01*
X0069799Y0176302D01*
X0069432Y0175935D01*
X0069432Y0175201D01*
X0069799Y0174834D01*
X0070900Y0174834D01*
X0070166Y0174834D02*
X0069432Y0174100D01*
X0068690Y0174467D02*
X0068323Y0174100D01*
X0067589Y0174100D01*
X0067222Y0174467D01*
X0067222Y0174834D01*
X0067589Y0175201D01*
X0067956Y0175201D01*
X0067589Y0175201D02*
X0067222Y0175568D01*
X0067222Y0175935D01*
X0067589Y0176302D01*
X0068323Y0176302D01*
X0068690Y0175935D01*
X0068323Y0181100D02*
X0068690Y0181467D01*
X0068323Y0181100D02*
X0067589Y0181100D01*
X0067222Y0181467D01*
X0067222Y0182201D01*
X0067589Y0182568D01*
X0067956Y0182568D01*
X0068690Y0182201D01*
X0068690Y0183302D01*
X0067222Y0183302D01*
X0069432Y0182935D02*
X0069799Y0183302D01*
X0070533Y0183302D01*
X0070900Y0182935D01*
X0070900Y0181467D01*
X0070533Y0181100D01*
X0069799Y0181100D01*
X0069432Y0181467D01*
X0069852Y0186700D02*
X0070586Y0187434D01*
X0070219Y0187434D02*
X0071320Y0187434D01*
X0071320Y0186700D02*
X0071320Y0188902D01*
X0070219Y0188902D01*
X0069852Y0188535D01*
X0069852Y0187801D01*
X0070219Y0187434D01*
X0069110Y0187801D02*
X0067642Y0187801D01*
X0068009Y0186700D02*
X0068009Y0188902D01*
X0069110Y0187801D01*
X0046402Y0170491D02*
X0046402Y0169757D01*
X0046035Y0169390D01*
X0046035Y0168648D02*
X0046402Y0168281D01*
X0046402Y0167547D01*
X0046035Y0167180D01*
X0044567Y0167180D01*
X0044200Y0167547D01*
X0044200Y0168281D01*
X0044567Y0168648D01*
X0044200Y0169390D02*
X0045668Y0170858D01*
X0046035Y0170858D01*
X0046402Y0170491D01*
X0044200Y0170858D02*
X0044200Y0169390D01*
X0039402Y0168281D02*
X0039402Y0167547D01*
X0039035Y0167180D01*
X0037567Y0167180D01*
X0037200Y0167547D01*
X0037200Y0168281D01*
X0037567Y0168648D01*
X0037567Y0169390D02*
X0037200Y0169757D01*
X0037200Y0170491D01*
X0037567Y0170858D01*
X0037934Y0170858D01*
X0038301Y0170491D01*
X0038301Y0169390D01*
X0037567Y0169390D01*
X0038301Y0169390D02*
X0039035Y0170124D01*
X0039402Y0170858D01*
X0039035Y0168648D02*
X0039402Y0168281D01*
X0104546Y0124002D02*
X0105280Y0123268D01*
X0106022Y0123635D02*
X0106389Y0124002D01*
X0107490Y0124002D01*
X0107490Y0121800D01*
X0107490Y0122534D02*
X0106389Y0122534D01*
X0106022Y0122901D01*
X0106022Y0123635D01*
X0104546Y0124002D02*
X0104546Y0121800D01*
X0105280Y0121800D02*
X0103812Y0121800D01*
X0108599Y0122167D02*
X0108599Y0124002D01*
X0108966Y0124002D02*
X0108232Y0124002D01*
X0108599Y0122167D02*
X0108966Y0121800D01*
X0109333Y0121800D01*
X0109700Y0122167D01*
X0148800Y0111988D02*
X0148800Y0110520D01*
X0148800Y0111254D02*
X0151002Y0111254D01*
X0150268Y0110520D01*
X0148800Y0109778D02*
X0148800Y0108310D01*
X0148800Y0109044D02*
X0151002Y0109044D01*
X0150268Y0108310D01*
X0150635Y0107568D02*
X0149901Y0107568D01*
X0149534Y0107201D01*
X0149534Y0106100D01*
X0149534Y0106834D02*
X0148800Y0107568D01*
X0148800Y0106100D02*
X0151002Y0106100D01*
X0151002Y0107201D01*
X0150635Y0107568D01*
X0162400Y0107568D02*
X0163134Y0106834D01*
X0163134Y0107201D02*
X0163134Y0106100D01*
X0162400Y0106100D02*
X0164602Y0106100D01*
X0164602Y0107201D01*
X0164235Y0107568D01*
X0163501Y0107568D01*
X0163134Y0107201D01*
X0163868Y0108310D02*
X0164602Y0109044D01*
X0162400Y0109044D01*
X0162400Y0108310D02*
X0162400Y0109778D01*
X0162400Y0110520D02*
X0163868Y0111988D01*
X0164235Y0111988D01*
X0164602Y0111621D01*
X0164602Y0110887D01*
X0164235Y0110520D01*
X0162400Y0110520D02*
X0162400Y0111988D01*
M02*
